<?xml version="1.0" standalone="no"?>
<!DOCTYPE svg PUBLIC "-//W3C//DTD SVG 20010904//EN"
 "http://www.w3.org/TR/2001/REC-SVG-20010904/DTD/svg10.dtd">
<svg version="1.0" xmlns="http://www.w3.org/2000/svg"
 width="450.000000pt" height="350.000000pt" viewBox="0 0 450.000000 350.000000"
 preserveAspectRatio="xMidYMid meet">
<metadata>
Created by potrace 1.10, written by Peter Selinger 2001-2011
</metadata>
<g transform="translate(0.000000,350.000000) scale(0.100000,-0.100000)"
fill="#000000" stroke="none">
<path d="M2467 3291 c-8 -105 -41 -247 -66 -282 -12 -16 -17 -35 -14 -53 3
-15 0 -38 -7 -51 -8 -15 -10 -36 -5 -57 4 -18 9 -102 12 -185 3 -123 2 -153
-9 -153 -7 0 -19 -12 -26 -27 -19 -42 -36 -61 -57 -65 -14 -2 -21 3 -23 18 -2
12 -12 30 -22 39 -19 17 -20 17 -28 -6 -5 -13 -12 -31 -15 -39 -10 -25 0 160
14 244 12 78 12 79 -11 98 -18 14 -30 46 -51 131 -37 145 -37 154 1 162 41 9
48 25 11 25 -16 0 -36 3 -45 6 -13 5 -16 -2 -16 -37 0 -24 -9 -96 -20 -159
-17 -100 -23 -117 -45 -133 -24 -18 -25 -22 -19 -85 3 -37 13 -77 20 -89 17
-27 20 -178 3 -168 -6 4 -8 13 -5 21 4 9 -2 14 -15 14 -11 0 -22 7 -25 15 -4
8 -14 15 -23 15 -15 0 -16 -11 -13 -92 4 -101 -19 -230 -57 -323 -18 -44 -20
-46 -20 -20 1 17 -6 62 -15 102 -20 92 -35 223 -24 223 4 0 8 -4 8 -10 0 -19
39 -10 67 15 15 13 23 25 16 25 -6 0 -18 -7 -26 -15 -11 -11 -22 -12 -48 -5
-19 6 -35 10 -36 10 -2 0 -3 -27 -3 -59 0 -64 -27 -220 -40 -237 -5 -6 -5 -50
1 -105 12 -111 2 -329 -15 -330 -14 -1 -59 -6 -113 -13 l-43 -5 0 98 c0 81 3
101 18 114 12 11 22 13 32 7 8 -5 30 -10 48 -10 24 0 32 4 32 18 0 9 3 35 7
56 5 34 4 38 -10 33 -9 -3 -19 -2 -22 3 -4 6 -15 10 -26 10 -17 0 -19 7 -19
63 0 35 5 68 11 74 8 8 3 31 -15 83 -35 96 -66 242 -66 308 0 42 -3 52 -12 45
-7 -5 -26 -10 -41 -11 -26 -2 -31 4 -61 71 -46 100 -76 184 -69 191 4 3 16 6
27 6 12 1 35 7 51 15 l30 15 -32 -6 c-19 -3 -43 1 -62 10 -41 21 -41 21 -41
-20 0 -42 -61 -232 -91 -282 -13 -23 -16 -38 -10 -50 5 -9 12 -86 15 -171 6
-150 6 -154 -12 -138 -30 27 -69 22 -80 -10 l-10 -28 -1 28 c-1 30 -24 45 -44
29 -9 -8 -16 -6 -25 9 -7 10 -19 19 -28 19 -8 0 -12 5 -9 11 10 16 -4 59 -19
59 -7 0 -17 -10 -22 -22 -12 -28 -6 -78 8 -78 6 0 8 13 5 33 -3 19 -1 40 4 48
5 9 9 -39 9 -124 0 -127 -1 -138 -17 -133 -109 34 -357 35 -446 1 -16 -7 -17
3 -17 129 0 114 2 136 15 136 19 0 21 -60 3 -79 -11 -11 -9 -11 9 -2 12 6 31
11 42 11 10 0 21 5 23 12 3 7 21 12 42 11 32 -1 36 2 29 15 -4 10 -9 79 -11
154 l-3 136 55 7 c31 4 77 4 103 1 90 -13 85 -5 82 -120 -3 -93 -5 -104 -24
-112 -11 -5 -21 -19 -23 -31 -2 -13 -10 -23 -19 -23 -11 0 -14 6 -10 22 4 12
3 41 0 65 -5 34 -10 43 -26 43 -18 0 -19 -5 -15 -55 4 -48 2 -55 -14 -55 -11
0 -18 7 -18 20 0 15 -7 20 -25 20 -22 0 -25 -3 -19 -25 5 -20 3 -24 -10 -19
-9 3 -16 1 -16 -6 0 -8 13 -9 45 -4 44 6 45 5 45 -20 0 -14 5 -26 10 -26 6 0
10 11 10 24 0 33 16 42 24 13 3 -14 13 -22 28 -23 19 -1 23 3 23 29 0 20 6 33
15 35 12 2 15 -6 12 -38 -4 -35 -1 -40 16 -40 35 0 45 58 16 91 -10 11 -14 43
-14 111 0 88 2 96 25 118 19 18 25 34 25 65 0 22 7 51 16 64 16 22 14 27 -30
119 -47 100 -86 230 -111 374 -18 100 -19 132 -4 123 6 -4 30 -2 55 5 35 10
47 10 59 0 25 -21 27 -5 2 18 -19 18 -28 20 -54 13 -23 -7 -37 -5 -50 5 -35
26 -43 17 -43 -50 0 -101 -74 -312 -159 -456 -57 -96 -62 -112 -45 -145 8 -15
14 -46 14 -69 0 -23 8 -52 18 -66 14 -20 18 -51 20 -157 3 -92 1 -133 -7 -133
-6 0 -11 16 -11 35 0 19 -5 35 -11 35 -23 0 -49 -22 -49 -40 0 -11 -4 -20 -10
-20 -5 0 -10 9 -10 20 0 24 -19 26 -46 5 -10 -8 -37 -15 -59 -15 -23 0 -58 -9
-79 -19 l-38 -20 -38 25 c-78 52 -195 69 -267 39 -20 -8 -34 -18 -30 -21 3 -3
16 0 29 7 12 7 55 13 94 13 63 0 81 -4 145 -37 l74 -37 42 21 c24 12 55 19 75
17 32 -3 33 -4 36 -54 l3 -51 -217 -6 -217 -6 -19 25 c-11 13 -24 24 -31 24
-6 0 2 -14 19 -31 l29 -30 218 7 217 7 0 -70 c0 -66 2 -71 35 -103 29 -28 55
-80 55 -112 0 -12 -52 -10 -88 3 -24 8 -37 7 -61 -5 -16 -9 -55 -16 -85 -16
-30 0 -66 -4 -80 -10 -24 -9 -26 -7 -26 15 0 30 -42 77 -63 69 -8 -3 -18 -1
-22 5 -11 18 -42 12 -59 -11 -12 -17 -15 -18 -14 -6 3 19 -58 78 -81 78 -12
-1 -11 -3 4 -12 44 -25 67 -56 65 -90 -3 -53 -2 -56 30 -63 27 -6 28 -8 17
-28 -7 -12 -20 -32 -31 -44 -11 -13 -16 -30 -13 -43 4 -15 0 -20 -14 -20 -15
0 -17 -4 -10 -22 5 -13 10 -27 11 -33 1 -5 5 -16 7 -23 3 -7 -1 -20 -8 -29 -8
-9 -20 -28 -26 -42 -12 -24 -12 -22 -7 19 4 25 10 50 14 55 9 12 -7 75 -20 75
-18 0 -24 -26 -25 -102 0 -83 6 -93 54 -89 14 2 21 -1 17 -8 -4 -6 -3 -11 2
-11 5 0 22 -19 37 -41 22 -35 26 -50 22 -86 -6 -57 -12 -62 -38 -30 -15 20
-29 27 -52 26 l-32 -1 33 -8 c18 -4 34 -9 36 -11 23 -31 46 -82 46 -103 0 -23
-2 -25 -20 -16 -26 14 -79 19 -86 9 -3 -5 8 -9 24 -9 44 0 99 -26 138 -66 28
-29 34 -43 34 -77 l0 -42 -31 52 c-36 62 -56 67 -104 24 -18 -16 -39 -31 -45
-33 -7 -2 -13 -25 -14 -53 -1 -28 -8 -60 -14 -72 -20 -36 -14 -38 17 -9 l29
28 31 -23 c33 -24 40 -67 11 -61 -30 7 -90 7 -90 0 0 -5 10 -9 23 -10 12 0 27
-2 32 -2 12 -2 98 -28 104 -33 7 -5 -43 -42 -57 -43 -7 0 -10 -5 -7 -10 4 -6
11 -7 17 -4 5 4 23 -8 38 -25 16 -17 38 -31 49 -31 23 0 61 -45 61 -72 0 -25
-39 -80 -51 -73 -5 4 -9 1 -9 -6 0 -8 -3 -9 -13 0 -23 19 -80 20 -94 2 -11
-14 -14 -14 -23 -1 -5 8 -10 23 -10 33 0 10 -4 16 -9 13 -5 -3 -11 1 -15 9 -3
8 -13 15 -22 15 -13 0 -11 -4 7 -19 23 -19 23 -21 7 -50 -16 -29 -16 -30 9
-46 21 -14 24 -22 18 -52 -3 -19 -9 -42 -12 -50 -4 -11 -2 -14 5 -9 7 4 12 17
13 29 1 14 5 8 11 -16 11 -40 -6 -132 -23 -122 -15 10 -41 119 -35 147 3 18 2
27 -4 23 -21 -13 -3 -131 26 -165 7 -9 9 -21 5 -30 -5 -8 -11 -32 -15 -52 -4
-21 -12 -38 -19 -39 -34 -2 36 -18 83 -19 59 -1 60 -1 -34 -40 -27 -11 -47
-23 -44 -25 3 -3 41 9 84 27 l79 33 150 -5 c122 -4 140 -6 98 -13 -84 -12
-303 -97 -303 -118 0 -4 24 4 52 18 133 64 323 113 442 113 66 0 165 -19 234
-44 66 -24 70 -28 37 -43 -27 -11 -24 -12 30 -5 33 4 130 6 215 6 144 -1 257
-17 355 -49 20 -7 20 -7 0 6 -53 34 -169 52 -362 55 -184 4 -194 6 -250 32
-55 25 -56 27 -28 30 17 2 65 14 108 28 57 18 101 24 165 24 48 0 112 7 142
15 42 12 83 14 180 9 108 -6 134 -10 189 -35 83 -37 156 -56 253 -65 55 -5 82
-3 92 5 11 9 38 10 93 6 48 -4 94 -3 118 4 27 7 43 7 51 0 9 -7 36 -7 86 0 81
11 137 29 206 65 133 69 146 71 232 26 84 -44 115 -46 184 -14 56 26 63 26
128 16 47 -7 83 -20 115 -41 59 -39 114 -41 219 -5 77 25 135 27 150 3 11 -18
-24 -56 -58 -64 -18 -4 -157 -9 -308 -10 -401 -4 -817 -39 -955 -80 -46 -14
-47 -15 -10 -9 22 3 81 12 130 20 174 28 413 45 715 51 l305 5 108 -27 c60
-14 111 -24 113 -22 3 3 -26 13 -63 22 -99 26 -103 31 -26 38 95 9 307 -18
464 -58 34 -9 66 -14 72 -12 18 6 -63 27 -203 52 l-125 22 105 7 c58 4 169 16
247 27 79 10 163 19 188 19 39 0 45 3 45 21 0 16 -4 19 -20 14 -12 -4 -20 -2
-20 5 0 22 -42 71 -56 66 -8 -3 -21 5 -30 19 -13 20 -14 28 -4 40 9 10 9 15 1
15 -6 0 -11 -6 -12 -12 0 -7 -4 -3 -9 9 -8 19 -13 21 -40 13 -36 -10 -60 -4
-60 17 0 8 -4 11 -10 8 -14 -9 -12 2 6 30 13 20 75 65 90 65 3 0 16 -12 29
-26 18 -20 25 -23 25 -11 0 9 -9 23 -21 31 -14 9 -18 19 -13 28 5 7 7 23 6 35
-2 14 7 33 22 48 14 14 26 30 26 35 0 11 35 74 62 112 21 30 14 39 -8 10 -12
-15 -13 -14 -14 11 0 22 -4 27 -22 26 -18 -1 -19 -2 -5 -6 14 -4 17 -13 15
-41 -3 -35 -5 -37 -38 -37 -19 -1 -41 -4 -48 -8 -8 -6 -12 -1 -13 15 -1 18 -2
19 -6 5 -4 -16 -7 -17 -21 -4 -11 9 -26 11 -42 6 -16 -4 -19 -7 -7 -8 15 -1
17 -12 16 -83 0 -67 -2 -79 -11 -60 -6 12 -15 22 -21 22 -21 0 -76 84 -77 116
0 12 -9 33 -20 47 -17 22 -18 26 -5 37 8 7 12 17 9 22 -10 16 43 55 96 73 44
15 50 15 84 -1 20 -10 36 -22 36 -27 0 -4 10 -7 23 -6 12 2 28 0 35 -4 7 -5
12 -4 12 2 0 6 -5 11 -12 11 -9 0 -9 3 -1 11 14 14 47 4 38 -11 -3 -5 -2 -10
2 -10 12 0 35 41 27 48 -4 4 -9 1 -11 -5 -3 -8 -14 -11 -29 -7 -16 4 -31 1
-44 -11 -18 -17 -46 -12 -35 6 4 5 -2 9 -12 9 -19 1 -73 28 -60 31 12 2 26 6
35 9 4 1 -6 5 -23 9 -32 7 -43 37 -12 35 9 -1 17 2 17 7 0 5 -4 9 -10 9 -16 0
-12 57 5 64 8 3 15 15 15 26 0 11 8 23 18 26 9 3 25 10 34 15 23 12 55 11 79
-1 13 -7 19 -7 19 -1 0 23 -76 26 -122 6 -14 -5 -18 -2 -18 12 0 10 -6 25 -12
32 -10 11 -10 14 -1 18 7 3 13 12 13 21 0 8 7 23 15 32 14 15 14 20 0 46 -19
37 -19 49 1 69 9 9 14 19 10 22 -9 9 -36 -18 -36 -37 0 -35 -51 -35 -70 1 -13
24 -13 29 4 29 7 0 21 10 30 22 8 13 14 16 12 8 -1 -8 -1 -11 2 -7 2 5 14 12
27 17 19 7 22 16 22 57 -1 38 2 47 14 45 9 -1 23 6 33 17 16 18 16 20 -1 36
-20 20 -23 97 -4 103 6 2 11 10 11 18 0 13 24 19 57 15 7 -1 10 4 7 12 -3 8 5
18 18 25 l23 11 -22 0 c-13 1 -28 -8 -35 -19 -7 -11 -23 -20 -36 -20 -15 0
-26 -9 -33 -27 -6 -16 -15 -36 -21 -46 -7 -14 -3 -28 12 -54 25 -42 20 -64
-12 -60 -20 2 -23 -3 -25 -36 -1 -40 -17 -67 -39 -67 -7 0 -18 -9 -24 -20 -6
-11 -17 -20 -25 -20 -8 0 -15 -4 -15 -10 0 -5 -8 -10 -19 -10 -21 0 -71 36
-71 52 0 9 -19 33 -74 90 -15 17 -17 29 -12 67 19 126 22 152 16 160 -8 14
-57 31 -86 31 -22 0 -24 4 -24 46 0 39 6 53 40 94 37 44 40 52 40 109 0 61 0
61 -40 81 -21 11 -49 20 -60 20 -20 0 -21 3 -14 58 4 31 13 66 19 77 7 11 16
34 20 51 3 18 19 46 36 65 27 31 29 37 29 120 0 48 5 91 10 94 24 15 7 53 -48
110 -46 48 -64 77 -90 145 -56 146 -132 412 -139 483 -5 57 -9 67 -22 61 -9
-3 -36 -9 -61 -12 l-45 -7 45 -5 c33 -4 49 -1 58 10 11 13 12 12 10 -5 -3 -15
-11 -20 -31 -18 -15 1 -25 -2 -22 -8 4 -5 17 -9 30 -9 23 0 24 -2 19 -47 -26
-214 -77 -420 -129 -523 -13 -25 -41 -62 -63 -84 l-40 -39 5 -111 6 -111 39
-37 c38 -38 38 -39 36 -110 l-1 -73 -7 65 c-4 41 -7 52 -8 29 -2 -44 -32 -61
-102 -57 -25 1 -84 -2 -132 -6 -78 -7 -88 -6 -88 8 0 9 3 16 8 16 4 0 8 23 9
50 2 40 0 50 -13 50 -14 0 -14 -3 -4 -15 9 -11 9 -15 1 -15 -6 0 -16 10 -21
23 -7 17 -9 18 -9 5 -1 -10 -6 -18 -12 -18 -5 0 -7 5 -3 11 3 6 0 15 -7 20 -9
5 -16 3 -21 -9 -6 -16 -7 -16 -7 1 -1 21 -21 23 -21 2 0 -8 -5 -15 -11 -15 -5
0 -8 4 -4 9 3 5 1 12 -5 16 -5 3 -10 -3 -10 -14 0 -16 6 -21 28 -21 46 0 102
-20 102 -36 0 -12 -5 -13 -22 -7 -25 9 -114 11 -138 3 -11 -4 -16 5 -18 37 -3
42 -3 42 39 53 44 12 114 6 154 -12 18 -8 23 -19 23 -45 0 -19 3 -37 6 -40 10
-10 36 6 36 22 0 9 -4 13 -10 10 -5 -3 -10 -1 -10 4 0 6 18 10 40 9 22 -1 40
-5 40 -10 0 -4 -4 -8 -10 -8 -5 0 -10 -4 -10 -10 0 -5 7 -10 15 -10 9 0 15 9
15 25 0 32 30 34 31 3 1 -21 2 -21 6 -3 3 11 9 22 13 25 20 13 17 146 -6 240
-28 113 -48 239 -40 247 3 3 29 15 58 25 l53 19 -45 -5 c-24 -3 -46 -10 -48
-15 -2 -6 -8 -11 -13 -11 -4 0 -6 7 -3 15 4 8 1 15 -5 15 -6 0 -11 -19 -11
-48 0 -49 -20 -130 -71 -290 -16 -51 -29 -106 -29 -122 0 -29 -13 -38 -36 -22
-13 8 -30 104 -38 204 -4 50 -2 69 9 78 20 16 20 116 1 162 -8 19 -20 75 -26
124 -6 49 -12 103 -14 120 -4 29 -1 33 27 40 l32 7 -30 5 c-16 2 -33 9 -37 15
-4 7 -8 -17 -8 -53 -1 -72 -21 -194 -42 -253 -10 -28 -12 -58 -6 -110 4 -39 5
-73 3 -75 -2 -3 -18 1 -35 8 -16 7 -39 10 -51 7 -19 -5 -21 -3 -16 28 6 37 -7
58 -16 25 -6 -23 -35 -27 -43 -5 -8 19 -24 20 -24 1 0 -15 21 -26 51 -26 18 0
19 -9 19 -140 0 -126 -2 -139 -17 -133 -11 4 -14 3 -9 -5 4 -7 13 -12 20 -12
9 0 14 -21 15 -72 l2 -73 -81 3 -80 4 0 109 c0 108 0 110 21 104 15 -5 19 -4
15 4 -4 6 -14 11 -22 11 -9 0 -14 11 -14 33 0 30 2 32 33 32 l32 0 -2 48 c-2
31 1 46 7 42 7 -4 9 2 6 17 -3 12 -8 40 -11 61 -4 23 -11 37 -20 37 -11 0 -15
-11 -15 -37 0 -28 3 -34 10 -23 5 8 10 11 11 5 0 -5 2 -18 4 -27 2 -11 -2 -15
-11 -11 -8 3 -14 0 -14 -6 0 -6 -6 -11 -14 -11 -16 0 -29 27 -20 42 4 6 2 13
-4 17 -5 3 -12 26 -15 51 -2 25 -2 36 0 25 3 -18 12 -20 76 -20 56 0 80 -5
109 -22 37 -22 48 -21 48 5 0 8 -6 12 -15 8 -13 -4 -14 15 -13 137 1 95 -2
149 -10 164 -7 12 -12 35 -12 52 0 17 -4 31 -10 31 -5 0 -10 -15 -10 -32 0
-18 -9 -51 -18 -73 -15 -32 -17 -51 -10 -99 6 -44 5 -62 -4 -68 -9 -5 -6 -8 9
-8 21 0 22 3 17 48 -3 26 -7 53 -10 60 -2 7 6 12 21 12 24 0 25 -2 23 -72 l-1
-73 -7 65 -7 65 -1 -60 c-2 -59 -2 -60 -31 -60 -16 0 -28 2 -26 4 6 6 -15 41
-24 41 -12 0 0 -53 13 -62 8 -6 7 -11 -2 -17 -11 -6 -10 -10 3 -15 24 -9 25
-8 25 20 0 20 4 25 16 20 9 -3 22 -6 30 -6 15 0 21 -55 7 -63 -5 -3 -29 0 -55
6 -46 11 -47 12 -46 50 0 21 -2 41 -6 44 -3 4 -6 -10 -6 -30 0 -28 -4 -37 -17
-38 -15 0 -15 -2 2 -9 18 -8 17 -9 -6 -9 -32 -1 -53 27 -62 82 l-6 37 37 -1
c20 0 30 -3 22 -6 -8 -4 -21 -12 -28 -20 -11 -11 -11 -13 2 -13 9 0 16 3 16 8
0 8 48 32 66 32 7 0 14 -5 16 -12 3 -7 7 -6 11 5 4 11 1 17 -8 17 -9 0 -15 9
-15 23 0 12 -11 62 -25 112 -26 93 -32 145 -16 145 5 0 11 -6 14 -12 3 -10 10
-10 30 1 15 8 27 18 27 23 0 5 -9 4 -19 -2 -13 -7 -28 -7 -46 0 -14 5 -28 10
-29 10 -2 0 -6 -28 -9 -62 -3 -35 -17 -103 -32 -153 -18 -63 -24 -100 -20
-127 5 -30 4 -38 -9 -38 -23 0 -28 -16 -21 -75 10 -74 22 -70 17 5 -2 38 1 60
7 60 7 0 11 -24 11 -59 0 -48 3 -61 18 -65 9 -2 -1 -5 -23 -4 -117 0 -115 1
-114 -34 1 -30 2 -31 8 -8 5 19 15 26 38 28 25 2 31 -1 29 -15 0 -10 7 -18 19
-20 11 -1 14 0 8 3 -23 10 -14 34 11 34 18 0 25 -6 28 -22 2 -18 9 -22 28 -20
20 2 22 1 10 -7 -9 -7 -10 -11 -3 -11 7 0 17 8 22 18 8 13 10 8 11 -26 0 -39
-2 -42 -22 -40 -13 2 -29 7 -37 12 -7 5 -16 5 -20 0 -9 -14 -65 -14 -73 -1 -4
7 -7 -4 -7 -23 1 -20 3 -27 6 -16 4 15 7 16 14 5 6 -9 12 -10 17 -4 4 6 18 10
32 10 l25 0 3 -202 2 -203 -25 0 c-21 0 -25 4 -25 32 0 17 6 39 14 47 23 25
24 160 3 176 -10 7 -17 17 -17 23 0 7 -11 14 -25 18 -17 4 -28 17 -36 42 -6
21 -22 61 -35 90 -13 29 -24 59 -24 67 0 22 -15 18 -28 -7 -19 -41 -15 178 4
230 14 36 15 47 4 67 -7 13 -10 35 -6 49 4 16 -1 36 -14 59 -22 37 -70 232
-70 285 0 18 5 32 13 33 6 0 30 8 52 18 l40 18 -61 0 -61 0 -6 -86z m38 69 c3
-5 1 -10 -4 -10 -6 0 -11 5 -11 10 0 6 2 10 4 10 3 0 8 -4 11 -10z m-1555 -45
c16 -9 19 -14 9 -15 -8 0 -24 7 -35 15 -24 18 -7 19 26 0z m1554 -183 c1 -12
6 -25 9 -29 14 -13 6 -23 -16 -23 -23 0 -65 -35 -55 -45 3 -3 13 4 23 15 26
28 51 25 68 -10 l15 -29 -52 -4 c-51 -3 -51 -3 12 -5 92 -3 75 -17 -21 -17
l-82 0 17 34 c9 19 24 68 33 110 28 134 27 132 37 76 5 -27 10 -60 12 -73z
m1232 -131 c19 -63 33 -115 32 -117 -2 -1 -19 -9 -38 -17 -28 -12 -31 -16 -13
-16 12 -1 25 4 28 9 14 22 33 7 50 -37 9 -27 25 -62 35 -80 l18 -32 -131 0
c-73 -1 -147 -4 -165 -7 l-33 -6 20 33 c36 63 91 257 108 384 l18 126 18 -63
c10 -35 33 -114 53 -177z m-2813 163 c4 -36 2 -44 -17 -53 l-21 -11 21 5 c18
5 23 -1 32 -37 11 -43 9 -58 -10 -58 -7 0 -6 6 2 15 11 13 7 13 -26 -1 -51
-21 -57 -28 -16 -19 43 9 41 -2 -4 -21 -20 -8 -34 -18 -31 -21 3 -3 27 7 53
21 26 14 48 25 49 24 1 -2 10 -32 20 -68 10 -36 27 -85 37 -109 l18 -43 -25 6
c-60 15 -146 18 -194 6 -29 -7 -50 -15 -47 -17 3 -3 28 0 57 7 71 17 210 -3
228 -33 12 -18 11 -19 -11 -13 -87 25 -234 28 -297 4 -33 -12 -37 -4 -13 30
55 76 138 273 179 421 5 21 10 11 16 -35z m1884 -146 c-10 -5 -14 -21 -11 -55
3 -41 2 -44 -6 -18 -8 29 -9 28 -7 -10 2 -34 -1 -40 -19 -43 l-21 -3 24 88
c34 123 34 123 45 84 7 -27 6 -36 -5 -43z m-650 56 c-3 -3 -12 -4 -19 -1 -8 3
-5 6 6 6 11 1 17 -2 13 -5z m797 -95 c-3 -5 -17 -8 -32 -8 l-27 1 30 8 c24 6
26 8 8 9 -27 1 -27 2 -11 36 l12 26 13 -32 c7 -17 10 -35 7 -40z m-120 9 c8
-32 7 -38 -4 -38 -12 0 -30 41 -23 53 8 14 21 7 27 -15z m-685 -120 c2 -16
-18 -7 -22 10 -3 11 -5 7 -6 -10 -2 -44 16 -78 41 -80 13 0 1 -4 -27 -7 -27
-4 -51 -6 -51 -6 -2 0 21 139 32 195 7 34 7 32 20 -30 7 -36 13 -68 13 -72z
m311 92 c0 -13 5 -18 15 -14 8 4 15 12 15 20 0 19 10 18 26 -3 13 -17 13 -17
14 0 0 18 15 23 24 8 4 -5 3 -17 0 -26 -5 -13 -18 -16 -58 -14 -28 2 -61 -2
-73 -9 -22 -12 -23 -11 -23 17 0 28 10 36 48 40 6 0 12 -8 12 -19z m650 -55
c6 -39 13 -79 16 -90 5 -16 4 -17 -6 -8 -10 9 -17 9 -31 0 -27 -17 -29 -8 -13
53 8 30 14 70 14 89 0 51 8 34 20 -44z m-267 13 c8 -27 6 -29 -20 -22 -14 4
-19 11 -16 25 7 26 29 24 36 -3z m-269 -21 c8 -13 8 -20 -2 -26 -7 -4 -12 -12
-11 -17 4 -25 -2 -34 -18 -26 -27 13 -113 15 -113 3 0 -6 -8 -8 -17 -5 -15 5
-16 4 -3 -5 11 -8 11 -11 2 -11 -13 0 -32 39 -32 66 0 41 170 60 194 21z
m-1124 -67 c13 -8 12 -10 -2 -10 -10 0 -21 0 -25 -1 -4 0 -9 4 -11 10 -5 14
18 14 38 1z m714 -16 c4 -10 1 -14 -6 -12 -15 5 -23 28 -10 28 5 0 13 -7 16
-16z m378 -134 c1 -74 -1 -141 -6 -148 -17 -28 -26 5 -24 96 l2 97 6 -95 6
-95 2 113 c2 87 -1 113 -10 110 -16 -6 -24 -238 -8 -238 16 0 12 -20 -15 -66
-28 -48 -54 -50 -75 -6 -15 33 -14 342 1 357 6 6 32 10 59 9 32 0 47 3 43 10
-4 8 -2 8 5 1 7 -7 12 -61 14 -145z m591 103 c-7 -2 -12 -17 -12 -31 2 -24 2
-24 6 -4 8 39 20 24 22 -27 1 -55 -19 -85 -42 -61 -10 10 -9 12 5 7 10 -3 20
-2 23 3 4 6 -9 10 -29 10 -43 0 -50 -26 -11 -36 22 -5 25 -11 25 -53 0 -45 16
-171 25 -201 4 -12 -8 -15 -64 -15 -38 0 -68 2 -65 6 9 16 44 249 44 300 0 30
5 60 12 67 9 9 8 12 -5 12 -9 0 -17 7 -17 15 0 11 12 15 48 14 26 0 41 -3 35
-6z m-1683 -109 c0 -1 -11 -5 -24 -8 -13 -3 -31 -9 -39 -12 -14 -5 -14 0 0 48
8 29 17 60 19 68 4 11 35 -58 44 -96z m751 86 c10 -6 19 -20 19 -30 0 -20 -14
-27 -23 -12 -3 4 -30 5 -61 4 -41 -3 -56 -8 -56 -19 0 -8 4 -12 8 -9 5 3 7 -7
4 -23 -4 -26 -2 -27 31 -23 33 4 35 6 27 31 -7 24 -5 27 17 29 14 1 32 -2 41
-8 10 -5 12 -10 6 -10 -14 0 -28 -120 -25 -210 2 -71 -12 -125 -30 -114 -6 3
-9 17 -6 30 5 28 -13 47 -37 38 -11 -4 -16 -18 -16 -45 0 -38 1 -39 36 -39 22
0 33 -4 29 -11 -4 -6 -13 -8 -21 -5 -8 3 -14 1 -14 -3 0 -5 4 -11 10 -13 5 -1
-5 -28 -23 -58 l-32 -55 -7 95 c-4 52 -7 143 -6 202 l0 106 43 -2 c23 -2 47
-6 53 -10 6 -3 13 -2 17 4 11 18 -47 33 -92 23 l-41 -10 -4 39 c-2 21 0 38 4
38 5 0 8 -8 9 -17 0 -12 2 -13 6 -5 7 18 -5 62 -17 62 -5 0 -7 -8 -4 -17 5
-14 4 -15 -4 -4 -14 20 6 49 38 54 51 8 102 7 121 -3z m-1191 -21 c28 -6 54
-18 57 -26 6 -16 -13 -33 -37 -32 -10 0 -9 3 4 8 62 24 -204 45 -284 21 -32
-9 -63 0 -48 15 22 22 226 32 308 14z m2326 -194 c-8 -5 -22 -15 -32 -21 -17
-10 -17 -11 0 -17 10 -4 15 -3 11 3 -3 5 3 14 14 20 23 12 27 7 36 -40 l6 -35
-68 0 -69 0 32 96 c17 53 35 116 39 140 l8 44 18 -90 c16 -76 16 -92 5 -100z
m-2377 154 l-24 -7 23 -1 c12 -1 38 -7 56 -15 33 -14 34 -16 29 -58 -7 -58
-19 -69 -68 -61 l-40 7 30 8 c19 4 8 5 -30 2 -33 -2 -85 -1 -114 4 -54 7 -55
7 -55 41 -1 19 -7 36 -13 38 -9 3 -13 -8 -13 -35 0 -37 2 -41 33 -48 31 -7 31
-8 7 -14 -38 -10 -60 14 -60 66 0 38 3 43 32 53 17 6 33 10 34 8 2 -1 4 -24 5
-50 2 -42 5 -47 26 -47 20 0 23 5 23 43 0 51 -8 64 -40 68 -14 2 22 4 79 4 57
0 93 -3 80 -6z m1171 -14 c0 -14 -4 -25 -9 -25 -4 0 -6 11 -3 25 2 14 6 25 8
25 2 0 4 -11 4 -25z m-1375 5 c-11 -5 -27 -9 -35 -9 -9 0 -8 4 5 9 11 5 27 9
35 9 9 0 8 -4 -5 -9z m262 4 c-3 -3 -12 -4 -19 -1 -8 3 -5 6 6 6 11 1 17 -2
13 -5z m2863 -24 c27 -24 29 -28 10 -19 -54 26 -329 22 -405 -7 -18 -6 -18 -5
4 19 27 30 45 33 226 35 l131 2 34 -30z m-3060 -26 c0 -27 -4 -43 -10 -39 -5
3 -10 24 -10 46 0 21 5 39 10 39 6 0 10 -21 10 -46z m640 7 c0 -4 -19 -13 -42
-19 l-43 -11 49 2 c32 1 51 -2 53 -10 3 -9 -9 -13 -39 -14 -23 0 -52 -4 -63
-9 -12 -5 6 -6 46 -3 61 5 68 4 78 -16 7 -11 8 -21 4 -21 -4 0 2 -7 13 -15 16
-13 17 -16 4 -25 -8 -5 -24 -10 -35 -9 -18 0 -18 1 4 13 20 11 21 14 6 19 -9
4 -50 7 -91 7 -41 0 -74 2 -74 4 0 2 8 24 19 48 14 34 26 47 52 55 44 14 59
15 59 4z m2434 -12 c36 -12 56 -33 43 -45 -3 -3 -12 -2 -19 2 -25 16 -54 18
-223 19 -170 0 -251 -12 -242 -38 5 -17 27 -20 27 -4 0 16 53 31 58 16 2 -5 9
-6 15 -2 13 8 25 10 104 17 l52 5 -10 -28 c-10 -27 -13 -28 -93 -34 -45 -3
-101 -12 -123 -20 l-41 -14 -4 46 c-3 25 -1 50 4 56 4 5 45 17 91 27 93 20
293 18 361 -3z m-907 -5 c-3 -3 -12 -4 -19 -1 -8 3 -5 6 6 6 11 1 17 -2 13 -5z
m53 -35 c0 -41 -42 -234 -53 -241 -13 -8 -10 -89 4 -102 15 -16 10 -26 -11
-26 -11 0 -23 6 -25 13 -2 6 -6 94 -7 195 -3 159 -1 182 13 182 8 0 20 -5 27
-12 9 -9 12 -8 12 4 0 11 6 15 20 11 11 -3 20 -14 20 -24z m-374 -186 c-1 -1
-20 2 -43 6 -23 5 -62 5 -87 1 -71 -11 -59 13 19 37 l40 13 -38 -5 c-21 -2
-37 -1 -35 3 2 4 16 40 32 81 l28 73 42 -104 c23 -56 42 -104 42 -105z m1145
187 c11 0 17 -4 14 -10 -3 -5 -2 -10 4 -10 5 0 11 5 13 11 5 14 57 1 54 -14
-2 -7 -1 -9 1 -4 3 4 11 7 19 7 9 0 14 -11 14 -34 l0 -35 -32 13 c-18 8 -61
17 -95 21 -45 5 -63 11 -63 21 0 21 23 44 38 39 8 -3 23 -5 33 -5z m-83 -27
c-2 -9 -9 -18 -16 -19 -7 -1 -8 0 -3 2 6 3 7 12 4 20 -3 8 0 14 7 14 6 0 10
-8 8 -17z m-2146 -51 c-8 -2 -8 -8 0 -22 15 -24 -14 -286 -37 -330 -29 -56
-35 -45 -33 55 1 53 5 98 10 101 4 3 8 29 8 58 0 93 10 145 28 139 10 -4 13
-2 8 5 -5 8 -1 10 10 5 11 -4 13 -8 6 -11z m-93 4 c-9 -8 -178 -13 -173 -5 3
5 44 9 91 9 48 0 84 -2 82 -4z m2394 -15 l37 -12 0 -64 c0 -37 -4 -65 -10 -65
-5 0 -10 22 -10 49 0 96 -34 65 -45 -41 -4 -45 -3 -49 6 -25 12 29 35 38 26
10 -5 -14 -38 -109 -43 -121 -1 -1 -24 3 -52 11 -43 11 -49 15 -41 30 7 11 6
17 -1 17 -5 0 -10 -7 -10 -15 0 -9 -9 -15 -25 -15 -17 0 -23 4 -19 14 3 8 1
17 -5 21 -7 3 -11 -2 -11 -14 0 -18 -6 -21 -50 -21 -33 0 -50 4 -50 13 -1 7
-5 6 -13 -5 -12 -15 -17 -10 -45 41 -23 42 -32 72 -32 105 0 25 -3 46 -8 46
-4 0 -6 -20 -4 -45 6 -66 -14 -55 -21 12 -3 32 -4 59 -2 62 3 2 28 10 57 17
64 16 314 12 371 -5z m-2363 -21 c-4 -3 -7 -38 -7 -78 2 -61 0 -71 -13 -66
-57 24 -120 28 -161 10 -15 -6 -16 0 -11 59 3 47 1 69 -7 75 -7 4 37 7 97 6
61 -1 106 -3 102 -6z m878 -25 c16 -36 15 -38 -13 -31 -14 4 -25 2 -25 -4 0
-5 15 -10 33 -10 39 0 65 -14 47 -25 -7 -4 -16 -1 -21 6 -6 9 -9 0 -9 -28 0
-41 -2 -43 -29 -43 -32 0 -41 14 -41 67 0 32 26 93 41 93 3 0 11 -11 17 -25z
m-408 5 c0 -5 -2 -10 -4 -10 -3 0 -8 5 -11 10 -3 6 -1 10 4 10 6 0 11 -4 11
-10z m286 -82 c19 -46 35 -72 44 -70 21 5 32 -22 12 -30 -14 -5 -13 -7 6 -7
27 -1 30 -21 2 -21 -12 0 -28 13 -40 33 -12 20 -20 26 -20 15 0 -9 6 -23 13
-30 19 -22 39 -59 33 -65 -12 -12 -66 92 -65 126 0 20 -4 50 -9 66 l-9 30 -7
-37 c-5 -26 -12 -38 -24 -38 -15 0 -15 -2 -2 -10 12 -8 12 -10 -5 -10 -17 0
-17 -2 -5 -10 12 -8 11 -10 -8 -10 -21 0 -22 1 -8 33 26 62 50 107 56 107 3 0
20 -33 36 -72z m1610 4 c-11 -10 -14 3 -7 38 l6 35 3 -33 c2 -19 1 -36 -2 -40z
m-1856 44 c0 -8 -8 -17 -17 -19 -10 -3 -4 -5 14 -6 l32 -1 3 -106 c2 -58 -1
-108 -6 -111 -5 -3 -6 -37 -3 -74 3 -38 4 -69 1 -69 -23 0 -74 230 -74 331 0
67 1 69 25 69 15 0 25 -6 25 -14z m1328 5 c9 -5 12 -25 10 -59 -3 -50 -4 -52
-33 -53 -16 -1 -50 -3 -74 -5 l-43 -4 6 31 c3 17 6 44 6 60 0 24 4 28 33 32
59 7 82 7 95 -2z m-1709 -213 c10 -28 10 -28 -29 -28 -40 0 -53 -13 -24 -24 9
-3 25 -6 37 -5 20 1 20 2 -3 9 -24 8 -24 8 6 9 19 1 34 -5 37 -13 4 -11 -7
-15 -46 -18 -29 -3 -55 -3 -58 -1 -3 1 0 35 7 75 7 40 16 100 20 133 l7 60 17
-85 c10 -47 23 -97 29 -112z m483 172 l5 25 2 -26 c0 -16 -5 -29 -14 -33 -12
-4 -15 2 -14 27 1 30 1 31 8 7 l8 -25 5 25z m533 0 c17 -7 24 -7 20 0 -3 6 1
10 9 10 9 0 15 -4 14 -9 -2 -5 6 -17 17 -26 20 -17 20 -17 0 -10 -73 24 -235
22 -285 -5 -23 -12 -27 2 -5 20 33 27 178 40 230 20z m-349 -15 c-3 -8 -1 -15
4 -15 6 0 10 -9 10 -20 0 -11 -5 -20 -11 -20 -5 0 -7 5 -4 10 3 6 2 10 -3 10
-5 0 -14 11 -20 25 -10 22 -9 25 9 25 15 0 19 -5 15 -15z m-1409 -62 c-2 -16
-4 -5 -4 22 0 28 2 40 4 28 2 -13 2 -35 0 -50z m1340 28 c-3 -28 1 -48 15 -73
31 -51 58 -77 75 -71 11 4 14 1 11 -8 -2 -8 -17 -15 -32 -17 -26 -3 -28 -6
-24 -48 l3 -44 -87 0 c-49 0 -88 4 -88 9 0 5 8 7 18 4 21 -5 47 21 37 37 -3 5
-16 10 -28 9 -21 0 -21 -1 2 -10 13 -5 21 -12 18 -15 -3 -3 -14 -1 -26 5 -11
6 -22 8 -24 4 -2 -5 -4 -88 -5 -187 0 -114 -4 -182 -11 -189 -8 -8 -5 -14 10
-23 14 -7 18 -14 10 -18 -6 -4 -11 -2 -11 3 0 21 -29 11 -33 -11 -2 -13 -5 40
-6 118 -1 90 3 144 10 151 8 8 8 17 0 31 -6 11 -11 43 -11 71 0 46 2 51 25 57
14 3 25 10 25 14 0 4 16 10 35 12 33 4 34 2 38 -32 3 -30 4 -29 5 11 l2 46
-50 7 -50 7 22 39 c18 32 29 40 53 41 l30 2 -28 4 c-33 5 -26 23 9 23 20 0 29
8 42 40 9 22 19 40 21 40 2 0 1 -18 -2 -39z m454 7 l39 -11 0 -59 c0 -43 -4
-60 -15 -64 -24 -10 -45 3 -38 22 6 16 7 16 14 -2 7 -18 8 -18 9 1 1 20 1 20
10 0 7 -17 9 -18 9 -2 1 20 -36 37 -80 37 -19 0 -29 -5 -29 -15 0 -8 7 -15 15
-15 8 0 15 5 15 10 0 6 7 10 15 10 8 0 15 -3 15 -7 -1 -22 -20 -28 -84 -23
-69 5 -70 5 -50 24 17 18 19 18 22 3 4 -22 14 -21 29 2 11 18 9 19 -45 14 -67
-6 -84 -17 -76 -48 3 -13 1 -26 -5 -29 -7 -4 -11 1 -11 13 0 11 -4 23 -10 26
-12 8 -12 8 -1 -33 10 -35 9 -37 -19 -22 -13 7 -21 7 -25 0 -3 -5 -18 -10 -33
-9 l-27 0 31 16 31 15 -28 54 -29 54 29 0 c24 0 29 -5 35 -31 3 -17 6 -42 6
-55 0 -12 3 -25 8 -27 4 -3 8 27 10 66 2 39 5 73 7 76 20 20 200 26 256 9z
m-1223 -24 c12 -2 22 -12 22 -22 0 -16 -27 -19 -162 -12 -5 0 -8 9 -8 19 0 27
58 33 148 15z m-758 -50 c0 -27 -24 -53 -47 -54 -7 0 -13 7 -13 15 0 8 6 14
13 13 7 -2 13 9 15 25 4 35 32 36 32 1z m310 -10 c0 -13 -4 -24 -10 -24 -5 0
-10 14 -10 31 0 17 4 28 10 24 6 -3 10 -17 10 -31z m455 0 c17 -8 22 -12 13
-10 -50 14 -87 16 -124 8 -29 -6 -41 -6 -41 2 0 17 117 18 152 0z m2063 -115
l4 -96 -31 5 c-36 5 -37 13 -15 79 9 26 16 71 16 98 -1 42 1 47 10 30 6 -10
13 -63 16 -116z m-1028 85 c0 -8 -7 -14 -15 -14 -15 0 -21 21 -9 33 10 9 24
-2 24 -19z m603 15 c35 -9 37 -12 37 -52 0 -23 3 -52 6 -64 6 -21 4 -21 -30
-11 -26 8 -46 8 -73 0 -20 -6 -39 -9 -41 -7 -2 2 -7 33 -9 68 -5 58 -3 66 13
70 32 8 58 7 97 -4z m-1625 -68 c3 -55 1 -63 -13 -57 -9 3 -28 6 -41 6 -21 0
-24 5 -24 34 0 38 -17 57 -31 35 -16 -25 -10 -61 11 -66 16 -4 19 -11 14 -32
-9 -34 -23 -61 -24 -43 0 10 -4 9 -16 -3 -17 -17 -35 -16 -41 2 -2 6 8 13 22
17 14 4 25 11 25 17 0 6 -6 6 -19 -1 -11 -5 -22 -10 -25 -10 -13 0 -6 158 7
164 6 2 44 4 82 3 l70 -2 3 -64z m367 -69 c5 -20 3 -22 -21 -16 -19 5 -25 4
-20 -5 4 -6 19 -12 34 -13 17 0 11 -4 -18 -8 l-45 -7 45 -3 45 -3 -40 -7 -40
-7 36 -2 c46 -1 58 -25 27 -53 -13 -11 -17 -17 -10 -13 6 3 12 2 12 -4 0 -5
-9 -13 -20 -16 -11 -3 -20 -11 -20 -16 0 -6 8 -6 20 1 18 10 20 8 20 -30 0
-38 -2 -40 -30 -40 l-30 0 0 81 c0 44 -5 90 -11 101 -7 13 -8 23 -1 27 5 3 15
33 22 66 23 114 23 114 31 50 5 -33 11 -70 14 -83z m129 49 c10 -47 22 -94 28
-104 9 -18 8 -20 -24 -14 -19 3 -41 1 -49 -4 -9 -6 3 -9 37 -9 42 0 55 -5 75
-26 l24 -27 -29 7 c-65 16 -83 17 -122 8 l-41 -9 28 66 c15 36 33 96 40 133 7
38 13 67 15 65 1 -1 9 -40 18 -86z m1804 69 c23 -8 31 -17 28 -27 -3 -8 -6
-40 -6 -72 l0 -56 -72 -1 c-83 -1 -147 -23 -155 -54 -3 -11 -9 -20 -13 -20
-13 0 -18 40 -19 142 -1 84 1 97 17 102 29 8 185 -1 220 -14z m-1422 -5 c-3
-8 0 -15 7 -15 8 0 7 -4 -3 -9 -17 -11 -26 -7 -40 20 -9 17 -7 19 16 19 19 0
25 -4 20 -15z m317 -24 c15 -12 17 -43 17 -255 l0 -241 -45 3 -45 4 0 -46 c0
-34 4 -46 15 -46 10 0 15 10 15 30 0 20 5 30 15 30 11 0 15 -12 15 -52 0 -65
18 -53 21 15 2 26 6 47 11 47 4 0 8 -6 8 -14 0 -7 3 -34 6 -60 l7 -46 -127 0
-126 0 1 48 2 47 7 -40 7 -40 2 43 c1 35 4 42 21 42 16 0 20 -7 20 -30 0 -16
5 -30 11 -30 6 0 9 19 7 48 -3 43 -5 47 -30 50 l-28 3 0 190 c0 104 -2 189 -4
189 -18 0 -36 -15 -36 -30 0 -28 18 -34 23 -8 3 17 5 14 6 -9 l1 -33 -180 0
-180 0 0 30 0 31 153 -1 c184 -1 176 -2 155 11 -12 6 -18 22 -18 44 0 31 3 35
25 35 14 0 25 -4 25 -10 0 -5 -6 -10 -12 -10 -7 0 -13 -11 -13 -25 0 -26 4
-29 29 -19 18 7 21 45 6 60 -14 14 -3 39 23 53 30 15 170 10 190 -8z m118 -8
l2 -28 4 28 c5 34 23 36 23 2 0 -21 5 -25 30 -25 25 0 30 4 30 25 0 21 3 24
18 17 9 -5 22 -7 29 -5 6 2 14 -10 18 -26 4 -17 13 -31 20 -31 20 0 28 -36 15
-61 -7 -12 -10 -32 -7 -46 3 -15 0 -22 -7 -20 -6 2 -13 17 -16 33 -4 22 -11
30 -30 32 -14 2 -29 8 -34 13 -13 12 -26 12 -26 0 0 -5 17 -13 37 -18 49 -11
55 -32 9 -30 -20 1 -36 5 -36 8 0 3 -12 6 -28 6 -15 0 -40 3 -55 7 -24 6 -27
11 -27 45 0 51 10 101 21 101 5 0 10 -12 10 -27z m79 7 c0 -11 -7 -20 -15 -20
-8 0 -15 9 -15 20 0 11 7 20 15 20 8 0 15 -9 15 -20z m-1755 -10 c10 -11 15
-28 12 -39 -3 -14 2 -22 22 -29 89 -34 122 -44 127 -39 3 3 -11 10 -30 17 -24
8 -36 18 -36 30 0 51 30 65 70 32 21 -17 22 -24 16 -75 -4 -31 -12 -59 -17
-62 -5 -4 -9 -15 -9 -26 0 -12 -4 -17 -11 -13 -8 5 -9 -8 -4 -45 4 -31 3 -51
-3 -51 -11 0 -20 39 -29 132 -3 37 -9 68 -13 68 -3 0 -17 -36 -29 -80 -13 -44
-27 -77 -32 -75 -4 3 -14 -4 -22 -16 l-15 -20 -21 22 c-12 13 -21 27 -21 33 0
5 -2 7 -5 4 -10 -10 18 -57 37 -63 16 -6 18 -18 18 -109 0 -57 3 -124 6 -150
l7 -46 -47 0 c-46 0 -46 0 -46 -35 0 -44 -18 -46 -22 -2 -2 24 -7 31 -20 29
-16 -3 -18 9 -18 133 0 123 2 140 24 183 13 26 36 58 50 71 25 23 26 29 26
133 0 59 4 108 8 108 5 0 17 -9 27 -20z m1859 4 c4 -9 4 -19 2 -21 -8 -8 -26
8 -26 23 0 19 16 18 24 -2z m493 -24 c-2 -35 -5 -39 -22 -33 -11 3 -23 11 -27
17 -6 8 -8 8 -8 0 0 -16 -90 0 -101 17 -6 10 -9 10 -9 2 0 -7 -4 -13 -10 -13
-5 0 -10 7 -10 15 0 12 13 15 59 15 33 0 72 -5 87 -10 23 -9 25 -9 15 4 -10
11 -9 15 6 19 10 3 19 5 20 6 2 0 2 -17 0 -39z m-2283 -24 c6 -24 4 -27 -9
-22 -9 3 -21 6 -26 6 -13 0 -11 34 3 48 15 15 23 6 32 -32z m206 40 c0 -3 -4
-8 -10 -11 -5 -3 -10 -1 -10 4 0 6 5 11 10 11 6 0 10 -2 10 -4z m726 -17 c3
-5 -4 -9 -16 -9 -12 0 -19 -4 -16 -9 8 -12 -25 -24 -36 -13 -17 17 12 49 39
44 13 -2 26 -8 29 -13z m1154 7 c0 -10 -16 -15 -52 -18 -94 -8 -83 15 12 25
19 2 36 5 38 5 1 1 2 -4 2 -12z m-900 -28 c0 -9 4 -8 10 2 7 11 10 6 10 -20
-1 -29 -2 -32 -11 -17 -12 21 -49 23 -49 2 0 -15 25 -21 33 -7 2 4 2 2 1 -5
-2 -6 7 -14 19 -16 12 -2 3 -5 -20 -6 -43 -1 -43 -1 -43 34 0 19 -4 35 -8 35
-5 0 -7 -13 -4 -30 3 -23 0 -30 -12 -30 -11 0 -16 9 -16 28 0 16 3 32 7 35 12
13 83 8 83 -5z m870 -53 l0 -55 -40 0 -40 0 0 49 c0 43 3 50 23 54 57 11 57
11 57 -48z m30 0 c0 -30 -4 -55 -10 -55 -5 0 -10 25 -10 55 0 30 5 55 10 55 6
0 10 -25 10 -55z m41 43 c0 -10 2 -10 6 0 10 26 23 -1 23 -49 0 -48 -1 -49
-30 -49 -30 0 -30 1 -30 55 0 42 3 55 15 55 8 0 15 -6 16 -12z m-1648 -4 c9
-9 -4 -35 -14 -28 -5 3 -7 10 -4 15 4 5 -11 8 -32 8 -30 -2 -32 -3 -11 -6 28
-4 29 -6 43 -76 2 -13 -1 -17 -12 -13 -8 3 -19 6 -24 6 -5 0 -9 11 -9 24 0 14
-5 28 -11 32 -9 5 -10 -8 -6 -47 4 -38 3 -48 -3 -34 -10 20 -10 20 -7 0 3 -25
33 -27 31 -2 -2 20 1 21 27 7 39 -21 17 -135 -32 -161 -11 -6 -23 -8 -26 -5
-3 3 5 10 18 15 17 7 19 10 7 10 -20 1 -21 6 -8 36 8 18 9 18 9 -5 1 -16 4
-21 11 -14 13 13 2 44 -15 44 -14 0 -29 -45 -20 -60 4 -6 -38 -10 -107 -10
-62 0 -124 -3 -138 -6 -20 -4 -22 -3 -10 5 12 8 12 11 1 11 -10 0 -12 9 -7 34
4 20 2 37 -4 41 -6 4 -10 -11 -10 -41 0 -40 -2 -45 -15 -34 -17 14 -20 85 -4
95 6 4 8 14 5 22 -3 8 -1 11 4 8 6 -3 10 -1 10 4 0 6 5 11 10 11 6 0 10 -7 10
-16 0 -8 -4 -12 -10 -9 -5 3 -10 1 -10 -5 0 -19 25 -5 29 16 6 34 41 46 41 14
0 -14 7 -20 21 -20 12 0 23 8 26 20 8 29 63 28 63 -1 0 -15 5 -20 23 -17 14 2
21 9 21 21 -1 12 6 17 25 18 19 1 15 4 -16 11 -28 6 -43 15 -43 24 0 13 8 14
40 9 38 -6 40 -5 40 17 0 14 3 28 7 31 8 9 77 9 86 1z m1780 -10 c22 -7 24
-64 3 -64 -8 0 -18 5 -21 10 -3 6 -12 10 -18 10 -7 0 -4 -5 7 -11 12 -8 15
-14 7 -18 -14 -9 -25 -151 -23 -283 1 -58 -3 -98 -8 -98 -6 0 -11 41 -12 93
l-2 92 -3 -92 c-6 -162 -18 -100 -20 102 -1 201 14 274 20 93 l3 -103 2 108
c2 89 0 107 -13 107 -16 0 -22 50 -8 64 6 6 42 2 86 -10z m-1899 0 c9 -3 16
-13 16 -21 0 -10 -6 -13 -16 -9 -9 3 -25 6 -37 6 -22 1 -22 1 -3 15 23 17 20
17 40 9z m916 -4 c0 -5 -4 -10 -10 -10 -5 0 -10 5 -10 10 0 6 5 10 10 10 6 0
10 -4 10 -10z m-1011 -17 c14 -9 21 -11 17 -5 -4 7 -2 12 4 12 7 0 9 -7 6 -16
-3 -9 -6 -20 -6 -25 0 -5 -18 -9 -40 -9 -30 0 -38 3 -35 15 3 8 7 22 10 30 6
19 15 19 44 -2z m1301 -193 l0 -200 -25 0 -25 0 0 200 0 200 25 0 25 0 0 -200z
m384 194 c21 -8 22 -64 1 -64 -8 0 -15 7 -15 15 0 19 -11 19 -36 1 -17 -13
-21 -13 -36 7 -17 21 -17 21 -6 -15 11 -36 28 -52 28 -25 0 7 9 18 20 25 19
12 20 10 20 -78 l0 -90 -47 0 -48 0 3 76 c3 51 0 80 -9 88 -9 8 -10 7 -6 -7 4
-11 3 -16 -3 -12 -6 3 -10 20 -10 36 0 21 6 32 23 39 26 10 98 13 121 4z m722
-34 c9 0 14 -11 14 -35 0 -19 4 -35 10 -35 5 0 7 14 3 33 -6 31 -5 31 13 15
14 -12 19 -29 18 -66 -1 -41 -6 -56 -35 -90 -39 -46 -48 -48 -25 -3 17 33 20
51 8 51 -14 0 -32 -79 -32 -140 l0 -61 -82 6 c-56 5 -105 2 -150 -7 -38 -8
-68 -11 -68 -6 0 4 9 8 20 8 11 0 20 4 20 9 0 16 -28 6 -54 -18 -14 -13 -24
-29 -23 -35 1 -6 -16 -12 -40 -14 l-43 -3 0 90 0 91 30 0 29 0 4 -82 c3 -76 3
-74 4 22 0 58 -1 97 -4 88 -3 -12 -14 -18 -33 -18 -28 0 -29 2 -22 33 4 17 7
57 6 87 -1 54 0 55 13 25 l13 -30 -6 33 c-4 22 -2 32 7 32 8 0 10 -13 6 -42
-3 -23 -3 -55 0 -70 5 -25 10 -28 45 -28 45 0 93 -22 102 -46 4 -9 9 -14 13
-11 3 4 0 13 -7 22 -7 8 -9 22 -6 31 8 22 36 0 37 -30 0 -17 3 -15 15 12 18
41 60 46 70 7 3 -14 11 -22 16 -19 5 4 8 15 5 25 -3 10 0 20 6 22 7 2 -10 4
-37 5 -27 1 -54 -2 -60 -7 -18 -15 -30 0 -44 52 -17 66 -16 67 22 67 35 0 55
-13 37 -24 -5 -4 -12 -2 -16 4 -11 19 -25 10 -25 -15 0 -22 3 -24 19 -15 32
17 61 12 61 -9 0 -11 -6 -22 -12 -24 -8 -3 -7 -6 4 -6 10 -1 18 8 20 22 2 17
9 22 31 20 15 -1 27 2 27 8 0 5 -11 9 -25 9 -14 0 -25 5 -25 10 0 6 12 8 28 5
l27 -5 -28 13 c-30 15 -26 27 10 27 18 0 23 -6 23 -24 0 -23 22 -41 34 -29 10
11 6 48 -6 62 -11 11 -10 13 5 7 10 -3 25 -6 33 -6z m-978 -24 c18 0 28 -3 21
-6 -6 -5 0 -10 15 -14 31 -8 31 -8 2 -119 -24 -93 -35 -115 -37 -76 -1 17 -3
19 -6 7 -5 -18 -33 -25 -33 -9 0 5 -3 17 -6 26 -6 14 -2 16 22 13 29 -3 29 -3
32 57 l2 60 -20 -24 c-11 -13 -20 -36 -20 -52 0 -19 -5 -29 -15 -29 -24 0 -20
-61 4 -67 17 -4 19 -11 14 -57 -3 -28 -6 -52 -7 -53 -1 -1 -20 1 -44 4 l-42 6
0 175 0 175 43 -9 c23 -4 57 -8 75 -8z m842 -11 c0 -16 -6 -25 -15 -25 -8 0
-15 4 -15 9 0 5 -3 16 -6 25 -4 12 0 16 15 16 16 0 21 -6 21 -25z m100 -1 c0
-8 -4 -14 -10 -14 -5 0 -10 9 -10 21 0 11 5 17 10 14 6 -3 10 -13 10 -21z
m-2596 -107 c5 -25 4 -27 -22 -21 -15 4 -28 8 -30 9 -1 1 6 32 15 69 l18 68 7
-49 c4 -26 9 -60 12 -76z m2296 102 c0 -5 -11 -9 -25 -9 -14 0 -25 6 -25 14 0
9 8 12 25 8 14 -2 25 -8 25 -13z m-2120 -4 c0 -8 -4 -15 -10 -15 -5 0 -10 7
-10 15 0 8 5 15 10 15 6 0 10 -7 10 -15z m110 0 c0 -8 -4 -15 -10 -15 -5 0
-10 7 -10 15 0 8 5 15 10 15 6 0 10 -7 10 -15z m-752 -27 l11 -33 -5 33 c-3
19 -1 32 5 32 6 0 12 -23 13 -52 l2 -53 3 53 4 52 68 0 c37 0 70 -2 73 -5 3
-3 -4 -24 -15 -46 -11 -22 -17 -42 -14 -45 6 -6 47 59 47 76 0 8 9 10 28 6 15
-4 36 -8 47 -10 11 -2 22 -4 23 -5 2 0 -8 -15 -23 -33 -15 -18 -31 -42 -36
-55 -8 -22 -13 -23 -46 -16 -47 10 -163 10 -225 1 -45 -7 -47 -6 -57 22 -5 16
-21 41 -34 54 -14 14 -22 27 -19 30 14 15 34 3 62 -36 16 -22 30 -35 30 -27 0
8 -9 25 -20 39 -26 33 -25 40 5 40 19 0 29 -8 39 -32 8 -18 15 -26 15 -18 0 8
-3 22 -8 30 -6 8 -7 18 -5 22 10 16 21 7 32 -24z m2416 2 c3 -16 10 -30 16
-30 5 0 10 14 10 30 0 17 5 30 10 30 6 0 10 -13 10 -30 0 -20 5 -30 15 -30 10
0 15 10 15 30 0 35 19 41 21 8 1 -22 1 -22 9 2 l8 25 1 -29 c1 -25 4 -28 26
-24 l25 5 0 -163 c0 -157 -1 -164 -20 -164 -15 0 -20 7 -20 28 0 44 -11 72
-29 72 -22 0 -43 -35 -36 -63 3 -12 1 -35 -4 -52 -7 -24 -9 -26 -10 -8 -1 27
-30 37 -75 25 -19 -6 -37 -7 -40 -4 -3 3 -5 26 -4 51 l1 46 7 -45 c4 -28 8 22
8 131 1 97 5 179 9 182 17 17 41 5 47 -23z m63 -7 c-3 -10 -5 -4 -5 12 0 17 2
24 5 18 2 -7 2 -21 0 -30z m103 28 c0 -5 -7 -14 -15 -21 -13 -10 -15 -9 -15 9
0 12 6 21 15 21 8 0 15 -4 15 -9z m197 -13 c-3 -8 -6 -5 -6 6 -1 11 2 17 5 13
3 -3 4 -12 1 -19z m-537 -70 c0 -51 -2 -58 -20 -58 -13 0 -20 7 -20 19 0 10
-3 39 -6 64 -6 39 -4 46 12 49 27 6 34 -9 34 -74z m596 26 c-3 -7 0 -14 5 -16
12 -4 1 -38 -12 -38 -5 0 -9 26 -8 58 0 47 2 53 10 33 5 -14 8 -30 5 -37z
m-86 36 c-20 -13 -40 -13 -40 0 0 6 12 10 28 10 21 0 24 -2 12 -10z m-1040
-106 l0 -106 -33 44 -33 43 28 3 c25 3 28 7 28 37 0 19 -5 37 -10 40 -17 10
-40 -15 -41 -44 -1 -21 -3 -20 -8 9 -4 22 -12 35 -21 35 -9 0 -17 -13 -21 -35
l-6 -35 -3 40 -3 40 -7 -40 c-5 -29 -8 -33 -9 -14 -1 29 -24 54 -41 44 -5 -3
-10 -20 -10 -37 0 -23 -10 -39 -44 -69 -24 -21 -49 -52 -56 -69 -13 -31 -24
-37 -35 -20 -3 5 -12 7 -20 3 -13 -4 -15 14 -15 116 l0 121 180 0 180 0 0
-106z m1100 57 c0 -35 -2 -38 -23 -34 -19 4 -23 11 -23 39 1 28 5 34 24 34 19
0 22 -5 22 -39z m-1532 -3 c3 -22 0 -26 -17 -21 -19 5 -21 1 -21 -36 0 -29 -4
-41 -14 -41 -10 0 -16 14 -18 42 -2 31 -8 44 -20 46 -15 3 -18 -4 -18 -43 0
-28 -4 -44 -10 -40 -5 3 -10 19 -10 35 0 16 -5 32 -11 36 -16 10 -29 -16 -22
-47 3 -15 0 -30 -6 -33 -8 -5 -11 13 -11 58 0 75 -1 75 105 73 68 -2 70 -3 73
-29z m1472 1 c0 -24 -3 -30 -16 -25 -9 3 -18 6 -20 6 -2 0 -4 11 -4 25 0 18 5
25 20 25 16 0 20 -7 20 -31z m-633 -51 c-2 -13 -4 -3 -4 22 0 25 2 35 4 23 2
-13 2 -33 0 -45z m-1167 6 l6 -41 -33 10 c-23 7 -32 15 -28 25 3 7 5 23 5 34
0 14 6 19 23 16 18 -2 23 -11 27 -44z m600 11 c0 -14 -4 -25 -10 -25 -5 0 -10
11 -10 25 0 14 5 25 10 25 6 0 10 -11 10 -25z m80 0 c0 -14 -4 -25 -10 -25 -5
0 -10 11 -10 25 0 14 5 25 10 25 6 0 10 -11 10 -25z m60 0 c0 -14 -4 -25 -10
-25 -5 0 -10 11 -10 25 0 14 5 25 10 25 6 0 10 -11 10 -25z m504 -27 c11 -97
9 -107 -19 -100 -13 4 -25 12 -25 17 -2 21 24 135 30 135 4 0 10 -24 14 -52z
m-1799 32 c3 -5 1 -10 -4 -10 -6 0 -11 5 -11 10 0 6 2 10 4 10 3 0 8 -4 11
-10z m805 -30 c0 -22 -4 -40 -10 -40 -11 0 -14 63 -3 73 11 12 13 8 13 -33z
m-1735 20 c3 -5 16 -10 28 -10 30 0 53 -35 60 -95 2 -17 -3 -19 -28 -17 -16 2
-33 9 -37 15 -4 6 -10 8 -14 4 -10 -10 5 -22 43 -35 24 -8 33 -8 38 1 3 7 3 1
1 -12 -3 -14 0 -31 6 -38 14 -18 -5 -63 -27 -63 -8 0 -15 -7 -15 -15 0 -8 8
-15 18 -15 13 0 14 2 4 9 -10 6 -9 10 7 14 14 3 23 16 27 36 5 21 12 31 25 31
11 0 19 -4 19 -10 0 -5 9 -10 19 -10 11 0 27 -12 35 -27 31 -57 56 -116 54
-127 -1 -6 6 -23 16 -38 16 -25 16 -29 2 -50 -9 -12 -16 -18 -16 -13 0 6 -5 3
-10 -5 -8 -12 -13 -13 -30 -2 -17 10 -26 10 -50 -3 -42 -22 -70 -6 -70 40 0
19 -4 35 -10 35 -5 0 -10 7 -10 16 0 9 -6 14 -12 11 -60 -22 -66 -20 -48 14 8
13 7 19 0 19 -6 0 -13 -7 -16 -15 -5 -13 -11 -12 -35 6 -24 17 -29 18 -29 5 0
-9 6 -16 13 -16 6 0 21 -7 31 -15 20 -15 20 -15 1 -29 -11 -8 -24 -12 -30 -9
-5 3 -4 0 3 -8 6 -7 12 -22 12 -33 1 -19 1 -20 11 -3 5 9 7 21 4 26 -8 13 61
45 81 37 8 -3 12 -10 9 -16 -3 -5 -2 -10 4 -10 5 0 9 -8 9 -17 -1 -10 2 -28 6
-39 4 -15 2 -23 -9 -28 -13 -5 -14 -8 -3 -20 16 -17 29 -11 21 9 -3 10 1 15
12 15 9 0 13 -4 10 -10 -3 -6 5 -10 18 -10 19 0 25 -5 25 -22 0 -45 7 -63 30
-76 12 -7 22 -17 22 -23 0 -6 4 -7 10 -4 6 4 7 -6 4 -25 -4 -20 -3 -30 5 -30
7 0 9 -5 5 -11 -4 -8 0 -7 15 1 16 8 31 8 54 1 18 -5 51 -13 75 -16 l42 -7 0
-73 0 -73 -39 5 c-23 3 -41 1 -45 -6 -4 -6 -22 -11 -40 -11 -25 0 -35 5 -39
20 -3 13 0 20 9 20 8 0 14 5 14 10 0 7 -6 8 -16 2 -28 -15 -63 -1 -95 39 -26
33 -37 39 -68 39 -20 0 -42 -5 -49 -12 -9 -9 -15 -9 -23 -1 -16 16 14 102 44
126 l22 19 -27 -6 c-25 -6 -28 -3 -28 18 0 14 9 31 22 40 12 9 19 19 15 22 -4
4 -15 0 -25 -9 -10 -10 -22 -14 -27 -10 -4 5 -4 -13 -1 -39 4 -27 3 -48 -2
-48 -14 0 -41 67 -35 89 3 12 0 36 -8 54 -17 44 -67 107 -85 107 -18 0 -17 4
0 39 24 45 38 52 69 36 29 -15 30 -14 21 9 -3 8 -12 12 -21 9 -11 -4 -14 -3
-9 6 6 8 2 11 -10 9 -12 -2 -23 7 -32 26 -13 26 -13 30 2 38 11 6 14 17 10 34
-4 17 -2 24 8 24 8 0 22 17 32 37 17 35 17 38 0 50 -10 7 -23 13 -30 13 -19 0
-12 41 11 66 23 25 31 28 40 14z m1792 -42 c-2 -13 -4 -5 -4 17 -1 22 1 32 4
23 2 -10 2 -28 0 -40z m-120 -5 c-3 -10 -5 -2 -5 17 0 19 2 27 5 18 2 -10 2
-26 0 -35z m140 0 c-3 -10 -5 -2 -5 17 0 19 2 27 5 18 2 -10 2 -26 0 -35z
m-818 21 c67 -15 91 -30 104 -66 8 -22 -28 -26 -36 -4 -3 8 -30 16 -69 21
l-63 7 40 14 c38 13 17 12 -41 -2 -19 -5 -22 -1 -20 20 1 31 -2 30 85 10z
m-281 0 l30 -6 1 -596 c1 -511 3 -597 16 -604 18 -11 8 -39 -14 -37 -21 3 -71
-18 -91 -37 -8 -8 -24 -21 -35 -29 -18 -12 -18 -16 -7 -36 13 -20 12 -21 -10
-16 -12 4 -28 7 -35 7 -7 0 -18 12 -25 28 -11 21 -20 27 -45 26 -30 -2 -32 0
-26 26 4 22 -2 38 -28 69 -37 47 -110 75 -166 65 -40 -8 -43 7 -6 32 15 9 35
26 43 36 15 19 16 19 62 -7 53 -29 93 -78 84 -100 -3 -10 1 -15 13 -15 10 0
30 -11 46 -26 28 -26 47 -26 26 0 -11 12 -6 16 26 22 21 4 33 9 27 11 -7 2 -9
22 -6 52 4 43 1 50 -23 69 -32 26 -63 28 -91 7 -10 -8 -22 -15 -27 -15 -4 0
-6 239 -5 532 l3 532 25 7 c32 9 198 11 238 3z m1432 -62 c66 -67 81 -105 73
-187 -4 -40 -1 -68 12 -102 13 -33 15 -48 7 -51 -7 -2 -12 -8 -12 -14 0 -6 7
-8 15 -4 13 4 15 -7 15 -73 0 -62 -3 -78 -15 -78 -11 0 -15 14 -16 56 -1 31
-3 67 -5 81 -2 14 -7 81 -10 149 l-7 124 -41 50 c-23 27 -51 56 -63 64 -19 13
-24 11 -58 -18 -20 -18 -45 -49 -56 -70 -23 -46 -23 -50 -4 -43 8 4 15 12 15
19 0 7 9 23 20 36 l19 24 1 -77 c0 -49 -4 -78 -11 -78 -6 0 -1 -12 10 -26 12
-16 21 -42 21 -63 0 -32 6 -40 50 -68 56 -37 70 -70 70 -171 l0 -62 -30 28
c-16 16 -30 33 -30 38 0 5 5 2 10 -6 8 -11 9 -8 4 11 -3 15 -1 30 5 33 30 19
-1 88 -55 124 -28 18 -34 28 -34 56 0 19 -3 42 -6 51 -9 22 -94 86 -105 79 -5
-3 -8 0 -7 8 6 29 -43 19 -77 -15 -25 -25 -35 -30 -35 -18 0 9 4 21 8 27 11
17 69 44 77 36 4 -4 5 2 3 13 -1 11 -7 23 -13 27 -5 4 -7 10 -3 13 10 11 39
-27 33 -43 -3 -9 -3 -13 1 -10 6 7 18 -1 60 -39 14 -13 27 -23 29 -23 3 0 4
21 4 48 -1 42 -2 44 -9 17 -4 -16 -8 -22 -9 -13 -1 12 -8 17 -22 15 -13 -1
-26 7 -36 23 -14 23 -14 24 1 6 16 -19 16 -19 16 3 0 12 7 35 15 50 15 30 91
101 108 101 5 0 35 -26 67 -58z m38 27 c41 -49 61 -91 61 -129 0 -35 0 -34
-20 16 -13 34 -37 68 -69 98 -46 43 -47 46 -24 46 16 0 35 -12 52 -31z m569
-41 c-2 -13 -4 -3 -4 22 0 25 2 35 4 23 2 -13 2 -33 0 -45z m20 0 c-2 -13 -4
-3 -4 22 0 25 2 35 4 23 2 -13 2 -33 0 -45z m43 6 c0 -42 1 -44 29 -44 29 0
30 2 34 53 l3 52 2 -57 2 -58 -65 0 c-37 0 -65 4 -65 10 0 6 9 10 21 10 17 0
20 6 19 38 -3 50 -2 54 10 47 6 -3 10 -26 10 -51z m49 -1 c1 -12 -3 -25 -9
-28 -6 -4 -10 12 -9 42 0 36 3 43 9 28 5 -11 9 -30 9 -42z m-1517 32 c10 -4
13 -128 11 -612 l-2 -606 -48 -49 c-52 -53 -61 -55 -144 -32 -52 15 -62 15
-112 0 -64 -19 -85 -37 -62 -56 19 -16 19 -29 0 -50 -14 -15 -14 -19 2 -31 15
-12 16 -12 10 3 -3 10 -2 20 3 23 13 8 13 55 0 55 -23 0 -8 22 25 36 42 17 94
17 160 0 l49 -13 -44 -33 c-74 -54 -169 -89 -287 -105 -50 -6 -53 -6 -53 15 0
17 4 20 20 15 11 -4 20 -2 20 4 0 6 -7 11 -15 11 -18 0 -20 31 -3 48 9 9 9 12
-1 12 -7 0 -15 -9 -18 -21 -3 -12 -11 -18 -19 -15 -8 3 -14 0 -14 -5 0 -7 -11
-9 -25 -6 -23 4 -24 3 -12 -12 8 -9 12 -22 10 -28 -3 -7 0 -13 6 -13 6 0 11
-4 11 -10 0 -18 -27 -10 -43 12 -9 13 -16 18 -16 11 -1 -6 4 -15 9 -18 20 -12
9 -22 -27 -28 -21 -2 -44 -6 -52 -8 -19 -5 -51 52 -40 72 5 9 27 26 49 38 37
19 40 19 49 3 10 -20 -4 -44 -31 -55 -10 -3 -18 -11 -18 -17 0 -11 33 5 58 28
12 10 12 18 2 42 -13 31 -28 38 -47 19 -7 -7 -18 -3 -37 14 -14 13 -26 28 -26
32 0 4 -7 13 -16 20 -15 11 -15 13 0 26 10 8 25 22 34 31 19 21 77 42 91 33 6
-3 15 4 21 15 6 11 20 20 31 20 11 0 18 -4 15 -8 -3 -5 8 -8 24 -7 17 1 39 -4
50 -12 26 -18 26 -53 0 -60 -11 -3 -20 -12 -20 -19 0 -13 -11 -18 -36 -15 -7
1 -14 -5 -17 -13 -4 -10 1 -14 16 -13 12 0 24 4 27 8 3 3 15 9 28 13 17 6 22
3 22 -10 0 -12 3 -14 13 -5 10 8 17 7 26 -2 10 -9 11 -8 5 6 -7 19 -46 33 -63
22 -6 -3 -11 -2 -11 3 0 5 9 12 20 15 11 3 20 14 20 25 0 18 6 19 71 16 43 -1
79 -9 95 -18 22 -15 24 -15 24 -1 0 9 -4 14 -9 10 -5 -3 -15 1 -23 8 -7 8 -18
12 -24 10 -18 -6 -44 26 -44 53 0 17 5 24 20 24 11 0 20 7 20 15 0 8 9 15 21
15 11 0 18 4 15 9 -7 10 17 22 52 27 14 2 22 -3 22 -12 0 -8 8 -14 19 -14 10
0 24 -7 31 -15 10 -12 15 -13 21 -4 4 7 14 9 23 6 21 -8 21 -63 0 -71 -22 -8
-39 3 -25 17 17 17 13 31 -4 17 -9 -7 -13 -21 -9 -35 5 -19 -1 -26 -35 -41
-22 -9 -42 -23 -45 -31 -7 -18 9 -16 24 2 12 14 15 13 32 -4 12 -13 24 -18 36
-13 15 6 14 7 -5 10 -13 2 -23 10 -23 17 0 14 51 55 68 55 11 0 22 23 22 45 0
24 -31 47 -55 41 -16 -4 -30 1 -47 19 -13 14 -34 25 -50 25 l-28 0 0 539 0
540 33 4 c36 6 179 -1 199 -8z m270 -87 c-2 -57 -5 -104 -6 -105 -1 -1 -12 0
-24 4 -21 5 -22 11 -22 104 l0 99 28 0 28 0 -4 -102z m1215 50 c-2 -13 -4 -5
-4 17 -1 22 1 32 4 23 2 -10 2 -28 0 -40z m-2419 32 c22 0 22 -1 22 -158 0
-140 -2 -158 -18 -168 -10 -6 -28 -37 -41 -68 -14 -31 -30 -56 -37 -56 -7 0
-24 11 -38 24 -25 23 -25 23 -7 41 16 14 18 21 9 41 -6 13 -15 24 -20 24 -4 0
-8 11 -8 24 0 31 -19 87 -38 109 -8 9 -20 27 -26 40 -8 15 -25 25 -56 31 -45
8 -45 9 -47 52 l-1 44 72 0 c50 0 78 5 92 15 14 11 33 14 69 10 28 -2 60 -5
73 -5z m617 -36 l70 -22 3 -102 3 -101 -33 3 c-31 3 -33 1 -39 -32 l-6 -35 -4
35 c-4 35 -5 35 -56 38 l-53 3 0 109 c0 59 -3 116 -6 125 -8 19 7 16 121 -21z
m782 -96 c-5 -148 -10 -158 -79 -158 -36 0 -38 -2 -32 -25 8 -33 -11 -33 -42
1 -23 24 -24 32 -24 163 0 76 3 141 7 144 3 4 44 7 91 7 l84 0 -5 -132z m289
39 l0 -77 -3 75 c-3 63 -7 75 -21 75 -11 0 -13 -3 -6 -8 7 -4 13 -46 15 -107
1 -55 6 -107 11 -117 6 -12 4 -15 -11 -11 -28 7 -33 28 -31 121 1 56 -3 89
-12 100 -7 9 -8 13 -2 9 7 -4 15 0 18 9 3 8 14 14 23 12 15 -3 18 -15 19 -81z
m44 -15 c0 -14 9 -33 21 -43 18 -15 20 -25 14 -60 -12 -71 -11 -119 3 -119 8
0 12 -15 12 -42 0 -24 5 -60 11 -82 8 -31 8 -41 -3 -47 -7 -5 -8 -9 -2 -9 6 0
12 -22 13 -51 1 -37 -2 -50 -11 -47 -9 3 -14 30 -15 81 -1 42 -9 93 -18 113
-10 25 -15 71 -15 150 0 107 -1 114 -20 114 -18 0 -20 7 -20 53 1 48 2 50 15
33 8 -11 15 -31 15 -44z m578 42 c20 -6 23 -12 21 -48 -2 -23 1 -47 5 -54 4
-7 2 -12 -3 -12 -6 0 -11 6 -12 13 0 10 -2 10 -6 0 -2 -7 -10 -13 -18 -13 -7
0 -15 -19 -19 -48 l-6 -47 -48 3 c-27 2 -42 0 -35 -5 19 -13 12 -53 -9 -53
-14 0 -16 6 -11 30 4 24 2 30 -11 30 -10 0 -14 -5 -11 -10 9 -15 -4 -50 -20
-50 -7 0 -16 14 -20 30 -4 17 -11 30 -16 30 -5 0 -9 23 -9 50 l0 50 45 0 c43
0 45 -1 45 -28 0 -19 5 -29 16 -29 12 0 14 8 9 39 -6 33 -4 38 12 38 16 0 19
-6 15 -30 -3 -18 0 -30 7 -30 6 0 11 14 11 31 0 19 4 28 11 23 7 -4 9 -21 6
-40 -3 -19 -2 -34 4 -34 5 0 9 18 9 41 0 35 2 40 19 34 11 -3 22 -1 26 5 4 6
-4 10 -19 10 -37 0 -76 18 -76 35 0 9 9 15 21 15 15 0 19 -5 15 -15 -3 -8 -1
-15 4 -15 6 0 10 9 10 20 0 15 -7 20 -26 20 -14 0 -23 4 -19 10 7 11 48 13 83
4z m-533 -61 c4 -14 2 -23 -4 -23 -6 0 -11 9 -11 21 0 11 -4 17 -10 14 -6 -3
-10 4 -10 17 0 19 2 20 14 8 8 -8 17 -25 21 -37z m675 -7 l0 -44 -45 -4 c-55
-4 -65 4 -65 54 l0 38 55 0 55 0 0 -44z m178 15 c-1 -15 2 -33 6 -40 4 -6 1
-11 -8 -11 -17 0 -22 34 -10 64 9 24 13 20 12 -13z m407 -19 c-3 -4 -10 0 -15
8 -8 13 -10 12 -10 -2 0 -9 8 -19 18 -22 9 -3 5 -4 -10 -2 -16 2 -28 -1 -28
-5 0 -5 15 -9 34 -9 21 0 34 5 33 13 -1 48 3 57 31 57 26 0 28 -2 24 -35 -4
-33 -3 -35 27 -35 28 0 31 3 31 30 0 17 4 30 9 30 5 0 11 -13 15 -30 4 -24 11
-30 31 -30 20 0 25 5 25 25 0 24 22 35 33 18 12 -20 19 -103 8 -103 -6 0 -10
5 -8 12 3 17 -69 27 -198 26 -110 -1 -110 -1 38 -8 81 -4 151 -10 154 -14 4
-4 -38 -4 -92 -1 -209 11 -291 13 -255 5 l35 -9 -42 2 c-24 2 -45 -2 -47 -8
-2 -5 -5 13 -5 42 -1 28 4 55 9 58 6 4 10 -7 10 -24 0 -33 11 -37 58 -25 16 5
22 14 22 35 0 24 4 28 33 31 30 3 49 -14 32 -30z m125 13 c0 -8 -8 -15 -17
-15 -16 0 -16 -2 -3 -11 10 -7 11 -9 2 -7 -8 2 -13 7 -13 11 1 4 1 14 1 22 0
8 7 15 15 15 8 0 15 -7 15 -15z m80 -10 c0 -16 -6 -25 -15 -25 -9 0 -15 9 -15
25 0 16 6 25 15 25 9 0 15 -9 15 -25z m-290 -5 c0 -15 -7 -20 -25 -20 -18 0
-25 5 -25 20 0 15 7 20 25 20 18 0 25 -5 25 -20z m-1066 -8 c2 -4 -6 -9 -20
-10 -13 -1 -24 3 -24 8 0 12 37 14 44 2z m139 1 c-7 -2 -21 -2 -30 0 -10 3 -4
5 12 5 17 0 24 -2 18 -5z m147 -3 c0 -5 -22 -10 -50 -10 -27 0 -50 5 -50 10 0
6 23 10 50 10 28 0 50 -4 50 -10z m1137 -12 c-3 -8 -6 -5 -6 6 -1 11 2 17 5
13 3 -3 4 -12 1 -19z m-1577 -48 c0 -38 -4 -50 -15 -50 -11 0 -15 12 -15 50 0
38 4 50 15 50 11 0 15 -12 15 -50z m1118 33 c-10 -2 -28 -2 -40 0 -13 2 -5 4
17 4 22 1 32 -1 23 -4z m-3385 -55 l-11 -33 -1 45 c-1 33 2 41 11 32 8 -8 8
-20 1 -44z m2085 12 c6 0 25 -12 42 -27 27 -22 31 -31 27 -59 -6 -34 4 -49 67
-101 32 -26 37 -88 9 -97 -20 -6 -91 8 -101 20 -7 6 44 1 78 -9 8 -2 11 -2 7
1 -5 2 -17 24 -27 48 -11 24 -24 44 -30 44 -6 0 -9 4 -6 9 3 5 -1 14 -9 21
-18 15 -19 51 -2 70 10 12 9 12 -5 1 -23 -17 -23 -49 -1 -73 9 -10 11 -18 6
-18 -22 0 -36 30 -30 65 8 51 -10 97 -37 93 -13 -2 -22 -11 -24 -25 -4 -26 1
-28 30 -12 19 10 20 9 16 -15 -3 -14 -2 -44 2 -66 8 -42 5 -46 -20 -30 -13 8
-13 13 -2 31 18 28 10 34 -13 9 -32 -35 -70 -19 -94 40 -7 18 -10 20 -10 7 -1
-11 -17 -25 -43 -37 -24 -10 -36 -19 -28 -19 8 -1 28 6 44 14 34 18 42 14 27
-14 -14 -24 -47 -44 -61 -36 -6 3 -10 1 -10 -4 0 -21 -17 -11 -29 16 -11 24
-10 29 5 38 10 5 34 26 54 45 32 31 68 51 55 30 -7 -11 12 -23 25 -15 14 8 0
36 -23 44 -18 7 -17 9 14 28 33 21 33 21 60 2 15 -10 32 -19 37 -19z m1109 4
c-4 -21 0 -24 24 -24 24 0 29 4 29 24 0 20 6 25 35 28 31 4 35 1 35 -19 0 -29
18 -37 51 -24 23 9 23 10 -8 10 -43 1 -47 31 -4 31 30 0 41 -14 41 -55 l0 -23
-287 -4 c-159 -2 -289 -3 -291 -2 -1 0 0 9 4 18 4 11 18 16 45 16 32 0 39 3
39 20 0 11 4 20 9 20 5 0 13 -9 16 -20 3 -11 14 -20 23 -21 9 0 30 -2 45 -4
27 -4 28 -2 22 26 -7 29 -6 29 39 29 42 0 46 -2 46 -25 0 -16 6 -25 15 -25 10
0 15 10 15 28 0 26 3 28 31 24 26 -4 30 -8 26 -28z m-1550 -14 c-3 -22 -1 -40
4 -40 5 0 9 13 9 28 0 34 15 51 40 45 16 -4 19 -20 25 -126 10 -193 3 -499
-13 -505 -10 -3 -12 48 -12 250 l1 253 -38 3 c-28 2 -34 0 -23 -8 8 -5 24 -10
35 -11 20 0 20 0 0 -8 -11 -4 -22 -18 -25 -31 -10 -44 -30 -35 -30 14 l0 46
-49 0 c-28 0 -53 -4 -56 -10 -4 -6 14 -10 46 -10 48 0 51 -1 45 -22 -3 -13 -6
-29 -6 -36 0 -25 -45 -9 -50 18 -3 14 -13 26 -22 28 -16 3 -16 -1 4 -34 l21
-36 -24 7 c-20 6 -22 5 -11 -6 9 -10 12 -99 12 -374 0 -302 -2 -364 -15 -381
-13 -17 -14 38 -15 474 0 485 0 492 20 492 17 0 20 -7 20 -40 0 -24 5 -42 13
-45 27 -8 157 -12 157 -4 0 5 -31 9 -70 9 -63 0 -70 2 -70 20 0 13 7 20 19 20
35 0 51 12 51 36 0 13 3 24 6 24 4 0 4 -18 1 -40z m1253 18 c0 -14 -8 -18 -35
-18 -27 0 -35 4 -35 18 0 15 8 18 35 18 26 -1 35 -5 35 -18z m100 2 c0 -15 -7
-20 -25 -20 -18 0 -25 5 -25 20 0 15 7 20 25 20 18 0 25 -5 25 -20z m235 0 c0
-7 -6 -15 -12 -17 -8 -3 -13 4 -13 17 0 13 5 20 13 18 6 -3 12 -11 12 -18z
m-1605 -4 c0 -15 -48 -28 -56 -15 -9 15 6 29 32 29 14 0 24 -6 24 -14z m117
-68 c-2 -18 -4 -6 -4 27 0 33 2 48 4 33 2 -15 2 -42 0 -60z m2067 46 c13 -5
16 -22 16 -76 0 -63 -2 -69 -17 -63 -29 13 -283 18 -340 7 l-53 -9 0 63 c0 35
0 67 0 72 -1 18 347 24 394 6z m-2774 -60 c0 -28 3 -35 18 -32 11 2 18 14 20
36 3 25 7 32 19 28 8 -3 21 -6 29 -6 9 0 14 -11 14 -30 0 -20 5 -30 15 -30 10
0 15 10 15 30 0 30 11 37 44 24 11 -4 16 -19 16 -43 l0 -36 -175 0 -175 0 0
43 c0 31 4 42 15 42 11 0 15 -11 15 -36 0 -28 3 -35 18 -32 9 2 18 14 20 28 5
45 10 50 52 50 39 0 40 -1 40 -36z m29 29 c0 -5 -4 -17 -9 -28 -8 -18 -9 -17
-9 8 -1 15 4 27 9 27 6 0 10 -3 9 -7z m1248 -40 c-3 -10 -5 -2 -5 17 0 19 2
27 5 18 2 -10 2 -26 0 -35z m-89 -5 c3 -30 0 -37 -11 -32 -8 3 -17 21 -19 40
-3 27 -1 34 11 32 10 -2 17 -16 19 -40z m42 -14 c0 -49 -2 -55 -15 -44 -9 8
-15 30 -15 56 0 32 4 44 15 44 12 0 15 -13 15 -56z m118 14 l12 -33 -5 33 c-4
27 -1 32 15 32 15 0 20 -7 20 -29 0 -42 -35 -49 -55 -11 -17 33 -18 40 -6 40
4 0 13 -15 19 -32z m59 -15 c-3 -10 -5 -2 -5 17 0 19 2 27 5 18 2 -10 2 -26 0
-35z m43 12 c0 -24 -5 -35 -15 -35 -10 0 -15 11 -15 35 0 24 5 35 15 35 10 0
15 -11 15 -35z m56 19 c-3 -9 -6 -22 -6 -30 0 -8 -8 -14 -19 -14 -14 0 -18 7
-17 30 1 24 5 30 25 30 17 0 22 -4 17 -16z m62 -11 c2 -13 -2 -23 -8 -23 -7 0
-9 9 -5 23 6 21 5 21 -9 3 -8 -10 -17 -24 -19 -30 -8 -21 -15 -1 -10 27 4 22
10 27 27 25 13 -2 22 -12 24 -25z m22 -27 c-7 -7 -10 1 -9 25 0 32 1 33 10 10
6 -16 6 -28 -1 -35z m170 43 c12 -9 12 -10 -4 -5 -15 5 -17 4 -7 -8 8 -10 9
-16 1 -21 -5 -3 -10 0 -11 7 0 10 -2 10 -6 1 -7 -19 -23 -15 -23 5 0 32 22 41
50 21z m488 4 c-65 -2 -171 -2 -235 0 -65 1 -12 3 117 3 129 0 182 -2 118 -3z
m-1413 -28 c-32 -14 -41 -13 -30 4 3 6 18 11 33 10 l27 -1 -30 -13z m1205 0
c0 -8 9 -15 20 -15 11 0 20 4 20 10 0 5 -7 7 -15 4 -8 -4 -15 -1 -15 5 0 8 45
11 158 9 l157 -3 6 -50 c4 -27 10 -67 14 -87 6 -28 4 -38 -5 -38 -8 0 -11 9
-8 25 3 14 1 28 -3 31 -5 3 -9 -11 -9 -30 0 -25 4 -36 15 -36 13 0 15 -42 15
-315 0 -173 -3 -314 -7 -313 -5 1 -19 -4 -33 -11 -20 -11 -23 -11 -12 0 19 20
15 43 -12 66 -33 29 -55 31 -96 8 -19 -11 -44 -24 -55 -30 -10 -6 -22 -25 -26
-42 -3 -18 -2 -30 2 -27 5 3 9 0 9 -5 0 -6 -7 -11 -16 -11 -8 0 -12 -5 -9 -10
13 -21 36 11 30 40 -4 18 -1 31 10 40 8 7 15 9 15 4 0 -5 7 0 15 10 8 11 18
16 22 13 3 -4 14 0 24 9 15 14 21 14 46 2 23 -11 28 -20 26 -46 -1 -23 6 -40
23 -57 13 -13 24 -21 24 -17 0 5 -5 13 -11 19 -19 19 0 35 34 28 40 -9 45 -13
49 -49 2 -23 -1 -30 -16 -32 -11 -1 -25 0 -30 4 -6 3 -17 7 -25 9 -8 1 -17 6
-20 12 -10 15 -62 33 -79 26 -8 -3 -23 2 -34 11 -28 26 -30 13 -2 -19 13 -15
24 -23 24 -18 0 18 56 12 83 -9 14 -11 29 -20 33 -20 14 0 44 -33 44 -48 0 -8
-7 -20 -14 -26 -18 -14 -25 -67 -10 -73 7 -2 10 5 7 20 -3 17 2 31 17 45 18
16 20 24 11 40 -14 27 -14 32 4 32 8 0 15 5 15 11 0 25 34 0 56 -41 22 -40 22
-46 9 -67 -8 -12 -15 -33 -15 -47 0 -14 -8 -29 -17 -35 -10 -5 -14 -13 -10
-17 5 -5 12 -2 17 5 6 11 13 9 33 -12 14 -14 30 -27 36 -28 6 -2 12 -15 13
-29 3 -21 -1 -25 -29 -28 -29 -3 -70 -32 -45 -32 6 0 14 5 18 11 3 6 19 9 34
6 15 -3 32 -1 37 4 9 9 46 -2 106 -33 11 -5 23 -6 30 0 28 22 75 31 93 18 20
-15 3 -32 -21 -22 -26 10 -16 -11 21 -43 19 -17 40 -29 46 -25 6 4 -4 15 -22
27 l-33 21 21 17 c20 16 20 17 4 31 -24 21 -78 41 -94 35 -7 -2 3 -9 22 -15
l35 -10 -38 -1 c-23 -1 -36 -5 -32 -11 3 -6 -1 -10 -9 -10 -8 0 -18 5 -21 11
-4 6 -13 8 -21 5 -7 -3 -16 -1 -19 4 -4 6 -14 10 -23 10 -10 0 -24 10 -32 22
-8 12 -30 38 -47 56 -18 19 -30 39 -26 45 3 6 1 7 -5 3 -19 -12 -14 16 6 30
16 13 16 13 -1 14 -17 0 -16 1 2 21 11 12 25 18 33 14 7 -4 3 2 -9 12 -12 10
-29 35 -38 56 -9 21 -26 42 -38 48 -13 6 -24 19 -24 30 -2 28 -23 51 -40 45
-11 -4 -13 58 -13 354 0 237 4 361 10 365 15 9 245 9 298 0 l42 -7 0 -342 0
-341 -46 -48 c-26 -28 -43 -54 -40 -62 3 -9 0 -12 -10 -8 -8 3 -25 -2 -39 -11
-13 -9 -30 -16 -37 -16 -7 0 -19 -9 -26 -20 -7 -13 -8 -20 -2 -20 6 0 13 7 16
15 4 8 13 15 20 15 8 0 25 7 39 16 22 15 24 14 41 -11 25 -39 8 -66 -52 -85
-45 -14 -47 -15 -19 -18 16 -2 31 1 33 7 2 6 11 11 20 11 17 0 48 38 44 53 -1
5 9 0 22 -10 17 -12 29 -35 36 -71 8 -34 23 -66 43 -89 l32 -37 -46 27 c-25
15 -56 27 -69 27 -12 0 -28 6 -34 14 -14 18 -106 33 -106 17 0 -6 19 -11 45
-11 31 0 47 -5 51 -15 4 -8 18 -15 33 -15 26 0 112 -40 142 -66 8 -8 24 -14
35 -13 19 0 19 1 0 8 -19 7 -19 8 2 13 12 4 22 2 22 -3 0 -5 9 -9 21 -9 11 0
17 -5 14 -10 -4 -6 -12 -7 -18 -4 -7 4 -9 4 -5 0 3 -4 2 -21 -4 -38 -8 -22
-13 -26 -19 -16 -5 7 -6 21 -3 31 4 11 0 17 -11 17 -13 0 -16 -5 -10 -22 25
-82 17 -95 -56 -92 -39 2 -55 8 -66 23 -13 19 -16 20 -42 7 -15 -8 -33 -22
-40 -30 -8 -9 -22 -16 -33 -16 -22 0 -102 -39 -95 -46 3 -3 24 4 48 16 49 26
115 22 136 -6 12 -17 13 -17 13 -1 0 15 3 16 21 7 11 -7 23 -9 26 -6 8 8 -43
26 -75 27 -26 1 -26 1 5 11 33 11 88 3 79 -10 -3 -4 0 -14 6 -22 8 -13 9 -13
5 1 -3 9 -1 22 4 30 6 10 9 6 10 -16 1 -24 3 -25 6 -7 4 22 18 27 47 16 20 -8
21 -44 1 -44 -9 0 -12 6 -9 17 5 15 4 15 -5 3 -5 -8 -25 -15 -43 -16 -18 -1
-73 -7 -121 -13 -48 -6 -92 -9 -97 -6 -5 3 -29 6 -53 7 l-44 0 19 36 c22 44
23 71 4 98 -13 18 -33 29 -116 62 l-25 10 44 42 c36 35 44 49 46 85 3 46 -14
66 -35 40 -9 -11 -7 -12 7 -9 17 5 19 1 15 -32 -3 -26 -16 -48 -43 -75 -22
-22 -39 -43 -39 -49 0 -18 -22 -10 -59 22 -36 31 -212 120 -265 134 -15 3 -25
11 -23 17 5 16 49 26 68 16 10 -5 24 -3 35 6 18 13 18 14 -3 35 -13 11 -23 16
-23 11 0 -5 5 -13 10 -16 22 -14 8 -24 -27 -21 -57 6 -93 17 -88 27 3 5 -5 11
-17 14 -13 3 -28 16 -33 28 -6 12 -18 21 -28 21 -9 -1 -17 2 -17 6 0 4 -9 10
-20 13 -13 3 -20 14 -20 29 0 19 9 28 40 42 22 9 44 15 50 11 5 -3 21 2 35 11
24 16 26 15 59 -19 19 -20 32 -38 28 -41 -3 -3 -1 -6 5 -6 17 0 23 -40 8 -46
-7 -3 -16 -12 -19 -19 -4 -11 0 -12 17 -6 18 7 22 15 20 46 -2 30 -11 45 -44
76 -47 43 -55 45 -84 25 -22 -15 -65 -5 -65 14 0 14 -25 40 -39 40 -6 0 -11 4
-11 9 0 16 -67 52 -84 45 -15 -6 -16 24 -16 325 l0 331 23 1 c17 1 18 2 4 6
-9 2 -15 9 -12 14 4 5 64 9 136 9 108 0 129 -2 129 -15z m-1291 -36 c17 -49
14 -59 -16 -59 -26 0 -28 3 -28 45 0 36 3 45 16 45 10 0 22 -13 28 -31z
m-1261 -171 c-18 -15 -35 -28 -38 -28 -3 0 -11 18 -17 41 -8 32 -8 42 3 46 7
3 23 30 34 61 33 88 45 85 48 -11 3 -82 3 -82 -30 -109z m1317 132 c-4 -11
-13 -20 -21 -20 -18 0 -19 56 -1 63 17 6 30 -19 22 -43z m133 -2 c-7 -4 -22
-8 -33 -7 -19 0 -19 1 3 16 12 8 22 23 23 32 0 10 4 7 10 -8 7 -18 6 -27 -3
-33z m723 42 l89 0 0 -325 c0 -286 -2 -325 -15 -325 -9 0 -27 -11 -40 -25 -14
-13 -25 -22 -25 -18 0 7 -72 -46 -87 -65 -7 -8 -19 -12 -28 -9 -13 6 -15 53
-15 393 0 348 2 386 16 380 9 -3 56 -6 105 -6z m-1502 -16 c31 -6 44 -34 17
-34 -8 0 -17 -6 -19 -12 -3 -8 -6 -6 -6 5 -1 15 -12 17 -86 17 -47 0 -85 -4
-85 -9 0 -4 11 -6 25 -3 20 3 25 0 25 -17 0 -28 20 -27 21 2 1 16 2 18 6 5 5
-20 24 -25 21 -5 -2 6 3 12 10 11 6 -1 21 -2 32 -2 11 -1 20 -9 20 -17 0 -8 5
-15 10 -15 6 0 13 7 16 15 11 28 24 15 24 -22 l0 -38 -175 0 -175 0 1 40 c1
22 3 32 6 23 5 -21 43 -24 43 -4 0 7 11 16 25 18 19 4 25 1 25 -13 0 -16 22
-22 28 -6 8 25 0 37 -27 37 -39 0 -61 -9 -61 -26 0 -8 -5 -14 -11 -14 -6 0 -9
7 -5 15 3 9 0 15 -9 15 -27 0 -16 29 13 33 45 7 257 7 291 1z m482 -29 c5 4 9
-84 9 -220 l0 -227 -44 -49 c-47 -52 -67 -96 -88 -194 -12 -54 -13 -24 -16
294 -1 195 -1 355 0 357 2 1 26 4 53 6 61 5 73 11 70 40 -1 13 0 15 2 5 2 -9
9 -15 14 -12z m390 9 c8 -8 25 -14 36 -14 11 0 23 -3 27 -7 4 -5 13 -8 19 -8
5 0 12 -6 15 -12 2 -7 -3 -13 -12 -13 -8 0 -18 -5 -22 -11 -5 -8 1 -10 18 -6
17 5 28 2 31 -7 4 -9 -2 -12 -21 -8 -15 3 -32 9 -39 14 -16 13 -95 0 -86 -14
4 -7 1 -8 -8 -2 -8 5 -36 16 -63 24 -54 17 -62 33 -19 38 35 5 56 21 49 38 -7
17 52 7 75 -12z m499 -196 c-2 -549 -2 -548 18 -548 10 0 23 -5 30 -12 9 -9
12 -7 12 9 0 20 66 73 92 73 7 0 18 10 23 23 15 33 97 48 125 22 11 -10 20
-24 20 -32 0 -8 5 -11 10 -8 18 11 41 -16 34 -38 -4 -13 -2 -17 5 -13 6 4 11
2 11 -3 0 -6 -9 -11 -20 -11 -11 0 -27 -11 -35 -24 -13 -19 -14 -28 -4 -50 7
-16 18 -25 26 -22 7 3 13 -1 13 -8 0 -8 -6 -16 -12 -19 -7 -2 -9 -8 -5 -13 5
-5 15 -1 22 10 16 21 45 15 45 -9 0 -13 12 -19 25 -12 2 1 12 -8 20 -20 9 -13
24 -23 33 -23 15 0 15 -1 0 -16 -23 -23 -52 -11 -43 17 5 15 4 19 -4 15 -6 -4
-11 -14 -11 -21 0 -11 -8 -13 -32 -8 -53 10 -202 54 -209 61 -4 4 -5 22 -2 40
5 31 8 33 42 30 26 -2 39 -9 46 -26 5 -12 16 -22 23 -22 25 0 -26 57 -55 62
-37 5 -68 -4 -69 -19 -1 -7 -2 -24 -2 -38 l-2 -25 -47 24 c-118 60 -146 93
-178 207 -10 39 -32 79 -70 127 l-55 71 0 235 0 236 90 0 91 0 -1 -222z m1350
118 c0 -9 5 -16 11 -16 5 0 8 -4 5 -9 -4 -5 0 -12 6 -15 10 -5 10 -7 1 -12 -7
-3 -13 -12 -13 -20 0 -8 -8 -14 -18 -14 -10 0 -23 -5 -29 -11 -6 -6 -26 -9
-44 -7 l-34 3 -3 72 c-3 64 -1 73 18 83 11 6 20 19 20 30 0 15 9 10 40 -24 22
-24 40 -51 40 -60z m-107 74 c9 -8 -5 -9 -58 -3 -85 10 -247 10 -295 0 -22 -5
-31 -4 -25 2 16 15 71 19 223 16 92 -2 148 -7 155 -15z m-1937 -49 c-13 -20
-26 -11 -26 16 0 25 1 26 16 11 9 -9 13 -21 10 -27z m34 35 c0 -3 -4 -8 -10
-11 -5 -3 -10 -1 -10 4 0 6 5 11 10 11 6 0 10 -2 10 -4z m-1509 -32 c4 -11 8
-13 8 -6 2 28 41 -25 47 -63 3 -22 9 -44 14 -48 4 -5 -3 -20 -16 -34 -44 -48
-16 -35 37 16 29 28 56 51 61 51 4 0 7 -30 7 -66 -1 -55 -3 -65 -17 -61 -10 2
-16 10 -14 18 3 11 1 11 -9 2 -10 -10 -16 -9 -31 4 -17 15 -18 15 -18 0 0 -14
-5 -15 -26 -7 -14 6 -37 10 -51 10 -22 0 -24 3 -18 23 3 12 7 28 7 35 1 6 4
12 8 12 3 0 12 -6 19 -12 11 -11 13 -10 9 2 -4 10 -16 14 -37 12 -41 -3 -61
17 -65 65 -2 25 -10 39 -22 43 -17 6 -17 7 1 17 30 17 98 8 106 -13z m1437 -2
c2 -7 -19 -35 -47 -62 l-51 -49 0 62 0 62 47 0 c28 -1 48 -6 51 -13z m120 -22
c8 0 29 -7 48 -16 30 -14 35 -14 56 0 12 9 29 16 38 16 8 -1 -2 -10 -23 -21
-38 -20 -40 -20 -75 -3 -22 11 -58 17 -90 17 -31 -1 -50 2 -46 8 3 5 15 7 27
3 19 -6 20 -5 8 10 -13 15 -11 15 15 1 16 -8 35 -15 42 -15z m-56 -19 c11 6
19 5 23 -1 3 -5 -6 -15 -20 -22 -21 -9 -31 -9 -47 1 -24 15 -36 7 -19 -12 13
-17 3 -80 -12 -70 -5 3 -7 1 -3 -5 3 -5 1 -12 -5 -14 -7 -2 -7 -12 2 -31 10
-22 9 -33 -6 -66 -9 -22 -30 -51 -45 -66 l-27 -26 12 47 c8 32 19 51 34 58 14
6 20 15 15 25 -3 9 -8 32 -11 52 -4 30 -1 40 23 63 16 14 26 26 22 26 -39 0
-73 -55 -58 -95 15 -38 12 -43 -10 -16 -30 35 -24 61 26 113 38 40 48 46 67
39 13 -5 30 -5 39 0z m113 -32 c16 -16 21 -36 24 -110 l3 -90 -34 18 c-22 11
-33 24 -31 33 2 9 -7 46 -21 83 -29 78 -26 102 13 92 14 -3 35 -15 46 -26z
m114 18 c8 -11 6 -28 -9 -72 -11 -32 -20 -70 -20 -85 0 -19 -9 -33 -27 -45
l-26 -18 6 92 c5 61 3 91 -4 91 -14 0 43 49 57 50 6 0 17 -6 23 -13z m-960 -3
l61 -7 0 -98 c0 -59 -4 -99 -10 -99 -5 0 -10 -11 -10 -25 0 -14 5 -25 10 -25
6 0 10 -61 10 -162 l-1 -163 -47 -35 c-59 -44 -62 -48 -55 -82 5 -27 4 -28
-34 -28 -27 0 -46 6 -58 20 -10 11 -28 20 -41 20 -13 0 -26 5 -30 11 -3 6 -17
8 -31 4 -52 -13 -53 -9 -53 341 l0 323 33 4 c56 7 192 7 256 1z m691 -83 c-7
-28 -16 -54 -21 -57 -13 -7 -11 4 7 55 8 24 12 51 9 60 -5 12 -3 13 6 4 9 -9
9 -23 -1 -62z m51 -23 c-24 -69 -66 -140 -111 -183 -16 -16 -30 -33 -30 -39 0
-16 69 55 98 102 19 30 32 41 45 38 11 -2 22 4 29 17 10 20 10 21 -6 8 -25
-21 -29 -8 -13 45 l15 49 11 -28 c20 -52 13 -76 -41 -138 -51 -59 -102 -98
-136 -104 -9 -2 -19 -4 -22 -5 -3 -1 -8 -2 -12 -1 -4 0 -5 -5 -2 -13 3 -8 -5
-23 -17 -35 -27 -25 -22 -33 25 -34 20 -1 36 -2 36 -3 0 -1 -9 -21 -19 -45
-13 -27 -22 -38 -25 -29 -2 8 -9 29 -15 45 l-11 30 5 -30 c3 -16 8 -44 11 -61
9 -48 -58 -184 -130 -262 -49 -52 -201 -172 -219 -172 -3 0 39 44 93 98 84 83
104 109 138 182 25 54 42 107 46 144 7 60 29 109 39 84 3 -7 4 4 3 24 -1 35
-16 56 -16 23 0 -8 -7 -15 -15 -15 -28 0 -49 -60 -50 -145 0 -67 -5 -89 -27
-130 -15 -28 -31 -49 -36 -48 -5 1 -41 -25 -78 -59 -147 -129 -236 -179 -358
-199 -51 -8 -51 -8 13 -4 103 6 197 59 361 203 93 83 71 45 -32 -54 -157 -151
-268 -194 -495 -193 -95 0 -130 -3 -157 -16 -38 -18 -96 -78 -96 -98 0 -11 39
31 40 43 0 3 17 16 37 30 34 23 47 25 207 31 141 5 181 10 225 27 l55 22 -54
-55 c-30 -30 -52 -57 -49 -60 7 -6 115 108 111 118 -1 5 2 6 7 2 11 -6 97 34
143 66 40 29 42 24 8 -39 -43 -81 -105 -126 -206 -152 -60 -16 -94 -19 -141
-14 -52 5 -76 2 -140 -19 -124 -40 -183 -49 -239 -37 -49 11 -74 25 -74 42 0
5 12 0 26 -11 28 -22 88 -28 114 -11 10 7 0 8 -32 4 -65 -9 -85 7 -60 48 19
33 94 84 151 104 21 7 91 20 156 29 213 30 291 65 428 195 104 98 142 154 158
228 19 93 35 120 129 214 97 98 141 171 163 273 7 34 17 56 26 58 29 6 33 -22
12 -85z m284 47 c13 -44 73 -167 111 -227 25 -39 31 -62 15 -56 -19 7 -106
136 -138 205 -37 80 -43 126 -17 121 10 -2 22 -21 29 -43z m1842 19 c19 -21
30 -25 54 -20 26 5 29 3 29 -19 0 -14 5 -25 12 -25 8 0 8 -4 -2 -14 -20 -19
-80 -10 -81 13 -1 14 -2 13 -6 -1 -2 -10 -9 -18 -14 -18 -5 0 -9 -5 -9 -11 0
-6 8 -8 19 -4 12 3 21 0 25 -10 4 -11 -2 -15 -25 -15 -21 0 -40 11 -64 35 -19
19 -35 29 -35 22 0 -7 -11 -22 -25 -35 -13 -13 -23 -28 -21 -35 1 -7 1 -9 -1
-5 -5 9 -64 -2 -80 -15 -10 -7 -13 4 -13 50 l0 59 35 1 c20 1 35 -4 35 -10 0
-6 7 -1 16 11 8 12 21 22 28 22 7 0 22 11 32 25 24 32 60 32 91 -1z m-1807 -7
c0 -28 24 -53 67 -68 44 -15 65 -51 57 -94 -3 -19 -10 -32 -15 -29 -18 11 -21
-27 -4 -46 9 -10 15 -24 13 -31 -2 -7 -16 9 -31 36 l-27 48 20 22 c33 36 24
64 -27 79 -14 5 -23 3 -23 -3 0 -6 11 -11 25 -11 34 0 43 -27 17 -53 l-21 -20
-41 83 c-44 91 -48 110 -25 110 9 0 15 -9 15 -23z m-2070 -72 c0 -2 -5 -16
-10 -30 -17 -45 -40 -14 -40 53 l0 55 25 -37 c14 -20 25 -39 25 -41z m2220 8
c0 -67 0 -67 -15 -39 -20 38 -20 106 0 106 12 0 15 -14 15 -67z m-210 -30 c17
-36 28 -68 25 -71 -3 -3 4 -11 15 -19 23 -16 85 -103 73 -103 -4 0 7 -9 25
-20 18 -11 40 -33 50 -50 11 -16 22 -27 25 -23 4 3 7 -1 7 -10 0 -9 4 -19 10
-22 6 -4 7 1 3 10 -3 10 0 21 8 26 11 7 9 9 -8 9 -22 0 -50 34 -35 43 4 2 2 2
-5 1 -6 -2 -17 4 -23 12 -17 19 2 19 40 -1 32 -16 41 -29 14 -18 -8 3 9 -19
38 -48 41 -41 57 -66 68 -104 19 -73 51 -157 57 -151 3 2 31 -13 63 -35 73
-49 156 -81 330 -123 103 -26 170 -49 262 -94 68 -32 132 -69 142 -80 11 -12
16 -22 12 -22 -4 0 0 -7 9 -16 9 -9 14 -18 12 -20 -1 -2 -34 8 -73 21 -94 33
-229 55 -331 55 -99 0 -189 18 -157 32 16 7 15 8 -5 4 -17 -4 -49 9 -104 42
-105 63 -208 171 -266 281 -40 75 -43 87 -33 117 6 19 6 34 1 34 -5 0 -9 -9
-9 -21 0 -31 -17 -14 -36 39 -10 26 -24 51 -32 55 -33 21 -81 70 -76 78 3 5 1
9 -4 9 -11 0 -87 96 -87 109 0 11 -27 36 -47 43 -9 4 -15 15 -13 25 12 58 16
73 20 73 3 0 18 -30 35 -67z m-1987 42 c-3 -9 -8 -14 -10 -11 -3 3 -2 9 2 15
9 16 15 13 8 -4z m1581 -66 c-11 -18 -24 -8 -24 19 1 26 1 26 15 8 8 -10 12
-23 9 -27z m2196 21 c0 -5 7 -10 15 -10 13 0 21 -30 17 -62 -1 -3 4 -8 11 -11
19 -7 70 38 72 65 1 12 5 22 8 21 4 -2 13 -3 20 -3 8 0 8 -3 1 -8 -17 -11 -24
-40 -11 -45 12 -4 15 -62 4 -90 -7 -18 -8 -18 -37 0 -34 20 -42 40 -9 22 17
-9 20 -8 17 3 -5 15 -68 22 -68 7 0 -5 -9 -9 -20 -9 -13 0 -20 7 -20 20 0 11
-5 20 -11 20 -6 0 -9 7 -6 15 4 8 2 17 -3 20 -6 4 -10 -2 -10 -11 0 -10 -3
-14 -7 -10 -12 12 -14 48 -2 62 13 16 39 19 39 4z m-2182 -43 c-15 -12 -29
-31 -31 -42 -3 -13 -5 -9 -6 12 -1 26 4 33 27 41 39 15 40 14 10 -11z m2246
-4 c4 -9 3 -20 -2 -25 -6 -6 -11 1 -14 16 -6 29 6 35 16 9z m26 7 c0 -5 -2
-10 -4 -10 -3 0 -8 5 -11 10 -3 6 -1 10 4 10 6 0 11 -4 11 -10z m-1906 -29
c16 -16 25 -34 22 -39 -4 -6 -1 -14 5 -18 8 -5 10 -2 5 7 -4 8 6 -2 23 -21 76
-88 235 -389 311 -591 55 -145 60 -170 41 -193 -13 -16 -18 -6 -52 91 -82 241
-242 601 -298 673 -11 13 18 -50 63 -141 99 -197 270 -630 255 -643 -2 -2 -27
-15 -55 -29 l-50 -25 -39 151 c-48 191 -114 412 -150 503 -32 79 -101 222
-117 241 -8 10 -6 17 8 28 10 8 15 15 10 15 -5 0 -24 -12 -43 -26 l-34 -25
-46 30 c-52 34 -38 43 16 10 l34 -21 26 26 c14 14 28 26 31 26 4 0 19 -13 34
-29z m236 -56 c0 -49 -4 -75 -11 -75 -7 0 -9 9 -6 22 4 12 1 28 -5 35 -8 10
-8 24 1 53 6 22 14 40 16 40 3 0 5 -34 5 -75z m1528 55 c18 -8 30 -20 28 -27
-7 -17 56 -45 66 -30 4 7 8 9 8 5 0 -16 2 -23 10 -38 7 -12 -2 -15 -49 -16
-38 0 -74 -8 -112 -26 l-55 -25 -2 78 c-2 76 -2 77 25 87 33 11 39 10 81 -8z
m-3624 -15 c16 -24 22 -96 9 -108 -3 -4 -12 -2 -19 4 -17 14 -74 2 -74 -16 0
-23 17 -26 23 -5 3 11 14 20 25 20 16 0 22 -13 36 -69 16 -64 16 -73 2 -100
-23 -43 -32 -45 -50 -7 -18 38 -21 69 -11 106 7 23 7 24 -7 6 -14 -18 -15 -17
-27 13 -11 25 -11 34 -1 46 8 10 11 35 8 70 -5 58 -1 63 43 64 18 1 32 -7 43
-24z m1695 6 c11 -7 10 -14 -6 -37 -24 -34 -115 -225 -110 -231 2 -2 23 36 46
84 106 221 131 226 72 14 -55 -192 -105 -426 -131 -601 -30 -208 -24 -192 -68
-184 -48 8 -132 44 -132 56 0 5 27 100 60 210 33 111 58 204 55 206 -6 6 -5
10 -72 -220 l-58 -196 -25 14 c-14 7 -34 13 -45 13 -11 0 -2 -7 23 -17 23 -9
42 -21 42 -27 0 -6 8 -11 18 -12 9 -1 44 -11 76 -22 33 -12 67 -21 78 -21 10
0 18 -4 18 -10 0 -20 -132 16 -222 62 -32 15 -58 35 -58 43 0 8 14 49 31 92
17 43 53 139 79 213 39 109 88 234 147 369 5 10 2 12 -8 6 -8 -5 -11 -5 -6 1
5 5 11 8 14 6 6 -4 52 68 53 80 0 5 -22 -15 -49 -43 -52 -54 -84 -60 -55 -11
13 22 72 61 100 66 4 0 30 25 57 54 53 56 55 56 76 43z m-1848 -33 c7 -13 12
-24 11 -25 -1 -2 -2 -11 -2 -20 0 -14 2 -15 9 -5 12 20 20 -5 14 -45 -6 -37
-14 -41 -34 -17 -10 12 -10 20 -1 35 10 16 9 19 -3 19 -9 0 -15 -9 -15 -22 0
-18 -6 -23 -28 -25 -15 -1 -33 4 -41 10 -12 9 -13 9 -7 0 4 -8 2 -13 -6 -13
-11 0 -10 -2 0 -9 11 -6 10 -10 -4 -15 -9 -3 -19 -4 -22 -1 -3 3 -1 5 4 5 5 0
8 20 7 45 -1 34 2 45 16 50 10 3 28 17 41 30 29 31 46 32 61 3z m2012 -80 c79
-164 127 -306 205 -603 58 -222 56 -204 30 -214 -61 -22 -76 -22 -80 2 -96
448 -177 786 -204 847 -18 41 -20 53 56 -255 32 -132 71 -296 84 -365 14 -69
30 -141 35 -160 25 -95 26 -90 -18 -90 -46 0 -41 -15 -71 200 -27 189 -31 210
-40 210 -4 0 1 -51 11 -112 10 -62 24 -152 31 -200 l14 -86 -36 -6 c-19 -3
-53 -6 -74 -6 l-39 0 8 63 c5 34 9 238 10 452 1 215 5 396 9 403 14 23 24 11
69 -80z m-1778 40 c12 -2 20 -12 21 -25 1 -13 -4 -19 -11 -17 -7 3 -22 -10
-33 -28 l-22 -33 0 45 c0 25 -3 56 -7 70 -6 24 -5 24 13 9 10 -10 28 -19 39
-21z m1665 -162 c-6 -83 -22 -225 -36 -316 -20 -136 -54 -403 -54 -432 0 -5
-25 -8 -55 -8 -33 0 -55 4 -55 11 0 7 16 9 50 4 34 -5 50 -3 50 4 0 6 -19 11
-46 11 l-47 0 7 60 c25 223 118 652 184 845 13 40 14 -25 2 -179z m2025 164
c3 -5 2 -10 -4 -10 -5 0 -13 5 -16 10 -3 6 -2 10 4 10 5 0 13 -4 16 -10z m12
-47 c-2 -16 -7 -36 -11 -45 -4 -9 -2 -26 4 -38 9 -16 9 -25 1 -33 -6 -6 -11
-8 -11 -5 0 4 -24 -4 -54 -17 -30 -13 -57 -21 -60 -18 -14 14 -5 51 16 60 12
5 26 25 33 49 l11 39 -35 2 c-27 1 -30 -1 -13 -5 13 -4 23 -10 23 -14 -1 -5
-1 -15 -1 -23 0 -8 -11 -25 -25 -37 -21 -18 -24 -29 -23 -74 1 -40 -3 -59 -17
-74 -18 -20 -18 -21 2 -35 12 -8 25 -30 28 -48 9 -38 34 -87 54 -103 8 -7 12
-21 9 -37 -3 -15 -1 -27 3 -27 5 0 9 9 9 20 0 34 19 22 43 -26 l22 -46 -28
-22 c-15 -12 -27 -26 -27 -32 0 -9 -100 -67 -106 -61 -1 1 2 23 7 49 5 28 5
57 -1 70 -7 18 -9 12 -10 -32 -1 -30 -5 -64 -9 -75 -5 -11 -6 10 -4 50 3 39
12 85 19 104 19 45 18 62 -3 59 -12 -2 -18 3 -17 14 1 10 -4 14 -12 11 -8 -3
-14 -9 -14 -13 0 -9 31 -24 43 -22 8 2 10 -22 1 -31 -11 -10 -54 16 -54 33 0
9 -7 25 -15 36 -16 21 -20 12 -6 -14 4 -9 11 -29 15 -44 5 -23 3 -25 -15 -21
-11 3 -26 20 -33 37 -12 30 -13 30 -20 9 -10 -30 -19 -29 -36 2 -10 18 -16 22
-22 13 -4 -8 -8 4 -8 29 0 32 5 46 22 57 17 12 24 13 30 3 5 -7 8 -3 8 14 0
14 5 30 12 37 15 15 48 16 48 2 0 -6 11 -15 25 -22 13 -6 33 -30 44 -53 11
-23 27 -45 36 -49 13 -5 12 0 -4 20 -12 15 -21 32 -21 38 -1 15 -36 56 -49 56
-6 0 -15 9 -21 20 -8 15 -17 19 -31 15 -19 -6 -20 -2 -17 97 l3 103 55 27 c56
28 132 38 177 24 18 -6 22 -4 17 8 -3 9 -1 16 5 16 6 0 9 -12 8 -27z m-3511
-50 c2 -63 1 -63 -27 -63 -15 0 -31 -5 -34 -10 -4 -6 -11 -8 -16 -5 -14 9 -11
35 5 35 17 0 29 27 16 35 -6 4 -10 -1 -10 -9 0 -19 -16 -21 -23 -3 -3 6 -6 3
-7 -8 -2 -18 -3 -18 -8 2 -5 15 -11 20 -20 14 -15 -9 -6 -41 12 -41 6 0 12
-10 13 -21 3 -34 17 -41 41 -19 18 17 62 28 62 16 0 -22 -14 -35 -29 -26 -12
6 -24 4 -39 -6 -12 -8 -23 -10 -27 -5 -9 15 -33 2 -41 -22 -6 -20 -7 -20 -19
4 -10 18 -11 27 -2 38 10 12 9 14 -4 9 -18 -7 -59 40 -59 66 0 22 76 78 97 72
10 -3 25 -1 33 4 8 6 31 9 50 8 l35 -3 1 -62z m-233 -115 c-6 -48 -24 -75 -42
-63 -7 4 -4 20 9 45 23 45 25 69 9 104 -7 14 -8 36 -4 53 7 26 9 23 21 -32 7
-33 11 -81 7 -107z m-171 90 c5 -12 13 -42 18 -65 6 -24 15 -43 21 -43 6 0 6
6 0 19 -11 21 -27 131 -19 131 3 0 15 -33 28 -72 29 -91 66 -141 98 -133 22 5
23 3 19 -37 -3 -28 -9 -43 -18 -43 -8 0 -22 -16 -31 -35 -25 -48 -22 -15 2 39
11 24 18 46 15 49 -2 3 -11 -11 -20 -31 l-15 -36 -29 30 c-17 16 -36 27 -44
23 -9 -3 -23 7 -38 27 -22 31 -22 32 -4 45 10 8 22 14 27 14 23 0 3 18 -32 29
-37 11 -39 13 -30 37 9 22 6 30 -19 55 -25 25 -27 30 -14 38 24 13 77 -12 85
-41z m2175 0 c11 -13 34 -54 51 -93 84 -192 182 -325 293 -396 38 -24 47 -34
37 -41 -9 -7 -8 -8 5 -4 10 3 40 -5 66 -19 51 -25 144 -45 221 -45 54 -1 84
-16 111 -56 28 -43 25 -54 -13 -43 -56 16 -135 11 -178 -11 -51 -26 -94 -25
-155 4 -60 28 -76 45 -149 158 -59 91 -69 112 -36 83 11 -10 17 -22 13 -28 -4
-6 -1 -7 7 -2 9 6 11 4 5 -5 -5 -9 -4 -11 3 -6 6 4 25 0 41 -9 53 -27 47 -16
-12 21 -31 19 -57 40 -57 45 0 5 -6 9 -12 9 -7 0 -23 16 -36 36 -44 67 -34 26
16 -68 63 -117 77 -164 54 -178 -14 -9 -13 -10 6 -5 12 4 22 4 22 1 0 -10 -60
-37 -69 -31 -5 3 -12 -1 -14 -7 -4 -8 -6 -7 -6 4 -1 9 4 20 9 23 6 3 10 1 10
-6 0 -21 14 0 17 26 3 22 -34 142 -71 227 -9 21 -15 41 -14 45 3 9 -127 266
-173 344 -30 52 -26 64 8 27z m-267 -228 c0 -85 -5 -239 -12 -342 l-11 -187
-36 -4 c-20 -3 17 -4 82 -3 151 3 158 -10 16 -30 -30 -4 -49 -2 -53 5 -4 6
-26 11 -48 11 l-41 0 7 78 c3 42 20 169 36 282 17 113 33 255 37 315 9 151 22
84 23 -125z m-401 188 c-7 -12 -16 -52 -19 -88 l-7 -65 -2 63 c-1 58 21 133
36 119 2 -3 -1 -16 -8 -29z m-1283 -45 l22 -37 -31 -40 c-22 -27 -26 -38 -14
-33 23 9 22 -6 -2 -27 -20 -18 -20 -17 -18 52 0 41 5 70 11 69 5 -1 11 7 13
18 3 16 2 17 -6 5 -9 -12 -11 -9 -11 14 0 33 4 31 36 -21z m168 -9 c13 -5 14
-10 5 -20 -8 -10 -16 -10 -34 -2 -39 18 -12 38 29 22z m131 -16 c22 -10 25
-17 25 -65 0 -47 -4 -55 -26 -52 -4 0 -10 -5 -14 -11 -11 -17 -31 -3 -23 16 3
8 8 13 10 10 3 -2 13 3 23 11 20 18 15 53 -8 53 -12 0 -13 -3 -4 -12 16 -16
15 -28 -3 -28 -8 0 -20 -10 -26 -22 -10 -18 -13 -19 -17 -8 -3 8 -18 32 -34
52 -16 20 -24 39 -19 42 5 4 13 2 16 -4 5 -8 11 -7 21 1 12 10 18 8 29 -7 8
-10 15 -14 15 -7 0 6 -4 15 -10 18 -15 9 -12 25 5 25 8 0 26 -5 40 -12z m-172
-102 c18 -7 45 -30 61 -50 l28 -38 -18 -39 c-11 -23 -26 -39 -36 -39 -10 0
-18 -4 -18 -10 0 -5 -7 -10 -15 -10 -8 0 -15 6 -15 13 0 8 -19 18 -45 24 -25
6 -45 6 -45 2 0 -5 10 -9 23 -10 12 0 31 -4 42 -9 15 -7 9 -9 -26 -9 -39 -1
-47 2 -57 24 -7 15 -20 25 -32 25 -12 0 -19 3 -16 8 2 4 1 23 -4 42 -5 24 -8
28 -9 13 -1 -24 -21 -33 -21 -10 0 20 17 40 37 43 10 2 25 12 33 23 18 24 84
28 133 7z m3590 -59 c-3 -6 -10 -24 -14 -41 -6 -26 -7 -23 -8 23 -1 46 1 52
14 41 8 -7 12 -17 8 -23z m-3803 -18 c-11 -38 -35 -66 -75 -86 l-29 -16 29 35
c17 19 33 30 36 26 3 -5 13 9 22 32 18 47 29 53 17 9z m3910 22 c0 -6 -4 -13
-10 -16 -5 -3 -10 -13 -10 -21 0 -8 -12 -25 -26 -37 -17 -15 -27 -36 -31 -65
-8 -57 -27 -49 -31 14 -5 73 5 114 31 124 30 12 77 12 77 1z m-3877 -61 c-5
-19 4 -25 33 -21 20 2 28 -52 10 -65 -9 -6 -16 -15 -16 -21 0 -5 -6 -17 -13
-26 -10 -15 -17 -16 -44 -7 -27 10 -32 17 -35 53 -4 34 0 48 21 74 30 36 52
43 44 13z m1294 -105 c-22 -64 -41 -114 -43 -113 -10 10 66 228 79 228 2 0
-14 -52 -36 -115z m-969 73 c5 -7 12 -22 14 -33 3 -17 11 -20 50 -20 25 0 44
-3 42 -7 -2 -3 8 -15 23 -26 l28 -20 -28 -22 c-32 -25 -33 -34 -9 -82 l19 -36
-31 -18 c-17 -10 -47 -34 -67 -53 -20 -20 -46 -43 -59 -51 -12 -8 -29 -21 -36
-28 -8 -7 -29 -12 -46 -10 l-33 3 23 23 c12 12 19 22 16 22 -3 0 14 15 38 34
40 31 45 33 67 19 17 -11 22 -12 19 -2 -8 24 -37 35 -55 21 -10 -7 -30 -20
-44 -29 -15 -10 -37 -35 -50 -56 l-24 -39 -59 6 c-32 3 -99 6 -148 6 -84 0
-88 1 -77 19 7 11 9 26 4 37 -7 16 -9 15 -14 -11 -5 -20 -12 -30 -24 -29 -9 1
-14 -2 -11 -7 3 -5 0 -9 -5 -9 -26 0 -3 64 31 88 10 7 18 18 18 23 0 5 -11 2
-25 -8 -25 -19 -52 -69 -47 -90 1 -6 -2 -14 -8 -18 -14 -9 -12 12 8 78 25 80
33 85 76 51 20 -16 36 -32 36 -36 0 -13 43 -9 74 7 37 20 56 19 57 -2 0 -12 2
-13 6 -5 3 7 0 19 -6 26 -16 19 18 47 47 39 33 -8 79 15 92 46 8 21 7 41 -3
87 l-14 60 30 20 c80 50 88 52 105 32z m-588 -53 c0 -20 -6 -19 -28 3 -9 9
-16 25 -14 36 4 17 5 17 23 -3 10 -11 19 -27 19 -36z m118 20 c2 -2 -9 -9 -25
-17 -15 -7 -36 -29 -45 -48 l-17 -35 0 30 c-1 17 4 47 10 68 l10 37 32 -16
c18 -9 33 -18 35 -19z m-90 -12 c-12 -42 -17 -197 -6 -180 4 7 8 26 8 42 0 17
6 40 13 53 13 22 14 22 29 5 10 -12 14 -30 11 -53 -4 -28 -12 -39 -39 -52 -18
-10 -35 -14 -37 -10 -8 18 0 180 11 205 16 39 22 34 10 -10z m1487 -81 c-17
-60 -42 -126 -55 -148 l-24 -39 24 20 23 20 -12 -23 c-8 -14 -18 -21 -27 -18
-8 3 -26 0 -41 -7 -27 -12 -27 -12 17 -18 25 -4 5 -4 -45 -2 -49 3 -94 9 -99
14 -6 6 -5 9 2 9 25 0 96 77 123 133 17 38 48 78 86 112 32 30 59 54 59 55 1
0 -13 -49 -31 -108z m2502 61 c-3 -10 -5 -2 -5 17 0 19 2 27 5 18 2 -10 2 -26
0 -35z m-3829 2 c2 -25 -3 -33 -29 -48 -35 -19 -49 -16 -30 7 10 12 9 15 -9
13 -12 -1 -20 -8 -19 -17 3 -31 -1 -32 -21 -7 -11 14 -20 28 -20 31 0 10 94
55 110 53 9 -1 16 -15 18 -32z m3573 19 c20 -18 64 -10 53 9 -4 7 -3 8 1 4 17
-15 14 -36 -3 -30 -15 6 -15 4 1 -14 18 -21 22 -83 7 -118 -5 -11 -9 -15 -9
-8 -1 7 -14 27 -29 45 -16 18 -32 47 -36 63 -4 17 -9 38 -12 48 -7 21 4 22 27
1z m-3320 -15 c5 -8 6 -22 3 -31 -3 -10 0 -18 6 -18 6 0 10 -6 7 -12 -2 -7 0
-21 4 -30 12 -22 -7 -63 -35 -76 -25 -11 -76 -5 -76 10 0 5 -4 7 -8 4 -5 -3
-8 13 -8 34 1 23 -3 38 -9 36 -5 -2 -9 -18 -8 -37 l2 -34 -14 30 c-21 46 -18
80 12 115 24 29 31 32 71 27 24 -3 48 -11 53 -18z m-216 -59 c3 -5 15 -10 26
-10 14 0 19 -7 19 -26 0 -16 4 -23 12 -18 7 5 8 3 4 -5 -9 -14 21 -51 41 -51
11 0 11 -4 3 -21 -7 -12 -18 -18 -26 -15 -8 3 -14 0 -14 -7 0 -7 -16 -19 -35
-26 -34 -12 -36 -12 -80 33 -25 26 -45 51 -45 56 0 6 -7 10 -15 10 -18 0 -20
-16 -2 -23 9 -3 7 -10 -5 -23 -17 -18 -18 -17 -18 18 0 40 17 94 26 85 4 -3
23 3 42 14 41 21 58 24 67 9z m685 -50 c0 -16 -4 -30 -10 -30 -5 0 -10 14 -10
30 0 17 5 30 10 30 6 0 10 -13 10 -30z m400 -14 c0 -2 -7 -7 -16 -10 -8 -3
-12 -2 -9 4 6 10 25 14 25 6z m1293 -93 c20 -23 20 -23 1 -23 -14 0 -24 11
-33 38 -22 60 -23 69 -5 37 9 -16 26 -40 37 -52z m1355 59 c2 -8 -9 -12 -32
-12 -41 0 -46 7 -13 20 26 10 39 8 45 -8z m-3884 -82 c-12 -96 -13 -100 -45
-100 -31 0 -35 10 -19 41 15 27 28 24 33 -8 4 -26 4 -26 6 5 1 26 -4 34 -25
42 -14 6 -31 10 -37 9 -7 0 -1 -5 12 -10 22 -9 23 -11 7 -27 -9 -10 -16 -26
-16 -36 0 -31 -25 -11 -28 23 -4 40 17 74 66 105 45 28 54 19 46 -44z m3022
44 c19 -9 45 -34 59 -58 16 -26 25 -34 25 -23 0 11 -15 34 -34 53 -19 19 -32
34 -30 34 20 0 164 -45 182 -56 17 -11 27 -12 36 -5 14 12 87 -4 97 -21 4 -7
9 -6 13 0 8 14 -18 28 -67 37 -34 7 -55 20 -45 30 8 8 107 -23 132 -41 16 -12
25 -29 26 -46 0 -26 -1 -26 -30 -16 -37 12 -72 8 -171 -22 -84 -26 -132 -23
-171 10 l-23 20 37 -15 c54 -22 88 -18 136 14 l44 29 -58 26 c-71 33 -81 29
-15 -6 l50 -25 -40 -23 c-31 -17 -49 -20 -77 -15 -49 9 -92 32 -92 50 0 8 -14
30 -31 50 -30 33 -30 35 -9 35 12 0 37 -7 56 -16z m980 -25 c14 -23 32 -39 44
-39 21 0 50 -35 50 -61 0 -13 -11 -18 -50 -21 -53 -3 -60 1 -34 23 12 10 22
10 46 1 25 -9 28 -9 18 4 -19 22 -60 17 -82 -11 -11 -14 -29 -25 -41 -25 -19
0 -17 4 13 23 32 20 33 22 13 25 -12 2 -25 12 -28 23 -4 11 -10 17 -14 14 -5
-2 -16 4 -26 15 -10 11 -21 17 -26 14 -11 -6 -49 14 -49 26 0 13 47 26 97 26
41 1 46 -2 69 -37z m-148 -22 c14 -16 4 -32 -25 -41 -21 -7 -22 -5 -12 23 12
34 21 38 37 18z m-1458 -31 c0 -18 -103 -71 -108 -56 -2 6 -2 12 -1 13 22 12
105 55 107 56 1 0 2 -5 2 -13z m1519 0 c11 -13 5 -46 -9 -46 -14 0 -42 39 -35
49 9 15 30 14 44 -3z m34 -26 c3 -11 1 -18 -3 -15 -5 3 -11 -3 -15 -14 -3 -12
-22 -23 -50 -30 -71 -18 -82 -15 -83 19 -1 24 5 33 24 41 27 10 37 7 70 -23
21 -19 21 -19 34 12 15 36 16 36 23 10z m-313 0 c0 -5 -4 -10 -9 -10 -5 0 -18
-3 -28 -6 -16 -5 -16 -4 1 10 23 18 36 20 36 6z m-1366 -40 c-5 -5 -28 -13
-52 -18 -59 -14 -51 8 9 23 47 12 58 10 43 -5z m-1764 0 c0 -5 -7 -10 -15 -10
-8 0 -15 5 -15 10 0 6 7 10 15 10 8 0 15 -4 15 -10z m1660 -20 c0 -5 -18 -10
-40 -10 -22 0 -40 5 -40 10 0 6 18 10 40 10 22 0 40 -4 40 -10z"/>
<path d="M3664 3094 c-18 -14 -18 -15 4 -4 12 6 22 13 22 15 0 8 -5 6 -26 -11z"/>
<path d="M3685 3030 c-10 -11 -16 -22 -13 -25 3 -3 13 4 23 15 10 11 16 22 13
25 -3 3 -13 -4 -23 -15z"/>
<path d="M3672 2970 c-35 -23 -39 -29 -25 -35 16 -6 15 -8 -7 -20 -16 -9 -19
-14 -9 -15 8 0 23 6 33 13 18 13 18 14 1 21 -17 6 -17 7 1 21 10 8 27 15 36
15 18 0 33 16 21 23 -5 2 -27 -8 -51 -23z"/>
<path d="M3726 2905 c-8 -8 -21 -15 -29 -15 -16 0 -87 -28 -87 -35 0 -2 19 2
43 10 23 7 54 16 68 19 14 3 26 12 26 21 0 19 -2 19 -21 0z"/>
<path d="M3686 2830 c-21 -4 -41 -11 -45 -16 -3 -6 -22 -20 -41 -32 -19 -12
-31 -22 -27 -22 13 0 85 39 92 50 3 5 23 10 43 11 20 0 46 4 57 9 17 7 15 9
-10 8 -16 0 -47 -4 -69 -8z"/>
<path d="M3740 2780 c-25 -10 -54 -21 -64 -24 -10 -4 -17 -9 -14 -11 6 -7 98
25 123 42 26 18 10 15 -45 -7z"/>
<path d="M3798 2723 c7 -3 16 -2 19 1 4 3 -2 6 -13 5 -11 0 -14 -3 -6 -6z"/>
<path d="M890 3070 c-13 -9 -13 -10 0 -10 8 0 22 5 30 10 13 9 13 10 0 10 -8
0 -22 -5 -30 -10z"/>
<path d="M873 2917 c7 -5 1 -7 -15 -4 -16 2 -32 -1 -38 -8 -7 -8 8 -9 63 -2
88 11 105 22 32 22 -30 0 -48 -3 -42 -8z"/>
<path d="M823 2849 c-58 -17 -43 -26 18 -11 46 12 63 12 68 4 5 -9 12 -8 27 3
17 13 15 14 -31 14 -27 -1 -64 -5 -82 -10z"/>
<path d="M2460 2885 c0 -17 6 -25 17 -25 13 0 14 3 6 11 -6 6 -9 18 -6 25 3 8
0 14 -6 14 -6 0 -11 -11 -11 -25z"/>
<path d="M2486 2895 c-3 -8 -1 -15 4 -15 6 0 10 7 10 15 0 8 -2 15 -4 15 -2 0
-6 -7 -10 -15z"/>
<path d="M2509 2888 c-4 -16 -3 -28 2 -28 18 0 59 20 59 29 0 13 -30 7 -40 -9
-6 -10 -9 -7 -12 11 -4 23 -4 23 -9 -3z"/>
<path d="M2413 2888 c-25 -12 -29 -23 -13 -33 6 -3 10 2 11 12 0 10 3 13 6 6
8 -21 33 -15 33 7 0 22 -5 23 -37 8z"/>
<path d="M2444 2618 c-4 -7 -9 -27 -11 -45 -3 -30 -1 -33 22 -33 22 0 25 4 25
34 0 38 -23 66 -36 44z m13 -30 c-3 -8 -6 -5 -6 6 -1 11 2 17 5 13 3 -3 4 -12
1 -19z"/>
<path d="M3078 2773 c26 -5 29 -29 5 -37 -14 -4 -14 -4 2 -3 12 1 21 11 23 25
3 19 -1 22 -25 21 -23 -2 -24 -2 -5 -6z"/>
<path d="M2180 2665 c0 -19 2 -35 4 -35 2 0 6 16 8 35 2 19 0 35 -4 35 -4 0
-8 -16 -8 -35z"/>
<path d="M2104 2556 c-11 -29 0 -59 24 -61 19 -1 22 3 22 37 0 32 -3 38 -20
38 -11 0 -23 -6 -26 -14z"/>
<path d="M3301 2574 c0 -11 3 -14 6 -6 3 7 2 16 -1 19 -3 4 -6 -2 -5 -13z"/>
<path d="M3272 2493 c-13 -5 -7 -23 9 -23 6 0 7 5 3 11 -4 8 1 9 17 4 19 -5
21 -4 9 4 -16 12 -19 12 -38 4z"/>
<path d="M873 2683 c-8 -3 -12 -21 -11 -46 l1 -42 4 38 c3 24 9 37 19 37 9 0
14 -12 15 -37 1 -26 3 -30 6 -14 5 27 -4 71 -15 70 -4 0 -13 -3 -19 -6z"/>
<path d="M920 2645 c0 -27 2 -46 4 -44 8 8 10 78 3 85 -4 4 -7 -14 -7 -41z"/>
<path d="M958 2644 c3 -24 0 -39 -9 -45 -11 -6 -8 -9 8 -9 12 0 27 -2 35 -5
10 -4 13 6 13 40 0 52 -17 55 -26 4 -6 -34 -6 -34 -8 9 0 23 -5 42 -9 42 -4 0
-6 -16 -4 -36z"/>
<path d="M1020 2616 c0 -27 -5 -46 -12 -49 -8 -2 -7 -3 2 -3 16 1 33 83 18 92
-4 3 -8 -15 -8 -40z"/>
<path d="M873 2583 c9 -2 25 -2 35 0 9 3 1 5 -18 5 -19 0 -27 -2 -17 -5z"/>
<path d="M1361 2566 c2 -2 33 -6 69 -9 41 -4 56 -3 40 3 -25 8 -117 14 -109 6z"/>
<path d="M3664 2487 c-10 -27 0 -62 19 -65 16 -3 18 2 15 34 -3 39 -24 57 -34
31z"/>
<path d="M3596 2483 c-3 -3 -6 -21 -6 -39 0 -20 -6 -37 -16 -42 -10 -5 -14
-19 -12 -36 5 -39 22 -37 26 4 2 19 10 39 18 43 8 4 14 21 14 37 0 29 -12 45
-24 33z m-19 -125 c-3 -7 -5 -2 -5 12 0 14 2 19 5 13 2 -7 2 -19 0 -25z"/>
<path d="M3750 2455 c0 -24 5 -35 15 -35 10 0 15 11 15 35 0 24 -5 35 -15 35
-10 0 -15 -11 -15 -35z"/>
<path d="M3822 2453 c3 -36 1 -43 -14 -43 -14 0 -18 -8 -18 -40 0 -22 5 -40
10 -40 6 0 10 16 10 36 0 29 3 34 18 30 15 -5 17 0 14 37 -2 23 -9 47 -14 52
-7 7 -9 -4 -6 -32z"/>
<path d="M3525 2439 c5 -29 4 -40 -4 -35 -6 4 -11 2 -11 -3 0 -6 9 -11 20 -11
17 0 20 7 20 45 0 34 -4 45 -16 45 -13 0 -15 -7 -9 -41z m12 9 c-3 -8 -6 -5
-6 6 -1 11 2 17 5 13 3 -3 4 -12 1 -19z"/>
<path d="M3722 2384 c2 -22 8 -38 13 -36 15 3 12 65 -3 70 -10 3 -13 -6 -10
-34z"/>
<path d="M3637 2403 c-7 -12 -3 -53 6 -53 4 0 12 0 17 0 6 0 10 14 10 30 0 28
-21 42 -33 23z"/>
<path d="M3610 2290 c0 -5 5 -10 10 -10 6 0 10 5 10 10 0 6 -4 10 -10 10 -5 0
-10 -4 -10 -10z"/>
<path d="M3820 2270 c0 -5 5 -10 10 -10 6 0 10 5 10 10 0 6 -4 10 -10 10 -5 0
-10 -4 -10 -10z"/>
<path d="M1448 2410 c-3 -36 -1 -40 17 -38 16 2 20 10 20 38 0 24 -5 36 -16
38 -13 2 -18 -6 -21 -38z m32 0 c0 -11 -4 -20 -10 -20 -5 0 -10 9 -10 20 0 11
5 20 10 20 6 0 10 -9 10 -20z"/>
<path d="M2350 2384 c0 -26 4 -34 18 -33 10 0 12 3 5 6 -18 7 -16 43 1 43 8 0
17 -12 19 -27 4 -27 4 -27 6 3 1 26 -3 32 -24 36 -23 5 -25 2 -25 -28z"/>
<path d="M1605 2250 c-3 -5 -2 -10 4 -10 5 0 13 5 16 10 3 6 2 10 -4 10 -5 0
-13 -4 -16 -10z"/>
<path d="M1595 2220 c-7 -12 2 -12 30 0 19 8 19 9 -2 9 -12 1 -25 -3 -28 -9z"/>
<path d="M2222 2293 c-5 -10 -8 -23 -5 -29 2 -6 -3 -11 -12 -11 -8 0 -15 3
-15 7 0 4 -12 5 -27 2 l-28 -6 25 -7 c24 -7 24 -7 -5 -9 -26 -1 -27 -3 -10
-10 18 -8 18 -9 -5 -9 -19 -1 -22 -4 -11 -10 10 -7 25 -1 50 17 29 23 34 24
28 8 -5 -12 -3 -22 5 -27 7 -5 11 -26 9 -56 -2 -48 -2 -49 28 -51 28 -2 31 1
30 25 0 28 -16 75 -20 61 -5 -22 -5 -34 2 -43 4 -6 4 -17 -1 -25 -6 -8 -10
-13 -10 -10 -1 3 -3 22 -6 42 -4 26 -1 42 9 53 13 13 16 13 21 -2 4 -9 9 -13
12 -10 7 7 -20 60 -40 76 -8 7 -12 19 -9 27 7 20 -5 17 -15 -3z m33 -43 c4 -6
3 -10 -2 -9 -20 3 -25 -2 -13 -16 13 -16 10 -18 -14 -9 -12 5 -13 10 -5 25 11
21 24 24 34 9z"/>
<path d="M3132 2205 c0 -16 2 -22 5 -12 2 9 2 23 0 30 -3 6 -5 -1 -5 -18z"/>
<path d="M3100 2156 c0 -2 11 -6 25 -8 13 -3 22 -1 19 3 -5 9 -44 13 -44 5z"/>
<path d="M1441 2174 c0 -11 3 -14 6 -6 3 7 2 16 -1 19 -3 4 -6 -2 -5 -13z"/>
<path d="M1392 2110 c0 -14 2 -19 5 -12 2 6 2 18 0 25 -3 6 -5 1 -5 -13z"/>
<path d="M1972 2114 c10 -10 20 -15 24 -12 3 4 -5 12 -18 18 -22 12 -22 12 -6
-6z"/>
<path d="M3607 2213 c-14 -13 -7 -63 8 -63 10 0 15 11 15 35 0 33 -8 43 -23
28z"/>
<path d="M2586 2058 c-13 -51 -8 -68 22 -68 28 0 28 1 23 42 -7 49 -34 65 -45
26z m33 -25 c-1 -38 -1 -38 -9 -8 l-8 30 -2 -30 c-2 -25 -3 -26 -7 -7 -4 20
11 52 23 52 2 0 3 -17 3 -37z"/>
<path d="M2931 2201 c-10 -6 -10 -10 -1 -16 13 -8 24 -1 19 14 -3 6 -10 7 -18
2z"/>
<path d="M2800 2130 c0 -5 5 -10 10 -10 6 0 10 5 10 10 0 6 -4 10 -10 10 -5 0
-10 -4 -10 -10z"/>
<path d="M2798 2103 c7 -3 16 -2 19 1 4 3 -2 6 -13 5 -11 0 -14 -3 -6 -6z"/>
<path d="M1647 1979 c4 -13 8 -18 11 -10 2 7 -1 18 -6 23 -8 8 -9 4 -5 -13z"/>
<path d="M1427 1963 c-4 -3 -7 -19 -7 -35 0 -36 -18 -37 -22 -1 -4 36 -34 43
-40 9 -3 -14 -2 -29 1 -35 4 -5 53 -10 114 -10 99 -1 107 1 107 18 0 11 3 26
6 35 4 11 0 16 -14 16 -14 0 -21 -9 -25 -30 -8 -38 -27 -39 -27 -2 0 35 -6 41
-31 35 -13 -4 -19 -14 -19 -35 0 -16 -4 -27 -9 -24 -5 3 -7 14 -4 24 5 19 -19
47 -30 35z m-37 -44 c0 -10 -4 -19 -10 -19 -5 0 -10 12 -10 26 0 14 4 23 10
19 6 -3 10 -15 10 -26z m47 -6 c-3 -10 -5 -4 -5 12 0 17 2 24 5 18 2 -7 2 -21
0 -30z m64 22 c7 18 8 17 8 -6 1 -16 -4 -26 -14 -26 -10 0 -15 9 -14 26 1 21
2 22 7 6 5 -20 5 -20 13 0z m69 -10 c0 -14 -4 -25 -9 -25 -4 0 -6 11 -3 25 2
14 6 25 8 25 2 0 4 -11 4 -25z"/>
<path d="M3810 1984 c0 -14 4 -23 10 -19 6 3 10 15 10 26 0 10 -4 19 -10 19
-5 0 -10 -12 -10 -26z"/>
<path d="M3806 1918 c-9 -12 -16 -29 -16 -38 0 -8 9 0 21 19 23 38 19 54 -5
19z"/>
<path d="M3555 1890 c-3 -5 1 -10 9 -10 8 0 18 5 21 10 3 6 -1 10 -9 10 -8 0
-18 -4 -21 -10z"/>
<path d="M3590 1816 c0 -21 6 -36 15 -40 12 -4 15 3 15 34 0 29 -4 40 -15 40
-10 0 -15 -10 -15 -34z"/>
<path d="M3440 1817 c0 -39 11 -66 25 -60 21 7 14 76 -8 79 -12 1 -17 -5 -17
-19z"/>
<path d="M1000 1985 c-13 -14 -21 -27 -18 -30 2 -3 15 6 28 20 13 14 21 27 18
30 -2 3 -15 -6 -28 -20z"/>
<path d="M3240 1866 c0 -17 5 -26 16 -26 10 0 14 7 12 22 -5 32 -28 35 -28 4z"/>
<path d="M2245 1958 c-2 -7 -6 -24 -8 -38 -4 -20 -5 -19 -6 8 -1 25 -5 32 -21
32 -16 0 -20 -7 -20 -35 l0 -35 51 0 50 0 -3 37 c-2 27 -8 39 -21 41 -9 2 -19
-2 -22 -10z m35 -34 c0 -13 -4 -24 -10 -24 -5 0 -10 14 -10 31 0 17 4 28 10
24 6 -3 10 -17 10 -31z m-60 1 c0 -14 -4 -25 -10 -25 -5 0 -10 11 -10 25 0 14
5 25 10 25 6 0 10 -11 10 -25z"/>
<path d="M360 1630 c0 -5 5 -10 10 -10 6 0 10 5 10 10 0 6 -4 10 -10 10 -5 0
-10 -4 -10 -10z"/>
<path d="M401 1607 c-1 -10 10 -22 23 -27 22 -8 24 -13 19 -46 -4 -27 -3 -35
5 -30 7 4 12 23 12 42 0 27 -5 36 -24 44 -13 5 -26 15 -29 22 -4 8 -6 7 -6 -5z"/>
<path d="M530 1196 c0 -7 7 -19 15 -26 17 -14 20 -50 5 -50 -5 0 -10 -5 -10
-12 0 -7 10 -3 21 9 l22 21 -22 36 c-24 39 -31 44 -31 22z"/>
<path d="M1178 1883 c7 -3 16 -2 19 1 4 3 -2 6 -13 5 -11 0 -14 -3 -6 -6z"/>
<path d="M1238 1853 c7 -3 16 -2 19 1 4 3 -2 6 -13 5 -11 0 -14 -3 -6 -6z"/>
<path d="M831 1693 c-6 -21 -11 -50 -11 -65 0 -26 3 -28 40 -28 l40 0 0 53 c0
55 -12 77 -42 77 -11 0 -21 -12 -27 -37z m49 8 c13 -25 13 -91 0 -91 -5 0 -10
20 -10 45 0 25 -3 45 -8 45 -4 0 -6 -20 -4 -45 3 -28 0 -45 -7 -45 -12 0 -16
92 -4 103 11 12 22 8 33 -12z"/>
<path d="M737 1654 c-4 -4 -7 -29 -7 -56 0 -39 3 -48 18 -48 14 0 17 8 14 48
-4 48 -13 68 -25 56z m10 -76 c-2 -13 -4 -3 -4 22 0 25 2 35 4 23 2 -13 2 -33
0 -45z"/>
<path d="M837 1463 c-3 -5 -7 -33 -8 -63 l-4 -55 33 -3 32 -3 0 50 c0 27 -3
56 -6 65 -6 16 -39 22 -47 9z m38 -13 c3 -5 -3 -10 -15 -10 -12 0 -18 5 -15
10 3 6 10 10 15 10 5 0 12 -4 15 -10z m-15 -60 c0 -22 -4 -40 -10 -40 -5 0
-10 18 -10 40 0 22 5 40 10 40 6 0 10 -18 10 -40z m17 -12 c-2 -13 -4 -5 -4
17 -1 22 1 32 4 23 2 -10 2 -28 0 -40z"/>
<path d="M767 1193 c-2 -5 -7 -25 -11 -45 -6 -34 -5 -38 14 -38 17 0 20 6 20
39 0 37 -13 61 -23 44z m10 -60 c-3 -10 -5 -2 -5 17 0 19 2 27 5 18 2 -10 2
-26 0 -35z"/>
<path d="M2396 1320 c8 -43 14 -51 14 -19 0 13 -5 31 -10 39 -7 11 -8 5 -4
-20z"/>
<path d="M1430 1745 c0 -16 6 -25 15 -25 9 0 15 9 15 25 0 16 -6 25 -15 25 -9
0 -15 -9 -15 -25z m17 -7 c-3 -8 -6 -5 -6 6 -1 11 2 17 5 13 3 -3 4 -12 1 -19z"/>
<path d="M1470 1500 c0 -20 5 -30 15 -30 10 0 15 10 15 30 0 20 -5 30 -15 30
-10 0 -15 -10 -15 -30z m17 -12 c-3 -7 -5 -2 -5 12 0 14 2 19 5 13 2 -7 2 -19
0 -25z"/>
<path d="M1430 1360 c0 -38 4 -50 15 -50 21 0 28 23 21 65 -11 56 -36 46 -36
-15z m17 -17 c-3 -10 -5 -4 -5 12 0 17 2 24 5 18 2 -7 2 -21 0 -30z"/>
<path d="M1466 1203 c-12 -13 -6 -53 9 -53 9 0 15 9 15 24 0 26 -12 40 -24 29z
m11 -35 c-3 -8 -6 -5 -6 6 -1 11 2 17 5 13 3 -3 4 -12 1 -19z"/>
<path d="M1423 1003 c-7 -2 -13 -16 -13 -29 0 -16 -6 -24 -17 -24 -15 0 -16
-2 -3 -10 23 -15 30 -12 30 14 0 29 17 43 33 27 9 -9 8 -11 -5 -6 -10 4 -18 3
-18 -2 0 -5 6 -10 13 -10 6 0 21 -4 31 -8 17 -7 16 -5 -4 23 -24 33 -26 34
-47 25z"/>
<path d="M1343 696 c9 -7 17 -21 17 -31 0 -15 3 -15 15 -5 13 11 18 10 30 -6
17 -22 20 -11 4 17 -6 11 -17 18 -24 15 -7 -2 -19 2 -25 10 -7 8 -18 14 -24
14 -6 0 -3 -7 7 -14z"/>
<path d="M1306 651 c-3 -4 6 -13 20 -20 31 -14 37 -14 29 -1 -10 16 -43 31
-49 21z"/>
<path d="M938 590 c12 -5 22 -16 22 -25 0 -8 4 -15 9 -15 5 0 17 -19 27 -43
15 -37 21 -43 41 -39 33 6 39 21 7 19 -21 -2 -28 5 -42 37 -19 47 -46 76 -69
75 -14 0 -13 -2 5 -9z"/>
<path d="M1181 508 c0 -9 -10 -20 -21 -23 -24 -8 -25 -15 -4 -41 15 -18 15
-18 10 0 -4 11 0 23 10 30 9 7 14 21 11 32 -4 15 -5 15 -6 2z"/>
<path d="M1972 1748 c2 -22 9 -34 21 -36 14 -3 17 4 17 32 0 30 -4 36 -21 36
-17 0 -20 -5 -17 -32z"/>
<path d="M1905 1570 c3 -5 12 -7 20 -3 21 7 19 13 -6 13 -11 0 -18 -4 -14 -10z"/>
<path d="M2148 1543 c7 -3 16 -2 19 1 4 3 -2 6 -13 5 -11 0 -14 -3 -6 -6z"/>
<path d="M2135 1521 c-3 -5 -1 -12 5 -16 12 -7 30 2 30 16 0 12 -27 12 -35 0z"/>
<path d="M3388 1613 c7 -3 16 -2 19 1 4 3 -2 6 -13 5 -11 0 -14 -3 -6 -6z"/>
<path d="M1798 1633 c6 -2 18 -2 25 0 6 3 1 5 -13 5 -14 0 -19 -2 -12 -5z"/>
<path d="M3577 1572 c-13 -3 -16 -10 -11 -30 9 -35 12 -38 25 -25 17 17 7 59
-14 55z m10 -34 c-3 -8 -6 -5 -6 6 -1 11 2 17 5 13 3 -3 4 -12 1 -19z"/>
<path d="M3650 1555 c0 -16 6 -25 15 -25 9 0 15 9 15 25 0 16 -6 25 -15 25 -9
0 -15 -9 -15 -25z"/>
<path d="M3740 1555 c0 -16 6 -25 15 -25 9 0 15 9 15 25 0 16 -6 25 -15 25 -9
0 -15 -9 -15 -25z"/>
<path d="M3826 1564 c-10 -26 -7 -34 14 -34 15 0 20 7 20 25 0 28 -24 34 -34
9z"/>
<path d="M3910 1545 c0 -14 4 -25 9 -25 5 0 11 11 13 25 4 17 1 25 -8 25 -8 0
-14 -11 -14 -25z"/>
<path d="M2591 1524 c0 -11 3 -14 6 -6 3 7 2 16 -1 19 -3 4 -6 -2 -5 -13z"/>
<path d="M3000 1528 c0 -4 7 -8 15 -8 8 0 15 4 15 8 0 5 -7 9 -15 9 -8 0 -15
-4 -15 -9z"/>
<path d="M3095 1530 c3 -5 8 -10 11 -10 2 0 4 5 4 10 0 6 -5 10 -11 10 -5 0
-7 -4 -4 -10z"/>
<path d="M3130 1530 c0 -5 5 -10 10 -10 6 0 10 5 10 10 0 6 -4 10 -10 10 -5 0
-10 -4 -10 -10z"/>
<path d="M3280 1530 c0 -5 9 -10 20 -10 11 0 20 5 20 10 0 6 -9 10 -20 10 -11
0 -20 -4 -20 -10z"/>
<path d="M3385 1530 c-3 -5 1 -10 9 -10 9 0 16 5 16 10 0 6 -4 10 -9 10 -6 0
-13 -4 -16 -10z"/>
<path d="M3460 1529 c0 -5 5 -7 10 -4 6 3 10 8 10 11 0 2 -4 4 -10 4 -5 0 -10
-5 -10 -11z"/>
<path d="M3030 1455 c0 -19 9 -19 34 0 19 14 19 15 -7 15 -17 0 -27 -5 -27
-15z"/>
<path d="M3120 1455 c0 -8 9 -15 20 -15 13 0 18 5 14 15 -4 8 -12 15 -20 15
-8 0 -14 -7 -14 -15z"/>
<path d="M3383 1463 c-20 -7 -15 -19 7 -20 11 -1 20 2 20 7 0 12 -13 18 -27
13z"/>
<path d="M3435 1460 c-3 -5 -1 -10 4 -10 6 0 11 5 11 10 0 6 -2 10 -4 10 -3 0
-8 -4 -11 -10z"/>
<path d="M2950 1444 c0 -8 5 -12 10 -9 6 4 8 11 5 16 -9 14 -15 11 -15 -7z"/>
<path d="M2985 1450 c-3 -5 1 -10 9 -10 9 0 16 5 16 10 0 6 -4 10 -9 10 -6 0
-13 -4 -16 -10z"/>
<path d="M3210 1450 c0 -5 5 -10 10 -10 6 0 10 5 10 10 0 6 -4 10 -10 10 -5 0
-10 -4 -10 -10z"/>
<path d="M3270 1450 c0 -5 5 -10 10 -10 6 0 10 5 10 10 0 6 -4 10 -10 10 -5 0
-10 -4 -10 -10z"/>
<path d="M3320 1450 c0 -5 5 -10 10 -10 6 0 10 5 10 10 0 6 -4 10 -10 10 -5 0
-10 -4 -10 -10z"/>
<path d="M3500 1450 c0 -5 5 -10 10 -10 6 0 10 5 10 10 0 6 -4 10 -10 10 -5 0
-10 -4 -10 -10z"/>
<path d="M2930 1390 c0 -23 4 -30 20 -30 16 0 20 7 20 30 0 23 -4 30 -20 30
-16 0 -20 -7 -20 -30z"/>
<path d="M3004 1405 c-9 -21 3 -45 21 -45 10 0 15 10 15 30 0 32 -26 43 -36
15z"/>
<path d="M3072 1393 c4 -36 33 -39 33 -3 0 16 -6 26 -18 28 -15 3 -18 -2 -15
-25z"/>
<path d="M3150 1390 c0 -22 4 -28 15 -24 8 4 15 17 15 30 0 15 -6 24 -15 24
-10 0 -15 -10 -15 -30z m17 -2 c-3 -8 -6 -5 -6 6 -1 11 2 17 5 13 3 -3 4 -12
1 -19z"/>
<path d="M3232 1393 c2 -17 10 -29 21 -31 13 -3 17 3 17 27 0 25 -4 31 -21 31
-16 0 -20 -5 -17 -27z m25 -15 c-3 -7 -5 -2 -5 12 0 14 2 19 5 13 2 -7 2 -19
0 -25z"/>
<path d="M3320 1395 c0 -20 5 -25 25 -25 20 0 25 5 25 25 0 20 -5 25 -25 25
-20 0 -25 -5 -25 -25z m27 -7 c-3 -8 -6 -5 -6 6 -1 11 2 17 5 13 3 -3 4 -12 1
-19z"/>
<path d="M3420 1395 c0 -18 5 -25 20 -25 15 0 20 7 20 25 0 18 -5 25 -20 25
-15 0 -20 -7 -20 -25z"/>
<path d="M3460 1255 c0 -18 5 -25 20 -25 15 0 20 7 20 25 0 18 -5 25 -20 25
-15 0 -20 -7 -20 -25z m27 -7 c-3 -8 -6 -5 -6 6 -1 11 2 17 5 13 3 -3 4 -12 1
-19z"/>
<path d="M2932 1233 c2 -10 13 -19 26 -21 17 -3 22 2 22 17 0 16 -6 21 -26 21
-19 0 -25 -5 -22 -17z m35 1 c-3 -3 -12 -4 -19 -1 -8 3 -5 6 6 6 11 1 17 -2
13 -5z"/>
<path d="M3652 1228 c-7 -7 -12 -31 -12 -55 0 -41 1 -43 30 -43 29 0 30 2 30
43 0 38 -13 67 -30 67 -3 0 -11 -5 -18 -12z m35 -54 l1 -39 -8 35 -7 35 -2
-32 c-1 -43 -21 -43 -21 0 0 62 34 63 37 1z"/>
<path d="M3388 1193 c-24 -6 -23 -23 2 -23 11 0 20 7 20 15 0 8 -1 14 -2 14
-2 -1 -11 -3 -20 -6z"/>
<path d="M3217 1152 c-12 -13 -17 -36 -17 -75 l0 -57 35 0 35 0 0 58 c0 44 -5
63 -18 76 -18 15 -20 15 -35 -2z m41 -71 l-2 -56 -3 50 c-6 68 -18 77 -17 12
1 -43 0 -45 -3 -9 -2 23 -9 42 -15 42 -7 0 -6 5 2 14 24 29 40 7 38 -53z m-41
-18 c-3 -10 -5 -2 -5 17 0 19 2 27 5 18 2 -10 2 -26 0 -35z"/>
<path d="M2991 1113 c-6 -21 -11 -50 -11 -65 0 -26 3 -28 40 -28 22 0 40 5 40
11 0 5 -3 8 -7 6 -5 -3 -6 15 -4 39 5 75 -40 103 -58 37z m16 -60 c-2 -16 -4
-3 -4 27 0 30 2 43 4 28 2 -16 2 -40 0 -55z m26 20 c-7 -54 -13 -54 -13 1 0
26 4 45 9 42 5 -3 7 -23 4 -43z"/>
<path d="M3767 1083 c-4 -3 -7 -24 -7 -45 0 -27 4 -38 15 -38 11 0 15 12 15
45 0 42 -7 54 -23 38z"/>
<path d="M3467 990 c4 -15 0 -20 -16 -20 -11 0 -21 -4 -21 -10 0 -5 9 -10 20
-10 11 0 20 5 20 10 0 14 27 12 33 -2 4 -10 7 -10 18 0 11 10 10 12 -4 12 -15
0 -22 11 -18 33 0 4 -8 7 -18 7 -14 0 -18 -5 -14 -20z"/>
<path d="M3230 949 c-12 -22 -1 -38 27 -39 6 0 13 -5 15 -11 2 -6 11 -10 20
-8 14 3 14 9 4 39 -14 43 -48 53 -66 19z m47 -1 c13 -22 13 -42 0 -29 -6 6
-20 11 -30 11 -16 0 -17 3 -7 15 15 18 26 19 37 3z"/>
<path d="M3770 895 c0 -25 5 -45 10 -45 6 0 10 20 10 45 0 25 -4 45 -10 45 -5
0 -10 -20 -10 -45z"/>
<path d="M3310 645 c0 -2 11 -12 25 -21 20 -13 28 -14 40 -4 22 18 18 32 -5
18 -15 -10 -22 -10 -32 0 -12 12 -28 16 -28 7z"/>
<path d="M3201 604 c0 -11 3 -14 6 -6 3 7 2 16 -1 19 -3 4 -6 -2 -5 -13z"/>
<path d="M3825 392 c-22 -2 -44 -7 -49 -12 -8 -8 93 -2 102 5 8 7 -17 10 -53
7z"/>
<path d="M3933 223 c9 -2 23 -2 30 0 6 3 -1 5 -18 5 -16 0 -22 -2 -12 -5z"/>
<path d="M2786 1434 c-3 -9 -6 -29 -6 -45 0 -24 4 -29 25 -29 22 0 25 4 25 33
0 47 -31 75 -44 41z m11 -51 c-3 -10 -5 -2 -5 17 0 19 2 27 5 18 2 -10 2 -26
0 -35z m20 5 c-3 -7 -5 -2 -5 12 0 14 2 19 5 13 2 -7 2 -19 0 -25z"/>
<path d="M2720 1060 c0 -5 4 -10 9 -10 6 0 13 5 16 10 3 6 -1 10 -9 10 -9 0
-16 -4 -16 -10z"/>
<path d="M2770 1040 c0 -5 7 -10 16 -10 8 0 12 5 9 10 -3 6 -10 10 -16 10 -5
0 -9 -4 -9 -10z"/>
<path d="M2750 999 c0 -5 5 -7 10 -4 6 3 10 8 10 11 0 2 -4 4 -10 4 -5 0 -10
-5 -10 -11z"/>
<path d="M1696 1323 c-3 -3 -6 -21 -6 -40 0 -23 5 -33 15 -33 10 0 15 10 15
34 0 34 -11 52 -24 39z m11 -50 c-3 -10 -5 -4 -5 12 0 17 2 24 5 18 2 -7 2
-21 0 -30z"/>
<path d="M2530 1373 c0 -15 2 -16 10 -3 8 13 10 12 10 -3 0 -10 4 -16 10 -12
13 8 1 35 -16 35 -8 0 -14 -8 -14 -17z"/>
<path d="M2550 1310 c0 -5 5 -10 10 -10 6 0 10 5 10 10 0 6 -4 10 -10 10 -5 0
-10 -4 -10 -10z"/>
<path d="M2540 1140 c0 -5 5 -10 10 -10 6 0 10 5 10 10 0 6 -4 10 -10 10 -5 0
-10 -4 -10 -10z"/>
<path d="M2524 1069 c-6 -11 19 -22 40 -17 11 2 9 6 -9 15 -15 6 -27 7 -31 2z"/>
<path d="M2852 748 c4 -27 31 -35 49 -15 10 10 25 11 63 5 54 -8 66 -4 48 14
-9 9 -12 9 -12 -1 0 -10 -4 -11 -13 -3 -13 11 -63 9 -105 -4 -18 -5 -21 -3
-16 10 3 9 1 16 -6 16 -6 0 -10 -10 -8 -22z"/>
<path d="M2766 714 c-18 -17 -21 -34 -7 -34 5 0 11 10 14 21 4 16 11 20 26 16
12 -3 21 -1 21 4 0 15 -37 10 -54 -7z"/>
<path d="M3010 569 c0 -5 5 -7 10 -4 6 3 10 8 10 11 0 2 -4 4 -10 4 -5 0 -10
-5 -10 -11z"/>
<path d="M1150 1200 c0 -5 9 -10 20 -10 11 0 20 5 20 10 0 6 -9 10 -20 10 -11
0 -20 -4 -20 -10z"/>
<path d="M1071 1071 c-8 -5 -16 -32 -19 -65 l-4 -56 36 0 36 0 0 46 c0 44 -13
84 -28 84 -4 0 -13 -4 -21 -9z m35 -35 c3 -13 4 -35 1 -47 -3 -16 -5 -12 -6
14 0 20 -5 37 -11 37 -5 0 -10 5 -10 10 0 20 20 9 26 -14z m-39 -58 c-2 -13
-4 -3 -4 22 0 25 2 35 4 23 2 -13 2 -33 0 -45z m20 -5 c-3 -10 -5 -4 -5 12 0
17 2 24 5 18 2 -7 2 -21 0 -30z"/>
<path d="M1210 1051 c-5 -11 -10 -38 -10 -60 0 -39 2 -41 30 -41 29 0 30 2 30
44 0 24 -3 51 -6 60 -8 22 -31 20 -44 -3z m38 -49 l-1 -47 -6 50 c-5 41 -8 46
-14 28 -5 -13 -6 -26 -4 -30 3 -5 1 -17 -4 -28 -6 -16 -8 -14 -8 13 -1 38 16
75 30 67 5 -4 8 -27 7 -53z"/>
<path d="M1060 254 c104 -16 132 -16 65 1 -27 7 -72 13 -100 13 -43 0 -38 -2
35 -14z"/>
<path d="M965 210 c-41 -21 -34 -20 60 5 47 13 48 13 15 14 -19 0 -53 -8 -75
-19z"/>
<path d="M4036 1275 c-16 -12 -17 -15 -4 -15 8 0 21 7 28 15 16 19 1 19 -24 0z"/>
<path d="M4225 1240 c3 -5 8 -10 11 -10 2 0 4 5 4 10 0 6 -5 10 -11 10 -5 0
-7 -4 -4 -10z"/>
<path d="M3963 1228 c-12 -16 -24 -48 -18 -48 2 0 11 14 20 30 16 31 15 40 -2
18z"/>
<path d="M2402 1180 c0 -14 2 -19 5 -12 2 6 2 18 0 25 -3 6 -5 1 -5 -13z"/>
<path d="M2258 1203 c7 -3 16 -2 19 1 4 3 -2 6 -13 5 -11 0 -14 -3 -6 -6z"/>
<path d="M2540 926 c0 -3 9 -20 19 -38 11 -18 27 -67 37 -108 27 -123 102
-225 221 -300 79 -50 143 -68 345 -95 166 -23 237 -37 307 -63 9 -3 12 -1 7 6
-9 16 -95 40 -181 51 -393 52 -434 65 -556 178 -70 66 -113 137 -129 218 -13
66 -42 139 -59 149 -6 4 -11 5 -11 2z"/>
<path d="M2680 660 c0 -4 27 -33 60 -63 75 -70 217 -143 292 -151 93 -10 197
-12 192 -4 -3 4 -42 8 -87 8 -46 0 -110 7 -142 15 -80 21 -197 88 -262 152
-29 28 -53 48 -53 43z"/>
<path d="M2971 386 c2 -2 31 -6 64 -9 39 -4 50 -3 30 2 -31 9 -102 14 -94 7z"/>
<path d="M2481 1094 c0 -11 3 -14 6 -6 3 7 2 16 -1 19 -3 4 -6 -2 -5 -13z"/>
<path d="M360 982 c0 -5 7 -16 16 -23 14 -12 16 -11 13 5 -4 20 -29 35 -29 18z"/>
<path d="M2007 1043 c-19 -22 -107 -184 -107 -198 0 -5 21 28 46 75 25 47 51
92 58 100 30 35 33 55 3 23z"/>
<path d="M1862 753 c-16 -43 -57 -163 -91 -268 -34 -104 -64 -197 -67 -205 -3
-10 -2 -11 4 -5 5 6 40 104 78 220 37 116 78 237 91 269 13 33 21 61 19 63 -2
3 -17 -31 -34 -74z"/>
<path d="M261 1022 c-17 -31 -13 -40 5 -14 9 13 14 26 11 29 -3 2 -10 -4 -16
-15z"/>
<path d="M3925 700 c-12 -13 -14 -20 -5 -20 7 0 10 -8 7 -20 -3 -11 -1 -20 5
-20 6 0 8 13 6 30 -2 16 0 31 6 33 6 3 8 7 5 11 -3 3 -14 -3 -24 -14z"/>
<path d="M4058 539 c-29 -17 -20 -28 12 -16 30 11 41 27 18 27 -7 0 -21 -5
-30 -11z"/>
<path d="M500 899 c0 -5 5 -7 10 -4 6 3 10 8 10 11 0 2 -4 4 -10 4 -5 0 -10
-5 -10 -11z"/>
<path d="M2785 378 c31 -28 65 -68 76 -89 33 -67 83 -78 164 -37 33 17 62 24
85 22 l35 -3 -34 11 c-30 10 -39 9 -85 -16 -70 -38 -113 -34 -141 14 -22 37
-132 150 -147 150 -5 0 16 -23 47 -52z"/>
<path d="M2899 363 c6 -12 11 -32 11 -45 0 -28 26 -68 44 -68 16 0 110 60 103
66 -2 3 -22 -7 -43 -21 -53 -36 -75 -30 -91 24 -7 25 -18 50 -24 55 -9 8 -9 5
0 -11z"/>
<path d="M2950 328 c-12 -22 -12 -22 6 -6 10 10 15 20 12 24 -4 3 -12 -5 -18
-18z"/>
<path d="M575 390 c3 -5 11 -10 16 -10 6 0 7 5 4 10 -3 6 -11 10 -16 10 -6 0
-7 -4 -4 -10z"/>
<path d="M300 405 c-10 -12 -10 -15 4 -15 9 0 16 7 16 15 0 8 -2 15 -4 15 -2
0 -9 -7 -16 -15z"/>
<path d="M3640 240 c-9 -6 -10 -10 -3 -10 6 0 15 5 18 10 8 12 4 12 -15 0z"/>
<path d="M4105 190 c49 -25 57 -25 25 0 -14 11 -34 20 -45 20 -12 0 -5 -7 20
-20z"/>
<path d="M3540 3315 c-24 -13 -24 -14 -4 -15 12 0 27 7 34 15 16 19 3 19 -30
0z"/>
<path d="M2642 2630 c0 -14 2 -19 5 -12 2 6 2 18 0 25 -3 6 -5 1 -5 -13z"/>
<path d="M2660 2630 c0 -11 2 -20 4 -20 2 0 6 9 9 20 3 11 1 20 -4 20 -5 0 -9
-9 -9 -20z"/>
<path d="M2738 2625 c-3 -14 -1 -25 3 -25 5 0 9 11 9 25 0 14 -2 25 -4 25 -2
0 -6 -11 -8 -25z"/>
<path d="M2880 2575 c0 -24 5 -35 15 -35 10 0 15 11 15 35 0 24 -5 35 -15 35
-10 0 -15 -11 -15 -35z m17 -17 c-3 -7 -5 -2 -5 12 0 14 2 19 5 13 2 -7 2 -19
0 -25z"/>
<path d="M807 2524 c-10 -10 -9 -52 1 -58 15 -9 34 11 30 34 -3 24 -19 36 -31
24z"/>
<path d="M902 2489 c2 -18 9 -34 16 -37 10 -3 13 5 10 29 -2 18 -9 34 -16 37
-10 3 -13 -5 -10 -29z"/>
<path d="M300 2492 c-60 -23 -70 -30 -80 -58 -5 -13 -17 -24 -25 -24 -9 0 -13
-4 -10 -10 12 -19 31 -10 46 22 8 17 21 35 29 38 8 4 25 12 37 18 28 15 102
15 138 2 14 -5 39 -24 56 -42 16 -18 29 -27 29 -21 0 19 -68 71 -107 82 -48
14 -58 13 -113 -7z"/>
<path d="M2830 2445 c0 -8 7 -15 15 -15 9 0 12 6 9 15 -4 8 -10 15 -15 15 -5
0 -9 -7 -9 -15z"/>
<path d="M3396 2452 c-4 -6 -2 -21 4 -32 7 -12 7 -20 1 -20 -6 0 -9 -25 -7
-60 2 -32 -1 -57 -6 -54 -4 3 -8 0 -8 -5 0 -6 7 -11 15 -11 8 0 15 9 15 20 0
13 7 20 19 20 10 0 21 -9 24 -20 5 -20 27 -28 27 -10 0 6 -4 10 -10 10 -5 0
-10 5 -10 11 0 5 4 8 9 4 5 -3 12 -1 16 4 3 5 -15 13 -40 16 -47 8 -54 19 -35
56 12 22 -1 91 -14 71z"/>
<path d="M2796 2425 c-7 -19 80 -33 97 -15 9 9 4 10 -24 5 -26 -5 -40 -2 -51
9 -14 13 -17 13 -22 1z"/>
<path d="M2870 2316 c0 -30 4 -36 21 -36 17 0 20 5 17 32 -2 22 -9 34 -20 36
-15 3 -18 -4 -18 -32z m30 -1 c0 -14 -4 -25 -10 -25 -5 0 -10 11 -10 25 0 14
5 25 10 25 6 0 10 -11 10 -25z"/>
<path d="M3022 2320 c0 -14 2 -19 5 -12 2 6 2 18 0 25 -3 6 -5 1 -5 -13z"/>
<path d="M3001 2314 c0 -11 3 -14 6 -6 3 7 2 16 -1 19 -3 4 -6 -2 -5 -13z"/>
<path d="M4132 2305 c-17 -8 -44 -26 -57 -41 -22 -24 -32 -27 -76 -25 -34 2
-58 -3 -75 -14 -14 -9 -23 -19 -21 -22 3 -2 17 3 31 12 20 14 38 16 76 11 43
-6 50 -4 60 14 39 72 170 84 229 21 25 -27 81 -47 81 -30 0 5 -10 9 -23 9 -13
0 -34 12 -48 26 -47 51 -114 66 -177 39z"/>
<path d="M3303 2243 c9 -2 23 -2 30 0 6 3 -1 5 -18 5 -16 0 -22 -2 -12 -5z"/>
<path d="M3240 2220 c0 -5 5 -10 10 -10 6 0 10 5 10 10 0 6 -4 10 -10 10 -5 0
-10 -4 -10 -10z"/>
<path d="M640 2152 c0 -15 -5 -33 -11 -39 -7 -7 -7 -13 0 -17 5 -4 14 11 19
36 l9 43 8 -52 c8 -59 35 -76 35 -23 0 20 -5 30 -15 30 -9 0 -15 9 -15 25 0
16 -6 25 -15 25 -10 0 -15 -10 -15 -28z m47 -54 c-3 -8 -6 -5 -6 6 -1 11 2 17
5 13 3 -3 4 -12 1 -19z"/>
<path d="M860 2115 c0 -25 4 -35 13 -32 6 2 12 16 12 32 0 16 -6 30 -12 33 -9
2 -13 -8 -13 -33z"/>
<path d="M780 2115 c0 -14 5 -25 10 -25 6 0 10 11 10 25 0 14 -4 25 -10 25 -5
0 -10 -11 -10 -25z"/>
<path d="M974 2105 c-1 -14 2 -25 7 -25 5 0 9 11 9 25 0 33 -15 33 -16 0z"/>
<path d="M90 2070 c0 -5 5 -10 10 -10 6 0 10 5 10 10 0 6 -4 10 -10 10 -5 0
-10 -4 -10 -10z"/>
<path d="M4266 1820 c-27 -11 -63 -32 -80 -48 -17 -16 -45 -34 -63 -41 -17 -7
-39 -21 -49 -32 -9 -10 -30 -19 -45 -19 -15 0 -31 -5 -35 -11 -11 -19 57 1 96
27 19 13 40 24 47 24 6 0 32 18 58 40 51 44 130 72 177 63 22 -4 29 -3 24 5
-11 18 -75 14 -130 -8z"/>
<path d="M4380 1656 c7 -19 5 -28 -11 -42 -10 -9 -19 -23 -19 -30 0 -7 -8 -18
-17 -23 -17 -10 -17 -10 0 -11 10 0 22 11 27 25 5 14 17 28 25 31 22 9 17 74
-6 74 -5 0 -4 -11 1 -24z"/>
<path d="M4350 1450 c0 -5 5 -10 10 -10 6 0 10 5 10 10 0 6 -4 10 -10 10 -5 0
-10 -4 -10 -10z"/>
<path d="M4384 1449 c-3 -6 -8 -32 -9 -57 -2 -26 -8 -48 -14 -50 -6 -2 -11
-11 -11 -19 0 -13 -3 -13 -15 -3 -12 10 -15 9 -15 -6 0 -16 -2 -17 -10 -4 -8
13 -11 11 -16 -7 -3 -12 -13 -24 -23 -26 -9 -3 -1 -4 16 -3 18 0 35 7 37 13 3
7 17 11 33 9 15 -2 22 -1 16 1 -17 6 -16 18 2 33 9 7 15 27 15 44 -1 17 1 43
4 59 5 29 2 34 -10 16z"/>
<path d="M4361 694 c0 -11 3 -14 6 -6 3 7 2 16 -1 19 -3 4 -6 -2 -5 -13z"/>
<path d="M4336 653 c-9 -22 -7 -33 4 -33 6 0 10 8 10 19 0 14 6 17 26 13 17
-3 25 -1 21 5 -10 16 -55 13 -61 -4z"/>
<path d="M4289 403 c10 -20 22 -27 42 -25 3 1 12 -10 19 -24 15 -26 40 -29 48
-4 5 13 3 13 -11 1 -15 -11 -18 -10 -27 13 -5 14 -17 26 -26 26 -10 0 -26 8
-37 18 -19 16 -20 16 -8 -5z"/>
<path d="M4175 379 c-4 -6 -5 -12 -2 -15 2 -3 7 2 10 11 7 17 1 20 -8 4z"/>
<path d="M102 230 c0 -19 2 -27 5 -17 2 9 2 25 0 35 -3 9 -5 1 -5 -18z"/>
</g>
</svg>
