<svg width="431" height="340" xmlns="http://www.w3.org/2000/svg" preserveAspectRatio="xMidYMid meet" version="1.0">
 <metadata>Created by potrace 1.10, written by Peter Selinger 2001-2011</metadata>

 <g>
  <title>Layer 1</title>
  <g id="svg_1" fill="#000000" transform="translate(0.000000,896.000000) scale(0.100000,-0.100000)">
   <path id="svg_2" d="m220,8815c0,-12 92,-65 102,-59c6,4 8,3 5,-3c-6,-9 137,-108 296,-207c25,-15 27,-21 21,-54c-7,-42 -30,-72 -54,-72c-22,0 -40,20 -40,44c0,14 -3,17 -10,10c-15,-15 3,-58 32,-78c12,-9 38,-16 57,-16c33,0 34,-1 16,-14c-11,-7 -33,-18 -50,-24c-29,-10 -29,-10 -5,-11c14,-1 39,8 57,18c29,18 32,18 32,3c0,-9 3,-42 6,-72c6,-46 2,-75 -23,-165c-17,-61 -41,-147 -52,-193l-22,-82l33,-57c43,-71 75,-91 139,-88c80,4 110,37 110,118c0,11 22,46 48,76c26,31 60,73 76,93c15,20 41,41 59,47c17,7 43,23 58,37l26,25l45,-118c25,-65 59,-155 74,-201l28,-83l-23,-126c-25,-135 -23,-181 9,-266c10,-27 31,-64 45,-83c15,-19 24,-41 21,-49c-18,-48 -122,-181 -202,-260c-80,-79 -94,-97 -95,-126c-1,-19 0,-38 1,-44c11,-52 19,-327 10,-376c-15,-80 1,-116 69,-158c30,-18 57,-44 64,-60c15,-34 148,-161 170,-161c40,0 61,154 31,230c-17,43 -24,46 -55,29c-14,-7 -24,-7 -32,-1c-7,6 -28,12 -47,14l-35,3l3,47c2,40 -1,51 -29,83l-32,36l6,108c7,127 31,202 79,248c18,18 103,69 188,114c85,45 168,90 184,100l29,18l44,-69c100,-162 213,-420 213,-489c0,-14 14,-55 31,-91c57,-120 100,-409 71,-480c-5,-14 -28,-47 -51,-75c-63,-76 -106,-154 -92,-168c24,-24 254,-25 291,-2c10,6 -12,87 -35,132c-22,42 -19,59 21,103c44,49 43,62 -11,265c-31,115 -38,159 -40,246c-1,58 -4,110 -8,115c-13,21 -121,535 -114,540c1,1 61,-3 132,-9c231,-18 416,15 600,107l103,52l78,-110c74,-105 81,-118 122,-256c57,-187 60,-255 15,-350c-47,-101 -156,-279 -212,-345c-28,-33 -60,-77 -71,-98c-12,-21 -37,-59 -56,-84c-75,-98 -109,-203 -66,-203c28,0 99,23 170,55l63,28l-7,64l-6,63l43,18c32,14 49,29 62,57c48,101 337,555 353,555c13,0 47,-93 51,-139c9,-93 -15,-347 -42,-454c-20,-81 -32,-108 -71,-160c-45,-60 -94,-154 -94,-181c0,-8 10,-16 23,-20c37,-10 170,-6 207,7l34,12l0,70c0,39 -3,87 -8,107c-8,39 3,56 64,98c21,15 23,27 36,245c7,127 20,271 29,320c23,137 21,155 -31,260c-38,76 -48,107 -51,162c-6,85 20,202 81,357c56,142 63,168 71,241c7,72 -9,247 -25,272c-10,16 -11,15 -6,-7c2,-14 7,-43 10,-65c5,-30 2,-25 -12,21c-10,33 -30,82 -45,109c-22,38 -23,45 -8,31c10,-10 25,-31 31,-47c7,-16 16,-26 21,-23c5,3 22,-21 37,-53c26,-56 27,-64 25,-197c-2,-76 2,-156 8,-178c20,-75 96,-139 214,-177c45,-15 53,-22 79,-75c21,-42 30,-76 34,-129c4,-68 3,-75 -23,-105c-37,-44 -75,-62 -130,-62c-78,0 -111,64 -64,124c13,17 15,24 6,20c-8,-3 -23,-20 -33,-39c-23,-44 -12,-81 35,-112c39,-27 78,-24 146,9c41,20 53,32 106,102c35,48 39,109 9,175c-22,48 -21,61 4,36c9,-9 16,-13 16,-8c1,20 30,-34 31,-56c0,-23 1,-24 8,-6c5,11 4,29 -1,40c-7,16 -5,16 11,-4c23,-26 27,-61 10,-93c-8,-16 -8,-19 1,-13c8,5 11,3 8,-6c-3,-8 -11,-13 -18,-11c-8,2 -10,-3 -6,-15c4,-9 4,-14 0,-10c-4,3 -15,-10 -26,-31c-10,-20 -35,-49 -55,-64c-20,-16 -31,-28 -25,-28c6,0 25,12 44,27l33,27l-24,-27c-27,-30 -84,-54 -156,-66c-47,-8 -48,-9 -12,-10c47,-1 143,32 172,59c18,17 23,18 28,6c14,-36 -91,-85 -186,-86c-73,0 -123,16 -156,49c-12,12 -21,17 -21,12c0,-6 5,-13 11,-17c18,-11 -11,-24 -55,-24c-24,0 -47,7 -59,18c-16,13 -19,14 -15,2c2,-8 24,-25 48,-37c38,-20 60,-23 157,-23c111,0 113,0 113,-22c0,-34 -35,-85 -72,-104c-43,-22 -103,-22 -128,1c-11,10 -22,16 -25,13c-3,-3 4,-13 16,-24c16,-14 39,-19 97,-21c49,-2 70,0 57,6c-19,8 -19,8 3,15c14,5 42,37 68,77c24,38 52,73 62,76c9,3 30,15 45,26c16,10 30,17 32,15c8,-8 -52,-59 -71,-62c-11,-2 -17,-6 -14,-9c3,-3 -4,-13 -15,-21c-11,-9 -16,-16 -11,-16c6,0 -3,-15 -20,-32c-16,-18 9,3 56,47c145,137 171,180 166,283c-3,72 -15,101 -58,142c-12,11 -18,20 -14,20c5,0 3,7 -4,15c-7,8 -8,15 -2,15c10,0 31,-22 29,-30c-1,-3 6,-16 16,-30c9,-13 17,-18 17,-11c0,11 3,11 15,1c17,-14 21,-35 5,-25c-5,3 -10,2 -10,-4c0,-16 18,-22 24,-9c3,7 4,-4 1,-24c-4,-23 -2,-38 4,-38c6,0 8,8 4,18c-4,12 -3,14 5,7c6,-6 8,-30 5,-60c-5,-39 -8,-45 -15,-30c-5,14 -6,10 -2,-12c6,-36 -20,-104 -55,-140c-11,-12 -51,-46 -88,-76c-38,-30 -75,-62 -83,-72c-8,-10 -28,-26 -45,-37c-16,-10 -25,-18 -19,-18c6,0 28,11 48,25c20,13 36,21 36,18c0,-4 5,-2 12,5c17,17 33,15 19,-2c-20,-24 -130,-67 -186,-73c-65,-7 -139,17 -157,50c-7,12 -15,40 -18,62c-6,38 -7,39 -14,13c-11,-38 20,-97 64,-123c49,-28 147,-26 215,4l50,22l23,-28c35,-43 54,-94 48,-131c-7,-49 -24,-65 -61,-59c-48,8 -65,-9 -18,-18l38,-8l-30,-13c-41,-18 -90,-17 -109,2c-9,8 -16,12 -16,7c0,-34 88,-45 139,-18c28,14 29,14 35,-16c7,-39 52,-79 86,-79c28,0 80,34 80,51c0,6 -7,3 -16,-5c-24,-25 -86,-20 -112,7c-26,27 -29,62 -6,71c9,3 31,6 51,6c92,0 163,85 120,144c-12,16 -13,13 -11,-27c1,-26 -1,-46 -4,-45c-4,2 -18,-5 -32,-14c-14,-9 -38,-20 -54,-24c-26,-6 -28,-5 -21,12c15,38 17,116 5,192l-12,77l28,20c16,11 54,45 85,75c87,87 91,125 36,312c-35,118 -64,171 -135,248c-78,85 -107,146 -122,251c-25,173 -81,258 -213,323c-83,40 -219,76 -293,76c-41,0 -63,7 -110,35c-103,63 -178,80 -339,79c-123,0 -160,-5 -300,-37c-216,-48 -310,-61 -419,-54c-104,6 -168,24 -245,68l-54,31l52,18c60,20 91,45 91,74c0,20 -1,20 -13,-3c-25,-49 -125,-77 -182,-50c-15,7 -11,8 17,4c57,-9 95,16 123,79c13,29 35,67 50,84c43,51 24,47 -26,-5c-24,-25 -62,-54 -84,-64c-43,-20 -85,-25 -85,-10c0,5 -25,11 -55,13c-55,5 -86,20 -70,35c4,5 10,2 12,-4c5,-14 23,-18 23,-5c0,12 -49,34 -60,27c-4,-3 -31,10 -59,29l-51,35l5,-27c3,-15 2,-20 -1,-12c-4,8 -10,22 -15,31c-12,23 13,19 81,-13c92,-42 129,-51 187,-45c29,3 51,2 48,-3c-9,-14 -75,-32 -101,-27c-13,2 -27,0 -31,-6c-4,-6 15,-7 53,-3c78,8 89,11 89,18c0,14 39,47 48,41c5,-3 7,-1 3,5c-3,6 -2,13 4,17c5,3 10,11 10,18c0,6 -7,2 -15,-9c-20,-26 -19,-10 2,29l18,32l3,-31c4,-38 -13,-85 -30,-82c-7,2 -12,-2 -13,-9c0,-16 -12,-26 -48,-41l-32,-12l35,5c92,14 135,142 75,220c-14,19 -15,17 -10,-20c12,-81 -62,-143 -156,-132c-42,5 -194,65 -186,73c2,2 42,-10 90,-27c76,-26 92,-28 126,-19c76,20 116,104 70,146l-21,19l18,-31c17,-29 17,-33 2,-56c-20,-31 -65,-42 -95,-23c-13,9 -28,36 -37,68c-24,82 -71,117 -159,117c-59,0 -62,2 -127,94c-36,52 -94,78 -150,68c-34,-6 -55,-4 -85,9c-85,37 -349,20 -420,-27c-23,-15 -26,-15 -55,10c-17,14 -47,30 -68,36c-61,16 -69,13 -39,-18c28,-29 34,-47 17,-57c-5,-3 -46,13 -91,35c-82,42 -106,45 -76,12c10,-10 17,-23 17,-28c0,-5 13,-25 30,-44c16,-19 29,-38 30,-43c0,-4 -94,40 -209,98c-202,102 -221,110 -221,100zm577,-90c23,-14 43,-29 43,-34c0,-4 18,-18 41,-30c43,-24 66,-59 56,-85c-17,-43 -109,14 -149,93c-15,29 -32,59 -39,67c-17,21 -1,17 48,-11zm414,11c41,-2 84,-8 95,-14c17,-10 16,-11 -11,-12c-16,0 -59,-9 -95,-20c-58,-18 -43,-21 30,-6c14,3 -3,-4 -38,-15c-71,-24 -111,-19 -73,7c12,9 45,24 74,35c29,10 43,18 32,19c-11,0 -51,-16 -90,-35c-57,-28 -76,-33 -100,-26l-30,8l49,31c28,18 46,32 41,32c-4,0 -30,-14 -57,-31c-31,-20 -56,-29 -71,-26c-12,3 -31,1 -42,-3c-15,-7 -9,-9 25,-9c68,-1 90,-21 89,-79c-1,-26 -5,-58 -9,-72l-8,-25l-2,25c-2,32 -38,140 -39,119c-1,-9 5,-34 13,-55c7,-22 16,-57 20,-79c11,-62 -9,-32 -41,60c-25,72 -32,82 -67,99l-39,19l34,18c19,10 42,15 53,12c11,-3 16,-1 12,5c-4,6 2,11 11,11c40,2 73,8 80,15c4,4 24,4 43,1c19,-4 69,-8 111,-9zm-651,-117c0,-21 -3,-19 -51,24c-10,9 -21,16 -23,15c-2,-2 -23,9 -46,25c-23,15 -46,27 -51,27c-5,0 -9,5 -9,10c0,6 41,-10 90,-36c66,-34 90,-51 90,-65zm153,41c14,-23 29,-27 21,-6c-3,7 2,16 11,20c9,3 13,2 10,-4c-3,-6 0,-10 7,-10c8,0 6,-5 -5,-11c-21,-13 -12,-32 12,-24c12,3 25,-5 41,-25c12,-16 27,-27 31,-24c5,3 9,0 9,-5c0,-6 3,-10 8,-9c4,1 17,-3 29,-10c12,-6 29,-9 37,-6c12,5 16,0 16,-19c0,-20 -4,-24 -19,-20c-11,3 -28,13 -40,24c-30,28 -35,23 -12,-10c14,-20 27,-28 40,-24c10,3 23,-1 27,-9c10,-15 34,-81 31,-84c-7,-7 -92,46 -89,55c1,7 -7,25 -18,41c-11,15 -20,33 -20,38c0,6 -4,14 -10,17c-7,4 -7,-3 0,-20c14,-36 12,-43 -5,-21c-11,15 -15,16 -15,5c0,-27 63,-91 112,-114c48,-22 53,-35 12,-35c-36,0 -53,10 -48,28c5,14 3,14 -9,-1c-48,-58 -101,63 -74,166c6,20 4,28 -5,26c-27,-3 -39,1 -32,12c4,8 0,8 -15,0c-11,-7 -21,-17 -22,-24c0,-9 -2,-9 -6,0c-10,27 -36,-18 -38,-65c0,-26 -6,-58 -13,-72l-13,-25l19,22c11,12 22,39 26,61c7,47 45,100 57,81c4,-7 3,-21 -2,-31c-6,-10 -7,-28 -4,-39c9,-28 -36,-94 -72,-106c-15,-5 -44,-6 -63,-2c-19,3 -27,7 -17,8c30,2 54,36 62,87c9,60 20,82 54,111c14,12 21,22 16,23c-6,0 -16,-5 -23,-12c-9,-9 -12,-5 -12,18c0,21 -3,25 -9,15c-5,-8 -7,-20 -4,-28c3,-7 3,-13 -1,-13c-7,0 -86,100 -86,109c0,14 100,-39 113,-59zm745,49c18,-6 48,-33 71,-63c49,-64 53,-81 9,-39c-39,36 -54,42 -130,53c-39,6 -82,4 -135,-5c-111,-20 -140,-18 -68,5c48,16 83,19 177,17c74,-2 112,1 102,6c-9,5 -64,9 -123,9c-100,1 -103,1 -42,9c34,4 68,10 75,13c18,7 31,7 64,-5zm-348,-65c32,-7 55,-40 40,-59c-4,-5 -11,-36 -15,-68l-7,-58l-39,43l-40,43l36,-48c19,-27 35,-61 36,-75c1,-45 15,2 24,78c10,92 18,100 39,35c18,-58 22,-253 4,-220c-5,8 -6,19 -3,25c5,9 -30,90 -40,90c-11,0 4,-58 24,-98c12,-24 20,-50 17,-58c-3,-8 -2,-13 3,-10c5,3 11,-1 15,-9c3,-10 -1,-15 -12,-16c-13,-1 -13,-2 3,-7c20,-5 20,-5 0,-13c-17,-6 -17,-8 -2,-8c20,-1 21,-13 2,-66c-8,-21 -13,-41 -11,-43c3,-3 32,69 41,104c2,6 16,14 32,17c15,4 39,9 53,13c21,6 17,-1 -26,-47c-47,-50 -94,-111 -94,-122c0,-2 28,-7 63,-9c49,-4 65,-1 74,11c9,12 12,13 13,3c0,-8 -9,-25 -20,-39c-11,-14 -20,-23 -20,-19c0,3 -18,-3 -40,-14c-22,-11 -40,-23 -40,-25c0,-3 13,1 30,10c45,23 47,18 9,-22l-34,-36l38,28l38,28l-11,-27c-21,-56 -8,-48 15,9c17,43 40,74 79,110c53,49 117,145 130,195c6,22 5,21 -10,-5c-54,-99 -66,-117 -76,-107c-7,7 -3,29 12,69c12,32 23,79 23,105c1,25 4,44 6,42c6,-5 31,54 31,70c-1,6 -8,-2 -17,-19c-9,-16 -35,-55 -58,-85c-23,-30 -47,-64 -53,-75c-8,-15 -10,21 -7,140c3,148 3,152 -5,50c-4,-60 -8,-130 -10,-155c-2,-43 -2,-44 -11,-15c-5,17 -18,86 -29,155c-11,69 -23,135 -26,148l-7,23l58,-26c53,-23 96,-54 151,-109c31,-31 46,-89 50,-190c4,-109 -6,-150 -45,-196c-27,-31 -30,-33 -31,-13c0,12 10,34 23,50c25,30 47,77 47,96c0,7 -10,-8 -21,-33c-11,-25 -31,-57 -45,-71c-21,-22 -23,-30 -14,-53l10,-27l30,34c50,57 64,101 63,202c-1,50 -6,103 -12,119c-7,16 -9,31 -7,33c11,11 36,-107 36,-169c0,-111 -15,-151 -74,-206c-29,-26 -83,-64 -119,-86c-37,-21 -68,-43 -68,-47c-3,-19 -5,-25 -16,-44c-10,-17 -12,-17 -13,-3c0,9 6,19 13,21c7,3 5,6 -5,6c-10,1 -18,-5 -18,-11c0,-7 -3,-24 -7,-38l-6,-25l30,28l31,28l10,-38c7,-28 10,-31 10,-13c0,14 -3,34 -7,44c-6,16 1,24 38,42c25,13 46,22 47,21c1,-1 -16,-38 -38,-82c-26,-54 -37,-88 -33,-103c4,-17 2,-22 -6,-16c-9,5 -11,-11 -6,-67l6,-74l-25,70c-21,58 -23,74 -13,90c11,17 10,18 -2,8c-13,-10 -18,-3 -34,45c-11,31 -41,112 -67,180c-38,99 -45,128 -37,148c15,40 10,84 -17,159c-14,39 -25,75 -26,82c-1,7 -4,11 -8,10c-3,-1 -25,14 -47,34l-42,35l15,53c9,29 14,72 12,97c-3,48 0,50 62,38zm351,-4c20,-6 48,-19 61,-30c22,-19 20,-19 -27,1c-44,20 -56,21 -117,11c-52,-8 -76,-7 -105,3l-38,13l30,4c72,8 162,7 196,-2zm-841,-45c5,-12 15,-25 24,-28c10,-4 13,-1 9,8c-3,8 -9,12 -14,9c-5,-3 -9,2 -9,11c0,13 4,14 20,5c22,-12 26,-35 9,-45c-14,-9 -89,41 -89,59c0,22 40,7 50,-19zm625,25l27,-10l-6,-118c-6,-138 -14,-194 -30,-204c-8,-6 -7,-8 2,-8c16,0 15,-35 -2,-49c-19,-16 -23,13 -24,147c-1,103 0,105 13,67c7,-22 14,-49 15,-60c1,-11 4,-14 7,-8c7,18 -24,118 -58,185c-16,31 -29,60 -29,63c0,9 57,6 85,-5zm274,-28c80,-32 94,-42 62,-42c-12,0 -45,12 -73,26c-39,20 -63,25 -107,24c-72,-3 -86,1 -36,10c69,12 82,11 154,-18zm-19,-26c47,-22 62,-24 139,-19c83,5 88,5 118,-21c30,-25 70,-103 58,-114c-3,-3 3,-14 12,-25c17,-20 17,-20 -2,-13c-168,64 -280,97 -162,48c110,-46 167,-61 220,-59c45,2 52,0 38,-10c-27,-21 -106,-15 -173,12c-37,15 -70,22 -84,19c-14,-4 -31,-1 -39,6c-19,15 -23,-4 -28,-135c-3,-69 -1,-91 5,-70c5,17 10,68 10,114c2,76 3,82 14,56c6,-16 9,-36 6,-44c-3,-9 -1,-12 6,-7c12,7 19,-69 14,-154c-3,-40 -40,-147 -54,-156c-6,-4 -5,4 2,16c6,12 9,24 7,27c-3,2 -8,-6 -12,-19c-6,-19 -245,-263 -245,-250c0,2 9,17 21,33c11,16 18,29 15,29c-11,0 62,136 91,171c22,27 17,24 -23,-12c-54,-50 -108,-83 -126,-77c-6,2 14,18 45,36c30,17 71,45 91,62c19,17 39,30 43,29c4,-1 22,17 38,40c30,42 30,45 30,169c0,103 -3,133 -18,160c-10,18 -22,30 -27,27c-6,-4 -10,-1 -10,4c0,20 21,11 51,-21c26,-29 34,-30 30,-5c-1,4 12,1 28,-8c17,-8 34,-15 38,-14c4,0 -30,20 -77,43c-47,24 -84,48 -82,54c1,7 -3,12 -8,12c-6,0 -22,7 -36,17c-19,12 -22,18 -12,24c7,5 18,9 23,9c6,0 4,-4 -3,-9c-9,-5 3,-15 39,-31c46,-19 63,-21 132,-15c78,6 80,6 121,-25l41,-32l-39,37l-38,37l-82,-7c-70,-5 -87,-4 -126,15c-25,11 -34,18 -20,14c77,-18 104,-20 152,-13c29,5 62,6 73,3c15,-4 16,-3 6,4c-7,5 -50,7 -96,5c-68,-5 -92,-2 -139,16c-31,11 -67,21 -79,21c-12,0 -29,5 -37,10c-33,21 70,9 120,-14zm-714,-11c1,-8 -1,-17 -5,-20c-13,-8 7,-108 27,-135c12,-15 31,-26 50,-28c43,-4 41,-22 -2,-22c-44,0 -58,-18 -55,-72c2,-35 -5,-57 -29,-99c-17,-30 -32,-46 -32,-36c0,25 39,167 55,199c11,23 11,30 -1,45c-12,17 -13,16 -7,-5c3,-12 1,-28 -5,-35c-16,-20 -73,-216 -66,-228c4,-6 2,-14 -3,-18c-21,-13 -55,-139 -60,-221c-5,-77 -3,-88 17,-112c37,-48 89,-27 76,29c-4,16 -7,33 -8,40c-1,7 -4,11 -7,11c-3,-1 -14,2 -23,6c-10,4 -23,6 -30,3c-7,-3 -3,-6 9,-6c48,-2 72,-93 26,-99c-40,-6 -56,36 -49,126c8,82 33,189 47,198c5,3 6,-3 3,-13c-3,-10 16,22 44,70l49,88l11,-33l11,-33l-5,42c-5,34 -2,42 13,46c14,4 14,5 -4,6c-20,1 -23,7 -23,41c0,33 4,41 24,46c13,3 35,4 47,1c20,-3 19,-5 -7,-6c-37,-1 -54,-17 -54,-49c0,-23 3,-24 43,-20l44,5l-39,-70c-21,-38 -38,-77 -38,-86c0,-10 -26,-29 -66,-50c-55,-29 -65,-37 -60,-55c3,-12 6,-37 6,-56c0,-23 3,-31 9,-21c6,9 11,10 15,2c7,-11 -1,-16 -34,-23c-12,-2 -10,-8 8,-26c21,-21 23,-21 17,-3c-5,16 2,22 37,35c29,11 34,15 16,12c-30,-3 -50,17 -61,66c-6,24 -2,29 49,58c31,17 58,29 61,26c3,-2 1,-37 -5,-78c-7,-56 -6,-82 5,-112c11,-34 11,-41 -1,-55c-8,-9 -17,-38 -21,-64c-7,-43 -26,-69 -41,-54c-3,3 6,42 20,87c14,44 26,89 25,98c0,9 -15,-28 -32,-83c-38,-116 -51,-125 -101,-72c-50,54 -68,97 -55,138c6,19 13,48 16,64c3,17 9,37 14,46c4,9 6,18 4,21c-2,2 7,40 21,83c31,101 54,217 47,243c-2,11 7,48 21,83c14,36 25,78 25,94c0,43 4,66 10,60c3,-3 6,-12 7,-20zm257,-134c30,-31 62,-71 71,-89c19,-36 30,-95 16,-87c-4,3 -6,-3 -3,-14c7,-26 -15,-101 -30,-101c-7,0 -30,10 -52,21c-29,16 -36,17 -26,6c7,-9 28,-22 47,-29l34,-12l-28,-30l-27,-31l28,25c34,29 54,65 66,117l9,38l1,-41c1,-31 -7,-51 -29,-82c-29,-40 -62,-66 -72,-56c-8,7 -62,-49 -132,-136l-60,-74l-13,32c-7,18 -11,54 -9,80c2,26 4,55 5,65c1,9 6,17 12,17c7,0 8,-7 4,-17c-13,-34 -16,-48 -4,-25c14,26 22,27 38,8c10,-11 6,-25 -15,-66c-14,-28 -24,-53 -22,-55c3,-3 15,17 28,45c15,32 27,47 34,41c7,-5 22,6 41,28c19,23 21,29 7,17c-27,-23 -38,-16 -20,13c8,13 19,19 30,15c10,-3 25,-1 33,4c13,7 12,10 -10,20c-20,9 -24,16 -17,29c5,10 11,25 14,33c3,10 12,2 26,-25c28,-52 28,-35 1,20l-22,43l38,60c37,60 37,61 61,45c37,-24 37,-12 1,28c-18,19 -33,41 -35,49c-5,22 -44,82 -49,76c-3,-3 4,-18 16,-34c23,-32 27,-47 11,-37c-14,8 -50,81 -44,87c2,3 -3,11 -12,19c-15,12 -16,11 -9,-11c13,-44 36,-84 65,-115l29,-30l-39,-63c-21,-35 -41,-59 -44,-53c-4,6 -6,57 -6,113c1,57 -3,115 -9,130c-6,15 -8,34 -5,42c3,8 1,17 -5,21c-6,3 -11,25 -10,48l0,42l20,-54c12,-36 37,-73 72,-110zm-336,119c-7,-17 -13,-26 -15,-21c-3,10 15,51 22,51c3,0 -1,-14 -7,-30zm740,14c-3,-3 -12,-4 -19,-1c-8,3 -5,6 6,6c11,1 17,-2 13,-5zm-126,-247c7,-33 18,-61 25,-64c22,-8 32,-55 20,-97c-16,-56 -50,-78 -113,-74l-52,3l69,80c71,83 76,106 19,86l-32,-11l7,43c3,23 9,94 13,157l7,115l12,-90c7,-49 18,-116 25,-148zm-460,171c11,-21 11,-22 -4,-9c-10,7 -17,17 -17,22c0,15 9,10 21,-13zm-150,-133c-4,-35 -8,-45 -14,-32c-6,17 -1,60 10,80c9,16 10,2 4,-48zm468,0c0,-5 -6,1 -14,15c-8,14 -14,30 -14,35c0,6 6,-1 14,-15c8,-14 14,-29 14,-35zm-209,-57l-1,-83l-24,30c-14,17 -25,36 -25,43c0,15 38,92 45,92c3,0 5,-37 5,-82zm-30,62c0,-5 -4,-10 -10,-10c-5,0 -10,-8 -10,-17c0,-10 -4,-23 -8,-30c-4,-6 -7,6 -7,28c0,31 3,39 17,39c10,0 18,-4 18,-10zm505,-67c-9,-32 -22,-67 -29,-78c-6,-11 -17,-33 -24,-50c-11,-28 -11,-29 3,-10c14,17 17,18 25,5c7,-11 0,-25 -27,-52c-39,-40 -52,-43 -33,-8c11,21 20,56 23,92c1,9 5,14 9,12c15,-9 8,13 -7,26c-9,7 -14,19 -11,26c10,27 81,114 84,105c2,-6 -4,-37 -13,-68zm306,-12c44,-24 55,-61 42,-143l-10,-63l-2,63c-1,63 -19,123 -41,137c-6,4 -2,-12 11,-36c18,-37 21,-54 16,-121c-8,-120 -35,-167 -170,-300c-62,-62 -130,-133 -150,-157c-21,-25 -37,-40 -37,-34c0,13 146,209 204,274c69,76 95,122 112,192c15,58 15,73 4,110c-18,55 -50,120 -56,114c-3,-3 3,-18 12,-33c14,-20 19,-52 22,-123c3,-87 1,-100 -21,-141c-13,-25 -30,-44 -37,-42c-6,1 -9,-1 -6,-6c3,-5 -10,-27 -29,-48c-21,-24 -32,-31 -28,-19c4,11 14,25 22,31c8,7 15,27 15,48c0,19 3,30 7,24c5,-7 8,1 8,17c0,17 4,44 10,60c9,25 10,20 7,-35c-4,-50 -2,-60 6,-46c7,12 9,71 6,165c-3,80 -3,152 0,159c3,10 10,8 27,-8c12,-12 38,-29 56,-39zm239,44c-7,-8 -18,-15 -24,-15c-6,0 -2,7 8,15c25,19 32,19 16,0zm-1124,-21c-5,-12 -2,-15 11,-10c15,6 16,5 6,-5c-15,-15 -40,2 -29,20c11,17 19,13 12,-5zm124,-134c0,-20 -34,-80 -44,-77c-18,6 -32,39 -19,44c7,3 23,13 35,24c14,12 -4,6 -47,-15c-38,-19 -71,-34 -72,-32c-2,2 13,37 33,79l36,76l39,-45c21,-25 39,-49 39,-54zm939,50c25,0 59,7 75,15c37,19 43,13 22,-20c-25,-38 -67,-53 -126,-45c-45,6 -98,36 -85,48c3,3 0,11 -6,19c-9,10 -2,10 31,-2c23,-8 63,-15 89,-15zm-103,-73c20,-204 13,-294 -24,-325c-9,-7 -11,-11 -5,-7c22,11 -4,-43 -55,-114c-51,-72 -65,-86 -132,-132c-25,-17 -71,-59 -102,-93l-58,-61l16,55c9,30 21,64 26,75c20,39 83,134 90,135c4,0 5,-26 3,-57l-4,-58l9,55c5,30 10,69 11,85c2,17 20,50 40,75c20,25 42,56 49,70c13,25 14,25 37,-28c13,-30 21,-58 17,-63c-3,-5 -36,-25 -72,-44c-37,-20 -56,-33 -42,-29c14,3 40,14 58,25c30,17 32,17 32,1c0,-14 3,-13 13,5c6,11 23,36 36,55c13,18 18,27 11,21c-17,-16 -30,-17 -30,-3c0,6 -9,29 -19,50c-24,50 -10,62 30,24c16,-15 31,-25 34,-22c3,3 -10,17 -29,32l-35,26l24,45c13,25 31,90 41,144c19,103 25,115 30,58zm-1086,-22c0,-5 -5,-3 -10,5c-5,8 -10,20 -10,25c0,6 5,3 10,-5c5,-8 10,-19 10,-25zm1147,-43c15,-31 31,-58 35,-60c4,-2 4,-10 1,-19c-4,-10 -2,-14 4,-10c15,9 5,-90 -23,-232c-22,-112 -34,-156 -34,-122c0,17 -42,113 -47,107c-2,-2 8,-32 23,-67l26,-64l-22,-110c-12,-60 -26,-113 -29,-118c-10,-10 -141,-46 -141,-38c0,3 6,44 14,91c21,125 23,150 14,150c-4,0 -8,-11 -8,-25c0,-14 -7,-71 -17,-125l-16,-100l-31,-2l-31,-1l33,-4c30,-4 32,-6 32,-46c0,-23 3,-52 6,-65c5,-16 -10,-6 -57,39c-64,61 -155,129 -174,129c-5,0 15,-17 45,-37c30,-20 86,-67 124,-104l68,-67l-4,-48c-3,-27 -8,-57 -12,-66c-5,-10 -4,-18 1,-18c10,0 33,58 33,85c0,18 115,231 130,240c4,3 21,-19 38,-47c30,-53 84,-124 63,-83c-6,11 -27,47 -49,80l-38,59l43,33c24,18 45,33 46,33c2,0 9,-37 14,-82c11,-84 12,-148 3,-148c-11,0 0,-237 15,-318c18,-99 80,-367 91,-396c6,-15 4,-17 -7,-11c-12,7 -12,6 -1,-7c9,-12 12,-40 9,-95c-2,-43 0,-85 5,-93c12,-23 80,-290 85,-335c4,-35 0,-44 -26,-69c-17,-17 -31,-40 -31,-53c0,-13 -4,-23 -9,-23c-6,0 -6,12 0,32c6,23 5,35 -4,41c-8,6 -7,7 5,3c10,-3 20,-1 23,4c4,6 -3,10 -13,10c-22,0 -38,16 -45,45c-4,19 -5,18 -6,-2c0,-12 6,-29 15,-37c13,-14 14,-16 0,-16c-8,0 -14,-8 -13,-19c0,-11 5,-17 9,-15c5,3 5,10 2,16c-4,6 -1,9 7,6c8,-3 13,-15 10,-29c-2,-13 -4,-30 -5,-37c-1,-8 -9,-18 -17,-23c-19,-12 -2,-11 22,1c16,9 19,7 19,-13c0,-12 5,-28 12,-35c20,-20 5,-22 -62,-6c-95,21 -99,26 -65,66c36,43 55,88 55,133c0,19 5,35 10,35c6,0 10,9 10,20c0,11 7,20 15,20c8,0 15,5 15,10c0,12 -6,13 -28,1c-16,-8 -20,8 -46,150c-16,88 -33,162 -38,165c-15,9 -47,90 -46,115c2,26 15,49 29,49c5,0 6,-8 3,-17c-5,-17 -5,-17 9,0c15,17 63,25 52,7c-3,-5 -13,-7 -23,-4c-12,4 -11,2 3,-7c48,-30 47,-59 -3,-59c-21,0 -44,6 -52,13c-12,10 -12,9 -1,-5c14,-19 95,-26 105,-9c3,5 -1,22 -9,37c-10,20 -11,32 -4,41c8,9 5,22 -10,46c-23,38 -27,52 -10,41c7,-4 4,7 -7,25c-10,17 -22,31 -27,31c-4,0 -6,4 -3,9c3,5 -1,31 -10,57c-8,27 -18,104 -21,172c-3,67 -10,125 -14,128c-14,8 -10,26 4,18c6,-4 1,5 -13,21c-22,25 -23,27 -5,22c19,-7 19,-7 1,7c-18,14 -18,16 3,42c11,15 21,32 21,38c0,6 -10,-4 -22,-22c-27,-43 -30,-38 -59,108c-13,63 -25,108 -26,99c-2,-8 7,-67 21,-130l24,-114l-21,-18c-39,-32 -137,-78 -137,-65c0,7 -3,24 -7,37c-6,24 -6,24 55,18c73,-8 84,7 13,17c-72,9 -84,2 -77,-47c6,-38 6,-40 -11,-26c-10,8 -40,21 -68,28c-76,19 -232,109 -270,156c-45,55 -70,109 -85,179c-10,48 -9,74 4,150c8,50 17,102 18,116c2,18 10,4 29,-50c31,-90 63,-229 55,-237c-3,-4 -6,0 -6,7c0,7 -2,11 -5,8c-3,-3 4,-22 16,-42c12,-21 28,-67 36,-104c7,-37 21,-74 29,-82c14,-13 14,-12 0,17c-18,35 -22,78 -6,68c5,-3 7,-11 4,-18c-11,-31 146,-162 162,-135c5,7 12,5 21,-7c7,-11 13,-14 13,-9c0,6 -12,21 -26,33c-31,27 -25,40 8,19c13,-8 30,-13 37,-10c9,3 -5,14 -36,27c-45,20 -58,34 -122,130c-39,59 -70,114 -69,123c2,9 -3,17 -9,18c-7,1 -18,2 -24,3c-8,1 -10,19 -7,54c5,53 25,114 33,105c3,-3 -2,-21 -10,-41c-8,-20 -15,-49 -14,-64c1,-22 3,-18 9,14c5,23 16,55 24,71c19,38 168,194 159,167c-4,-11 -23,-35 -42,-54c-20,-19 -30,-31 -22,-26c7,4 3,-6 -10,-24c-12,-17 -27,-31 -31,-31c-5,0 -6,-4 -3,-10c3,-5 2,-10 -4,-10c-6,0 -17,-23 -26,-52c-15,-53 -20,-108 -8,-108c3,0 31,27 61,61c31,33 74,72 96,86c116,72 198,156 180,184c-4,7 -3,9 3,6c5,-3 29,32 53,78c39,77 44,92 46,167l3,83l-9,-72c-8,-69 -38,-179 -46,-170c-3,2 3,34 11,71c15,66 11,154 -11,234c-12,44 23,13 53,-46zm47,36c160,-109 211,-126 388,-130c58,-2 104,-1 101,2c-2,3 33,10 79,17c81,11 216,40 308,64c73,20 294,17 365,-5c145,-44 269,-134 319,-234c48,-95 61,-157 60,-287l0,-120l-52,-126c-57,-143 -92,-272 -92,-348c0,-57 29,-201 41,-201c4,0 18,-17 30,-37c26,-42 29,-118 12,-248c-10,-69 -10,-68 -10,50c0,72 -4,130 -11,145c-12,25 -12,25 -7,-5l5,-30l-65,1c-48,1 -70,6 -85,19c-11,10 -23,16 -26,12c-3,-3 4,-10 15,-17c12,-6 21,-15 21,-21c0,-6 -5,-7 -12,-3c-7,4 -8,3 -4,-5c4,-6 12,-9 17,-6c5,3 6,-1 3,-9c-3,-9 -8,-16 -10,-16c-6,0 -49,84 -49,95c0,5 -12,21 -27,35c-24,22 -219,334 -218,349c1,3 10,-5 21,-19c12,-14 36,-42 55,-63c19,-20 33,-41 30,-46c-4,-5 3,-7 15,-4c19,5 21,2 17,-23c-3,-16 -3,-23 -1,-16c3,6 9,12 14,12c5,0 9,-6 9,-12c0,-7 14,-42 32,-78c18,-36 34,-69 37,-75c2,-5 -4,-4 -15,4c-10,7 -4,0 15,-17c22,-20 32,-36 27,-47c-3,-10 -2,-14 5,-9c6,3 9,15 6,25c-3,12 6,26 29,44c32,24 34,25 34,6c0,-12 -11,-24 -27,-30c-21,-8 -22,-10 -5,-7c16,3 22,-1 22,-14c0,-12 -6,-17 -17,-15c-10,1 -12,0 -5,-2c6,-3 12,-12 13,-21c0,-15 1,-15 7,1c7,17 91,72 98,64c2,-2 -11,-20 -28,-41c-26,-32 -28,-36 -10,-27c12,6 22,15 22,19c0,5 9,18 20,30c24,26 16,32 -38,29c-39,-2 -42,-1 -42,23c0,14 7,34 15,44c8,11 15,15 15,10c0,-6 7,-19 16,-30c15,-19 15,-19 6,1c-26,53 -42,308 -21,321c5,3 9,10 9,17c0,6 -7,2 -15,-9c-14,-18 -14,-18 -15,11c-1,17 -5,39 -9,49c-7,17 -10,16 -36,-18c-15,-20 -25,-39 -23,-42c3,-3 14,9 25,26l20,31l13,-60c7,-33 10,-74 6,-91c-3,-17 -1,-53 5,-80c20,-95 18,-96 -99,-40l-104,50l62,67c34,38 66,68 71,67c5,-1 16,-2 24,-2c8,-1 19,-17 24,-34l10,-33l-2,32c-1,35 -19,47 -132,82l-60,19l45,12c25,7 71,20 103,30c42,13 59,15 62,7c11,-37 13,-39 14,-11c1,21 9,37 30,52c16,11 40,42 55,68c29,52 34,68 11,38c-20,-26 -19,-5 4,76l19,65l5,-45c2,-25 3,-9 0,34c-2,44 -8,100 -14,125c-6,26 -8,69 -4,98c11,90 -5,123 -96,200c-142,120 -160,132 -176,126c-11,-4 -14,-2 -9,5c5,8 1,10 -10,5c-12,-4 -15,-3 -10,5c5,8 1,10 -10,5c-11,-4 -15,-3 -11,4c5,7 -1,9 -15,5c-12,-3 -19,-1 -15,4c3,5 -2,11 -11,12c-9,1 -35,4 -57,7c-29,4 -21,-1 32,-19c40,-13 89,-33 108,-45c20,-12 40,-19 45,-16c5,3 11,1 14,-4c3,-5 -49,-6 -122,-4c-70,3 -158,4 -195,3c-66,-1 -137,14 -137,29c0,5 9,20 21,35c25,32 19,33 -30,2c-21,-14 -64,-29 -96,-35c-72,-13 -84,-14 -65,-1c15,10 -24,5 -80,-10l-25,-7l30,-6c17,-4 68,-1 115,7c85,14 106,13 94,-5c-8,-13 -126,-99 -135,-99c-8,0 -130,70 -139,80c-10,10 -33,11 -39,2c-3,-6 -51,-12 -106,-15c-57,-4 -91,-2 -80,2c15,7 10,9 -20,8c-22,0 -51,3 -65,7l-25,7l25,-12c14,-6 48,-17 75,-24l50,-12l-60,-11c-59,-11 -61,-11 -141,29c-44,21 -85,39 -90,39c-13,0 -106,95 -100,101c3,3 -5,11 -17,18c-18,11 -20,11 -9,0c14,-15 16,-29 3,-29c-5,0 -18,16 -30,35c-11,19 -17,35 -13,35c5,0 30,-15 56,-32zm-1024,-7c0,-6 -4,-13 -10,-16c-5,-3 -15,-16 -21,-28c-8,-17 -4,-15 16,7c24,26 28,27 42,14c13,-14 13,-18 -1,-40c-9,-15 -14,-33 -10,-43c4,-9 -14,2 -39,26c-52,48 -58,65 -24,79c29,12 47,12 47,1zm85,-49c-7,-8 -35,7 -35,18c0,6 7,6 20,-2c10,-7 17,-14 15,-16zm782,-14c-3,-7 -5,-2 -5,12c0,14 2,19 5,13c2,-7 2,-19 0,-25zm212,-50c-10,-6 -6,-7 11,-2c14,3 22,3 18,-1c-4,-5 -1,-13 7,-19c15,-11 66,-128 59,-135c-2,-2 -27,18 -56,45c-53,49 -68,73 -82,128c-6,24 -5,28 6,20c8,-5 3,0 -9,12c-13,11 -20,24 -16,28c4,4 23,-9 42,-29c27,-30 31,-39 20,-47zm836,23c-3,-6 -14,-11 -23,-11c-13,0 -13,2 4,14c21,15 30,14 19,-3zm-1073,-54c-11,-25 -36,-63 -57,-85c-20,-23 -34,-45 -31,-50c3,-5 -31,-44 -76,-88c-44,-43 -98,-101 -119,-127c-21,-27 -39,-43 -39,-35c-1,9 -5,8 -14,-4c-7,-10 -17,-14 -21,-10c-5,4 -5,2 -2,-4c3,-6 0,-30 -8,-55c-11,-37 -14,-40 -14,-16c-1,37 19,116 31,123c6,4 7,-3 3,-17c-4,-14 7,-3 25,23c17,26 91,107 164,180c97,97 137,146 152,180c10,26 20,43 22,38c2,-5 -5,-29 -16,-53zm881,26c-7,-2 -19,-2 -25,0c-7,3 -2,5 12,5c14,0 19,-2 13,-5zm226,-42c22,-83 62,-303 59,-319c-2,-9 -27,49 -55,129c-72,205 -78,244 -33,232c13,-3 23,-19 29,-42zm-1249,24c4,3 6,-5 2,-17c-5,-19 -6,-20 -11,-4c-5,12 -10,4 -18,-27c-7,-23 -27,-64 -45,-90c-113,-161 -160,-233 -165,-258c-9,-47 -20,-24 -25,52c-7,96 17,145 113,230c39,35 86,78 103,95c17,17 33,27 34,23c2,-5 7,-7 12,-4zm679,-223c30,-73 52,-134 49,-137c-2,-3 -48,14 -100,38c-96,42 -97,42 -108,87c-9,36 -43,134 -78,229c-3,7 37,-9 89,-35l94,-49l54,-133zm680,214l74,-1l13,-55c7,-30 13,-57 14,-59c0,-2 -19,12 -42,31c-64,51 -109,81 -114,76c-2,-3 15,-18 38,-33c24,-16 62,-44 85,-64l43,-35l-29,-31c-15,-16 -49,-55 -73,-86l-46,-57l-21,112c-13,61 -28,134 -36,163c-11,46 -11,51 3,45c9,-3 50,-6 91,-6zm609,-20c153,-39 262,-112 303,-205c22,-51 34,-105 20,-97c-5,3 -7,-4 -4,-16c4,-19 3,-20 -6,-8c-13,18 -15,1 -2,-19c7,-11 10,-9 16,8c4,13 9,21 11,18c3,-2 0,-16 -5,-30c-6,-15 -6,-37 -1,-54l8,-28l1,29c1,38 7,31 14,-19c4,-27 3,-35 -3,-25c-5,8 -10,11 -10,7c0,-13 29,-77 35,-77c3,0 1,9 -5,21c-7,11 -10,23 -7,25c2,3 12,-13 21,-36c9,-22 47,-74 86,-116c72,-77 104,-126 92,-138c-3,-4 -1,-10 5,-14c7,-4 14,-23 17,-42c2,-19 9,-48 15,-63c7,-19 8,-54 2,-107c-9,-86 -36,-143 -90,-194c-17,-16 -28,-32 -26,-36c7,-11 -74,-72 -86,-65c-5,4 -18,1 -27,-5c-9,-7 8,10 38,37c118,105 145,137 163,193c29,92 27,157 -7,214c-18,30 -31,44 -36,37c-5,-9 -10,-8 -20,4c-11,13 -10,14 5,9c40,-16 -1,19 -95,82c-153,100 -185,150 -200,311c-4,54 -18,130 -30,168c-18,59 -31,79 -78,125c-31,30 -56,58 -55,62c2,4 -5,4 -14,1c-11,-5 -14,-3 -8,6c6,10 3,11 -14,2c-14,-8 -21,-8 -21,-1c0,5 5,10 12,10c6,0 9,2 6,5c-3,3 -13,3 -22,-1c-16,-6 -16,-8 0,-25c10,-11 12,-19 6,-19c-17,0 -33,35 -22,46c6,6 3,10 -8,11c-9,1 -30,4 -47,7c-29,5 -29,5 3,-6c20,-7 31,-16 28,-24c-3,-7 2,-15 10,-18c8,-3 13,-11 12,-18c-2,-8 5,-12 16,-10c18,3 18,2 5,-14c-7,-10 -9,-15 -3,-11c11,7 29,-19 25,-36c-1,-5 2,-6 7,-3c5,3 14,-11 21,-30c7,-19 16,-32 20,-29c5,2 7,-30 6,-73c-1,-42 1,-99 5,-127c6,-41 7,-32 7,46c0,53 3,101 6,107c10,15 -13,73 -26,65c-5,-3 -7,-1 -4,4c4,6 -3,23 -14,37c-12,15 -19,29 -16,32c9,9 66,-76 78,-115c5,-20 14,-93 18,-164c4,-70 10,-129 12,-131c2,-3 3,55 2,128c-1,124 -3,136 -31,199c-17,37 -38,70 -46,73c-9,3 -13,10 -10,15c3,5 10,6 16,3c7,-5 8,-2 4,7c-5,8 14,-9 42,-36c45,-47 51,-58 71,-142c11,-50 21,-113 21,-140c0,-65 22,-135 55,-178c29,-39 20,-48 -12,-12c-49,53 -56,75 -64,200c-8,132 -23,186 -71,251c-38,54 -35,41 6,-28c38,-63 56,-144 56,-250c0,-121 31,-164 183,-258c54,-33 96,-62 93,-65c-9,-10 -185,89 -219,123c-56,56 -69,94 -73,213c-3,57 -7,107 -10,110c-4,3 -4,-46 -2,-111c6,-123 -3,-167 -20,-107c-7,21 -11,26 -11,13c-1,-11 14,-46 33,-77c40,-66 32,-77 -10,-15c-29,41 -29,42 -26,172c2,91 0,126 -8,116c-5,-8 -10,-62 -10,-119c0,-121 17,-171 77,-220c40,-33 139,-89 130,-74c-4,6 4,11 18,11c14,0 22,-4 19,-9c-3,-5 3,-6 12,-2c11,4 15,3 11,-4c-5,-7 1,-9 15,-6c15,3 19,2 11,-4c-9,-6 -4,-14 18,-27c17,-10 33,-16 36,-13c2,3 -8,12 -24,21c-37,20 -21,20 19,0c24,-12 28,-18 17,-25c-10,-6 -10,-9 -1,-9c6,0 12,-4 12,-9c0,-5 -28,6 -62,25c-35,18 -74,34 -88,34c-14,0 -45,10 -70,22c-25,11 -49,22 -55,22c-21,2 -81,46 -101,73c-39,54 -44,83 -42,228c1,127 -1,146 -22,200c-13,33 -23,63 -22,68c1,4 -1,6 -6,5c-4,-2 -25,16 -46,40c-21,23 -34,42 -30,42c5,0 -6,10 -24,22c-25,16 -30,23 -20,30c10,7 8,8 -7,7c-32,-2 -45,0 -45,9c0,11 85,0 168,-22zm-1563,-64c32,-28 56,-55 54,-60c-6,-14 -172,-203 -175,-199c-2,2 7,59 21,128c13,68 25,147 25,174c1,38 3,45 10,29c4,-11 34,-44 65,-72zm844,-145c18,-48 34,-98 37,-112c5,-28 -19,-132 -34,-147c-6,-6 -47,-22 -92,-37c-72,-25 -83,-26 -88,-12c-3,9 -18,38 -34,64c-15,26 -28,51 -28,56c0,4 30,32 67,62c107,86 94,82 148,48c26,-16 49,-28 52,-26c2,3 -19,19 -46,36c-51,33 -180,195 -166,209c3,4 30,25 58,48l52,40l20,-70c12,-39 36,-110 54,-159zm514,166c126,-107 116,-89 116,-194c0,-52 4,-109 10,-128c9,-28 7,-38 -10,-62c-11,-16 -36,-61 -55,-101c-26,-55 -33,-65 -29,-39c3,18 5,83 5,143l0,110l46,-49c49,-50 32,-23 -21,35l-30,34l40,35c22,19 31,30 20,25c-11,-6 -30,-20 -42,-31l-21,-20l-25,42c-14,23 -25,42 -24,43c1,0 30,-2 64,-5l62,-7l-20,31c-11,16 -27,44 -36,60c-9,17 -44,55 -77,85l-61,54l54,-57c30,-31 53,-58 50,-59c-2,-2 -18,-16 -35,-31l-31,-28l-114,73c-141,91 -139,90 -139,83c0,-3 56,-42 125,-86c69,-45 124,-83 123,-84c-4,-4 -216,43 -227,50c-8,4 -21,61 -26,115l-3,25l122,-2l121,-1l68,-59zm-800,21c38,-20 66,-38 63,-41c-14,-14 -101,0 -196,31c-58,20 -91,33 -75,31c17,-2 50,0 75,4c25,5 50,9 55,10c6,0 41,-15 78,-35zm-115,-30c67,-20 131,-34 150,-32c31,4 32,3 27,-26c-13,-78 -25,-264 -25,-393l0,-142l-44,15c-25,9 -49,21 -54,27c-9,11 -142,237 -142,242c0,1 28,-4 63,-11c61,-13 186,-27 157,-18c-8,2 -60,12 -115,23c-55,10 -107,20 -115,22c-8,2 -14,0 -15,-6c0,-5 -22,-45 -49,-87l-49,-78l-17,48c-10,26 -25,65 -35,87c-9,22 -23,56 -30,76l-13,37l90,-40c63,-27 94,-36 101,-29c8,8 -4,47 -37,128c-26,65 -53,129 -61,143c-13,25 -13,25 38,36c29,6 53,12 55,13c1,0 55,-15 120,-35zm1167,-10c19,-12 22,-18 12,-29c-19,-20 -41,-11 -42,18c-2,32 -2,32 30,11zm-902,-106l56,-77l-77,-64c-42,-36 -78,-64 -78,-64c-1,1 4,67 12,147c7,80 13,147 14,150c0,6 13,-9 73,-92zm-1877,7c-4,-18 -13,-39 -22,-46c-13,-10 -14,-7 -8,32c4,24 12,53 17,64c11,19 11,19 15,2c2,-11 1,-34 -2,-52zm2564,46c0,-4 12,-25 26,-46l25,-38l-58,7c-78,9 -86,20 -43,56c36,30 50,36 50,21zm-1345,-190c-15,-64 -31,-120 -36,-125c-5,-5 -34,8 -71,32c-34,23 -64,40 -65,38c-2,-1 6,-29 17,-62l21,-59l-28,-23c-32,-26 -63,-45 -63,-38c0,4 6,32 35,164c3,12 44,64 91,115c47,50 93,105 102,120l17,29l3,-37c2,-21 -9,-90 -23,-154zm1039,-60c14,-161 14,-180 -1,-243l-16,-68l-25,42c-13,24 -35,70 -49,103c-14,33 -40,91 -59,128c-22,45 -31,74 -26,84c5,8 40,52 78,97c83,100 76,110 98,-143zm126,198c52,-11 100,-25 106,-32c7,-6 24,-34 38,-62c23,-44 26,-62 26,-145c0,-100 -14,-239 -30,-301c-9,-33 -15,-38 -68,-53c-31,-9 -78,-23 -105,-31l-47,-14l-26,52c-25,49 -26,54 -14,119c12,67 23,88 35,68c10,-16 206,-162 211,-157c3,2 -45,41 -105,86c-61,46 -112,90 -115,99c-3,9 -12,94 -21,187c-8,94 -18,181 -21,194c-4,21 -2,23 18,17c13,-4 66,-15 118,-27zm-1036,-243l48,-118l-37,-93l-38,-93l-60,21c-33,12 -62,28 -64,35c-3,7 -2,37 2,67l6,55l73,-7c46,-3 80,-2 92,5c15,9 -1,11 -73,12l-91,0l-6,38c-4,25 3,74 24,156c16,65 30,132 30,150c1,24 6,16 24,-39c12,-38 44,-123 70,-189zm-423,166c-5,-10 -18,-25 -27,-33c-11,-9 -9,-2 6,19c26,35 36,42 21,14zm1946,-44c-3,-8 -6,-5 -6,6c-1,11 2,17 5,13c3,-3 4,-12 1,-19zm-733,-205l54,-123l-56,-1c-31,-1 -68,-5 -82,-9c-15,-5 10,-6 62,-3l87,6l45,-94l45,-94l76,-23c57,-17 74,-26 68,-36c-10,-18 -92,-106 -98,-106c-3,0 -5,12 -5,28c0,32 -28,136 -29,107c0,-11 6,-48 13,-82c11,-51 11,-65 1,-73c-10,-8 -27,5 -70,54c-32,36 -61,63 -65,61c-4,-3 -15,6 -24,19c-15,24 -15,24 22,31c21,3 44,10 52,15c21,14 0,12 -53,-4c-45,-13 -57,-12 -57,6c0,5 6,6 13,2c6,-4 4,2 -7,14c-10,12 -22,20 -26,17c-4,-2 -18,7 -31,22c-13,14 -36,31 -50,37c-23,10 -25,14 -17,36l9,25l22,-25c12,-14 32,-39 45,-55c30,-38 17,-11 -15,33c-13,17 -22,32 -20,32c3,0 35,-18 71,-40c37,-23 82,-48 101,-57c19,-9 35,-20 35,-25c0,-4 8,-8 17,-8c15,0 14,2 -4,15c-40,28 -218,127 -233,130c-18,3 -18,6 11,173c12,73 26,129 30,125c4,-5 32,-63 63,-130zm-549,-3c35,-61 58,-110 52,-107c-7,2 -63,19 -124,38c-108,32 -112,34 -100,54c8,11 31,48 52,83c23,38 42,59 48,53c5,-5 37,-59 72,-121zm-456,72l34,-21l-34,-14c-33,-14 -34,-13 -45,12c-6,14 -15,37 -19,51c-7,24 -7,24 11,9c11,-9 34,-26 53,-37zm1511,-105c-11,-46 -17,-92 -14,-102c5,-13 4,-16 -4,-11c-7,4 -12,1 -12,-8c0,-18 -57,-86 -72,-86c-6,0 -7,17 -4,43c8,48 119,287 124,263c2,-9 -6,-53 -18,-99zm-835,42l26,-50l-25,-45c-13,-24 -20,-44 -15,-44c5,0 15,16 24,35c11,28 26,41 69,60c31,14 67,27 82,31c23,6 25,5 16,-12c-6,-11 -48,-62 -94,-113l-83,-95l-6,45c-3,24 -7,36 -7,26c-1,-10 -6,-15 -12,-12c-5,3 -10,2 -10,-4c0,-5 5,-13 10,-16c6,-3 10,-15 10,-26c0,-15 -16,-28 -62,-49c-35,-16 -76,-32 -93,-36c-25,-6 -19,2 40,53c102,87 98,78 96,198c-1,58 0,105 3,105c3,0 17,-23 31,-51zm-632,-6c-3,-21 -14,-57 -25,-81c-21,-51 -23,-81 -2,-37l15,30l-7,-35c-4,-19 -7,-45 -9,-57c-4,-46 -11,-29 -31,78l-21,110l31,14c50,22 55,19 49,-22zm836,-93c-23,-118 -23,-118 -52,-131c-12,-5 -43,-22 -68,-38c-73,-45 -215,-98 -313,-116c-94,-18 -266,-22 -385,-10l-71,7l0,71c0,52 4,75 17,89c9,10 18,26 19,36c2,9 10,58 18,107l15,90l-5,-85c-3,-47 -9,-89 -14,-94c-5,-5 -6,-14 -4,-21c3,-7 0,-33 -7,-56c-7,-24 -13,-47 -15,-51c-1,-5 -2,-9 -3,-10c-1,-2 -4,-19 -6,-37c-2,-27 -1,-31 7,-17c5,9 7,24 4,32c-3,8 -1,14 4,14c6,0 10,6 10,13c0,9 11,12 37,9l36,-5l-30,-12c-29,-12 -44,-33 -43,-58c1,-7 7,2 16,18l14,30l-5,-30l-4,-30l14,33c18,39 27,41 20,5l-5,-28l11,28c6,15 15,27 21,27c6,0 7,-7 4,-15c-3,-8 -9,-23 -12,-32c-5,-15 -4,-16 5,-3c9,13 11,13 11,0c1,-12 3,-11 11,2c5,10 9,26 7,35c-2,10 3,18 10,17c44,-4 44,-4 40,-38c-2,-19 0,-32 4,-30c4,3 8,13 8,24c0,10 7,20 15,24c13,5 14,2 4,-15c-6,-11 -8,-23 -6,-26c3,-2 8,5 12,16c3,12 11,21 16,21c12,0 11,-6 -2,-33c-9,-20 -9,-21 4,-4c11,13 16,14 19,6c3,-9 7,-7 11,5c4,10 3,15 -3,11c-6,-3 -10,-1 -10,4c0,6 9,11 20,11c23,0 24,-4 10,-31c-16,-30 -3,-22 15,9l16,27l-5,-30c-3,-16 -3,-24 0,-17c3,6 9,10 14,7c4,-3 7,3 6,12c0,9 4,18 10,20c7,2 10,-7 8,-24c-2,-16 -1,-20 2,-8c9,29 28,46 21,17c-3,-12 -1,-20 4,-16c5,3 9,12 9,20c0,8 7,14 16,14c11,0 14,-6 9,-22c-5,-22 -5,-22 8,1c14,23 15,23 20,5c4,-17 5,-16 6,4c1,21 -2,22 -94,22c-99,0 -195,15 -195,31c0,23 34,60 49,54c9,-4 61,-20 116,-36c120,-36 145,-47 146,-68c0,-14 1,-14 6,-1c6,16 32,40 45,40c4,0 3,-11 -2,-25c-5,-14 -7,-25 -5,-25c3,0 10,11 15,24c5,14 19,30 31,36c20,11 21,10 15,-16c-5,-21 -4,-25 4,-14c5,8 10,23 10,33c0,9 4,17 9,17c5,0 7,-10 5,-22c-3,-14 1,-10 10,10c18,39 30,42 22,5c-4,-21 0,-18 14,12l19,40l1,-30l2,-30l7,29c9,44 35,48 27,5c-5,-31 -5,-32 5,-9c5,14 8,33 5,43c-3,12 14,39 51,80c31,34 68,81 83,104c15,23 30,40 34,36c3,-3 6,0 6,7c0,7 2,11 5,8c3,-3 -4,-51 -16,-108zm885,28c-3,-13 -3,-20 1,-16c4,4 17,-7 29,-24c19,-29 75,-76 122,-104c16,-10 15,-11 -13,-9c-32,2 -120,52 -110,62c3,3 21,-7 40,-21c19,-14 38,-26 43,-26c5,0 -7,11 -26,24c-63,44 -103,95 -94,120c9,24 16,19 8,-6zm-2313,-30c23,-46 116,-186 134,-203c9,-9 35,-60 35,-70c0,-2 -22,10 -50,27c-46,28 -108,94 -98,103c2,3 21,-7 42,-21c21,-14 39,-24 42,-22c2,3 -22,22 -54,44c-51,35 -58,45 -68,89c-13,54 -17,95 -9,95c2,0 14,-19 26,-42zm947,7c105,-32 212,-66 220,-71c4,-2 -76,-77 -125,-118l-32,-27l-123,37c-68,20 -126,39 -130,42c-8,8 53,171 65,172c4,0 60,-16 125,-35zm-594,-42c-16,-27 -42,-74 -60,-106l-31,-58l-7,82c-4,45 -4,84 -1,88c4,3 32,13 63,22c31,9 59,17 60,18c2,0 -9,-20 -24,-46zm326,-81c25,-8 46,-16 48,-17c1,-1 -5,-17 -15,-34c-17,-30 -20,-32 -62,-26c-69,10 -69,10 -58,61c8,35 14,43 26,38c9,-3 36,-13 61,-22zm828,-111c51,-59 100,-132 200,-299c35,-58 41,-96 16,-106c-9,-3 -34,-7 -57,-7l-42,-1l47,-8c65,-11 69,-15 65,-66c-4,-50 16,-61 35,-20c15,35 39,41 60,16c17,-21 16,-46 -2,-35c-5,3 -12,0 -16,-6c-4,-8 -3,-9 4,-5c18,11 14,-2 -10,-34c-11,-16 -25,-27 -29,-24c-4,2 -11,-1 -15,-7c-5,-8 -3,-9 6,-4c8,5 11,3 9,-4c-3,-7 -8,-12 -13,-11c-4,1 -18,-18 -30,-42c-33,-64 -57,-98 -66,-93c-5,3 -12,0 -16,-6c-5,-8 -3,-9 6,-4c8,5 11,3 8,-6c-3,-8 -10,-13 -16,-12c-6,2 -30,-23 -52,-55c-22,-31 -54,-74 -72,-95c-20,-23 -28,-41 -22,-47c6,-6 15,-5 24,1c13,9 12,10 -2,5c-26,-8 -23,-2 25,57c23,28 53,69 66,90c13,21 26,36 28,33c5,-5 -51,-102 -67,-116c-3,-3 -27,-48 -54,-100c-51,-100 -85,-148 -71,-100c5,14 8,32 8,40c0,8 8,21 17,30c9,8 11,11 4,7c-7,-4 -15,-3 -19,3c-8,13 3,50 16,50c20,0 7,18 -16,22c-16,3 -30,-1 -37,-11c-11,-14 -11,-14 2,-4c25,19 37,2 25,-35c-10,-29 -13,-31 -24,-18c-8,9 -18,16 -24,16c-6,0 0,-8 13,-17c14,-10 30,-16 35,-15c6,2 5,-2 -1,-8c-9,-9 -18,-8 -36,4c-20,13 -25,14 -25,2c0,-8 7,-12 16,-9c9,3 5,-5 -9,-17c-23,-21 -25,-21 -38,-3c-13,17 -13,16 -10,-7c2,-14 8,-24 15,-23c6,1 10,-4 9,-12c0,-8 4,-14 9,-14c6,0 9,8 7,18c-3,22 23,45 43,37c24,-9 18,-29 -20,-65l-35,-32l-11,24c-6,14 -20,28 -31,30c-11,3 -17,3 -14,0c3,-4 2,-11 -4,-17c-6,-8 -2,-16 13,-26c20,-12 21,-12 8,4c-8,9 -11,19 -8,23c11,10 46,-40 47,-65c0,-17 -5,-23 -17,-20c-9,2 -18,9 -21,16c-2,8 3,10 15,6c14,-5 15,-4 4,4c-8,6 -20,8 -27,5c-7,-2 -23,1 -36,7l-23,11l22,-19c12,-11 19,-23 15,-26c-3,-4 1,-4 10,-1c9,4 19,1 23,-5c9,-14 -59,-12 -88,2c-16,8 -15,12 12,44c17,19 38,49 47,67c9,17 29,46 44,62c73,77 270,414 270,461c0,8 4,14 9,14c9,0 -11,131 -28,190c-6,19 -11,38 -11,42c0,4 26,9 58,11l57,3l-60,2l-61,2l-23,78c-12,42 -40,105 -61,139l-39,62l27,4c21,3 18,5 -13,7c-39,2 -39,3 -10,10l30,8l-35,1c-31,2 -33,3 -12,11c28,12 29,20 0,12c-16,-4 -29,3 -49,28c-16,18 -26,37 -23,41c11,19 70,-19 122,-80zm1044,-4c23,-45 35,-136 21,-161c-6,-11 -9,0 -10,39c-1,36 -10,72 -27,107c-26,53 -26,48 1,-27c16,-42 19,-153 6,-166c-4,-4 -8,27 -8,69c0,63 -5,88 -28,136c-15,32 -27,60 -27,62c0,2 12,-2 26,-8c14,-7 35,-30 46,-51zm-2586,6c33,-27 45,-53 23,-53c-22,0 -99,23 -99,30c0,17 15,18 42,4c17,-9 32,-13 34,-11c3,2 -9,10 -26,17c-30,12 -36,21 -23,33c9,10 11,9 49,-20zm9,-63c11,-1 14,-4 7,-7c-17,-7 -113,17 -107,27c3,4 22,2 42,-6c21,-7 47,-14 58,-14zm127,-22c-11,-11 -92,24 -92,39c0,7 17,4 50,-10c28,-11 46,-25 42,-29zm363,42c3,-5 1,-10 -4,-10c-6,0 -11,5 -11,10c0,6 2,10 4,10c3,0 8,-4 11,-10zm2,-27c10,-10 12,-13 4,-8c-12,8 -13,7 -6,-5c4,-8 15,-23 23,-33c14,-15 14,-23 2,-55c-20,-56 -22,-70 -6,-37c15,29 15,28 16,-45c0,-42 8,-106 19,-145c11,-38 16,-72 11,-75c-5,-3 0,-19 10,-35c11,-17 20,-25 20,-19c0,5 -6,16 -12,24c-11,12 -10,12 5,1c9,-8 15,-21 12,-30c-2,-9 4,-29 15,-46c25,-38 25,-43 -3,-38c-18,4 -27,18 -42,66c-19,59 -21,68 -24,93c0,7 -12,15 -26,18c-14,4 -23,11 -20,16c4,6 -1,7 -11,3c-11,-4 -15,-3 -10,5c3,6 -3,16 -15,22c-47,26 -23,-12 31,-49c28,-18 39,-36 53,-82c9,-32 17,-64 17,-71c0,-12 -39,-44 -44,-36c-10,14 -25,91 -20,100c4,6 3,8 -4,4c-6,-3 -15,9 -23,31c-16,52 -70,159 -140,279c-33,55 -59,105 -59,109c0,24 41,-36 85,-124c27,-55 51,-99 53,-97c2,2 -3,17 -12,34c-14,27 -13,35 11,115c14,48 29,84 33,82c4,-2 10,-31 13,-64c6,-57 -11,-140 -34,-165c-11,-13 -11,-26 0,-26c4,0 17,27 28,61l20,60l16,-58c9,-32 21,-78 27,-102c6,-23 14,-41 17,-38c3,3 -9,57 -27,119c-17,62 -34,136 -37,165c-6,57 -28,78 -42,40c-22,-58 -41,-119 -42,-135c0,-9 -13,10 -29,42l-29,59l72,43c40,23 75,42 78,43c4,1 15,-7 26,-16zm-542,-4c25,-6 42,-15 40,-20c-3,-4 -17,-4 -31,1c-14,6 -37,10 -52,9c-19,-1 -12,-5 23,-14c60,-15 44,-23 -20,-11c-28,6 -27,5 4,-7c22,-8 30,-16 23,-21c-6,-4 -21,-2 -33,4c-11,7 -23,9 -27,6c-3,-3 1,-6 8,-6c7,0 10,-3 7,-7c-4,-3 -1,-13 6,-21c10,-13 9,-15 -8,-8c-41,16 -49,17 -25,2c16,-10 19,-15 10,-16c-13,0 -13,-1 0,-10c13,-8 13,-11 1,-22c-10,-10 -12,-10 -7,0c4,6 3,12 -3,12c-21,0 -30,-35 -14,-55c15,-20 15,-19 8,3c-5,16 -2,22 9,22c9,0 16,4 16,9c0,14 30,7 41,-10c8,-10 8,-7 4,10c-5,15 -3,21 3,17c5,-3 13,1 16,9c4,11 0,15 -11,13c-9,-2 -18,3 -21,11c-3,10 0,12 11,8c11,-4 14,-2 10,9c-3,7 0,14 5,14c6,0 28,18 49,39l38,39l40,-17l40,-18l-62,-32c-63,-32 -84,-48 -39,-31c20,7 26,6 29,-8c4,-13 5,-12 6,4c1,30 29,39 34,11c3,-17 5,-16 7,8c2,30 2,30 10,5l8,-25l1,26c1,39 37,59 75,44l29,-12l-74,-40c-41,-22 -110,-60 -154,-83c-43,-23 -88,-48 -99,-56c-29,-20 -34,-18 -41,15c-3,15 -16,33 -28,39c-12,6 -16,11 -9,11c6,1 12,6 12,12c0,8 -5,7 -15,-1c-9,-7 -13,-15 -10,-18c3,-3 0,-11 -6,-18c-7,-8 -7,-14 1,-19c6,-3 7,-11 4,-17c-4,-6 -2,-8 4,-4c5,3 12,3 15,-1c2,-5 3,-3 1,4c-5,22 10,23 22,1c10,-19 8,-25 -15,-48c-36,-36 -71,-141 -77,-231c-2,-41 -6,-90 -8,-111c-3,-30 2,-42 30,-72c34,-36 42,-68 24,-96c-5,-8 -10,-11 -10,-6c0,6 -7,1 -16,-10c-15,-18 -15,-18 -9,6c4,14 9,42 12,63c4,31 3,36 -11,31c-11,-4 -16,0 -17,12c0,11 -3,14 -6,7c-10,-26 -33,-13 -34,20l-1,32l-8,-38c-12,-62 -20,-54 -19,19c0,48 3,63 9,49c5,-11 9,-15 9,-8c1,18 -29,277 -34,290c-6,18 20,75 30,66c4,-5 5,-3 1,4c-4,8 10,27 36,50c62,55 116,113 145,156c29,42 28,41 88,26zm2758,-136c-3,-7 -9,-13 -14,-13c-4,0 -6,-6 -3,-14c3,-7 -6,-21 -20,-30c-26,-17 -31,-12 -27,23c2,7 -2,10 -8,6c-16,-9 -13,11 2,24c14,11 27,5 27,-13c0,-6 -4,-5 -9,3c-7,10 -9,6 -8,-13c2,-23 4,-24 14,-10c12,16 32,96 34,137c1,12 5,-2 9,-32c5,-30 6,-60 3,-68zm-2793,57c0,-5 -2,-10 -4,-10c-3,0 -8,5 -11,10c-3,6 -1,10 4,10c6,0 11,-4 11,-10zm2893,-52c0,-55 -23,-98 -80,-154c-65,-61 -75,-55 -16,10c51,56 73,107 73,172c0,29 3,35 12,26c6,-6 11,-31 11,-54zm-2893,12c0,-5 -4,-10 -10,-10c-5,0 -10,5 -10,10c0,6 5,10 10,10c6,0 10,-4 10,-10zm1975,-67c52,-26 95,-51 95,-56c0,-16 -93,-95 -111,-94c-9,0 -16,6 -15,12c1,5 -13,39 -31,75c-33,69 -48,110 -39,110c3,0 49,-21 101,-47zm-2080,7c-3,-5 -11,-10 -16,-10c-6,0 -7,5 -4,10c3,6 11,10 16,10c6,0 7,-4 4,-10zm2855,-44c0,-2 -8,-10 -17,-17c-16,-13 -17,-12 -4,4c13,16 21,21 21,13zm-330,-61l25,-14l-37,-1c-20,0 -45,3 -55,7c-16,6 -15,8 7,14c35,10 32,10 60,-6zm168,-35c-7,-11 -15,-15 -17,-9c-2,6 3,15 10,20c20,12 21,11 7,-11zm-678,-52c7,-11 7,-19 0,-23c-5,-3 -10,0 -10,7c-1,7 -7,-2 -15,-19c-15,-36 -30,-45 -21,-13c3,11 9,30 12,41c4,14 2,19 -5,15c-7,-5 -11,4 -11,26l0,33l21,-25c11,-14 24,-33 29,-42zm167,16c-16,-9 -32,-13 -35,-9c-9,9 19,25 43,24c16,0 15,-2 -8,-15zm647,-71c9,-57 7,-203 -3,-203c-5,0 -11,-9 -14,-19c-2,-10 -15,-25 -28,-32c-22,-11 -23,-11 -10,5c8,10 18,45 22,79c6,50 4,68 -12,98c-10,21 -23,40 -28,44c-6,3 2,-15 16,-40c14,-25 23,-49 19,-52c-3,-4 -6,-2 -6,4c0,6 -11,27 -25,48c-20,29 -23,40 -14,51c18,21 24,17 45,-27c10,-23 20,-36 22,-30c2,6 -6,27 -18,47c-24,37 -18,63 6,30c8,-11 14,-15 14,-9c0,7 -5,15 -10,18c-6,4 -8,11 -5,16c12,19 23,8 29,-28zm-579,-30c12,-11 15,-27 12,-52c-3,-20 -7,-143 -9,-273c-3,-131 -7,-240 -10,-243c-3,-3 -13,-3 -22,1c-19,7 -21,33 -3,40c13,5 11,84 -2,84c-4,0 -6,-13 -3,-29c2,-16 -1,-37 -8,-48c-9,-14 -10,-6 -7,42c3,33 1,115 -4,183c-7,110 -11,126 -33,153c-14,16 -31,47 -37,69c-10,33 -9,43 5,65c13,20 24,25 61,25c27,0 50,-6 60,-17zm-75,-222c5,-36 5,-74 -1,-94c-11,-40 -11,-40 1,-32c6,4 10,-25 10,-79c0,-47 -3,-86 -6,-86c-3,0 -13,4 -23,9c-13,7 -18,6 -18,-5c0,-8 10,-14 23,-14c27,0 37,-26 32,-85c-3,-42 -25,-62 -54,-51c-17,7 -15,9 14,21c27,12 32,19 32,48c0,33 -15,57 -34,57c-6,0 -3,-5 7,-11c20,-12 23,-59 5,-77c-7,-7 -22,-12 -35,-12c-25,0 -30,-15 -10,-33c16,-15 48,-15 64,0c18,16 35,64 29,80c-6,15 6,17 20,3c20,-20 3,-69 -31,-90c-35,-22 -62,-78 -51,-107c4,-8 1,-22 -5,-29c-10,-12 -9,-13 5,-8c12,5 16,0 16,-20c0,-31 -3,-31 -84,-10c-58,15 -96,34 -67,34c7,0 10,4 6,10c-3,5 10,30 30,55c19,26 35,54 35,63c0,10 11,60 24,112c18,71 26,138 31,263c8,175 19,202 35,88zm751,29c-13,-11 -31,-20 -39,-20c-9,0 -1,9 18,19c45,25 51,25 21,1zm-61,-26c0,-2 -12,-4 -26,-4c-14,0 -23,4 -20,9c6,8 46,4 46,-5zm-2940,-29c7,-9 10,-25 6,-41c-6,-22 -11,-25 -36,-22c-16,2 -27,1 -24,-4c3,-4 17,-8 32,-9c15,0 21,-3 14,-6c-10,-4 -10,-8 -1,-19c10,-13 14,-12 30,2c16,15 20,15 43,-3c16,-11 24,-25 22,-36c-2,-9 0,-15 5,-11c5,3 9,12 9,20c0,18 34,18 49,1c19,-23 24,-73 11,-111c-6,-20 -14,-36 -16,-36c-14,0 -74,57 -74,71c0,18 -36,53 -97,93c-50,33 -65,76 -37,107c20,23 47,25 64,4zm230,-144c14,-27 12,-139 -3,-175l-12,-29l-32,27l-31,26l18,37c21,43 35,114 23,112c-20,-3 -27,2 -13,11c23,15 38,12 50,-9zm1379,-321c36,-3 66,-10 68,-16c2,-6 -42,-28 -97,-50c-55,-21 -96,-40 -91,-42c5,-2 49,13 96,33c48,20 89,34 92,32c6,-7 -145,-68 -183,-74l-34,-6l14,41c25,69 46,103 59,95c7,-4 41,-10 76,-13zm586,-157c29,-4 43,-9 37,-15c-12,-12 -104,6 -144,26c-26,14 -27,14 -42,-32c-9,-25 -16,-47 -16,-49c0,-14 164,11 187,29c15,12 29,-10 14,-25c-12,-12 -158,-22 -195,-13c-24,6 -25,7 -11,45c7,21 19,47 26,58c12,20 13,20 55,2c23,-11 63,-22 89,-26zm-1280,-4c33,-7 63,-18 67,-23c11,-16 -30,-27 -70,-20c-20,4 -32,3 -29,-2c3,-5 -20,-8 -51,-6c-80,4 -84,6 -70,37c6,14 15,25 20,25c5,0 6,-5 3,-10c-7,-11 54,-40 82,-39c10,0 -4,7 -31,15c-65,20 -54,27 14,9c30,-8 71,-14 90,-13c33,1 33,1 5,5c-66,7 -155,36 -155,49c0,11 5,11 33,0c17,-8 59,-20 92,-27zm1230,-15c28,-8 55,-16 60,-18c14,-4 -131,-28 -148,-24c-11,2 -12,9 -6,25c8,21 10,22 43,8c20,-8 46,-15 58,-14c13,0 1,6 -25,13c-27,7 -54,19 -60,26c-10,10 -8,11 8,5c11,-4 43,-14 70,-21zm-1315,-49c30,-3 79,-2 108,3c60,10 82,-3 25,-15c-40,-8 -222,-8 -230,1c-10,10 9,27 25,22c10,-3 42,-7 72,-11z"/>
   <path id="svg_3" d="m786,8698c37,-63 57,-89 75,-98c25,-14 21,-5 -31,63c-31,42 -62,66 -44,35z"/>
   <path id="svg_4" d="m990,8710c-19,-11 -31,-19 -27,-20c11,0 67,29 67,35c0,7 -1,7 -40,-15z"/>
   <path id="svg_5" d="m1092,8704c-24,-14 -41,-28 -39,-30c3,-3 26,9 53,25c58,38 46,41 -14,5z"/>
   <path id="svg_6" d="m660,8662c6,-13 14,-21 18,-18c3,4 -2,14 -12,24c-18,16 -18,16 -6,-6z"/>
   <path id="svg_7" d="m729,8603c-13,-16 -12,-17 4,-4c16,13 21,21 13,21c-2,0 -10,-8 -17,-17z"/>
   <path id="svg_8" d="m730,8539c-6,-11 -10,-28 -8,-37c2,-10 8,-1 15,21c12,41 10,48 -7,16z"/>
   <path id="svg_9" d="m917,8479c7,-7 15,-10 18,-7c3,3 -2,9 -12,12c-14,6 -15,5 -6,-5z"/>
   <path id="svg_10" d="m1247,8034c-16,-9 -27,-18 -24,-21c6,-5 67,24 67,32c0,8 -14,5 -43,-11z"/>
   <path id="svg_11" d="m1298,8633c7,-3 16,-2 19,1c4,3 -2,6 -13,5c-11,0 -14,-3 -6,-6z"/>
   <path id="svg_12" d="m1524,8479c10,-6 55,-14 100,-16c71,-5 109,-15 179,-51c4,-2 7,2 7,9c0,7 -3,9 -6,6c-4,-4 -20,3 -36,14c-27,19 -60,26 -213,43c-39,4 -46,3 -31,-5z"/>
   <path id="svg_13" d="m1630,8198c-1,-74 -25,-121 -121,-229c-116,-132 -128,-148 -34,-50c44,47 92,100 108,119c15,19 27,29 27,22c0,-23 13,-1 17,27c10,82 15,163 9,163c-3,0 -6,-24 -6,-52z"/>
   <path id="svg_14" d="m747,8399c-9,-29 -15,-54 -13,-56c6,-6 38,87 34,98c-2,6 -11,-13 -21,-42z"/>
   <path id="svg_15" d="m692,7804c2,-20 9,-39 16,-42c10,-3 12,6 10,34c-2,20 -9,39 -16,42c-10,3 -12,-6 -10,-34z"/>
   <path id="svg_16" d="m1678,8197c4,-102 10,-115 11,-27c0,41 -3,80 -7,87c-4,7 -6,-20 -4,-60z"/>
   <path id="svg_17" d="m1836,8197c31,-23 96,-31 138,-17c20,6 38,15 41,19c2,5 -15,1 -40,-8c-44,-15 -70,-13 -140,14c-19,7 -18,6 1,-8z"/>
   <path id="svg_18" d="m1851,8104c0,-11 3,-14 6,-6c3,7 2,16 -1,19c-3,4 -6,-2 -5,-13z"/>
   <path id="svg_19" d="m1863,8035c0,-27 2,-38 4,-22c2,15 2,37 0,50c-2,12 -4,0 -4,-28z"/>
   <path id="svg_20" d="m1316,7527c-5,-10 -6,-40 -3,-66c4,-29 0,-67 -8,-95c-8,-26 -10,-44 -6,-41c5,2 12,21 15,40c11,58 21,40 32,-55c6,-50 16,-96 22,-102c8,-8 9,-1 1,27c-6,21 -12,67 -13,101c-1,34 -7,68 -13,76c-7,7 -13,41 -15,73c-2,43 -6,55 -12,42z"/>
   <path id="svg_21" d="m1991,6684c0,-11 3,-14 6,-6c3,7 2,16 -1,19c-3,4 -6,-2 -5,-13z"/>
   <path id="svg_22" d="m2029,6380c-3,-15 -13,-27 -29,-31c-16,-4 -19,-7 -7,-8c19,-1 24,-21 5,-22c-7,0 -2,-5 11,-10c13,-5 26,-7 29,-4c3,3 -1,5 -8,5c-9,0 -7,5 6,15c18,14 18,15 0,9c-16,-6 -17,-5 -7,15c7,12 10,30 8,39c-2,12 -5,10 -8,-8z"/>
   <path id="svg_23" d="m2043,6270c-7,-11 -13,-23 -13,-27c0,-5 4,-2 9,6c6,9 11,-3 15,-35c11,-78 38,-197 49,-219c6,-11 14,-36 18,-55l7,-35l1,31c0,17 -8,51 -18,75c-16,36 -33,122 -54,267c-1,8 -7,5 -14,-8z"/>
   <path id="svg_24" d="m2001,6264c0,-11 3,-14 6,-6c3,7 2,16 -1,19c-3,4 -6,-2 -5,-13z"/>
   <path id="svg_25" d="m2015,6210c19,-112 24,-126 18,-55c-3,39 -10,75 -15,80c-6,6 -7,-2 -3,-25z"/>
   <path id="svg_26" d="m2042,6055c0,-16 2,-22 5,-12c2,9 2,23 0,30c-3,6 -5,-1 -5,-18z"/>
   <path id="svg_27" d="m2035,5830c-3,-5 -1,-10 4,-10c6,0 11,5 11,10c0,6 -2,10 -4,10c-3,0 -8,-4 -11,-10z"/>
   <path id="svg_28" d="m2015,5800c-13,-6 -15,-9 -5,-9c8,0 22,4 30,9c18,12 2,12 -25,0z"/>
   <path id="svg_29" d="m1988,5769c13,-5 34,-11 48,-13c13,-3 28,-7 34,-11c5,-3 10,-2 10,3c0,5 -20,15 -44,21c-53,13 -80,13 -48,0z"/>
   <path id="svg_30" d="m3018,8063c7,-3 16,-2 19,1c4,3 -2,6 -13,5c-11,0 -14,-3 -6,-6z"/>
   <path id="svg_31" d="m2935,8015c58,-34 75,-40 75,-30c0,6 -116,65 -127,65c-4,0 19,-16 52,-35z"/>
   <path id="svg_32" d="m2095,7985c17,-8 39,-14 50,-14c11,0 0,7 -25,15c-56,17 -64,17 -25,-1z"/>
   <path id="svg_33" d="m2535,7970c3,-5 16,-10 28,-9c21,0 21,1 2,9c-28,12 -37,12 -30,0z"/>
   <path id="svg_34" d="m3515,7641c3,-18 6,-45 6,-60c1,-14 5,-4 10,24c4,27 6,51 3,54c-2,2 -4,-4 -5,-15c-1,-15 -3,-14 -10,6c-7,21 -8,20 -4,-9z"/>
   <path id="svg_35" d="m3531,7504c0,-11 3,-14 6,-6c3,7 2,16 -1,19c-3,4 -6,-2 -5,-13z"/>
   <path id="svg_36" d="m1540,7712c-60,-59 -110,-114 -110,-121c0,-8 14,4 30,25c17,22 70,76 118,121c48,45 84,82 80,83c-4,0 -57,-49 -118,-108z"/>
   <path id="svg_37" d="m1446,7785c8,-50 14,-58 14,-19c0,16 -5,36 -11,44c-7,11 -8,4 -3,-25z"/>
   <path id="svg_38" d="m1356,7675c4,-16 11,-37 15,-45c6,-10 7,-4 3,15c-4,17 -11,37 -15,45c-6,10 -7,4 -3,-15z"/>
   <path id="svg_39" d="m3705,7828c33,-34 62,-65 65,-68c3,-3 5,-9 5,-15c1,-5 9,-35 18,-65c10,-30 22,-91 28,-135c18,-146 30,-166 159,-261c83,-61 122,-97 163,-154l18,-25l-12,25c-25,52 -65,92 -163,164c-55,41 -109,87 -118,104c-10,16 -25,79 -34,138c-14,98 -25,139 -49,198c-6,14 -5,17 4,11c26,-16 51,-96 62,-196c14,-136 29,-163 136,-235c46,-31 99,-75 119,-97c20,-23 32,-33 26,-22c-17,32 -92,100 -154,139c-90,57 -101,78 -118,226c-5,47 -12,96 -15,110c-5,21 -3,20 12,-7l18,-33l14,23c13,19 12,21 -1,10c-12,-11 -17,-9 -26,13c-7,14 -16,23 -21,19c-5,-3 -12,4 -16,15c-3,11 -35,49 -70,85c-36,36 -61,65 -56,65c4,0 16,-9 26,-20c10,-11 22,-17 28,-13c5,3 7,2 4,-4c-3,-5 18,-34 48,-63c30,-30 55,-50 55,-45c1,6 7,-1 15,-15c8,-14 14,-20 15,-14c0,14 -50,82 -78,108c-12,10 -19,22 -17,26c3,4 -3,14 -12,21c-12,10 -14,10 -9,2c11,-19 -4,-16 -43,8c-80,49 -88,42 -26,-23zm81,-6c-3,-5 8,-22 25,-38c17,-16 35,-38 41,-49c6,-11 -10,3 -35,30c-39,43 -49,65 -31,65c3,0 3,-4 0,-8z"/>
   <path id="svg_40" d="m3631,7704c0,-11 3,-14 6,-6c3,7 2,16 -1,19c-3,4 -6,-2 -5,-13z"/>
   <path id="svg_41" d="m3641,7664c0,-11 3,-14 6,-6c3,7 2,16 -1,19c-3,4 -6,-2 -5,-13z"/>
   <path id="svg_42" d="m3682,7660c0,-14 2,-19 5,-12c2,6 2,18 0,25c-3,6 -5,1 -5,-13z"/>
   <path id="svg_43" d="m3643,7471c0,-44 4,-66 8,-55c7,16 8,16 8,-6c2,-43 47,-126 82,-150l34,-23l-31,30c-45,43 -63,83 -84,187l-18,91l1,-74z"/>
   <path id="svg_44" d="m4010,6689c-19,-17 -26,-26 -15,-21c18,9 64,52 54,52c-2,0 -20,-14 -39,-31z"/>
   <path id="svg_45" d="m3603,7856c0,-8 6,-12 14,-9c7,3 10,9 7,14c-8,14 -21,11 -21,-5z"/>
   <path id="svg_46" d="m3300,7554c-47,-41 -103,-93 -125,-116l-40,-41l35,24c33,22 230,209 220,208c-3,0 -43,-34 -90,-75z"/>
   <path id="svg_47" d="m2827,7368c-9,-24 -18,-52 -21,-63c-3,-11 -4,-3 -1,18c4,41 1,46 -14,18c-7,-13 -7,-32 2,-62l13,-44l13,65c7,36 17,73 23,83c5,10 7,21 5,23c-3,3 -12,-14 -20,-38z"/>
   <path id="svg_48" d="m2749,7288c-6,-13 -21,-31 -33,-41c-11,-10 -15,-16 -7,-12c10,6 12,0 6,-26c-4,-25 -3,-30 4,-19c6,8 11,25 11,36c0,12 6,26 13,33c11,8 13,4 10,-22c-2,-29 -2,-29 5,-7c18,53 22,80 13,80c-6,0 -15,-10 -22,-22z"/>
   <path id="svg_49" d="m2781,7244c0,-11 3,-14 6,-6c3,7 2,16 -1,19c-3,4 -6,-2 -5,-13z"/>
   <path id="svg_50" d="m2137,7103c10,-3 10,-10 2,-26c-10,-21 -10,-21 5,-3c21,26 20,36 -1,35c-11,0 -13,-3 -6,-6z"/>
   <path id="svg_51" d="m2865,7150c4,-6 11,-8 16,-5c14,9 11,15 -7,15c-8,0 -12,-5 -9,-10z"/>
   <path id="svg_52" d="m2938,7063c6,-2 18,-2 25,0c6,3 1,5 -13,5c-14,0 -19,-2 -12,-5z"/>
   <path id="svg_53" d="m2958,7043c7,-3 16,-2 19,1c4,3 -2,6 -13,5c-11,0 -14,-3 -6,-6z"/>
   <path id="svg_54" d="m2975,7000c11,-5 27,-9 35,-9c9,0 8,4 -5,9c-11,5 -27,9 -35,9c-9,0 -8,-4 5,-9z"/>
   <path id="svg_55" d="m2988,6973c6,-2 18,-2 25,0c6,3 1,5 -13,5c-14,0 -19,-2 -12,-5z"/>
   <path id="svg_56" d="m3003,6943c9,-2 25,-2 35,0c9,3 1,5 -18,5c-19,0 -27,-2 -17,-5z"/>
   <path id="svg_57" d="m3018,6913c12,-2 30,-2 40,0c9,3 -1,5 -23,4c-22,0 -30,-2 -17,-4z"/>
   <path id="svg_58" d="m3028,6883c12,-2 30,-2 40,0c9,3 -1,5 -23,4c-22,0 -30,-2 -17,-4z"/>
   <path id="svg_59" d="m3038,6853c12,-2 32,-2 45,0c12,2 2,4 -23,4c-25,0 -35,-2 -22,-4z"/>
   <path id="svg_60" d="m3053,6823c15,-2 37,-2 50,0c12,2 0,4 -28,4c-27,0 -38,-2 -22,-4z"/>
   <path id="svg_61" d="m3073,6773c15,-2 39,-2 55,0c15,2 2,4 -28,4c-30,0 -43,-2 -27,-4z"/>
   <path id="svg_62" d="m3101,6749c-24,-5 -47,-11 -50,-15c-9,-10 83,7 94,17c5,5 7,9 5,8c-3,-1 -25,-5 -49,-10z"/>
   <path id="svg_63" d="m3100,6655c46,-18 64,-17 25,0c-16,8 -37,14 -45,14c-8,0 1,-7 20,-14z"/>
   <path id="svg_64" d="m3096,6621c5,-5 20,-12 34,-15l25,-7l-25,15c-28,17 -50,21 -34,7z"/>
   <path id="svg_65" d="m3211,6600c-12,-17 -20,-39 -18,-48c3,-12 5,-10 6,6c0,13 6,20 11,17c6,-3 10,-1 10,6c0,7 7,21 17,31c9,10 12,18 6,18c-5,0 -19,-14 -32,-30z"/>
   <path id="svg_66" d="m3090,6570c8,-5 22,-9 30,-9c10,0 8,3 -5,9c-27,12 -43,12 -25,0z"/>
   <path id="svg_67" d="m3219,6553c-13,-16 -12,-17 4,-4c9,7 17,15 17,17c0,8 -8,3 -21,-13z"/>
   <path id="svg_68" d="m3120,6549c-23,-6 -23,-7 8,-8c17,-1 32,-5 32,-11c0,-14 -54,-12 -68,2c-18,18 -14,5 13,-44c24,-43 24,-44 6,-60c-11,-9 -22,-14 -25,-11c-5,6 -96,-44 -96,-53c0,-3 20,7 45,22c25,14 48,25 50,22c2,-2 -35,-47 -83,-99c-48,-53 -96,-106 -106,-120c-28,-35 111,106 168,171c27,30 46,47 43,38c-10,-28 -1,-21 22,18c23,38 26,48 12,40c-4,-3 -13,6 -20,20c-15,33 -15,34 13,34c20,0 23,-4 19,-22c-10,-37 4,-16 15,24c11,41 -1,51 -48,37z"/>
   <path id="svg_69" d="m3053,6467l-23,-42l30,35c30,34 37,50 23,50c-5,0 -18,-19 -30,-43z"/>
   <path id="svg_70" d="m1906,6560c3,-14 11,-32 16,-40c6,-10 7,-7 2,10c-3,14 -11,32 -16,40c-6,10 -7,7 -2,-10z"/>
   <path id="svg_71" d="m1551,7004c0,-11 3,-14 6,-6c3,7 2,16 -1,19c-3,4 -6,-2 -5,-13z"/>
   <path id="svg_72" d="m1368,6962c-3,-10 1,-30 8,-43c13,-23 14,-22 8,16c-8,48 -10,51 -16,27z"/>
   <path id="svg_73" d="m1285,6870c3,-5 8,-10 11,-10c2,0 4,5 4,10c0,6 -5,10 -11,10c-5,0 -7,-4 -4,-10z"/>
   <path id="svg_74" d="m1120,6839c-12,-8 -10,-9 9,-4c16,5 21,4 17,-4c-4,-6 -17,-11 -29,-12c-19,0 -19,-2 6,-11c19,-7 27,-17 27,-35c0,-20 -4,-23 -20,-19c-11,3 -30,9 -41,12c-13,4 -19,2 -15,-4c3,-6 24,-13 46,-17c22,-4 40,-11 40,-16c0,-5 -4,-9 -8,-9c-4,0 -16,-13 -25,-30c-10,-16 -24,-30 -30,-30c-9,0 -11,-22 -9,-75c2,-48 7,-73 14,-69c6,4 14,0 19,-7c7,-11 9,-10 9,4c0,9 -7,17 -15,17c-12,0 -15,13 -15,60c0,77 18,79 23,3l3,-58l2,60c2,44 10,76 32,119c36,70 38,100 8,120c-26,19 -28,19 -48,5zm53,-71l-11,-33l-1,32c-1,17 -6,35 -11,38c-6,4 -7,11 -4,17c4,6 12,4 22,-5c12,-13 13,-22 5,-49z"/>
   <path id="svg_75" d="m1088,6673c7,-3 16,-2 19,1c4,3 -2,6 -13,5c-11,0 -14,-3 -6,-6z"/>
   <path id="svg_76" d="m1182,6315c0,-16 2,-22 5,-12c2,9 2,23 0,30c-3,6 -5,-1 -5,-18z"/>
   <path id="svg_77" d="m4101,6934c0,-11 3,-14 6,-6c3,7 2,16 -1,19c-3,4 -6,-2 -5,-13z"/>
   <path id="svg_78" d="m4031,6514c0,-11 3,-14 6,-6c3,7 2,16 -1,19c-3,4 -6,-2 -5,-13z"/>
   <path id="svg_79" d="m4022,6465c0,-16 2,-22 5,-12c2,9 2,23 0,30c-3,6 -5,-1 -5,-18z"/>
   <path id="svg_80" d="m3354,6574c-13,-52 45,-112 91,-93c20,8 20,8 0,9c-18,1 -19,1 -2,11c9,5 17,15 17,20c0,6 -7,3 -16,-5c-8,-9 -23,-16 -33,-16c-26,0 -53,34 -49,62c3,20 9,23 43,23c32,0 42,-5 52,-25c9,-17 13,-20 13,-8c0,28 -29,48 -71,48c-33,0 -40,-4 -45,-26z"/>
   <path id="svg_81" d="m3430,6450c-9,-5 -15,-21 -14,-37c1,-15 3,-62 4,-103l3,-75l7,65c3,36 12,76 19,90c11,24 11,24 -3,6c-15,-19 -16,-19 -16,8c0,16 8,35 18,42c19,15 5,18 -18,4z"/>
   <path id="svg_82" d="m3433,6195c0,-22 2,-30 4,-17c2,12 2,30 0,40c-3,9 -5,-1 -4,-23z"/>
   <path id="svg_83" d="m3365,6200c-4,-17 -5,-34 -2,-36c2,-3 7,10 11,27c8,42 0,50 -9,9z"/>
   <path id="svg_84" d="m3320,5886c0,-2 7,-9 15,-16c9,-7 15,-8 15,-2c0,5 -7,12 -15,16c-8,3 -15,4 -15,2z"/>
   <path id="svg_85" d="m3285,5840l-30,-20l25,-1c22,0 21,-2 -10,-15l-35,-14l35,6c27,4 32,3 20,-6c-12,-8 -9,-9 13,-4c21,5 27,3 27,-11c0,-11 -6,-15 -17,-11c-10,3 -31,8 -48,11c-28,5 -28,4 5,-9c56,-23 70,-20 70,15c0,27 -3,30 -22,24c-16,-4 -19,-3 -10,3c11,7 10,11 -4,16c-15,6 -16,9 -4,16c9,6 18,3 27,-8c12,-15 13,-14 3,6c-13,26 -8,26 -45,2z"/>
   <path id="svg_86" d="m1166,6235c-4,-11 -2,-14 6,-9c8,5 9,2 4,-11c-5,-15 -4,-16 9,-5c9,7 12,16 8,19c-4,4 -11,10 -14,14c-4,4 -9,1 -13,-8z"/>
   <path id="svg_87" d="m1261,6210c-6,-40 -5,-108 2,-101c5,5 6,32 4,62c-2,30 -4,47 -6,39z"/>
   <path id="svg_88" d="m1228,6169c-3,-8 0,-23 8,-34c16,-21 18,-5 5,29c-6,16 -9,17 -13,5z"/>
   <path id="svg_89" d="m1354,6107c0,-52 3,-81 7,-67c9,32 10,120 1,142c-4,9 -7,-24 -8,-75z"/>
   <path id="svg_90" d="m1316,6073c-6,-14 -5,-15 5,-6c7,7 10,15 7,18c-3,3 -9,-2 -12,-12z"/>
   <path id="svg_91" d="m2667,5858c10,-3 38,-7 63,-7c25,0 53,4 63,7c9,4 -19,7 -63,7c-44,0 -72,-3 -63,-7z"/>
   <path id="svg_92" d="m4026,7085c8,-37 14,-45 14,-19c0,10 -5,26 -10,34c-8,11 -9,7 -4,-15z"/>
   <path id="svg_93" d="m4072,7050c0,-14 2,-19 5,-12c2,6 2,18 0,25c-3,6 -5,1 -5,-13z"/>
   <path id="svg_94" d="m4048,7035c-4,-4 -4,-13 -2,-20c8,-19 -19,-77 -57,-121l-33,-39l32,29c38,35 75,107 70,137c-2,11 -6,18 -10,14z"/>
   <path id="svg_95" d="m3910,6820c-8,-5 -10,-10 -5,-10c6,0 17,5 25,10c8,5 11,10 5,10c-5,0 -17,-5 -25,-10z"/>
   <path id="svg_96" d="m3880,6401c0,-5 5,-13 10,-16c6,-3 10,-2 10,4c0,5 -4,13 -10,16c-5,3 -10,2 -10,-4z"/>
  </g>
 </g>
</svg>