<svg xmlns="http://www.w3.org/2000/svg" viewBox="0 0 800 600" width="800" height="600">
  <!-- Simple airplane coloring page -->
  <g fill="none" stroke="#000000" stroke-width="3" stroke-linecap="round" stroke-linejoin="round">
    <!-- Fuselage (body) -->
    <ellipse cx="400" cy="300" rx="200" ry="60"/>
    
    <!-- Cockpit window -->
    <ellipse cx="250" cy="280" rx="40" ry="35"/>
    <line x1="235" y1="280" x2="265" y2="280"/>
    <line x1="250" y1="265" x2="250" y2="295"/>
    
    <!-- Nose cone -->
    <path d="M 200 300 Q 150 300 140 300 L 150 310 Q 160 310 200 310 Z"/>
    
    <!-- Main wings -->
    <path d="M 350 260 L 320 160 L 400 160 L 480 160 L 450 260 Z"/>
    <path d="M 350 340 L 320 440 L 400 440 L 480 440 L 450 340 Z"/>
    
    <!-- Tail -->
    <path d="M 580 270 L 650 240 L 665 240 L 665 260 L 650 260 Z"/>
    <path d="M 580 330 L 650 360 L 665 360 L 665 340 L 650 340 Z"/>
    
    <!-- Vertical tail fin -->
    <path d="M 600 240 L 640 180 L 660 180 L 660 200 L 640 240 Z"/>
    
    <!-- Engine (left side) -->
    <ellipse cx="350" cy="230" rx="35" ry="25"/>
    <circle cx="340" cy="230" r="8"/>
    
    <!-- Engine (right side) -->
    <ellipse cx="350" cy="370" rx="35" ry="25"/>
    <circle cx="340" cy="370" r="8"/>
    
    <!-- Windows along fuselage -->
    <circle cx="320" cy="300" r="15"/>
    <circle cx="360" cy="300" r="15"/>
    <circle cx="400" cy="300" r="15"/>
    <circle cx="440" cy="300" r="15"/>
    <circle cx="480" cy="300" r="15"/>
    <circle cx="520" cy="300" r="15"/>
    
    <!-- Clouds -->
    <g>
      <path d="M 100 120 Q 90 110 100 100 Q 120 90 140 100 Q 150 90 160 100 Q 170 110 160 120 Z"/>
      <path d="M 650 450 Q 640 440 650 430 Q 670 420 690 430 Q 700 420 710 430 Q 720 440 710 450 Z"/>
    </g>
  </g>
</svg>