<?xml version="1.0" standalone="no"?>
<!DOCTYPE svg PUBLIC "-//W3C//DTD SVG 20010904//EN"
 "http://www.w3.org/TR/2001/REC-SVG-20010904/DTD/svg10.dtd">
<svg version="1.0" xmlns="http://www.w3.org/2000/svg"
 width="450.000000pt" height="350.000000pt" viewBox="0 0 450.000000 350.000000"
 preserveAspectRatio="xMidYMid meet">
<metadata>
Created by potrace 1.10, written by Peter Selinger 2001-2011
</metadata>
<g transform="translate(0.000000,350.000000) scale(0.100000,-0.100000)"
fill="#000000" stroke="none">
<path d="M2474 3322 c-161 -122 -361 -267 -437 -317 -66 -44 -71 -60 -5 -19
61 38 532 383 587 430 2 2 0 4 -6 4 -6 0 -69 -44 -139 -98z"/>
<path d="M2300 3368 c-62 -57 -341 -283 -423 -342 -36 -27 -65 -52 -62 -54 10
-10 545 416 545 433 0 12 -19 1 -60 -37z"/>
<path d="M3896 3335 c-10 -8 -22 -12 -26 -10 -5 3 -11 -2 -14 -10 -3 -8 -9
-15 -13 -14 -23 4 -33 -3 -33 -23 -1 -21 -2 -22 -14 -5 -16 21 -52 22 -60 2
-3 -8 -11 -15 -19 -15 -7 0 -14 -12 -15 -26 -3 -35 -8 -42 -48 -59 -35 -14
-43 -32 -23 -52 13 -13 -5 -53 -25 -53 -19 0 -56 -43 -56 -66 0 -10 9 -32 20
-49 11 -16 20 -27 20 -22 0 4 12 0 26 -9 19 -13 28 -14 33 -5 4 6 14 9 22 6
10 -4 14 3 14 24 0 16 -3 33 -7 37 -5 4 -8 -1 -8 -12 0 -11 -9 -25 -20 -32
-18 -11 -25 -10 -51 9 -24 17 -30 27 -27 52 3 31 38 54 38 25 1 -21 28 -51 39
-43 11 6 5 17 -32 55 -18 18 -18 18 2 25 22 7 38 46 26 65 -8 13 23 39 48 40
12 0 17 8 17 25 0 25 39 75 58 75 6 0 12 -7 16 -15 3 -8 12 -15 20 -15 8 0 18
-9 21 -20 3 -11 13 -20 20 -20 8 0 18 -6 22 -14 4 -8 19 -17 33 -19 14 -3 30
-6 35 -7 21 -5 36 0 30 10 -3 5 -13 6 -23 3 -13 -5 -11 0 7 20 13 14 20 31 16
37 -5 8 -13 1 -22 -19 -17 -35 -44 -37 -67 -5 -8 10 -18 16 -22 12 -9 -10 -33
22 -34 44 0 9 10 20 23 24 12 3 29 13 38 21 11 9 26 12 43 7 20 -5 26 -12 26
-34 0 -28 0 -28 30 -14 16 9 33 21 37 28 5 8 23 17 41 21 27 5 32 4 32 -12 0
-10 9 -24 19 -30 17 -11 21 -10 26 6 3 10 14 26 25 36 19 17 21 17 37 -2 20
-21 63 -37 63 -22 0 5 -11 14 -24 18 -13 5 -26 17 -29 25 -9 23 -25 20 -59
-14 -29 -30 -48 -32 -48 -5 0 31 -63 22 -100 -15 l-22 -22 -31 36 c-29 33 -34
34 -51 21z"/>
<path d="M4359 3301 c-10 -29 -12 -30 -25 -14 -8 10 -14 13 -14 6 0 -7 -7 -10
-15 -7 -21 9 -45 -14 -45 -42 0 -13 -9 -33 -21 -45 -27 -27 -17 -37 13 -13 15
13 22 27 20 43 -2 13 1 21 6 17 5 -3 12 4 16 17 5 18 8 20 16 7 8 -12 10 -12
10 -1 0 10 3 11 14 2 10 -8 16 -9 21 -1 3 6 11 8 16 5 5 -3 6 1 3 9 -4 12 0
16 16 16 19 0 20 -3 10 -15 -10 -12 -8 -19 8 -40 13 -16 23 -22 27 -15 4 6 -1
17 -10 24 -14 10 -15 16 -6 34 10 19 9 22 -7 22 -10 0 -23 5 -30 12 -9 9 -14
4 -23 -21z"/>
<path d="M4124 3146 c-9 -20 -9 -26 3 -30 22 -9 41 -7 27 2 -7 4 -14 17 -15
29 l-4 23 -11 -24z"/>
<path d="M3826 3139 c-13 -19 -13 -24 1 -46 13 -19 14 -29 6 -42 -14 -22 8
-53 39 -58 12 -2 27 -8 35 -14 15 -13 17 -1 4 20 -5 7 -14 10 -20 7 -6 -4 -11
-3 -11 3 0 6 -7 8 -15 5 -15 -6 -20 11 -15 45 1 8 -4 25 -11 39 -12 22 -11 26
10 43 17 14 19 19 8 19 -9 0 -23 -10 -31 -21z"/>
<path d="M4372 3155 c2 -5 10 -25 17 -42 7 -18 17 -33 22 -33 15 0 10 -58 -7
-74 -22 -23 -32 -20 -36 12 -2 21 -9 28 -30 30 -16 2 -28 -1 -28 -7 0 -6 11
-11 25 -11 20 0 25 -5 25 -25 0 -22 4 -25 35 -22 25 1 35 7 39 22 8 37 -1 86
-20 100 -18 13 -18 14 5 34 18 16 20 21 8 21 -9 0 -19 -5 -22 -10 -5 -8 -12
-7 -23 2 -8 7 -13 9 -10 3z"/>
<path d="M4177 3114 c-11 -11 -8 -26 3 -19 6 3 10 -3 10 -14 0 -25 12 -32 30
-20 12 7 12 9 -3 9 -13 0 -17 6 -15 22 3 21 -12 34 -25 22z"/>
<path d="M4234 3048 c-3 -4 11 -7 31 -6 19 1 35 5 35 10 0 10 -60 7 -66 -4z"/>
<path d="M4110 3027 c-23 -21 -78 -38 -82 -25 -5 14 -50 -11 -94 -50 -8 -8
-21 -11 -29 -8 -8 3 -17 1 -20 -4 -4 -6 -15 -10 -26 -10 -10 0 -19 -4 -19 -10
0 -5 11 -9 25 -8 14 1 25 6 25 10 0 11 48 2 65 -12 15 -13 46 -10 57 5 14 18
8 26 -11 16 -10 -6 -21 -7 -25 -4 -3 3 -6 0 -6 -7 0 -10 -5 -9 -17 4 -14 14
-15 20 -5 23 7 3 19 11 27 19 8 8 18 14 22 13 4 -1 10 -1 13 1 24 8 59 6 63
-4 4 -9 -3 -12 -19 -10 -24 2 -34 -11 -13 -18 6 -2 12 -16 12 -31 0 -20 5 -27
19 -27 10 0 21 -7 24 -15 4 -8 11 -15 18 -15 6 0 29 -9 51 -20 21 -11 40 -18
42 -17 7 8 11 97 4 97 -13 0 -20 -39 -8 -43 6 -2 7 -9 3 -16 -6 -9 -12 -8 -23
6 -12 15 -14 15 -10 2 5 -15 2 -15 -24 -6 -16 6 -29 15 -29 20 0 4 -4 5 -10 2
-5 -3 -10 -1 -10 4 0 6 -6 11 -14 11 -19 0 -28 40 -10 47 9 3 12 13 9 24 -4
11 -2 19 5 19 6 0 18 7 27 15 19 20 13 40 -7 22z"/>
<path d="M3752 3006 c-2 -23 0 -23 28 -13 17 6 30 17 30 25 0 10 -5 9 -17 -4
-17 -16 -18 -16 -21 -1 -5 25 -17 21 -20 -7z"/>
<path d="M1605 2818 c-93 -71 -191 -146 -217 -165 -27 -19 -48 -40 -48 -46 0
-6 10 -1 23 10 51 47 399 303 406 299 4 -3 8 4 8 15 1 10 1 19 0 18 -1 0 -78
-59 -172 -131z"/>
<path d="M4251 2933 c-25 -49 -44 -140 -50 -248 l-6 -120 -19 34 c-15 28 -16
39 -7 53 11 17 10 18 -7 9 -16 -8 -21 -6 -31 15 -6 14 -9 29 -6 34 7 11 -21
21 -40 14 -9 -4 -22 7 -36 30 -12 20 -24 35 -26 32 -3 -3 6 -25 21 -50 33 -56
48 -96 37 -96 -5 0 -21 21 -36 46 -25 42 -44 52 -52 27 -2 -6 35 -44 82 -83
48 -40 92 -86 100 -104 7 -17 19 -87 25 -156 7 -69 15 -132 18 -140 2 -8 -16
14 -42 50 -48 69 -59 116 -31 143 8 8 13 16 12 18 -1 3 4 -2 11 -10 10 -13 12
-11 12 10 0 22 -4 25 -29 21 -39 -5 -91 23 -91 50 0 20 -1 20 -18 5 -10 -10
-24 -17 -30 -17 -6 0 -13 -8 -16 -18 -5 -14 -17 -18 -56 -18 -37 0 -49 4 -46
13 3 7 -1 13 -9 13 -8 0 -15 9 -15 20 0 11 -4 20 -10 20 -15 0 -12 -38 4 -47
7 -4 15 -14 17 -22 8 -22 90 -21 117 3 13 12 22 15 22 7 0 -6 17 -38 37 -69
21 -31 41 -65 45 -75 4 -9 25 -43 46 -75 70 -102 71 -111 6 -56 -80 70 -98 91
-85 99 6 3 11 11 11 16 0 6 -6 7 -12 2 -22 -13 -38 -12 -38 3 0 8 -4 14 -9 14
-5 0 -7 -10 -3 -22 5 -20 4 -21 -11 -9 -9 7 -15 17 -12 21 3 5 0 12 -6 16 -6
3 -15 0 -20 -7 -6 -11 -12 -9 -29 9 -18 19 -25 21 -36 11 -17 -14 -32 -3 -38
27 -2 10 -9 30 -14 44 -5 14 -8 33 -7 43 2 9 0 17 -5 17 -13 0 -18 -23 -10
-45 5 -11 14 -39 21 -63 11 -38 16 -43 40 -40 14 1 33 -2 40 -9 8 -6 23 -13
34 -17 37 -11 96 -71 109 -108 8 -26 35 -57 82 -98 38 -33 72 -60 76 -60 6 0
22 -81 37 -194 5 -38 4 -56 -3 -56 -6 0 -5 -4 3 -9 10 -7 4 -18 -29 -50 -23
-22 -47 -38 -53 -34 -6 4 -8 0 -4 -11 6 -14 1 -16 -31 -13 -21 1 -43 6 -50 11
-7 4 -12 2 -12 -7 0 -7 6 -14 13 -15 6 0 19 -2 27 -3 37 -5 70 2 70 15 0 7 9
16 21 19 11 3 23 15 26 27 9 32 37 21 41 -17 2 -24 -1 -33 -17 -38 -21 -6 -29
-25 -11 -25 6 0 10 5 10 10 0 6 7 10 15 10 20 0 19 -16 -1 -24 -9 -3 -55 -6
-103 -6 -80 0 -141 -14 -141 -32 0 -8 29 1 47 14 7 5 49 8 95 7 46 -2 91 0
101 5 15 7 17 1 17 -76 0 -69 -3 -88 -18 -101 -13 -12 -21 -14 -29 -6 -13 13
-52 3 -82 -22 -21 -17 -22 -22 -10 -30 22 -14 28 -11 22 11 -4 15 0 20 14 20
10 0 24 5 31 12 9 9 13 7 18 -6 6 -16 8 -16 25 0 11 10 22 14 25 11 4 -3 3
-73 -1 -156 -6 -127 -10 -151 -24 -154 -13 -4 -13 -5 3 -6 17 -1 18 -8 11 -84
-8 -107 -9 -109 -51 -130 -35 -17 -37 -17 -49 0 -12 15 -11 22 1 40 8 12 14
33 13 45 0 16 -5 11 -16 -19 -8 -24 -21 -43 -29 -43 -8 0 -14 5 -14 10 0 16
-14 11 -27 -9 -10 -16 -9 -19 5 -16 24 3 72 -23 72 -40 0 -7 7 -21 16 -29 8
-9 13 -16 9 -16 -3 0 0 -6 7 -14 7 -8 16 -12 21 -9 4 2 7 -9 7 -26 0 -29 -1
-30 -50 -28 -30 1 -52 7 -55 15 -3 7 -11 10 -17 7 -7 -4 -2 3 11 14 14 13 18
21 10 21 -26 0 -41 -17 -35 -38 8 -25 37 -36 96 -35 52 0 49 -7 76 170 15 96
18 180 19 458 0 303 -2 356 -23 492 -34 231 -53 292 -121 401 -43 67 -57 99
-53 115 5 20 7 19 12 -9 4 -16 27 -59 51 -94 24 -35 52 -80 62 -100 12 -25 16
-28 12 -10 -13 57 -25 141 -35 245 -6 61 -18 120 -26 132 -21 33 -17 42 6 13
l20 -25 0 92 c0 79 2 92 18 96 15 4 15 5 -2 6 -14 1 -17 7 -13 24 3 12 11 49
18 82 8 36 14 51 17 38 2 -12 9 -26 16 -32 10 -9 9 -27 -5 -93 -10 -45 -16
-84 -15 -86 6 -5 28 61 31 93 2 17 11 50 19 74 20 54 20 71 2 46 -8 -11 -12
-24 -9 -29 4 -5 1 -6 -4 -3 -16 10 -36 65 -29 82 3 9 10 13 16 10 5 -3 10 1
10 9 0 21 -17 20 -29 -1z m-221 -243 c12 -23 12 -24 -3 -11 -10 7 -17 20 -17
29 0 18 3 16 20 -18z m110 -57 c17 -30 30 -56 28 -58 -8 -9 -66 56 -77 85 -25
73 1 58 49 -27z m-76 -167 c8 3 20 -1 27 -9 8 -7 20 -12 27 -9 6 2 12 -4 12
-14 0 -9 -3 -14 -7 -10 -4 4 -12 -7 -18 -25 l-11 -32 -33 52 c-21 35 -30 59
-25 70 6 13 8 12 11 -6 3 -13 10 -20 17 -17z m-16 -171 c-3 -3 35 -45 84 -93
58 -57 92 -99 98 -121 l9 -33 -22 18 c-71 59 -77 67 -64 83 10 14 10 14 -5 3
-23 -19 -34 -10 -64 54 -14 30 -35 59 -46 65 -17 9 -18 13 -7 20 15 10 25 12
17 4z m216 -1427 c-4 -24 -9 -45 -11 -48 -2 -2 -14 9 -27 25 l-24 30 26 17
c39 26 43 23 36 -24z"/>
<path d="M3797 2923 c-11 -10 -8 -33 4 -33 5 0 7 5 4 10 -3 6 1 10 9 10 9 0
16 5 16 10 0 11 -23 14 -33 3z"/>
<path d="M3600 2888 c0 -12 1 -19 3 -17 1 2 9 12 16 22 12 14 11 17 -3 17 -10
0 -16 -8 -16 -22z"/>
<path d="M3620 2883 c0 -6 -3 -19 -7 -29 -4 -12 -3 -15 5 -10 15 9 52 -2 52
-15 0 -19 28 -39 46 -32 12 4 15 3 10 -5 -10 -16 34 -87 65 -106 42 -25 47
-19 9 12 -22 19 -31 33 -25 41 5 10 9 10 14 2 13 -21 69 -31 82 -15 6 8 8 18
4 22 -4 4 -10 1 -12 -5 -7 -20 -50 -15 -65 6 -7 10 -22 20 -33 22 -11 3 -21
11 -21 19 -1 8 -2 21 -3 29 -1 11 -4 11 -17 0 -13 -11 -19 -8 -38 14 -13 15
-27 27 -31 27 -4 0 -14 8 -21 18 -7 9 -14 12 -14 5z m140 -133 c0 -5 -2 -10
-4 -10 -3 0 -8 5 -11 10 -3 6 -1 10 4 10 6 0 11 -4 11 -10z"/>
<path d="M4319 2838 c-7 -12 -14 -39 -15 -58 -3 -32 -2 -33 7 -10 5 14 21 34
36 44 l26 19 -7 -27 c-11 -43 -46 -85 -65 -79 -9 4 -13 3 -9 -1 3 -4 -3 -28
-14 -52 -37 -86 -40 -203 -8 -414 5 -36 14 -101 20 -145 6 -44 20 -114 31
-157 10 -42 19 -92 19 -112 0 -45 14 -47 29 -4 6 17 25 53 42 80 18 27 29 51
26 54 -5 5 -69 -96 -80 -126 -3 -9 -6 -6 -6 9 -1 13 19 54 44 91 25 37 45 74
45 81 -1 10 -4 9 -14 -3 -7 -10 -16 -14 -20 -10 -5 4 -6 -1 -4 -10 3 -17 -41
-98 -53 -98 -3 0 -13 35 -22 78 -46 218 -25 316 64 298 34 -6 37 -1 10 14 -13
7 -28 7 -45 0 l-26 -10 17 28 c10 15 20 29 23 32 3 3 11 18 18 33 8 18 18 27
26 24 8 -3 17 1 20 9 10 27 -33 15 -56 -16 -23 -32 -46 -38 -66 -18 -18 18
-34 -9 -26 -44 3 -16 1 -28 -4 -28 -13 0 -22 75 -22 176 0 82 0 82 30 96 34
15 39 28 11 28 -11 0 -22 -8 -24 -17 -3 -12 -5 -10 -6 7 -1 38 36 113 53 107
9 -4 16 4 20 24 3 17 10 28 16 24 13 -8 70 32 70 50 0 15 -27 28 -41 19 -5 -3
-9 0 -9 5 0 16 -26 13 -40 -4 -7 -8 -17 -15 -23 -15 -5 0 -2 9 8 20 10 11 16
23 12 26 -3 3 -11 -5 -18 -18z m77 -56 c-14 -14 -28 -23 -31 -20 -9 9 36 59
47 52 6 -4 0 -17 -16 -32z m-95 -429 c-8 -15 -10 -15 -11 -2 0 17 10 32 18 25
2 -3 -1 -13 -7 -23z m24 -53 c-14 -27 -25 -56 -25 -65 0 -8 -4 -15 -10 -15
-16 0 -12 56 7 95 10 21 24 35 35 35 17 0 16 -4 -7 -50z"/>
<path d="M1684 2754 c-161 -112 -149 -103 -142 -109 3 -3 32 14 64 38 32 24
94 66 136 95 67 45 99 72 85 72 -2 0 -67 -43 -143 -96z"/>
<path d="M3584 2842 c-6 -4 -13 -15 -17 -25 -4 -10 -11 -16 -16 -13 -10 6 -23
-18 -26 -48 -2 -23 40 -70 55 -61 6 4 9 -3 7 -17 -2 -13 -8 -22 -13 -20 -5 2
-19 5 -32 9 -18 4 -20 8 -11 19 18 22 3 17 -55 -21 -30 -19 -57 -44 -61 -55
-4 -11 -11 -18 -16 -15 -14 9 -49 -14 -49 -32 0 -12 -7 -14 -30 -9 -17 3 -41
1 -53 -5 -20 -9 -33 -5 -83 25 -32 20 -65 36 -71 36 -7 0 -13 11 -13 24 0 38
-42 49 -152 41 -80 -6 -96 -5 -107 9 -17 21 -38 20 -49 -1 -8 -14 -14 -15 -38
-5 -16 6 -55 11 -88 11 -49 0 -59 -3 -63 -19 -4 -16 -14 -20 -52 -20 -26 0
-56 -6 -67 -14 -11 -8 -42 -17 -69 -21 -28 -4 -97 -25 -155 -47 -141 -52 -480
-218 -480 -235 0 -7 -4 -13 -10 -13 -5 0 -78 -38 -162 -84 -372 -203 -528
-297 -528 -318 0 -6 -9 -3 -20 7 -14 12 -34 18 -62 17 -22 -1 -46 2 -52 7 -6
5 -31 11 -56 14 -83 11 -120 19 -120 27 0 5 -14 15 -30 24 -27 13 -44 6 -20
-9 8 -5 8 -11 0 -20 -8 -9 -8 -15 0 -20 5 -3 10 1 10 9 0 20 29 21 36 2 3 -8
15 -13 26 -11 11 3 32 -2 47 -10 15 -7 42 -12 61 -11 19 2 41 -2 48 -7 8 -6
31 -10 52 -9 21 2 41 -2 45 -8 3 -5 1 -10 -4 -10 -6 0 -20 -9 -32 -21 -18 -18
-24 -20 -45 -9 -12 7 -38 10 -56 7 -20 -3 -44 1 -58 9 -30 16 -60 18 -60 4 0
-5 8 -10 18 -10 9 0 28 -6 42 -13 18 -9 33 -10 52 -3 19 7 34 6 53 -2 34 -16
23 -32 -22 -32 -21 0 -57 -12 -88 -30 -29 -17 -60 -28 -68 -24 -22 8 -55 -12
-104 -63 -23 -24 -51 -43 -61 -43 -11 0 -25 -7 -33 -16 -16 -19 -90 -59 -105
-56 -6 1 -23 -10 -38 -24 -42 -43 -73 -55 -114 -46 -21 4 -53 8 -72 7 -42 -1
-110 -40 -110 -63 -1 -13 -7 -10 -23 11 -24 28 -51 35 -63 15 -5 -8 0 -9 16
-5 16 4 23 1 27 -13 3 -10 15 -21 26 -24 33 -9 37 -7 37 12 0 33 65 56 149 53
33 -1 33 -2 17 -20 -9 -10 -30 -21 -46 -24 -15 -4 -45 -21 -65 -39 -35 -30
-37 -35 -32 -78 9 -74 22 -104 40 -93 4 2 7 -1 7 -8 0 -7 3 -10 6 -6 4 3 18 0
33 -7 14 -8 38 -12 54 -11 15 2 44 -2 65 -8 20 -6 40 -11 44 -11 3 -1 10 -4
14 -9 10 -10 -10 -9 -42 3 -14 6 -42 12 -62 15 -31 4 -33 3 -17 -9 10 -7 28
-11 39 -9 15 4 17 2 8 -5 -11 -7 -11 -10 2 -15 8 -3 16 -1 18 5 3 8 9 8 23 0
11 -6 80 -41 154 -77 97 -48 142 -65 167 -63 36 2 44 12 19 21 -8 4 -17 2 -20
-3 -8 -13 -25 -13 -25 -1 0 18 30 19 74 2 25 -9 49 -20 53 -24 4 -5 -5 -4 -20
2 -22 8 -29 8 -33 -3 -3 -8 -15 -12 -27 -10 -19 4 -18 2 4 -8 14 -7 37 -25 51
-41 14 -15 30 -27 36 -27 6 0 12 -6 15 -12 2 -7 8 -10 12 -6 9 8 -22 48 -37
48 -5 0 -18 9 -30 20 -15 14 -17 20 -7 20 17 0 86 -24 95 -33 4 -4 18 -4 32 0
16 4 23 2 19 -4 -4 -6 8 -16 26 -23 17 -7 46 -19 64 -26 37 -17 67 -19 43 -4
-12 8 -10 10 8 10 14 0 21 -4 16 -11 -4 -8 3 -9 26 -4 23 5 30 4 26 -4 -4 -6
-17 -11 -28 -11 -12 0 -19 -2 -16 -5 3 -4 29 -3 58 1 l53 7 -97 35 c-71 26
-100 32 -105 23 -5 -8 -15 -9 -32 -2 -24 10 -24 10 6 11 27 2 24 4 -20 18 -27
9 -43 17 -33 19 9 2 33 -3 53 -11 48 -21 55 -20 55 4 0 11 5 20 10 20 6 0 10
-9 10 -20 0 -11 -6 -20 -12 -20 -7 0 42 -19 109 -42 78 -27 119 -46 113 -52
-6 -6 -15 -4 -25 4 -14 12 -18 11 -25 -1 -7 -11 -3 -15 21 -17 17 -2 37 2 45
9 8 6 14 8 14 3 0 -5 15 -10 33 -11 18 -1 86 -17 152 -36 426 -125 597 -173
862 -243 50 -13 124 -35 165 -48 123 -41 182 -56 208 -50 20 5 22 3 10 -5 -17
-12 -20 -11 60 -16 48 -3 394 -92 700 -180 160 -46 542 -148 807 -214 90 -23
138 -27 128 -11 -4 6 -14 10 -23 8 -10 -1 -82 13 -161 32 l-144 35 59 17 c58
17 60 17 149 -6 50 -14 98 -28 108 -31 17 -7 25 9 9 19 -14 8 -395 109 -622
165 -113 27 -290 75 -393 105 -103 31 -190 56 -193 56 -3 0 -2 -5 2 -12 5 -7
2 -9 -8 -5 -9 3 -19 2 -24 -3 -17 -17 -104 -20 -147 -6 -23 8 -59 18 -80 21
-74 14 -43 21 101 22 117 1 160 -2 212 -17 69 -20 192 -32 184 -18 -3 5 5 6
18 3 12 -2 59 -12 103 -21 89 -17 496 -109 708 -158 105 -26 137 -30 137 -19
0 7 -2 13 -5 13 -3 0 -134 30 -292 66 -159 36 -314 71 -345 77 -32 6 -58 16
-58 21 0 20 213 -5 450 -53 134 -28 246 -48 249 -46 2 3 -2 7 -10 9 -17 6
-390 80 -504 100 -63 11 -71 14 -39 15 40 1 267 -38 464 -79 52 -10 96 -17 98
-15 7 7 -12 12 -198 49 -295 59 -420 78 -435 66 -7 -6 -26 -13 -41 -16 -16 -3
-34 -10 -41 -16 -12 -10 -92 0 -155 18 -28 8 -21 24 10 22 42 -3 181 13 187
22 3 4 35 2 72 -6 163 -32 297 -54 412 -69 68 -9 137 -18 155 -21 23 -4 27 -3
16 5 -8 6 -46 13 -83 17 -38 4 -64 10 -59 13 6 3 -18 6 -51 7 -69 1 -219 29
-257 49 -31 15 -102 27 -95 15 4 -7 -11 -7 -35 0 -3 1 6 6 19 11 16 6 56 3
130 -10 277 -51 398 -71 426 -70 35 2 35 1 -140 34 -385 71 -373 68 -335 78
19 5 64 6 100 2 36 -5 84 -9 107 -9 23 -1 45 -4 49 -8 4 -4 19 -5 33 -2 16 3
21 2 14 -3 -8 -5 21 -13 76 -21 49 -6 97 -15 107 -19 11 -4 15 -3 10 5 -3 6
-27 14 -51 18 -25 3 -45 10 -45 14 0 4 -21 10 -47 13 -27 3 -93 13 -148 21
-55 9 -101 16 -102 16 -1 0 0 7 4 16 5 13 18 15 77 11 l71 -6 -70 14 c-40 7
-57 13 -40 14 17 0 65 -6 107 -14 43 -8 84 -12 92 -9 8 3 20 -1 27 -9 7 -7 23
-12 35 -9 12 2 25 -1 28 -7 4 -6 2 -11 -3 -11 -6 0 -11 -5 -11 -11 0 -8 4 -8
14 0 8 7 20 11 28 10 7 -1 19 -1 27 0 18 1 6 14 -15 17 -9 1 -23 6 -32 10 -9
4 -20 8 -24 8 -18 2 -17 15 1 21 21 6 26 33 13 67 -5 13 -11 15 -22 8 -21 -14
-60 -12 -60 2 0 6 -9 2 -20 -10 -25 -26 -26 -41 -2 -20 11 11 24 13 37 8 17
-7 17 -9 3 -9 -10 -1 -18 -5 -18 -11 0 -15 9 -12 37 10 14 11 29 17 34 14 16
-9 10 -35 -13 -54 -22 -17 -44 -18 -137 -4 l-33 5 21 23 c11 12 21 26 21 32 0
5 -14 -7 -30 -26 -16 -19 -30 -30 -30 -24 0 7 -17 9 -50 6 -47 -4 -50 -3 -50
19 0 13 -3 41 -6 62 -6 34 -5 37 17 37 23 1 59 21 59 34 0 13 -31 5 -36 -9 -4
-8 -15 -15 -25 -15 -16 0 -19 7 -19 44 0 35 6 49 30 73 30 30 30 30 10 48 -18
16 -20 30 -20 147 0 70 3 128 8 128 4 0 22 -14 41 -30 35 -31 55 -37 66 -20 9
15 33 0 38 -23 3 -21 4 -21 12 -3 11 26 -20 49 -57 41 -21 -5 -33 -1 -53 19
-14 14 -32 26 -39 26 -9 0 -14 14 -14 40 -1 23 3 38 9 35 5 -4 9 0 9 8 0 8 11
17 23 21 13 3 24 12 24 21 0 22 -13 18 -42 -12 -24 -27 -25 -27 -25 -5 0 12
-13 63 -30 114 -22 69 -26 94 -17 100 8 5 7 8 -4 8 -19 0 -41 65 -33 100 4 17
3 21 -4 12 -7 -11 -10 -10 -16 3 -9 24 -8 25 18 25 30 0 56 34 56 74 0 28 0
29 20 11 12 -11 20 -13 20 -6 0 6 11 16 25 21 14 5 25 14 25 20 0 6 5 8 12 4
8 -5 9 -2 5 10 -4 10 -7 24 -7 32 0 8 -4 14 -9 14 -4 0 -6 -10 -4 -23 3 -14
-2 -29 -11 -36 -9 -8 -16 -10 -16 -6 0 5 -9 0 -20 -10 -18 -16 -20 -16 -26 -1
-10 25 -32 20 -27 -7 6 -29 -12 -76 -33 -84 -16 -6 -91 14 -109 29 -6 5 -2 11
11 14 29 8 48 46 41 82 -4 22 -2 32 9 36 12 4 14 1 9 -14 -7 -22 5 -26 22 -9
7 7 15 6 26 -5 19 -19 27 -20 27 -3 0 12 -73 47 -97 47 -8 0 -12 -15 -11 -45
2 -39 -2 -50 -30 -77 l-32 -33 0 32 c0 18 5 43 11 56 7 16 8 35 1 58 -7 27 -5
38 8 51 13 14 19 15 28 6 9 -9 15 -9 24 0 7 7 19 12 27 12 16 0 65 45 67 62 1
4 2 12 3 17 2 19 48 18 60 -2 7 -10 9 -22 5 -25 -4 -4 -9 -1 -11 6 -3 6 -9 10
-14 6 -16 -10 -9 -24 16 -34 16 -6 27 -20 31 -38 6 -31 84 -83 84 -56 0 8 -13
17 -30 21 -26 5 -28 8 -18 21 11 13 10 15 -4 9 -18 -6 -22 1 -34 66 -6 33 -4
39 15 44 35 9 14 21 -29 17 -53 -5 -72 -16 -101 -58 -13 -20 -30 -34 -36 -31
-7 2 -13 0 -13 -4 0 -15 -32 -22 -45 -11 -10 8 -17 5 -28 -10 -12 -18 -19 -20
-35 -11 -12 6 -23 20 -27 31 -4 12 -25 26 -56 37 -41 15 -49 22 -49 43 0 44
-30 71 -125 116 -51 24 -98 44 -104 44 -8 0 -11 13 -9 37 2 28 8 39 22 41 10
2 23 -2 27 -10 7 -10 10 -8 15 10 7 25 24 30 24 7 0 -20 10 -19 25 2 7 9 27
17 46 18 19 1 42 5 51 9 10 5 23 6 30 3 7 -2 20 2 30 10 10 9 18 11 22 4 4 -5
-3 -15 -14 -21 -22 -12 -27 -40 -7 -40 6 0 19 -13 29 -29 15 -28 15 -30 -2
-46 -9 -9 -41 -19 -69 -24 -51 -8 -94 -31 -59 -31 9 0 19 4 22 8 3 5 24 9 46
10 23 1 48 9 56 17 13 13 17 13 30 1 7 -8 19 -17 26 -20 10 -5 10 -7 1 -12 -7
-3 -13 -12 -13 -19 0 -8 -5 -17 -10 -20 -18 -11 -50 6 -50 26 0 10 -4 19 -10
19 -16 0 -12 -25 9 -49 13 -15 24 -19 37 -14 23 9 44 28 44 42 0 5 12 19 26
30 27 21 45 27 43 14 -3 -19 2 -33 12 -33 6 0 23 -8 37 -18 31 -21 113 -24
119 -4 3 6 0 12 -6 12 -6 0 -11 -5 -11 -11 0 -5 -4 -8 -10 -4 -5 3 -25 6 -44
7 -41 1 -86 36 -86 67 0 12 4 19 10 16 6 -3 10 -2 10 4 0 20 -22 22 -27 3 -3
-14 -10 -19 -21 -15 -11 5 -13 3 -7 -7 6 -10 3 -12 -13 -8 -12 4 -22 2 -22 -3
0 -5 -7 -9 -15 -9 -24 0 -30 48 -10 70 10 11 16 22 13 25 -3 3 -13 -4 -23 -15
-19 -20 -19 -20 -32 11 -9 21 -10 37 -3 49 11 20 -13 80 -32 80 -7 0 -7 -5 1
-14 19 -23 2 -46 -34 -46 -19 0 -36 -4 -39 -9 -3 -5 -15 -7 -26 -4 -11 3 -31
-2 -44 -11 -18 -11 -26 -12 -29 -3 -3 9 -9 9 -26 0 -11 -7 -31 -13 -43 -13
-12 0 -29 -7 -39 -16 -27 -24 -45 -11 -58 42 -17 68 -75 143 -123 159 -38 13
-17 27 35 23 48 -3 53 -1 53 17 -1 14 6 21 25 23 16 2 31 12 38 28 6 13 19 28
28 31 10 4 24 13 31 19 10 10 21 10 54 -2 23 -8 45 -11 50 -6 12 12 21 63 11
60 -16 -4 -53 14 -48 23 4 5 0 9 -7 9 -10 0 -10 2 1 9 9 6 10 10 2 16 -14 8 4
35 24 35 7 0 15 10 18 22 7 26 5 30 -9 20z m-924 -172 c0 -13 -28 -25 -38 -16
-3 4 0 11 8 16 20 13 30 12 30 0z m57 -6 c-3 -3 -12 -4 -19 -1 -8 3 -5 6 6 6
11 1 17 -2 13 -5z m196 -11 c-7 -2 -19 -2 -25 0 -7 3 -2 5 12 5 14 0 19 -2 13
-5z m158 -3 c11 -6 19 -21 19 -35 0 -27 -35 -68 -52 -62 -15 4 -31 54 -24 72
8 21 43 19 55 -2 6 -10 11 -13 11 -8 1 33 -72 49 -84 19 -22 -57 8 -114 58
-114 35 0 46 13 46 51 0 10 3 19 7 19 4 0 55 -28 112 -62 112 -68 140 -99 166
-183 20 -67 19 -73 -10 -67 -15 2 -25 11 -25 22 0 22 -25 44 -70 62 -33 14
-34 15 -13 22 24 8 40 46 28 66 -6 10 -111 80 -120 80 -2 0 -2 -7 1 -15 4 -8
11 -12 18 -8 6 3 6 1 -1 -8 -7 -7 -13 -23 -13 -36 0 -24 -14 -31 -25 -13 -3 6
-1 10 4 10 18 0 13 57 -5 64 -23 9 -31 7 -15 -3 17 -11 22 -49 8 -58 -5 -3
-16 2 -25 11 -12 12 -13 19 -5 27 6 6 9 18 6 27 -5 12 -1 14 21 8 18 -4 25 -3
21 4 -10 17 -44 11 -55 -9 -21 -41 -12 -60 45 -92 31 -17 54 -33 52 -35 -2 -3
-24 7 -49 21 -52 29 -78 25 -78 -12 0 -22 4 -25 25 -21 14 3 25 1 25 -3 0 -13
-44 -11 -58 3 -17 17 -15 55 4 62 8 3 12 11 9 17 -10 15 -45 -20 -45 -45 0
-12 6 -30 14 -41 20 -30 28 -95 11 -95 -15 0 -40 126 -32 166 2 13 1 24 -4 24
-19 0 -38 34 -49 88 -6 31 -14 65 -16 75 -5 14 2 17 41 17 25 0 55 -5 66 -10z
m-104 -76 c8 -41 21 -75 32 -84 13 -12 20 -37 25 -99 4 -46 10 -90 13 -97 4
-11 -7 -14 -48 -13 -51 1 -52 1 -21 10 37 11 37 13 16 108 -10 44 -23 75 -33
80 -25 13 -194 21 -237 11 -24 -6 -40 -5 -42 0 -2 6 -8 10 -13 10 -6 0 -7 -4
-4 -10 4 -6 -8 -10 -30 -10 -29 0 -37 5 -46 27 -16 43 -8 58 31 55 40 -3 56
-15 45 -32 -6 -9 -10 -8 -17 4 -5 9 -13 16 -18 16 -14 0 -12 -24 2 -38 9 -9
16 -8 30 5 16 15 21 15 28 3 5 -8 7 -17 5 -21 -3 -3 7 -4 20 -1 14 2 25 8 25
13 0 5 -6 6 -14 3 -8 -3 -17 -1 -21 5 -3 6 -1 11 4 11 6 0 11 4 11 9 0 6 -9 8
-20 6 -25 -5 -27 10 -3 20 13 4 25 -2 40 -21 19 -24 63 -42 61 -25 -2 20 4 22
16 6 12 -16 16 -17 30 -6 9 7 13 17 10 22 -8 14 -25 0 -18 -14 5 -8 3 -8 -7 1
-10 9 -10 15 -2 23 18 18 46 3 38 -21 -4 -11 -2 -20 4 -20 18 0 12 48 -6 59
-10 6 -13 10 -8 11 25 0 37 -19 33 -49 -3 -20 -1 -30 6 -28 16 5 19 50 4 70
-12 17 -25 17 -168 10 l-155 -8 -3 -27 c-2 -15 2 -36 8 -48 10 -19 8 -20 -50
-20 -45 0 -62 -4 -66 -15 -8 -21 25 -156 44 -177 11 -13 30 -18 74 -18 32 0
58 -4 58 -10 0 -6 -33 -10 -79 -10 -103 0 -123 15 -141 102 -25 129 -58 188
-104 188 -21 0 -175 -65 -348 -147 -76 -36 -142 -63 -149 -61 -14 5 275 145
421 203 63 26 141 51 174 56 32 6 71 16 87 24 20 11 67 15 171 16 79 1 172 5
208 9 36 4 69 6 74 5 5 -1 16 -32 23 -71z m-147 2 c0 -3 -4 -8 -10 -11 -5 -3
-10 -1 -10 4 0 6 5 11 10 11 6 0 10 -2 10 -4z m-34 -17 c14 -23 -14 -31 -37
-10 l-23 21 27 0 c14 0 29 -5 33 -11z m294 -13 c0 -2 -7 -7 -16 -10 -8 -3 -12
-2 -9 4 6 10 25 14 25 6z m-730 -58 c11 -18 26 -64 35 -103 22 -97 32 -119 64
-138 33 -19 97 -21 241 -7 212 21 496 31 624 21 125 -10 188 -26 103 -26 -24
0 -54 -9 -69 -19 -28 -18 -28 -19 -28 -135 l0 -117 30 -22 c16 -12 41 -27 55
-32 24 -9 25 -14 25 -83 0 -41 3 -142 7 -225 l6 -152 -106 0 -107 0 0 -30 c0
-16 -5 -30 -11 -30 -7 0 -9 14 -5 43 3 23 6 120 7 216 2 159 1 175 -16 187
-29 21 -418 14 -440 -8 -3 -3 -33 -77 -66 -164 -34 -88 -72 -181 -86 -209 -22
-43 -26 -67 -30 -178 l-5 -127 -34 0 c-18 0 -35 3 -37 8 -6 10 11 963 17 969
3 3 71 11 151 18 80 7 148 15 152 19 9 8 -13 8 -168 -5 -113 -9 -172 -21 -373
-75 -131 -36 -240 -63 -241 -62 -1 2 0 92 4 201 l6 198 110 49 c135 59 158 61
185 18z m856 -32 c-3 -14 -2 -28 4 -31 6 -3 10 4 10 18 0 14 7 27 15 30 22 9
29 -11 10 -29 -9 -9 -14 -19 -11 -22 3 -2 14 6 25 19 l20 24 1 -32 c0 -23 -6
-36 -21 -43 -11 -7 -23 -9 -27 -6 -3 3 1 6 9 6 8 0 -3 10 -23 23 -28 16 -35
26 -28 37 5 8 6 18 4 22 -3 4 0 8 6 8 8 0 10 -9 6 -24z m-247 -23 c21 -78 24
-122 10 -128 -19 -6 -232 -26 -236 -21 -2 2 27 9 64 16 75 14 118 28 111 35
-3 3 -54 -6 -114 -19 -143 -31 -254 -41 -277 -24 -20 15 -52 139 -43 163 4 13
44 15 240 15 l235 0 10 -37z m148 -25 c-3 -8 -6 -5 -6 6 -1 11 2 17 5 13 3 -3
4 -12 1 -19z m105 -14 c13 3 17 3 9 0 -8 -4 10 -20 50 -43 69 -40 89 -71 45
-71 -17 0 -26 5 -26 16 0 14 -10 15 -72 9 -40 -3 -85 -8 -100 -11 -25 -5 -28
-2 -28 19 0 14 -3 32 -6 41 -5 12 0 16 19 16 13 0 30 7 37 15 7 9 8 15 2 15
-5 0 -13 7 -16 16 -5 12 1 11 29 -6 21 -13 43 -19 57 -16z m-1186 -444 c-2
-253 -5 -463 -8 -465 -3 -3 -40 -6 -84 -8 l-79 -2 -6 45 c-7 51 -5 58 14 42
17 -14 137 4 142 22 2 6 6 105 10 219 l6 209 -23 -8 c-13 -5 -35 -8 -50 -8
-15 1 -25 -2 -23 -6 5 -7 -44 -25 -50 -18 -1 2 -5 84 -7 183 -3 99 -2 149 2
110 l6 -70 2 73 2 73 72 34 c40 19 73 35 74 35 2 0 1 -207 0 -460z m-238 337
c-108 -57 -520 -278 -575 -308 -29 -16 -53 -25 -53 -21 0 19 634 362 668 362
16 0 4 -10 -40 -33z m62 -4 c-1 -12 -26 -30 -78 -55 -42 -20 -94 -48 -116 -63
-21 -14 -127 -70 -235 -125 -108 -54 -208 -110 -224 -124 -24 -22 -27 -32 -27
-92 0 -58 2 -65 15 -54 10 8 15 31 15 69 0 44 5 62 21 80 12 12 24 19 28 15 3
-4 0 -9 -7 -11 -6 -3 -9 -10 -5 -16 11 -17 9 -137 -2 -137 -6 0 -9 26 -7 65 3
45 0 65 -8 65 -8 0 -11 -21 -8 -70 3 -66 2 -69 -21 -75 -13 -3 -21 -8 -18 -11
3 -3 33 4 67 17 34 12 56 25 50 29 -8 5 -7 9 3 13 10 4 14 25 16 73 1 37 4 71
7 76 8 12 -10 9 -30 -5 -15 -11 -17 -25 -14 -90 2 -60 0 -77 -11 -77 -8 0 -11
6 -7 16 3 9 6 46 6 83 0 67 0 67 35 84 35 17 70 14 59 -5 -4 -6 -10 -5 -15 3
-5 9 -9 -12 -9 -53 0 -36 -3 -74 -7 -83 -5 -16 -3 -16 18 -4 24 13 30 15 49
18 16 2 24 71 10 96 -7 13 -9 32 -5 45 5 15 4 20 -4 16 -6 -4 -11 -37 -11 -77
0 -44 -4 -69 -11 -69 -8 0 -9 13 -5 40 4 27 3 40 -5 40 -8 0 -8 4 1 15 6 8 9
23 6 33 -5 14 1 22 20 31 26 12 26 11 22 -29 -2 -22 0 -40 4 -40 5 0 8 19 8
43 0 40 3 43 50 70 28 15 52 27 55 27 3 0 5 -38 5 -85 0 -47 3 -85 8 -85 4 0
5 40 4 90 -3 63 -1 90 7 90 8 0 11 -28 9 -92 -2 -75 -6 -93 -18 -93 -12 0 -16
17 -18 78 -2 46 -7 77 -14 77 -7 0 -8 -24 -3 -75 5 -54 3 -80 -5 -90 -10 -12
-9 -15 4 -15 10 0 14 5 10 11 -4 7 0 9 12 5 39 -12 46 6 42 107 l-3 96 31 15
c18 8 35 12 38 9 3 -4 5 -25 5 -47 -1 -40 -2 -40 -10 -11 -5 19 -6 1 -2 -46 4
-54 2 -79 -7 -84 -9 -6 -11 14 -9 84 2 50 2 91 -1 91 -21 0 -30 -33 -30 -112
0 -48 2 -88 5 -88 2 0 15 5 28 11 23 10 25 18 33 122 l9 111 90 47 c50 26 93
48 98 48 9 1 9 -158 1 -222 l-7 -46 -176 -61 c-243 -84 -351 -123 -346 -128 3
-4 232 73 425 143 82 30 115 37 99 20 -7 -6 -682 -235 -694 -235 -5 0 -5 4 2
8 8 5 13 42 14 110 l1 102 167 87 c91 48 243 128 336 179 94 51 173 93 178 94
4 0 7 -8 7 -17z m1393 0 c-13 -2 -33 -2 -45 0 -13 2 -3 4 22 4 25 0 35 -2 23
-4z m215 -19 c-4 -3 -17 -2 -30 2 -22 7 -22 7 -3 14 20 8 44 -4 33 -16z m-785
9 c-7 -2 -19 -2 -25 0 -7 3 -2 5 12 5 14 0 19 -2 13 -5z m162 -4 c-49 -4 -112
-10 -140 -14 -27 -3 -47 -4 -44 0 10 10 127 22 204 22 70 0 70 0 -20 -8z m633
-66 c14 -13 17 -40 20 -135 2 -118 2 -118 -23 -128 -17 -6 -37 -6 -62 3 l-38
12 -3 124 c-2 93 1 126 10 133 22 14 79 9 96 -9z m103 -23 c103 -50 107 -54
111 -98 3 -35 7 -38 58 -59 30 -12 56 -29 58 -38 3 -12 -2 -14 -21 -10 -52 13
-71 -69 -29 -118 8 -9 33 -20 54 -23 33 -6 38 -10 38 -34 l0 -28 -62 14 c-39
8 -67 9 -73 3 -12 -12 -62 -11 -87 2 -31 17 -39 1 -53 -113 -7 -56 -18 -132
-25 -168 l-11 -65 -40 3 -39 4 -2 192 c-1 105 -2 208 -3 228 0 31 -4 38 -24
43 -13 3 -21 8 -19 11 3 2 18 0 33 -6 22 -9 31 -7 46 6 17 15 19 33 19 136 0
66 -5 128 -10 139 -6 10 -8 19 -6 19 3 0 42 -18 87 -40z m-221 -101 c0 -66 -4
-109 -10 -109 -6 0 -10 45 -10 116 0 74 4 113 10 109 6 -4 10 -53 10 -116z
m-852 -371 c-4 -233 -9 -449 -10 -482 l-3 -58 -40 58 -40 59 -731 3 c-667 2
-733 1 -745 -14 -8 -10 -16 -53 -20 -103 -3 -47 -7 -72 -9 -56 -2 25 -3 26 -7
7 -2 -12 -9 -20 -14 -17 -14 9 -11 43 6 52 11 6 15 30 16 90 1 46 7 90 13 98
9 13 45 18 181 26 94 5 220 13 280 19 144 13 608 48 758 56 64 4 123 12 131
18 16 13 32 332 17 355 -7 11 -21 10 -85 -5 -41 -9 -81 -21 -88 -25 -10 -6
-13 -48 -13 -161 l0 -153 85 2 85 1 -60 -8 c-88 -14 -636 -52 -643 -46 -3 3 2
6 11 6 14 0 17 12 17 78 0 44 3 140 7 215 l6 136 106 37 c58 19 112 38 118 41
10 3 12 -48 10 -234 l-2 -238 89 -3 c49 -2 93 1 99 7 5 5 12 127 16 272 l6
262 225 63 c124 34 227 63 230 63 3 1 2 -189 -2 -421z m-901 250 c-2 -24 -4
-5 -4 42 0 47 2 66 4 43 2 -24 2 -62 0 -85z m405 -160 l-4 -196 -52 -7 c-28
-4 -59 -9 -68 -11 -16 -5 -18 5 -18 108 0 62 3 143 6 180 7 66 7 67 33 62 39
-7 86 9 89 32 3 16 1 16 -7 4 -7 -10 -28 -15 -63 -16 l-53 -1 35 13 c44 16 53
17 45 4 -3 -5 -1 -10 4 -10 6 0 11 4 11 8 0 7 43 33 46 28 0 0 -2 -90 -4 -198z
m1814 163 c-3 -4 6 -13 19 -19 20 -9 25 -19 25 -46 0 -47 -26 -62 -74 -42 -28
12 -36 22 -42 51 -8 42 -1 52 41 58 17 2 31 5 33 6 2 0 1 -3 -2 -8z m-2666
-15 c0 -2 -9 -6 -20 -9 -11 -3 -18 -1 -14 4 5 9 34 13 34 5z m787 -2 c-3 -3
-12 -4 -19 -1 -8 3 -5 6 6 6 11 1 17 -2 13 -5z m-644 -66 c-8 -84 -13 -86 -13
-5 0 37 4 67 9 67 5 0 7 -28 4 -62z m-151 45 c-9 -4 -10 -8 -2 -18 6 -8 10
-45 8 -89 l-3 -77 -85 -34 c-47 -19 -89 -35 -93 -35 -5 0 -6 26 -2 58 4 31 7
67 7 79 0 13 8 25 19 28 11 4 16 11 13 17 -4 7 -2 8 4 4 15 -9 73 24 65 37 -3
6 -1 7 5 3 7 -4 20 -2 29 3 10 6 14 11 8 11 -5 0 -3 5 5 10 8 5 20 9 25 9 6 0
4 -3 -3 -6z m-92 -33 c-20 -13 -33 -13 -25 0 3 6 14 10 23 10 15 0 15 -2 2
-10z m137 -47 c-3 -10 -5 -2 -5 17 0 19 2 27 5 18 2 -10 2 -26 0 -35z m160 -5
c-3 -8 -6 -5 -6 6 -1 11 2 17 5 13 3 -3 4 -12 1 -19z m225 -190 c-3 -136 -8
-205 -16 -210 -6 -4 -31 -8 -55 -8 l-44 0 6 143 c4 78 7 165 7 193 l0 50 48
16 c26 9 49 17 52 17 3 1 4 -90 2 -201z m1631 173 c4 -4 6 -90 4 -192 l-2
-184 -3 188 -2 187 -115 2 c-63 1 -127 2 -142 2 -22 1 -31 -6 -45 -34 l-17
-35 6 33 6 32 -51 0 c-28 0 -54 -6 -60 -13 -6 -7 -31 -67 -56 -132 -72 -190
-80 -210 -98 -236 -10 -13 -3 10 15 51 18 41 53 129 77 195 24 66 51 126 59
133 10 8 38 12 74 11 31 -1 60 1 64 5 9 9 275 -3 286 -13z m-2287 -13 c-9 -12
-16 -35 -16 -50 0 -44 -17 -33 -18 12 -2 38 9 52 46 59 2 1 -4 -9 -12 -21z
m44 3 c0 -14 -34 -71 -42 -71 -13 0 -9 35 8 58 15 22 34 29 34 13z m1308 -158
l-3 -158 -74 -3 c-47 -2 -77 1 -81 8 -10 16 1 263 12 275 10 11 88 32 126 34
l23 1 -3 -157z m610 145 c-3 -7 -29 -85 -58 -173 -30 -88 -59 -163 -64 -167
-6 -4 -11 -15 -11 -25 0 -10 -8 -19 -18 -21 -15 -3 -17 1 -11 25 4 15 19 55
34 89 15 33 30 71 34 85 8 31 -57 -104 -75 -156 -8 -22 -18 -43 -24 -47 -15
-11 -20 -388 -5 -388 6 0 8 5 4 11 -8 13 6 359 15 359 3 0 5 -34 3 -76 -2 -46
1 -81 7 -87 14 -14 14 -174 1 -182 -8 -5 -7 -12 2 -23 8 -10 9 -13 1 -9 -6 4
-14 3 -18 -3 -3 -5 -25 -10 -47 -10 l-41 0 5 200 c4 179 7 204 25 228 10 15
45 97 77 182 74 197 76 200 127 200 29 0 40 -4 37 -12z m306 -170 c-4 -101
-11 -184 -15 -186 -5 -2 -9 -15 -9 -28 0 -13 -4 -24 -10 -24 -14 0 -12 20 4
53 8 15 11 27 5 27 -5 0 -9 -5 -9 -11 0 -6 -14 -9 -32 -7 -33 3 -33 4 -76 130
-38 111 -47 128 -72 138 -28 12 -63 7 -86 -12 -7 -5 -26 -49 -44 -99 -18 -49
-34 -88 -36 -86 -8 8 62 198 70 190 5 -4 5 3 2 17 -5 17 -4 20 2 12 7 -10 13
-3 26 27 l16 41 135 0 136 0 -7 -182z m-2316 129 c-2 -1 -50 -25 -108 -54 -58
-29 -147 -75 -198 -102 -52 -28 -92 -45 -89 -38 2 7 68 48 148 93 79 44 167
94 194 112 48 30 50 30 53 11 2 -11 2 -21 0 -22z m572 -147 l0 -190 47 0 c25
0 44 -3 41 -6 -4 -3 -47 -2 -97 1 l-91 8 2 175 3 175 35 13 c63 23 60 31 60
-176z m2380 155 c62 -14 62 -14 15 -10 -27 2 -65 7 -82 11 l-33 7 -2 -174 -2
-174 -6 165 c-3 91 -4 171 -2 178 5 15 30 15 112 -3z m-3050 0 c0 -9 -80 -58
-86 -52 -3 3 4 8 15 12 12 3 21 12 21 20 0 7 8 16 18 18 26 7 32 7 32 2z
m2918 -2 c-10 -2 -26 -2 -35 0 -10 3 -2 5 17 5 19 0 27 -2 18 -5z m-2371 -125
c-4 -66 -7 -145 -7 -175 l0 -53 -41 0 c-41 0 -41 0 -35 31 3 17 6 91 6 164 l0
133 28 10 c56 21 56 23 49 -110z m2283 -38 l0 -160 -31 0 c-24 0 -29 3 -25 18
9 30 35 205 38 255 1 26 5 47 10 47 4 0 8 -72 8 -160z m30 16 c0 -79 3 -151 6
-160 4 -11 1 -16 -11 -16 -15 0 -17 14 -14 160 2 88 7 160 12 160 4 0 7 -65 7
-144z m164 128 c34 -6 36 -8 36 -46 0 -21 -4 -37 -9 -34 -22 14 -42 -23 -56
-105 -26 -155 -34 -148 -34 35 -1 142 1 167 13 163 8 -3 31 -9 50 -13z m-100
-149 c4 -85 4 -159 1 -165 -3 -5 -16 -10 -28 -10 -22 0 -22 3 -25 165 l-2 165
23 0 c24 0 24 -1 31 -155z m238 143 c9 -7 19 -24 23 -38 6 -21 3 -20 -14 8
-11 17 -28 32 -36 32 -9 0 -14 -4 -10 -9 7 -12 -17 -101 -27 -101 -4 0 -8 24
-8 54 0 44 4 55 18 59 30 8 38 7 54 -5z m-3061 -141 c-1 -86 -7 -155 -16 -185
-8 -26 -15 -60 -15 -76 0 -17 -4 -26 -8 -20 -10 11 2 396 12 413 21 33 28 -3
27 -132z m74 93 c0 -34 1 -35 38 -35 27 0 36 -4 32 -13 -3 -8 -5 -67 -5 -133
l0 -119 -29 0 c-24 0 -29 5 -35 31 -3 17 -5 64 -4 103 l2 71 6 -80 6 -80 2
101 c2 104 -4 124 -40 124 -14 0 -18 8 -18 36 0 31 3 35 22 32 18 -2 22 -10
23 -38z m275 -120 l0 -160 -25 -6 c-14 -4 -27 -5 -28 -3 -1 2 -1 75 1 161 3
163 2 160 45 167 4 0 7 -71 7 -159z m-401 -57 c-4 -200 -3 -207 16 -212 18 -5
20 -15 22 -91 1 -47 -1 -77 -3 -67 -3 10 -23 48 -44 85 l-38 67 -148 6 c-82 4
-150 7 -151 8 -2 0 -3 25 -3 55 0 49 2 54 25 60 23 6 25 11 23 54 l-1 47 -4
-43 c-3 -26 -8 -40 -15 -36 -5 4 -14 0 -19 -7 -6 -9 -9 4 -9 36 0 28 4 55 8
61 6 9 329 183 341 184 2 0 2 -93 0 -207z m295 195 c-19 -9 -21 -20 -27 -155
-3 -80 -8 -148 -11 -151 -15 -15 -17 18 -9 147 5 93 5 141 -2 141 -12 1 46 28
60 29 6 0 1 -5 -11 -11z m2834 -48 c20 -58 20 -59 1 -65 -25 -8 -44 13 -43 50
2 95 14 99 42 15z m-2799 -107 c-2 -89 -8 -161 -14 -165 -5 -4 -21 -8 -34 -8
-20 0 -22 3 -13 12 8 8 12 57 12 155 0 140 1 144 23 153 12 5 24 9 26 9 2 1 2
-70 0 -156z m1777 141 c-21 -21 -20 -47 3 -68 15 -14 24 -15 39 -7 11 6 23 15
25 21 3 6 4 5 3 -2 -1 -7 -14 -20 -29 -28 -23 -13 -28 -13 -46 4 -31 28 -26
96 6 96 12 0 12 -2 -1 -16z m59 6 c3 -6 -1 -7 -9 -4 -18 7 -21 14 -7 14 6 0
13 -4 16 -10z m-1930 -63 c-2 -195 -5 -235 -20 -241 -13 -4 -14 14 -8 134 5
117 4 140 -8 140 -11 0 -11 2 1 10 26 17 35 5 35 -43z m1923 22 c4 -34 -20
-44 -43 -19 -22 25 -12 52 17 48 16 -2 24 -11 26 -29z m-2091 -146 c-2 -32 -3
-8 -3 52 0 61 1 87 3 58 2 -29 2 -78 0 -110z m36 0 c-3 -76 -10 -142 -16 -148
-6 -7 -7 16 -3 69 3 43 6 110 6 148 0 37 4 68 10 68 5 0 7 -53 3 -137z m1967
127 c0 -5 -5 -10 -11 -10 -5 0 -7 5 -4 10 3 6 8 10 11 10 2 0 4 -4 4 -10z
m932 -7 c-11 -10 -23 -32 -27 -48 -4 -25 -1 -36 20 -55 19 -18 25 -33 25 -66
l0 -43 -42 2 c-39 2 -42 0 -50 -30 -6 -23 -13 -31 -23 -26 -14 5 -14 7 -1 17
16 12 56 134 56 170 0 11 5 38 11 59 7 27 15 37 31 37 l20 0 -20 -17z m-788
-98 c14 -44 26 -80 26 -80 0 -2 -256 8 -258 10 -1 1 9 34 24 73 l26 71 29 -14
c38 -20 72 -19 100 4 13 11 25 19 26 18 0 -1 13 -38 27 -82z m858 50 c7 -25 4
-33 -13 -48 -21 -16 -23 -16 -40 -1 -18 16 -26 64 -14 76 3 3 17 5 32 4 21 -1
28 -8 35 -31z m-3422 0 c-7 -8 -18 -15 -24 -15 -6 0 -2 7 8 15 25 19 32 19 16
0z m1517 -1 c-3 -3 -12 -4 -19 -1 -8 3 -5 6 6 6 11 1 17 -2 13 -5z m2014 -72
c12 -37 24 -73 27 -80 3 -10 -2 -13 -18 -10 -29 4 -37 25 -13 31 13 3 11 5 -7
6 -42 3 -60 24 -60 69 0 28 5 44 17 51 25 13 29 9 54 -67z m-2068 61 c-7 -2
-21 -2 -30 0 -10 3 -4 5 12 5 17 0 24 -2 18 -5z m-1473 -144 c0 -73 -4 -119
-10 -119 -5 0 -10 -16 -10 -35 0 -24 -5 -35 -15 -35 -11 0 -15 10 -14 38 1 36
2 36 8 7 l7 -30 7 40 c4 22 7 91 7 153 0 73 4 111 10 107 6 -4 10 -57 10 -126z
m-31 108 c-32 -21 -90 -47 -85 -38 9 13 79 51 85 45 2 -2 2 -5 0 -7z m3494
-59 l4 -58 -34 0 c-30 0 -33 3 -33 29 0 16 -3 36 -6 45 -4 11 -1 16 10 16 9 0
24 9 34 20 19 23 19 24 25 -52z m-3495 -58 c-3 -109 -2 -107 -67 -94 l-31 7 0
67 0 68 43 26 c23 14 46 25 50 26 5 0 7 -45 5 -100z m2361 51 c-6 -18 -13 -30
-15 -28 -2 2 1 18 7 36 6 18 13 30 15 28 2 -2 -1 -18 -7 -36z m-2479 -1 c-10
-7 -11 -10 -2 -10 13 0 16 -47 6 -97 -5 -26 -9 -29 -32 -25 -15 3 -30 10 -34
16 -6 8 -8 8 -8 -1 0 -6 -9 -9 -20 -6 -28 7 -25 23 4 23 13 0 38 3 55 6 26 5
31 11 31 35 l0 28 -45 -16 c-28 -9 -45 -21 -46 -31 0 -14 -2 -13 -8 3 -8 19 7
47 21 39 4 -3 20 2 35 10 16 8 24 15 20 16 -5 0 -17 -5 -28 -10 -10 -6 -19 -8
-19 -6 0 8 74 45 80 40 2 -3 -2 -9 -10 -14z m3700 -62 l25 -3 3 -202 c1 -133
-1 -203 -8 -203 -6 0 -10 72 -11 203 0 111 -4 193 -8 182 -8 -19 -8 -19 -19 0
-6 11 -12 16 -12 11 0 -6 -7 -1 -16 10 -15 19 -16 19 -9 -1 3 -11 3 -16 -2
-12 -4 5 -8 22 -9 38 l-2 29 22 -24 c11 -13 32 -26 46 -28z m-997 32 c112 0
128 -2 117 -15 -6 -8 -9 -18 -6 -23 5 -9 -333 -5 -342 4 -2 1 -1 12 3 24 6 20
12 22 52 16 25 -3 104 -6 176 -6z m-2147 -71 c-8 -35 -14 -54 -15 -41 -1 26
20 115 25 109 2 -2 -2 -33 -10 -68z m2645 61 l97 0 -2 -26 -1 -27 -134 7 c-74
3 -154 6 -178 6 -40 0 -43 2 -43 26 l0 27 83 -6 c45 -4 125 -7 178 -7z m-2177
-15 c3 -8 1 -15 -4 -15 -6 0 -10 7 -10 15 0 8 2 15 4 15 2 0 6 -7 10 -15z
m1421 -28 c-8 -20 -15 -61 -15 -92 0 -44 -3 -55 -16 -55 -26 0 -10 133 19 163
12 13 23 22 25 22 1 -1 -5 -18 -13 -38z m445 35 c0 -13 -12 -22 -22 -16 -10 6
-1 24 13 24 5 0 9 -4 9 -8z m520 -17 c0 -8 -4 -15 -10 -15 -5 0 -10 7 -10 15
0 8 5 15 10 15 6 0 10 -7 10 -15z m-3450 -5 c0 -5 -5 -10 -11 -10 -5 0 -7 5
-4 10 3 6 8 10 11 10 2 0 4 -4 4 -10z m673 -10 c3 -11 1 -18 -4 -14 -5 3 -9
12 -9 20 0 20 7 17 13 -6z m455 13 c-10 -2 -26 -2 -35 0 -10 3 -2 5 17 5 19 0
27 -2 18 -5z m1209 -25 c-3 -7 -5 -2 -5 12 0 14 2 19 5 13 2 -7 2 -19 0 -25z
m1073 28 c0 -2 3 -11 6 -20 5 -13 -1 -16 -30 -16 -29 0 -36 4 -36 20 0 16 7
20 30 20 17 0 30 -2 30 -4z m198 -2 c43 -6 52 -10 52 -26 0 -18 -5 -19 -77
-13 -87 8 -93 10 -93 31 0 16 32 18 118 8z m-2999 -98 c-9 -8 -10 -7 -5 7 3
10 7 35 8 55 1 35 2 35 5 -7 3 -26 -1 -48 -8 -55z m404 87 c-13 -2 -33 -2 -45
0 -13 2 -3 4 22 4 25 0 35 -2 23 -4z m2774 -25 c-3 -7 -5 -2 -5 12 0 14 2 19
5 13 2 -7 2 -19 0 -25z m-567 -8 c413 -16 450 -20 450 -41 0 -23 40 -23 -629
-4 -283 8 -518 12 -523 9 -4 -3 -8 9 -8 27 l0 32 233 -7 c127 -4 342 -11 477
-16z m490 -25 c0 -31 -4 -43 -12 -40 -18 7 -19 85 -2 85 10 0 14 -14 14 -45z
m26 -43 c-11 -10 -14 3 -7 38 l6 35 3 -33 c2 -19 1 -36 -2 -40z m-1223 18
c105 0 1152 -32 1156 -35 2 -3 0 -14 -5 -26 -9 -20 -16 -20 -244 -20 -129 1
-391 4 -582 7 l-348 7 1 51 c1 28 3 43 6 34 2 -10 10 -18 16 -18z m-2559 5 c3
-8 1 -15 -4 -15 -6 0 -10 7 -10 15 0 8 2 15 4 15 2 0 6 -7 10 -15z m23 -17
c-3 -8 -6 -5 -6 6 -1 11 2 17 5 13 3 -3 4 -12 1 -19z m55 -1 c4 -20 1 -23 -18
-19 -16 3 -20 9 -17 23 7 27 30 24 35 -4z m47 1 c2 23 21 12 21 -13 0 -25 -14
-32 -37 -17 -7 5 -10 17 -6 32 6 22 7 23 14 4 4 -10 8 -13 8 -6z m2248 -111
c-2 -23 -3 -1 -3 48 0 50 1 68 3 42 2 -26 2 -67 0 -90z m-2200 86 c-3 -10 -5
-4 -5 12 0 17 2 24 5 18 2 -7 2 -21 0 -30z m82 -5 l-2 -33 -4 29 c-4 22 -7 26
-14 15 -7 -11 -9 -11 -9 4 0 9 7 17 15 17 11 0 15 -10 14 -32z m31 12 c0 -5 7
-10 15 -10 8 0 15 -4 15 -10 0 -5 -11 -9 -25 -8 -17 2 -25 8 -25 20 0 10 5 18
10 18 6 0 10 -4 10 -10z m379 -52 c-1 -68 -6 -61 -11 15 -2 26 0 47 4 47 5 0
7 -28 7 -62z m581 45 c-1 -30 -20 -34 -131 -31 -99 3 -114 5 -117 21 -3 15 8
17 122 17 69 0 126 -3 126 -7z m-897 -47 c-5 -30 -2 -34 22 -40 20 -5 26 -12
22 -26 -3 -13 2 -20 21 -25 20 -5 23 -8 11 -16 -7 -5 -18 -9 -24 -9 -5 0 -3 5
5 10 13 8 12 10 -5 11 -11 1 -28 1 -38 1 -10 -1 -15 3 -12 8 3 6 13 10 21 10
8 0 14 5 14 10 0 7 -7 7 -21 -1 -16 -8 -24 -8 -33 2 -8 9 -7 11 6 6 10 -3 20
-2 23 3 4 6 -1 10 -9 10 -16 0 -33 61 -21 80 12 20 24 0 18 -34z m565 19 c-2
-2 -19 1 -38 5 l-35 9 33 -3 c18 -1 32 2 33 8 0 6 3 5 6 -2 3 -7 3 -15 1 -17z
m687 6 c-1 -12 -13 -15 -51 -12 -27 2 -82 4 -121 4 -40 1 -73 5 -73 9 0 10 27
13 141 14 90 0 106 -2 104 -15z m87 -17 l-5 -37 -118 6 c-72 4 -119 3 -119 -3
0 -5 21 -11 48 -13 l47 -3 -52 -2 c-42 -2 -53 1 -53 13 0 13 -11 15 -57 13
l-58 -3 0 -60 c0 -33 3 -87 7 -120 4 -40 3 -52 -3 -37 -5 13 -12 69 -16 124
-7 115 -5 119 66 113 26 -3 94 -7 154 -10 l107 -5 0 30 c0 26 4 30 28 30 26 0
28 -2 24 -36z m211 26 c22 0 27 -4 27 -26 0 -22 -3 -24 -22 -18 -12 3 -51 6
-86 5 -75 -2 -102 5 -102 24 0 17 38 24 105 19 28 -2 62 -3 78 -4z m118 0 c26
0 29 -4 29 -30 0 -29 -2 -30 -45 -30 l-45 0 0 36 c0 29 3 35 16 30 9 -3 29 -6
45 -6z m1753 -18 c0 -12 -1 -42 -2 -67 l-2 -44 -25 25 c-29 29 -30 31 -10 78
17 40 40 44 39 8z m63 -159 c-2 -37 -3 -9 -3 62 0 72 1 102 3 68 2 -34 2 -93
0 -130z m-2501 168 c-18 -7 -66 -3 -66 5 0 2 19 4 43 3 30 0 36 -3 23 -8z
m846 -8 c10 -9 18 -22 18 -30 0 -16 -42 -17 -58 -1 -7 7 -12 8 -12 2 0 -5 -13
-11 -29 -12 -27 -2 -30 1 -29 28 1 29 3 30 46 30 28 0 52 -6 64 -17z m-1783
-15 c0 -22 -1 -22 -9 -3 -8 19 -9 19 -9 -3 -1 -13 -5 -21 -10 -18 -13 9 -1 46
15 46 8 0 14 -10 13 -22z m212 -76 c43 -80 44 -82 29 -82 -5 0 -10 9 -10 21 0
11 -4 18 -9 15 -5 -3 -12 6 -16 21 -5 22 -8 24 -16 12 -8 -11 -10 -10 -8 6 1
11 0 23 -1 28 -1 4 -3 12 -4 19 0 6 -7 13 -15 16 -10 3 -13 -3 -9 -27 2 -17 1
-31 -4 -31 -4 0 -8 14 -8 30 0 17 -4 30 -10 30 -5 0 -10 -9 -10 -20 0 -26 -26
-16 -35 13 -7 22 -7 22 -14 -3 l-8 -25 -13 30 c-13 28 -14 29 -17 8 -6 -33
-23 -28 -23 5 l0 28 81 -11 81 -10 39 -73z m179 88 c20 -6 14 -8 -27 -9 -43
-1 -53 -4 -54 -18 0 -13 -2 -14 -6 -4 -7 16 23 41 46 40 9 -1 27 -5 41 -9z
m52 -1 c2 -6 18 -12 37 -13 18 -1 37 -9 42 -17 12 -19 11 -59 -1 -59 -5 0 -10
11 -10 24 0 29 -5 33 -49 38 -44 4 -52 -16 -11 -30 26 -9 30 -9 31 6 0 9 4 5
9 -10 4 -15 20 -42 34 -61 30 -39 35 -64 6 -28 l-20 23 6 -44 c5 -33 2 -47 -9
-56 -10 -9 -17 -10 -22 -2 -3 5 0 10 7 10 9 0 13 14 11 47 -2 64 -9 80 -45 92
-35 13 -48 7 -48 -20 0 -10 -4 -19 -10 -19 -12 0 -12 2 0 34 7 20 6 24 -5 19
-8 -3 -15 -13 -15 -22 0 -14 -2 -14 -10 -1 -14 22 -13 26 16 38 14 7 22 17 19
22 -3 6 -1 10 4 10 6 0 11 7 11 15 0 17 17 20 22 4z m-559 -32 c-3 -5 1 -13 8
-18 8 -5 17 -3 21 4 5 8 8 4 8 -11 0 -22 -1 -22 -25 -6 -14 9 -25 23 -25 32 0
13 -3 12 -15 -4 -14 -19 -14 -19 -15 3 0 13 7 23 18 25 19 4 34 -11 25 -25z
m27 18 c7 -9 8 -15 2 -15 -5 0 -12 7 -16 15 -3 8 -4 15 -2 15 2 0 9 -7 16 -15z
m866 -4 c6 -1 14 -34 18 -78 7 -83 25 -164 45 -202 12 -21 11 -22 -11 -15 -12
4 -61 18 -108 31 -113 31 -134 60 -146 199 l-6 79 98 -6 c55 -4 104 -7 110 -8z
m-212 -83 c4 -70 11 -100 26 -120 26 -36 25 -39 -10 -27 -29 11 -41 29 -19 29
5 0 7 5 3 11 -4 7 -8 26 -10 43 -1 17 -7 59 -12 94 -6 46 -6 62 3 62 8 0 14
-32 19 -92z m2289 76 l437 -7 0 -39 0 -38 -90 0 -90 0 6 -24 c4 -19 1 -26 -15
-31 -25 -8 -41 1 -41 22 0 9 -7 25 -17 35 -14 16 -33 18 -147 18 -72 0 -137
-4 -144 -9 -30 -18 -43 -157 -17 -167 8 -4 15 -15 15 -25 0 -15 7 -19 35 -19
22 0 38 6 41 15 11 28 24 15 24 -25 0 -39 1 -40 41 -46 33 -6 40 -10 37 -28
-3 -18 -11 -21 -59 -24 -55 -3 -58 -1 -87 33 -16 20 -58 86 -92 147 -34 60
-67 111 -74 113 -32 10 -370 25 -379 16 -6 -6 9 -46 39 -110 l49 -100 -60 5
c-33 3 -72 7 -87 9 -34 5 -35 -1 -5 -26 l22 -18 -31 -1 c-19 0 -34 6 -37 15
-4 8 -24 23 -47 35 -22 11 -40 22 -40 25 0 13 66 35 98 33 l37 -3 3 98 c3 92
1 99 -18 104 -11 3 -20 12 -20 21 0 13 18 14 138 9 75 -4 334 -10 575 -13z
m-2503 -14 c0 -11 5 -40 12 -64 11 -42 14 -45 70 -62 32 -9 58 -20 58 -25 0
-4 -30 3 -67 16 -50 17 -67 27 -65 39 3 17 -23 22 -33 6 -13 -22 -25 -8 -25
30 0 22 5 40 10 40 7 0 8 -13 4 -36 -5 -27 -4 -35 5 -30 6 4 11 29 11 57 0 27
5 49 10 49 6 0 10 -9 10 -20z m40 11 c0 -6 -4 -13 -10 -16 -5 -3 -10 1 -10 9
0 9 5 16 10 16 6 0 10 -4 10 -9z m513 -91 c7 -116 22 -173 51 -197 20 -18 20
-17 6 2 -11 16 -11 17 0 8 19 -18 24 -57 6 -50 -8 3 -33 11 -56 18 -23 7 -48
22 -56 34 -17 26 -40 130 -48 218 l-7 67 49 0 49 0 6 -100z m482 80 c-3 -5
-11 -10 -16 -10 -6 0 -7 5 -4 10 3 6 11 10 16 10 6 0 7 -4 4 -10z m-375 -45
c0 -25 -4 -45 -10 -45 -5 0 -10 20 -10 45 0 25 5 45 10 45 6 0 10 -20 10 -45z
m422 36 c4 -12 218 -19 218 -7 0 5 7 2 17 -5 14 -12 17 -12 21 0 4 11 6 11 13
0 7 -11 11 -11 17 -2 5 8 13 9 22 3 8 -6 35 -10 59 -10 44 0 81 -21 81 -45 0
-8 -24 -9 -87 -3 -62 6 -94 5 -110 -3 -13 -7 -38 -9 -68 -5 -57 9 -57 32 1 28
119 -9 254 -8 237 2 -17 9 -556 30 -598 23 -11 -2 46 -7 128 -11 117 -7 147
-11 147 -23 0 -11 -11 -13 -59 -7 -57 6 -58 6 -63 -21 -4 -17 -1 -28 8 -32 18
-7 44 14 45 36 0 11 4 8 12 -8 9 -19 9 -25 -1 -29 -6 -2 -12 -12 -12 -23 0
-14 -7 -19 -30 -19 -21 0 -30 5 -30 16 0 13 -3 14 -15 4 -8 -6 -19 -9 -25 -5
-15 9 -12 35 5 35 9 0 12 -6 8 -17 -6 -15 -5 -15 8 -4 8 8 14 28 15 47 l0 32
-95 7 c-95 6 -137 13 -93 14 12 1 22 5 22 10 0 5 -10 11 -22 14 -13 2 28 2 90
0 74 -3 112 -1 112 6 0 13 17 14 22 2z m71 2 c-13 -2 -33 -2 -45 0 -13 2 -3 4
22 4 25 0 35 -2 23 -4z m-509 -180 c1 -46 0 -83 -1 -83 -1 0 -9 10 -17 23 -9
13 -18 60 -22 112 -3 50 -9 94 -11 99 -3 4 0 12 8 17 20 12 40 -69 43 -168z
m1166 87 c0 -84 -1 -90 -21 -90 -15 0 -19 5 -15 18 3 9 6 50 8 90 2 50 6 72
15 72 10 0 13 -24 13 -90z m-2089 65 c76 -27 118 -48 113 -57 -3 -4 0 -8 7 -8
7 0 10 -2 8 -5 -11 -10 -174 53 -177 69 -4 20 -5 20 49 1z m1097 -6 c-7 -5
-37 -9 -66 -9 -47 0 -53 -3 -62 -26 -14 -35 -13 -197 1 -228 9 -18 24 -28 60
-36 27 -7 52 -17 55 -22 4 -6 -1 -8 -12 -5 -11 4 -32 9 -49 13 -16 4 -40 16
-52 27 -21 19 -23 29 -23 136 0 104 2 117 22 138 19 20 31 23 81 22 35 -1 53
-5 45 -10z m-704 -23 c25 -22 37 -54 16 -41 -5 3 -10 1 -10 -4 0 -6 5 -11 12
-11 6 0 9 -2 6 -5 -2 -3 -29 3 -59 12 -33 10 -47 18 -36 21 10 2 24 -2 32 -8
13 -10 15 -7 15 18 0 17 -6 33 -12 35 -10 4 -10 6 -1 6 7 1 23 -10 37 -23z
m2864 2 c5 -7 13 -37 17 -65 5 -42 13 -58 38 -79 24 -21 28 -27 16 -35 -8 -5
-19 -9 -26 -9 -6 0 -18 -3 -27 -6 -11 -4 -26 15 -56 76 l-41 82 31 -4 c30 -5
32 -3 26 24 -6 29 4 37 22 16z m-2128 -19 c-14 -25 -9 -32 14 -23 11 4 16 14
13 25 -3 12 0 16 9 12 17 -6 18 -19 3 -29 -6 -3 -9 -15 -6 -25 5 -20 -3 -23
-41 -13 -19 6 -22 11 -17 31 4 16 2 22 -5 18 -5 -3 -10 1 -10 9 0 10 9 16 25
16 23 0 24 -2 15 -21z m772 -56 c3 -76 4 -78 38 -100 19 -12 52 -33 73 -47
l37 -26 0 -77 c0 -83 -14 -113 -55 -113 -34 0 -45 20 -45 79 0 96 -14 126 -70
157 l-50 27 0 89 0 88 35 0 34 0 3 -77z m-1887 47 c13 -6 15 -9 5 -9 -8 0 -22
4 -30 9 -18 12 -2 12 25 0z m1024 -6 c-12 -15 -16 -43 -20 -134 -1 -14 3 -42
9 -63 10 -36 9 -38 -7 -23 -10 9 -21 13 -24 9 -4 -3 -7 43 -7 104 0 60 3 113
7 116 3 4 17 7 31 7 21 0 23 -2 11 -16z m232 9 c28 -5 30 -7 14 -14 -27 -10
-85 -11 -85 -1 0 22 18 26 71 15z m267 -23 c11 0 23 -4 26 -9 4 -5 -12 -7 -35
-5 -22 2 -48 0 -57 -5 -21 -10 -42 -4 -42 13 0 21 52 35 71 19 8 -7 25 -13 37
-13z m126 14 c3 -9 6 -24 6 -35 0 -10 3 -19 7 -19 12 0 43 33 43 47 0 8 11 13
29 13 34 0 61 -9 61 -20 0 -8 -49 -25 -63 -22 -4 1 -15 -11 -24 -27 -13 -22
-26 -30 -58 -34 -47 -7 -51 -4 -58 46 -5 31 -3 38 8 33 8 -3 15 -1 15 4 0 6
-5 10 -11 10 -5 0 -7 5 -4 10 10 16 42 12 49 -6z m652 -89 l62 -105 -39 0
c-21 0 -41 5 -44 10 -4 6 -10 8 -14 5 -9 -5 -48 74 -43 87 1 5 -2 8 -7 8 -5 0
-17 19 -27 43 -10 23 -20 45 -22 50 -2 4 14 7 35 7 38 -1 39 -2 99 -105z m30
97 c6 -4 19 -21 28 -39 9 -17 38 -62 66 -98 27 -36 50 -68 50 -71 0 -2 -15 -4
-34 -4 -28 0 -38 6 -56 35 -12 19 -26 33 -30 30 -5 -3 -12 0 -16 6 -5 8 -3 9
6 4 8 -5 11 -3 8 6 -3 8 -10 13 -16 12 -7 -2 -9 4 -5 14 4 10 2 14 -5 9 -6 -3
-14 -1 -18 5 -4 8 -3 9 4 5 21 -13 12 9 -18 44 -16 19 -29 38 -30 43 0 9 52 9
66 -1z m614 -11 c5 -11 10 -22 10 -24 0 -2 -40 -4 -88 -4 -49 0 -94 -3 -100
-7 -7 -4 -12 -25 -12 -47 0 -38 -1 -39 -27 -33 -63 14 -63 13 -63 59 0 77 -3
75 141 75 117 0 129 -2 139 -19z m238 12 c-21 -2 -38 -7 -38 -11 0 -4 20 -43
43 -87 38 -70 47 -80 70 -80 15 1 27 -5 27 -12 0 -6 12 0 26 14 19 19 28 23
37 14 19 -19 -11 -36 -122 -71 -85 -27 -105 -30 -112 -19 -13 20 -11 29 6 29
8 0 15 -4 15 -8 0 -5 7 -9 15 -9 12 0 12 3 3 15 -10 11 -7 13 18 10 17 -2 34
3 41 12 11 13 14 13 22 0 6 -8 13 -11 18 -7 9 10 -15 27 -39 27 -11 0 -26 26
-50 85 -30 78 -35 85 -60 85 -17 0 -28 -5 -28 -13 0 -20 50 -160 62 -174 8
-10 5 -13 -13 -13 -22 0 -26 8 -46 88 -11 48 -24 95 -28 104 -8 20 13 25 105
25 36 0 48 -2 28 -4z m-1496 -18 c0 -5 -5 -11 -11 -13 -6 -2 -11 4 -11 13 0 9
5 15 11 13 6 -2 11 -8 11 -13z m803 -87 c74 -125 71 -118 47 -118 -22 0 -55
38 -136 153 l-47 67 38 0 c37 -1 39 -2 98 -102z m80 3 c57 -109 61 -121 40
-121 -13 0 -16 -6 -11 -22 18 -65 19 -71 9 -65 -6 4 -14 0 -17 -9 -5 -14 -10
-12 -27 10 -25 32 -16 55 12 30 18 -16 19 -16 19 0 0 21 -44 40 -48 20 -4 -15
-81 -12 -257 11 -60 8 -124 15 -141 15 -23 0 -33 5 -37 20 -6 22 8 28 16 8 4
-10 8 -10 15 1 5 7 14 11 18 8 5 -3 32 -6 59 -8 32 -1 58 -9 71 -21 19 -17 23
-18 37 -3 13 13 27 14 84 6 60 -9 144 -15 166 -12 4 1 0 13 -9 29 -14 24 -14
25 0 8 9 -11 16 -15 16 -9 0 6 -12 21 -27 33 -16 12 -21 18 -14 14 9 -4 4 7
-9 27 -13 19 -28 36 -32 37 -4 2 -8 9 -8 15 0 7 -9 23 -20 37 -27 34 -25 37
15 32 33 -4 38 -10 80 -91z m-2585 79 c13 -9 13 -10 0 -10 -8 0 -22 5 -30 10
-13 9 -13 10 0 10 8 0 22 -5 30 -10z m1080 -4 c0 -8 5 -18 11 -22 22 -13 155
-34 314 -49 87 -9 161 -18 164 -20 9 -9 -179 -5 -256 6 -43 6 -114 19 -158 30
-49 11 -81 15 -83 9 -2 -6 -8 -10 -13 -10 -10 0 -12 31 -3 54 8 20 24 21 24 2z
m297 8 c-3 -3 -12 -4 -19 -1 -8 3 -5 6 6 6 11 1 17 -2 13 -5z m-1106 -19 c5 4
6 -1 3 -9 -9 -24 -24 -19 -23 7 0 12 3 16 6 9 2 -6 9 -10 14 -7z m2894 -75
c19 -47 35 -86 35 -88 0 -2 -7 -2 -17 0 -10 2 -28 35 -49 91 -24 66 -29 87
-18 85 8 -2 30 -41 49 -88z m-2948 48 c-3 -7 -5 -2 -5 12 0 14 2 19 5 13 2 -7
2 -19 0 -25z m1037 16 c9 -3 16 -10 16 -16 0 -10 -70 0 -84 13 -11 10 43 12
68 3z m1809 -62 c7 -61 1 -102 -14 -102 -5 0 -9 39 -9 86 0 95 14 106 23 16z
m-2733 43 c0 -8 -4 -15 -10 -15 -5 0 -10 7 -10 15 0 8 5 15 10 15 6 0 10 -7
10 -15z m1412 -126 c-3 -106 0 -144 10 -156 11 -14 11 -15 -2 -11 -12 4 -16
31 -18 143 -2 123 0 165 10 165 2 0 2 -63 0 -141z m1080 86 c-2 -30 -8 -55
-12 -55 -7 0 -7 68 0 108 0 1 3 2 8 2 4 0 5 -25 4 -55z m105 40 c8 -21 3 -24
-29 -18 -32 6 -37 19 -10 26 30 8 32 7 39 -8z m97 -1 c11 -29 6 -39 -10 -16
-8 12 -23 21 -32 21 -15 -1 -15 -2 1 -6 14 -4 17 -16 17 -73 0 -74 -5 -80 -72
-80 -35 0 -88 21 -69 28 10 3 8 9 -10 23 -20 15 -21 19 -6 19 9 0 17 7 17 15
0 8 -4 15 -10 15 -5 0 -10 6 -10 13 0 9 10 12 31 9 31 -5 31 -5 25 -49 -4 -32
-2 -43 7 -42 6 1 20 -1 30 -5 9 -5 24 -6 32 -2 17 6 20 52 4 61 -7 5 -5 13 6
26 16 17 16 18 -9 25 -44 11 -29 32 25 33 16 1 29 -6 33 -15z m-2839 -4 c3 -6
-1 -7 -9 -4 -18 7 -21 14 -7 14 6 0 13 -4 16 -10z m1258 3 c-7 -2 -19 -2 -25
0 -7 3 -2 5 12 5 14 0 19 -2 13 -5z m155 -15 c5 -25 -63 -26 -72 -1 -5 12 -9
14 -18 5 -17 -17 -38 -15 -38 3 0 25 123 17 128 -7z m200 -13 c4 -54 15 -74
52 -93 19 -11 36 -25 38 -33 3 -11 1 -11 -7 1 -7 9 -11 10 -11 3 0 -6 4 -14 9
-18 5 -3 10 -39 10 -81 0 -46 6 -87 15 -105 29 -57 -13 -81 -59 -34 -14 13
-25 21 -25 18 0 -3 -6 0 -14 6 -8 7 -12 20 -9 30 3 11 -3 30 -12 44 -9 14 -16
44 -15 69 0 23 -1 77 -3 118 -4 67 6 110 23 110 3 0 7 -16 8 -35z m-638 -4
c36 -10 82 -30 103 -44 57 -39 152 -47 257 -22 22 6 22 4 -5 -11 -16 -9 -48
-33 -70 -54 l-40 -38 -64 12 c-60 11 -66 14 -105 66 -31 41 -54 59 -93 75 -93
37 -84 45 17 16z m293 12 c-7 -2 -21 -2 -30 0 -10 3 -4 5 12 5 17 0 24 -2 18
-5z m-384 -98 l2 40 24 -30 25 -30 -23 -6 c-19 -5 -20 -7 -5 -14 45 -19 51 32
8 68 -25 21 -41 57 -26 57 15 0 36 -14 36 -24 1 -6 9 -29 19 -50 11 -22 16
-46 13 -55 -4 -11 -1 -13 13 -7 30 11 100 -4 113 -24 10 -17 8 -18 -26 -14
-69 10 -137 25 -164 36 -22 10 -27 20 -33 63 -3 28 -2 60 2 70 6 14 10 -1 14
-50 4 -47 6 -57 8 -30z m651 67 c0 -17 -135 -34 -275 -36 -129 -1 -146 1 -162
18 -18 18 -16 18 42 10 93 -14 265 -7 388 15 4 0 7 -3 7 -7z m1225 -2 c3 -5 1
-10 -5 -10 -6 0 -15 -10 -20 -22 -8 -21 -9 -20 -9 10 -1 32 20 45 34 22z
m-990 -10 c-3 -5 -12 -7 -20 -3 -21 7 -19 13 6 13 11 0 18 -4 14 -10z m1075 0
c0 -5 -4 -10 -10 -10 -5 0 -10 5 -10 10 0 6 5 10 10 10 6 0 10 -4 10 -10z
m-2660 -10 c0 -5 -7 -10 -15 -10 -8 0 -15 5 -15 10 0 6 7 10 15 10 8 0 15 -4
15 -10z m809 -21 c-22 -14 -29 -11 -29 11 0 18 3 19 21 9 17 -9 19 -13 8 -20z
m2211 11 c0 -5 -4 -10 -10 -10 -5 0 -10 5 -10 10 0 6 5 10 10 10 6 0 10 -4 10
-10z m-1672 -102 c3 -90 1 -97 -15 -91 -18 7 -33 22 -33 35 0 4 7 5 15 2 8 -4
15 -1 15 5 0 7 -7 14 -15 17 -17 7 -21 79 -5 89 15 9 12 25 -5 25 -12 0 -15
-16 -15 -85 0 -94 2 -97 73 -110 36 -7 57 -28 44 -42 -3 -3 -36 5 -72 18 l-67
24 7 95 c4 52 8 101 8 108 0 8 11 12 31 10 l31 -3 3 -97z m1312 56 c0 -31 -3
-34 -27 -33 -17 1 -21 3 -10 6 12 3 17 15 17 39 0 21 4 33 10 29 6 -3 10 -22
10 -41z m-630 5 c15 -28 5 -23 -15 7 -9 15 -12 23 -6 20 6 -4 16 -16 21 -27z
m-1172 -8 c15 -22 15 -22 -29 -19 -31 2 -45 8 -47 20 -2 11 5 18 20 21 33 6
40 4 56 -22z m332 17 c-1 -41 -14 -57 -55 -67 -23 -6 -51 -14 -61 -18 -18 -6
-18 -5 1 17 23 27 94 80 107 80 4 0 8 -6 8 -12z m80 -13 c0 -22 -3 -24 -29
-19 -26 6 -30 3 -36 -27 -6 -24 -3 -35 9 -44 8 -7 13 -15 9 -18 -22 -23 -36
21 -27 87 6 44 8 46 40 46 29 0 34 -3 34 -25z m1190 -6 c0 -11 -4 -17 -10 -14
-5 3 -10 15 -10 26 0 11 5 17 10 14 6 -3 10 -15 10 -26z m274 -21 c2 -15 9
-35 14 -45 7 -12 7 -25 1 -34 -5 -7 -9 -24 -9 -36 0 -13 -4 -23 -10 -23 -5 0
-10 16 -10 36 0 21 4 33 10 29 6 -3 10 -2 10 4 0 5 -4 11 -9 13 -6 2 -13 28
-16 58 -6 56 8 54 19 -2z m-1180 -4 c3 -9 6 -42 6 -74 0 -90 20 -130 66 -130
11 0 29 -7 40 -16 18 -14 16 -15 -21 -9 -84 14 -89 21 -100 139 -10 97 -6 130
9 90z m1414 -240 c-7 -7 -76 -29 -153 -50 l-140 -36 -437 -10 c-499 -12 -463
-17 -523 77 -19 29 -40 57 -46 60 -7 5 -4 14 8 27 13 14 19 40 21 93 l4 73 32
-4 c102 -13 292 -34 359 -40 74 -6 79 -8 106 -43 15 -20 33 -46 40 -58 9 -18
20 -23 51 -23 21 0 42 4 45 10 3 5 -8 42 -24 82 -31 74 -36 106 -7 44 9 -18
23 -37 32 -40 21 -8 183 -7 266 2 l66 8 7 -43 c7 -49 11 -53 47 -46 23 4 29
12 38 57 l10 51 98 30 97 30 8 -119 c6 -93 5 -122 -5 -132z m-2371 199 c-4 -3
-7 -1 -7 6 0 7 -4 9 -10 6 -5 -3 -10 -2 -10 4 0 6 -8 7 -17 4 -15 -6 -16 -5
-3 9 13 13 16 13 34 -3 11 -11 16 -22 13 -26z m662 38 c12 -8 13 -16 2 -50 -6
-23 -16 -41 -21 -41 -4 0 -3 14 3 30 9 23 9 35 -1 50 -13 21 -6 25 17 11z
m1029 -58 c11 -32 23 -66 27 -75 6 -15 1 -18 -31 -18 -33 0 -36 2 -21 13 15
10 16 19 7 66 -17 92 -11 97 18 14z m416 35 c9 -34 7 -118 -2 -118 -9 0 -32
121 -25 133 8 14 21 7 27 -15z m-1469 -18 c-6 -9 -9 -9 -16 1 -10 17 0 34 13
21 6 -6 7 -16 3 -22z m1414 14 c1 -1 0 -7 -4 -13 -3 -6 -37 -11 -76 -11 -61 0
-69 2 -69 19 0 17 7 18 73 13 39 -2 74 -6 76 -8z m-1463 -40 c-1 -1 -21 2 -46
6 -42 6 -44 7 -20 17 50 20 55 20 61 -1 3 -12 5 -22 5 -22z m-422 1 c20 -30
56 -33 63 -5 6 22 33 28 33 7 0 -25 -37 -50 -64 -43 -24 6 -77 66 -58 66 5 0
17 -11 26 -25z m193 -10 c31 -8 65 -15 75 -15 10 0 18 7 18 15 0 19 5 19 111
-6 82 -19 109 -32 96 -46 -3 -3 -40 3 -82 13 -63 15 -80 16 -97 5 -17 -10 -34
-9 -106 10 -84 21 -124 39 -89 39 9 0 42 -7 74 -15z m1303 -36 c0 -11 -4 -17
-10 -14 -5 3 -10 13 -10 21 0 8 5 14 10 14 6 0 10 -9 10 -21z m-1334 -4 c58
-15 71 -21 63 -30 -3 -2 -34 7 -69 20 -76 28 -74 31 6 10z m214 -60 c0 -9 -16
-8 -66 6 -76 21 -94 32 -43 25 21 -2 42 2 54 10 18 13 22 13 38 -7 9 -12 17
-27 17 -34z m40 10 c16 -26 28 -35 50 -35 15 0 33 6 39 14 6 7 23 14 37 14
l25 0 -27 -29 c-15 -16 -36 -29 -46 -29 -32 0 -77 29 -93 60 -27 52 -17 56 15
5z m54 9 c9 -3 14 -10 11 -15 -7 -10 -35 0 -35 12 0 11 3 11 24 3z m161 -54
c17 -7 24 -7 20 0 -15 24 16 7 34 -19 50 -70 124 -86 158 -34 11 17 19 21 26
14 6 -6 21 -11 33 -11 13 0 26 -5 29 -10 6 -10 -42 -4 -54 7 -3 2 -16 -8 -30
-21 -25 -23 -45 -30 -83 -27 -23 1 -88 59 -88 78 0 13 -3 13 -15 3 -8 -7 -12
-17 -8 -23 4 -6 -3 -8 -20 -3 -69 17 -95 37 -64 49 19 8 34 8 62 -3z m203 -42
c-3 -7 -16 -20 -31 -28 -22 -12 -28 -13 -39 -1 -11 12 -10 13 4 8 9 -3 23 2
34 14 19 21 38 25 32 7z m130 -69 c12 -19 11 -20 -20 -14 -18 4 -45 9 -60 12
-41 8 -24 23 25 23 32 0 45 -5 55 -21z m749 -55 c-3 -3 -12 -4 -19 -1 -8 3 -5
6 6 6 11 1 17 -2 13 -5z m-267 -54 c-61 -14 -135 -22 -128 -14 11 10 75 22
123 22 l40 0 -35 -8z m121 -16 c86 -24 88 -27 24 -39 -52 -9 -71 -8 -140 9
l-80 20 65 12 c36 6 68 12 71 13 3 0 30 -6 60 -15z m209 -63 c63 -18 64 -18
33 -25 -18 -4 -43 -5 -55 -1 -18 5 -20 4 -8 -4 12 -9 9 -11 -15 -11 -41 0
-154 36 -135 43 53 20 102 20 180 -2z m243 -58 c46 -9 39 -19 -24 -32 -60 -12
-61 -12 -181 20 l-43 12 50 17 c45 15 56 15 110 3 33 -8 72 -17 88 -20z m214
-55 c73 -18 133 -36 133 -39 0 -9 -114 -32 -136 -27 -11 2 -18 11 -16 21 2 11
-2 15 -13 11 -8 -3 -13 -9 -10 -13 2 -4 -45 4 -105 18 -59 14 -106 28 -103 31
5 5 80 27 103 29 8 1 75 -13 147 -31z"/>
<path d="M3135 2499 c-4 -6 -5 -12 -2 -15 2 -3 7 2 10 11 7 17 1 20 -8 4z"/>
<path d="M2595 2549 c-10 -14 3 -59 16 -59 8 0 7 5 -1 15 -7 8 -10 24 -7 35 6
22 2 26 -8 9z"/>
<path d="M2230 2464 c-99 -46 -100 -48 -100 -195 0 -164 0 -165 118 -123 58
21 92 39 105 57 20 26 20 26 -2 128 -22 105 -38 150 -56 155 -5 2 -35 -8 -65
-22z m92 -69 c10 -39 21 -94 24 -123 l7 -53 -42 -16 c-25 -10 -37 -19 -30 -23
16 -10 -75 -40 -103 -33 -18 4 -20 3 -8 -6 10 -7 11 -11 3 -11 -7 0 -16 8 -22
18 -9 18 -2 252 8 252 3 0 5 -53 3 -119 l-3 -118 39 1 c29 0 38 4 35 16 -1 8
1 69 6 135 l9 120 -2 -133 c0 -82 3 -132 9 -132 6 0 8 49 5 137 -5 131 -6 138
-25 136 -13 -2 -10 2 10 12 49 23 58 16 77 -60z m-117 35 c-3 -5 -12 -10 -18
-10 -7 0 -6 4 3 10 19 12 23 12 15 0z m5 -135 c0 -65 -4 -105 -10 -105 -7 0
-10 39 -9 105 1 58 5 105 10 105 5 0 9 -47 9 -105z"/>
<path d="M2723 2075 c-28 -20 -31 -79 -7 -113 14 -21 22 -22 135 -22 106 0
121 2 139 20 11 11 20 33 20 50 0 45 -31 70 -87 70 -27 0 -77 3 -113 6 -51 4
-70 2 -87 -11z m237 -18 c17 -9 26 -22 28 -44 5 -50 -24 -63 -136 -63 -85 0
-95 2 -117 25 -27 26 -31 46 -15 76 10 17 22 19 113 19 62 0 112 -5 127 -13z"/>
<path d="M2766 2047 c-11 -8 -17 -23 -14 -38 4 -34 50 -39 72 -7 16 22 15 24
-5 41 -25 20 -30 21 -53 4z m34 -27 c0 -5 -4 -10 -10 -10 -5 0 -10 5 -10 10 0
6 5 10 10 10 6 0 10 -4 10 -10z"/>
<path d="M2840 2050 c20 -13 80 -13 80 0 0 6 -21 10 -47 10 -35 0 -44 -3 -33
-10z"/>
<path d="M2930 2035 c-17 -20 -9 -46 18 -56 15 -6 21 -5 17 1 -3 6 -1 10 4 10
6 0 11 9 11 20 0 11 -4 20 -10 20 -5 0 -10 -7 -10 -16 0 -8 -5 -12 -11 -8 -8
4 -8 9 0 17 6 6 11 15 11 19 0 13 -17 9 -30 -7z"/>
<path d="M2838 1963 c23 -2 59 -2 80 0 20 2 1 4 -43 4 -44 0 -61 -2 -37 -4z"/>
<path d="M1935 2347 l-40 -22 3 -157 c2 -117 6 -158 15 -158 6 0 31 9 54 19
l41 19 1 161 c2 182 3 180 -74 138z m54 0 c-13 -9 -17 -42 -23 -155 l-7 -144
23 6 c16 4 14 1 -7 -9 -65 -31 -65 -31 -65 134 0 146 1 150 23 157 12 5 25 8
29 9 3 0 10 3 14 8 4 4 12 7 18 7 6 0 4 -6 -5 -13z"/>
<path d="M1937 2329 c-15 -9 -17 -27 -17 -149 0 -116 3 -140 14 -140 12 0 16
27 18 148 2 81 3 148 3 149 0 1 -8 -3 -18 -8z"/>
<path d="M1970 2015 c-19 -7 -28 -14 -20 -14 8 0 29 6 45 14 39 17 21 18 -25
0z"/>
<path d="M1799 2128 c0 -51 -4 -102 -9 -113 -6 -13 -9 15 -7 83 1 56 -1 102
-5 102 -5 0 -9 -37 -10 -82 l-2 -83 -6 80 -6 80 -4 -100 c-3 -55 -2 -104 2
-110 5 -5 8 0 8 10 0 14 3 16 8 7 5 -7 16 -10 24 -7 13 5 16 27 17 116 1 60
-1 109 -4 109 -3 0 -5 -42 -6 -92z"/>
<path d="M1820 2113 c0 -58 2 -104 4 -102 9 11 15 209 6 209 -6 0 -10 -42 -10
-107z"/>
<path d="M1730 2120 l-4 -65 -5 60 c-5 56 -6 54 -11 -39 -3 -67 -9 -101 -17
-104 -7 -2 -13 1 -13 8 0 6 5 8 10 5 6 -4 10 27 10 86 0 117 -17 108 -26 -12
-7 -93 -3 -104 40 -93 20 5 23 10 17 27 -5 12 -4 34 1 48 5 15 7 53 5 85 l-3
59 -4 -65z"/>
<path d="M1463 2038 c-22 -11 -26 -25 -36 -139 l-4 -46 31 9 31 10 3 89 c2 49
2 89 0 88 -2 0 -13 -5 -25 -11z m14 -70 c-2 -13 -4 -3 -4 22 0 25 2 35 4 23 2
-13 2 -33 0 -45z m-24 -89 c-4 -4 -6 27 -3 69 l5 77 3 -69 c2 -38 -1 -73 -5
-77z"/>
<path d="M3385 2187 c-19 -27 -19 -44 -1 -79 8 -16 10 -28 5 -28 -5 0 -9 -25
-8 -56 2 -47 6 -57 24 -66 47 -21 89 34 69 90 -5 14 -17 26 -27 28 -30 4 -33
14 -5 14 27 0 38 16 38 54 0 47 -70 79 -95 43z m70 -17 c24 -27 13 -52 -22
-48 -21 2 -29 9 -31 27 -3 21 11 40 29 41 3 0 14 -9 24 -20z m5 -132 c18 -34
4 -54 -34 -44 -29 7 -43 41 -25 62 17 21 41 14 59 -18z m-39 -66 c-7 -2 -18 1
-23 6 -8 8 -4 9 13 5 13 -4 18 -8 10 -11z"/>
<path d="M1944 1685 c-8 -21 3 -48 19 -43 19 7 22 58 2 58 -8 0 -18 -7 -21
-15z m23 -17 c-3 -8 -6 -5 -6 6 -1 11 2 17 5 13 3 -3 4 -12 1 -19z"/>
<path d="M3754 1935 c-3 -8 -4 -20 -1 -27 4 -8 6 -6 6 5 1 10 9 17 22 17 13 0
18 -4 13 -12 -4 -6 1 -17 11 -25 17 -12 17 -13 2 -13 -9 0 -17 -4 -17 -10 0
-11 50 -14 50 -2 0 4 3 17 6 30 5 18 0 25 -30 37 -44 19 -55 19 -62 0z"/>
<path d="M1052 1858 c-41 -22 -72 -42 -70 -44 5 -4 158 75 158 82 0 8 -15 1
-88 -38z"/>
<path d="M2796 1665 c-9 -26 -7 -32 5 -12 6 10 9 21 6 23 -2 3 -7 -2 -11 -11z"/>
<path d="M994 1525 c0 -66 1 -92 3 -57 2 34 2 88 0 120 -2 31 -3 3 -3 -63z"/>
<path d="M776 1611 c-14 -22 -19 -141 -6 -141 17 0 21 22 18 91 -2 42 -6 59
-12 50z"/>
<path d="M720 1540 c0 -33 0 -62 0 -65 0 -3 3 -5 8 -5 4 0 9 29 12 65 4 48 2
65 -7 65 -9 0 -13 -19 -13 -60z"/>
<path d="M677 1583 c-4 -3 -7 -33 -7 -65 0 -80 20 -72 26 10 4 57 -2 73 -19
55z"/>
<path d="M637 1563 c-11 -10 -8 -113 3 -113 6 0 10 20 10 44 0 24 3 51 6 60 6
16 -7 22 -19 9z"/>
<path d="M610 1558 c-8 -40 -8 -108 0 -108 5 0 10 25 10 55 0 30 -2 55 -5 55
-3 0 -5 -1 -5 -2z"/>
<path d="M583 1495 c0 -33 2 -45 4 -27 2 18 2 45 0 60 -2 15 -4 0 -4 -33z"/>
<path d="M543 1533 c-9 -3 -12 -23 -11 -56 l2 -52 3 48 c2 26 8 47 12 47 5 0
6 -21 3 -46 -3 -34 -2 -45 7 -40 12 8 16 106 4 105 -5 0 -14 -3 -20 -6z"/>
<path d="M487 1513 c-2 -5 -1 -19 4 -33 7 -23 7 -23 8 8 1 31 -3 40 -12 25z"/>
<path d="M3781 1474 c0 -11 3 -14 6 -6 3 7 2 16 -1 19 -3 4 -6 -2 -5 -13z"/>
<path d="M3831 1589 c0 -15 5 -32 13 -38 15 -12 46 -5 46 11 0 7 -5 6 -14 -1
-15 -13 -30 0 -39 34 -4 16 -5 15 -6 -6z"/>
<path d="M413 1440 c0 -30 2 -43 4 -27 2 15 2 39 0 55 -2 15 -4 2 -4 -28z"/>
<path d="M388 1438 l-1 -43 -4 38 c-2 20 -8 37 -12 37 -16 0 -31 -26 -31 -55
0 -29 2 -31 30 -27 28 4 30 7 30 48 0 56 -9 58 -12 2z m-21 -20 c-3 -8 -6 -5
-6 6 -1 11 2 17 5 13 3 -3 4 -12 1 -19z"/>
<path d="M2920 888 c0 -4 7 -8 15 -8 8 0 15 4 15 8 0 5 -7 9 -15 9 -8 0 -15
-4 -15 -9z"/>
<path d="M3125 870 c-4 -6 6 -10 22 -10 22 0 25 2 13 10 -19 12 -27 12 -35 0z"/>
<path d="M3210 860 c0 -5 5 -10 10 -10 6 0 10 5 10 10 0 6 -4 10 -10 10 -5 0
-10 -4 -10 -10z"/>
<path d="M1960 918 c0 -24 17 -41 31 -32 20 12 61 4 75 -14 16 -21 38 -4 32
24 -3 16 -11 18 -51 16 -29 -3 -47 0 -47 7 0 6 -9 11 -20 11 -11 0 -20 -6 -20
-12z m30 -8 c0 -5 -5 -10 -11 -10 -5 0 -7 5 -4 10 3 6 8 10 11 10 2 0 4 -4 4
-10z m100 -26 c0 -8 -4 -12 -10 -9 -5 3 -10 10 -10 16 0 5 5 9 10 9 6 0 10 -7
10 -16z"/>
<path d="M3574 780 c2 -8 16 -55 31 -105 33 -116 35 -119 40 -113 7 7 -54 211
-66 223 -7 7 -9 5 -5 -5z"/>
<path d="M2340 686 c-6 -8 -21 -17 -33 -19 -21 -4 -21 -4 -1 -6 11 0 29 8 39
19 10 11 16 20 13 20 -3 0 -11 -6 -18 -14z"/>
<path d="M3475 370 l-30 -8 37 -1 c20 0 40 4 43 9 7 11 -6 11 -50 0z"/>
<path d="M148 2768 c-16 -5 -28 -14 -28 -20 0 -5 -8 -7 -17 -4 -10 3 -25 1
-33 -5 -12 -9 -11 -10 7 -6 13 3 26 1 29 -4 8 -13 24 -11 22 3 -4 16 54 37 59
21 3 -7 19 -9 43 -7 29 4 41 0 52 -14 7 -10 23 -18 36 -17 12 1 22 -4 22 -12
0 -7 5 -13 11 -13 6 0 9 8 7 18 -2 9 -12 17 -23 17 -11 0 -29 8 -40 18 -12 11
-32 17 -56 15 -21 -1 -43 3 -51 9 -9 7 -22 7 -40 1z"/>
<path d="M3913 2759 c-28 -10 -30 -23 -4 -16 12 3 27 -3 37 -14 9 -10 22 -19
28 -19 6 0 4 6 -5 13 -8 7 -20 19 -25 28 -7 12 -15 14 -31 8z"/>
<path d="M1480 2689 c-52 -38 -97 -74 -98 -79 -3 -7 154 104 207 147 2 1 0 3
-5 3 -5 -1 -52 -32 -104 -71z"/>
<path d="M4390 2730 c13 -9 13 -11 0 -20 -13 -8 -12 -11 4 -23 19 -14 19 -16
3 -41 -10 -14 -22 -27 -27 -27 -6 -1 -15 -2 -22 -3 -13 -1 -24 -26 -11 -26 12
1 80 39 69 40 -5 0 -3 7 4 15 7 9 9 26 5 45 -6 26 -4 29 12 24 16 -5 16 -4 -1
10 -11 9 -27 16 -35 16 -14 0 -14 -1 -1 -10z"/>
<path d="M3614 2676 c1 -8 7 -21 14 -29 17 -20 6 -43 -34 -68 -19 -11 -34 -24
-34 -29 0 -5 -3 -15 -6 -23 -5 -13 82 -114 96 -111 3 1 16 -2 28 -7 13 -5 28
-7 33 -3 12 7 12 34 -1 34 -5 0 -10 -7 -10 -15 0 -12 -7 -11 -34 7 -30 20 -34
27 -29 52 4 20 3 27 -5 22 -6 -4 -9 -13 -5 -21 3 -8 0 -15 -6 -15 -6 0 -11 5
-11 10 0 6 -6 10 -14 10 -8 0 -18 5 -21 11 -9 13 14 69 28 69 6 0 19 8 30 17
18 17 19 17 32 0 6 -9 17 -17 23 -17 5 0 8 -8 5 -18 -6 -23 30 -68 45 -58 13
8 16 27 5 25 -29 -5 -35 3 -30 35 4 28 3 34 -9 29 -8 -3 -14 0 -14 6 0 6 -6
11 -14 11 -14 0 -26 21 -26 47 0 13 -23 43 -33 43 -3 0 -4 -6 -3 -14z"/>
<path d="M3853 2667 c-29 -21 -30 -24 -16 -42 15 -20 15 -20 11 1 -6 26 27 52
36 29 3 -8 16 -15 28 -15 23 0 23 0 -2 13 -14 8 -24 19 -22 25 3 16 1 15 -35
-11z"/>
<path d="M348 2668 c8 -11 9 -18 3 -22 -6 -4 -8 -13 -4 -21 3 -9 0 -22 -7 -30
-15 -18 1 -20 18 -3 9 9 17 6 37 -12 14 -13 23 -25 20 -28 -2 -3 0 -13 6 -23
6 -13 6 -25 -1 -39 -14 -25 -30 -26 -37 -1 -3 12 -17 23 -34 26 -15 4 -43 16
-61 28 -19 13 -48 22 -68 22 -25 0 -38 5 -45 20 -7 13 -21 20 -43 21 -17 0
-35 3 -38 7 -4 4 -14 7 -23 7 -11 0 -9 -5 7 -16 13 -9 33 -13 45 -10 26 6 41
-2 50 -26 4 -12 1 -18 -9 -18 -18 0 -108 -60 -101 -67 3 -2 24 10 49 27 55 39
153 53 162 23 3 -10 14 -19 23 -20 54 -3 82 -20 83 -50 0 -20 19 -15 47 13 19
19 23 28 14 37 -6 6 -11 21 -11 32 0 24 -34 65 -54 65 -9 0 -13 11 -12 31 0
20 -4 34 -14 37 -13 4 -13 3 -2 -10z"/>
<path d="M3860 2619 c0 -4 7 -9 15 -13 9 -3 15 0 15 8 0 7 -7 13 -15 13 -8 0
-15 -4 -15 -8z"/>
<path d="M3799 2593 c-9 -10 -20 -30 -26 -45 -10 -22 -9 -29 6 -42 10 -9 25
-14 35 -10 23 9 20 23 -4 17 -30 -8 -35 22 -10 57 24 34 23 51 -1 23z"/>
<path d="M1209 2482 c-175 -123 -185 -129 -176 -115 8 12 -17 36 -26 26 -4 -3
-7 0 -7 8 0 21 -58 69 -92 76 -15 3 -28 9 -28 13 0 13 -52 22 -63 11 -6 -6
-23 -11 -37 -11 -14 0 -35 -7 -46 -15 -10 -8 -31 -15 -46 -15 -16 0 -28 -4
-28 -8 0 -15 54 -6 83 12 15 10 33 16 42 13 8 -4 17 -2 20 3 10 16 61 12 75
-5 7 -9 15 -13 18 -10 3 3 11 0 19 -6 7 -6 13 -8 13 -5 0 4 14 -7 30 -24 16
-17 30 -35 30 -40 0 -6 7 -10 15 -10 13 0 15 -10 12 -49 -5 -58 3 -76 32 -66
14 4 23 2 27 -9 3 -8 12 -12 20 -9 8 3 14 0 14 -6 0 -6 7 -11 15 -11 17 0 34
-29 28 -47 -3 -7 0 -13 6 -13 6 0 11 5 11 10 0 14 27 12 34 -2 5 -10 7 -10 12
0 3 6 15 12 27 12 25 1 47 16 63 45 15 26 66 45 72 27 3 -10 8 -9 23 4 13 12
40 18 91 19 40 2 82 6 92 11 13 5 21 3 24 -5 3 -9 9 -8 23 5 10 9 27 14 39 11
11 -3 20 -1 20 4 0 10 -53 12 -63 2 -6 -5 -87 -12 -170 -14 -10 0 -31 -5 -45
-11 -15 -6 -40 -10 -55 -9 -27 3 -67 -22 -67 -41 0 -19 -31 -40 -50 -35 -11 3
-20 1 -20 -5 0 -12 -42 1 -55 17 -5 7 -29 25 -52 39 -24 14 -43 32 -43 38 0 9
-3 9 -12 0 -19 -19 -24 -14 -25 21 0 30 7 37 159 142 143 99 190 135 175 135
-2 0 -74 -49 -158 -108z"/>
<path d="M415 2450 c-3 -6 3 -10 16 -10 12 0 19 -3 16 -7 -4 -3 1 -12 10 -18
11 -8 17 -27 17 -56 l1 -44 45 -1 c57 -1 82 -15 107 -56 16 -28 25 -33 54 -32
19 0 42 4 53 9 11 5 21 3 26 -5 4 -7 13 -9 19 -6 6 4 11 4 11 -1 0 -4 17 -9
37 -10 20 -1 39 -7 43 -14 4 -6 13 -9 18 -5 11 6 38 -32 34 -46 -1 -5 5 -8 14
-8 8 0 28 -13 44 -28 23 -23 34 -27 64 -24 20 2 43 -1 50 -7 8 -7 27 -14 41
-17 15 -3 42 -12 59 -21 27 -13 29 -13 16 0 -18 19 -129 57 -165 57 -31 0
-109 56 -124 88 -6 13 -17 22 -24 19 -6 -2 -16 2 -22 10 -12 16 -78 26 -167
23 -54 -1 -68 2 -68 13 0 8 -17 30 -37 47 l-37 33 36 -7 c26 -5 39 -2 48 9 15
18 41 20 57 4 6 -6 13 -7 17 -1 9 16 109 1 132 -19 11 -11 27 -19 36 -19 9 0
21 -7 28 -15 14 -17 40 -20 40 -4 0 5 -5 7 -11 4 -6 -4 -17 2 -25 14 -8 12
-22 21 -31 21 -9 0 -25 8 -36 17 -23 22 -192 29 -215 10 -8 -6 -29 -10 -48 -8
-19 1 -34 -2 -34 -8 0 -12 -39 -15 -64 -5 -18 7 -10 33 16 52 10 7 18 19 18
25 0 12 35 30 78 40 15 4 25 0 29 -9 3 -8 12 -14 21 -14 14 0 13 3 -3 20 -18
17 -25 18 -73 7 -39 -9 -56 -18 -65 -36 -20 -40 -29 -34 -52 35 -2 9 -45 12
-50 4z"/>
<path d="M85 2428 c80 -27 145 -70 145 -97 0 -6 5 -11 10 -11 6 0 10 -8 10
-19 0 -10 7 -24 15 -31 15 -13 22 -55 7 -46 -4 2 -14 1 -22 -4 -8 -5 -22 -4
-33 2 -15 8 -25 4 -47 -17 -15 -14 -31 -25 -36 -24 -22 4 -77 -2 -71 -7 15
-15 75 -7 104 14 23 16 42 21 72 19 23 -2 41 0 41 4 0 9 46 -4 98 -28 21 -9
48 -13 74 -9 24 3 47 1 55 -5 7 -6 22 -9 33 -6 11 3 23 1 26 -4 3 -5 11 -9 17
-7 19 3 86 -42 92 -63 7 -20 25 -27 25 -9 0 6 -5 10 -10 10 -6 0 -9 5 -8 12 2
6 -10 18 -27 27 -16 9 -33 21 -38 28 -4 6 -29 15 -55 19 -26 3 -52 11 -58 16
-7 5 -28 5 -52 -1 -23 -5 -43 -7 -46 -4 -2 2 -12 6 -21 7 -9 1 -20 8 -24 15
-4 7 -12 11 -17 10 -21 -3 -54 15 -54 30 0 9 -7 25 -15 35 -8 11 -15 25 -15
32 0 16 -52 74 -66 74 -7 0 -14 3 -16 8 -5 12 -78 42 -101 41 -18 0 -17 -2 8
-11z"/>
<path d="M4399 2347 c15 -19 41 -23 41 -7 0 6 -4 10 -9 10 -5 0 -18 3 -28 7
-16 6 -16 5 -4 -10z"/>
<path d="M4423 2273 c-16 -6 -17 -43 -3 -43 7 0 7 -6 1 -19 -10 -17 -6 -31 9
-31 9 0 6 43 -3 58 -5 7 -4 19 3 27 13 16 12 16 -7 8z"/>
<path d="M1210 2142 c0 -8 86 -9 94 -1 3 3 -17 6 -44 7 -28 0 -50 -2 -50 -6z"/>
<path d="M215 2100 c-12 -13 -25 -18 -37 -14 -10 3 -25 0 -33 -6 -8 -7 -30
-12 -50 -13 -35 -1 -45 -10 -24 -23 6 -3 16 -1 22 5 6 6 21 11 34 11 13 0 23
4 23 9 0 4 11 6 25 4 15 -3 34 3 51 16 24 19 28 19 47 6 24 -17 37 -19 37 -7
0 7 -56 32 -72 32 -3 0 -13 -9 -23 -20z"/>
<path d="M4350 2100 c-6 -12 -9 -26 -6 -33 3 -7 7 -3 11 9 5 17 14 21 37 20
19 0 33 5 36 14 4 13 3 13 -11 2 -12 -10 -21 -11 -36 -3 -17 9 -22 8 -31 -9z"/>
<path d="M323 2076 c2 -6 14 -11 27 -11 17 0 26 -7 30 -25 3 -14 14 -26 24
-28 10 -2 27 -13 38 -24 11 -11 26 -17 36 -13 10 4 23 -2 34 -17 10 -13 18
-18 18 -11 0 20 -32 45 -51 40 -10 -3 -26 4 -35 14 -9 10 -23 19 -30 19 -8 0
-11 6 -7 17 4 10 2 14 -4 10 -6 -4 -13 2 -16 12 -3 11 -16 20 -36 23 -20 3
-30 1 -28 -6z"/>
<path d="M701 2056 c-16 -19 -11 -29 8 -17 7 5 12 14 9 21 -3 9 -8 7 -17 -4z"/>
<path d="M115 1960 c-3 -6 -17 -7 -31 -4 -14 4 -24 2 -24 -5 0 -15 57 -14 66
1 5 8 12 2 20 -17 11 -28 16 -30 70 -32 33 -1 85 -6 117 -10 51 -7 61 -12 75
-38 9 -16 19 -32 22 -35 3 -3 14 -24 24 -47 11 -24 23 -43 28 -43 5 0 25 -16
43 -36 22 -23 39 -33 47 -28 9 6 9 9 -1 12 -26 9 -49 39 -40 53 6 11 13 11 26
3 19 -11 43 -8 43 5 0 11 -62 12 -76 1 -7 -6 -19 -2 -34 12 l-23 22 21 14 c12
8 22 19 22 24 0 6 -11 3 -25 -6 -14 -9 -25 -12 -25 -7 0 5 -6 16 -12 23 -7 8
-20 27 -28 43 -16 31 -25 34 -159 50 -24 3 -48 8 -53 11 -5 3 -15 0 -23 -6
-15 -13 -15 -13 -30 35 -5 17 -31 20 -40 5z"/>
<path d="M630 1950 c-8 -5 -33 -7 -55 -4 -25 3 -36 1 -30 -5 15 -14 34 -15 88
-7 37 7 52 5 65 -6 21 -19 82 -31 82 -18 0 6 -12 10 -27 10 -16 0 -39 9 -53
20 -28 22 -47 25 -70 10z"/>
<path d="M4210 1896 c0 -13 -9 -35 -21 -50 -11 -14 -16 -26 -10 -26 14 0 41
41 41 62 0 10 7 18 18 18 14 0 15 2 2 10 -23 15 -30 12 -30 -14z"/>
<path d="M77 1858 c19 -21 22 -31 24 -78 0 -10 12 -16 32 -17 18 -1 39 -11 49
-23 9 -11 19 -17 22 -12 6 11 -33 45 -54 47 -28 2 -40 16 -40 44 0 15 -8 35
-18 44 -27 25 -39 20 -15 -5z"/>
<path d="M650 1860 c19 -4 60 -15 90 -24 76 -22 94 -26 87 -19 -14 14 -145 52
-177 51 l-35 0 35 -8z"/>
<path d="M605 1833 c-11 -3 -28 -11 -39 -18 -10 -8 -25 -11 -34 -8 -10 4 -13
2 -8 -5 9 -16 43 -15 48 0 5 14 74 16 101 4 10 -5 17 -4 17 2 0 5 -8 12 -17
15 -10 2 -25 7 -33 10 -8 2 -24 2 -35 0z"/>
<path d="M4413 1794 c-32 -36 -30 -62 1 -31 12 12 31 57 24 57 -2 0 -13 -12
-25 -26z"/>
<path d="M638 1752 c-27 -16 -37 -32 -19 -32 5 0 14 7 21 15 7 8 19 15 26 15
8 0 14 5 14 10 0 14 -11 12 -42 -8z"/>
<path d="M4364 1748 c8 -30 25 -549 27 -845 0 -128 4 -233 8 -233 8 0 41 54
41 67 0 4 -5 0 -11 -9 -5 -10 -14 -18 -19 -18 -13 0 -13 97 0 105 6 3 10 -1
10 -9 0 -9 4 -16 9 -16 4 0 6 11 3 25 -2 14 -8 22 -13 19 -5 -3 -12 3 -16 12
-4 12 1 22 15 32 12 8 22 19 22 24 0 6 -7 5 -15 -2 -13 -11 -15 -4 -17 49 -1
33 -2 69 -2 79 -1 10 6 16 17 16 9 -1 17 3 17 8 0 6 -9 8 -20 5 -17 -4 -20 0
-20 28 0 29 3 32 22 27 19 -5 20 -4 7 10 -7 9 -17 14 -21 11 -5 -2 -8 56 -8
129 0 73 -3 150 -7 171 -5 33 -3 39 16 44 11 3 21 10 21 15 0 5 -9 6 -20 3
-19 -6 -20 -2 -20 69 0 66 2 75 20 81 11 3 20 13 20 21 0 13 -3 13 -17 -2 -16
-15 -17 -15 -24 2 -4 11 -8 38 -8 62 -1 24 -6 42 -12 42 -7 0 -9 -9 -5 -22z"/>
<path d="M214 1718 c-4 -6 -3 -8 4 -4 5 3 13 0 15 -6 4 -10 6 -10 6 -1 1 18
51 -32 51 -51 0 -9 8 -19 18 -22 9 -3 34 -15 55 -26 21 -11 41 -17 45 -13 4 4
1 10 -6 12 -7 3 -18 10 -25 16 -6 7 -21 14 -32 15 -26 5 -45 21 -45 38 0 13
-51 54 -68 54 -6 0 -14 -5 -18 -12z"/>
<path d="M4025 1662 c15 -7 33 -11 41 -8 27 10 14 21 -26 22 -41 0 -41 0 -15
-14z"/>
<path d="M4187 1328 c-10 -5 -25 -7 -33 -4 -19 7 -64 -3 -64 -15 0 -5 14 -6
31 -2 18 3 34 1 38 -5 4 -7 15 -4 31 8 27 21 25 34 -3 18z"/>
<path d="M70 1323 c1 -4 34 -30 75 -56 41 -27 75 -52 75 -57 0 -4 -25 -7 -55
-5 -44 2 -53 0 -44 -11 7 -9 64 -13 64 -4 0 1 14 3 32 6 22 2 33 -1 35 -11 2
-9 8 -12 16 -6 10 6 -10 25 -67 66 -45 32 -81 60 -81 61 0 6 34 -9 60 -25 23
-14 24 -14 13 0 -7 9 -10 18 -7 21 3 4 -14 9 -38 13 -24 3 -51 9 -60 11 -10 3
-18 2 -18 -3z"/>
<path d="M248 1226 c30 -27 40 -42 33 -50 -7 -8 -4 -16 10 -24 25 -16 24 -32
-1 -32 -11 0 -20 -5 -20 -11 0 -5 5 -7 11 -3 6 3 15 0 20 -7 7 -11 9 -9 9 6 0
18 2 18 20 -5 21 -27 26 -45 10 -35 -5 3 -10 2 -10 -3 0 -5 8 -12 18 -14 21
-6 26 -38 7 -38 -7 0 -18 7 -25 15 -7 8 -17 12 -23 8 -6 -4 -8 0 -4 10 4 12 2
14 -11 10 -9 -3 -14 -2 -10 2 5 5 -8 19 -28 33 -26 17 -39 21 -47 13 -8 -8 -6
-11 7 -11 10 0 33 -15 50 -34 37 -39 66 -56 95 -56 17 0 21 -6 21 -34 0 -45
-19 -183 -30 -221 -13 -46 -22 -133 -12 -115 5 8 12 36 15 62 4 26 20 72 37
101 16 30 30 58 30 63 -1 5 -12 -11 -26 -36 -13 -25 -22 -36 -19 -25 11 46 23
201 15 209 -15 15 13 32 50 30 48 -3 50 -5 15 -14 l-30 -8 36 -1 c20 0 42 -8
49 -16 20 -24 -51 -20 -78 5 -28 26 -37 25 -18 -2 11 -15 12 -25 5 -34 -7 -8
-7 -14 1 -19 5 -3 10 -1 10 5 0 13 34 -11 105 -74 48 -43 49 -46 30 -59 -17
-13 -21 -13 -33 2 -12 14 -13 13 -7 -12 4 -22 -1 -37 -20 -63 -37 -48 -62
-111 -69 -169 -5 -47 -5 -48 5 -15 27 88 52 150 65 161 11 9 10 3 -2 -27 -9
-22 -18 -62 -20 -90 -2 -28 -8 -64 -14 -80 -15 -38 -1 -24 22 24 10 20 15 28
12 17 -11 -34 -13 -68 -5 -82 11 -21 39 6 43 42 2 16 13 39 26 51 12 12 22 32
22 45 0 20 -4 17 -19 -16 -11 -22 -20 -35 -20 -28 -2 23 21 68 47 96 20 21 22
26 8 21 -16 -6 -17 -4 -8 13 6 11 18 26 27 33 13 11 20 9 45 -15 l30 -28 -31
-19 c-17 -11 -29 -22 -25 -25 3 -3 -9 -24 -26 -47 -54 -70 -52 -67 -35 -60 15
5 15 2 6 -26 -6 -17 -9 -33 -6 -36 3 -3 10 10 17 30 6 19 18 40 26 47 8 7 13
18 10 26 -7 17 23 66 56 93 32 25 122 44 147 30 10 -5 23 -16 30 -24 10 -12 3
-15 -54 -18 -48 -2 -70 1 -80 11 -32 32 -21 3 14 -35 l36 -42 78 10 c62 8 80
8 94 -3 14 -12 7 -15 -58 -20 -41 -3 -80 -1 -86 4 -9 6 -13 5 -13 -2 0 -7 -8
-10 -18 -7 -11 4 -33 -4 -55 -18 -36 -25 -37 -25 -47 -6 -8 14 -8 20 0 20 6 0
4 7 -5 16 -13 14 -19 14 -28 4 -9 -10 -9 -11 2 -5 10 6 12 4 7 -4 -4 -6 -2
-18 4 -26 9 -11 3 -24 -31 -65 -27 -32 -39 -54 -32 -58 5 -4 14 -18 18 -31 l8
-25 16 30 c22 41 60 88 66 82 3 -3 -1 -17 -8 -31 -8 -15 -17 -24 -20 -20 -4 3
-7 -8 -7 -25 0 -18 3 -31 8 -31 24 4 32 -4 32 -33 1 -28 2 -30 11 -15 6 10 8
28 5 39 -3 12 0 30 5 41 9 15 8 18 -3 15 -7 -3 -14 -10 -14 -16 -3 -24 -4 -26
-15 -15 -9 9 -9 20 1 42 16 39 25 39 45 1 19 -36 19 -40 0 -40 -8 0 -15 -5
-15 -11 0 -6 9 -9 20 -6 28 7 32 -5 15 -49 -12 -30 -12 -35 -2 -22 8 10 17 15
21 11 4 -4 4 0 0 10 -3 9 -3 17 0 17 15 0 26 -52 15 -72 -8 -15 -8 -19 0 -14
16 10 14 -1 -5 -29 -9 -14 -12 -25 -7 -25 14 0 33 47 27 67 -3 10 4 1 16 -21
12 -21 23 -60 25 -88 3 -43 2 -48 -14 -43 -10 3 -24 -1 -30 -9 -11 -12 -7 -14
24 -13 l37 2 -5 40 -5 40 24 -48 c14 -27 28 -47 30 -44 3 3 0 15 -6 27 -6 12
-9 24 -7 27 3 2 43 17 89 33 l83 28 30 -36 c45 -55 88 -99 79 -82 -15 30 -235
300 -245 300 -5 0 -36 -13 -69 -30 l-59 -30 -27 55 c-15 30 -25 56 -23 58 2 2
28 13 58 25 51 21 54 21 67 5 7 -10 14 -21 14 -25 0 -5 6 -8 14 -8 7 0 63 -51
123 -114 l110 -114 59 14 c109 25 116 23 215 -67 50 -45 92 -79 95 -77 2 3
-57 61 -133 129 -76 68 -219 203 -318 299 -99 97 -225 209 -280 250 -98 73
-400 358 -390 368 3 3 14 -3 24 -12 11 -10 25 -15 32 -10 7 4 10 3 6 -3 -4 -6
11 -24 32 -41 21 -17 86 -74 146 -126 59 -53 157 -131 218 -174 398 -280 634
-463 814 -636 29 -27 55 -47 58 -44 4 3 -59 63 -138 133 -141 125 -144 128
-134 156 6 16 8 31 5 35 -4 3 -33 9 -65 13 -54 7 -68 15 -207 120 -82 61 -195
144 -252 183 -57 39 -104 73 -104 75 0 2 10 1 21 -2 15 -5 19 -4 15 4 -4 6
-19 11 -34 11 -17 1 -51 20 -92 52 -65 52 -68 73 -6 44 39 -18 82 -23 56 -6
-8 5 -25 10 -37 10 -12 0 -25 5 -29 11 -4 8 1 9 16 4 14 -4 20 -3 16 3 -3 5
-19 12 -36 15 -22 5 -30 12 -31 29 0 13 -3 17 -6 11 -3 -9 -22 -2 -59 22 -30
19 -54 31 -54 26 0 -11 117 -91 134 -92 6 0 2 -4 -9 -8 -33 -13 -166 105 -137
122 4 2 1 2 -6 0 -22 -5 -36 8 -21 19 11 8 10 9 -2 5 -10 -3 -26 5 -40 19 -12
13 -28 24 -34 24 -7 0 -47 23 -89 50 -43 28 -74 45 -70 39 4 -7 2 -10 -7 -7
-8 3 -13 11 -11 17 1 7 -2 10 -7 6 -6 -3 -23 2 -38 11 -16 10 -10 2 15 -20z
m142 -82 c0 -1 -7 -5 -16 -8 -10 -4 -13 -2 -8 7 5 8 2 7 -9 -2 -23 -19 -21
-24 7 -17 15 4 28 0 36 -9 11 -13 7 -15 -22 -15 -31 0 -37 5 -61 49 -15 26
-24 51 -20 54 4 5 93 -51 93 -59z m51 -80 l24 -26 -40 7 c-64 12 -91 45 -37
45 18 0 38 -10 53 -26z m99 -98 c0 -8 -60 -12 -72 -4 -8 4 4 8 30 8 23 0 42
-2 42 -4z m25 -26 c4 -6 -10 -10 -34 -10 -23 0 -41 5 -41 10 0 6 15 10 34 10
19 0 38 -4 41 -10z m35 -35 c11 -13 7 -15 -28 -15 -23 0 -45 6 -52 15 -11 13
-7 15 28 15 23 0 45 -6 52 -15z m46 -44 l23 -18 -36 -6 c-20 -4 -41 -3 -47 1
-6 4 5 10 24 13 l35 6 -42 2 c-52 1 -69 21 -18 21 21 0 47 -8 61 -19z m48 -40
c3 -5 -13 -11 -35 -15 -50 -8 -78 6 -29 15 53 10 58 10 64 0z m-85 -29 l20
-29 -48 -54 c-27 -30 -58 -70 -70 -89 -27 -45 -27 -30 1 56 12 38 22 72 22 76
1 8 45 68 51 68 2 0 13 -13 24 -28z m111 -1 c-15 -9 -65 -15 -85 -11 -17 3 38
18 70 19 22 0 26 -2 15 -8z m47 -26 c2 -7 -21 -12 -59 -13 -40 -2 -59 1 -53 7
20 19 106 24 112 6z m32 -24 c12 -8 10 -11 -10 -15 -71 -14 -88 -15 -99 -1
-10 11 -3 14 37 18 26 2 50 4 53 5 3 1 12 -2 19 -7z m-222 -78 c-25 -29 -57
-124 -50 -152 3 -14 2 -23 -3 -18 -10 9 -13 108 -3 101 4 -2 9 7 13 19 7 28
46 80 54 73 3 -3 -2 -14 -11 -23z m284 -36 c-70 -8 -101 -1 -101 24 0 16 123
15 150 -1 23 -14 22 -15 -49 -23z m-243 -57 c-7 -10 -14 -17 -17 -15 -4 4 18
35 25 35 2 0 -1 -9 -8 -20z m237 -59 c-6 -5 -31 -18 -57 -29 -47 -21 -48 -21
-58 -1 -6 11 -8 23 -5 28 3 5 -4 7 -15 4 -28 -7 -26 18 3 36 12 8 36 18 52 21
25 6 35 2 60 -21 18 -18 26 -32 20 -38z m179 20 l48 -49 -68 -7 c-38 -3 -76
-7 -84 -8 -16 -3 -90 92 -83 106 2 4 34 7 71 7 l68 0 48 -49z m-372 -13 c-20
-20 -13 -32 8 -13 27 24 25 16 -5 -25 -22 -30 -55 -49 -55 -31 0 10 50 81 57
81 4 0 2 -5 -5 -12z m474 -87 l42 -40 -26 -5 c-117 -21 -121 -21 -169 26 l-44
43 63 6 c35 3 69 6 77 7 8 1 33 -16 57 -37z m284 -33 c5 -13 9 -17 9 -10 1 6
5 12 10 12 5 0 7 -9 4 -20 -6 -21 -16 -18 -63 19 l-25 21 28 0 c19 0 30 -7 37
-22z m-418 -84 c73 -88 76 -94 50 -94 -16 0 -90 -23 -144 -45 -13 -5 -24 9
-52 71 -20 42 -34 80 -31 83 9 8 99 59 107 60 4 1 36 -33 70 -75z m252 8 c31
-29 56 -54 56 -56 0 -2 -24 -6 -52 -9 -29 -3 -67 -9 -84 -12 -28 -6 -35 -2
-82 53 l-52 60 72 10 c40 5 76 9 80 8 3 -1 31 -25 62 -54z"/>
<path d="M300 1196 c0 -2 8 -10 18 -17 15 -13 16 -12 3 4 -13 16 -21 21 -21
13z"/>
<path d="M331 1161 c-10 -7 -10 -10 -1 -16 6 -4 16 -3 22 3 13 13 -4 23 -21
13z"/>
<path d="M395 1070 c-4 -6 3 -10 14 -10 25 0 27 6 6 13 -8 4 -17 2 -20 -3z"/>
<path d="M636 475 c-9 -26 -7 -32 5 -12 6 10 9 21 6 23 -2 3 -7 -2 -11 -11z"/>
<path d="M80 1206 c0 -8 -5 -16 -11 -18 -13 -4 6 -58 21 -58 6 0 6 9 -1 27 -7
19 -7 29 0 31 14 5 14 32 1 32 -5 0 -10 -6 -10 -14z"/>
<path d="M4240 1148 c0 -17 3 -19 9 -9 5 7 15 17 22 22 10 6 8 9 -8 9 -17 0
-23 -6 -23 -22z"/>
<path d="M4170 1151 c0 -6 -7 -11 -15 -11 -8 0 -15 -4 -15 -10 0 -13 17 -13
25 1 4 6 14 8 22 5 9 -4 13 -1 11 6 -5 15 -28 23 -28 9z"/>
<path d="M128 1129 c-20 -10 -40 -23 -43 -29 -4 -6 -11 -7 -17 -4 -6 4 -9 1
-6 -7 6 -17 40 -25 36 -9 -2 7 13 21 32 32 28 16 38 18 53 8 24 -14 32 -7 18
17 -7 12 -10 13 -11 4 0 -10 -4 -11 -12 -3 -9 7 -24 5 -50 -9z"/>
<path d="M4110 1116 c0 -8 -7 -17 -16 -20 -8 -3 -13 -10 -9 -16 3 -5 14 -1 25
10 22 22 26 40 10 40 -5 0 -10 -6 -10 -14z"/>
<path d="M4110 1069 c0 -5 6 -8 13 -6 8 1 11 -9 9 -33 -2 -26 0 -31 7 -20 6 8
11 25 11 38 0 20 2 22 23 11 12 -7 33 -14 47 -15 14 -2 26 -8 28 -14 4 -12 22
-14 22 -2 0 12 -59 44 -69 37 -5 -3 -12 -1 -15 4 -8 12 -76 12 -76 0z"/>
<path d="M4095 1000 c3 -5 10 -10 16 -10 5 0 9 5 9 10 0 6 -7 10 -16 10 -8 0
-12 -4 -9 -10z"/>
<path d="M886 944 c-8 -20 2 -33 12 -18 4 6 16 16 27 22 19 11 18 11 -6 12
-16 0 -29 -7 -33 -16z"/>
<path d="M4246 944 c-5 -14 -4 -15 9 -4 17 14 19 20 6 20 -5 0 -12 -7 -15 -16z"/>
<path d="M342 890 c-6 -36 -14 -94 -18 -130 l-7 -65 -12 35 c-17 49 -65 143
-71 137 -2 -2 11 -58 30 -123 19 -65 35 -107 36 -93 0 14 -7 47 -16 73 -9 26
-14 49 -11 52 3 3 13 -20 23 -51 16 -49 19 -53 26 -34 11 30 40 238 35 252 -2
7 -9 -17 -15 -53z"/>
<path d="M60 932 c0 -13 7 -17 44 -26 26 -6 28 -5 17 8 -7 9 -17 13 -23 10 -5
-3 -15 0 -23 6 -10 8 -15 9 -15 2z"/>
<path d="M930 930 c-13 -9 -13 -10 0 -9 8 0 24 4 35 9 20 9 20 9 0 9 -11 0
-27 -4 -35 -9z"/>
<path d="M435 918 c-2 -7 -6 -55 -10 -107 -3 -52 -12 -125 -20 -163 -8 -38
-14 -84 -14 -101 1 -31 2 -30 10 8 27 130 56 375 44 375 -3 0 -7 -6 -10 -12z"/>
<path d="M1178 913 c6 -2 18 -2 25 0 6 3 1 5 -13 5 -14 0 -19 -2 -12 -5z"/>
<path d="M890 902 c0 -4 16 -6 35 -4 19 2 35 6 35 8 0 2 -16 4 -35 4 -19 0
-35 -4 -35 -8z"/>
<path d="M140 890 c0 -5 7 -10 15 -10 8 0 15 -5 15 -11 0 -6 7 -17 15 -25 13
-14 15 -14 15 0 0 9 -4 16 -10 16 -5 0 -10 6 -10 14 0 8 -7 17 -16 20 -21 8
-24 8 -24 -4z"/>
<path d="M1290 892 c0 -4 -13 -13 -30 -19 -23 -8 -30 -8 -30 0 0 9 -2 9 -8 1
-4 -6 -14 -14 -22 -17 -8 -4 0 -6 18 -4 17 2 32 0 32 -5 0 -4 5 -8 10 -8 6 0
9 5 8 11 -3 14 39 28 67 22 11 -2 34 -5 50 -7 17 -2 34 -4 38 -5 5 -1 5 -5 2
-11 -4 -6 9 -10 32 -11 34 0 35 -1 15 -10 -17 -6 -33 -5 -57 7 -19 8 -44 14
-57 12 -21 -4 -21 -5 7 -12 17 -4 39 -12 50 -17 11 -5 40 -9 65 -9 54 1 130
-7 138 -15 3 -3 -11 -5 -31 -5 -42 0 -49 -15 -12 -24 14 -4 23 -10 21 -15 -9
-15 -81 16 -80 34 2 12 -1 13 -12 4 -11 -9 -18 -8 -31 2 -16 12 -17 12 -6 -2
7 -9 10 -19 6 -22 -11 -12 -23 -8 -23 8 0 8 -6 12 -14 9 -7 -3 -20 1 -27 9 -8
7 -20 12 -27 9 -7 -2 -22 4 -33 14 -10 9 -19 12 -19 7 0 -15 23 -32 47 -36 12
-2 28 -8 35 -15 8 -6 17 -9 21 -6 3 3 13 -9 23 -28 22 -42 33 -49 67 -42 32 7
88 -23 67 -36 -8 -5 -9 -10 -2 -14 6 -3 13 -2 17 4 3 5 19 10 34 10 16 0 35 7
42 16 12 14 14 14 20 -3 3 -10 16 -19 28 -19 11 -1 22 -2 24 -4 4 -3 41 -11
69 -13 28 -3 38 8 38 44 0 18 5 19 43 15 23 -2 52 -5 65 -5 12 -1 22 -5 22
-11 0 -13 -46 -13 -71 0 -22 12 -25 5 -6 -15 14 -14 87 -11 97 5 6 10 60 1 60
-11 0 -5 -22 -9 -50 -9 -30 0 -50 -4 -50 -11 0 -7 10 -9 25 -5 20 5 25 3 25
-13 0 -11 9 -25 21 -31 17 -10 18 -14 7 -28 -11 -13 -11 -15 5 -9 10 4 17 2
17 -5 0 -8 4 -8 13 1 9 10 9 15 0 18 -7 2 -9 11 -6 19 3 8 2 14 -3 13 -17 -4
-44 13 -44 27 0 9 11 14 33 14 22 0 28 -3 18 -9 -8 -5 -21 -7 -30 -4 -13 4
-13 3 -2 -5 8 -6 23 -6 43 2 20 7 24 12 14 14 -9 2 -16 8 -16 14 0 6 7 7 18 3
9 -4 23 -8 30 -8 7 0 10 -7 7 -15 -4 -11 1 -13 19 -8 13 3 38 0 56 -8 l32 -13
-42 -7 c-23 -4 -49 -13 -57 -21 -19 -20 -33 -19 -34 3 0 14 -2 14 -9 -3 -13
-31 -12 -32 21 -27 17 2 33 11 36 18 6 16 53 19 53 4 0 -5 -11 -17 -26 -26
-14 -10 -21 -21 -16 -26 14 -14 42 2 42 23 0 17 3 18 20 9 14 -8 20 -8 20 0 0
6 -7 13 -15 16 -32 13 -13 24 39 24 66 0 82 -16 26 -25 -22 -4 -40 -11 -40
-16 0 -12 0 -12 50 6 51 18 96 19 106 3 5 -8 2 -9 -10 -5 -10 4 -15 3 -11 -3
3 -6 21 -10 39 -10 45 0 96 -11 96 -20 0 -5 -27 -11 -60 -15 -33 -4 -60 -11
-60 -17 0 -5 10 -6 23 -3 17 5 19 4 7 -4 -21 -15 -8 -13 32 4 27 11 38 11 48
2 9 -8 11 -8 7 -1 -8 13 20 28 27 15 9 -13 -25 -52 -42 -49 -9 2 -18 -5 -20
-16 -3 -13 0 -16 10 -10 9 5 9 2 -2 -11 -13 -16 -13 -18 0 -13 8 2 20 16 27
29 10 21 20 26 60 28 60 3 70 11 15 11 -42 0 -56 15 -26 27 20 8 125 -17 118
-29 -3 -4 -14 -8 -25 -8 -13 0 -19 -7 -19 -21 0 -20 1 -21 24 -5 29 18 68 22
114 12 39 -9 42 -25 5 -28 -39 -2 -46 -1 -64 6 -13 6 -15 1 -11 -24 2 -16 8
-30 13 -30 4 0 6 9 4 20 -2 11 0 18 5 15 15 -9 89 -11 84 -3 -3 5 12 8 33 7
31 -1 34 -2 14 -8 -32 -9 -40 -32 -10 -26 23 5 69 -34 69 -57 0 -6 3 -8 6 -5
4 3 16 2 27 -4 15 -9 18 -8 12 2 -6 9 -3 11 8 6 10 -3 17 -2 17 2 0 5 19 12
43 16 23 3 50 9 60 11 9 3 17 1 17 -4 0 -5 -22 -12 -50 -16 -41 -6 -50 -10
-50 -27 0 -11 4 -18 9 -15 11 7 101 -23 101 -33 0 -4 -6 -8 -12 -8 -7 0 -25
-3 -40 -6 -20 -4 -28 -2 -28 9 0 8 -5 14 -10 14 -6 0 -8 -10 -4 -24 5 -22 2
-25 -38 -35 -40 -9 -41 -10 -8 -8 19 1 45 7 57 15 17 11 22 11 26 0 4 -8 6 -7
6 5 1 21 61 25 61 3 0 -7 9 -16 20 -19 11 -3 24 -16 29 -29 l10 -23 0 23 c1
12 7 22 15 22 7 0 20 7 27 16 15 18 45 32 105 49 35 9 54 8 120 -10 43 -12 74
-24 69 -27 -6 -3 -38 -11 -72 -18 -53 -11 -65 -10 -94 4 -36 18 -89 21 -89 6
0 -5 17 -10 38 -10 21 0 43 -5 48 -10 16 -16 61 -16 137 0 67 14 69 13 215
-24 81 -21 159 -41 175 -43 15 -3 27 -9 27 -14 0 -14 -90 -22 -113 -10 -16 8
-37 9 -76 1 -58 -11 -68 -16 -58 -27 4 -3 17 -1 30 5 12 6 42 9 67 6 64 -7 97
-7 166 1 47 6 74 4 109 -9 28 -9 54 -12 62 -7 10 5 -1 12 -39 23 -29 9 -278
81 -553 161 -656 190 -718 209 -865 256 -134 42 -291 88 -705 208 -143 41
-291 84 -329 95 -52 15 -70 17 -76 8 -5 -9 -9 -9 -14 -1 -4 6 -4 11 1 11 16 1
-61 30 -117 45 -72 19 -130 26 -130 17z m380 -112 c11 -7 7 -10 -17 -10 -18 0
-33 -4 -33 -8 0 -5 19 -6 43 -2 23 3 53 3 67 -1 23 -6 22 -7 -10 -9 -19 -1
-38 -2 -42 -1 -5 0 -8 -4 -8 -10 0 -5 -4 -7 -10 -4 -5 3 -10 1 -10 -4 0 -6 9
-11 20 -11 11 0 20 5 20 10 0 6 28 10 65 10 37 0 65 -4 65 -10 0 -5 17 -10 38
-11 29 0 32 -2 17 -8 -11 -5 -30 -4 -43 0 -31 12 -89 12 -76 0 5 -5 20 -12 34
-16 19 -5 21 -4 10 4 -13 9 -13 11 1 11 8 0 24 -6 35 -14 19 -15 19 -15 -1
-30 -11 -9 -29 -14 -40 -11 -11 3 -34 8 -52 12 -20 3 -33 13 -36 25 -6 20 -34
20 -30 0 4 -20 -54 -24 -81 -7 -14 10 -24 20 -22 24 2 3 -19 6 -47 6 -46 0
-52 2 -55 23 -4 26 7 27 73 7 53 -15 55 -15 59 10 4 30 38 43 66 25z m1353
-402 l72 -21 -60 -13 c-33 -7 -63 -13 -67 -13 -3 -1 -21 11 -39 26 l-32 28 24
6 c13 4 26 7 27 8 2 1 36 -9 75 -21z m242 -73 c44 -13 74 -25 68 -26 -7 -1
-19 -2 -25 -3 -7 -1 -12 -7 -10 -14 1 -7 -3 -12 -9 -12 -6 0 -24 -11 -41 -25
-32 -27 -57 -32 -76 -13 -20 20 -14 28 26 28 20 1 48 7 62 15 29 17 13 19 -45
5 -32 -7 -48 -5 -80 9 -22 10 -51 23 -65 28 -24 10 -23 11 20 21 67 15 88 13
175 -13z"/>
<path d="M934 875 c-19 -14 -19 -14 2 -15 11 0 26 6 33 13 11 10 12 9 6 -3 -7
-12 -6 -13 6 -4 16 13 52 10 57 -5 4 -13 45 -15 56 -3 4 4 22 12 39 19 19 7
24 12 14 12 -10 1 -34 -6 -55 -14 -33 -14 -38 -14 -48 0 -14 19 -84 20 -110 0z"/>
<path d="M212 850 c0 -14 2 -19 5 -12 2 6 2 18 0 25 -3 6 -5 1 -5 -13z"/>
<path d="M487 828 c-26 -45 -63 -156 -54 -164 3 -3 13 19 22 48 10 29 29 75
42 101 31 62 23 73 -10 15z"/>
<path d="M1155 843 c4 -10 8 -24 8 -30 0 -7 9 -15 19 -19 10 -3 16 -10 13 -15
-4 -5 -2 -9 4 -9 21 0 20 19 -2 37 -13 10 -22 23 -20 29 2 7 -4 14 -13 18 -13
5 -15 2 -9 -11z"/>
<path d="M933 827 c20 -17 36 -22 55 -19 24 5 23 6 -15 17 -22 7 -46 15 -54
19 -8 4 -1 -3 14 -17z"/>
<path d="M1112 823 c-6 -2 -10 -9 -7 -13 7 -11 35 -2 35 11 0 10 -8 10 -28 2z"/>
<path d="M1287 812 c-17 -18 -14 -32 7 -32 22 0 37 17 30 33 -8 22 -17 21 -37
-1z m28 -12 c-3 -5 -10 -10 -16 -10 -5 0 -9 5 -9 10 0 6 7 10 16 10 8 0 12 -4
9 -10z"/>
<path d="M1020 810 c0 -5 12 -10 28 -10 15 -1 38 -7 52 -15 30 -17 40 -18 40
-5 0 6 -8 10 -19 10 -10 0 -24 7 -31 15 -14 17 -70 21 -70 5z"/>
<path d="M990 790 c0 -4 10 -10 23 -13 12 -2 30 -8 40 -12 13 -6 16 -4 11 9
-4 9 -9 15 -11 12 -2 -2 -18 0 -34 4 -16 5 -29 5 -29 0z"/>
<path d="M245 747 c3 -15 8 -47 12 -72 3 -25 9 -45 13 -45 9 0 -7 92 -21 123
-8 19 -9 19 -4 -6z"/>
<path d="M1030 749 c0 -5 10 -10 23 -10 22 -1 38 -4 47 -8 18 -9 50 -6 50 5 0
6 -10 12 -22 12 -13 0 -40 2 -60 5 -21 3 -38 1 -38 -4z"/>
<path d="M1161 744 c0 -11 3 -14 6 -6 3 7 2 16 -1 19 -3 4 -6 -2 -5 -13z"/>
<path d="M1220 747 c0 -5 7 -6 16 -3 26 10 35 -3 18 -29 -14 -21 -14 -24 5
-37 12 -8 18 -18 14 -22 -4 -4 4 -5 19 -2 21 3 26 1 21 -12 -6 -14 -4 -14 17
1 14 9 46 20 72 23 26 4 48 11 48 16 0 6 -11 7 -25 4 -63 -16 -115 -18 -143
-5 -28 12 -29 14 -15 36 8 12 12 27 8 32 -7 13 -55 10 -55 -2z"/>
<path d="M1298 738 c5 -5 16 -8 23 -6 8 3 3 7 -10 11 -17 4 -21 3 -13 -5z"/>
<path d="M1410 740 c0 -5 -9 -10 -20 -10 -11 0 -20 -4 -20 -9 0 -16 40 -8 57
11 15 17 15 18 0 18 -10 0 -17 -4 -17 -10z"/>
<path d="M1340 710 c0 -5 5 -10 10 -10 6 0 10 5 10 10 0 6 -4 10 -10 10 -5 0
-10 -4 -10 -10z"/>
<path d="M1150 682 c0 -5 10 -12 23 -16 32 -8 47 -7 47 3 0 6 -8 9 -17 9 -10
0 -26 3 -35 7 -10 4 -18 3 -18 -3z"/>
<path d="M1366 633 c-3 -3 -3 -10 0 -14 7 -12 34 -11 34 0 0 11 -26 22 -34 14z"/>
<path d="M4218 633 c6 -2 12 -8 12 -13 0 -5 7 -7 15 -3 9 3 25 -3 35 -12 11
-10 23 -16 26 -12 9 9 -39 36 -72 41 -16 2 -23 1 -16 -1z"/>
<path d="M1457 624 c7 -3 14 -4 16 -2 2 2 11 -5 21 -14 24 -25 97 -43 106 -28
4 7 16 9 29 5 12 -4 21 -2 21 4 0 15 -57 14 -63 -1 -4 -10 -8 -10 -15 1 -5 7
-14 11 -20 7 -6 -3 -12 -1 -14 6 -4 11 -10 14 -63 23 -16 3 -24 2 -18 -1z"/>
<path d="M1916 615 c-3 -8 -11 -15 -18 -15 -7 0 -26 -7 -41 -15 -18 -9 -35
-12 -45 -6 -10 4 -23 6 -31 3 -8 -2 -20 3 -26 12 -11 15 -13 15 -18 -4 -4 -15
0 -20 16 -21 12 -1 29 -2 37 -3 8 -1 21 -5 29 -10 8 -5 16 -4 20 2 11 18 64
33 91 27 19 -5 22 -4 13 6 -6 6 -9 18 -6 25 3 8 1 14 -5 14 -5 0 -12 -7 -16
-15z"/>
<path d="M1680 592 c0 -5 7 -13 16 -16 22 -8 24 -8 24 6 0 6 -3 8 -7 5 -3 -4
-12 -2 -20 4 -8 7 -13 8 -13 1z"/>
<path d="M1960 585 c0 -5 8 -17 17 -27 14 -15 15 -21 4 -27 -10 -6 -10 -10 -1
-16 8 -5 6 -11 -7 -21 -16 -12 -15 -13 15 -8 21 4 32 3 32 -5 0 -6 -10 -11
-22 -11 -21 0 -18 -12 5 -16 7 -1 20 -5 30 -9 10 -4 17 -3 17 4 0 6 -4 11 -10
11 -5 0 -10 6 -10 13 0 8 -9 22 -20 32 -13 12 -17 22 -11 29 6 7 7 16 3 21
-12 17 -42 38 -42 30z"/>
<path d="M1655 560 c3 -5 8 -10 11 -10 2 0 4 5 4 10 0 6 -5 10 -11 10 -5 0 -7
-4 -4 -10z"/>
<path d="M1907 531 c-3 -14 -11 -18 -26 -14 -12 3 -21 1 -21 -5 0 -6 12 -9 28
-7 15 2 33 -2 40 -7 16 -13 15 -7 -2 26 -12 24 -14 25 -19 7z"/>
<path d="M1733 525 c-7 -8 -9 -16 -4 -19 13 -8 81 6 75 15 -3 5 -17 6 -31 3
-18 -5 -24 -3 -19 5 10 16 -6 13 -21 -4z"/>
<path d="M2130 520 c0 -19 -4 -21 -45 -15 l-44 7 9 -31 c9 -34 37 -67 47 -57
4 3 -3 16 -15 29 -12 13 -22 26 -22 30 0 13 65 6 84 -8 11 -8 29 -12 42 -9 12
3 25 0 29 -6 4 -7 18 -9 37 -5 44 10 104 -21 115 -60 5 -17 17 -31 28 -34 10
-2 25 -9 33 -17 18 -18 37 -7 21 12 -6 8 -25 14 -41 14 -19 0 -28 4 -25 13 14
39 -57 90 -119 85 -16 -1 -40 4 -53 11 -19 11 -25 11 -32 0 -6 -10 -9 -10 -9
-2 0 7 -7 10 -16 6 -14 -5 -16 -1 -12 21 3 14 1 29 -3 32 -5 3 -9 -4 -9 -16z"/>
<path d="M2290 530 c0 -5 6 -10 14 -10 8 0 18 5 21 10 3 6 -3 10 -14 10 -12 0
-21 -4 -21 -10z"/>
<path d="M2340 527 c0 -9 5 -17 10 -17 12 0 9 -22 -5 -33 -6 -5 0 -7 13 -4 18
4 22 2 18 -9 -4 -10 -2 -12 6 -8 8 5 9 2 5 -9 -3 -10 -2 -17 3 -17 6 0 10 5
10 10 0 6 5 9 11 8 6 -2 14 3 17 11 3 10 0 12 -11 8 -9 -3 -19 -2 -22 3 -4 6
-1 10 4 10 6 0 11 5 11 11 0 7 -10 9 -26 5 -14 -4 -23 -3 -21 1 3 5 -1 17 -9
28 -12 16 -14 17 -14 2z"/>
<path d="M1820 518 c0 -4 7 -8 15 -8 8 0 15 4 15 8 0 5 -7 9 -15 9 -8 0 -15
-4 -15 -9z"/>
<path d="M3765 520 c3 -5 12 -10 20 -10 8 0 17 5 20 10 4 6 -5 10 -20 10 -15
0 -24 -4 -20 -10z"/>
<path d="M2200 500 c0 -6 7 -10 15 -10 8 0 15 2 15 4 0 2 -7 6 -15 10 -8 3
-15 1 -15 -4z"/>
<path d="M1815 484 c23 -17 32 -18 32 -1 0 6 -12 13 -26 14 -24 1 -25 1 -6
-13z"/>
<path d="M2865 475 c79 -31 1352 -386 1378 -384 26 1 -52 24 -363 109 -179 48
-480 132 -670 185 -368 104 -408 114 -345 90z"/>
<path d="M3570 445 c389 -95 854 -204 858 -200 7 7 -7 11 -198 55 -96 23 -297
70 -447 106 -150 35 -280 64 -290 63 -10 0 25 -11 77 -24z"/>
<path d="M2111 444 c-1 -23 21 -48 33 -37 3 4 13 -2 20 -13 12 -15 17 -17 27
-6 11 10 10 12 -4 12 -9 0 -17 5 -17 10 0 6 -9 10 -20 10 -12 0 -24 10 -30 23
-9 22 -9 22 -9 1z"/>
<path d="M2254 425 c10 -8 19 -26 19 -40 0 -19 3 -23 10 -16 6 6 22 11 37 11
22 1 23 2 7 11 -9 5 -21 8 -26 5 -5 -3 -11 2 -14 13 -2 10 -15 21 -28 24 -23
6 -23 5 -5 -8z"/>
<path d="M2470 421 c0 -12 5 -21 10 -21 6 0 10 6 10 14 0 8 -4 18 -10 21 -5 3
-10 -3 -10 -14z"/>
<path d="M1760 405 c0 -17 -4 -24 -12 -19 -6 4 -8 3 -4 -4 3 -6 20 -10 38 -10
27 1 29 3 14 13 -9 7 -16 17 -16 23 0 6 -4 14 -10 17 -6 4 -10 -5 -10 -20z"/>
<path d="M1810 415 c1 -20 22 -55 33 -55 7 0 -12 50 -25 65 -5 5 -8 1 -8 -10z"/>
<path d="M2590 415 c7 -8 18 -15 24 -15 6 0 23 -7 39 -14 23 -13 27 -13 27 0
0 8 -8 14 -18 14 -10 0 -27 7 -38 15 -27 20 -51 20 -34 0z"/>
<path d="M1850 383 c1 -20 20 -28 70 -28 46 0 55 -3 54 -17 -1 -13 6 -18 22
-18 14 0 27 -7 30 -15 4 -8 17 -15 31 -15 13 0 23 -5 22 -12 -3 -27 2 -38 17
-38 13 0 14 3 5 14 -7 8 -8 22 -3 36 7 19 10 20 15 7 4 -10 13 -14 26 -10 24
6 26 0 10 -29 -7 -13 -7 -18 -1 -14 6 3 13 2 17 -4 8 -13 25 -13 25 0 0 6 -7
10 -15 10 -12 0 -13 4 -5 19 15 28 13 31 -20 31 -17 0 -33 7 -39 18 -10 16
-11 15 -17 -4 -4 -16 -12 -20 -29 -16 -28 5 -41 32 -23 44 18 11 5 10 -25 -1
-21 -8 -26 -6 -30 10 -5 19 -18 22 -84 22 -18 0 -33 4 -33 8 0 5 -4 9 -10 9
-5 0 -10 -3 -10 -7z"/>
<path d="M2767 383 c-12 -12 -7 -19 14 -20 17 -2 18 1 9 13 -14 16 -14 16 -23
7z"/>
<path d="M741 373 c0 -6 -4 -20 -7 -30 -5 -14 -4 -15 5 -7 7 7 11 20 8 30 -3
11 -5 14 -6 7z"/>
<path d="M2520 365 c0 -9 -9 -15 -25 -15 -14 0 -25 -5 -25 -10 0 -13 73 -10
82 4 7 11 -9 36 -23 36 -5 0 -9 -7 -9 -15z"/>
<path d="M2612 359 c3 -8 14 -15 26 -15 51 -3 54 -4 48 -19 -3 -8 -1 -15 3
-15 12 0 23 29 16 41 -4 5 -16 8 -28 8 -12 0 -33 3 -46 7 -18 5 -23 4 -19 -7z"/>
<path d="M2810 359 c0 -7 12 -23 26 -36 22 -21 24 -26 12 -41 -12 -15 -11 -16
5 -3 22 18 22 33 -3 49 -11 7 -20 19 -20 27 0 8 -4 15 -10 15 -5 0 -10 -5 -10
-11z"/>
<path d="M783 313 c-15 -5 -17 -23 -4 -23 5 0 11 7 15 15 3 8 4 15 3 14 -1 0
-8 -3 -14 -6z"/>
<path d="M1700 285 c0 -8 8 -15 19 -15 10 0 29 -8 42 -18 28 -21 56 -22 92 -3
21 11 29 12 42 1 12 -10 18 -10 32 1 15 13 16 12 10 -9 -4 -18 -2 -22 8 -18 8
3 17 1 21 -5 3 -6 12 -8 19 -5 8 3 16 0 18 -7 2 -7 8 -9 12 -5 12 12 -5 28
-31 28 -14 0 -24 6 -24 14 0 7 -6 19 -14 25 -11 10 -16 9 -23 -4 -8 -14 -11
-13 -28 5 -15 17 -20 18 -29 6 -15 -20 -85 -24 -96 -6 -5 8 -12 11 -16 7 -4
-4 -18 0 -31 8 -21 14 -23 14 -23 0z"/>
<path d="M2877 284 c-4 -4 1 -16 10 -27 17 -18 17 -19 -1 -33 -12 -8 -25 -10
-35 -5 -19 10 -41 4 -41 -11 0 -6 7 -7 16 -4 9 4 22 2 29 -4 10 -8 21 -4 43
18 17 17 36 32 44 35 7 2 10 7 6 11 -3 4 -16 3 -27 -3 -17 -10 -20 -9 -14 5 4
11 2 15 -4 11 -6 -4 -13 -2 -15 4 -2 5 -7 7 -11 3z"/>
<path d="M2569 276 c-3 -4 -4 -18 -1 -31 3 -18 11 -25 27 -25 13 0 25 -4 27
-8 2 -5 15 -12 30 -16 22 -5 26 -3 22 9 -3 8 -10 12 -15 9 -5 -3 -9 0 -9 5 0
6 -3 10 -7 9 -18 -3 -62 22 -65 37 -1 9 -6 14 -9 11z"/>
<path d="M2660 269 c0 -5 5 -7 10 -4 6 3 10 8 10 11 0 2 -4 4 -10 4 -5 0 -10
-5 -10 -11z"/>
<path d="M2791 236 c-7 -8 -22 -17 -34 -19 -21 -4 -21 -4 -1 -6 22 -1 63 24
53 33 -3 4 -12 0 -18 -8z"/>
<path d="M2080 216 c0 -8 12 -24 28 -34 24 -18 31 -18 52 -7 14 7 29 10 35 7
5 -4 22 -7 37 -8 27 -1 62 -27 51 -38 -4 -3 -1 -6 5 -6 48 0 -18 61 -68 62
-16 1 -30 5 -30 11 0 5 -7 4 -15 -3 -8 -7 -15 -9 -15 -5 0 4 -6 3 -13 -3 -14
-12 -47 7 -47 27 0 6 -4 11 -10 11 -5 0 -10 -6 -10 -14z"/>
<path d="M2689 198 c-10 -18 -8 -24 9 -39 23 -18 105 -34 122 -24 5 3 10 -1
10 -9 0 -9 5 -16 10 -16 13 0 12 11 -4 32 -9 12 -16 14 -23 7 -8 -8 -22 -7
-50 1 -21 7 -44 14 -50 16 -7 2 -13 11 -13 21 0 14 2 15 9 4 5 -7 11 -9 14 -5
3 5 -1 15 -9 22 -11 10 -15 8 -25 -10z"/>
<path d="M2285 200 c-3 -5 1 -10 9 -10 8 0 19 -7 24 -17 6 -10 16 -14 26 -10
27 11 18 -11 -11 -27 -16 -9 -22 -15 -12 -16 8 0 20 5 26 11 7 7 13 7 17 0 7
-11 34 -4 54 15 21 21 13 27 -13 10 -33 -22 -35 -21 -28 16 6 31 6 31 -17 15
-22 -15 -24 -15 -37 3 -16 22 -29 25 -38 10z"/>
<path d="M2765 200 c-18 -8 -17 -9 8 -9 15 -1 27 4 27 9 0 12 -8 12 -35 0z"/>
<path d="M2895 190 c-7 -11 9 -11 45 0 24 8 24 8 -7 9 -17 1 -35 -3 -38 -9z"/>
<path d="M3571 181 c-7 -5 -12 -13 -10 -18 2 -6 13 -2 23 8 20 19 12 26 -13
10z"/>
<path d="M3160 160 c0 -5 5 -10 10 -10 6 0 10 5 10 10 0 6 -4 10 -10 10 -5 0
-10 -4 -10 -10z"/>
<path d="M3063 130 c-5 -21 -7 -21 -58 -25 -52 -4 -55 -5 -55 -14 0 -10 57 -5
103 9 17 6 27 5 27 -1 0 -6 7 -6 19 1 11 5 26 8 33 7 7 -2 10 -2 6 0 -5 3 -8
14 -8 26 l0 21 -16 -22 c-19 -27 -38 -29 -29 -2 4 12 2 20 -5 20 -7 0 -14 -9
-17 -20z"/>
<path d="M3400 140 l-35 -6 33 -5 c18 -3 35 -2 38 3 9 13 3 15 -36 8z"/>
<path d="M3450 140 c0 -5 10 -11 23 -12 12 0 27 -2 32 -3 6 -2 27 -3 49 -4 35
-1 38 -3 34 -26 -3 -14 -1 -25 3 -25 5 0 9 6 9 13 0 7 9 13 20 13 15 0 18 -5
14 -18 -3 -10 -1 -18 5 -18 6 0 11 5 11 11 0 5 4 7 10 4 5 -3 7 0 4 9 -4 11 4
17 33 22 21 3 45 10 53 15 24 14 -29 10 -71 -5 -37 -13 -85 -5 -75 13 4 5 -13
9 -36 8 -24 -1 -60 2 -80 6 -25 5 -38 4 -38 -3z"/>
<path d="M2412 120 c-10 -17 -10 -20 2 -20 8 0 23 -3 33 -6 16 -5 16 -4 2 8
-9 7 -18 19 -20 26 -3 8 -8 5 -17 -8z"/>
<path d="M2866 125 c-2 -7 2 -16 10 -19 22 -8 26 -7 20 3 -4 5 12 7 34 5 23
-2 39 0 36 5 -8 12 -46 21 -46 10 0 -5 -10 -5 -24 1 -18 6 -26 5 -30 -5z"/>
<path d="M3005 130 c-3 -5 -1 -10 4 -10 6 0 11 5 11 10 0 6 -2 10 -4 10 -3 0
-8 -4 -11 -10z"/>
<path d="M3030 129 c0 -5 5 -7 10 -4 6 3 10 8 10 11 0 2 -4 4 -10 4 -5 0 -10
-5 -10 -11z"/>
<path d="M3220 126 c0 -9 -7 -16 -15 -16 -8 0 -15 -5 -15 -10 0 -15 32 -8 48
10 8 8 11 10 8 3 -11 -20 62 -28 81 -9 5 4 -6 6 -23 5 -17 -2 -38 1 -45 7 -29
23 -39 25 -39 10z"/>
<path d="M3534 95 c-10 -8 -14 -14 -9 -15 15 0 40 18 34 24 -3 3 -14 -1 -25
-9z"/>
<path d="M3480 80 c0 -5 5 -10 10 -10 6 0 10 5 10 10 0 6 -4 10 -10 10 -5 0
-10 -4 -10 -10z"/>
</g>
</svg>
