<?xml version="1.0" standalone="no"?>
<!DOCTYPE svg PUBLIC "-//W3C//DTD SVG 20010904//EN"
 "http://www.w3.org/TR/2001/REC-SVG-20010904/DTD/svg10.dtd">
<svg version="1.0" xmlns="http://www.w3.org/2000/svg"
 width="1152.000000pt" height="896.000000pt" viewBox="0 0 1152.000000 896.000000"
 preserveAspectRatio="xMidYMid meet">
<metadata>
Created by potrace 1.10, written by Peter Selinger 2001-2011
</metadata>
<g transform="translate(0.000000,896.000000) scale(0.100000,-0.100000)"
fill="#000000" stroke="none">
<path d="M4487 8573 c3 -214 6 -392 8 -398 2 -5 4 169 4 388 1 218 -3 397 -7
397 -5 0 -7 -174 -5 -387z"/>
<path d="M1505 8169 c-4 -5 -25 -8 -48 -7 -38 3 -43 0 -57 -28 -11 -23 -34
-40 -90 -67 -41 -19 -94 -51 -116 -71 -45 -38 -156 -184 -194 -253 -13 -24
-32 -45 -41 -48 -17 -6 -132 -149 -141 -176 -3 -9 -11 -8 -30 5 -48 31 -87 36
-181 24 -78 -10 -97 -10 -162 7 -85 21 -106 17 -226 -39 -70 -33 -72 -33 -123
-20 -59 16 -96 18 -96 5 0 -5 6 -8 13 -7 27 2 117 -15 117 -24 0 -5 -19 -11
-43 -14 -85 -11 -91 -13 -40 -15 44 -1 68 7 150 48 135 68 166 75 234 55 43
-13 78 -15 176 -9 103 5 126 4 155 -11 18 -9 35 -18 37 -20 2 -2 -9 -31 -25
-64 l-29 -60 -375 -2 -375 -1 370 -7 c204 -4 373 -6 378 -3 11 6 9 1 -17 -53
-13 -27 -29 -74 -35 -104 -7 -30 -15 -63 -18 -72 -4 -16 -18 -18 -106 -18
-221 0 -567 -14 -567 -22 0 -5 24 -7 52 -4 29 3 181 7 338 10 162 2 255 1 215
-4 -38 -4 -144 -9 -235 -10 -91 -1 -212 -6 -270 -10 -65 -5 11 -6 195 -3 165
2 317 6 337 9 l37 6 -6 -88 c-5 -76 -4 -89 11 -100 16 -11 16 -17 5 -48 -10
-28 -18 -36 -43 -38 -30 -3 -31 -5 -34 -52 -4 -65 4 -96 26 -96 46 -1 47 -14
8 -112 -21 -51 -41 -102 -45 -113 -7 -18 -40 -25 -282 -64 -253 -41 -342 -59
-297 -60 9 -1 139 19 290 44 286 47 308 50 308 38 0 -5 -132 -30 -293 -57
-160 -26 -299 -52 -307 -57 -23 -13 -15 -12 285 40 154 27 281 48 283 46 1 -1
-1 -13 -6 -25 -8 -22 -26 -27 -280 -71 -149 -26 -277 -50 -284 -52 -35 -14 46
-3 247 32 295 53 315 56 315 42 0 -7 15 -21 34 -32 25 -14 33 -25 29 -39 -5
-18 -8 -18 -64 10 -32 17 -60 30 -62 30 -2 0 -2 -12 1 -27 4 -24 3 -26 -9 -16
-10 8 -20 9 -29 3 -12 -8 -10 -10 7 -10 12 0 25 -5 28 -11 12 -18 -1 -20 -30
-5 -16 8 -32 13 -37 10 -4 -3 -8 2 -8 11 0 12 -5 15 -16 11 -9 -3 -21 -6 -27
-6 -7 -1 5 -10 26 -21 45 -24 47 -35 6 -43 -51 -10 -72 -7 -99 14 -30 23 -52
26 -44 5 4 -8 14 -15 24 -15 25 0 34 -16 13 -24 -9 -4 -20 -1 -25 6 -21 35
-28 42 -34 35 -4 -4 -2 -13 4 -19 16 -16 15 -35 0 -35 -7 0 -21 -4 -30 -8 -11
-4 -18 -3 -18 4 0 6 9 11 21 11 23 0 23 30 0 38 -10 3 -12 0 -8 -11 3 -9 -1
-18 -9 -21 -28 -11 -39 -6 -20 9 11 8 14 15 8 15 -27 0 -10 20 22 26 22 4 33
11 30 19 -4 8 8 15 32 20 57 10 125 18 167 19 22 1 37 6 37 13 0 7 16 15 35
19 20 3 34 8 31 11 -4 4 -491 -89 -538 -103 -10 -3 -18 -9 -18 -13 0 -4 37 0
82 10 99 22 111 23 105 7 -2 -7 -14 -11 -27 -10 -26 4 -160 -28 -160 -39 0 -4
12 -10 27 -14 24 -6 26 -8 10 -16 -9 -6 -23 -7 -30 -3 -6 4 -3 -2 7 -14 17
-19 17 -22 3 -22 -10 0 -17 -5 -17 -11 0 -6 8 -8 18 -5 9 3 100 23 202 46 102
23 219 50 260 60 175 44 328 68 458 73 72 2 131 3 130 1 -2 -1 -243 -61 -536
-134 -292 -73 -532 -136 -532 -140 0 -4 249 54 553 130 303 75 590 142 637
148 47 6 123 23 170 38 47 15 105 27 130 27 25 -1 59 -1 75 0 17 0 44 0 60 0
33 -1 147 -27 164 -37 6 -4 11 -3 11 2 0 5 12 14 26 20 15 7 22 17 18 24 -5 8
-2 9 10 5 10 -4 24 -7 32 -7 9 0 13 -4 9 -9 -3 -5 -1 -12 5 -16 15 -9 12 -25
-4 -25 -7 0 -16 9 -19 20 -7 28 -22 25 -36 -7 -15 -35 -41 -67 -67 -81 -23
-12 -84 9 -84 30 0 9 3 10 8 2 9 -14 62 -24 62 -13 0 5 7 9 16 9 8 0 13 4 10
9 -3 5 3 11 14 14 11 3 20 10 20 16 0 6 -14 2 -32 -9 -17 -10 -35 -17 -40 -14
-4 3 -8 0 -8 -5 0 -6 -7 -11 -15 -11 -18 0 -20 16 -2 24 6 3 -1 4 -18 3 -23
-1 -30 -7 -30 -22 0 -23 -33 -23 -51 0 -6 8 -20 12 -32 8 -12 -3 -22 -1 -22 5
0 6 -8 8 -19 5 -10 -3 -22 0 -26 6 -9 16 23 25 39 12 7 -6 21 -9 30 -5 9 3 27
-1 41 -10 21 -14 25 -14 25 -2 0 10 -19 18 -57 26 -32 6 -67 14 -78 19 -12 5
-47 -1 -94 -16 -42 -12 -103 -28 -136 -34 -33 -6 -112 -26 -175 -45 -63 -18
-230 -62 -370 -97 -394 -100 -750 -199 -750 -210 0 -5 10 -6 23 -2 12 4 45 12
72 17 28 6 59 14 70 18 39 16 65 18 65 7 0 -7 6 -5 13 5 14 18 127 52 127 38
0 -5 -6 -11 -12 -14 -7 -3 -1 -4 14 -1 37 7 86 -5 92 -22 3 -8 3 -25 0 -38 -5
-21 -7 -22 -32 -9 -18 9 -28 10 -33 3 -4 -6 -9 -7 -12 -2 -3 5 -2 15 4 23 12
21 11 30 -4 30 -25 0 -37 -21 -21 -37 20 -21 17 -36 -6 -30 -13 3 -20 0 -20
-10 0 -8 -8 -22 -17 -31 -16 -16 -15 -17 8 -20 44 -7 51 -21 24 -50 -13 -14
-28 -23 -31 -19 -4 4 -2 13 4 19 17 17 15 38 -3 38 -8 0 -12 -6 -9 -14 7 -19
-30 -56 -56 -56 -22 0 -26 10 -8 28 8 8 17 8 32 1 20 -10 20 -9 2 5 -19 15
-14 36 8 36 9 0 12 12 10 36 -2 28 2 37 19 43 12 5 28 6 36 3 9 -4 12 -1 7 7
-5 7 -14 10 -21 7 -8 -3 -15 4 -18 17 l-4 22 -2 -22 c-1 -28 -31 -31 -31 -4 0
12 11 23 28 29 20 8 22 10 7 10 -24 0 -76 -16 -57 -17 24 -2 12 -31 -13 -31
-14 0 -25 5 -25 10 0 15 -44 12 -66 -5 -10 -8 -33 -15 -51 -15 -17 0 -35 -4
-38 -10 -4 -6 5 -8 22 -6 15 2 20 1 10 -1 -9 -2 -14 -9 -11 -15 4 -6 -1 -8
-15 -3 -12 4 -21 2 -21 -4 0 -13 -22 -10 -32 4 -4 5 -11 -2 -17 -15 -8 -22 -5
-30 35 -68 25 -25 49 -40 56 -36 7 5 8 3 3 -5 -4 -8 1 -19 15 -28 l22 -15 -27
-18 c-22 -14 -24 -18 -10 -24 9 -3 13 -10 10 -16 -9 -15 -35 -12 -35 4 0 7 -6
19 -14 25 -11 9 -16 9 -23 -2 -4 -7 -17 -17 -28 -21 -14 -6 -16 -10 -7 -13 7
-3 22 3 33 13 18 16 24 11 21 -17 -1 -4 12 -6 28 -5 17 1 36 -1 43 -6 7 -5 2
-8 -16 -8 -16 0 -26 -4 -22 -10 3 -5 2 -10 -4 -10 -5 0 -11 6 -14 13 -4 10 -7
10 -18 0 -11 -11 -11 -13 1 -13 7 0 10 -3 7 -6 -4 -4 -13 -1 -21 6 -9 6 -21
10 -28 7 -8 -4 -7 -6 5 -6 9 -1 17 -6 17 -12 0 -5 -4 -8 -9 -5 -5 3 -14 -1
-21 -9 -7 -8 -10 -15 -8 -15 3 0 77 24 164 53 87 30 251 84 364 122 399 132
1078 366 1627 561 105 37 189 72 186 78 -3 5 -1 6 6 2 6 -4 30 -1 54 8 23 8
101 36 172 62 72 25 182 65 245 89 63 24 190 71 283 105 147 55 165 64 150 76
-10 7 -25 14 -33 14 -12 1 -12 3 3 14 25 19 97 19 97 0 0 -11 -4 -12 -18 -5
-24 13 -52 -3 -35 -20 9 -9 21 -8 50 4 21 9 32 16 24 16 -8 1 -11 8 -8 20 4
15 -1 18 -27 16 -17 -1 -34 2 -37 7 -3 5 -13 2 -22 -7 -9 -9 -21 -13 -27 -10
-6 4 -9 1 -8 -7 2 -8 -6 -12 -22 -10 -17 1 -21 -1 -11 -7 10 -7 11 -10 1 -16
-14 -9 -43 22 -34 36 3 5 16 9 30 9 13 0 24 4 24 8 0 15 143 18 148 3 3 -9 72
11 72 21 0 4 -10 4 -22 0 -34 -12 -51 -9 -54 10 -1 10 7 18 22 21 19 3 22 1
14 -9 -9 -9 -7 -11 9 -7 11 3 17 11 15 17 -3 7 1 13 8 13 7 0 21 4 31 8 13 6
16 4 11 -9 -4 -10 -13 -15 -20 -12 -8 3 -14 1 -14 -4 0 -6 5 -10 11 -10 6 0 8
-7 5 -16 -4 -10 -1 -14 6 -12 13 5 14 8 17 44 1 11 7 14 17 10 14 -5 15 -4 5
8 -10 12 -6 15 20 21 20 5 35 3 42 -5 9 -10 7 -12 -10 -7 -14 3 -24 -1 -27
-10 -8 -20 -8 -23 5 -23 5 0 7 5 4 10 -3 6 -1 10 5 10 7 0 10 -6 7 -12 -2 -7
-15 -12 -29 -10 -19 2 -27 -3 -31 -20 -4 -12 -1 -26 6 -31 7 -5 2 -6 -12 -2
-16 5 -21 4 -17 -4 10 -15 -7 -14 -22 1 -10 10 -14 10 -21 0 -4 -7 -12 -12
-17 -11 -20 3 -34 -2 -34 -12 0 -7 8 -9 20 -5 257 79 -928 -378 -1945 -751
-206 -75 -1012 -362 -1220 -433 -211 -73 -205 -70 -205 -81 0 -6 7 -6 18 0 9
5 105 39 212 76 221 76 979 345 1205 428 704 258 1301 484 1740 660 193 77
418 166 500 199 248 98 254 101 248 111 -4 6 1 8 11 4 10 -4 21 -7 24 -7 30
-3 -1136 -513 -1648 -723 -47 -19 -276 -113 -510 -209 -547 -226 -804 -328
-1125 -449 -143 -54 -252 -99 -243 -99 44 0 694 255 1548 607 140 58 318 132
395 163 730 300 1671 722 1658 743 -4 6 0 8 11 4 20 -8 76 18 76 35 0 6 3 9 6
5 4 -3 13 1 21 9 8 8 19 12 24 9 5 -4 9 -1 9 5 0 6 5 8 10 5 6 -3 10 -2 10 2
0 11 130 86 137 80 22 -23 -419 -256 -1121 -591 -488 -233 -2230 -1027 -2346
-1069 -8 -3 296 -6 677 -6 l692 -1 198 116 c651 385 1160 719 1478 973 256
205 458 396 534 505 51 74 54 55 4 -22 -47 -70 -280 -310 -428 -442 -304 -269
-713 -567 -1303 -952 l-274 -178 1026 0 1026 0 0 889 c-1 687 -4 891 -13 895
-9 3 -9 5 1 5 6 1 12 12 12 26 0 18 -4 23 -15 19 -11 -5 -15 1 -15 20 0 16 6
26 15 26 9 0 15 9 15 24 0 20 -6 25 -35 28 -31 4 -35 1 -35 -20 0 -13 -4 -21
-10 -17 -6 4 -8 15 -5 26 6 17 1 19 -34 19 -22 0 -42 4 -45 9 -3 5 -26 12 -50
15 -26 4 -47 13 -50 23 -5 13 -1 15 21 10 16 -3 42 -11 58 -18 17 -6 42 -13
57 -15 15 -2 47 -8 70 -14 54 -12 58 -12 58 0 0 6 -13 10 -29 10 -16 0 -100
21 -187 46 -88 26 -186 54 -219 62 -61 15 -467 155 -495 171 -8 4 -17 17 -19
27 -3 18 -2 18 16 2 15 -14 37 -18 99 -18 75 0 84 -3 194 -55 l115 -55 80 10
c44 5 116 21 160 34 44 14 85 26 92 26 7 0 28 -24 47 -52 37 -56 146 -169 146
-152 0 5 -23 32 -51 59 -28 28 -64 70 -81 94 l-30 43 33 -7 c19 -4 54 -16 78
-26 24 -11 46 -17 49 -14 8 7 -84 46 -126 52 -20 3 -57 16 -82 28 -25 13 -79
33 -119 45 -67 21 -88 22 -214 17 -140 -5 -140 -5 -226 28 -209 79 -514 122
-693 96 l-77 -11 -201 70 -202 70 -146 -2 c-146 -1 -148 -1 -251 36 -150 53
-248 74 -401 87 -77 6 -160 18 -192 29 -35 12 -60 15 -63 9z m-50 -29 c4 -6
11 -7 17 -4 7 4 8 2 4 -5 -4 -6 -12 -9 -17 -6 -5 4 -5 -3 0 -18 11 -28 -2 -47
-31 -47 -21 0 -25 40 -6 70 14 22 24 25 33 10z m73 1 c17 -10 12 -53 -7 -59
-10 -3 -12 3 -9 27 5 36 3 39 -12 11 -8 -14 -8 -26 0 -40 9 -17 8 -20 -9 -20
-21 0 -20 23 2 68 11 24 16 26 35 13z m52 -39 c0 -33 -3 -38 -25 -40 -24 -2
-25 -1 -10 22 9 13 13 31 9 40 -4 11 -1 16 10 16 12 0 16 -10 16 -38z m312 -8
c108 -17 300 -80 415 -135 49 -23 120 -52 158 -64 60 -19 72 -27 87 -57 l16
-34 219 -52 c120 -28 299 -70 398 -93 113 -26 184 -47 190 -57 6 -8 25 -37 43
-64 l32 -50 -2 -167 -2 -166 -6 165 c-3 91 -7 153 -8 138 -1 -21 -7 -28 -22
-28 -18 0 -20 7 -20 70 0 39 -2 70 -4 70 -10 0 -370 67 -644 120 -172 33 -315
60 -318 60 -2 0 -4 -43 -4 -95 0 -94 0 -95 -25 -95 l-24 0 -3 138 -3 137 -75
17 c-130 28 -126 30 -203 -70 -49 -63 -67 -94 -65 -112 3 -24 6 -25 57 -23 29
2 60 8 67 14 11 9 14 8 14 -5 0 -12 -10 -16 -37 -18 -37 -1 -37 -1 -5 -5 20
-3 32 -10 32 -20 0 -12 -8 -14 -40 -9 -22 3 -58 9 -80 12 -48 7 -60 25 -60 92
0 35 8 65 30 105 53 99 38 128 -75 148 -80 15 -533 19 -660 6 l-80 -8 30 26
c34 28 141 85 162 85 7 0 13 -6 13 -14 0 -20 15 -22 120 -16 l95 5 -1 37 -1
38 101 -6 c55 -3 140 -12 188 -20z m538 -114 c0 -5 -9 -10 -19 -10 -11 0 -23
5 -26 10 -4 6 5 10 19 10 14 0 26 -4 26 -10z m120 -37 l0 -48 -23 28 c-12 15
-35 31 -51 35 -53 14 -43 32 18 32 l56 0 0 -47z m30 -2 c0 -22 4 -42 9 -45 5
-4 7 11 4 34 -6 44 -3 46 46 29 29 -10 31 -15 32 -57 1 -38 3 -42 8 -22 5 14
7 33 5 43 -2 11 3 17 14 16 30 -1 163 -55 155 -62 -4 -5 0 -5 9 -2 9 4 19 1
23 -4 3 -6 11 -9 16 -5 14 8 130 -36 123 -47 -3 -5 1 -7 8 -4 7 3 42 -6 78
-19 59 -22 65 -26 68 -55 2 -17 -1 -31 -7 -31 -6 0 -11 5 -11 11 0 6 -9 8 -21
4 -16 -5 -19 -4 -14 6 6 9 3 11 -9 6 -29 -11 -65 2 -59 21 4 14 3 14 -5 3 -9
-12 -32 -8 -146 24 l-136 38 -2 46 -1 46 -4 -42 c-3 -25 -9 -43 -16 -42 -7 0
-50 13 -97 28 l-85 27 -3 47 c-2 28 1 47 7 47 6 0 11 -18 11 -39z m-1106 7
c-5 -7 -41 -53 -81 -101 -40 -48 -73 -91 -73 -95 0 -4 28 24 61 61 l61 68 68
-3 c74 -2 76 -5 37 -61 -21 -31 -14 -53 8 -24 13 18 14 17 29 -12 9 -16 16
-31 16 -33 0 -8 -280 -7 -285 2 -6 10 144 209 158 209 5 1 5 -5 1 -11z m-62
-21 c-7 -27 -19 -30 -103 -28 -74 2 -79 1 -95 -24 -23 -35 -29 -24 -9 17 l16
33 -23 -26 c-13 -14 -31 -24 -40 -21 -22 4 -22 11 -3 40 11 15 24 21 43 18 15
-1 48 0 72 3 25 3 68 6 96 6 44 0 50 -2 46 -18z m188 16 c0 -17 -36 -43 -61
-43 -46 0 -60 9 -48 31 7 15 21 19 59 19 28 0 50 -3 50 -7z m15 -33 c-9 -18
-19 -30 -21 -27 -3 3 2 19 11 37 9 18 19 30 21 27 3 -3 -2 -19 -11 -37z m317
19 c31 -6 59 -18 62 -25 4 -11 -20 -12 -137 -7 -78 3 -149 7 -157 9 -8 1 -25
3 -37 3 -15 1 -21 7 -20 21 1 19 7 19 117 15 63 -3 141 -10 172 -16z m548 -7
c-7 -3 -19 3 -28 13 -16 15 -15 16 12 4 15 -7 23 -15 16 -17z m-1141 -101
c-24 -28 -53 -53 -64 -55 -38 -8 -156 -22 -159 -19 -2 2 24 30 58 63 l62 59
69 3 c39 2 72 2 74 1 2 -1 -16 -25 -40 -52z m528 47 c148 -3 160 -10 94 -54
-53 -35 -119 -53 -228 -64 -97 -9 -130 -19 -99 -30 16 -5 167 4 212 14 11 2
37 11 57 20 20 8 37 14 38 13 0 -1 1 -30 2 -63 l2 -62 -59 -6 c-43 -4 -64 -2
-75 7 -18 16 -95 32 -196 43 -38 4 -74 8 -80 9 -5 1 -38 3 -72 3 -102 3 -72
18 39 20 127 2 145 13 105 66 -32 41 -32 44 -11 75 15 21 22 23 78 17 33 -3
121 -7 193 -8z m883 -58 c85 -23 217 -60 294 -81 76 -21 145 -39 152 -39 8 0
14 9 14 21 0 14 5 19 14 16 8 -3 33 -11 55 -17 25 -7 48 -22 62 -41 11 -17 20
-32 18 -33 -2 -2 -177 38 -388 89 -292 70 -387 96 -397 110 -19 26 -17 38 4
27 9 -6 87 -29 172 -52z m747 26 c67 -14 166 -42 220 -62 98 -36 98 -36 223
-30 134 5 212 -5 304 -41 l49 -20 -89 -27 c-49 -16 -123 -31 -164 -33 -75 -6
-77 -5 -179 46 -98 48 -108 51 -182 51 -66 0 -82 3 -99 20 -39 39 -69 45 -235
45 -159 0 -160 0 -253 36 -51 19 -89 39 -85 43 5 5 89 6 188 3 140 -4 207 -11
302 -31z m-2377 -27 c-32 -40 -38 -54 -29 -65 9 -12 5 -14 -25 -14 -44 0 -45
11 -10 65 33 50 52 65 81 65 22 0 22 -2 -17 -51z m1233 11 c4 0 7 -112 7 -250
0 -137 -3 -250 -7 -250 -5 0 -7 56 -7 125 l1 125 -31 0 c-28 1 -29 2 -13 14
14 11 17 29 17 108 0 104 -2 107 -67 108 -22 0 -23 -3 -23 -99 l0 -100 28 -4
c19 -3 14 -4 -15 -6 l-43 -1 0 116 0 116 28 -6 c15 -3 44 -8 64 -12 l37 -6 4
-112 3 -111 2 116 2 116 -75 15 -75 15 0 -61 c0 -110 -13 -461 -16 -465 -2 -2
-4 117 -4 266 0 148 2 272 5 275 3 3 43 -3 88 -13 45 -10 85 -19 90 -19z
m-212 2 c-11 -16 -28 -35 -38 -43 -10 -8 -3 5 16 29 37 47 53 58 22 14z
m-1000 -25 c-19 -18 -30 -25 -26 -17 13 25 48 60 54 55 3 -3 -10 -20 -28 -38z
m1159 -107 l0 -87 -25 5 c-24 4 -25 6 -25 92 l0 87 25 -5 c24 -4 25 -6 25 -92z
m-162 40 c0 -28 -3 -52 -7 -54 -11 -7 -61 6 -61 16 0 10 58 88 65 88 2 0 4
-23 3 -50z m1322 -10 l0 -49 -25 23 c-26 24 -93 46 -139 46 -14 0 -27 4 -31 9
-5 10 39 16 143 19 l52 2 0 -50z m56 38 l26 -12 -3 -338 c-4 -314 -5 -338 -21
-338 -17 0 -18 20 -18 278 -1 221 -4 282 -15 302 -16 28 -20 120 -5 120 5 0
21 -5 36 -12z m-1426 -2 c0 -2 -8 -10 -17 -17 -16 -13 -17 -12 -4 4 13 16 21
21 21 13z m1103 -47 c-6 -6 -7 3 -4 23 4 28 6 29 9 9 2 -13 0 -27 -5 -32z
m-1883 17 c6 -8 28 -17 48 -19 20 -2 3 -4 -39 -5 -56 -2 -80 2 -88 12 -10 12
-7 15 21 19 18 2 36 5 39 5 4 1 12 -4 19 -12z m-112 -16 c17 -11 32 -24 32
-30 0 -6 -13 -1 -29 11 -16 11 -44 25 -62 29 l-34 8 30 1 c17 0 45 -8 63 -19z
m1375 -6 l87 -17 2 -76 2 -76 3 74 4 74 37 -6 c20 -3 122 -22 226 -41 104 -20
190 -36 192 -36 2 0 4 -27 4 -60 0 -57 -1 -60 -25 -60 -24 0 -25 3 -27 63 l-2
62 -3 -57 c-4 -57 -5 -58 -33 -58 -30 0 -30 0 -32 63 l-2 62 -3 -60 -4 -60
-47 3 c-93 6 -92 4 -94 80 l-2 67 -3 -69 -4 -68 -37 5 c-20 3 -85 11 -144 18
l-108 12 -2 81 -2 81 -3 -81 c-4 -90 4 -83 -83 -69 l-35 5 3 86 c3 82 4 86 25
81 12 -3 61 -13 110 -23z m-521 4 c-15 -15 -16 -44 -2 -51 6 -3 5 -4 -2 -3
-25 5 -16 66 10 66 3 0 1 -5 -6 -12z m-866 -19 c5 -8 -1 -10 -18 -6 -25 7
-162 -7 -203 -19 -31 -10 -8 10 28 23 42 15 184 17 193 2z m2241 -16 c19 -13
23 -24 23 -67 0 -28 3 -62 7 -75 11 -42 -15 -14 -48 52 -18 34 -41 75 -52 91
l-20 28 34 -7 c18 -4 44 -14 56 -22z m356 -73 c189 -67 207 -75 207 -97 0 -12
-3 -23 -7 -23 -4 0 -103 26 -220 57 l-213 57 0 44 c0 31 4 43 13 40 6 -3 105
-38 220 -78z m-2557 45 c10 -41 -4 -89 -46 -154 -85 -132 -143 -283 -162 -422
l-12 -89 -58 0 -58 0 0 53 c0 63 15 118 67 257 33 86 63 204 63 245 0 4 -38 5
-85 2 l-86 -6 33 45 c18 25 37 49 44 55 21 17 136 37 216 38 75 1 78 0 84 -24z
m474 1 c120 -23 118 -22 71 -56 -58 -42 -106 -113 -136 -200 -20 -59 -28 -109
-37 -235 -6 -88 -12 -162 -15 -165 -2 -2 -129 -6 -282 -8 l-277 -4 8 83 c14
135 72 286 167 435 38 60 51 107 40 148 l-8 29 192 -6 c113 -3 227 -12 277
-21z m1777 -28 c-3 -8 -6 -5 -6 6 -1 11 2 17 5 13 3 -3 4 -12 1 -19z m-1444
-20 l117 -12 0 -137 0 -137 -87 -6 c-205 -16 -336 -37 -348 -56 -2 -4 20 -2
49 5 30 7 109 18 177 24 68 6 143 13 167 16 l42 5 0 -129 0 -128 -77 -6 c-79
-7 -342 -33 -420 -42 l-43 -5 0 83 c0 288 77 473 219 523 46 17 61 17 204 2z
m1245 -86 c2 -36 -1 -62 -7 -62 -5 0 -11 10 -13 21 -2 12 -13 28 -25 36 -19
13 -23 12 -42 -8 -31 -33 -29 -118 2 -155 20 -23 26 -25 44 -15 27 14 37 44
23 68 -5 10 -15 31 -20 47 -10 28 -11 28 -31 10 -20 -18 -21 -36 -4 -89 7 -20
6 -20 -9 -1 -19 24 -20 72 -3 106 17 33 39 32 55 -2 7 -16 17 -28 23 -28 5 0
9 -45 9 -104 l0 -104 -157 -6 c-87 -3 -274 -9 -416 -12 l-258 -6 3 53 c2 30 8
53 13 53 6 -1 146 -5 313 -9 l302 -7 0 81 c0 51 -4 81 -11 81 -7 0 -9 -26 -7
-75 l3 -75 -46 0 c-25 0 -67 3 -93 6 l-46 7 0 83 c0 74 2 84 18 83 9 0 68 -6
130 -13 l112 -12 0 66 0 66 68 -11 67 -11 3 -62z m202 -247 l-6 -310 -2 245
c-2 204 5 389 13 378 1 -2 -1 -142 -5 -313z m295 255 c104 -27 197 -50 206
-50 15 0 17 -14 17 -105 -1 -58 -1 -105 -2 -106 -4 -1 -387 -28 -413 -29 -32
0 -33 2 -33 38 l0 38 223 -2 c186 -1 203 -1 102 6 -66 4 -166 8 -222 9 l-103
1 0 55 c0 46 3 55 18 55 9 0 98 -11 197 -25 179 -25 233 -29 224 -20 -3 2 -93
16 -200 30 -255 34 -239 29 -239 66 0 17 3 28 8 26 10 -7 399 -87 419 -87 40
0 -6 12 -192 50 -254 52 -235 46 -235 81 0 24 4 29 18 25 9 -3 102 -28 207
-56z m-1491 44 l46 -7 0 -118 0 -119 -49 0 c-27 0 -56 -3 -65 -6 -14 -5 -16
10 -16 125 0 147 -7 137 84 125z m1082 -4 c10 0 14 -16 14 -60 0 -47 -3 -60
-15 -60 -9 0 -15 10 -15 26 0 19 -4 25 -17 22 -10 -2 -18 -12 -18 -22 0 -11
-6 -21 -13 -24 -9 -3 -12 14 -12 63 l0 68 31 -7 c17 -3 38 -6 45 -6z m-741
-40 c99 -11 195 -22 213 -25 l32 -6 0 -85 0 -86 -250 4 -250 3 0 113 0 114 38
-6 c20 -3 118 -15 217 -26z m1504 -26 c48 -14 88 -28 90 -30 2 -2 5 -32 7 -66
1 -35 0 -53 -3 -40 -2 13 -9 19 -15 16 -7 -5 -9 -1 -5 9 4 11 1 17 -8 17 -23
0 -18 17 8 25 19 5 14 9 -28 21 -69 19 -82 13 -77 -34 5 -45 15 -52 70 -52
l42 0 0 -44 0 -44 -55 -4 -55 -3 0 53 c0 28 -4 52 -9 52 -5 0 -11 20 -13 45
-2 35 0 45 12 46 8 1 -1 5 -20 10 -19 4 -41 6 -49 3 -11 -4 -11 -2 -2 10 7 8
10 20 6 26 -10 15 11 12 104 -16z m-3150 -3 c10 -18 -1 -55 -20 -67 -9 -5 -10
-1 -6 16 8 30 -8 50 -39 50 -13 0 -24 4 -24 9 0 17 80 10 89 -8z m-153 -36
c-22 -34 -21 -35 24 -35 33 0 42 4 52 25 9 20 38 36 38 21 0 -16 -14 -36 -26
-36 -8 0 -14 -5 -14 -11 0 -6 -22 -9 -55 -8 -30 1 -55 4 -55 7 0 11 35 62 43
62 5 0 2 -11 -7 -25z m62 -2 c-4 -22 -48 -31 -48 -10 0 19 10 27 32 27 13 0
18 -6 16 -17z m3175 -39 c-3 -8 -9 -14 -15 -14 -5 0 -6 5 -3 10 3 6 1 10 -4
10 -6 0 -11 -11 -11 -25 0 -20 5 -25 25 -25 24 0 25 -3 25 -55 0 -52 -1 -55
-25 -55 -22 0 -25 4 -25 34 0 18 -3 61 -6 95 l-7 62 26 -12 c15 -7 23 -17 20
-25z m-833 7 c0 -27 -17 -35 -23 -11 -5 19 0 30 15 30 4 0 8 -9 8 -19z m912
-1 c10 -23 9 -40 -2 -40 -5 0 -10 7 -10 15 0 8 -4 15 -10 15 -5 0 -10 7 -10
15 0 19 23 15 32 -5z m-832 -90 c0 -60 -4 -100 -10 -100 -6 0 -10 40 -10 100
0 60 4 100 10 100 6 0 10 -40 10 -100z m60 0 c0 -60 -4 -100 -10 -100 -6 0
-10 40 -10 100 0 60 4 100 10 100 6 0 10 -40 10 -100z m60 -5 c0 -88 -1 -95
-20 -95 -19 0 -20 7 -20 95 0 88 1 95 20 95 19 0 20 -7 20 -95z m737 53 c-3
-7 -5 -2 -5 12 0 14 2 19 5 13 2 -7 2 -19 0 -25z m93 5 c0 -14 -3 -23 -7 -19
-10 10 -11 46 -1 46 4 0 8 -12 8 -27z m59 0 c-1 -22 -2 -23 -6 -8 -3 11 -10
23 -17 27 -7 5 -5 8 7 8 12 0 17 -7 16 -27z m-3388 9 l46 -7 -44 -115 c-28
-73 -49 -145 -56 -199 l-11 -83 -90 7 c-50 4 -92 8 -92 8 -4 6 17 155 31 215
l17 73 31 -6 c30 -6 34 -3 55 37 29 57 28 65 -8 60 -18 -3 -30 0 -30 7 0 12
75 14 151 3z m2315 -38 c-3 -8 -12 -14 -20 -14 -16 0 -12 23 8 49 9 12 12 11
14 -3 2 -9 1 -24 -2 -32z m1031 24 c-3 -8 -6 -5 -6 6 -1 11 2 17 5 13 3 -3 4
-12 1 -19z m54 -31 c-6 -6 -11 -24 -11 -39 0 -26 -3 -28 -40 -28 -39 0 -40 1
-40 35 0 35 0 35 45 35 42 0 45 2 46 28 2 25 2 25 6 3 3 -13 0 -28 -6 -34z
m55 -7 c22 0 25 -4 22 -27 -3 -24 -8 -29 -37 -31 -31 -3 -33 -2 -27 20 3 13 6
39 7 58 2 30 3 31 6 8 3 -22 10 -28 29 -28z m14 35 c0 -8 -4 -15 -10 -15 -5 0
-7 7 -4 15 4 8 8 15 10 15 2 0 4 -7 4 -15z m67 -17 c-3 -8 -6 -5 -6 6 -1 11 2
17 5 13 3 -3 4 -12 1 -19z m-3649 -7 c-7 -11 -15 -18 -19 -15 -4 2 -6 -4 -5
-14 1 -12 -8 -18 -26 -20 -22 -3 -27 0 -22 13 6 14 9 14 16 3 7 -10 8 -9 4 5
-9 29 4 47 35 47 26 0 28 -2 17 -19z m3642 -36 c0 -16 -6 -25 -15 -25 -9 0
-15 9 -15 25 0 16 6 25 15 25 9 0 15 -9 15 -25z m-2130 -104 c0 -111 1 -111
-87 -111 l-43 0 0 99 0 100 48 4 c26 2 55 4 65 5 15 2 17 -9 17 -97z m30 -25
l0 -123 -61 -7 c-34 -3 -77 -6 -95 -6 l-34 0 2 128 2 127 3 -118 4 -119 77 7
c42 4 79 10 82 12 3 3 4 54 3 114 -2 66 1 109 7 109 6 0 10 -50 10 -124z m80
63 c0 -53 2 -60 18 -55 9 2 198 8 420 12 l403 6 -3 -33 -3 -34 -230 -21 c-126
-12 -315 -29 -420 -38 -104 -9 -205 -20 -222 -23 l-33 -5 0 126 0 126 35 0 35
0 0 -61z m2015 21 c-3 -5 -13 -10 -21 -10 -8 0 -12 5 -9 10 3 6 13 10 21 10 8
0 12 -4 9 -10z m-152 -17 c-3 -7 -15 -13 -27 -13 -11 0 -31 -3 -43 -6 -17 -5
-23 -2 -23 9 0 19 10 22 59 22 27 0 37 -3 34 -12z m87 5 c0 -9 4 -8 11 2 9 12
10 12 7 1 -5 -18 -18 -22 -221 -66 -183 -41 -167 -38 -167 -22 0 11 59 23 255
54 17 2 35 11 41 19 10 12 13 12 17 2 4 -8 6 -7 6 5 1 20 51 25 51 5z m-210
-17 c-10 -19 -23 -24 -107 -36 -41 -6 -43 -6 -43 19 0 28 18 34 38 14 9 -9 12
-9 12 -1 0 11 27 17 88 21 19 2 21 -1 12 -17z m-184 -19 c-5 -16 -19 -21 -79
-26 -83 -8 -299 -34 -339 -41 -26 -4 -28 -2 -28 29 l0 33 218 12 c119 7 219
15 221 17 9 8 13 -5 7 -24z m494 -36 c0 -79 -79 -185 -268 -359 -388 -359
-929 -734 -1804 -1248 l-173 -101 -661 -2 c-364 0 -662 -1 -661 0 1 0 96 43
212 94 326 144 670 299 1160 525 248 114 493 226 545 250 52 24 163 75 245
115 83 40 251 121 375 180 295 141 555 271 655 328 214 122 351 235 313 258
-7 5 -8 3 -3 -6 5 -9 4 -11 -3 -6 -7 4 -10 2 -9 -6 2 -7 2 -10 0 -6 -3 4 -26
-9 -51 -31 -63 -51 -159 -104 -173 -95 -7 4 -9 3 -6 -3 3 -5 -14 -19 -38 -30
-43 -20 -45 -20 -45 -2 0 10 -4 20 -8 23 -4 2 -7 -7 -6 -21 0 -13 6 -28 13
-32 16 -10 -10 -22 -57 -26 -27 -3 -35 1 -44 21 -6 13 -15 24 -20 24 -5 0 -7
-4 -4 -9 4 -5 -4 -7 -16 -5 -13 2 -17 2 -10 -2 6 -3 9 -11 5 -17 -4 -6 0 -8
11 -4 10 4 24 -1 35 -12 18 -18 18 -19 -6 -30 -27 -12 -62 0 -64 22 0 9 -2 8
-6 -1 -4 -10 -8 -10 -19 -1 -8 6 -11 15 -8 20 6 11 -4 11 -31 0 -17 -7 -17 -8
8 -15 15 -3 25 -11 22 -16 -4 -6 -16 -3 -31 6 -13 9 -32 14 -42 11 -9 -2 -141
-43 -292 -90 -151 -47 -387 -118 -525 -157 -137 -39 -290 -84 -340 -100 -119
-38 -406 -119 -580 -165 -77 -21 -196 -54 -265 -75 -171 -53 -250 -70 -250
-56 0 17 96 55 217 87 60 15 176 47 258 69 239 66 435 119 505 136 36 9 90 24
120 34 30 11 150 44 265 75 116 31 237 65 270 75 33 10 121 35 195 55 157 42
364 106 573 176 82 27 153 46 159 43 6 -4 9 -3 5 2 -3 5 25 22 63 38 52 22 67
33 62 45 -5 13 -3 13 12 -2 17 -17 20 -16 69 13 29 16 51 35 49 41 -1 6 2 8 7
5 5 -4 12 -2 16 4 4 6 10 8 15 5 5 -3 12 0 15 5 12 20 45 -21 45 -54z m-1180
-1 c0 -19 -4 -35 -10 -35 -5 0 -10 16 -10 35 0 19 5 35 10 35 6 0 10 -16 10
-35z m64 3 c-1 -45 -24 -49 -24 -4 0 22 5 36 13 36 7 0 12 -13 11 -32z m56 2
c0 -23 -4 -30 -20 -30 -16 0 -20 7 -20 30 0 23 4 30 20 30 16 0 20 -7 20 -30z
m910 10 c0 -5 -4 -10 -10 -10 -5 0 -10 5 -10 10 0 6 5 10 10 10 6 0 10 -4 10
-10z m-39 -13 c-1 -12 -15 -9 -19 4 -3 6 1 10 8 8 6 -3 11 -8 11 -12z m-311
-14 c0 -15 -29 -23 -193 -52 -105 -18 -204 -35 -219 -38 -26 -5 -28 -3 -28 26
0 17 3 31 7 31 5 0 143 17 358 43 66 9 75 7 75 -10z m395 -13 c-16 -16 -34
-30 -39 -30 -10 1 53 60 63 60 3 0 -8 -13 -24 -30z m-150 10 c3 -5 0 -10 -9
-10 -8 0 -17 -6 -19 -12 -3 -7 -6 -3 -6 10 -1 22 22 31 34 12z m-64 -25 c5 3
6 -1 3 -9 -8 -20 -14 -20 -30 2 -12 16 -13 15 -14 -5 0 -12 -4 -25 -10 -28
-19 -12 -10 25 12 47 20 20 23 21 26 5 2 -9 8 -15 13 -12z m-721 -24 c0 -28
-1 -29 -77 -40 -228 -34 -698 -90 -1013 -121 -113 -11 -304 -31 -425 -45 -121
-14 -245 -27 -275 -31 l-55 -5 3 48 4 49 271 27 c150 14 306 29 347 32 41 3
165 15 275 25 110 11 328 31 485 45 157 15 317 30 355 34 111 13 105 14 105
-18z m643 14 c4 -8 1 -17 -6 -21 -7 -4 -9 -4 -5 1 4 4 3 14 -3 22 -7 8 -8 13
-1 13 5 0 12 -7 15 -15z m-72 -47 c-10 -22 -10 -22 -10 5 -1 16 -5 26 -11 22
-5 -3 -10 -2 -10 3 0 17 13 21 26 7 10 -10 11 -20 5 -37z m36 38 c-3 -8 -1
-16 5 -18 7 -3 8 -10 3 -18 -7 -11 -10 -10 -16 6 -11 28 -10 44 2 44 6 0 9 -6
6 -14z m-132 -16 c-3 -5 -13 -10 -21 -10 -17 0 -37 -47 -30 -67 3 -7 -1 -13
-11 -13 -23 0 -9 60 20 82 24 19 52 24 42 8z m55 -10 c0 -5 -4 -10 -10 -10 -5
0 -10 5 -10 10 0 6 5 10 10 10 6 0 10 -4 10 -10z m-150 -39 c0 -16 -6 -33 -12
-38 -25 -20 -119 -46 -129 -36 -13 13 -1 60 17 67 18 7 18 2 -1 -34 -9 -17
-11 -30 -6 -30 5 0 19 20 31 45 18 38 26 45 51 45 16 0 29 5 29 11 0 5 5 7 10
4 6 -3 10 -19 10 -34z m96 -7 c-3 -8 -10 -14 -16 -14 -14 0 -12 47 3 53 14 5
21 -17 13 -39z m34 27 c0 -6 -4 -13 -10 -16 -5 -3 -10 1 -10 9 0 9 5 16 10 16
6 0 10 -4 10 -9z m-245 -11 c-3 -5 -10 -10 -16 -10 -5 0 -9 5 -9 10 0 6 7 10
16 10 8 0 12 -4 9 -10z m-325 -20 c-8 -5 -18 -6 -24 -3 -5 4 -1 10 10 13 24 9
34 2 14 -10z m57 -32 c-2 -13 -4 -5 -4 17 -1 22 1 32 4 23 2 -10 2 -28 0 -40z
m163 42 c0 -5 -5 -10 -11 -10 -5 0 -7 5 -4 10 3 6 8 10 11 10 2 0 4 -4 4 -10z
m60 1 c0 -6 -4 -13 -10 -16 -5 -3 -10 1 -10 9 0 9 5 16 10 16 6 0 10 -4 10 -9z
m815 -38 c-4 -20 -6 -357 -4 -747 2 -783 2 -786 -4 -792 -2 -3 -450 -6 -994
-7 l-990 -2 184 120 c471 306 882 597 1155 817 260 210 547 488 621 603 16 25
32 45 34 45 3 0 2 -17 -2 -37z m-1215 5 c0 -13 -23 -5 -28 10 -2 7 2 10 12 6
9 -3 16 -11 16 -16z m255 -30 c-10 -78 -25 -83 -25 -10 0 50 3 62 16 62 13 0
15 -8 9 -52z m115 42 c0 -5 -4 -10 -10 -10 -5 0 -10 -14 -10 -31 0 -17 -5 -39
-11 -50 -15 -29 -39 -6 -39 38 0 23 -4 32 -12 27 -7 -4 -8 -3 -4 4 13 22 26
12 27 -20 l2 -33 5 30 5 30 7 -25 8 -25 1 28 c1 15 -4 27 -11 27 -9 0 -8 4 2
10 20 13 40 13 40 0z m-509 -47 c-10 -21 -27 -64 -37 -97 -11 -33 -27 -64 -39
-72 -19 -12 -274 -84 -299 -84 -5 0 -2 8 7 18 42 46 62 165 37 213 -10 17 -7
19 32 20 24 0 97 9 163 19 172 25 159 27 136 -17z m59 27 c0 -5 -7 -7 -15 -4
-8 4 -15 8 -15 10 0 2 7 4 15 4 8 0 15 -4 15 -10z m170 -23 c0 -7 -4 -7 -12 1
-15 15 -32 16 -23 2 7 -12 3 -12 -19 -4 -23 9 -20 22 7 26 24 4 47 -8 47 -25z
m305 3 c-4 -12 -9 -19 -12 -17 -3 3 -2 15 2 27 4 12 9 19 12 17 3 -3 2 -15 -2
-27z m-266 -80 c-9 -44 -13 -51 -20 -35 -4 11 -8 31 -8 45 -1 20 1 22 9 10 8
-13 10 -12 10 3 0 9 -4 17 -10 17 -5 0 -10 7 -10 16 0 9 5 12 12 8 7 -4 8 -3
4 4 -4 7 -4 17 0 24 16 26 26 -37 13 -92z m-149 75 c-7 -8 -17 -15 -22 -15 -6
0 -5 7 2 15 7 8 17 15 22 15 6 0 5 -7 -2 -15z m-47 -2 c4 -4 -6 -12 -23 -19
-48 -21 -67 -96 -32 -127 14 -13 21 -14 30 -5 9 9 12 9 12 0 0 -7 -12 -17 -27
-23 -23 -8 -30 -7 -41 8 -38 51 39 208 81 166z m349 -19 c-3 -16 1 -30 9 -35
11 -7 10 -9 -3 -9 -13 0 -18 8 -18 28 0 24 7 42 15 42 1 0 0 -12 -3 -26z
m-2677 -5 c136 -11 623 -6 688 7 27 6 27 6 27 -44 l0 -50 -84 -7 c-122 -10
-638 1 -721 15 -94 16 -105 23 -105 66 0 33 2 35 28 30 15 -3 90 -11 167 -17z
m2581 -11 c-4 -18 -14 -40 -23 -48 -14 -14 -15 -13 -8 5 4 11 10 32 13 48 2
15 9 27 14 27 6 0 8 -13 4 -32z m-147 -25 c-3 -43 -1 -48 19 -51 12 -2 22 -8
22 -13 0 -14 -23 -11 -49 7 -20 15 -30 15 -78 4 -46 -10 -57 -10 -64 1 -25 40
-2 71 63 85 91 20 90 20 87 -33z m39 2 c1 -25 -2 -45 -7 -45 -5 0 -11 20 -13
45 -2 28 1 45 8 45 6 0 12 -20 12 -45z m-573 -47 c0 -96 -20 -128 -31 -49 -5
40 -15 61 -39 86 -30 32 -30 34 -11 38 12 3 35 4 51 3 l30 -1 0 -77z m1051 73
c-4 -5 -2 -11 4 -13 12 -4 1 -48 -12 -48 -5 0 -6 4 -3 10 3 5 1 18 -4 27 -10
18 -12 16 -15 -9 -2 -20 -34 -21 -39 -1 -3 12 -5 9 -6 -9 0 -14 4 -28 10 -30
10 -3 -129 -68 -146 -68 -3 0 -5 9 -5 20 0 21 16 28 22 9 2 -7 12 -7 31 2 20
9 24 15 15 21 -9 6 -5 7 10 3 12 -3 31 -3 42 0 16 5 18 10 10 24 -5 10 -6 21
-2 25 3 4 -2 4 -13 0 -11 -4 -25 -15 -32 -23 -11 -14 -12 -14 -13 0 0 17 76
53 91 43 5 -3 9 -1 9 5 0 5 10 12 23 14 12 2 23 5 25 6 2 0 1 -3 -2 -8z
m-1306 -45 c-6 -8 -20 -16 -30 -19 -16 -4 -20 0 -20 23 0 24 5 29 28 32 30 3
41 -14 22 -36z m1346 28 c-3 -9 -6 -20 -6 -25 0 -5 -4 -9 -9 -9 -5 0 -8 11 -7
25 0 14 7 25 15 25 8 0 11 -6 7 -16z m-1449 -31 c-3 -10 -5 -4 -5 12 0 17 2
24 5 18 2 -7 2 -21 0 -30z m1493 25 c0 -6 -3 -8 -7 -5 -3 4 -12 2 -20 -4 -8
-8 -13 -8 -13 -1 0 10 15 19 33 21 4 1 7 -4 7 -11z m-1605 -20 c-9 -31 -25
-44 -57 -52 -26 -6 -28 -4 -28 28 0 37 -4 34 78 44 9 2 11 -5 7 -20z m66 -21
c-13 -13 -15 1 -4 30 7 17 8 17 11 -1 2 -10 -1 -23 -7 -29z m26 11 c-3 -7 -5
-2 -5 12 0 14 2 19 5 13 2 -7 2 -19 0 -25z m289 -2 c24 -20 28 -32 32 -91 4
-53 2 -66 -8 -60 -9 5 -11 4 -6 -4 10 -16 -12 -41 -34 -41 -15 0 -20 12 -25
64 -4 36 -4 69 0 75 9 16 35 13 35 -4 0 -8 -4 -15 -9 -15 -6 0 -9 -18 -9 -40
0 -27 5 -40 14 -40 8 0 14 7 14 15 0 8 4 15 8 15 5 0 5 23 2 51 -11 88 -51 99
-181 48 -59 -24 -81 -38 -85 -54 -4 -18 -17 -24 -69 -34 -36 -6 -71 -14 -80
-17 -8 -3 -15 -2 -15 4 0 10 17 15 98 27 25 4 42 12 42 20 0 17 47 55 69 55 9
0 39 11 66 24 65 32 106 32 141 2z m977 -8 c-10 -49 -12 -51 -29 -34 -8 9 -27
16 -42 15 -24 0 -25 -1 -7 -9 20 -9 20 -9 0 -9 -11 0 -26 3 -34 8 -10 6 -5 11
20 17 19 4 37 7 42 6 4 -1 7 2 7 7 0 5 10 12 23 14 12 2 23 5 24 6 0 0 -1 -9
-4 -21z m-1463 1 c0 -7 -9 -9 -24 -5 -15 4 -32 -1 -49 -14 -23 -18 -28 -19
-58 -6 -36 15 -30 22 26 29 63 8 105 7 105 -4z m1283 4 c-7 -2 -19 -2 -25 0
-7 3 -2 5 12 5 14 0 19 -2 13 -5z m241 -8 c-6 -16 -24 -21 -24 -7 0 11 11 22
21 22 5 0 6 -7 3 -15z m-1845 -60 l-66 -66 -179 -24 c-99 -13 -205 -27 -236
-30 l-58 -7 0 34 c0 22 7 42 20 53 11 10 22 25 25 35 5 14 24 18 123 24 121 7
399 34 417 41 6 2 12 4 15 4 3 1 -25 -28 -61 -64z m139 56 c10 -6 8 -10 -9
-14 -26 -7 -34 -3 -24 12 7 13 15 14 33 2z m432 -1 c0 -5 -9 -10 -20 -10 -11
0 -29 -9 -40 -20 -23 -23 -38 -27 -20 -5 11 13 8 14 -21 9 -19 -4 -56 -15 -82
-25 -56 -22 -96 -24 -120 -6 -15 10 -6 12 52 13 39 0 76 5 84 12 11 10 93 31
160 41 4 0 7 -3 7 -9z m210 -11 c13 -9 12 -10 -2 -5 -11 3 -19 -2 -23 -15 -4
-10 -13 -19 -21 -19 -15 0 -12 10 9 38 12 15 18 15 37 1z m-480 -9 c0 -5 -12
-10 -26 -10 -14 0 -23 4 -19 10 3 6 15 10 26 10 10 0 19 -4 19 -10z m-1347
-16 c23 -5 26 -8 16 -20 -7 -9 -19 -12 -28 -8 -14 6 -44 10 -103 13 -12 1 -15
6 -11 17 6 16 37 15 126 -2z m1707 1 c0 -8 -8 -15 -17 -15 -16 0 -16 -2 -3
-11 12 -9 12 -10 -3 -5 -10 3 -21 6 -24 6 -4 0 2 9 12 20 22 24 35 26 35 5z
m-475 -5 c3 -5 -4 -11 -17 -12 -88 -6 -139 -5 -132 2 19 18 139 26 149 10z
m1179 1 c3 -5 -4 -11 -16 -14 -25 -7 -33 -3 -23 12 8 13 32 14 39 2z m320 -13
c-6 -10 -4 -10 7 0 18 17 34 15 19 -3 -7 -8 -19 -15 -26 -15 -8 0 -14 -6 -14
-14 0 -16 -60 -40 -71 -29 -5 5 -4 15 1 23 8 12 10 11 10 -5 0 -14 3 -16 9 -7
4 7 12 12 17 10 5 -2 11 2 12 7 9 25 24 45 33 45 6 0 7 -6 3 -12z m-2213 -17
c-9 -16 -26 -18 -164 -20 -143 -2 -154 -1 -172 19 l-18 20 182 0 c174 0 181
-1 172 -19z m949 -1 c-8 -6 -22 -10 -30 -9 -9 0 -5 6 10 14 27 14 44 10 20 -5z
m322 -3 c5 -6 7 -30 6 -52 -3 -35 -7 -40 -38 -51 -40 -13 -179 -40 -260 -49
-33 -4 -69 -17 -91 -31 -19 -13 -78 -35 -130 -48 -100 -26 -229 -43 -194 -27
11 5 30 10 43 10 29 1 28 16 -2 36 -28 19 -52 11 -60 -18 -9 -35 -7 -47 8 -47
38 0 22 -49 -21 -69 -55 -25 -103 2 -120 68 -8 32 19 110 62 177 35 55 72 78
152 94 98 21 123 22 153 10 41 -17 24 -33 -18 -18 -25 10 -42 10 -77 0 -25 -7
-55 -12 -66 -12 -28 0 -101 -52 -118 -84 -8 -14 -21 -26 -28 -26 -8 0 -12 -4
-8 -9 3 -5 1 -12 -5 -16 -5 -3 -10 -11 -10 -16 0 -5 12 -1 28 10 16 12 58 25
102 32 41 6 163 32 270 59 107 26 220 51 250 56 47 6 51 8 30 16 -22 7 -21 7
6 3 18 -2 49 -1 70 2 37 6 37 7 14 15 -19 6 -17 7 10 3 18 -3 38 -11 42 -18z
m-1797 -17 c91 -11 115 -30 115 -85 0 -41 -10 -45 -111 -45 l-79 0 0 66 c0 36
-3 63 -8 60 -4 -2 -18 2 -32 10 l-25 15 30 -5 c17 -3 66 -10 110 -16z m167 10
c11 0 17 -4 14 -8 -3 -5 -6 -43 -7 -85 -1 -42 -6 -77 -10 -77 -5 0 -9 5 -9 11
0 7 -10 9 -24 5 -14 -3 -28 -2 -31 4 -3 5 1 10 9 10 10 0 16 9 16 25 0 16 6
25 15 25 11 0 14 -7 9 -25 -4 -15 -2 -25 5 -25 6 0 11 16 11 36 0 23 -4 33
-11 28 -6 -3 -24 10 -41 30 -16 20 -44 40 -61 46 -26 8 -21 9 32 5 35 -3 73
-5 83 -5z m1258 -10 c0 -5 -5 -10 -11 -10 -5 0 -7 5 -4 10 3 6 8 10 11 10 2 0
4 -4 4 -10z m1080 0 c0 -5 -4 -10 -10 -10 -5 0 -10 5 -10 10 0 6 5 10 10 10 6
0 10 -4 10 -10z m-2623 -12 c6 -7 13 -39 17 -70 l6 -58 -32 7 c-74 14 -78 18
-78 78 l0 55 39 0 c21 0 43 -6 48 -12z m619 -32 c3 -12 4 -45 2 -72 l-3 -49
-138 -3 -139 -3 4 71 c2 51 0 70 -9 70 -9 0 -13 -20 -13 -65 0 -37 -4 -65 -10
-65 -10 0 -15 122 -5 131 2 3 72 5 154 6 149 2 151 2 157 -21z m750 9 c18 -13
17 -14 -18 -15 -21 0 -38 -5 -38 -11 0 -16 76 -3 123 21 38 20 97 27 97 12 0
-14 -376 -97 -389 -86 -10 10 68 31 97 27 30 -5 32 -4 32 25 0 24 5 32 23 35
42 8 53 7 73 -8z m-283 -40 c-11 -24 -20 -32 -28 -25 -8 7 -10 2 -8 -18 4 -24
-2 -30 -59 -59 -35 -18 -79 -35 -98 -39 -56 -10 -78 -30 -114 -102 -19 -37
-48 -85 -64 -108 -42 -58 -101 -71 -377 -86 -240 -12 -333 -4 -394 33 l-31 19
30 57 c25 50 92 162 117 199 5 7 20 15 36 18 21 5 27 3 27 -9 0 -9 16 -23 36
-31 41 -17 85 -11 124 16 14 9 41 20 61 23 31 5 39 1 62 -28 47 -59 152 -57
196 3 12 15 25 32 31 39 5 7 10 25 10 41 l0 28 183 23 c100 13 200 26 222 31
22 4 43 8 47 9 4 0 0 -15 -9 -34z m1344 6 c12 -18 9 -19 -42 -18 -56 1 -79 17
-26 17 17 0 33 5 36 10 9 15 19 12 32 -9z m-406 -14 c-13 -13 -26 -3 -16 12 3
6 11 8 17 5 6 -4 6 -10 -1 -17z m336 -15 c10 0 32 0 48 -1 23 -1 27 -3 15 -11
-13 -8 -12 -10 3 -10 25 0 21 -13 -10 -28 -24 -11 -30 -10 -47 8 -18 17 -18
20 -4 20 9 0 20 -4 23 -10 3 -5 11 -10 18 -10 7 0 6 5 -3 14 -8 8 -41 16 -72
18 -42 3 -54 2 -44 -6 7 -6 16 -19 20 -30 5 -14 2 -17 -9 -12 -8 3 -15 0 -15
-5 0 -6 -9 -9 -20 -6 -11 3 -20 1 -20 -4 0 -5 -7 -9 -16 -9 -8 0 -13 4 -9 9 5
9 -32 27 -47 23 -5 -1 -8 2 -8 7 0 5 -10 7 -22 4 -13 -3 -21 -3 -18 0 3 3 19
8 35 11 17 4 57 15 90 25 39 12 66 16 77 10 9 -5 25 -8 35 -7z m143 -4 c0 6 7
12 15 12 8 0 15 -5 15 -11 0 -5 -4 -8 -9 -4 -5 3 -12 1 -15 -4 -3 -5 -15 -7
-26 -4 -12 3 -20 0 -20 -6 0 -7 -4 -9 -10 -6 -5 3 -10 11 -10 16 0 6 4 8 8 5
4 -2 14 -1 22 4 9 6 17 5 22 -3 6 -9 8 -9 8 1z m-530 -7 c0 -23 -84 -30 -105
-9 -7 7 0 8 21 4 16 -4 41 -2 55 3 13 5 25 10 27 10 1 1 2 -3 2 -8z m364 -38
c9 -33 -23 -59 -39 -33 -3 6 1 10 10 10 11 0 14 6 9 25 -3 14 -2 25 4 25 5 0
13 -12 16 -27z m-485 13 c-10 -9 -137 -56 -152 -56 -17 0 -51 29 -43 38 3 2
13 -1 21 -8 12 -10 21 -10 38 -1 12 6 37 13 56 16 18 2 36 6 39 9 3 3 14 6 25
6 11 0 18 -2 16 -4z m274 -17 c12 -7 34 -12 49 -11 15 0 28 -4 28 -9 0 -5 -5
-8 -11 -6 -6 1 -13 -3 -16 -10 -3 -8 6 -10 27 -8 21 3 28 1 24 -7 -5 -8 -1 -9
10 -5 10 4 15 3 11 -4 -4 -5 -16 -7 -28 -3 -12 4 -43 8 -69 10 -51 2 -73 -12
-58 -36 9 -14 12 -11 9 6 -1 8 22 24 35 24 4 0 6 -7 2 -15 -7 -18 5 -20 22 -3
9 9 12 9 12 0 0 -17 -37 -35 -42 -20 -3 7 -13 3 -27 -11 -12 -12 -26 -20 -29
-16 -4 3 -1 9 5 13 7 4 8 13 4 20 -6 10 -14 10 -36 2 -21 -8 -25 -14 -17 -22
7 -7 12 -16 12 -22 0 -5 -7 -1 -15 10 -14 18 -14 18 -15 -6 -1 -23 -2 -23 -10
-5 -14 32 -12 48 5 41 8 -3 15 -1 15 4 0 6 7 10 16 10 18 0 43 27 44 48 0 6
-7 12 -15 12 -21 0 -19 18 3 23 29 8 33 7 55 -4z m237 -4 c7 -9 8 -15 2 -15
-5 0 -12 7 -16 15 -3 8 -4 15 -2 15 2 0 9 -7 16 -15z m-2319 -34 c-10 -14 -33
-51 -53 -81 -19 -30 -45 -71 -57 -90 l-23 -35 5 36 c3 20 20 71 37 113 33 78
54 98 92 88 16 -4 16 -6 -1 -31z m172 26 c54 -14 61 -28 19 -40 -33 -9 -66 -2
-92 20 -38 33 -8 41 73 20z m1392 6 c-10 -3 -29 -12 -42 -20 -26 -18 -30 -12
-7 11 8 9 27 15 42 15 21 -1 22 -2 7 -6z m-601 -110 c-25 -54 -54 -107 -64
-117 -12 -12 -52 -25 -112 -37 -51 -10 -94 -16 -96 -14 -8 8 46 34 95 45 29 6
57 18 64 26 7 8 22 45 34 82 20 62 25 69 66 89 24 12 47 22 51 22 4 1 -13 -43
-38 -96z m1064 88 c1 -1 2 -6 2 -12 0 -5 -4 -8 -9 -5 -5 4 -11 2 -13 -3 -1 -5
-10 -11 -18 -13 -8 -2 -18 -7 -21 -12 -4 -5 -15 -5 -25 -1 -16 6 -14 9 16 21
31 13 32 14 5 8 -16 -4 -40 -7 -52 -8 -12 -1 -24 -4 -28 -8 -4 -4 -14 -4 -23
-1 -13 3 -12 1 3 -13 18 -15 18 -16 2 -10 -10 3 -25 6 -33 6 -8 0 -14 4 -14
10 0 8 55 24 85 25 6 0 16 6 24 13 12 11 51 12 99 3z m-435 -14 c21 4 28 3 23
-5 -4 -7 -18 -12 -30 -12 -13 0 -43 -7 -66 -15 -64 -22 -70 -18 -20 14 25 16
49 25 54 20 5 -4 22 -5 39 -2z m651 4 c3 -4 -6 -6 -19 -3 -14 2 -25 6 -25 8 0
8 39 4 44 -5z m-1709 -12 c8 -9 -51 -29 -82 -29 -27 0 -63 16 -63 29 0 9 135
9 145 0z m915 -19 c-8 -5 -22 -10 -30 -10 -13 0 -13 1 0 10 8 5 22 10 30 10
13 0 13 -1 0 -10z m-588 -80 c-19 -54 -20 -55 -80 -76 -34 -12 -62 -21 -62
-20 0 1 18 35 39 76 35 66 44 75 78 85 47 14 49 7 25 -65z m934 73 c-9 -10 73
-33 91 -26 11 4 14 2 11 -8 -4 -11 -24 -13 -87 -12 -44 1 -81 -1 -81 -6 0 -4
13 -6 29 -3 24 3 29 1 27 -14 -2 -12 -12 -20 -27 -21 -15 -1 -17 0 -6 3 9 3
17 10 17 15 0 12 -17 12 -25 -1 -3 -6 -18 -7 -33 -4 -18 5 -24 3 -17 -4 6 -5
19 -12 30 -15 15 -4 13 -5 -7 -6 -31 -1 -33 -17 -4 -41 17 -15 17 -17 3 -23
-11 -4 -17 -1 -17 9 0 8 -4 12 -10 9 -6 -4 -10 10 -10 34 0 23 -5 41 -11 41
-5 0 -8 4 -4 9 3 5 0 13 -6 17 -8 4 -9 3 -5 -4 4 -7 1 -12 -8 -12 -8 0 -17 4
-20 8 -3 5 34 20 82 34 48 14 89 26 91 27 2 0 1 -2 -3 -6z m137 -7 c4 -10 0
-12 -14 -9 -27 7 -34 23 -11 23 11 0 22 -6 25 -14z m234 8 c-3 -3 -12 -4 -19
-1 -8 3 -5 6 6 6 11 1 17 -2 13 -5z m-772 -24 c-4 -7 3 -9 22 -5 21 5 24 4 13
-4 -31 -22 -96 -11 -73 12 11 11 45 8 38 -3z m-175 -10 c-8 -5 -19 -10 -25
-10 -5 0 -3 5 5 10 8 5 20 10 25 10 6 0 3 -5 -5 -10z m120 -9 c0 -4 -26 -14
-57 -20 -32 -6 -68 -14 -81 -17 -17 -5 -21 -3 -16 9 9 25 154 52 154 28z m600
5 c0 -2 -7 -6 -15 -10 -8 -3 -15 -1 -15 4 0 6 7 10 15 10 8 0 15 -2 15 -4z
m-283 -45 c15 -10 12 -11 -17 -8 -19 2 -27 2 -17 0 9 -2 17 -9 17 -14 0 -6 4
-8 9 -5 15 10 24 -46 9 -56 -8 -6 -4 -7 12 -3 20 6 23 5 13 -5 -20 -22 -46 -4
-38 27 6 24 5 25 -10 13 -23 -19 -38 -20 -82 -4 -28 10 -32 13 -15 14 13 0 32
-5 43 -10 15 -9 19 -7 19 7 0 15 2 16 10 3 5 -8 12 -11 15 -8 10 10 -4 28 -21
28 -8 0 -14 -4 -14 -10 0 -5 -4 -10 -10 -10 -7 0 -8 48 -1 67 2 4 61 -16 78
-26z m253 13 c0 -16 -27 -43 -42 -44 -17 0 -7 49 10 53 30 8 32 7 32 -9z m37
1 c0 -18 -19 -15 -25 3 -2 7 3 12 11 12 7 0 14 -7 14 -15z m-957 -5 c0 -5 5
-10 10 -10 6 0 23 -11 38 -25 33 -31 23 -32 -28 -2 -37 20 -53 47 -30 47 6 0
10 -4 10 -10z m570 -15 c0 -26 -1 -26 -62 -20 -35 3 -56 2 -48 -1 8 -3 29 -12
47 -20 17 -8 37 -14 45 -14 24 0 29 -12 11 -25 -16 -12 -16 -14 1 -30 9 -10
15 -20 12 -23 -8 -8 -47 29 -41 39 3 4 1 10 -5 14 -6 4 -8 11 -5 16 3 5 -1 6
-9 3 -13 -5 -110 10 -146 23 -8 2 16 13 55 23 38 10 76 15 84 12 9 -3 12 -1 7
6 -5 9 2 12 47 21 4 0 7 -10 7 -24z m290 14 c0 -11 -21 -11 -39 0 -9 6 -5 9
13 9 14 0 26 -4 26 -9z m-7 -33 c3 -7 -1 -13 -9 -13 -7 0 -11 4 -8 9 3 4 0 8
-5 8 -6 0 -11 4 -11 10 0 13 27 2 33 -14z m-38 -11 c0 -10 -6 -20 -13 -23 -8
-2 -10 2 -5 13 5 14 2 16 -18 10 -13 -4 -27 -12 -30 -18 -4 -5 -12 -6 -19 -2
-8 5 -5 11 9 22 12 8 25 12 30 8 5 -3 13 -1 16 5 10 16 30 6 30 -15z m-811
-14 c16 -6 12 -10 -23 -18 -42 -11 -42 -11 -25 8 19 21 20 21 48 10z m362 -22
c0 -10 -6 -21 -13 -23 -7 -3 -13 -1 -13 4 0 5 -6 8 -12 6 -42 -13 -69 -16 -63
-6 3 5 -1 10 -9 10 -18 0 -18 -2 -10 -23 3 -9 13 -13 27 -10 17 4 19 3 11 -6
-16 -17 -67 -3 -60 16 4 11 1 13 -14 8 -11 -4 -20 -2 -20 4 0 17 73 33 82 18
6 -9 11 -8 18 5 15 24 76 22 76 -3z m69 -3 c16 -12 17 -16 6 -30 -7 -9 -20
-16 -27 -16 -24 0 -15 -25 10 -26 18 -1 22 2 19 17 -4 15 0 19 23 20 16 1 22
3 12 6 -16 4 -34 33 -20 33 18 -1 33 -19 38 -46 3 -19 1 -24 -5 -15 -6 9 -11
10 -15 2 -11 -17 17 -23 47 -12 15 6 27 7 27 3 0 -4 -16 -12 -35 -18 -19 -6
-35 -7 -35 -3 0 5 -5 9 -11 9 -5 0 -7 -5 -3 -12 5 -8 0 -9 -14 -6 -14 4 -22 2
-22 -7 0 -7 -9 -15 -20 -18 -26 -7 -25 -3 2 23 21 19 21 20 3 19 -11 -1 -28
-1 -39 -1 -15 2 -16 5 -6 17 7 9 10 18 7 22 -4 3 -9 -2 -13 -11 -8 -21 -34
-21 -35 2 -1 16 -2 16 -6 0 -5 -19 -33 -25 -33 -8 0 6 6 10 13 10 8 0 7 4 -3
11 -11 7 -3 8 28 4 27 -5 42 -3 42 4 0 6 5 11 11 11 5 0 7 -4 4 -10 -7 -12 -3
-12 19 -4 18 7 22 34 5 34 -5 0 -7 -5 -3 -12 5 -8 2 -9 -10 -5 -10 4 -20 7
-22 7 -3 0 -2 5 1 10 9 14 38 12 60 -4z m204 -20 c8 -10 9 -16 1 -21 -5 -3
-10 -2 -10 4 0 7 -8 7 -24 1 -23 -8 -36 -5 -36 11 0 7 21 15 46 18 6 0 17 -5
23 -13z m-462 -2 c-3 -3 -12 -4 -19 -1 -8 3 -5 6 6 6 11 1 17 -2 13 -5z m11
-18 c9 0 23 -7 30 -13 7 -7 24 -13 36 -13 13 0 30 -7 37 -16 11 -14 10 -19
-10 -35 -28 -23 -41 -24 -41 -4 0 8 6 15 14 15 8 0 18 4 21 10 4 7 -3 7 -19 0
-19 -7 -44 -5 -87 6 -50 13 -66 13 -84 4 -13 -7 -28 -9 -34 -6 -6 4 -11 5 -11
1 0 -3 10 -10 23 -15 15 -6 5 -7 -36 -4 -32 2 -66 8 -75 13 -15 8 -13 11 13
21 16 6 44 9 62 5 26 -5 32 -3 27 8 -6 17 58 37 94 30 12 -3 30 -6 40 -7z
m342 -6 c0 -5 -4 -10 -10 -10 -5 0 -10 5 -10 10 0 6 5 10 10 10 6 0 10 -4 10
-10z m-144 -43 c2 -2 1 -12 -2 -22 -7 -17 -8 -16 -15 3 -5 12 -14 22 -20 22
-8 0 -8 -4 -1 -12 8 -10 4 -13 -13 -13 -15 0 -26 7 -29 19 -4 16 0 18 35 13
23 -3 43 -7 45 -10z m-1438 -53 c49 -10 59 -17 34 -22 -27 -4 -82 16 -82 29 0
5 -6 9 -14 9 -16 0 -38 24 -30 33 4 4 20 -5 36 -18 16 -14 42 -28 56 -31z
m1271 22 c9 -11 8 -15 -5 -20 -29 -11 -38 -6 -18 10 18 15 18 15 -3 9 -14 -4
-23 -2 -23 4 0 16 36 13 49 -3z m131 -6 c8 -5 11 -12 7 -17 -5 -4 -12 -1 -16
6 -7 10 -13 8 -30 -11 -16 -16 -20 -18 -16 -5 6 14 3 16 -11 11 -13 -5 -16 -4
-9 4 8 8 25 15 55 21 3 0 12 -3 20 -9z m-565 -10 c-3 -5 -18 -11 -33 -11 -25
-2 -25 -2 -3 -6 13 -3 37 -13 53 -23 16 -10 38 -15 49 -13 11 3 19 0 19 -7 0
-7 -7 -10 -15 -6 -19 7 -19 -8 0 -28 10 -9 11 -17 5 -21 -6 -3 -18 7 -28 24
-20 35 -40 43 -63 24 -22 -19 -57 -25 -101 -17 -29 4 -35 9 -31 22 6 14 4 15
-9 4 -16 -13 -48 -7 -48 9 0 4 17 12 38 17 20 5 62 16 92 25 68 18 83 20 75 7z
m349 -9 c3 -4 26 -14 51 -21 32 -9 42 -16 33 -21 -21 -14 -48 -10 -48 6 0 8
-4 15 -10 15 -5 0 -10 -7 -10 -16 0 -8 -4 -12 -10 -9 -5 3 -10 16 -10 27 0 28
-13 15 -16 -17 -2 -20 2 -25 19 -25 17 0 19 -2 8 -9 -8 -5 -20 -7 -27 -4 -6 2
-15 0 -19 -6 -11 -19 -22 -12 -22 15 0 16 4 23 12 20 8 -3 15 7 19 25 5 28 19
38 30 20z m119 -7 c12 -13 -3 -21 -28 -17 -13 3 -22 9 -19 14 6 10 38 12 47 3z
m-1414 -44 c11 -6 10 -8 -3 -13 -9 -4 -16 -2 -16 3 0 6 -8 10 -17 10 -14 0
-15 -2 -5 -9 11 -7 11 -9 -2 -14 -12 -5 -15 0 -14 18 2 25 17 26 57 5z m86 10
c3 -5 -1 -10 -9 -10 -9 0 -16 5 -16 10 0 6 4 10 9 10 6 0 13 -4 16 -10z m697
-32 c31 -13 63 -29 70 -35 7 -6 30 -13 52 -16 21 -3 41 -9 44 -12 9 -9 -19
-25 -44 -25 -11 0 -29 -7 -40 -15 -10 -8 -14 -15 -9 -14 6 1 21 -3 35 -9 14
-6 18 -11 10 -11 -8 -1 -32 8 -53 19 -20 11 -37 16 -37 10 0 -5 5 -10 11 -10
8 0 8 -5 -1 -15 -11 -13 -8 -14 21 -9 25 4 30 3 19 -4 -8 -6 -17 -9 -21 -6 -4
2 -10 0 -14 -6 -11 -17 -23 -11 -27 13 -2 17 -8 21 -27 19 -16 -3 -21 0 -16 8
5 8 3 11 -6 8 -8 -3 -15 -13 -17 -24 -2 -10 -17 -29 -34 -41 -29 -20 -32 -21
-55 -6 -16 11 -22 21 -18 34 8 24 -1 24 -28 -1 -15 -15 -29 -19 -49 -15 -18 4
-28 2 -28 -5 0 -12 -61 -41 -91 -43 -22 -2 -26 -17 -4 -17 8 0 15 -4 15 -10 0
-13 -13 -13 -27 1 -6 6 -16 8 -22 4 -14 -8 -3 -28 12 -22 7 2 26 -1 44 -8 26
-11 32 -11 37 1 7 18 26 18 26 0 0 -8 -12 -17 -27 -20 -16 -4 -36 -9 -45 -12
-13 -4 -16 -1 -12 10 5 12 2 15 -10 10 -9 -3 -13 -11 -10 -16 4 -6 0 -14 -7
-19 -19 -12 -29 -11 -29 1 0 6 7 10 15 10 17 0 16 18 -2 38 -18 19 -16 30 7
42 26 14 25 24 -2 38 -14 6 -17 11 -8 11 19 1 36 -10 43 -29 4 -12 6 -11 6 3
1 10 10 18 24 19 42 2 46 3 54 11 4 5 8 14 8 20 0 5 6 12 14 15 8 3 11 0 8 -5
-3 -5 5 -9 18 -8 26 0 48 15 22 15 -25 0 -9 27 19 33 20 3 24 1 19 -11 -5 -14
-4 -14 12 0 10 8 23 14 29 11 7 -2 10 5 7 22 -3 15 -1 25 7 25 6 0 10 -6 7
-12 -2 -7 3 -18 12 -25 14 -11 14 -12 -1 -13 -10 0 -18 -5 -18 -11 0 -5 -4 -8
-9 -4 -5 3 -12 1 -16 -5 -3 -5 2 -10 12 -10 14 -1 13 -3 -6 -14 -24 -13 -24
-14 -4 -24 24 -13 33 -7 33 25 0 13 5 23 11 23 5 0 7 -4 4 -10 -9 -15 4 -12
20 4 8 7 11 16 8 20 -4 3 3 6 15 6 11 0 23 -4 27 -10 3 -5 12 -7 21 -3 13 5
12 7 -2 18 -15 11 -15 13 7 28 13 10 30 17 38 17 19 0 6 13 -17 16 -9 2 -42
12 -72 23 -30 11 -66 20 -80 20 -14 -1 4 -9 40 -19 95 -26 103 -30 89 -46 -16
-20 -43 -17 -92 8 -56 28 -100 32 -158 13 -47 -16 -75 -13 -64 6 4 5 18 9 32
9 34 0 103 20 128 37 26 18 76 12 147 -19z m188 1 c0 -5 -4 -7 -10 -4 -5 3
-10 1 -10 -4 0 -6 -7 -11 -15 -11 -18 0 -20 16 -2 23 21 9 37 7 37 -4z m90 2
c0 -14 -18 -23 -30 -16 -6 4 -8 11 -5 16 8 12 35 12 35 0z m30 -11 c0 -5 7
-10 15 -10 8 0 15 -4 15 -10 0 -5 7 -10 15 -10 9 0 12 6 8 17 -5 13 -2 15 18
9 13 -4 33 -8 44 -8 18 0 18 -1 -3 -11 -18 -8 -25 -8 -33 4 -7 12 -9 11 -9 -2
0 -9 -17 -23 -41 -32 -36 -14 -39 -14 -28 0 11 13 10 17 -4 28 -19 13 -23 35
-7 35 6 0 10 -4 10 -10z m-1520 -19 c0 -5 -13 -14 -30 -20 -16 -5 -30 -7 -30
-4 0 4 -6 -1 -13 -11 -12 -16 -14 -16 -26 -2 -11 13 -10 17 10 25 54 20 89 25
89 12z m1432 -13 c10 -10 27 -18 37 -18 11 0 23 -5 27 -11 5 -9 -1 -10 -22 -4
-16 4 -35 8 -43 9 -8 2 -20 11 -29 22 -14 18 -14 18 -9 -3 4 -18 2 -20 -12
-12 -9 5 -34 16 -56 23 l-40 14 65 -2 c47 -1 70 -6 82 -18z m-1402 2 c0 -5 -2
-10 -4 -10 -3 0 -8 5 -11 10 -3 6 -1 10 4 10 6 0 11 -4 11 -10z m1014 -5 c-4
-9 -1 -15 7 -15 9 0 10 -3 3 -10 -16 -16 -92 -16 -106 -2 -11 11 -10 12 5 7
12 -5 17 -2 17 9 0 9 7 16 15 16 13 0 14 -4 5 -20 -13 -24 -5 -26 16 -5 9 8
12 19 9 25 -3 5 3 10 14 10 14 0 19 -5 15 -15z m35 -12 c0 -25 -1 -25 -8 -8
-5 11 -7 23 -4 28 8 14 13 7 12 -20z m426 15 c5 4 5 2 1 -5 -8 -14 -36 -6 -36
9 0 7 5 6 13 -1 8 -6 18 -7 22 -3z m-515 -69 c0 -12 -64 -17 -93 -7 -19 7 -32
7 -42 -2 -12 -10 -22 -9 -49 4 -39 18 -72 21 -81 6 -3 -5 -14 -10 -24 -10 -10
0 -24 -6 -30 -14 -10 -11 -6 -16 16 -24 15 -6 23 -11 16 -11 -6 -1 -24 4 -38
9 -18 7 -33 7 -46 0 -10 -6 -19 -7 -19 -2 0 5 -11 7 -25 4 -16 -3 -25 0 -25 8
0 9 11 11 35 7 21 -3 33 -2 30 4 -9 13 -59 11 -73 -3 -6 -6 -15 -9 -19 -5 -14
15 14 26 76 30 35 3 68 10 74 16 7 7 15 7 24 -1 10 -8 12 -7 8 4 -5 11 14 19
82 34 l87 20 58 -29 c32 -17 58 -34 58 -38z m-950 41 c22 -14 -12 -24 -63 -17
-23 2 -36 3 -29 0 13 -5 7 -23 -9 -23 -13 0 -11 24 3 38 14 14 77 16 98 2z
m1116 -5 c18 -9 23 -15 12 -15 -24 0 -48 11 -48 21 0 12 3 12 36 -6z m300 -14
c-4 -5 -26 -16 -52 -25 -36 -12 -50 -13 -71 -3 -26 11 -25 12 28 22 75 15 101
16 95 6z m-1536 -10 c0 -11 -26 -22 -34 -14 -12 12 -5 23 14 23 11 0 20 -4 20
-9z m810 -31 c-13 -8 -12 -10 3 -10 9 0 17 -4 17 -9 0 -11 -41 -8 -61 5 -11 6
-8 10 11 15 37 10 47 10 30 -1z m94 -4 c22 -11 24 -15 11 -20 -9 -3 -31 -5
-48 -5 l-32 1 30 8 30 8 -32 1 c-18 0 -33 6 -33 11 0 14 43 12 74 -4z m80 4
c31 -11 33 -26 6 -33 -13 -3 -18 -1 -14 6 5 8 2 7 -7 0 -7 -7 -22 -12 -33 -12
-18 1 -18 2 -3 6 9 2 15 9 12 14 -6 8 2 29 10 29 2 0 15 -4 29 -10z m-394 -20
c0 -5 8 -10 18 -10 15 0 15 -2 2 -11 -11 -8 -7 -9 17 -4 39 8 54 -11 19 -25
-31 -11 -53 -4 -61 19 -3 9 -15 17 -27 18 -21 2 -21 1 -6 -11 14 -11 9 -14
-40 -25 -31 -7 -62 -15 -68 -17 -12 -5 -44 21 -44 35 0 11 98 29 108 19 5 -5
14 -2 22 7 14 17 60 21 60 5z m680 0 c0 -5 -4 -10 -10 -10 -5 0 -10 5 -10 10
0 6 5 10 10 10 6 0 10 -4 10 -10z m26 -5 c-3 -20 -16 -31 -46 -40 -22 -7 -23
-6 -8 9 9 9 24 16 32 16 10 0 13 6 10 15 -4 8 -2 15 4 15 6 0 9 -7 8 -15z
m-513 -32 c35 -18 34 -23 -5 -23 -25 0 -29 3 -18 10 11 7 4 10 -27 10 -41 0
-57 13 -30 23 15 6 42 -1 80 -20z m42 7 c-3 -5 -2 -10 4 -10 5 0 13 5 16 10
11 17 23 11 18 -9 -4 -17 -9 -18 -34 -9 -31 11 -39 28 -13 28 8 0 12 -4 9 -10z
m299 1 c4 -5 -3 -7 -14 -4 -23 6 -26 13 -6 13 8 0 17 -4 20 -9z m8 -15 c34 -1
49 -16 17 -17 -22 0 -23 -1 -4 -9 20 -9 20 -9 0 -9 -12 -1 -25 -5 -30 -10 -16
-15 -85 -25 -85 -12 0 6 9 10 21 8 12 -1 27 7 36 20 13 20 13 21 -6 16 -11 -3
-19 -9 -16 -13 10 -16 -12 -19 -31 -5 -25 19 -32 19 -30 -2 0 -12 -7 -19 -21
-21 -33 -5 -28 15 9 38 31 18 54 18 43 -1 -10 -15 11 -10 24 5 9 11 9 15 -1
19 -7 2 1 2 17 -1 17 -2 42 -5 57 -6z m-396 -21 c11 -7 32 -11 47 -8 22 4 27
2 27 -15 0 -16 -10 -24 -37 -31 -54 -15 -63 -14 -85 14 -11 14 -26 25 -34 25
-19 0 -18 10 4 26 18 14 44 10 78 -11z m162 13 c-6 -18 -28 -21 -28 -4 0 9 7
16 16 16 9 0 14 -5 12 -12z m322 3 c0 -5 -7 -12 -16 -15 -24 -9 -28 -7 -14 9
14 17 30 20 30 6z m-870 -11 c-20 -13 -43 -13 -35 0 3 6 16 10 28 10 18 0 19
-2 7 -10z m275 -17 c30 -15 55 -30 55 -33 0 -4 -27 -14 -60 -24 l-61 -16 -47
31 c-59 41 -56 38 -49 45 7 7 63 21 89 23 10 1 42 -11 73 -26z m-205 -4 c0 -5
3 -8 8 -5 9 6 84 -45 90 -61 4 -15 -34 -18 -43 -3 -3 6 -1 10 4 10 6 0 11 4
11 9 0 8 -56 25 -72 22 -4 0 -12 8 -18 19 -9 16 -8 20 5 20 8 0 15 -5 15 -11z
m438 -1 c-7 -19 -38 -22 -38 -4 0 10 9 16 21 16 12 0 19 -5 17 -12z m26 -34
c8 -21 -11 -44 -35 -44 -10 0 -21 -5 -24 -10 -4 -7 3 -9 22 -5 38 7 8 -6 -75
-32 -44 -14 -72 -18 -90 -13 l-27 8 27 1 c20 1 26 5 22 16 -4 9 0 15 10 15 10
0 13 -6 10 -15 -4 -8 -2 -15 4 -15 6 0 12 5 14 11 2 6 15 12 30 12 14 1 24 5
21 10 -2 4 0 7 5 7 6 0 12 7 16 15 8 21 -6 19 -32 -5 -12 -11 -27 -20 -34 -19
-10 0 -10 2 0 6 6 2 9 9 6 14 -3 6 -11 5 -20 -2 -17 -14 -29 -6 -19 11 4 7 18
10 31 7 13 -2 24 0 24 5 0 6 7 8 15 4 8 -3 15 -1 15 4 0 14 28 12 32 -2 6 -16
35 -19 35 -3 0 7 -6 11 -14 8 -13 -5 -18 9 -6 20 12 12 31 7 37 -9z m-424 -24
c8 -16 6 -24 -11 -41 -12 -12 -29 -19 -40 -16 -10 3 -19 1 -19 -3 0 -5 -13 -8
-28 -8 -15 1 -37 -4 -49 -10 -11 -6 -23 -8 -27 -5 -11 11 -6 43 7 43 6 0 22 3
35 6 13 4 22 2 22 -5 0 -6 -7 -11 -17 -11 -9 0 -13 -3 -10 -7 4 -3 17 -1 30 5
12 6 36 15 52 20 34 10 45 38 18 45 -14 4 -14 5 4 6 13 1 27 -7 33 -19z m240
-4 c0 -8 -7 -19 -15 -26 -13 -11 -13 -15 -3 -21 10 -7 9 -9 -4 -9 -10 0 -18 6
-18 14 0 9 -12 13 -38 11 -27 -2 -39 2 -39 11 0 8 7 14 16 15 9 0 32 6 51 13
38 14 50 12 50 -8z m-554 -15 c-9 -14 -66 -15 -66 -1 0 6 5 11 10 11 6 1 14 2
19 3 5 0 13 4 17 9 11 10 28 -9 20 -22z m284 9 c0 -5 -7 -10 -15 -10 -8 0 -15
5 -15 10 0 6 7 10 15 10 8 0 15 -4 15 -10z m-214 -30 c0 -23 -2 -27 -13 -18
-7 6 -11 13 -8 16 3 3 -5 12 -17 19 -23 12 -22 12 8 13 27 0 30 -3 30 -30z
m344 19 c11 -8 12 -12 3 -16 -23 -9 -14 -24 10 -18 18 5 24 2 24 -10 0 -10 -6
-14 -16 -10 -9 4 -37 11 -63 17 -55 13 -66 33 -13 25 20 -3 37 -1 41 5 4 7 2
8 -4 4 -7 -4 -12 -2 -12 3 0 14 11 14 30 0z m-380 -19 c0 -5 -9 -10 -21 -10
-11 0 -18 -4 -15 -9 3 -4 16 -6 29 -4 26 5 45 -23 28 -40 -11 -11 -34 0 -26
13 3 4 -1 8 -8 7 -43 -1 -57 4 -57 22 0 18 13 25 58 30 6 0 12 -3 12 -9z m-84
-16 c-3 -9 -6 -20 -6 -25 0 -5 -11 -9 -25 -9 -25 0 -25 1 -9 25 18 28 50 35
40 9z m534 6 c0 -6 9 -21 21 -33 l20 -22 -56 -17 c-54 -16 -95 -15 -95 3 0 5
8 9 18 10 11 0 12 2 4 6 -7 3 -19 0 -26 -7 -8 -6 -17 -7 -20 -2 -7 13 4 22 26
22 10 0 18 4 18 10 0 5 7 7 15 4 8 -4 12 -11 8 -17 -4 -7 0 -8 11 -4 10 4 30
8 44 8 17 1 21 3 10 6 -19 5 -25 43 -8 43 6 0 10 -5 10 -10z m-180 -15 c-7 -9
-10 -19 -6 -23 4 -4 12 1 17 11 11 18 44 23 54 7 3 -5 -15 -15 -40 -21 -25 -6
-48 -15 -51 -20 -3 -5 -12 -9 -21 -9 -10 0 -13 6 -8 18 5 13 4 14 -6 5 -10
-10 -7 -18 14 -37 14 -13 28 -21 31 -18 3 3 6 -3 6 -12 0 -12 -5 -16 -15 -12
-8 3 -18 -2 -23 -10 -5 -9 -21 -17 -35 -17 -15 -1 -27 -5 -27 -9 0 -5 -5 -8
-11 -8 -5 0 -7 5 -3 11 4 7 7 21 8 33 1 14 9 22 24 24 25 4 30 -15 7 -24 -8
-4 -15 -10 -15 -14 0 -5 11 -3 24 3 25 12 28 29 8 49 -7 7 -12 18 -12 26 0 7
-5 10 -10 7 -6 -4 -8 -11 -5 -16 4 -5 -5 -4 -19 3 -14 6 -26 14 -26 18 0 12
54 19 61 8 4 -7 9 -6 13 1 4 6 11 9 16 6 5 -3 18 3 30 15 23 23 38 27 20 5z
m-440 -5 c0 -5 -4 -10 -10 -10 -5 0 -10 5 -10 10 0 6 5 10 10 10 6 0 10 -4 10
-10z m40 6 c0 -2 -7 -9 -15 -16 -12 -10 -15 -10 -15 4 0 9 7 16 15 16 8 0 15
-2 15 -4z m-59 -34 c6 -16 5 -22 -5 -22 -19 0 -39 27 -31 40 10 16 27 7 36
-18z m39 -2 c12 -8 11 -10 -7 -10 -13 0 -23 5 -23 10 0 13 11 13 30 0z m105
-1 c-4 -6 -13 -8 -21 -5 -8 3 -14 1 -14 -4 0 -6 7 -10 16 -10 9 0 12 -5 8 -12
-4 -6 -3 -8 4 -4 6 3 13 2 16 -3 3 -5 0 -11 -8 -14 -19 -7 -28 -47 -11 -47 8
0 25 -10 37 -23 24 -24 51 -26 42 -4 -3 8 13 13 51 15 30 2 55 -1 55 -6 0 -14
-53 -22 -67 -10 -7 6 -13 8 -13 4 0 -17 -3 -22 -15 -29 -22 -12 -64 3 -70 25
-5 14 -10 16 -20 8 -7 -6 -20 -8 -29 -4 -11 4 -16 1 -16 -10 0 -9 -4 -16 -10
-16 -12 0 -13 17 -1 24 11 7 2 46 -10 46 -5 0 -9 7 -9 16 0 12 4 14 13 6 7 -5
21 -6 32 -1 19 7 19 8 -2 8 -22 1 -34 21 -13 21 6 0 10 9 10 20 0 15 7 20 26
20 15 0 23 -4 19 -11z m-55 -8 c0 -5 -7 -11 -15 -15 -9 -3 -15 0 -15 9 0 8 7
15 15 15 8 0 15 -4 15 -9z m95 -5 c14 -13 10 -26 -7 -26 -5 0 -6 5 -3 10 3 6
-1 10 -10 10 -9 0 -13 5 -10 10 8 13 14 13 30 -4z m298 -17 c-46 -19 -74 -2
-30 18 15 7 26 7 35 0 11 -9 11 -12 -5 -18z m-433 -5 c0 -9 -7 -14 -17 -12
-25 5 -28 28 -4 28 12 0 21 -6 21 -16z m292 -6 c-12 -12 -35 -1 -27 12 3 5 13
6 21 3 10 -4 12 -9 6 -15z m198 -3 c0 -2 -7 -5 -15 -9 -9 -3 -15 0 -15 9 0 9
6 12 15 9 8 -4 15 -7 15 -9z m-50 -10 c0 -8 -7 -15 -15 -15 -26 0 -18 20 13
29 1 1 2 -6 2 -14z m-170 -5 c0 -5 -4 -10 -10 -10 -5 0 -10 5 -10 10 0 6 5 10
10 10 6 0 10 -4 10 -10z m-152 -12 c-2 -6 -10 -14 -16 -16 -7 -2 -10 2 -6 12
7 18 28 22 22 4z m122 -6 c0 -15 -7 -19 -35 -18 -44 1 -46 23 -2 29 17 2 33 5
35 5 1 1 2 -6 2 -16z m-85 -21 c-2 -9 -4 -20 -4 -26 -1 -5 -8 -2 -17 7 -18 18
-13 35 9 35 8 0 13 -7 12 -16z m125 9 c0 -5 -7 -10 -15 -10 -8 0 -15 5 -15 10
0 6 7 10 15 10 8 0 15 -4 15 -10z m-161 -70 c9 -5 6 -9 -13 -14 -31 -8 -50 0
-40 16 4 7 2 8 -4 4 -7 -4 -12 -2 -12 4 0 10 41 5 69 -10z m-64 -10 c11 -18
-5 -30 -25 -18 -10 7 -16 16 -14 20 7 11 32 10 39 -2z"/>
<path d="M1421 8098 c-1 -22 18 -33 32 -19 9 9 8 11 -5 6 -11 -4 -18 0 -21 12
-4 15 -5 16 -6 1z"/>
<path d="M2610 7926 c0 -14 5 -28 10 -31 6 -3 10 5 10 19 0 14 -4 28 -10 31
-6 3 -10 -5 -10 -19z"/>
<path d="M2852 7835 c0 -16 2 -22 5 -12 2 9 2 23 0 30 -3 6 -5 -1 -5 -18z"/>
<path d="M2910 7850 c0 -5 5 -10 10 -10 6 0 10 5 10 10 0 6 -4 10 -10 10 -5 0
-10 -4 -10 -10z"/>
<path d="M2888 7825 c-3 -14 -1 -25 3 -25 5 0 9 11 9 25 0 14 -2 25 -4 25 -2
0 -6 -11 -8 -25z"/>
<path d="M2917 7810 c-3 -11 -1 -20 4 -20 5 0 9 9 9 20 0 11 -2 20 -4 20 -2 0
-6 -9 -9 -20z"/>
<path d="M2940 7790 c0 -6 7 -10 15 -10 8 0 15 2 15 4 0 2 -7 6 -15 10 -8 3
-15 1 -15 -4z"/>
<path d="M3072 7775 c0 -16 2 -22 5 -12 2 9 2 23 0 30 -3 6 -5 -1 -5 -18z"/>
<path d="M3092 7765 c0 -16 2 -22 5 -12 2 9 2 23 0 30 -3 6 -5 -1 -5 -18z"/>
<path d="M2995 7770 c27 -12 43 -12 25 0 -8 5 -22 9 -30 9 -10 0 -8 -3 5 -9z"/>
<path d="M2760 7596 c0 -30 5 -58 10 -61 6 -4 10 17 10 54 0 34 -4 61 -10 61
-5 0 -10 -24 -10 -54z"/>
<path d="M2933 7565 c0 -33 2 -45 4 -27 2 18 2 45 0 60 -2 15 -4 0 -4 -33z"/>
<path d="M1072 7617 c-31 -33 -30 -90 3 -122 13 -14 29 -25 35 -25 6 0 22 11
35 25 19 18 25 35 25 68 0 72 -54 101 -98 54z m69 -21 c7 -15 8 -36 4 -53 -5
-15 -8 -31 -7 -34 2 -9 -58 3 -65 14 -10 16 -5 67 8 83 18 22 48 17 60 -10z"/>
<path d="M1230 7528 c0 -8 -18 -43 -40 -76 l-40 -62 173 1 172 1 64 69 64 69
-99 0 c-54 0 -143 3 -196 7 -83 5 -98 4 -98 -9z m90 -28 c-8 -5 -22 -10 -29
-10 -20 0 -71 -50 -72 -69 0 -10 -3 -11 -5 -4 -3 6 6 30 21 52 22 36 30 41 63
41 27 0 33 -3 22 -10z m80 0 c0 -5 -7 -10 -15 -10 -8 0 -15 5 -15 10 0 6 7 10
15 10 8 0 15 -4 15 -10z m124 1 l30 -1 -29 -30 c-16 -16 -31 -30 -34 -30 -3 0
-14 16 -23 35 -17 35 -17 35 5 31 12 -3 35 -5 51 -5z m-159 -51 c0 -17 -7 -26
-26 -30 -30 -9 -36 14 -11 43 20 23 37 17 37 -13z m84 16 c8 -10 9 -16 1 -21
-17 -11 -11 -25 12 -25 12 0 19 -3 16 -6 -3 -3 -21 -2 -40 1 -31 6 -34 9 -30
36 5 31 22 38 41 15z m-149 -19 c0 -17 -20 -37 -37 -37 -16 0 -17 22 -1 38 16
16 38 15 38 -1z m100 -3 c0 -8 -5 -12 -10 -9 -6 4 -8 11 -5 16 9 14 15 11 15
-7z m0 -34 c12 -8 9 -10 -12 -10 -16 0 -28 5 -28 10 0 13 20 13 40 0z"/>
<path d="M1325 7333 c-9 -20 -13 -43 -11 -50 7 -17 117 -18 138 0 17 14 39 72
31 81 -4 3 -37 6 -75 6 l-68 0 -15 -37z m145 23 c0 -1 -5 -17 -11 -35 -11 -30
-13 -31 -70 -31 -32 0 -59 2 -59 4 0 1 5 17 11 35 11 30 13 31 70 31 32 0 59
-2 59 -4z"/>
<path d="M1383 7334 c-3 -8 -1 -20 4 -25 14 -14 43 0 43 22 0 24 -38 26 -47 3z
m32 -4 c3 -5 1 -10 -4 -10 -6 0 -11 5 -11 10 0 6 2 10 4 10 3 0 8 -4 11 -10z"/>
<path d="M1198 7123 c-37 -43 -26 -103 22 -123 38 -16 67 -5 86 31 26 51 -6
109 -61 109 -18 0 -38 -8 -47 -17z m82 -13 c28 -28 26 -66 -5 -86 -30 -20 -63
-10 -76 23 -10 27 1 56 29 72 24 15 29 14 52 -9z"/>
<path d="M1220 7095 c-26 -32 13 -81 48 -59 34 22 22 74 -18 74 -10 0 -23 -7
-30 -15z m40 -25 c0 -5 -4 -10 -10 -10 -5 0 -10 5 -10 10 0 6 5 10 10 10 6 0
10 -4 10 -10z"/>
<path d="M1082 7074 c-27 -18 -28 -45 -4 -67 25 -23 48 -21 66 5 20 29 20 34
-4 58 -24 24 -29 24 -58 4z m47 -18 c15 -18 3 -46 -20 -46 -22 0 -34 22 -25
45 7 19 30 19 45 1z"/>
<path d="M1810 7095 c0 -28 4 -35 20 -35 16 0 20 7 20 35 0 28 -4 35 -20 35
-16 0 -20 -7 -20 -35z m30 10 c0 -8 -4 -15 -10 -15 -5 0 -10 7 -10 15 0 8 5
15 10 15 6 0 10 -7 10 -15z"/>
<path d="M3211 7544 c0 -11 3 -14 6 -6 3 7 2 16 -1 19 -3 4 -6 -2 -5 -13z"/>
<path d="M2907 7473 c-12 -11 -7 -50 7 -62 11 -10 17 -8 25 6 10 17 10 17 11
-1 0 -11 3 -17 6 -13 3 3 3 20 -1 37 -4 17 -9 29 -13 26 -3 -3 -10 -1 -17 4
-7 5 -15 7 -18 3z m23 -40 c0 -7 -4 -13 -10 -13 -5 0 -10 12 -10 28 0 21 2 24
10 12 5 -8 10 -21 10 -27z"/>
<path d="M2974 7446 c-3 -8 -1 -23 5 -33 8 -15 10 -12 8 14 -2 36 -5 40 -13
19z"/>
<path d="M3000 7430 c0 -22 5 -30 18 -29 9 0 12 3 5 5 -6 3 -9 16 -7 30 2 13
0 24 -6 24 -5 0 -10 -13 -10 -30z"/>
<path d="M3320 7530 c0 -19 11 -26 23 -14 8 8 -3 34 -14 34 -5 0 -9 -9 -9 -20z"/>
<path d="M720 7140 c-32 -32 -22 -120 14 -120 21 0 34 21 41 72 6 40 4 48 -14
57 -17 9 -24 8 -41 -9z m40 -48 c0 -21 -19 -52 -33 -52 -7 0 -8 3 -2 8 12 9
16 84 4 76 -5 -3 -10 -20 -10 -37 -2 -31 -2 -31 -6 -4 -3 16 1 35 8 44 12 13
14 13 26 -3 7 -10 13 -24 13 -32z"/>
<path d="M796 7101 c-35 -39 0 -111 42 -85 24 16 28 75 6 91 -23 17 -28 17
-48 -6z m49 -12 c10 -16 -3 -56 -20 -63 -21 -8 -40 41 -24 60 14 17 35 18 44
3z"/>
<path d="M4055 7051 c-3 -6 -12 -8 -20 -4 -10 3 -15 -1 -16 -13 0 -11 -3 -14
-6 -6 -2 6 -9 12 -14 12 -4 0 -6 -7 -3 -15 4 -8 14 -15 23 -15 9 0 22 -5 28
-11 8 -8 16 -8 30 0 18 10 14 13 -21 15 -11 1 -21 6 -23 12 -2 7 6 10 22 7 14
-3 25 -1 25 5 0 15 -17 24 -25 13z"/>
<path d="M3946 6971 c-8 -12 20 -22 40 -14 13 5 13 7 2 14 -17 11 -35 11 -42
0z"/>
<path d="M3244 6936 c-8 -22 3 -33 18 -18 9 9 9 15 0 24 -9 9 -13 7 -18 -6z"/>
<path d="M3193 6933 c-17 -6 -16 -33 1 -33 7 0 16 9 19 20 5 20 2 22 -20 13z"/>
<path d="M3625 6890 c-3 -5 -1 -10 4 -10 6 0 11 5 11 10 0 6 -2 10 -4 10 -3 0
-8 -4 -11 -10z"/>
<path d="M2550 6780 c-11 -7 -12 -12 -3 -21 14 -14 46 -4 41 13 -6 16 -20 19
-38 8z"/>
<path d="M2400 6739 c0 -25 33 -22 38 4 2 12 -3 17 -17 17 -15 0 -21 -6 -21
-21z"/>
<path d="M2330 6720 c0 -13 5 -20 13 -17 6 2 12 10 12 17 0 7 -6 15 -12 18 -8
2 -13 -5 -13 -18z"/>
<path d="M2164 6695 c-9 -23 15 -48 32 -34 19 16 17 26 -6 39 -16 9 -22 8 -26
-5z"/>
<path d="M2062 6633 c4 -21 33 -25 33 -3 0 8 -8 16 -18 18 -14 3 -18 -1 -15
-15z"/>
<path d="M1823 6633 c-18 -7 -16 -43 2 -43 18 0 31 28 19 39 -5 5 -15 6 -21 4z"/>
<path d="M1786 6614 c-21 -54 9 -124 52 -124 12 0 10 5 -11 18 -31 19 -42 49
-33 92 6 32 2 40 -8 14z"/>
<path d="M1168 6763 c23 -2 59 -2 80 0 20 2 1 4 -43 4 -44 0 -61 -2 -37 -4z"/>
<path d="M2923 6679 c-18 -5 -33 -12 -33 -15 0 -4 7 -4 15 0 8 3 15 1 15 -4 0
-11 40 -13 64 -4 9 3 16 10 16 16 0 5 -4 7 -9 3 -5 -3 -12 -1 -16 5 -7 11 -9
11 -52 -1z"/>
<path d="M2823 6613 c9 -2 23 -2 30 0 6 3 -1 5 -18 5 -16 0 -22 -2 -12 -5z"/>
<path d="M2440 6520 c-13 -8 -13 -10 2 -10 9 0 20 5 23 10 8 13 -5 13 -25 0z"/>
<path d="M2626 6484 c-5 -14 -4 -15 9 -4 17 14 19 20 6 20 -5 0 -12 -7 -15
-16z"/>
<path d="M1722 6331 c-11 -7 -11 -9 1 -14 9 -3 18 1 21 9 6 16 -2 18 -22 5z"/>
<path d="M1425 6250 c-4 -6 -13 -9 -21 -6 -8 3 -14 1 -14 -4 0 -13 37 -13 45
1 4 6 5 13 2 15 -3 3 -8 0 -12 -6z"/>
<path d="M1465 6231 c-6 -5 -19 -11 -30 -13 -15 -3 -11 -6 12 -9 18 -3 30 -2
27 3 -3 4 5 12 18 17 21 9 21 10 3 10 -12 1 -25 -3 -30 -8z"/>
<path d="M1170 5980 c0 -5 5 -10 10 -10 6 0 10 5 10 10 0 6 -4 10 -10 10 -5 0
-10 -4 -10 -10z"/>
<path d="M155 5731 c-6 -11 9 -23 19 -14 9 9 7 23 -3 23 -6 0 -12 -4 -16 -9z"/>
<path d="M4491 8144 c0 -11 3 -14 6 -6 3 7 2 16 -1 19 -3 4 -6 -2 -5 -13z"/>
<path d="M148 7053 c-82 -2 -148 -7 -148 -12 0 -8 72 -6 455 8 l200 8 -180 -1
c-99 0 -246 -2 -327 -3z"/>
<path d="M448 6243 c7 -3 16 -2 19 1 4 3 -2 6 -13 5 -11 0 -14 -3 -6 -6z"/>
<path d="M35 5880 c3 -5 8 -10 11 -10 2 0 4 5 4 10 0 6 -5 10 -11 10 -5 0 -7
-4 -4 -10z"/>
<path d="M13 5613 c9 -2 23 -2 30 0 6 3 -1 5 -18 5 -17 0 -22 -2 -12 -5z"/>
</g>
</svg>
