<?xml version="1.0" standalone="no"?>
<!DOCTYPE svg PUBLIC "-//W3C//DTD SVG 20010904//EN"
 "http://www.w3.org/TR/2001/REC-SVG-20010904/DTD/svg10.dtd">
<svg version="1.0" xmlns="http://www.w3.org/2000/svg"
 width="300.000000pt" height="233.000000pt" viewBox="0 0 300.000000 233.000000"
 preserveAspectRatio="xMidYMid meet">
<metadata>
Created by potrace 1.10, written by Peter Selinger 2001-2011
</metadata>
<g transform="translate(0.000000,233.000000) scale(0.100000,-0.100000)"
fill="#000000" stroke="none">
<path d="M144 2305 c6 -23 3 -25 -24 -25 -46 0 -90 -27 -106 -65 -21 -52 -16
-66 6 -17 31 68 112 92 178 52 40 -24 62 -73 62 -134 0 -47 -3 -52 -60 -89
-20 -13 -39 -36 -45 -54 -9 -27 -13 -30 -29 -21 -13 7 -26 7 -42 -1 -13 -6
-24 -7 -24 -3 -1 13 -60 77 -60 64 0 -6 13 -26 28 -44 24 -28 28 -40 24 -76
-5 -46 15 -88 48 -100 14 -5 17 -11 10 -22 -8 -12 -14 -10 -39 14 -17 16 -36
45 -42 65 -13 42 -36 71 -24 31 16 -52 25 -69 55 -104 32 -36 33 -56 2 -56
-12 0 -13 -3 -5 -8 16 -10 5 -24 -29 -39 -16 -7 -28 -18 -28 -24 0 -8 4 -8 12
-2 7 6 20 13 29 16 13 4 16 1 12 -14 -3 -11 2 -40 12 -65 9 -25 16 -46 14 -47
-72 -38 -69 -38 -70 -14 0 12 -3 16 -6 9 -8 -20 6 -62 21 -62 16 0 11 -27 -11
-70 -7 -14 -13 -32 -13 -40 0 -19 57 -55 85 -55 15 0 21 -8 23 -31 4 -41 -18
-58 -62 -50 -32 6 -35 10 -39 49 l-4 42 -1 -46 c-2 -50 8 -59 71 -59 31 0 31
-2 15 -47 -9 -25 -18 -33 -38 -33 -14 0 -32 -5 -40 -11 -11 -8 -5 -9 22 -4 21
3 38 3 38 0 0 -14 -30 -61 -49 -79 -12 -11 -21 -24 -21 -29 0 -19 59 46 80 87
11 23 20 33 20 23 0 -31 -30 -311 -36 -329 -3 -10 -18 -18 -37 -21 l-32 -4 33
-1 c28 -2 32 -6 32 -28 0 -24 -3 -26 -30 -20 -17 3 -30 1 -30 -4 0 -6 13 -10
30 -10 21 0 30 -5 30 -16 0 -9 -13 -21 -30 -27 -28 -11 -30 -15 -28 -57 1 -44
1 -44 5 -7 3 24 9 37 16 34 7 -2 24 9 40 24 27 29 36 59 17 59 -5 0 -10 11
-10 25 0 21 5 25 28 25 15 0 53 6 84 14 32 7 58 13 58 12 0 -1 -47 -49 -105
-107 -86 -86 -105 -101 -108 -84 -3 12 -5 7 -6 -12 0 -17 -5 -35 -11 -38 -5
-3 -10 -10 -10 -15 0 -4 63 55 140 132 141 140 182 168 262 183 l38 7 -11 -31
c-9 -26 -15 -30 -35 -25 -45 12 -70 -3 -92 -53 -21 -49 -54 -86 -107 -119 -16
-10 -38 -29 -49 -42 -10 -13 -25 -21 -33 -18 -7 3 -29 -4 -48 -17 -37 -23 -49
-45 -16 -27 27 14 29 13 24 -18 -3 -23 -2 -24 6 -7 9 18 10 17 10 -7 1 -15 13
-62 27 -103 14 -42 23 -79 19 -83 -4 -4 -10 -2 -12 5 -2 7 -11 9 -19 6 -18 -7
-44 14 -44 36 1 13 5 11 20 -7 22 -26 34 -14 21 20 -6 12 -10 18 -10 13 -1 -6
-10 -11 -21 -11 -27 0 -20 20 8 24 12 2 22 7 22 12 0 5 -8 7 -17 3 -15 -5 -16
-3 -6 8 7 7 13 18 13 23 0 6 -7 0 -16 -12 -21 -30 -38 -28 -18 3 9 13 14 30
11 37 -4 9 -6 7 -6 -4 -2 -29 -51 -66 -51 -37 0 5 5 7 10 4 6 -4 9 10 9 37 -2
33 -3 36 -6 14 -3 -21 -7 -26 -13 -16 -6 10 -8 4 -8 -18 1 -18 5 -35 11 -39 5
-3 3 -9 -4 -14 -10 -6 -8 -9 8 -9 27 0 37 -30 53 -168 14 -113 30 -146 80
-157 42 -9 85 2 120 32 l30 25 0 -27 c0 -20 7 -29 34 -40 36 -15 99 -10 115 9
6 7 14 52 19 102 12 113 7 119 -88 119 l-70 0 0 48 c0 43 2 47 15 33 20 -20
85 -10 104 15 11 16 26 19 100 18 47 0 80 -3 74 -6 -7 -2 -13 -13 -13 -24 0
-25 49 -49 98 -49 42 0 52 11 52 56 l0 24 126 0 c132 0 144 -3 192 -47 75 -71
102 -93 114 -93 7 0 4 7 -7 15 -42 30 -49 39 -36 43 8 3 16 0 20 -5 9 -15 51
-26 51 -14 0 6 -9 11 -20 11 -11 0 -20 5 -20 10 0 6 5 10 10 10 14 0 13 47 -1
56 -7 4 -9 0 -5 -14 10 -29 -8 -35 -30 -11 -10 12 -28 26 -39 31 -12 7 -7 -3
14 -25 30 -32 31 -36 13 -34 -11 0 -19 4 -17 8 3 3 -5 15 -18 25 l-22 19 19
-22 c11 -13 14 -23 8 -23 -6 0 -20 13 -31 29 -13 18 -42 36 -80 50 -33 12 -69
33 -80 47 l-20 26 21 51 c11 29 34 88 50 132 19 53 41 92 64 115 l35 35 -26
-68 c-23 -62 -24 -70 -10 -96 13 -26 13 -30 0 -35 -22 -8 -18 -52 9 -118 13
-32 19 -55 12 -51 -35 20 -46 38 -47 82 0 25 -4 64 -9 86 -7 34 -8 29 -7 -34
2 -72 1 -75 -23 -82 -14 -4 -20 -7 -15 -8 6 -1 35 -17 65 -36 30 -19 67 -35
83 -35 16 0 26 -4 22 -10 -3 -6 1 -7 10 -4 9 4 15 3 13 -2 -1 -5 5 -22 15 -39
9 -16 16 -26 17 -22 0 5 -4 16 -10 27 -9 17 -2 18 100 19 123 2 138 -8 62 -40
-54 -23 -102 -65 -102 -89 0 -28 30 -46 145 -85 104 -36 114 -37 205 -32 101
5 216 39 204 59 -4 7 -2 8 4 4 16 -10 72 21 72 40 0 11 6 14 22 9 24 -8 27 -8
44 -6 14 1 10 95 -6 136 -21 54 -21 65 6 75 14 6 32 10 40 10 21 0 17 -47 -7
-81 -11 -16 -16 -29 -11 -29 5 0 15 11 22 25 11 20 16 22 27 13 8 -6 12 -21 9
-32 -5 -20 -4 -20 9 -3 11 15 17 16 34 8 11 -6 40 -11 65 -11 36 0 48 -5 65
-26 25 -32 40 -81 48 -157 10 -100 -28 -137 -141 -137 -55 0 -69 4 -95 26 -42
35 -47 74 -22 174 11 46 18 86 16 88 -3 3 -7 -3 -11 -12 -6 -15 -7 -15 -21 1
-14 17 -14 17 -7 -2 9 -23 9 -45 -1 -136 -6 -51 -4 -72 9 -97 9 -18 20 -32 25
-32 5 0 7 -9 4 -20 -6 -24 21 -38 41 -21 8 7 40 13 72 14 33 2 64 5 69 8 6 2
12 0 15 -6 3 -6 -25 -12 -70 -16 l-75 -6 80 1 c71 1 80 3 79 19 -1 10 9 29 22
42 31 31 39 69 27 129 -6 30 -7 52 -2 54 20 8 39 35 39 56 0 31 -29 56 -74 63
-36 6 -41 23 -5 23 10 0 19 5 19 11 0 8 5 7 15 -1 12 -10 61 -13 195 -11 152
2 183 0 196 -13 11 -12 26 -14 55 -10 26 4 39 3 39 -5 0 -14 33 -14 46 -1 8 8
15 6 24 -5 7 -8 21 -15 31 -15 16 0 19 -8 19 -44 0 -24 -5 -46 -10 -48 -9 -3
-14 -22 -19 -76 -1 -10 -6 -10 -21 -2 -21 11 -28 40 -9 40 6 0 9 -7 5 -15 -3
-8 -1 -15 3 -15 17 0 21 31 5 37 -21 8 -31 -5 -39 -49 -6 -29 -3 -40 13 -56
22 -22 20 -56 -5 -80 -7 -7 -13 -17 -13 -22 0 -11 28 -6 41 7 13 13 42 6 33
-8 -3 -5 2 -9 11 -9 9 0 13 4 10 10 -3 6 1 10 10 10 9 0 13 -4 10 -10 -4 -6
10 -9 37 -9 27 1 33 3 17 6 -15 2 -37 16 -50 30 -22 24 -22 25 -4 18 51 -20
111 -35 134 -34 14 0 -7 9 -48 20 -88 24 -167 62 -181 88 -21 39 -9 42 29 8
44 -40 129 -70 170 -61 20 4 23 3 11 -5 -12 -9 -10 -11 13 -11 15 0 27 5 27
10 0 6 -4 10 -10 10 -5 0 -10 5 -10 11 0 5 4 8 8 5 5 -3 8 9 7 26 -2 39 -38
70 -76 66 -14 -1 -33 2 -40 8 -26 20 -58 23 -62 5 -4 -12 -5 -13 -6 -1 -2 37
14 42 69 26 30 -9 70 -16 89 -15 36 1 35 1 -9 10 -81 17 -130 31 -130 39 0 4
37 8 82 9 45 1 84 3 86 6 3 3 -34 5 -81 5 -86 0 -87 0 -87 25 0 25 1 25 28 11
15 -8 53 -17 85 -21 54 -7 57 -6 57 14 0 12 -6 21 -15 21 -8 0 -15 -7 -15 -15
0 -8 -4 -15 -10 -15 -20 0 -9 38 16 55 14 9 23 19 20 23 -3 3 -16 -4 -29 -16
-14 -13 -27 -18 -33 -13 -5 5 -18 11 -29 13 -11 1 -26 14 -32 27 -17 30 -17
29 15 28 102 -4 134 9 95 39 -10 7 -14 16 -10 20 4 5 12 2 17 -6 8 -12 10 -12
10 3 0 12 -6 17 -17 15 -10 -2 -18 -10 -17 -18 1 -18 -42 -19 -73 -2 -32 18
-39 15 -17 -9 12 -14 27 -19 44 -16 14 3 34 1 45 -3 14 -5 6 -8 -30 -12 -62
-8 -85 4 -85 42 0 34 15 44 97 64 45 11 51 15 26 15 -17 1 -44 -4 -58 -9 -20
-8 -26 -7 -23 2 2 7 25 20 50 28 46 15 46 16 50 62 3 44 1 47 -17 41 -18 -5
-18 -4 -6 11 12 14 12 16 -5 10 -15 -4 -14 -1 5 16 15 12 25 34 27 53 l2 32
-10 -32 c-6 -17 -23 -44 -39 -59 l-28 -26 -33 23 c-21 15 -28 17 -19 6 9 -11
10 -17 2 -17 -14 0 -51 59 -51 83 0 9 -4 17 -9 17 -12 0 3 -54 24 -86 9 -14
29 -25 52 -29 96 -16 93 -14 93 -49 0 -29 -4 -33 -42 -44 -24 -7 -49 -15 -55
-18 -9 -4 -13 6 -13 33 0 50 -14 63 -66 63 l-43 0 -12 55 c-10 45 -10 61 3 92
l14 38 75 -3 c40 -2 92 -8 114 -12 38 -9 55 -6 43 6 -4 3 -30 9 -60 13 -45 6
-118 43 -118 59 0 2 19 2 43 -1 23 -3 62 -2 87 2 l45 8 -60 3 -60 3 65 7 65 7
-67 1 c-40 1 -68 -2 -68 -8 0 -5 -14 -10 -31 -10 -26 0 -30 3 -24 18 4 9 12
36 17 59 l10 43 81 1 c53 1 73 4 57 8 -14 5 -41 7 -60 5 -19 -2 -27 -1 -17 2
12 4 16 12 12 25 -4 11 -2 19 5 19 6 0 8 5 5 10 -3 5 -1 10 6 10 6 0 9 -8 6
-20 -6 -24 8 -27 17 -3 10 24 -10 40 -32 27 -11 -8 -26 -8 -44 -2 -29 10 -35
22 -18 33 6 3 10 14 10 23 0 9 4 24 10 32 7 12 12 12 29 -4 11 -10 19 -23 18
-30 -2 -10 2 -11 37 -7 7 0 16 9 20 19 3 9 9 23 12 30 4 8 -3 12 -20 12 -14 0
-26 5 -26 11 0 6 7 9 14 6 10 -4 13 -1 9 9 -4 10 0 12 11 8 9 -3 16 -1 16 6 0
20 -45 6 -55 -17 -13 -30 -70 -33 -78 -4 -3 14 10 32 50 66 30 26 52 50 48 53
-3 3 5 17 17 30 13 14 17 22 11 18 -7 -4 -13 -2 -13 3 0 6 5 11 10 11 6 0 10
28 10 64 0 55 -4 69 -25 92 -24 26 -25 27 -6 40 24 17 34 94 13 94 -12 0 -11
4 1 24 19 29 14 36 -27 36 -17 1 -42 7 -54 14 -18 9 -38 10 -79 3 -44 -7 -57
-7 -64 4 -5 8 -9 17 -9 21 0 3 48 9 108 13 132 8 142 11 141 38 0 21 -1 21 -9
2 -7 -17 -9 -17 -9 -2 -1 12 -10 17 -33 17 -25 0 -29 3 -18 10 8 5 10 10 4 10
-5 0 -15 -5 -22 -12 -16 -16 -16 4 1 24 9 12 18 14 35 7 13 -5 20 -13 17 -19
-3 -5 3 -10 15 -10 20 0 20 1 3 19 -10 10 -28 22 -41 26 -15 4 -21 12 -18 23
14 52 18 86 7 77 -6 -6 -12 -23 -13 -38 -2 -23 -7 -27 -35 -27 -17 0 -35 -4
-38 -10 -9 -15 -25 -12 -19 4 3 8 22 19 42 24 33 9 34 10 10 11 -27 1 -68 -29
-68 -49 0 -5 -4 -10 -10 -10 -5 0 -10 10 -10 23 0 13 -6 32 -14 43 -12 15 -18
17 -33 8 -10 -6 -20 -21 -23 -34 -3 -13 -11 -25 -18 -26 -7 -1 -8 0 -3 2 5 3
4 17 -2 35 -15 39 -13 40 148 80 125 30 200 56 125 42 -90 -16 -283 -72 -291
-84 -6 -10 -10 -9 -15 5 -4 10 -2 21 4 25 6 4 83 24 171 46 125 31 159 43 158
56 -1 13 -8 15 -37 8 -68 -14 -75 -18 -25 -14 l50 4 -50 -14 c-27 -8 -53 -15
-57 -15 -16 0 10 50 36 71 25 20 32 21 60 11 28 -10 29 -10 12 3 -28 21 -50
19 -85 -11 -35 -29 -45 -10 -11 21 15 14 30 17 67 13 27 -3 42 -3 36 -1 -7 3
-13 17 -13 31 0 44 -16 59 -23 23 -4 -17 -11 -31 -17 -31 -14 0 -13 33 2 48 8
8 8 12 1 12 -6 0 -16 -14 -22 -31 -6 -17 -22 -40 -36 -51 -18 -14 -25 -29 -25
-54 0 -41 -23 -50 -103 -40 -56 6 -96 30 -112 64 -5 12 -18 22 -28 22 -32 0
-77 39 -78 68 -1 17 -3 21 -6 10 -5 -21 -43 -25 -43 -5 0 7 -9 13 -21 14 -17
2 -18 -1 -8 -13 18 -22 2 -30 -20 -10 -17 15 -25 16 -55 6 -19 -6 -36 -14 -38
-18 -10 -23 -158 -73 -284 -96 -240 -44 -295 -50 -449 -48 -209 1 -353 18
-465 52 -52 16 -113 33 -135 39 -39 10 -41 12 -39 48 1 33 1 33 -3 6 -2 -18
-9 -33 -14 -33 -5 0 -35 13 -67 29 -58 29 -119 51 -94 33 11 -7 11 -16 -2 -46
l-15 -36 30 0 c22 0 29 -5 29 -20 0 -25 16 -25 57 0 32 19 33 19 43 0 5 -10
10 -37 10 -59 l0 -41 -38 6 c-61 10 -69 -5 -77 -149 -4 -68 -5 -132 -3 -143 2
-10 8 41 12 115 l8 133 37 -6 c20 -3 42 -6 49 -6 8 0 13 -19 14 -57 l2 -58 3
53 c2 28 7 52 11 52 4 0 48 -7 97 -15 50 -8 104 -17 122 -20 l31 -6 -17 -61
c-14 -50 -24 -66 -49 -79 -35 -20 -45 -13 -57 34 -4 16 -14 31 -21 34 -8 3
-48 -9 -89 -26 -42 -18 -80 -29 -85 -26 -5 3 -19 1 -31 -6 -17 -9 -20 -17 -16
-45 4 -24 2 -34 -7 -34 -18 0 -46 -33 -46 -54 0 -30 27 -72 55 -84 24 -11 29
-10 56 20 23 23 29 38 24 55 -8 32 -47 50 -77 35 -22 -11 -22 -11 4 -6 33 7
80 -32 57 -47 -8 -5 -10 -9 -5 -9 4 0 -2 -8 -15 -19 -37 -30 -79 -3 -79 50 0
42 22 53 93 46 34 -3 54 -2 44 2 -21 8 118 44 165 43 32 -1 79 -23 60 -30 -6
-2 -12 -11 -12 -19 0 -12 3 -13 14 -4 12 10 17 8 25 -8 14 -26 14 -28 -4 -28
-8 0 -15 5 -15 10 0 6 -2 8 -5 5 -14 -13 20 -69 53 -88 33 -18 35 -19 15 -1
-13 11 -23 27 -23 36 0 14 4 13 19 -7 33 -41 30 -51 -16 -53 -23 -2 -46 -6
-52 -9 -15 -9 -3 -34 20 -41 23 -8 24 -19 2 -40 -20 -20 -76 -15 -104 11 -10
9 -23 14 -29 12 -6 -2 13 -26 41 -53 28 -28 45 -40 38 -28 -16 27 -2 45 16 20
10 -14 14 -15 19 -5 3 7 4 3 2 -10 -4 -19 -2 -21 10 -11 10 8 14 9 14 0 0 -22
-33 -24 -96 -8 -34 9 -72 17 -83 17 -30 0 -101 35 -134 66 -21 20 -27 32 -23
50 3 12 2 25 -3 28 -12 8 -25 -23 -22 -53 2 -13 -3 -28 -11 -32 -10 -7 -10 -9
0 -9 21 0 14 -110 -13 -194 -14 -42 -25 -96 -25 -120 0 -49 -7 -61 -27 -45 -9
8 -13 40 -13 111 l0 100 25 -6 c14 -4 25 -2 25 4 0 5 -20 10 -45 10 -50 0 -60
16 -18 26 17 5 28 3 31 -4 2 -7 9 -9 14 -6 6 4 18 -2 26 -12 14 -18 14 -18 7
1 -18 48 -23 90 -14 107 6 10 9 40 7 66 -3 42 -6 47 -29 50 l-26 3 -5 301 c-5
249 -3 307 9 336 8 19 12 36 9 39 -3 3 -8 -8 -13 -23 l-7 -29 -7 30 c-5 17 -5
-124 -2 -312 5 -337 5 -343 -14 -343 -18 0 -21 9 -26 107 -11 172 -10 182 16
194 17 7 13 8 -20 4 -34 -4 -42 -2 -46 12 -4 17 -5 17 -6 1 -1 -20 -36 -24
-61 -8 -12 7 -11 13 10 34 29 31 61 33 103 5 l32 -21 -29 27 c-41 38 -92 32
-123 -14 -29 -42 -20 -51 55 -51 l52 0 1 -57 c0 -32 3 -129 5 -215 l4 -157
-25 -17 c-21 -14 -31 -14 -77 -3 -29 7 -57 17 -63 21 -11 10 67 0 100 -12 18
-7 23 -1 38 47 18 53 18 55 -1 96 -25 52 -36 140 -22 166 5 11 7 39 4 63 -5
34 -10 44 -24 44 -24 0 -35 -73 -21 -136 19 -81 15 -109 -19 -128 -35 -20 -45
-47 -31 -84 8 -22 6 -27 -15 -37 -29 -13 -31 -27 -4 -36 20 -6 27 -29 12 -39
-5 -3 -30 16 -56 43 l-47 48 43 40 c62 58 71 76 53 110 -14 26 -14 28 6 31 21
4 21 4 -2 16 -18 9 -24 20 -23 44 1 18 -2 29 -7 26 -5 -3 -9 -14 -9 -25 0 -10
-4 -19 -10 -19 -17 0 -11 39 14 88 33 66 53 139 70 262 24 174 29 215 21 208
-3 -3 -15 -73 -26 -155 -11 -81 -27 -173 -35 -203 -21 -72 -59 -146 -80 -154
-26 -10 -29 2 -6 21 32 27 51 93 72 253 11 80 24 166 28 193 5 26 6 47 2 47
-7 0 -31 -144 -46 -273 -11 -101 -19 -51 -18 116 l1 162 -7 -120 c-4 -66 -8
-130 -9 -142 l-1 -22 -36 24 c-43 29 -65 31 -124 10 -23 -8 -44 -15 -47 -15
-2 0 -1 16 3 35 12 65 -52 175 -102 175 -8 0 -14 10 -14 25 0 14 -5 25 -11 25
-7 0 -9 -10 -5 -25z m709 -35 c-3 -13 -14 -20 -29 -20 -27 0 -27 0 -14 35 8
22 13 24 29 16 13 -7 17 -18 14 -31z m1577 22 c0 -10 -11 -29 -24 -41 l-24
-22 -10 29 c-9 26 -7 31 11 40 33 16 47 14 47 -6z m98 -234 c-2 -143 -7 -233
-13 -235 -6 -2 -10 80 -10 232 0 183 3 235 13 235 10 0 12 -50 10 -232z
m-1605 202 c20 -8 37 -21 37 -29 0 -12 -3 -11 -18 2 -16 15 -21 15 -38 2 -18
-13 -54 -21 -54 -11 0 15 21 57 28 54 4 -2 24 -10 45 -18z m1567 -15 c0 -18 2
-74 5 -126 l5 -94 -19 50 c-11 28 -20 60 -20 73 -1 12 -5 22 -10 22 -6 0 -83
-16 -173 -36 -455 -99 -759 -108 -1208 -36 -93 15 -105 19 -108 38 -3 20 36
93 49 94 4 0 6 -17 5 -37 -1 -32 2 -38 22 -41 18 -3 23 2 28 28 10 49 29 29
28 -29 -1 -28 1 -51 4 -51 3 0 23 16 43 35 35 35 38 36 85 28 48 -8 49 -9 54
-48 l5 -40 22 40 22 40 18 -42 c20 -48 28 -52 43 -22 10 18 14 19 28 6 41 -34
88 -27 94 15 4 28 28 36 28 10 0 -29 -11 -53 -21 -46 -5 3 -9 0 -9 -5 0 -13 0
-13 41 0 19 6 39 17 44 24 9 10 19 9 50 -6 47 -23 51 -23 35 -4 -10 13 -9 15
8 15 12 0 28 -10 36 -22 15 -21 16 -21 18 -3 0 11 1 29 0 40 0 11 2 14 5 7 4
-10 8 -9 18 5 7 10 17 15 21 10 4 -4 -2 -16 -14 -27 -27 -26 -28 -34 -3 -20
16 8 20 6 24 -8 3 -9 5 2 6 26 0 23 5 42 10 42 5 0 21 -16 35 -35 15 -19 31
-35 35 -35 5 0 11 17 15 39 l6 38 62 6 c70 6 78 4 78 -23 0 -28 18 -34 45 -16
30 20 32 32 5 32 -13 0 -20 -7 -20 -19 0 -26 -17 -13 -22 18 -3 15 -1 24 6 23
6 -1 29 4 51 10 35 10 42 10 53 -5 6 -9 12 -20 12 -25 0 -17 29 -7 35 12 7 24
13 24 39 5 30 -23 36 -18 36 25 0 34 4 42 30 55 41 21 47 19 55 -15 8 -38 18
-38 50 3 17 21 36 33 51 33 20 0 24 -5 24 -31z m80 0 c7 -8 20 -15 30 -15 10
0 25 -11 34 -25 9 -14 27 -32 40 -40 31 -21 122 -35 158 -24 15 4 28 4 28 0 0
-12 -56 -22 -77 -14 -11 4 -14 3 -9 -6 4 -6 4 -11 -1 -9 -4 1 -34 -6 -65 -15
-59 -18 -70 -33 -49 -66 13 -21 3 -38 -35 -60 -19 -11 -34 -25 -34 -31 0 -6
10 -2 22 10 12 11 25 20 29 20 4 0 15 7 24 16 22 23 32 8 10 -16 -11 -12 -16
-29 -13 -45 4 -16 1 -25 -8 -25 -7 0 -20 -3 -30 -7 -12 -4 -15 -2 -12 8 3 8
11 13 17 11 7 -1 10 2 6 8 -11 17 -22 11 -35 -20 -11 -26 -36 -50 -54 -50 -2
0 -4 92 -3 205 1 113 5 205 8 205 4 0 12 -7 19 -15z m-300 -40 c0 -28 -8 -31
-35 -11 -11 8 -26 12 -35 10 -8 -2 -1 2 15 10 43 21 55 19 55 -9z m-1210 -2
c0 -26 -16 -47 -29 -39 -12 8 -15 39 -4 49 13 13 33 7 33 -10z m90 -28 c-2 -6
-11 -21 -21 -34 l-19 -24 0 41 c0 38 2 41 21 34 11 -5 20 -12 19 -17z m730
-47 l0 -31 -26 24 -26 24 24 6 c13 4 24 7 26 8 1 1 2 -13 2 -31z m-493 16 c21
-6 21 -7 6 -31 -16 -24 -17 -24 -30 -7 -14 20 -17 44 -5 44 4 0 17 -3 29 -6z
m1086 -82 c20 -63 27 -107 27 -162 l0 -74 -74 73 c-79 79 -109 90 -146 56 -22
-20 -26 -72 -10 -140 6 -28 6 -42 -3 -47 -9 -5 -7 -11 5 -20 17 -14 37 -65 21
-55 -6 4 -8 -5 -6 -21 3 -24 2 -23 -17 11 -11 20 -23 37 -26 37 -2 0 0 -9 6
-19 14 -28 13 -31 -15 -31 -22 0 -25 3 -19 25 5 20 -1 31 -27 56 -24 22 -34
41 -34 62 0 33 -23 54 -49 44 -9 -4 -16 -15 -16 -25 0 -11 -7 -25 -15 -32 -13
-11 -15 -9 -15 13 0 31 -18 46 -60 50 -32 2 -33 5 -61 92 -16 50 -29 93 -29
96 0 6 123 23 168 24 8 0 25 -36 43 -91 21 -67 39 -103 68 -136 22 -25 43 -58
47 -74 7 -29 44 -77 44 -57 0 6 -7 16 -16 24 -10 8 -14 22 -11 39 5 21 0 30
-24 45 -41 27 -65 68 -99 169 -16 47 -28 86 -27 87 10 5 307 67 322 68 17 0
25 -15 48 -87z m-1013 53 c0 -27 -9 -32 -28 -13 -18 18 -14 38 8 38 15 0 20
-7 20 -25z m38 3 c-5 -32 -28 -35 -28 -4 0 17 5 26 16 26 10 0 14 -7 12 -22z
m92 -8 c0 -13 -7 -20 -20 -20 -13 0 -20 7 -20 20 0 13 7 20 20 20 13 0 20 -7
20 -20z m140 -2 c0 -20 -1 -20 -18 -5 -12 11 -22 13 -32 7 -19 -12 -43 -13
-35 -1 3 5 -3 11 -12 13 -10 3 8 5 40 6 52 2 57 0 57 -20z m-665 -22 c241 -39
385 -49 618 -44 l214 4 21 -70 c11 -39 23 -78 26 -86 5 -12 -4 -15 -44 -17
-41 -2 -50 1 -50 15 0 28 -38 82 -58 82 -17 0 -62 -49 -62 -67 0 -5 -13 -17
-29 -26 -17 -10 -33 -26 -36 -37 -4 -11 -18 -26 -32 -34 -23 -12 -28 -11 -46
7 -18 18 -19 24 -7 55 10 28 10 37 -1 48 -8 7 -19 10 -24 6 -16 -11 -67 -93
-62 -99 3 -2 17 16 32 41 30 51 46 59 43 21 -1 -14 -8 -25 -16 -25 -7 0 -11
-4 -8 -8 6 -11 -49 -53 -58 -45 -3 4 -6 25 -6 47 0 23 -5 48 -10 56 -14 22
-44 0 -50 -36 l-5 -29 -23 33 c-56 78 -112 14 -94 -107 10 -65 10 -66 9 -13
-2 54 2 62 23 37 7 -8 16 -12 21 -9 10 6 10 -118 0 -133 -3 -6 -13 -13 -21
-16 -12 -4 -11 -6 3 -6 14 -1 17 -11 17 -58 0 -88 -15 -128 -51 -143 -34 -15
-49 -4 -49 36 0 12 -7 27 -15 34 -19 15 -20 60 -2 60 22 0 58 45 60 76 1 20
10 33 27 42 23 12 23 13 3 8 -13 -2 -23 1 -23 7 0 7 -4 7 -9 -2 -7 -10 -17 0
-40 40 -17 30 -31 63 -31 74 -1 11 -7 33 -14 50 -10 24 -9 39 6 94 9 35 19 65
20 67 2 1 37 -2 78 -6 90 -11 462 -11 540 -1 30 4 -42 6 -160 3 -127 -3 -264
0 -335 7 -139 13 -388 51 -395 60 -3 3 -25 7 -50 9 -24 2 -46 5 -49 8 -9 8 23
24 39 19 8 -2 83 -15 165 -29z m-616 -32 c37 -31 59 -92 43 -120 -9 -15 -11
-16 -12 -3 0 9 -9 24 -19 33 -15 14 -24 15 -40 7 -31 -17 -44 -13 -38 11 7 25
-7 56 -37 80 -21 17 -20 18 26 18 36 0 54 -6 77 -26z m-95 -16 c9 -12 16 -32
16 -43 0 -19 -7 -20 -101 -22 -116 -2 -121 5 -39 55 64 38 102 41 124 10z
m2408 -42 c9 -7 15 -21 13 -32 -2 -10 -7 -36 -10 -56 -7 -44 -17 -48 -33 -13
-6 14 -18 25 -26 25 -16 0 -29 -37 -15 -46 17 -10 9 -33 -13 -37 -13 -2 -5 -5
18 -6 39 -1 41 -2 57 -53 9 -29 15 -53 13 -55 -2 -2 -16 2 -30 9 -25 11 -29 9
-52 -18 -23 -28 -24 -28 -39 -10 -16 21 -18 15 -9 -22 6 -22 7 -22 26 -5 17
15 21 15 28 3 8 -12 10 -9 10 11 0 37 9 41 43 17 l29 -21 -26 -14 c-15 -8 -37
-13 -49 -12 -12 1 -30 -2 -41 -6 -37 -16 -49 50 -16 92 21 27 26 68 10 78 -6
4 -8 11 -5 16 4 5 3 14 -1 20 -5 8 -9 7 -14 -1 -11 -19 -41 -4 -33 15 5 13 7
14 14 3 6 -10 11 -10 21 0 6 6 20 12 30 12 14 0 16 6 11 31 -6 30 -4 32 18 27
31 -6 50 13 42 41 -6 24 4 26 29 7z m-2419 -32 c57 -10 44 -24 -23 -24 -47 0
-60 -3 -60 -15 0 -8 5 -15 11 -15 5 0 8 4 5 8 -2 4 4 9 15 9 10 1 19 -2 19 -8
0 -5 -5 -9 -11 -9 -5 0 -8 -4 -5 -8 2 -4 -7 -9 -22 -10 -25 -2 -42 11 -42 33
0 6 5 3 10 -5 6 -9 10 -10 10 -3 0 6 -4 15 -10 18 -17 10 -11 23 13 28 36 7
50 7 90 1z m-123 -41 c0 -39 -14 -42 -41 -10 -27 32 -24 47 11 44 27 -2 30 -6
30 -34z m247 10 c10 -40 6 -63 -13 -84 -21 -23 -40 -11 -49 30 -14 65 46 116
62 54z m1343 1 c0 -8 4 -14 9 -14 15 0 34 -91 22 -103 -6 -6 -11 -7 -11 -1 0
5 -4 3 -8 -3 -5 -8 -8 1 -9 23 -1 44 -26 74 -56 67 -19 -4 -20 -3 -6 9 8 7 18
21 22 30 7 20 37 14 37 -8z m550 11 c11 -13 10 -14 -3 -10 -8 4 -30 -1 -47
-10 -38 -20 -50 -13 -25 15 21 24 58 26 75 5z m550 5 c0 -5 -10 -11 -22 -11
-17 -1 -19 -2 -5 -6 12 -3 15 -11 11 -29 -4 -14 -2 -24 5 -24 6 0 11 -7 11
-15 0 -8 -7 -15 -15 -15 -9 0 -15 9 -15 23 0 29 -26 67 -48 68 -14 0 -13 2 3
9 28 12 75 12 75 0z m-2515 -50 c0 -27 -3 -50 -7 -50 -5 0 -8 -4 -8 -10 0 -5
7 -7 15 -4 14 6 55 -48 55 -73 0 -23 -18 -14 -24 12 -8 30 -36 34 -36 4 0 -13
8 -23 20 -26 16 -4 18 -8 9 -19 -10 -12 -8 -13 6 -8 13 5 16 4 10 -5 -5 -8
-19 -11 -39 -7 -20 4 -39 1 -53 -9 -12 -8 -29 -12 -38 -9 -12 5 -13 9 -5 14 9
5 9 9 1 14 -6 4 -11 2 -11 -5 0 -8 -25 -10 -92 -6 -79 5 -84 4 -34 -4 32 -5
61 -10 63 -12 2 -2 -30 -4 -72 -5 -41 0 -75 4 -75 9 0 5 5 9 10 9 6 0 10 5 10
11 0 6 9 22 20 36 25 33 25 41 -1 45 -12 2 -31 15 -42 30 -17 23 -19 34 -11
65 7 32 14 39 38 41 30 4 71 -26 82 -61 4 -14 9 -16 17 -8 6 6 47 11 94 11
l83 0 0 28 c0 23 7 42 14 42 1 0 1 -22 1 -50z m675 35 c0 -9 -75 -43 -110 -49
-26 -5 -20 -1 23 18 33 13 61 27 65 30 7 7 22 8 22 1z m1785 -26 c20 -20 20
-20 -5 -17 -21 3 -26 -2 -28 -24 -2 -16 -8 -28 -14 -28 -7 0 -9 17 -6 45 3 24
2 42 -3 39 -5 -3 -9 -23 -9 -45 0 -35 -3 -39 -25 -39 -14 0 -25 5 -25 10 0 6
5 9 12 8 6 -2 14 6 16 17 11 53 22 66 45 60 12 -4 31 -16 42 -26z m-2505 9 c0
6 5 12 10 12 6 0 10 -9 10 -20 0 -15 -7 -20 -25 -20 -27 0 -28 1 -19 25 5 13
8 14 15 3 7 -10 9 -10 9 0z m734 -23 c9 -37 8 -39 -42 -51 -26 -6 -56 -14 -68
-17 -16 -6 -23 -2 -32 18 -10 21 -9 25 6 25 9 0 40 11 67 24 63 31 62 31 69 1z
m1320 6 c18 -19 16 -21 -50 -51 -37 -16 -65 -33 -62 -36 3 -3 28 6 55 19 53
27 102 44 91 32 -15 -16 -142 -65 -149 -57 -3 4 -9 21 -12 38 -6 30 -3 33 41
53 59 25 65 26 86 2z m-934 -52 c0 -54 -11 -63 -28 -24 -15 33 -15 58 0 73 19
19 28 3 28 -49z m-85 21 c9 -16 22 -30 30 -30 9 0 12 -6 8 -15 -3 -9 -11 -14
-17 -12 -6 2 -16 -5 -23 -17 -11 -19 -12 -18 -13 15 0 23 -7 42 -20 54 -20 18
-20 17 -20 -11 0 -20 3 -25 9 -16 6 10 10 8 14 -9 9 -35 -6 -42 -32 -15 -22
23 -22 25 -7 55 21 40 51 40 71 1z m-749 -62 l-13 -30 -6 31 c-4 17 -2 43 5
59 l11 27 8 -28 c5 -18 3 -39 -5 -59z m1158 66 c3 -9 5 -28 5 -42 -1 -21 -2
-23 -6 -7 -3 11 -14 26 -24 33 -11 7 -19 17 -19 23 0 15 37 10 44 -7z m-869
-23 c17 -34 8 -45 -28 -32 -30 12 -41 27 -33 46 9 26 44 17 61 -14z m818 1
c-2 -6 5 -12 14 -12 9 0 13 -3 10 -7 -4 -3 -2 -12 4 -20 9 -10 8 -17 -1 -28
-19 -22 -5 -45 28 -45 37 0 46 -10 24 -26 -16 -12 -15 -13 4 -11 22 1 29 27
10 39 -6 5 -1 8 12 8 15 0 22 -5 19 -12 -2 -7 3 -18 11 -24 8 -6 12 -16 8 -22
-11 -18 -50 -14 -77 6 -13 10 -44 30 -69 43 -52 28 -60 36 -53 58 4 14 3 14
-6 1 -9 -13 -11 -12 -11 5 0 32 29 67 53 63 12 -2 21 -9 20 -16z m175 -7 c-1
-14 -7 -25 -13 -26 -5 0 -1 -4 10 -9 11 -5 15 -9 8 -9 -6 -1 -9 -9 -6 -19 2
-10 -2 -24 -10 -30 -12 -10 -21 -8 -44 12 -17 14 -34 22 -39 18 -5 -4 0 4 12
18 12 14 24 33 27 43 8 22 27 22 27 0 0 -16 14 -10 16 8 4 30 14 25 12 -6z
m40 -13 c2 -12 -2 -22 -8 -22 -6 0 -8 5 -5 10 3 6 1 10 -4 10 -6 0 -11 7 -11
16 0 23 24 11 28 -14z m28 2 c-3 -8 -2 -12 4 -9 20 12 9 -11 -18 -36 -38 -37
-51 -43 -45 -21 2 10 14 22 26 27 15 7 21 17 19 33 -2 12 2 22 8 22 7 0 9 -7
6 -16z m52 4 c7 -7 12 -25 12 -41 0 -22 -7 -31 -32 -42 -18 -7 -37 -17 -41
-21 -4 -5 -20 -10 -35 -12 -38 -5 -41 -12 -4 -12 17 0 38 7 46 16 12 12 16 12
17 2 0 -10 2 -10 6 0 2 6 9 12 15 12 6 0 7 -7 4 -16 -6 -14 0 -16 39 -12 25 3
45 2 45 -3 0 -5 -4 -9 -10 -9 -5 0 -7 -7 -4 -15 7 -17 25 -21 22 -4 -2 6 5 13
15 14 24 4 21 -22 -3 -30 -38 -12 -194 -1 -212 15 -28 23 -21 48 20 69 20 11
49 33 65 50 25 27 26 31 10 40 -15 8 -15 10 -2 11 8 0 20 -5 27 -12z m110 -18
c3 -20 1 -22 -10 -13 -11 10 -13 6 -10 -22 3 -26 8 -32 20 -28 11 5 13 3 6 -8
-9 -14 -10 -19 -13 -40 -1 -8 -6 -8 -16 1 -11 9 -12 16 -5 25 5 6 7 15 3 18
-11 12 -23 8 -23 -7 0 -17 -33 -31 -38 -17 -2 6 -10 11 -18 11 -9 0 -12 5 -9
10 3 6 15 10 26 10 11 0 18 4 15 9 -3 5 1 14 9 21 8 7 15 20 15 30 0 39 43 39
48 0z m332 5 l23 -24 -49 -21 c-27 -11 -70 -31 -96 -44 l-47 -24 -10 30 c-6
17 -11 33 -11 35 0 6 143 72 156 73 6 0 21 -11 34 -25z m158 -5 c4 -12 2 -13
-9 -2 -30 28 -79 -2 -79 -48 0 -32 -27 -48 -90 -52 -25 -2 -51 -9 -59 -16 -7
-7 -20 -11 -28 -8 -8 3 -25 -1 -39 -10 -34 -23 -30 0 4 25 30 21 162 77 175
73 4 -1 7 3 7 8 0 6 9 19 21 31 24 24 90 24 97 -1z m-1212 -37 c-9 -16 -16
-22 -16 -13 -1 10 -4 9 -10 -5 -8 -18 -9 -17 -9 8 -1 16 3 26 8 23 5 -3 14 1
21 9 20 24 23 10 6 -22z m163 11 c21 -24 21 -25 2 -19 -14 4 -23 0 -32 -16
-12 -22 -12 -22 -24 7 -12 28 -12 29 -19 6 -4 -12 -6 -38 -5 -57 5 -50 -8 -53
-22 -6 -10 34 -10 44 3 58 8 10 18 26 21 36 9 25 50 21 76 -9z m1036 14 c13
-39 8 -53 -23 -74 -19 -13 -40 -20 -53 -17 -19 5 -19 7 -5 15 9 5 16 18 16 29
0 32 19 59 41 59 11 0 22 -6 24 -12z m-2145 -25 c0 -25 -1 -26 -16 -11 -9 9
-13 21 -10 27 13 20 26 11 26 -16z m1253 -53 l62 -35 -35 -5 c-33 -5 -35 -7
-38 -47 -2 -33 -7 -43 -21 -43 -9 0 -25 -6 -34 -13 -15 -10 -11 -12 26 -9 42
4 45 2 45 -22 0 -26 -23 -54 -34 -43 -9 9 4 39 14 33 5 -3 9 1 9 9 0 18 -13
20 -23 4 -3 -6 -17 -8 -30 -5 -23 6 -23 6 4 -21 24 -24 25 -28 9 -31 -25 -5
-35 7 -17 19 11 7 9 8 -10 7 -23 -3 -25 0 -24 36 1 27 -1 34 -8 25 -7 -10 -8
-6 -4 13 4 17 1 32 -10 42 -19 19 -26 20 -42 4 -8 -8 -12 -9 -12 -1 0 6 -3 18
-6 27 -4 12 0 16 17 17 19 1 20 2 5 6 -50 13 -38 -68 17 -112 l32 -25 -35 -1
c-19 0 -51 -7 -70 -15 -35 -14 -35 -14 53 1 49 9 47 -1 -3 -15 -26 -7 -38 -15
-34 -22 5 -8 1 -9 -10 -5 -10 4 -15 3 -11 -3 3 -6 1 -10 -5 -10 -9 0 -50 57
-50 70 0 3 19 5 43 4 25 -2 30 0 12 2 -57 9 -62 14 -36 35 15 12 32 17 50 14
l26 -5 -27 11 c-32 12 -33 18 -14 44 8 12 12 34 9 59 -3 31 -2 37 6 26 6 -8 8
-24 5 -35 -5 -19 -4 -19 9 -2 8 9 23 17 33 17 15 0 16 2 5 9 -11 7 -8 11 10
17 13 4 31 7 38 5 13 -2 13 -1 0 15 -12 16 -12 17 4 11 10 -4 17 -2 18 6 0 7
5 3 10 -9 6 -11 38 -36 72 -54z m-278 25 c-42 -36 -55 -42 -55 -25 0 6 5 10
10 10 6 0 16 11 22 25 8 17 19 25 37 25 25 0 25 -1 -14 -35z m353 23 c-2 -8 5
-12 17 -10 11 2 17 1 14 -2 -11 -12 -58 -16 -64 -7 -3 6 3 14 12 20 23 13 23
13 21 -1z m1087 2 c3 -5 24 -10 46 -10 28 0 39 -4 36 -12 -2 -8 -16 -12 -32
-10 -37 4 -80 -14 -94 -41 -9 -18 -10 -18 -5 -2 4 11 8 32 9 48 2 15 3 29 4
32 2 9 30 5 36 -5z m-55 -9 c0 -5 -3 -23 -6 -40 -6 -26 -11 -31 -33 -29 -23 2
-26 7 -28 40 -2 37 -2 38 32 38 19 0 35 -4 35 -9z m-1454 -117 c4 -60 7 -131
8 -157 1 -31 6 -51 16 -57 11 -7 8 -10 -16 -10 -27 0 -34 -7 -64 -60 -34 -60
-70 -103 -70 -82 0 5 20 43 45 83 25 40 45 78 45 84 0 7 9 20 20 30 20 18 28
51 10 40 -6 -4 -8 -10 -5 -15 3 -5 1 -11 -5 -15 -6 -4 -10 7 -10 28 0 56 13
248 16 244 2 -2 7 -53 10 -113z m100 10 c4 -12 -1 -28 -12 -38 -9 -10 -20 -31
-23 -48 -4 -18 -12 -33 -19 -36 -16 -5 -16 25 1 31 6 3 2 6 -9 6 -20 1 -22 7
-23 65 -1 62 0 64 29 76 17 7 30 18 31 24 1 10 9 -17 25 -80z m714 47 c0 -14
-5 -33 -10 -41 -7 -11 -10 -7 -11 20 l-1 35 -8 -30 -8 -30 -1 36 c0 20 2 38 5
42 13 13 34 -7 34 -32z m-1676 7 c13 -52 6 -70 -54 -130 -33 -34 -60 -67 -60
-74 0 -8 -4 -14 -10 -14 -5 0 -10 20 -10 45 0 25 -5 45 -11 45 -5 0 -7 5 -3
12 6 9 9 9 12 0 11 -33 72 13 72 55 0 13 6 23 13 24 6 0 2 5 -10 11 -32 15
-29 26 10 37 45 13 44 13 51 -11z m2435 -4 c24 -30 27 -54 9 -72 -21 -21 -28
-13 -28 27 0 22 -4 42 -8 45 -5 3 -6 -8 -4 -25 3 -23 0 -29 -13 -29 -14 0 -16
6 -11 32 7 36 5 35 -17 -10 -8 -18 -11 -30 -6 -27 5 4 12 -1 15 -9 3 -9 15
-16 25 -16 10 0 19 -7 19 -15 0 -8 0 -18 1 -22 0 -5 11 -14 25 -21 24 -13 25
-16 18 -75 -3 -34 -7 -70 -7 -79 -1 -9 -4 -15 -8 -12 -10 6 -30 -22 -22 -30 4
-3 -13 -27 -37 -51 -24 -25 -46 -41 -49 -37 -4 4 -15 12 -26 18 -11 6 -21 23
-23 38 -4 35 14 33 21 -3 11 -53 33 -45 67 27 17 37 41 77 52 89 28 30 31 67
7 89 -10 9 -19 12 -19 6 0 -6 5 -14 10 -17 23 -14 9 -54 -31 -89 -41 -35 -66
-39 -54 -8 6 15 -10 32 -30 32 -5 -1 -1 -7 9 -15 11 -8 15 -15 8 -15 -6 0 -9
-7 -6 -15 4 -8 1 -15 -6 -15 -7 0 -10 8 -7 20 4 17 0 20 -25 20 -16 0 -38 -4
-48 -10 -13 -7 -19 -6 -24 6 -3 8 -10 13 -16 9 -20 -12 -48 13 -43 40 4 19 1
25 -12 25 -12 0 -16 -6 -12 -19 6 -23 -7 -48 -17 -32 -4 6 -1 11 6 11 8 1 6 6
-6 15 -10 7 -15 18 -12 23 3 5 0 15 -8 21 -17 14 -66 -2 -66 -22 0 -9 -12 -11
-42 -8 l-43 5 40 7 c37 6 35 6 -20 8 -56 2 -58 3 -36 15 14 8 43 12 65 10 37
-3 38 -2 11 5 -16 5 -23 9 -14 10 9 0 32 3 50 6 26 4 30 3 14 -4 -16 -8 -11
-10 25 -10 29 -1 40 -4 31 -10 -7 -5 -9 -11 -4 -14 6 -4 23 7 39 24 23 24 35
29 67 27 37 -2 61 14 54 36 -6 20 -29 17 -34 -3 -3 -12 -11 -21 -18 -21 -19 0
-7 34 21 61 17 16 36 23 60 22 22 -1 37 4 41 13 6 15 50 43 70 44 6 0 21 -12
32 -26z m-321 -77 c7 3 12 -4 12 -19 0 -18 -2 -20 -10 -8 -5 8 -10 11 -10 5 0
-5 -7 -1 -15 9 -8 11 -15 15 -15 9 0 -13 27 -43 38 -43 13 1 46 30 34 30 -7 0
-12 5 -12 10 0 6 14 9 30 8 17 -1 30 -5 30 -8 0 -14 -72 -60 -94 -60 -21 0
-26 5 -28 28 -1 15 -2 35 -3 44 0 9 -4 20 -8 24 -11 12 -8 42 6 47 7 2 16 -12
22 -38 6 -26 15 -40 23 -38z m-129 48 c7 4 11 -4 11 -19 0 -14 -4 -26 -10 -26
-5 0 -7 8 -4 18 5 14 4 15 -5 2 -9 -13 -12 -12 -17 8 -4 12 -14 22 -23 22 -14
0 -14 -2 -1 -11 12 -9 11 -10 -8 -6 -12 3 -20 1 -17 -3 3 -5 1 -11 -5 -15 -7
-4 -7 -12 0 -25 8 -14 6 -22 -8 -32 -10 -7 -22 -20 -27 -28 -6 -11 -4 -11 11
2 10 9 41 26 69 38 51 22 68 37 61 56 -2 6 4 15 14 22 16 9 18 6 24 -28 3 -21
8 -45 12 -53 4 -11 -8 -17 -54 -25 -68 -12 -132 -37 -132 -51 0 -11 15 -16 94
-30 56 -10 75 -17 65 -24 -11 -8 -97 -47 -103 -47 -3 0 -7 12 -7 28 -1 20 -2
22 -6 7 -3 -11 -9 -25 -15 -32 -11 -13 -38 -6 -38 10 0 6 -7 19 -17 29 -15 17
-15 18 10 18 14 0 28 4 31 9 4 5 -12 7 -36 4 -42 -6 -43 -6 -25 14 19 22 14
33 -16 33 -16 0 -18 -5 -12 -27 5 -22 4 -24 -7 -15 -8 6 -23 9 -35 6 -11 -3
-24 -1 -27 5 -5 7 2 11 18 11 19 0 26 7 31 30 4 17 13 30 20 30 19 0 29 38 15
55 -19 23 -1 37 41 31 23 -3 39 -1 39 5 0 19 44 28 62 12 9 -8 22 -12 27 -8z
m-2091 -2 c-4 -20 -54 -31 -70 -15 -17 17 1 32 38 32 28 0 35 -4 32 -17z
m-175 -8 l38 -6 -38 -47 c-21 -25 -33 -43 -27 -39 6 3 20 -16 33 -48 35 -83
56 -105 99 -104 34 2 35 2 7 6 -16 3 -36 10 -44 16 -15 13 -71 129 -71 147 0
24 73 -47 95 -91 20 -43 21 -48 6 -52 -11 -3 -9 -5 6 -6 20 -1 21 3 16 37 -9
54 -9 57 2 62 6 3 12 -21 15 -58 7 -94 -12 -103 -100 -47 -36 24 -66 35 -90
35 -32 0 -41 6 -69 45 -41 57 -59 101 -53 130 4 21 11 24 56 27 53 3 57 3 119
-7z m193 -41 c-7 -26 -36 -33 -36 -8 0 8 8 26 18 39 19 26 28 11 18 -31z m-97
27 c10 -10 24 -20 32 -23 23 -8 1 -38 -28 -39 l-28 -1 25 -8 25 -8 -25 -1
c-21 -1 -50 12 -79 36 -4 3 49 63 56 63 2 0 11 -8 22 -19z m1521 8 c8 -1 23 2
34 6 14 6 17 5 14 -6 -3 -8 1 -21 9 -30 12 -14 9 -17 -34 -22 -54 -7 -127 -26
-121 -32 2 -3 28 2 58 10 64 17 110 19 110 5 0 -5 -6 -10 -12 -10 -7 0 -43 -5
-81 -10 -51 -8 -72 -7 -87 2 -27 17 -25 32 5 46 14 6 25 20 25 29 0 13 -2 15
-8 5 -5 -7 -16 -10 -25 -6 -32 12 -7 22 45 18 29 -2 60 -4 68 -5z m122 -30 c6
16 183 18 202 2 12 -10 13 -17 6 -26 -7 -9 -7 -15 -1 -19 5 -4 12 2 14 11 4
14 5 13 6 -4 1 -30 -20 -34 -48 -9 -13 11 -21 15 -17 9 4 -8 2 -13 -6 -13 -7
-1 0 -7 17 -14 35 -15 25 -23 -33 -25 -24 0 -52 -5 -62 -11 -29 -15 -59 -12
-71 9 -7 11 -19 16 -31 13 -10 -2 -18 0 -18 5 0 5 19 10 42 11 23 1 47 7 53
13 7 8 0 10 -27 5 -28 -5 -38 -3 -38 6 0 7 -10 18 -22 23 -12 6 -24 16 -26 23
-3 11 3 10 26 -2 17 -9 32 -12 34 -7z m301 7 c11 -6 17 -19 17 -42 0 -37 -18
-45 -44 -19 -8 8 -19 15 -24 15 -8 0 -32 42 -32 56 0 7 60 -1 83 -10z m206 0
c17 -21 -5 -31 -25 -12 -9 9 -20 13 -26 10 -7 -4 -8 -2 -4 4 10 16 41 15 55
-2z m-1885 -30 c-6 -24 18 -84 40 -99 6 -4 -9 -4 -34 -1 -50 8 -65 14 -31 14
20 0 21 1 7 16 -22 22 -21 81 2 87 9 3 18 5 20 6 1 0 0 -10 -4 -23z m194 -11
c-1 -1 -23 -6 -46 -10 -39 -6 -43 -5 -40 11 4 24 81 37 86 16 2 -8 2 -15 0
-17z m452 20 c-15 -18 -51 -16 -58 3 -2 8 8 12 33 12 33 0 36 -2 25 -15z m6
-33 c-14 -15 -26 -21 -26 -15 0 16 44 60 49 49 2 -4 -8 -20 -23 -34z m-613 31
c4 -3 -1 -12 -11 -19 -15 -13 -15 -14 7 -11 13 1 26 -4 28 -10 6 -18 -32 -17
-46 1 -18 22 3 59 22 39z m98 -60 c0 -11 3 -13 6 -5 2 6 17 12 33 12 24 0 27
-3 23 -21 -5 -18 -11 -21 -46 -16 -27 4 -36 2 -26 -4 7 -5 24 -9 37 -9 13 0
21 -4 17 -9 -3 -5 -1 -12 5 -16 13 -8 13 -45 1 -45 -15 0 -26 23 -13 28 17 5
4 22 -17 22 -10 0 -25 8 -33 18 -19 23 -21 62 -2 62 8 0 14 -8 15 -17z m155
-6 l22 -23 -29 -32 -29 -32 0 55 c0 30 3 55 8 55 4 0 17 -11 28 -23z m1027 3
c-6 -24 -59 -65 -117 -90 -46 -19 -66 -43 -66 -80 0 -14 -4 -19 -12 -14 -7 4
-33 7 -58 6 -33 -2 -41 0 -30 7 8 6 27 11 42 11 17 0 31 8 38 20 7 14 7 20 0
20 -5 0 -10 -4 -10 -9 0 -20 -41 -23 -62 -4 -11 10 -40 25 -64 33 -24 8 -45
20 -46 25 -2 6 14 19 34 30 l37 20 24 -23 c14 -13 24 -31 22 -40 -1 -9 0 -11
2 -4 6 17 13 15 29 -5 12 -17 13 -16 22 7 21 54 82 90 155 90 31 0 38 3 27 10
-12 8 -9 10 12 10 21 0 25 -4 21 -20z m277 -17 c-10 -27 -9 -27 5 -8 14 17 17
18 25 5 17 -26 11 -37 -15 -33 -35 7 -50 28 -33 47 21 24 28 19 18 -11z m-211
-14 c27 -20 30 -20 86 -5 40 10 64 12 77 5 25 -13 23 -19 -22 -55 -44 -36 -79
-36 -108 0 -9 11 -34 29 -54 38 -39 18 -50 38 -23 38 9 0 28 -9 44 -21z
m-1481 -63 c33 -36 66 -82 72 -103 7 -21 19 -42 26 -46 8 -4 14 -16 14 -25 0
-15 -2 -15 -10 -2 -6 10 -10 11 -10 3 0 -19 -27 -15 -34 5 -10 26 -130 222
-134 218 -5 -6 29 -69 82 -156 25 -41 46 -77 46 -81 0 -4 -20 -18 -44 -32
l-44 -25 -37 97 c-33 90 -35 100 -25 146 12 53 17 65 29 65 5 0 36 -29 69 -64z
m2089 50 c-3 -8 1 -17 9 -20 17 -6 19 -42 3 -52 -12 -7 -31 15 -25 31 1 6 -4
15 -13 22 -14 11 -14 12 2 13 9 0 17 5 17 10 0 6 3 10 6 10 3 0 4 -6 1 -14z
m-1624 -28 c17 -23 19 -34 11 -64 -7 -29 -16 -39 -43 -48 -19 -6 -36 -17 -39
-24 -3 -11 3 -10 26 2 17 9 42 16 54 16 13 0 41 9 63 20 27 14 33 20 19 20
-11 0 -25 -5 -31 -11 -9 -9 -13 -2 -18 25 -4 20 -16 47 -27 61 -31 39 -2 29
47 -16 37 -34 49 -40 72 -34 23 5 25 4 14 -9 -7 -9 -18 -13 -24 -9 -7 4 -8 0
-4 -11 5 -13 1 -19 -12 -23 -12 -3 -17 -11 -14 -19 3 -8 -1 -14 -9 -14 -9 0
-28 -11 -44 -25 -16 -14 -34 -30 -41 -35 -21 -17 -79 -11 -97 9 -39 43 -29
132 21 192 30 35 48 34 76 -3z m986 18 c15 -8 34 -22 42 -32 13 -16 12 -16 -8
-3 -18 11 -27 11 -42 2 -24 -15 -57 6 -48 31 8 20 20 20 56 2z m-1199 -38 c0
-4 -6 -5 -13 -2 -17 6 -42 -40 -32 -57 5 -7 4 -10 -2 -6 -6 4 -16 20 -23 37
-11 26 -10 33 5 50 16 18 19 18 41 2 13 -9 24 -20 24 -24z m714 33 c6 -10 -41
-57 -49 -49 -3 3 0 17 6 32 12 26 33 34 43 17z m861 -10 c18 -10 35 -32 41
-52 7 -19 16 -32 20 -30 5 3 10 -3 12 -12 4 -18 -13 -23 -23 -7 -4 6 -11 8
-16 4 -17 -10 -67 18 -62 36 3 10 -1 17 -10 17 -8 0 -12 -8 -10 -21 3 -16 -1
-22 -16 -23 -23 -2 -30 32 -8 40 7 3 5 6 -5 6 -10 1 -18 8 -18 16 0 22 -22 28
-55 15 -25 -9 -27 -9 -15 5 9 11 26 14 62 12 27 -2 51 0 54 4 7 12 14 11 49
-10z m-1192 -23 c21 -11 20 -12 -18 -20 -35 -8 -42 -6 -68 21 l-30 29 47 -9
c25 -5 56 -14 69 -21z m91 6 c3 -9 6 -39 5 -67 l0 -52 -20 55 c-19 53 -19 80
0 80 5 0 12 -7 15 -16z m266 3 c0 -7 -7 -23 -16 -35 -9 -13 -14 -26 -11 -29 4
-3 32 32 42 54 0 1 11 0 23 -4 23 -6 23 -6 2 -20 -25 -17 -26 -41 -2 -59 15
-11 13 -14 -21 -29 -21 -8 -41 -14 -45 -11 -5 3 -13 -8 -19 -24 -9 -23 -8 -28
3 -23 8 3 14 9 14 14 0 5 18 18 40 29 l39 20 11 -38 c6 -20 14 -75 17 -122 7
-106 -9 -133 -84 -145 -36 -6 -43 -9 -28 -15 19 -7 19 -7 -4 -19 -12 -7 -20
-15 -17 -18 3 -3 13 0 22 8 9 8 35 23 58 34 28 14 47 32 60 59 18 36 18 48 8
115 -6 42 -14 84 -17 94 -4 9 -3 17 3 17 6 0 14 -9 17 -20 3 -11 11 -20 16
-20 6 0 6 7 1 18 -6 12 -3 22 10 35 18 17 19 16 30 -8 12 -27 2 -48 -12 -25
-5 8 -12 11 -16 7 -8 -7 14 -37 28 -37 5 0 12 8 15 18 13 34 38 41 46 12 4
-14 14 -20 35 -20 37 0 49 15 30 37 -11 15 -11 16 5 10 10 -4 23 -7 28 -7 5 0
9 -6 9 -14 0 -16 27 -30 53 -27 9 1 17 -4 17 -11 0 -9 3 -9 10 2 8 13 10 13
10 -1 0 -20 -46 -31 -90 -23 -34 7 -86 -11 -94 -32 -3 -8 -2 -25 3 -37 5 -13
5 -43 1 -68 -5 -26 -5 -48 1 -53 5 -6 9 -19 9 -29 0 -14 -4 -17 -17 -12 -109
47 -146 44 -169 -10 -15 -37 -47 -52 -83 -40 -12 4 -21 2 -21 -4 0 -6 19 -11
43 -11 40 0 44 -2 62 -42 15 -32 28 -45 53 -53 17 -5 32 -13 32 -17 0 -18 -81
-7 -126 17 -26 14 -52 25 -59 25 -7 0 -25 19 -41 41 l-28 41 -8 -31 c-6 -20
-19 -36 -41 -47 -17 -9 -43 -27 -57 -40 l-26 -24 2 68 c1 37 0 54 -3 39 -3
-21 -14 -33 -39 -43 -38 -16 -202 -31 -169 -15 11 5 17 10 13 10 -4 1 -3 12 2
25 12 33 -9 49 -60 44 -59 -5 -56 0 33 73 36 31 47 61 26 75 -6 3 -16 1 -22
-5 -8 -8 -6 -11 6 -11 9 0 17 -5 17 -11 0 -5 -4 -8 -10 -4 -5 3 -17 -9 -27
-27 l-18 -33 -5 70 c-7 75 -26 126 -50 133 -10 2 -11 1 -3 -5 13 -9 33 -57 33
-79 0 -18 -29 -18 -53 0 -29 22 -16 106 16 106 8 0 26 -13 41 -29 20 -21 26
-35 21 -50 -6 -20 -5 -20 18 3 26 26 83 46 130 46 31 0 97 -30 116 -54 8 -9
18 -16 24 -16 6 0 8 3 4 6 -11 11 83 84 109 84 61 0 88 -90 38 -129 -32 -25
-76 -27 -95 -4 -11 13 -11 17 -1 20 6 3 12 12 12 21 0 10 7 30 15 46 16 30 16
30 -5 11 -11 -10 -20 -26 -20 -36 0 -10 -7 -25 -16 -34 -14 -14 -14 -18 -1
-39 16 -23 15 -24 -21 -30 -20 -3 -57 -16 -82 -28 -46 -22 -53 -25 -81 -27 -9
0 -16 -7 -16 -13 0 -9 22 -14 66 -16 36 -1 83 -7 104 -12 26 -5 36 -5 30 1 -6
6 -41 14 -79 18 l-69 7 65 7 c116 12 127 16 40 13 l-85 -3 43 19 c24 11 59 22
78 25 31 5 35 3 49 -30 17 -42 41 -62 32 -27 -4 16 -1 23 14 27 22 6 22 8 9
34 -9 16 -7 21 14 30 38 18 63 97 36 114 -7 4 -5 14 5 28 17 24 19 45 6 66 -8
13 -12 13 -26 1 -22 -18 -46 -21 -62 -8 -10 8 -9 16 7 38 22 32 26 45 8 34 -7
-4 -8 -3 -4 5 4 6 11 9 15 6 5 -2 16 4 25 14 14 15 15 23 5 45 -10 22 -9 29 6
46 21 23 35 26 35 7z m434 -27 c8 0 16 -6 19 -12 3 -10 10 -10 30 1 15 8 30
11 34 8 3 -4 -1 -7 -10 -7 -9 0 -17 -4 -17 -10 0 -15 30 -12 36 4 4 11 13 12
40 4 30 -8 43 -5 87 16 53 27 77 32 77 17 0 -11 -25 -21 -51 -21 -17 0 -19 -5
-14 -34 6 -29 3 -36 -15 -46 -31 -17 -66 -9 -62 14 2 10 -1 15 -6 12 -6 -3
-12 1 -15 9 -4 10 -1 12 10 8 11 -4 14 -2 9 5 -4 7 -17 12 -28 12 -12 0 -18
-3 -15 -7 4 -3 -1 -12 -11 -20 -11 -9 -13 -16 -6 -19 7 -3 10 -15 7 -27 -5
-21 -5 -22 10 -2 8 10 13 26 10 35 -4 12 -3 12 6 -1 7 -12 7 -24 -2 -43 -14
-31 -17 -32 -50 -6 -30 24 -37 25 -63 5 -18 -14 -18 -15 6 -7 17 7 33 4 57
-11 18 -10 33 -20 33 -22 0 -2 -19 1 -42 7 -23 5 -51 7 -62 5 -12 -1 3 -7 32
-11 29 -4 51 -11 49 -15 -2 -3 -9 -20 -16 -37 -9 -25 -17 -30 -35 -27 -17 4
-29 -3 -45 -22 l-21 -28 0 36 c0 20 5 39 10 42 13 8 13 45 -1 45 -6 0 -8 8 -4
19 3 11 -1 25 -10 34 -8 9 -15 25 -15 36 0 11 -13 29 -30 41 l-29 21 -27 -41
c-29 -44 -44 -51 -44 -20 0 28 46 73 69 67 10 -2 28 3 41 13 22 16 24 16 41
-1 11 -11 25 -19 33 -19z m-1742 2 c34 -21 99 -85 136 -136 18 -23 22 -42 22
-102 0 -72 -1 -74 -25 -74 -19 0 -28 -8 -40 -36 -8 -20 -15 -47 -15 -59 0 -30
47 -68 75 -61 36 9 46 -6 43 -69 -3 -56 -4 -59 -33 -67 -16 -4 -46 -16 -66
-27 -20 -11 -75 -27 -124 -35 l-87 -14 6 52 c15 120 9 111 92 132 45 11 74 23
74 31 0 16 7 17 -68 -7 -35 -11 -68 -20 -73 -20 -15 0 1 169 24 245 11 39 22
104 23 145 2 64 -1 78 -18 97 -22 24 -41 22 -32 -2 5 -12 1 -12 -25 -2 -35 13
-40 24 -13 29 38 9 92 0 124 -20z m404 -33 c18 -70 17 -107 -2 -55 -8 21 -19
45 -24 51 -10 12 -3 71 7 62 2 -3 11 -29 19 -58z m20 52 c-3 -5 1 -12 10 -15
8 -3 12 -2 9 4 -3 6 1 10 9 10 20 0 20 1 -3 -51 -12 -27 -22 -38 -25 -29 -2 8
-9 29 -14 47 -8 23 -7 33 1 37 18 7 19 7 13 -3z m-328 -46 c20 -14 42 -25 48
-25 6 0 23 -44 37 -98 l26 -99 -20 -39 -20 -39 6 56 c11 90 -6 130 -88 214
-71 72 -67 83 11 30z m2395 23 c9 -7 13 -18 9 -24 -8 -13 -52 -29 -52 -19 0 3
10 10 23 15 21 8 20 9 -5 7 -16 -1 -28 -5 -28 -10 0 -4 -4 -5 -10 -2 -17 10
-11 25 13 35 30 12 31 12 50 -2z m-1467 -145 c-12 -7 -34 -12 -51 -13 -25 0
-34 7 -51 40 -19 33 -20 41 -8 51 9 7 14 8 14 1 0 -17 37 -24 61 -12 17 10 20
18 15 48 -3 21 4 7 18 -33 l22 -70 -20 -12z m388 131 c6 2 8 1 5 -1 -4 -2 -2
-17 4 -32 6 -16 7 -36 2 -47 -8 -18 -8 -18 -13 1 -6 31 -23 44 -20 16 2 -13
-3 -26 -9 -28 -16 -6 -17 31 -3 58 7 11 7 19 1 19 -5 0 -12 -6 -14 -12 -3 -8
-6 -6 -6 5 -1 9 6 17 15 17 9 0 12 5 8 13 -5 9 -4 9 6 0 7 -6 18 -10 24 -9z
m636 0 c0 -9 -5 -12 -12 -8 -6 4 -4 -3 5 -17 21 -30 21 -48 0 -78 l-16 -24
-14 27 c-7 14 -18 26 -24 26 -6 0 -1 -13 10 -28 16 -23 18 -35 11 -67 -7 -31
-6 -41 7 -50 15 -11 15 -15 -3 -46 -23 -39 -51 -47 -105 -29 -30 10 -42 22
-59 59 -13 28 -19 36 -15 19 6 -32 0 -36 -14 -10 -8 14 -4 27 15 55 31 47 62
48 116 6 50 -40 61 -31 12 9 -42 35 -41 53 6 80 16 9 30 19 30 22 0 9 39 70
45 70 3 0 5 -7 5 -16z m-2148 -11 c10 -9 18 -19 18 -23 0 -10 -69 23 -70 33 0
13 33 7 52 -10z m612 -19 c16 -20 25 -39 20 -43 -5 -3 -9 -26 -9 -51 l0 -44
-38 -1 c-39 -2 -37 -4 -52 67 -3 18 15 68 26 68 3 0 13 -16 23 -36 9 -20 19
-34 22 -31 3 2 -4 20 -15 38 -21 34 -28 69 -13 69 4 0 20 -16 36 -36z m480 12
c9 -13 7 -20 -9 -32 -22 -17 -35 -14 -49 10 -9 13 -7 20 9 32 22 17 35 14 49
-10z m1546 8 c0 -9 3 -14 8 -12 4 2 19 10 35 18 22 11 30 11 40 1 9 -10 9 -15
-3 -24 -8 -7 -15 -25 -15 -42 0 -26 -3 -30 -25 -27 -13 1 -36 -2 -51 -7 -24
-8 -26 -7 -21 11 3 14 -2 26 -13 34 -10 8 -15 17 -12 21 4 3 18 -4 32 -17 14
-13 25 -19 25 -13 0 6 -6 16 -14 22 -8 7 -12 21 -9 31 6 24 23 27 23 4z
m-2592 -75 c1 -42 -3 -90 -10 -111 -12 -34 -13 -29 -13 77 0 129 18 156 23 34z
m1307 71 c4 -6 -4 -19 -18 -30 -13 -11 -30 -33 -37 -50 -9 -21 -25 -36 -51
-47 -35 -13 -38 -18 -33 -42 4 -14 10 -30 15 -35 9 -10 -17 -46 -32 -46 -4 0
-9 21 -11 48 -4 40 0 52 23 82 15 20 35 52 44 71 11 24 28 39 49 46 43 14 44
14 51 3z m393 -15 c0 -19 -4 -23 -13 -15 -8 7 -11 4 -10 -13 2 -12 8 -21 15
-19 8 2 10 -3 7 -13 -4 -9 -1 -15 8 -15 8 0 15 -4 15 -10 0 -5 7 -7 15 -4 8 4
15 2 15 -3 0 -18 -49 -13 -59 6 -6 10 -22 22 -36 25 -14 4 -25 11 -25 16 0 12
16 13 23 3 2 -5 2 -2 0 5 -3 13 26 61 38 62 4 0 7 -11 7 -25z m-532 -10 c-9
-14 -23 -36 -32 -50 -20 -31 -32 -25 -26 15 3 20 13 36 31 45 38 21 45 18 27
-10z m1320 1 c49 -23 73 -49 55 -61 -5 -3 -34 7 -66 21 -48 22 -67 26 -126 22
-50 -3 -69 0 -69 9 0 40 128 45 206 9z m278 9 c-4 -8 -10 -15 -15 -15 -5 0 -9
-10 -9 -22 0 -13 -4 -29 -9 -37 -11 -17 -31 -6 -31 17 0 15 2 15 10 2 8 -12
10 -10 10 8 0 13 10 32 23 43 27 23 28 23 21 4z m-2823 -15 l24 -20 -40 6
c-47 8 -49 9 -40 23 10 17 30 13 56 -9z m302 3 c-4 -9 -2 -14 3 -11 5 4 9 -4
10 -15 0 -12 4 -49 7 -82 l7 -60 -24 85 c-18 62 -21 87 -13 92 17 11 17 10 10
-9z m367 -41 c0 -42 -1 -44 -14 -26 -10 12 -11 21 -4 25 6 4 9 18 6 33 -3 14
-1 23 3 20 5 -3 9 -26 9 -52z m1550 18 c-32 -35 -50 -39 -43 -10 5 18 15 24
36 21 4 0 7 4 7 9 0 6 6 10 14 10 9 0 4 -11 -14 -30z m-422 -14 c9 -20 8 -24
-4 -22 -15 2 -34 23 -34 39 0 17 28 5 38 -17z m513 14 c12 -7 19 -21 19 -39 0
-39 -9 -43 -38 -21 -13 11 -38 20 -53 20 -33 0 -36 6 -12 32 18 20 54 23 84 8z
m-2327 -6 c9 -3 16 -15 16 -25 0 -17 -3 -18 -32 -6 -17 7 -33 18 -36 25 -4 13
26 16 52 6z m1646 -3 c0 -5 -7 -14 -15 -21 -12 -10 -18 -10 -30 0 -23 19 -18
30 15 30 17 0 30 -4 30 -9z m908 -21 c29 -12 52 -26 52 -31 0 -19 -22 -18 -62
3 -33 17 -60 22 -115 23 -40 0 -73 3 -73 7 0 34 117 33 198 -2z m-1766 -22 c9
-19 1 -23 -19 -10 -7 5 -10 17 -6 32 4 16 8 20 11 10 3 -8 9 -23 14 -32z m908
23 c0 -11 6 -21 13 -24 8 -3 6 -7 -5 -12 -21 -8 -48 0 -48 15 0 5 3 9 8 9 19
-3 23 2 12 16 -10 12 -10 15 4 15 9 0 16 -8 16 -19z m351 9 c5 0 9 -4 9 -10 0
-5 -13 -10 -30 -10 -29 0 -38 9 -23 24 4 3 13 4 21 1 7 -3 18 -5 23 -5z
m-1001 -47 c0 -7 -4 -13 -9 -13 -4 0 -24 -11 -43 -24 l-36 -24 -11 25 c-10 22
-8 27 16 46 15 12 34 25 42 28 17 7 41 -15 41 -38z m-640 -109 c0 0 -12 1 -27
4 -27 4 -28 5 -30 75 l-2 72 30 -75 c16 -41 29 -75 29 -76z m1858 120 c27 -6
62 -31 62 -44 0 -4 -13 -10 -30 -13 -16 -4 -30 -13 -30 -21 0 -7 -9 -16 -20
-19 -16 -4 -18 -1 -14 23 4 15 1 37 -5 49 -12 21 -45 29 -55 12 -4 -5 3 -7 13
-4 13 3 23 -2 31 -16 12 -23 5 -61 -10 -61 -5 0 -7 -7 -4 -15 10 -24 -13 -17
-35 11 -22 28 -29 60 -10 48 6 -4 9 1 7 13 -5 29 20 54 48 48 13 -3 36 -8 52
-11z m259 -11 c51 -17 58 -26 42 -51 -12 -19 -13 -19 -57 0 -25 11 -71 22
-102 25 -49 5 -57 8 -53 24 8 30 89 31 170 2z m222 3 c55 -29 65 -93 25 -162
-46 -78 -81 -90 -162 -53 -41 19 -44 23 -26 29 11 5 39 3 62 -3 37 -10 45 -9
69 9 32 24 42 74 22 110 -10 19 -9 26 1 39 10 12 9 15 -6 16 -40 3 -60 -4
-102 -33 -37 -26 -43 -34 -41 -61 2 -40 -9 -67 -27 -67 -8 0 -14 -4 -14 -8 0
-5 -12 -13 -27 -20 l-28 -11 32 5 c22 4 51 -3 93 -22 59 -26 95 -54 71 -54 -9
0 -9 -5 -1 -20 11 -20 9 -21 -151 -19 -166 1 -183 7 -81 30 28 7 52 16 52 20
0 12 -90 -15 -147 -45 -29 -14 -53 -31 -53 -37 0 -7 7 -8 18 -4 73 30 114 27
239 -20 37 -14 63 -21 57 -15 -6 6 -42 22 -80 35 l-69 25 113 0 112 0 0 -25
c0 -48 -81 -112 -237 -188 -181 -88 -192 -86 -227 31 -13 39 19 25 50 -23 32
-51 42 -54 79 -22 18 15 30 42 41 87 8 36 19 69 24 74 5 5 37 -7 75 -28 37
-20 69 -35 72 -32 6 5 -68 49 -119 70 -38 16 -143 22 -151 9 -3 -5 19 -6 49
-5 45 3 54 1 54 -13 0 -9 -15 -32 -34 -51 -30 -30 -40 -34 -89 -34 -29 0 -69
5 -87 12 -30 10 -32 12 -14 19 16 6 15 8 -8 8 -34 1 -44 17 -24 40 31 34 19
56 -32 54 -8 -1 -6 9 7 31 11 17 29 64 41 104 18 58 26 72 42 72 14 0 18 5 14
16 -9 24 58 48 113 40 56 -8 163 -37 157 -43 -2 -3 -41 5 -86 16 -85 21 -120
17 -120 -14 0 -12 5 -10 20 5 18 18 22 18 67 5 26 -8 76 -18 110 -21 l61 -7
13 44 c7 23 30 60 50 81 29 31 43 38 73 38 20 0 49 -6 65 -14z m-1925 -37 c11
-11 24 -19 30 -19 6 0 5 -5 -2 -12 -7 -7 -12 -22 -12 -33 0 -12 -9 -30 -20
-40 -17 -16 -24 -16 -47 -6 -27 12 -27 12 -11 -6 23 -25 14 -101 -10 -81 -11
10 -13 27 -8 88 11 127 15 142 39 134 11 -4 30 -15 41 -25z m377 -24 c7 -30
10 -57 7 -60 -10 -11 -67 30 -70 50 -2 13 -10 20 -25 19 -12 0 -24 5 -27 13
-4 9 4 13 27 13 18 0 39 5 47 10 25 16 28 12 41 -45z m149 6 c0 -11 -3 -11
-15 5 -15 19 -15 19 -8 -1 6 -18 5 -18 -10 -6 -15 12 -17 12 -12 -1 6 -16 -20
-32 -36 -22 -18 10 -9 45 14 53 27 10 67 -6 67 -28z m-390 -27 c0 -19 -14 -17
-34 5 -9 10 -31 22 -49 26 l-32 8 40 7 c32 5 43 2 58 -13 9 -11 17 -25 17 -33z
m113 42 c4 -9 -8 -17 -35 -25 -22 -7 -46 -15 -54 -18 -8 -3 -14 0 -14 7 0 6 5
8 10 5 6 -3 10 0 10 7 0 8 12 19 28 25 38 15 49 15 55 -1z m336 -3 c-12 -15
-12 -16 4 -10 21 8 22 -6 2 -23 -11 -9 -15 -9 -15 -1 0 7 -4 9 -10 6 -5 -3
-10 -1 -10 5 0 6 -4 8 -10 5 -5 -3 -10 -2 -10 4 0 5 5 13 10 16 6 3 10 0 10
-7 0 -8 6 -7 17 5 22 22 30 22 12 0z m1318 -10 c1 -16 4 -42 8 -58 5 -24 2
-35 -19 -54 -24 -22 -28 -23 -71 -11 -36 10 -43 15 -34 26 8 10 8 14 0 14 -18
0 -13 35 8 54 40 37 102 -27 72 -76 -7 -11 -7 -18 -1 -18 14 0 23 45 16 75 -4
15 -18 30 -34 36 -26 10 -26 11 -8 25 33 24 61 18 63 -13z m-2157 5 c0 -16
-138 -79 -146 -67 -9 16 7 30 60 55 57 26 86 30 86 12z m1938 -19 c23 -10 42
-23 42 -30 0 -7 -7 -8 -17 -4 -46 19 -137 45 -159 45 -15 0 -23 4 -19 10 9 14
100 2 153 -21z m-1828 -25 c46 -41 49 -52 18 -49 -13 1 -15 0 -5 -2 24 -6 42
-41 20 -39 -22 1 -27 -19 -9 -35 8 -8 37 -30 65 -49 54 -38 62 -50 32 -50 -51
0 -66 -27 -34 -63 17 -18 17 -20 -6 -38 -28 -23 -69 -24 -119 -3 l-37 15 35
17 35 17 -57 3 c-55 3 -146 -14 -135 -24 3 -3 22 -1 44 5 21 6 56 10 78 10
l40 -1 -42 -10 -41 -11 58 -38 c62 -42 99 -49 124 -23 13 13 16 13 16 1 0 -24
-28 -40 -62 -34 -18 2 -71 21 -118 41 -112 49 -122 52 -75 22 21 -14 67 -35
102 -47 64 -23 74 -39 22 -39 -37 0 -73 18 -128 64 -24 20 -49 36 -57 36 -8 0
-14 7 -14 15 0 9 -7 18 -15 21 -8 4 -15 18 -15 34 0 15 7 33 15 40 27 22 18
36 -20 32 -27 -3 -35 0 -35 11 0 8 -3 24 -6 34 -4 14 -1 13 12 -4 19 -26 46
-30 64 -9 15 19 -4 62 -37 83 -19 13 -23 12 -42 -8 -24 -26 -36 -21 -26 10 10
33 40 44 72 27 26 -13 33 -11 113 30 47 23 95 43 107 43 13 1 41 -15 63 -35z
m1695 25 c66 -12 176 -50 160 -56 -6 -2 -38 6 -70 17 -33 12 -88 24 -122 27
-34 3 -60 10 -57 14 7 12 18 11 89 -2z m-1285 -10 c-25 -5 -62 -16 -84 -24
-21 -9 -41 -14 -44 -11 -3 3 1 8 9 11 77 28 99 34 129 33 33 0 32 -1 -10 -9z
m730 -21 c0 -25 -4 -28 -33 -28 -17 0 -47 -4 -65 -9 -29 -9 -33 -7 -38 15 -10
41 11 55 78 52 56 -3 58 -4 58 -30z m1100 0 c0 -4 -6 -8 -14 -8 -8 0 -16 -3
-19 -7 -2 -5 -2 -3 -1 4 2 6 -7 14 -19 16 -12 2 -5 4 16 4 20 0 37 -4 37 -9z
m-976 -17 c19 -21 15 -51 -8 -70 -12 -10 -57 2 -95 26 -2 1 7 16 19 32 25 36
58 40 84 12z m234 -29 c-6 -7 -13 -27 -15 -44 -4 -41 -6 -42 -28 -18 -17 19
-17 20 6 29 13 5 19 10 12 10 -8 1 -7 10 4 32 11 23 18 28 24 18 4 -8 3 -19
-3 -27z m-188 -14 c0 -10 5 -15 13 -12 16 6 15 -42 -1 -58 -10 -10 -17 -7 -34
10 -17 17 -20 24 -10 34 7 7 12 26 12 43 0 23 3 26 10 15 5 -8 10 -23 10 -32z
m-215 2 c-33 -4 -69 -11 -80 -15 -20 -7 -20 -6 -1 9 14 11 38 16 80 15 l61 -2
-60 -7z m-1373 -27 c33 -30 15 -80 -19 -52 -17 15 -33 50 -26 62 7 12 25 8 45
-10z m1348 0 c-19 -8 -43 -24 -53 -36 l-18 -22 3 25 c2 18 12 28 38 37 50 17
72 14 30 -4z m-1425 -15 c7 -8 3 -9 -15 -4 -14 3 -35 6 -48 6 -14 0 -21 4 -16
11 8 13 63 4 79 -13z m528 -4 c14 -14 36 -27 51 -27 24 -2 27 -6 24 -32 -3
-28 -6 -30 -49 -33 -37 -2 -52 2 -74 20 -23 21 -26 28 -20 61 9 45 33 49 68
11z m57 9 c13 3 20 0 20 -9 0 -17 -41 -19 -58 -2 -17 17 -15 33 3 18 8 -7 24
-10 35 -7z m944 11 c9 -3 13 -11 9 -17 -4 -7 0 -8 12 -3 13 5 28 -4 54 -32
l37 -38 44 32 c69 50 120 52 133 4 3 -11 1 -18 -4 -14 -5 3 -9 -6 -9 -19 0
-25 -56 -117 -71 -117 -6 0 -21 12 -34 28 -13 15 -25 22 -25 15 0 -6 19 -32
43 -57 38 -41 42 -50 39 -86 -2 -22 -8 -37 -13 -34 -5 3 -9 -2 -9 -10 0 -19
-47 -55 -141 -106 -69 -39 -157 -75 -164 -68 -1 2 -6 14 -10 27 -7 23 -7 23
16 7 30 -21 51 -21 24 0 -24 19 -147 78 -158 76 -4 -1 -12 9 -19 23 -6 13 -15
22 -21 18 -14 -8 -3 71 19 141 13 39 28 64 46 78 18 13 32 35 39 63 10 41 39
83 39 57 0 -6 7 -9 16 -5 12 4 13 8 3 14 -9 5 -4 10 16 15 21 5 32 2 43 -12
11 -15 13 -15 9 -2 -9 25 6 34 37 22z m956 -23 c19 -36 12 -49 -30 -56 -22 -4
-40 -11 -40 -16 0 -6 5 -7 10 -4 13 8 13 -20 -1 -67 -13 -51 -44 -54 -36 -4 3
19 0 39 -6 45 -8 8 -8 11 2 11 10 0 10 5 -2 24 -15 23 -15 24 8 30 13 3 32 17
42 31 22 30 39 31 53 6z m-2511 -7 c47 -10 37 -19 -19 -19 -48 0 -58 4 -43 18
8 9 22 9 62 1z m11 -34 c11 -7 3 -10 -30 -12 -44 -1 -44 -1 -7 -5 40 -5 49
-18 17 -28 -11 -4 -17 -11 -14 -17 4 -7 2 -8 -5 -4 -6 4 -8 12 -5 18 5 7 2 9
-8 5 -16 -6 -33 28 -22 45 7 11 56 10 74 -2z m1048 -10 c10 -17 10 -20 -3 -20
-8 0 -18 -1 -21 -2 -4 -2 -13 7 -21 20 -15 21 -14 22 8 22 13 0 30 -9 37 -20z
m270 -27 c39 -13 42 -17 29 -30 -13 -13 -18 -11 -41 12 -22 22 -34 26 -67 23
-35 -3 -38 -2 -23 9 19 14 31 12 102 -14z m-1260 -2 c9 -5 12 -29 10 -82 -2
-61 -6 -74 -20 -77 -16 -3 -18 6 -17 82 1 86 3 93 27 77z m1230 -17 c27 -19
29 -44 3 -44 -10 0 -22 -7 -25 -16 -4 -12 -1 -14 14 -9 18 6 18 4 9 -24 -8
-23 -17 -31 -34 -31 -23 0 -53 22 -57 41 -5 31 -3 87 3 83 4 -2 10 0 14 6 9
15 48 12 73 -6z m-701 -21 c-16 -16 -18 -16 -34 0 -16 16 -15 17 17 17 32 0
33 -1 17 -17z m-56 -26 c-10 -26 -52 -35 -69 -14 -15 18 0 33 38 39 35 6 40 1
31 -25z m133 -13 c20 -8 21 -28 1 -44 -12 -10 -20 -9 -40 4 -47 31 -17 61 39
40z m-57 -33 c12 -15 18 -32 15 -37 -15 -21 -70 -52 -78 -45 -5 5 -27 14 -48
21 -36 12 -38 14 -22 26 15 11 24 10 52 -3 29 -14 37 -15 59 -3 l25 13 -23 15
c-12 9 -24 17 -26 18 -5 4 9 24 17 23 4 0 17 -13 29 -28z m1243 25 c0 -33 -35
-47 -58 -24 -20 20 -14 28 23 28 19 0 35 -2 35 -4z m-1289 -36 c21 -12 26 -29
7 -26 -31 5 -58 18 -58 27 0 12 27 12 51 -1z m1257 -36 c2 -1 0 -13 -4 -28 -3
-14 -10 -23 -16 -20 -5 3 -7 11 -5 17 3 7 -5 28 -16 47 l-20 35 29 -25 c16
-14 30 -26 32 -26z m644 15 l33 -31 -30 7 c-16 3 -39 8 -51 11 -15 4 -23 -2
-33 -22 -10 -22 -14 -25 -22 -13 -13 21 -11 39 6 39 8 0 15 8 15 18 0 14 2 15
10 2 8 -13 10 -12 10 3 0 26 26 21 62 -14z m-1301 -44 c24 -23 40 -79 32 -117
l-6 -29 -29 35 c-27 33 -34 36 -84 36 -36 0 -54 4 -55 13 -1 6 -2 37 -3 68
l-1 57 63 -23 c35 -13 72 -31 83 -40z m-289 11 c-6 -69 -56 -107 -102 -75 -13
9 -12 12 4 22 24 15 46 37 69 71 25 37 33 32 29 -18z m95 2 c-17 -40 -61 -78
-89 -78 -18 0 -17 3 8 38 27 37 84 86 92 78 2 -2 -3 -19 -11 -38z m-817 10 c0
-7 -11 -56 -25 -108 l-24 -94 34 -128 34 -128 -49 0 c-49 0 -49 0 -60 40 -8
30 -16 40 -32 40 -18 0 -20 4 -15 38 3 20 9 65 13 98 5 52 10 64 30 73 13 6
24 15 24 21 0 13 -60 13 -80 0 -11 -7 -2 -9 30 -5 l45 5 -37 -14 c-20 -8 -53
-33 -74 -55 -38 -43 -63 -51 -84 -26 -11 13 -8 21 18 48 17 18 38 51 47 74 18
46 39 56 90 42 46 -13 45 -22 -2 -14 -27 4 -44 1 -58 -10 -19 -14 -19 -15 6
-6 14 5 41 6 60 1 l34 -8 -40 -2 c-22 -1 -49 -5 -60 -10 -13 -6 2 -7 40 -3 33
3 62 7 64 9 2 2 5 29 8 60 2 32 6 61 9 66 8 13 54 9 54 -4z m651 -31 c-17 -17
-43 -18 -37 0 3 8 6 19 6 24 0 5 5 9 11 9 6 0 8 -7 5 -16 -3 -8 -2 -12 4 -9 6
3 11 14 11 23 1 14 2 14 6 -2 3 -10 0 -23 -6 -29z m198 -19 c-17 -40 -43 -55
-114 -61 -38 -4 -53 -3 -40 3 11 5 30 9 41 9 31 1 74 39 91 80 13 31 16 33 25
17 7 -12 6 -27 -3 -48z m-249 20 l0 -31 -25 23 c-24 22 -24 25 -8 31 30 12 33
10 33 -23z m-548 -19 c20 -40 34 -135 43 -296 l7 -113 -35 0 -35 0 -32 130
-32 129 23 96 c13 53 28 94 34 92 5 -2 18 -19 27 -38z m488 34 c0 -5 -16 -19
-34 -33 -19 -14 -41 -36 -49 -50 l-16 -25 -10 28 c-16 43 -14 55 17 71 28 16
92 22 92 9z m1170 -8 c7 -8 19 -15 27 -15 24 0 -3 -28 -49 -51 l-39 -20 7 28
c18 73 30 87 54 58z m490 -16 c0 -3 -29 -28 -64 -57 -55 -43 -65 -48 -69 -33
-4 17 -9 16 -66 -11 -34 -16 -69 -28 -78 -26 -10 2 37 28 102 59 66 31 129 66
139 78 15 16 21 18 28 9 4 -7 8 -16 8 -19z m-1842 10 c24 -8 37 -23 52 -56 11
-25 20 -51 20 -58 0 -24 -33 -115 -42 -115 -8 0 -13 48 -11 104 1 20 -1 25 -7
16 -7 -11 -11 -8 -19 13 -6 16 -11 33 -11 38 0 6 -7 23 -15 39 -17 33 -13 35
33 19z m1567 -27 c-7 -34 -39 -67 -54 -57 -18 11 -12 28 21 62 36 37 43 36 33
-5z m-848 22 c13 -4 20 -10 17 -15 -3 -5 0 -9 5 -9 6 0 11 -15 11 -34 0 -24 7
-39 21 -49 17 -12 19 -21 14 -51 -8 -41 -17 -44 -60 -18 -28 17 -30 22 -30 83
0 35 -4 72 -9 82 -9 18 -4 20 31 11z m-734 -114 c30 -108 32 -131 15 -194 -13
-50 -6 -65 47 -98 l30 -18 -61 0 -62 0 -7 83 c-3 45 -13 127 -21 181 -17 123
-18 116 4 117 15 1 15 2 -1 6 -18 5 -18 5 0 18 10 8 21 11 24 7 3 -4 18 -50
32 -102z m247 75 c29 -30 31 -35 14 -35 -23 0 -39 10 -47 30 -3 8 -6 1 -6 -17
-1 -18 3 -42 8 -55 5 -13 24 -79 41 -148 18 -69 34 -133 37 -144 11 -39 -20
-2 -44 53 -13 31 -40 90 -59 132 l-36 76 22 71 c11 40 24 72 28 72 5 0 23 -16
42 -35z m-457 -13 c21 -18 22 -42 3 -67 -13 -18 -15 -17 -34 21 -10 21 -23 50
-27 62 -6 22 -5 23 17 12 12 -7 31 -19 41 -28z m1511 1 c-8 -45 -20 -61 -34
-47 -12 12 -3 44 11 44 5 0 9 9 9 20 0 11 5 20 10 20 7 0 8 -14 4 -37z m116
-18 c-14 -17 -73 -45 -94 -45 -32 0 -15 30 28 48 24 11 47 25 51 32 6 9 10 8
17 -4 6 -11 6 -22 -2 -31z m464 -83 c4 -7 -2 -23 -12 -37 l-20 -25 -10 27 c-6
16 -11 21 -11 13 0 -8 6 -26 13 -39 10 -17 11 -34 5 -55 -5 -17 -9 -47 -9 -66
0 -22 -7 -42 -19 -52 -20 -17 -90 -43 -97 -35 -14 14 -23 128 -13 187 14 95
15 95 87 154 l67 55 6 -58 c3 -32 9 -63 13 -69z m-1990 108 c-14 -14 -62 -22
-77 -13 -8 5 -1 10 18 14 49 11 70 10 59 -1z m22 -45 c-3 -12 -12 -25 -20 -28
-10 -4 -13 -1 -10 7 3 8 0 17 -6 21 -8 5 -4 15 12 32 19 21 24 22 26 8 2 -9 1
-27 -2 -40z m604 27 c0 -4 7 -38 14 -76 13 -62 13 -72 -1 -100 -12 -22 -16
-53 -14 -108 l2 -78 -30 0 c-17 0 -31 2 -31 4 0 2 12 29 26 60 14 32 24 60 21
63 -3 3 -19 -25 -36 -61 -27 -60 -32 -66 -60 -66 -17 0 -31 2 -31 4 0 2 9 26
20 52 26 59 83 274 76 281 -3 3 2 12 12 19 19 15 32 18 32 6z m-652 -40 c2
-13 -3 -25 -13 -28 -23 -9 -38 10 -30 36 9 27 39 22 43 -8z m422 7 c0 -10 -31
-12 -54 -3 -28 11 -17 20 19 16 19 -2 35 -8 35 -13z m276 13 c7 -4 28 -38 48
-75 39 -75 45 -121 25 -205 -14 -57 -26 -73 -40 -52 -8 13 -11 12 -20 -4 -9
-15 -13 -16 -20 -5 -7 11 -9 11 -9 -2 0 -9 7 -22 15 -29 13 -10 15 -9 15 9 0
11 5 21 10 21 6 0 10 -7 10 -15 0 -8 5 -15 10 -15 6 0 10 -5 10 -11 0 -5 -4
-8 -9 -4 -5 3 -8 -7 -7 -22 2 -15 11 -30 22 -34 22 -9 20 -10 -19 -15 -17 -2
-25 1 -21 8 4 7 -4 8 -25 3 -25 -5 -31 -3 -31 10 0 10 7 15 18 13 19 -3 42 9
42 22 0 10 -19 8 -37 -3 -10 -6 -11 13 -6 90 10 138 9 242 -1 286 -8 36 -3 44
20 29z m101 -41 c46 -59 50 -95 22 -209 -13 -53 -25 -89 -27 -79 -2 9 -8 17
-13 17 -6 0 -7 4 -4 10 3 5 10 34 15 63 10 66 -2 128 -36 180 -25 38 -26 73
-1 65 6 -3 26 -23 44 -47z m-205 14 c-5 -26 -4 -25 -32 -18 -22 6 -23 7 -4 14
16 6 15 8 -8 8 -16 1 -28 6 -28 12 0 6 16 9 38 7 31 -2 36 -6 34 -23z m982 -7
c5 -27 2 -36 -16 -50 -13 -9 -23 -27 -24 -40 -4 -118 -2 -113 -23 -94 -17 15
-20 15 -34 2 -13 -14 -15 -13 -20 2 -3 9 -8 24 -11 33 -5 11 -1 18 12 21 37
10 64 71 48 108 -4 10 3 21 21 32 38 23 40 23 47 -14z m-1074 7 c0 -9 -10 -15
-25 -15 -14 0 -28 0 -32 -1 -5 0 -9 6 -11 14 -2 9 8 14 33 15 25 1 35 -3 35
-13z m910 -23 c0 -7 -4 -22 -10 -32 -7 -13 -4 -30 10 -62 11 -23 19 -52 19
-63 0 -11 -9 3 -19 31 -10 28 -23 62 -30 74 -8 15 -8 20 -1 16 19 -12 12 6
-11 31 -18 20 -20 26 -9 33 17 10 51 -9 51 -28z m440 14 c0 -37 -25 -56 -76
-56 -60 0 -57 20 6 47 38 16 50 18 50 8 0 -8 -10 -21 -22 -29 -12 -9 -17 -16
-11 -16 18 0 43 29 43 51 0 10 2 19 5 19 3 0 5 -11 5 -24z m-1925 -23 c11 15
14 15 25 3 17 -22 25 -92 11 -101 -8 -4 -9 -11 -2 -18 5 -7 12 -29 16 -49 l7
-38 -40 0 -40 0 -7 98 c-3 53 -9 108 -11 122 -5 24 -4 23 12 -4 15 -27 18 -28
29 -13z m144 -78 c6 -60 14 -131 17 -157 3 -27 2 -48 -3 -48 -5 0 -15 50 -22
111 -7 61 -17 124 -21 141 -6 19 -5 36 3 48 6 11 12 18 13 17 1 -1 7 -51 13
-112z m371 -60 c6 -76 9 -140 7 -142 -2 -2 -18 56 -36 129 -18 73 -35 138 -37
143 -6 15 39 33 48 19 4 -6 12 -73 18 -149z m140 125 c0 -17 -52 -182 -70
-223 -29 -66 -47 -62 -48 10 0 34 4 61 11 65 9 6 9 8 0 8 -8 0 -13 13 -13 32
0 17 -5 47 -12 65 -13 36 -8 46 31 58 23 7 23 6 16 -31 -4 -22 -6 -74 -6 -117
2 -53 -1 -77 -8 -72 -7 4 -8 0 -5 -10 13 -32 22 1 28 95 3 52 6 110 6 127 l0
33 35 -17 c19 -9 35 -19 35 -23z m-555 20 c-2 -4 2 -42 10 -86 7 -43 17 -107
21 -141 l7 -63 -28 0 c-25 0 -27 3 -20 27 3 15 12 31 18 35 7 4 9 8 5 9 -5 1
-12 3 -18 4 -5 1 -14 3 -20 4 -5 0 -10 25 -11 54 0 28 -4 72 -7 97 -6 33 -4
48 7 56 15 12 43 15 36 4z m1340 -41 c13 -28 21 -59 18 -68 -11 -31 -25 -41
-49 -35 -19 5 -26 1 -34 -20 -5 -14 -12 -26 -15 -26 -5 0 -40 20 -64 36 -2 2
11 28 29 59 24 43 36 55 49 50 9 -4 24 -10 34 -12 27 -8 14 -28 -16 -25 -18 2
-29 -3 -37 -17 -13 -25 -2 -28 15 -4 11 15 15 15 30 3 14 -12 18 -12 26 1 14
22 11 35 -12 51 -16 10 -20 20 -15 36 4 12 10 22 12 22 3 0 16 -23 29 -51z
m123 39 c-4 -11 -68 -40 -75 -34 -1 1 0 12 4 24 4 17 13 22 40 22 23 0 33 -4
31 -12z m152 -17 c0 -9 -71 -61 -83 -61 -4 0 -7 7 -7 15 0 12 53 44 88 54 1 1
2 -3 2 -8z m78 -8 c-2 -12 -13 -18 -33 -18 -20 0 -31 6 -33 18 -3 14 4 17 33
17 29 0 36 -3 33 -17z m-2071 -75 c-10 -100 -15 -111 -41 -93 -16 12 -17 18
-7 46 6 18 11 43 11 56 0 22 28 72 41 73 3 0 1 -37 -4 -82z m1836 33 c-26 -34
-59 -39 -68 -11 -8 25 -11 23 40 41 46 18 55 8 28 -30z m-422 5 c5 -17 6 -32
4 -34 -2 -3 -26 2 -52 11 -55 18 -68 15 -26 -6 47 -24 97 -29 118 -12 35 26
55 19 55 -18 0 -18 -5 -38 -12 -45 -9 -9 -8 -12 5 -12 21 0 22 -26 2 -46 -8
-9 -15 -26 -15 -40 0 -13 -4 -24 -10 -24 -6 0 -11 38 -11 93 -2 70 -4 83 -9
52 l-7 -40 -2 34 c-1 42 -8 38 -13 -9 -3 -19 2 -46 9 -60 7 -14 13 -35 13 -47
0 -20 -5 -23 -40 -23 -29 0 -40 4 -40 15 0 8 6 12 14 9 8 -3 17 0 21 5 3 6 11
9 16 5 5 -3 6 -10 3 -16 -4 -7 -2 -8 4 -4 19 12 -17 76 -42 76 -6 0 0 -9 14
-20 22 -17 23 -19 7 -25 -9 -4 -25 -4 -34 -1 -9 4 -20 1 -24 -6 -6 -10 -12 -8
-23 7 -15 19 -15 19 -16 -8 0 -15 -7 -30 -15 -34 -21 -8 -23 -3 -18 35 7 42
82 97 122 88 24 -6 25 -5 7 8 -13 11 -25 12 -42 6 -21 -8 -26 -6 -36 15 -17
38 -30 30 -14 -10 14 -32 13 -34 -5 -40 -27 -9 -58 -61 -52 -86 4 -13 0 -19
-12 -19 -15 0 -17 7 -12 53 3 28 14 77 24 107 15 46 25 59 58 77 53 29 77 26
86 -11z m-144 -11 c1 -1 -6 -28 -16 -60 -27 -88 -36 -165 -19 -166 7 -1 61 -1
121 0 82 1 107 -2 107 -12 0 -9 -21 -12 -83 -12 -45 1 -88 4 -95 9 -6 4 -12 5
-12 2 0 -2 -3 -12 -7 -21 -5 -15 -3 -16 15 -6 15 8 23 8 27 0 10 -15 -1 -22
-35 -21 -19 0 -30 -4 -30 -13 0 -20 -17 -27 -39 -16 -15 8 -20 7 -25 -5 -3 -8
-12 -14 -20 -12 -8 2 -15 -1 -15 -7 -1 -5 5 -10 12 -10 6 0 18 -4 24 -8 9 -5
11 -3 7 6 -6 18 12 32 21 17 10 -17 24 -11 38 17 14 26 15 26 26 5 9 -16 8
-21 -4 -25 -11 -4 -10 -4 2 -3 12 1 17 8 15 24 -2 16 1 20 12 16 9 -3 13 -11
9 -17 -3 -6 -1 -7 5 -3 16 10 15 -19 0 -31 -26 -20 -185 -41 -215 -28 -10 5
-28 7 -39 6 -12 -1 -28 4 -35 11 -8 7 -21 13 -29 13 -8 0 -16 9 -18 19 -3 15
0 17 14 11 11 -4 43 -13 72 -20 49 -13 53 -12 67 8 15 21 14 22 -12 27 -19 4
-24 8 -15 13 6 5 12 26 12 48 0 45 5 48 31 17 11 -11 19 -19 20 -17 0 2 2 18
4 34 1 17 10 57 20 89 9 33 15 81 13 107 l-3 46 35 -16 c19 -8 36 -16 37 -16z
m918 18 c-12 -33 -17 -148 -7 -190 l10 -43 -34 0 c-40 0 -41 5 -19 112 19 89
36 138 48 138 5 0 6 -8 2 -17z m265 -8 c0 -14 -8 -29 -19 -35 -25 -13 -68 -13
-76 0 -3 6 0 10 7 10 10 0 10 2 -1 9 -19 12 24 41 61 41 23 0 28 -4 28 -25z
m-850 -6 c-15 -27 -36 -34 -63 -21 -17 7 -18 11 -7 15 13 4 68 22 78 26 1 1
-2 -8 -8 -20z m403 14 c9 -16 18 -233 10 -233 -18 0 -33 69 -33 153 0 76 8
105 23 80z m152 -3 c-5 -7 -19 -10 -37 -6 -18 3 -27 2 -23 -4 3 -6 15 -10 27
-10 17 0 19 -4 13 -27 -3 -15 -11 -52 -16 -83 -15 -87 -19 -100 -29 -100 -15
0 -12 58 3 63 9 3 9 7 1 18 -6 8 -14 46 -16 85 l-5 70 44 3 c32 1 43 -1 38 -9z
m325 -49 c0 -47 -10 -34 -16 20 -3 32 -2 40 6 29 5 -8 10 -30 10 -49z m-2633
20 c-2 -31 -27 -32 -27 -1 0 15 5 21 27 29 1 1 1 -12 0 -28z m2120 -55 c-2
-78 -3 -83 -21 -76 -17 6 -46 72 -46 105 0 7 52 50 67 54 1 1 1 -37 0 -83z
m93 15 c0 -37 3 -89 6 -115 6 -42 5 -46 -15 -46 -19 0 -21 6 -21 54 0 29 -3
81 -6 115 -7 58 -6 61 15 61 19 0 21 -5 21 -69z m-1361 -50 c18 -40 30 -75 27
-78 -2 -3 -14 -2 -25 2 -24 7 -77 135 -67 161 10 26 26 5 65 -85z m-887 72 c1
-10 3 -52 5 -93 1 -41 3 -85 4 -98 0 -13 -2 -26 -6 -30 -9 -10 -26 21 -19 38
3 8 0 44 -7 81 -12 67 -7 119 11 119 6 0 11 -8 12 -17z m1209 -54 c-7 -44 -9
-47 -10 -19 -1 36 9 84 15 77 3 -2 0 -28 -5 -58z m540 51 c4 0 6 -13 3 -28 -5
-25 -2 -30 25 -42 39 -16 32 -25 -20 -25 -37 0 -39 2 -39 30 0 17 -3 41 -7 54
-5 20 -3 23 11 18 10 -4 22 -7 27 -7z m-1631 -9 c0 -5 3 -18 6 -28 4 -13 3
-14 -4 -5 -5 8 -12 13 -16 13 -20 -3 -26 1 -26 14 0 8 9 15 20 15 11 0 20 -4
20 -9z m2530 -10 c0 -21 -44 -41 -91 -41 -24 0 -29 4 -29 24 0 22 5 25 48 29
26 2 53 4 60 5 6 1 12 -7 12 -17z m-2700 -17 c0 -6 -3 -26 -6 -43 -7 -36 -34
-42 -34 -8 0 13 -5 28 -11 34 -6 6 -9 16 -5 21 8 13 56 10 56 -4z m117 2 c0 0
-4 -25 -9 -53 -9 -43 -15 -53 -31 -53 -17 0 -19 5 -13 31 3 17 6 45 6 61 0 26
3 29 23 22 12 -3 23 -7 24 -8z m37 -77 c-1 -37 1 -46 3 -21 4 46 12 50 48 26
15 -9 33 -13 47 -9 16 4 19 3 10 -3 -11 -7 -11 -10 2 -15 11 -5 16 -18 15 -44
-1 -23 -3 -29 -6 -15 -6 29 -21 28 -33 -2 -5 -13 -14 -27 -19 -31 -8 -4 -8 2
-1 20 16 41 11 54 -6 15 -10 -24 -17 -31 -23 -22 -10 16 -3 61 13 82 9 13 9
13 -6 2 -9 -7 -19 -24 -22 -37 -4 -14 -11 -25 -17 -25 -7 0 -8 -11 -4 -29 5
-25 2 -33 -20 -47 -30 -19 -35 -17 -45 28 l-8 33 -1 -32 c-1 -21 -8 -36 -21
-43 -12 -6 -20 -7 -20 -1 0 5 -3 18 -6 28 -5 14 -4 15 4 4 8 -11 15 -4 31 29
16 33 18 46 9 51 -7 5 -9 12 -4 16 5 4 11 2 13 -4 7 -19 23 -16 23 5 0 13 2
14 9 4 6 -10 10 -7 13 12 3 15 1 29 -3 32 -13 7 -11 44 2 44 5 0 7 5 3 11 -4
7 -1 10 7 7 10 -3 14 -22 13 -69z m1776 60 c0 -8 5 -8 15 1 9 8 15 8 15 2 0
-6 -9 -14 -20 -17 -29 -9 -25 -23 5 -17 14 2 31 0 38 -6 6 -5 31 -15 55 -21
23 -7 42 -17 42 -23 0 -5 -9 -8 -20 -5 -11 3 -20 1 -20 -4 0 -5 5 -9 11 -9 5
0 7 -4 4 -10 -3 -5 -23 -10 -43 -11 -26 0 -32 -3 -19 -8 31 -12 -5 -35 -40
-26 -16 4 -38 9 -49 10 -42 6 -64 25 -64 54 0 23 6 31 30 40 23 7 30 16 30 35
0 16 6 26 15 26 8 0 15 -5 15 -11z m78 -29 c-2 -5 -12 -2 -23 6 -17 13 -18 16
-5 24 15 9 35 -11 28 -30z m732 32 c0 -4 -10 -12 -22 -17 -13 -6 -23 -19 -23
-30 0 -11 -13 -28 -29 -38 -28 -18 -30 -18 -63 0 -49 26 -43 49 15 57 26 4 58
13 72 21 28 16 50 19 50 7z m-2716 -114 c3 -60 -9 -144 -14 -103 -5 35 -6 39
-23 79 -19 44 -21 56 -8 56 5 0 12 -10 14 -22 2 -13 5 2 6 32 1 44 4 51 12 37
6 -10 12 -46 13 -79z m2099 72 c14 -12 40 -26 57 -31 17 -6 35 -20 40 -30 8
-14 7 -17 -4 -13 -8 3 -17 1 -21 -5 -3 -6 -12 -11 -18 -11 -8 0 -7 3 2 9 7 5
10 14 7 20 -11 17 -23 13 -29 -9 -5 -20 -27 -28 -27 -10 0 6 -5 10 -11 10 -5
0 -7 -4 -4 -10 8 -12 -5 -13 -24 -1 -8 5 -11 16 -7 28 4 12 1 25 -9 33 -43 35
4 55 48 20z m-1533 -80 c0 -62 -9 -80 -41 -80 -32 0 -44 16 -53 75 l-7 40 50
0 51 0 0 -35z m2110 20 c0 -11 -5 -20 -12 -20 -6 0 -22 -10 -35 -22 -24 -22
-37 -21 -28 3 5 11 63 59 72 59 2 0 3 -9 3 -20z m-91 -4 c10 -12 9 -20 -4 -40
-10 -14 -21 -26 -26 -26 -13 0 -11 7 8 38 l17 27 -25 -22 c-14 -13 -31 -23
-37 -23 -14 0 -15 2 -2 34 11 29 50 36 69 12z m110 -36 c4 0 8 -6 8 -14 0 -8
-7 -14 -16 -14 -9 0 -27 -3 -41 -7 -19 -5 -22 -4 -10 4 13 10 13 11 0 11 -11
1 -10 4 5 16 11 8 26 12 33 9 8 -3 17 -5 21 -5z m-959 -79 c6 -51 5 -52 -20
-49 -23 3 -25 7 -28 67 l-3 64 23 -15 c18 -12 24 -28 28 -67z m-72 37 c7 -7
12 -25 12 -41 l0 -29 -33 34 c-18 18 -31 36 -29 41 5 11 37 8 50 -5z m-51 -24
c63 -40 48 -79 -45 -113 -151 -56 -349 -42 -454 31 -37 26 -35 54 5 78 49 30
57 26 57 -26 0 -43 2 -46 38 -61 51 -23 254 -25 297 -3 28 15 30 19 28 68 -2
52 -2 52 25 46 15 -4 37 -13 49 -20z m457 5 c15 -21 11 -48 -8 -61 -18 -12
-27 3 -11 18 19 20 4 51 -27 57 -20 4 -20 4 4 6 17 1 32 -7 42 -20z m693 8 c4
-6 0 -8 -10 -4 -10 3 -17 2 -17 -3 0 -5 10 -11 23 -13 12 -3 6 -4 -13 -4 -43
2 -57 35 -15 35 14 0 28 -5 32 -11z m-2627 -41 c0 -33 -30 -46 -103 -46 -72 0
-117 14 -125 38 -3 10 3 11 25 5 42 -11 155 -8 178 5 25 15 25 15 25 -2z m154
-47 c15 -14 -2 -23 -18 -10 -11 9 -14 8 -12 -6 0 -9 -7 -19 -16 -21 -21 -4
-25 24 -5 31 7 3 5 6 -5 6 -10 1 -18 -6 -18 -14 0 -10 -11 -15 -37 -16 l-38
-1 45 -10 c29 -7 55 -7 76 0 32 9 32 9 30 -22 -2 -17 -4 -45 -5 -63 -1 -27 -6
-33 -36 -43 -19 -6 -50 -9 -68 -5 -24 5 -28 4 -17 -4 19 -14 61 -14 96 -1 24
9 25 9 14 -5 -14 -17 -86 -21 -109 -6 -18 12 -25 47 -26 131 0 64 0 65 30 71
35 8 106 1 119 -12z m821 -24 c20 -15 20 -15 0 -9 -28 10 -56 35 -49 46 3 5
11 2 17 -6 7 -9 21 -22 32 -31z m-1147 -24 l24 -26 -21 32 c-12 17 -21 33 -21
35 0 3 20 2 45 -2 25 -4 66 -4 91 0 l46 7 -4 -65 c-5 -81 -33 -112 -102 -112
-63 0 -83 21 -96 100 -13 85 -12 101 3 76 7 -10 23 -31 35 -45z m2747 -21 c8
-24 -1 -40 -21 -40 -8 0 -12 -5 -9 -10 4 -6 10 -8 15 -5 4 3 10 -2 14 -10 3
-8 10 -15 16 -15 7 0 8 6 0 19 -15 28 -13 31 18 32 23 2 24 2 4 6 -29 6 -18
23 15 23 22 0 24 -3 19 -27 -6 -25 -5 -26 8 -10 12 15 15 15 26 3 14 -18 4
-40 -16 -32 -17 7 -19 -10 -1 -17 6 -3 -14 -4 -47 -2 -72 5 -94 21 -88 70 3
26 9 35 22 35 10 0 21 -9 25 -20z m-1190 -6 c-59 -22 -171 -28 -238 -14 -81
16 -68 21 23 7 61 -8 90 -7 150 5 97 20 115 20 65 2z m1135 -113 c15 -29 13
-32 -17 -25 -19 5 -30 2 -40 -11 -17 -25 -17 -15 3 23 18 36 38 41 54 13z"/>
<path d="M2563 2029 c-1 -84 3 -149 8 -149 11 0 11 2 9 160 -1 69 -4 128 -8
132 -4 4 -8 -60 -9 -143z"/>
<path d="M433 1939 c20 -12 23 -49 5 -68 -11 -11 -10 -13 2 -9 30 9 23 88 -8
88 -16 -1 -16 -1 1 -11z"/>
<path d="M80 1909 c-12 -21 -5 -75 11 -84 5 -4 4 6 -2 22 -14 37 -4 73 21 73
24 0 35 -36 21 -72 -9 -24 -6 -38 8 -38 11 0 11 93 0 106 -17 20 -47 17 -59
-7z"/>
<path d="M238 1779 c-22 -12 -23 -35 -3 -43 21 -8 43 3 41 20 -4 24 -20 34
-38 23z"/>
<path d="M2837 1596 c-27 -7 -53 -18 -60 -25 -15 -15 -50 -15 -41 0 5 8 2 9
-11 1 -10 -5 -20 -17 -21 -26 -2 -18 11 -22 21 -6 3 6 16 10 28 9 21 0 21 -1
2 -9 -26 -12 62 0 90 11 14 6 6 8 -25 5 -25 -2 -37 -1 -27 1 9 2 15 9 12 14
-4 5 7 6 24 3 22 -5 37 -1 57 15 30 24 20 25 -49 7z"/>
<path d="M2768 1523 c-34 -4 -38 -7 -37 -31 2 -24 2 -25 6 -4 3 17 9 21 22 17
10 -3 31 1 47 10 16 8 22 14 14 13 -8 -1 -32 -3 -52 -5z"/>
<path d="M2085 1630 c-8 -13 3 -30 20 -30 20 0 30 21 14 31 -18 11 -26 11 -34
-1z"/>
<path d="M2280 1474 c0 -8 10 -14 25 -14 14 0 25 -6 25 -13 0 -8 10 -22 21
-33 23 -20 23 -17 0 28 -16 31 -71 57 -71 32z"/>
<path d="M1136 1174 c-3 -8 -2 -12 4 -9 5 3 19 1 30 -5 15 -8 20 -8 20 1 0 8
4 8 15 -1 24 -20 28 -6 5 15 -15 13 -20 14 -20 5 0 -11 -3 -11 -12 -2 -17 17
-35 15 -42 -4z"/>
<path d="M1026 1147 c-8 -12 -14 -40 -14 -61 0 -25 3 -34 8 -25 5 7 6 25 3 40
-4 22 0 30 22 42 22 11 24 15 11 20 -10 4 -21 -2 -30 -16z"/>
<path d="M1145 1093 c-3 -21 -16 -46 -28 -57 l-22 -18 25 14 c15 9 28 30 33
52 5 20 14 36 21 36 17 0 36 -21 36 -39 0 -13 -2 -14 -9 -2 -11 17 -41 7 -41
-14 0 -21 27 -30 45 -15 32 27 12 80 -31 80 -17 0 -23 -8 -29 -37z"/>
<path d="M2445 1151 c11 -5 30 -10 43 -10 27 -1 39 -26 22 -46 -7 -8 -8 -15
-2 -15 5 0 15 7 22 16 19 22 -13 51 -65 58 -29 5 -35 4 -20 -3z"/>
<path d="M2422 1103 c2 -10 10 -18 18 -18 22 0 18 29 -3 33 -14 3 -18 -1 -15
-15z"/>
<path d="M2381 1066 c-6 -8 -34 -24 -62 -36 -28 -12 -49 -24 -46 -26 8 -9 104
36 123 57 9 10 12 19 7 19 -6 0 -16 -6 -22 -14z"/>
<path d="M607 1213 c-9 -2 -15 -8 -12 -13 3 -5 1 -11 -5 -15 -5 -3 -10 -10
-10 -15 0 -6 15 -1 33 10 17 11 41 20 52 20 17 0 17 2 5 10 -16 10 -33 11 -63
3z"/>
<path d="M617 1152 c-10 -10 -17 -24 -17 -32 0 -7 9 -1 21 14 15 19 27 25 41
20 14 -4 18 -2 14 5 -11 17 -41 13 -59 -7z"/>
<path d="M616 1105 c-3 -9 -6 -22 -5 -28 0 -7 4 -2 9 11 9 22 34 30 44 13 4
-5 -3 -7 -14 -4 -15 4 -20 0 -20 -15 0 -28 13 -34 36 -17 15 11 17 18 8 32
-15 24 -50 29 -58 8z"/>
<path d="M507 973 c-3 -5 38 -8 92 -9 53 0 85 3 71 7 -34 10 -158 11 -163 2z"/>
<path d="M2111 1065 c-16 -14 -33 -35 -36 -45 -4 -12 -15 -20 -27 -20 -16 0
-13 -5 18 -26 28 -19 42 -24 54 -17 23 15 25 43 3 44 -16 0 -16 1 2 9 11 5 14
9 7 9 -7 1 -22 -4 -33 -9 -24 -13 -24 -2 -1 26 27 34 60 48 78 33 8 -7 14 -7
14 -1 0 9 -23 22 -40 22 -5 0 -22 -11 -39 -25z m19 -86 c0 -19 -23 -20 -42 -2
-19 20 -19 20 11 15 17 -2 31 -8 31 -13z"/>
<path d="M1969 1056 c10 -12 9 -13 -8 -9 -14 3 -21 1 -21 -8 0 -24 17 -42 34
-36 21 8 21 53 0 61 -14 5 -15 4 -5 -8z"/>
<path d="M1780 1024 c-12 -31 -1 -50 25 -40 11 4 15 15 13 33 -4 36 -26 41
-38 7z"/>
<path d="M1735 926 c37 -12 38 -13 15 -18 -16 -3 -13 -4 8 -2 18 1 30 -1 27
-7 -4 -5 -21 -9 -38 -10 -18 0 -41 -4 -52 -9 -13 -6 2 -8 45 -5 64 5 65 5 33
-10 -38 -17 -44 -30 -10 -19 21 6 21 6 -3 -15 -24 -21 -24 -22 -2 -11 13 6 26
18 29 26 3 7 10 11 17 7 6 -3 8 -3 4 2 -4 4 -3 16 3 26 8 15 3 22 -30 39 -22
11 -51 20 -63 19 -16 0 -11 -4 17 -13z"/>
<path d="M1853 933 c-20 -7 -15 -41 7 -60 11 -10 20 -25 20 -34 0 -23 -24 -41
-44 -33 -21 8 -21 7 9 -59 41 -95 99 -85 107 18 3 30 8 58 11 62 4 3 19 1 34
-6 27 -11 28 -11 8 6 -11 10 -19 26 -17 36 4 18 14 22 26 10 3 -4 14 -8 24 -9
9 -1 28 -6 42 -10 43 -12 15 5 -41 26 -43 16 -48 19 -21 17 18 -2 35 0 38 5 3
4 -10 8 -28 8 -18 0 -44 3 -58 7 -24 6 -24 6 -7 -14 23 -27 22 -37 -11 -72
-26 -29 -30 -30 -48 -16 -19 15 -19 15 1 9 20 -7 20 -7 0 9 -20 15 -20 15 3
39 12 14 22 31 22 40 0 24 -43 35 -77 21z m65 -25 c-11 -33 -68 -36 -68 -3 0
11 10 15 36 15 23 0 34 -4 32 -12z m12 -139 c15 -36 5 -62 -27 -67 -30 -4 -45
21 -37 62 9 48 45 51 64 5z"/>
<path d="M1579 375 c-1 -8 -2 -21 -3 -27 -1 -15 -36 -24 -36 -10 0 6 7 13 16
16 8 3 12 11 8 17 -5 8 -10 7 -16 -4 -5 -9 -15 -14 -23 -11 -19 8 -33 -25 -16
-36 7 -4 22 -6 34 -5 12 1 33 3 47 4 18 1 21 4 11 10 -9 6 -11 18 -7 35 4 15
2 26 -4 26 -5 0 -11 -7 -11 -15z"/>
<path d="M248 404 c-5 -4 -8 -25 -8 -48 0 -28 3 -37 11 -29 6 6 9 27 7 48 -2
20 -6 33 -10 29z"/>
<path d="M310 183 c0 -14 2 -15 9 -4 12 19 42 6 35 -14 -4 -10 -14 -14 -28
-10 -21 6 -21 6 -2 -9 20 -16 71 -21 101 -10 13 5 14 8 3 15 -10 6 -9 11 6 22
12 9 15 16 9 20 -6 4 -14 0 -17 -9 -4 -11 -10 -13 -19 -6 -6 5 -31 13 -54 17
-38 6 -43 4 -43 -12z m96 -25 c2 -13 -5 -18 -22 -18 -23 0 -32 18 -17 34 12
12 36 2 39 -16z"/>
<path d="M40 2196 c0 -14 -10 -32 -22 -40 -14 -10 -17 -16 -8 -16 11 0 11 -3
2 -12 -47 -47 47 -93 106 -52 31 22 28 38 -18 74 -22 17 -40 27 -40 21 0 -6
12 -18 28 -28 15 -10 30 -22 34 -27 18 -27 -55 -56 -91 -36 -27 14 -26 21 4
66 26 38 33 74 15 74 -5 0 -10 -11 -10 -24z"/>
<path d="M2980 2013 c-8 -13 -13 -14 -16 -5 -7 15 -24 16 -24 1 0 -15 31 -38
50 -39 13 0 13 2 1 9 -12 8 -13 12 -1 25 7 9 10 19 7 22 -3 3 -10 -3 -17 -13z"/>
<path d="M1008 1782 c-12 -15 -16 -21 -8 -15 8 6 33 13 55 15 l40 3 -32 12
c-28 10 -33 9 -55 -15z"/>
<path d="M1038 1735 c-15 -33 5 -58 44 -53 20 3 28 0 29 -11 0 -10 3 -11 5 -4
3 7 0 22 -6 33 -6 12 -9 24 -6 28 4 3 12 -9 18 -26 7 -18 16 -32 20 -32 11 0
-16 53 -37 74 -24 24 -54 20 -67 -9z m57 5 c3 -5 -3 -10 -14 -10 -15 0 -21 -7
-21 -22 0 -18 -2 -20 -9 -9 -6 9 -6 22 0 33 11 20 34 24 44 8z"/>
<path d="M1003 1639 c-94 -26 -101 -29 -54 -22 25 3 76 9 115 13 40 4 55 8 34
9 -20 0 -42 3 -50 5 -7 2 -28 0 -45 -5z"/>
<path d="M16 1596 c3 -8 1 -17 -5 -21 -6 -3 -11 -11 -11 -17 0 -6 9 -3 20 7
23 21 26 45 5 45 -8 0 -12 -6 -9 -14z"/>
<path d="M2970 1105 c-6 -8 -10 -21 -8 -30 3 -15 5 -15 23 0 17 14 17 16 3 11
-10 -3 -18 -1 -18 4 0 5 8 14 18 19 9 6 12 11 6 11 -6 0 -17 -7 -24 -15z"/>
<path d="M2945 874 l-50 -13 50 5 c48 6 63 10 54 17 -2 2 -26 -2 -54 -9z"/>
<path d="M910 358 c0 -8 -7 -24 -16 -37 -13 -18 -18 -20 -25 -10 -6 9 -7 -3
-3 -29 l7 -43 -49 5 c-27 4 -62 15 -77 27 -19 14 -34 18 -50 13 -12 -4 -29 -7
-37 -6 -30 4 -43 -14 -33 -44 7 -20 7 -34 0 -46 -15 -23 8 -48 44 -48 27 0 29
-3 29 -39 0 -52 20 -71 75 -71 61 0 75 17 75 95 l0 64 -37 6 c-43 7 -65 17
-70 32 -2 6 37 10 114 9 115 -1 118 0 121 22 2 13 -3 25 -12 28 -20 8 -21 24
-2 24 8 0 18 5 22 12 5 8 2 9 -9 5 -10 -4 -24 -10 -32 -13 -11 -5 -15 1 -15
19 0 14 -4 29 -10 32 -5 3 -10 0 -10 -7z m39 -77 c30 -23 20 -41 -24 -41 -25
0 -35 5 -40 20 -3 11 -4 23 -1 28 9 14 41 11 65 -7z m-283 -27 c-3 -9 -6 -25
-6 -35 0 -27 -16 -15 -22 16 -6 27 -1 35 20 35 9 0 12 -6 8 -16z m74 2 c0 -25
-17 -27 -41 -6 l-24 19 33 1 c21 0 32 -5 32 -14z m-35 -26 c10 -11 21 -17 26
-15 4 3 10 1 13 -4 7 -11 -49 -35 -63 -26 -13 7 -15 65 -3 65 5 0 17 -9 27
-20z m-30 -52 c31 -14 33 -28 3 -28 -30 0 -52 15 -44 29 9 14 9 14 41 -1z
m153 -1 c8 -10 6 -14 -11 -16 -52 -8 -100 -5 -104 6 -7 21 98 31 115 10z m-1
-35 c7 -5 9 -19 4 -42 -7 -34 -8 -35 -58 -38 l-51 -3 -4 36 -4 35 56 0 c39 0
51 3 40 10 -8 5 -10 10 -5 10 6 0 15 -4 22 -8z"/>
<path d="M2385 314 c-22 -8 -52 -13 -67 -11 l-27 3 20 -27 c16 -23 28 -28 75
-31 30 -1 64 0 75 4 16 6 19 3 19 -25 0 -18 -5 -38 -11 -44 -18 -18 -1 -50 38
-68 42 -20 119 -16 156 8 21 14 24 23 23 69 -1 40 -5 53 -16 53 -8 0 -17 9
-20 20 -7 24 -44 34 -88 24 -29 -6 -34 -4 -42 17 -8 20 -16 24 -52 23 -24 0
-61 -7 -83 -15z m123 -15 c4 -22 -40 -37 -115 -37 -79 -1 -84 17 -10 40 65 20
121 19 125 -3z m102 -31 c0 -4 7 -5 16 -1 12 4 15 1 12 -13 -5 -28 -62 -27
-66 1 -2 15 3 21 18 21 11 0 20 -4 20 -8z m-50 -20 c24 -27 22 -30 -18 -22
-33 7 -42 19 -19 27 6 2 1 2 -11 0 -15 -2 -21 0 -17 7 10 17 43 11 65 -12z
m55 -31 c34 11 35 10 34 -15 0 -23 -1 -24 -8 -8 -7 19 -8 18 -14 -3 -5 -22
-10 -23 -58 -19 -36 4 -47 2 -35 -4 10 -6 35 -8 57 -6 42 4 48 -2 23 -23 -20
-17 -82 -15 -99 3 -8 7 -17 29 -20 49 l-7 37 46 -11 c32 -7 56 -7 81 0z"/>
<path d="M1038 252 c-23 -3 -28 -8 -28 -31 0 -34 43 -60 66 -40 32 26 5 76
-38 71z m19 -49 c-14 -14 -19 -15 -29 -4 -11 10 -9 15 6 27 27 20 47 0 23 -23z"/>
<path d="M2276 228 c-39 -22 -6 -78 48 -78 38 0 56 15 56 47 0 22 -4 24 -71
37 -9 2 -24 -1 -33 -6z m94 -35 c0 -2 -6 -10 -12 -16 -15 -14 -58 -17 -58 -5
0 5 -4 6 -10 3 -5 -3 -10 -4 -10 0 0 3 10 9 23 14 23 9 67 12 67 4z"/>
<path d="M1160 177 c-20 -10 -25 -20 -25 -52 0 -48 16 -54 80 -29 39 14 45 21
45 45 0 15 -3 30 -7 32 -23 13 -71 15 -93 4z m20 -28 c-15 -4 -18 -7 -8 -8 15
-1 16 -5 6 -26 -13 -30 -32 -28 -36 4 -5 31 14 50 41 43 22 -6 22 -6 -3 -13z
m70 -14 c0 -7 -13 -18 -30 -24 -37 -12 -43 10 -7 27 12 6 16 11 9 11 -7 1 -10
6 -7 11 8 13 35 -6 35 -25z"/>
<path d="M1765 176 c-23 -16 -13 -33 23 -41 37 -8 82 10 82 32 0 14 -9 18 -44
20 -24 1 -52 -4 -61 -11z m73 -6 c6 0 12 -4 12 -10 0 -5 -20 -10 -45 -10 -25
0 -45 4 -45 9 0 13 22 21 45 16 11 -3 26 -5 33 -5z"/>
<path d="M900 126 c-5 -5 -10 -20 -10 -32 0 -16 12 -26 50 -42 55 -23 76 -21
85 9 9 28 -11 56 -47 67 -40 12 -64 12 -78 -2z m71 -13 c8 -10 9 -14 2 -10 -6
4 -14 3 -18 -3 -6 -10 3 -13 38 -13 10 0 17 -7 17 -18 0 -20 -15 -25 -25 -9
-3 6 -12 10 -18 10 -7 0 -6 -4 3 -10 23 -15 4 -12 -38 5 -21 9 -32 19 -26 23
6 4 13 15 17 25 8 22 31 22 48 0z"/>
<path d="M1370 133 c-20 -7 -50 -34 -50 -45 0 -4 20 -8 45 -8 30 0 45 4 45 13
0 22 -24 45 -40 40z m20 -28 c11 -13 8 -15 -20 -15 -28 0 -31 2 -20 15 7 8 16
15 20 15 4 0 13 -7 20 -15z"/>
<path d="M1627 112 c-25 -28 -21 -32 27 -32 51 0 67 15 40 35 -26 20 -48 18
-67 -3z m47 2 c25 -9 19 -24 -9 -24 -16 0 -25 6 -25 15 0 16 9 19 34 9z"/>
<path d="M1773 123 c-7 -3 -13 -10 -13 -16 0 -7 -14 -18 -31 -26 -65 -29 -63
-95 3 -73 l33 11 -32 -5 c-19 -3 -34 0 -39 7 -4 8 -3 9 4 5 7 -4 29 -2 49 3
21 6 39 7 41 2 1 -4 15 -6 29 -3 20 4 25 2 21 -9 -4 -10 1 -15 14 -16 10 -1
22 5 25 13 8 23 -23 79 -54 94 -36 18 -36 18 -50 13z m65 -63 c2 -6 10 -10 17
-10 9 0 11 -8 7 -22 l-5 -22 -8 22 c-7 18 -14 20 -58 17 -35 -3 -51 0 -54 10
-9 21 5 26 20 7 13 -15 14 -15 10 0 -3 9 -3 18 -1 21 8 8 69 -12 72 -23z"/>
<path d="M2295 95 c-5 -2 -21 -6 -35 -9 -34 -7 -54 -40 -40 -66 6 -11 15 -20
21 -20 6 0 7 6 2 12 -10 16 -15 48 -7 48 7 0 34 -27 34 -34 0 -3 -8 -3 -17 0
-17 5 -17 5 -1 -6 24 -15 78 -21 78 -9 0 6 -6 9 -12 8 -25 -3 -39 1 -34 10 3
5 -1 14 -9 21 -17 14 -20 30 -6 30 23 0 80 -46 75 -60 -3 -8 -2 -11 2 -7 4 4
14 1 23 -6 14 -10 14 -10 5 3 -9 12 -6 21 17 43 16 16 29 23 29 17 0 -6 5 -8
10 -5 6 3 10 -1 10 -10 0 -8 -11 -21 -25 -27 -14 -6 -25 -14 -25 -17 0 -3 32
-7 71 -8 41 -2 68 1 64 6 -3 5 -23 8 -44 6 -27 -2 -38 0 -38 11 0 17 3 17 29
3 11 -6 22 -8 25 -5 3 3 -6 10 -21 15 -16 7 -26 18 -26 31 0 14 -7 20 -24 20
-13 0 -26 -6 -29 -12 -3 -10 -12 -9 -35 5 -29 16 -45 19 -67 12z m50 -15 c7 0
15 -9 18 -19 4 -17 2 -18 -23 -9 -16 5 -31 16 -34 25 -5 11 -2 14 10 9 8 -3
21 -6 29 -6z"/>
</g>
</svg>
