<?xml version="1.0" standalone="no"?>
<!DOCTYPE svg PUBLIC "-//W3C//DTD SVG 20010904//EN"
 "http://www.w3.org/TR/2001/REC-SVG-20010904/DTD/svg10.dtd">
<svg version="1.0" xmlns="http://www.w3.org/2000/svg"
 width="300.000000pt" height="233.000000pt" viewBox="0 0 300.000000 233.000000"
 preserveAspectRatio="xMidYMid meet">
<metadata>
Created by potrace 1.10, written by Peter Selinger 2001-2011
</metadata>
<g transform="translate(0.000000,233.000000) scale(0.100000,-0.100000)"
fill="#000000" stroke="none">
<path d="M944 2076 c-91 -42 -134 -121 -134 -243 1 -125 57 -237 146 -289 36
-21 54 -25 101 -22 l58 3 0 -56 0 -57 -67 -7 c-37 -3 -70 -10 -72 -14 -3 -4
29 -3 71 2 75 8 75 8 104 -21 l29 -29 -66 -18 c-35 -9 -75 -26 -87 -36 -18
-15 -11 -14 33 6 65 28 135 42 144 27 3 -6 -7 -13 -24 -17 -28 -6 -82 -48 -91
-70 -2 -5 -34 -25 -71 -43 -81 -41 -141 -102 -136 -139 4 -34 42 -61 97 -71
l45 -7 -75 -65 c-218 -191 -278 -282 -286 -437 -4 -70 -1 -99 14 -143 17 -48
23 -55 44 -52 13 1 47 5 74 8 31 3 71 0 105 -10 l55 -15 -90 -1 c-49 -1 -117
-6 -150 -10 -48 -6 -28 -8 100 -10 597 -12 1551 -5 1510 11 -11 4 -89 8 -172
8 -84 1 -153 4 -153 9 0 4 48 7 108 7 100 0 111 2 160 29 141 78 143 243 5
396 -25 28 -84 81 -130 117 -46 36 -100 86 -119 111 l-35 47 46 11 c97 25 111
73 40 141 -25 23 -69 55 -97 69 -29 15 -65 41 -80 59 -15 18 -41 38 -58 45
-34 14 -40 30 -10 30 11 0 19 3 18 8 -2 4 8 20 22 35 23 26 29 28 75 22 27 -4
58 -9 69 -12 11 -3 16 -1 12 5 -3 5 -32 13 -65 17 l-59 7 1 36 c1 21 -1 46 -6
57 -6 19 -4 20 33 17 74 -7 109 6 165 62 85 84 123 220 91 328 -55 192 -241
247 -378 112 -26 -25 -54 -61 -63 -80 l-16 -34 -49 25 c-28 14 -50 29 -50 34
0 16 -82 101 -97 101 -12 0 -14 -7 -9 -30 3 -16 4 -30 1 -30 -2 0 -20 10 -40
21 -26 16 -39 19 -47 11 -8 -8 -8 -15 2 -27 11 -13 8 -15 -21 -15 -38 0 -73
-18 -51 -27 16 -6 16 -23 -1 -23 -7 0 -30 -9 -51 -21 -21 -11 -39 -19 -40 -17
-1 2 -14 24 -29 50 -46 79 -136 137 -217 137 -19 1 -58 -10 -86 -23z m143 -11
c61 -18 122 -74 158 -145 l26 -51 32 24 c41 31 101 51 133 43 35 -9 30 8 -8
27 -28 13 -30 16 -11 16 12 1 33 -3 48 -9 l25 -10 -15 30 c-20 38 -9 38 39 -2
36 -29 38 -30 31 -8 -4 13 -3 20 2 17 6 -4 8 5 6 21 l-5 27 21 -30 c11 -16 21
-39 21 -50 0 -17 2 -17 10 -5 9 13 10 13 10 -1 0 -9 21 -26 50 -39 28 -13 56
-30 62 -37 17 -21 25 -15 33 24 5 26 23 52 64 93 46 47 66 59 107 68 139 30
244 -72 244 -235 0 -159 -97 -293 -214 -293 -48 0 -79 16 -100 51 -17 28 -17
29 4 29 37 0 87 60 95 112 8 54 -14 135 -45 163 -18 16 -18 20 -5 45 27 52 63
72 123 68 44 -2 50 -1 35 10 -25 18 -84 15 -119 -7 -42 -26 -69 -73 -88 -154
-15 -65 -46 -130 -46 -97 0 17 -39 84 -45 78 -3 -2 4 -22 15 -44 11 -21 24
-73 30 -114 7 -47 21 -89 35 -112 31 -47 39 -79 31 -123 -7 -34 -8 -35 -54
-36 -26 0 -81 -7 -122 -14 -74 -14 -74 -14 -15 -9 33 3 87 8 120 11 57 6 59 5
45 -11 -22 -27 -119 -90 -177 -114 -62 -26 -70 -27 -52 -5 8 10 -5 2 -28 -17
-60 -47 -116 -47 -176 0 -23 19 -35 26 -27 16 14 -18 13 -18 -10 -11 -46 14
-125 55 -155 80 l-30 24 90 3 90 2 -100 5 -99 6 -24 35 c-30 44 -26 99 11 156
17 26 29 63 36 114 6 42 18 93 27 115 13 33 14 37 1 27 -8 -7 -18 -24 -21 -37
-13 -51 -30 -26 -62 93 -11 42 -29 76 -53 104 -32 35 -43 41 -86 45 -36 3 -56
0 -70 -11 -19 -15 -19 -16 9 -6 38 14 79 4 116 -27 50 -42 55 -59 26 -94 -78
-93 -38 -269 62 -269 23 0 23 0 6 -29 -45 -77 -159 -68 -238 19 -62 69 -81
121 -81 225 0 80 3 95 27 137 28 46 74 82 126 98 39 12 43 12 99 -5z m42 -211
c1 -11 12 -43 26 -70 31 -62 33 -94 5 -87 -11 3 -27 15 -35 26 -8 12 -15 17
-15 11 0 -13 28 -39 51 -47 24 -8 13 -57 -13 -57 -29 0 -75 51 -88 98 -13 49
0 110 33 156 19 27 21 28 28 10 4 -10 8 -28 8 -40z m792 4 c41 -81 22 -190
-38 -217 -44 -20 -52 -15 -55 42 -2 41 2 59 19 86 13 18 26 55 29 82 4 27 10
49 15 49 5 0 18 -19 30 -42z m-663 -574 c13 -9 60 -29 105 -46 156 -56 139
-54 219 -24 40 15 102 41 137 58 56 26 67 28 92 17 16 -6 29 -13 29 -15 0 -1
-11 -15 -25 -29 -22 -25 -33 -62 -38 -136 -1 -14 -21 -46 -43 -72 -32 -37 -48
-47 -72 -47 -21 0 -33 6 -36 18 -4 10 -19 31 -35 46 -59 56 -157 39 -199 -34
-15 -26 -23 -30 -59 -30 -33 0 -43 4 -48 20 -3 10 -20 31 -38 46 -30 25 -32
31 -29 83 2 42 -2 64 -17 89 -12 17 -25 32 -31 32 -5 0 2 -16 15 -36 25 -36
30 -69 19 -111 -5 -17 -10 -20 -32 -14 -15 5 -32 6 -39 4 -6 -2 -25 3 -42 11
-16 9 -40 16 -53 15 -20 0 -18 -2 9 -12 44 -17 47 -22 29 -49 -9 -12 -16 -30
-16 -39 0 -33 -105 -32 -146 2 -8 6 -14 17 -14 25 0 27 63 84 135 121 41 21
78 45 80 55 6 15 88 66 110 67 6 1 21 -6 33 -15z m628 -49 c9 -14 47 -41 85
-61 69 -37 129 -92 129 -119 0 -8 -10 -21 -22 -29 -53 -33 -138 -31 -138 3 0
10 -9 30 -20 44 l-20 25 42 15 c24 9 36 16 27 16 -9 1 -33 -6 -53 -14 -20 -9
-41 -13 -45 -11 -4 3 -22 1 -40 -4 l-31 -9 0 58 c0 92 50 141 86 86z m-679
-177 c45 -27 73 -65 73 -99 0 -38 -18 -46 -30 -13 -6 15 -13 25 -16 22 -2 -3
0 -17 5 -31 15 -40 -13 -54 -29 -14 -8 20 -9 19 -9 -10 -1 -45 -25 -43 -51 5
-24 46 -55 82 -69 82 -16 0 -13 42 4 67 13 18 22 21 53 16 20 -3 52 -14 69
-25z m707 10 c18 -25 22 -78 6 -78 -6 0 -8 10 -5 23 4 15 -1 32 -14 48 l-21
24 15 -37 c14 -35 14 -38 -9 -65 -13 -15 -31 -45 -40 -66 -11 -28 -21 -37 -33
-35 -13 3 -17 12 -15 33 2 27 1 28 -9 10 -16 -28 -16 -28 -28 -21 -7 5 -7 15
0 33 5 14 7 28 5 31 -3 3 -10 -7 -15 -22 -6 -14 -15 -26 -20 -26 -15 0 -22 35
-12 62 11 30 74 86 104 92 48 11 62 14 69 15 4 0 14 -9 22 -21z m-360 -2 c64
-27 90 -98 61 -160 -21 -44 -59 -66 -116 -66 -33 0 -47 6 -75 34 -28 28 -34
42 -34 75 0 55 21 94 62 114 41 20 59 21 102 3z m-462 -103 c15 -13 13 -20
-22 -86 -90 -168 -71 -268 83 -436 l41 -45 -69 -13 c-94 -17 -113 -27 -131
-69 -14 -34 -17 -36 -52 -29 -139 26 -228 149 -202 282 9 47 36 123 45 123 2
0 1 -31 -2 -70 -6 -69 13 -150 38 -166 5 -3 0 18 -11 46 -11 28 -20 71 -20 95
0 49 33 146 55 165 8 7 15 18 15 24 0 6 -14 -4 -31 -22 -16 -18 -27 -38 -23
-44 4 -7 3 -8 -4 -4 -8 5 -10 1 -6 -11 4 -14 4 -15 -4 -4 -7 10 -17 -1 -38
-45 -24 -49 -29 -72 -29 -134 0 -83 20 -134 70 -180 l27 -25 -39 -6 c-21 -3
-46 -9 -55 -13 -25 -11 -43 59 -43 165 0 79 3 92 38 161 37 77 122 182 137
173 9 -6 150 132 177 172 15 23 24 22 55 -4z m902 -28 c22 -34 72 -83 129
-129 146 -116 204 -191 226 -288 19 -84 -19 -156 -104 -201 -67 -35 -255 -34
-255 1 0 5 46 8 103 8 87 -1 108 2 144 21 60 32 87 76 87 138 0 91 -61 176
-241 333 -40 34 -87 83 -104 107 -18 25 -35 43 -37 40 -3 -3 23 -37 57 -77 33
-40 73 -95 87 -122 63 -120 29 -264 -83 -349 -20 -15 -31 -27 -25 -27 21 0
103 82 124 125 29 55 36 167 14 219 -9 22 -14 42 -10 45 10 11 138 -132 168
-189 55 -101 37 -181 -50 -225 -54 -28 -183 -25 -328 7 l-108 24 56 64 c112
128 141 212 111 316 -9 33 -30 82 -46 110 -16 28 -29 54 -29 58 0 3 17 14 38
25 20 10 37 19 38 20 1 1 18 -24 38 -54z m-622 20 c-4 -21 -10 -25 -38 -25
-30 0 -34 3 -34 25 0 22 4 25 39 25 35 0 38 -2 33 -25z m326 0 c0 -21 -5 -25
-29 -25 -24 0 -29 4 -29 25 0 21 5 25 29 25 24 0 29 -4 29 -25z m-518 -95 c16
0 63 21 105 49 6 3 29 6 52 6 35 0 44 -4 59 -29 9 -15 36 -37 60 -48 57 -25
111 -12 151 36 29 35 85 55 106 38 28 -23 89 -52 109 -52 18 0 13 -8 -30 -52
-61 -63 -84 -92 -106 -135 -23 -45 -13 -42 16 4 12 21 50 69 83 107 32 39 60
75 61 81 1 5 7 21 12 35 10 24 12 21 46 -52 42 -91 48 -175 17 -243 -15 -33
-90 -132 -166 -217 -14 -17 -12 -18 26 -18 101 0 165 -38 157 -92 -4 -33 -48
-39 -48 -6 0 27 -26 68 -42 68 -6 0 -4 -8 5 -18 10 -10 17 -31 17 -45 0 -24
-4 -27 -35 -27 -19 0 -35 4 -35 8 0 5 -7 9 -15 9 -8 0 -15 -4 -15 -8 0 -4 -13
-4 -30 1 -16 5 -38 6 -48 3 -41 -10 -62 42 -43 107 6 19 -1 42 -26 92 -37 76
-40 90 -18 108 9 7 13 15 10 18 -3 3 -12 -3 -19 -14 -12 -16 -28 -19 -98 -20
-77 -1 -85 0 -112 25 -29 26 -27 13 2 -22 14 -16 13 -24 -18 -87 -32 -67 -33
-73 -22 -116 12 -43 4 -82 -16 -85 -4 0 -16 -2 -27 -4 -11 -1 -46 -6 -77 -10
-57 -6 -58 -6 -58 19 0 14 10 35 23 47 l22 23 -25 -16 c-14 -9 -27 -28 -30
-44 -4 -23 -11 -30 -33 -32 -24 -3 -27 0 -27 29 0 18 8 42 17 53 13 15 10 14
-10 -3 -17 -16 -27 -34 -27 -53 0 -21 -5 -28 -20 -28 -23 0 -27 37 -8 73 10
20 10 21 -5 8 -10 -8 -17 -28 -17 -48 0 -23 -4 -33 -12 -30 -16 5 -13 56 5 74
7 7 22 15 33 17 10 2 37 9 59 15 22 6 55 11 73 13 17 1 32 4 32 6 0 12 -31 56
-83 116 -75 88 -96 134 -97 212 0 50 7 74 41 145 l41 84 19 -37 c12 -24 27
-38 39 -38z m385 -338 c6 -4 23 -33 38 -66 23 -48 27 -66 21 -103 -7 -45 -7
-45 -41 -40 -36 6 -115 41 -173 77 l-35 22 35 -31 c44 -39 123 -80 172 -88 21
-3 43 -12 49 -19 10 -12 -5 -14 -93 -14 -101 0 -105 1 -130 27 -14 16 -31 45
-38 65 -10 34 -9 44 15 95 15 32 34 64 43 71 17 13 120 17 137 4z m395 -192
c24 -24 27 -80 5 -80 -10 0 -15 10 -15 32 0 17 -7 40 -17 50 -22 25 2 23 27
-2z"/>
<path d="M1275 1750 c-21 -23 -9 -26 19 -5 11 8 29 12 39 9 13 -4 17 -2 13 5
-11 18 -51 13 -71 -9z"/>
<path d="M1660 1759 c0 -5 5 -7 10 -4 6 4 24 0 40 -9 34 -16 37 -15 14 8 -17
18 -64 22 -64 5z"/>
<path d="M2070 1665 c-26 -42 -68 -66 -130 -76 l-45 -6 43 -2 c63 -2 117 32
148 92 21 39 10 34 -16 -8z"/>
<path d="M910 1686 c0 -17 42 -65 74 -85 23 -15 48 -21 82 -20 l49 2 -50 6
c-62 8 -85 21 -124 68 -17 21 -31 34 -31 29z"/>
<path d="M1270 1660 c-12 -12 -20 -33 -20 -54 0 -43 38 -76 86 -76 l34 0 0 55
c0 60 -22 95 -60 95 -11 0 -29 -9 -40 -20z m77 -16 c8 -21 -13 -42 -28 -27
-13 13 -5 43 11 43 6 0 13 -7 17 -16z"/>
<path d="M1666 1667 c-17 -13 -35 -71 -36 -116 0 -22 3 -23 47 -18 77 8 106
65 62 121 -22 29 -46 33 -73 13z m65 -23 c10 -13 10 -17 -1 -24 -18 -11 -30
-3 -30 21 0 23 13 25 31 3z"/>
<path d="M1468 1453 c-58 -9 -59 -49 -2 -79 38 -21 44 -48 15 -64 -32 -17 -70
-11 -96 14 -22 22 -27 23 -77 14 -75 -14 -75 -21 0 -12 44 5 62 3 62 -5 0 -6
16 -19 35 -28 27 -13 42 -14 69 -6 19 6 40 7 47 2 24 -15 55 -10 94 17 35 23
45 25 94 19 73 -9 63 1 -13 13 -54 9 -60 8 -81 -14 -37 -37 -105 -30 -105 10
0 13 13 29 35 44 38 24 46 58 18 65 -37 10 -69 13 -95 10z m86 -22 c17 -7 17
-9 -9 -29 -34 -27 -56 -28 -86 -2 -21 17 -22 21 -9 30 17 11 76 12 104 1z"/>
<path d="M1225 1425 c44 -7 94 -16 110 -20 17 -4 27 -4 23 0 -12 13 -121 35
-168 34 -37 -1 -31 -3 35 -14z"/>
<path d="M1701 1425 c-70 -16 -100 -32 -36 -20 22 4 76 13 120 20 72 12 75 13
30 13 -27 0 -79 -6 -114 -13z"/>
<path d="M1259 1394 c57 -9 107 -12 112 -7 4 4 -6 8 -24 9 -18 0 -68 3 -112 7
-76 6 -75 6 24 -9z"/>
<path d="M1698 1363 c23 -2 59 -2 80 0 20 2 1 4 -43 4 -44 0 -61 -2 -37 -4z"/>
<path d="M1228 1274 c17 -32 80 -84 131 -107 37 -17 66 -21 146 -22 89 0 105
3 151 27 45 24 124 97 124 115 0 4 -14 -9 -30 -29 -18 -21 -59 -51 -98 -70
-60 -30 -76 -33 -152 -33 -73 0 -93 4 -142 28 -31 15 -75 47 -99 70 -23 23
-37 32 -31 21z"/>
<path d="M1447 1040 c-14 -11 -31 -36 -37 -54 -21 -66 33 -136 106 -136 41 0
94 59 94 105 0 29 -8 45 -34 71 -40 40 -89 46 -129 14z m68 -28 c7 -15 18 -22
35 -21 21 1 22 2 5 6 -19 5 -35 20 -35 36 0 13 16 7 40 -15 l23 -21 -23 -19
c-18 -14 -21 -25 -16 -49 6 -31 6 -31 -19 -15 -14 10 -26 12 -30 6 -12 -19
-27 -10 -22 12 6 23 -8 48 -26 48 -7 0 -7 -4 1 -12 14 -14 16 -54 3 -63 -12
-7 -31 26 -31 54 0 12 5 21 10 21 6 0 10 5 10 12 0 19 32 49 49 46 9 -2 20
-13 26 -26z m62 -103 c-15 -20 -15 -20 -22 11 -5 24 -3 34 12 45 16 12 18 11
21 -11 2 -13 -3 -33 -11 -45z m-46 -10 c27 -14 14 -29 -25 -29 -41 0 -51 9
-28 26 21 16 28 17 53 3z"/>
<path d="M1010 918 c-30 -28 -41 -42 -25 -30 28 19 94 83 84 82 -2 -1 -29 -24
-59 -52z"/>
<path d="M1024 863 c-43 -54 -52 -74 -15 -33 31 35 55 70 48 70 -2 0 -17 -17
-33 -37z"/>
<path d="M930 803 c-80 -98 -102 -218 -57 -317 26 -55 76 -126 89 -126 4 0
-10 24 -32 53 -95 125 -94 241 5 379 42 57 39 63 -5 11z"/>
<path d="M924 684 c-18 -71 17 -178 81 -250 l36 -39 -40 58 c-52 77 -75 145
-69 208 6 54 2 63 -8 23z"/>
<path d="M1140 855 c0 -6 21 -31 46 -55 25 -25 64 -71 85 -102 46 -68 60 -76
27 -16 -25 45 -157 189 -158 173z"/>
<path d="M1815 509 c-52 -54 -116 -84 -147 -69 -22 11 -23 11 -3 -5 25 -20 56
-13 107 22 31 21 97 93 86 93 -2 0 -22 -19 -43 -41z"/>
<path d="M1201 464 c17 -21 63 -44 87 -44 11 0 30 9 43 20 l24 20 -37 -16
c-35 -16 -37 -16 -83 10 -27 15 -42 19 -34 10z"/>
<path d="M920 1440 c-35 -7 -34 -7 10 -8 25 0 74 4 110 8 l65 7 -75 0 c-41 0
-91 -3 -110 -7z"/>
<path d="M1975 1440 c33 -4 83 -8 110 -8 l50 1 -45 8 c-25 4 -74 7 -110 7
l-65 -1 60 -7z"/>
<path d="M1021 1349 c-56 -17 -29 -19 40 -5 47 11 55 14 29 14 -19 0 -50 -4
-69 -9z"/>
<path d="M1929 1350 c23 -5 53 -12 65 -16 15 -5 18 -3 10 5 -6 6 -35 14 -65
16 l-54 4 44 -9z"/>
<path d="M1920 1306 c35 -14 66 -23 68 -21 6 6 -69 36 -103 41 -16 3 -1 -6 35
-20z"/>
</g>
</svg>
