<?xml version="1.0" standalone="no"?>
<!DOCTYPE svg PUBLIC "-//W3C//DTD SVG 20010904//EN"
 "http://www.w3.org/TR/2001/REC-SVG-20010904/DTD/svg10.dtd">
<svg version="1.0" xmlns="http://www.w3.org/2000/svg"
 width="450.000000pt" height="350.000000pt" viewBox="0 0 450.000000 350.000000"
 preserveAspectRatio="xMidYMid meet">
<metadata>
Created by potrace 1.10, written by Peter Selinger 2001-2011
</metadata>
<g transform="translate(0.000000,350.000000) scale(0.100000,-0.100000)"
fill="#000000" stroke="none">
<path d="M1580 3368 c-46 -24 -78 -50 -112 -92 -35 -44 -66 -69 -116 -96 -37
-19 -90 -52 -118 -72 -53 -39 -221 -209 -267 -270 l-28 -36 -42 28 c-71 47
-150 68 -269 73 -98 3 -125 -1 -99 -18 17 -10 41 -142 41 -222 0 -61 5 -85 20
-111 21 -35 72 -62 114 -62 l25 0 -20 -35 c-12 -19 -25 -35 -30 -35 -5 0 -8
-3 -7 -7 1 -5 -11 -35 -26 -68 -201 -434 -189 -824 37 -1259 l44 -85 -28 -6
c-44 -10 -104 -59 -123 -101 -23 -52 -28 -62 -55 -106 -12 -21 -19 -38 -14
-38 5 0 19 17 32 38 l22 37 -4 -75 c-4 -76 -36 -173 -63 -188 -7 -4 44 -7 114
-6 138 1 176 11 291 76 l53 31 42 -49 c82 -97 142 -157 201 -199 74 -53 174
-104 217 -112 24 -4 43 -18 70 -53 65 -83 159 -132 224 -116 37 10 74 54 74
89 0 22 3 27 13 19 6 -5 41 -22 77 -37 95 -39 96 -39 85 -27 -5 6 -46 26 -91
45 -95 40 -188 104 -269 184 -56 57 -145 172 -145 189 0 5 28 -19 63 -52 34
-33 82 -76 107 -94 25 -19 55 -45 68 -58 31 -33 155 -88 230 -102 43 -9 100
-10 180 -6 138 9 134 9 282 1 130 -8 215 6 322 50 35 14 70 29 78 32 8 2 -22
-32 -67 -76 -45 -45 -79 -81 -75 -81 5 0 13 5 20 12 9 9 12 7 12 -11 0 -36 52
-81 95 -81 72 0 129 37 207 135 27 34 55 55 84 66 75 29 215 130 310 224 51
49 103 101 117 114 l26 23 33 -25 c103 -78 232 -117 378 -114 l95 2 -23 23
c-33 32 -59 98 -67 167 l-6 60 16 -34 c8 -19 18 -32 21 -28 3 3 -1 18 -9 34
-8 15 -20 54 -27 86 -18 88 -78 147 -150 147 -18 0 -30 3 -28 8 2 4 27 54 56
111 106 206 135 337 135 616 0 173 -2 199 -25 286 -32 119 -92 238 -159 319
l-52 62 54 -7 c30 -4 58 -10 62 -14 4 -5 26 -49 48 -100 93 -217 125 -437 105
-739 -5 -71 -5 -74 6 -32 18 77 15 361 -6 470 -23 116 -64 245 -110 345 -19
41 -32 75 -28 76 4 0 -2 4 -13 9 -11 4 -28 22 -38 39 l-18 31 27 0 c44 0 111
38 135 77 18 29 24 58 30 152 4 64 12 131 19 149 7 18 11 35 9 36 -2 2 -56 0
-119 -4 -121 -8 -180 -24 -266 -75 -64 -37 -50 -41 18 -5 88 48 137 61 244 68
l102 7 -5 -25 c-2 -14 -8 -76 -13 -139 -11 -138 -28 -177 -90 -208 -24 -13
-58 -23 -75 -23 -27 0 -37 8 -65 53 -19 28 -58 86 -87 127 -36 51 -49 76 -40
81 6 3 62 18 122 33 171 41 224 58 238 74 10 13 9 14 -10 3 -36 -19 -377 -103
-380 -94 -7 20 -79 123 -131 186 -74 91 -171 170 -264 216 -58 29 -86 50 -117
88 -91 116 -199 159 -296 119 -59 -25 -92 -105 -65 -156 5 -10 62 -70 125
-133 129 -129 158 -181 37 -66 -86 83 -140 115 -257 155 -77 27 -88 28 -333
32 -249 4 -254 3 -344 -23 -51 -14 -115 -38 -142 -53 -60 -32 -187 -156 -237
-233 -112 -171 -129 -199 -129 -213 0 -9 -4 -16 -10 -16 -10 0 -14 20 -12 53
1 9 -3 17 -8 17 -6 0 -10 9 -10 20 0 11 -4 20 -8 20 -5 0 -8 55 -8 123 1 115
3 126 33 189 40 86 103 178 145 213 44 38 126 75 164 75 43 0 99 -25 118 -52
20 -29 20 -87 0 -116 -8 -12 -11 -22 -6 -22 5 0 17 18 27 40 16 35 16 44 4 76
-20 53 -58 77 -126 82 -51 3 -66 0 -123 -30z m1325 -2 c167 -78 325 -424 249
-544 l-21 -33 -28 78 c-46 129 -128 293 -189 378 -65 90 -105 135 -120 135 -6
0 8 -19 31 -42 91 -95 189 -268 259 -457 l38 -103 -29 -54 -29 -54 -17 57
c-22 80 -77 196 -88 189 -5 -4 -13 -1 -17 5 -4 8 -3 9 4 5 51 -31 -94 151
-177 225 -75 65 -94 97 -85 143 15 85 120 119 219 72z m-777 -179 c-37 -13
-86 -38 -108 -56 -22 -18 -65 -39 -97 -47 -102 -27 -191 -81 -279 -170 -58
-59 -91 -85 -119 -93 -21 -6 -40 -9 -41 -8 -1 1 17 31 41 65 146 215 287 304
509 321 165 13 167 13 94 -12z m318 12 c192 -26 332 -101 450 -237 115 -134
157 -228 155 -348 -1 -63 -26 -172 -56 -249 -6 -14 -5 -17 3 -10 19 18 52 134
63 218 18 149 50 170 53 35 1 -58 -4 -82 -21 -117 -13 -25 -21 -47 -18 -49 3
-3 15 17 27 44 25 55 40 233 19 220 -18 -12 -13 12 16 67 l27 52 8 -45 c18
-112 -18 -268 -82 -349 -28 -35 -35 -51 -26 -54 8 -3 24 5 37 19 12 13 19 24
16 24 -4 0 4 18 19 39 14 22 23 44 20 49 -3 6 2 27 11 48 13 29 17 69 17 156
1 65 4 118 8 118 3 0 13 3 22 6 13 5 16 -2 16 -34 0 -53 -24 -166 -49 -233
-24 -62 -18 -76 14 -35 37 46 73 125 95 206 l20 75 -4 -75 c-2 -44 0 -67 5
-55 4 11 8 46 8 77 1 49 5 59 27 77 15 12 32 21 38 21 25 0 137 -61 143 -77 4
-10 11 -21 16 -24 30 -21 -58 -144 -154 -214 -32 -24 -107 -68 -166 -98 -60
-31 -117 -63 -128 -72 -42 -34 253 126 311 169 33 25 76 65 95 90 19 25 37 46
40 46 16 0 -12 -86 -39 -123 -49 -68 -133 -119 -276 -165 -70 -23 -141 -49
-157 -58 -17 -8 -33 -13 -36 -11 -2 3 5 10 16 17 12 6 21 16 21 22 0 6 -11 1
-24 -11 -14 -13 -23 -31 -21 -41 2 -11 -1 -17 -8 -15 -7 3 -25 -7 -42 -21 -37
-32 -22 -29 84 15 103 44 197 58 274 42 117 -24 329 -151 416 -247 49 -56 118
-171 108 -181 -3 -3 -12 9 -21 25 -40 78 -183 174 -343 232 -47 17 -63 28 -65
44 -2 11 -9 20 -16 19 -6 -2 -11 2 -9 8 2 12 -63 33 -149 48 -62 12 -168 -1
-244 -28 -71 -25 -55 -26 39 -1 94 25 199 25 271 0 30 -10 59 -16 64 -13 5 3
6 1 2 -6 -4 -6 0 -14 9 -17 27 -11 34 -45 18 -99 -24 -81 -30 -84 -42 -23 -12
55 -32 83 -78 107 -26 13 -126 15 -170 2 -23 -7 -47 -5 -80 4 -26 8 -60 17
-75 20 -16 3 -27 11 -25 18 1 6 -3 11 -9 10 -9 -2 -9 9 -2 40 17 78 12 226
-11 292 -25 73 -76 125 -121 125 -41 0 -31 14 31 46 38 19 54 22 64 14 7 -6
32 -49 56 -97 42 -81 44 -90 43 -167 -1 -80 -24 -190 -44 -210 -5 -5 -10 -17
-10 -25 0 -10 12 -3 35 19 32 31 48 59 26 46 -17 -11 -19 23 -5 71 25 80 14
178 -30 267 -42 86 -102 157 -152 181 -19 9 -39 27 -44 39 -5 13 -16 26 -25
30 -13 5 -12 1 4 -20 12 -15 21 -32 21 -40 0 -7 13 -15 29 -19 16 -3 39 -17
51 -30 l22 -24 -38 -19 c-22 -11 -56 -34 -78 -51 -21 -17 -48 -31 -60 -31 -19
0 -21 5 -20 61 0 61 1 62 37 81 20 10 37 22 37 27 0 15 -39 19 -57 6 -16 -12
-14 -13 12 -8 l30 5 -30 -20 -30 -20 -22 47 c-12 25 -22 41 -22 34 -1 -7 4
-24 11 -38 9 -21 9 -27 -5 -38 -10 -6 -19 -23 -22 -35 -4 -21 -2 -22 12 -10
14 11 15 10 10 -7 -13 -45 -19 -80 -13 -73 15 13 27 91 16 98 -7 5 -6 11 4 19
12 10 15 9 15 -6 1 -10 4 -37 7 -60 5 -33 2 -45 -15 -62 -22 -22 -81 -29 -81
-10 0 5 -5 7 -10 4 -7 -4 -9 2 -6 17 3 12 10 66 16 118 11 95 9 110 -25 205
-6 20 -6 20 9 1 8 -11 23 -44 31 -74 15 -49 15 -63 1 -150 -9 -53 -13 -98 -11
-101 3 -2 5 1 5 7 0 7 7 9 18 5 12 -4 14 -3 7 5 -10 11 0 200 10 211 2 1 51 5
108 8 93 5 107 4 125 -13 32 -31 62 -87 63 -119 1 -19 3 -23 6 -12 4 17 7 17
29 -4 23 -21 23 -24 7 -30 -15 -6 -13 -8 7 -8 14 -1 37 -8 50 -17 14 -8 0 9
-31 38 -31 29 -60 64 -64 78 -10 33 -107 133 -165 170 -55 35 -151 70 -193 70
-17 0 -44 11 -61 24 -45 34 -109 64 -169 81 l-52 14 47 0 c26 1 82 -4 124 -10z
m-177 -25 c39 -32 41 -71 6 -112 -14 -17 -21 -33 -16 -36 12 -8 51 59 51 87 1
21 2 20 25 -8 40 -49 32 -128 -18 -177 -13 -12 -36 -41 -52 -63 l-27 -40 43
46 c24 26 72 61 105 77 69 35 73 33 108 -35 20 -41 20 -53 -1 -53 -9 0 -25 -7
-35 -17 -21 -19 -25 -41 -4 -24 19 16 37 -9 43 -62 l5 -44 -58 4 c-85 6 -87 8
-80 48 5 24 2 46 -9 70 -18 37 -54 74 -42 43 4 -12 -4 -23 -30 -38 -32 -19
-35 -24 -31 -60 2 -28 0 -40 -10 -40 -18 0 -15 192 4 238 7 18 9 30 4 27 -6
-3 -10 -3 -10 2 -6 118 -8 152 -15 171 -10 30 6 28 44 -4z m-893 -43 c-26 -51
-36 -61 -71 -71 -22 -6 -80 -34 -129 -61 -48 -28 -90 -48 -92 -46 -5 5 127
123 175 157 38 26 133 80 142 80 4 0 -7 -27 -25 -59z m835 40 c1 -9 1 -32 1
-51 -1 -32 0 -33 8 -10 5 16 6 -5 2 -54 -4 -64 -3 -78 8 -71 9 5 11 4 6 -4 -8
-12 -26 -6 -26 9 0 5 -14 32 -32 60 -29 47 -31 54 -20 83 10 29 10 30 -3 13
-28 -36 -14 -196 16 -196 5 0 6 -6 3 -14 -3 -8 -1 -23 5 -33 9 -15 10 -12 4
12 -6 27 -5 29 10 16 25 -20 21 -8 -13 34 -21 26 -30 49 -30 74 l0 36 32 -54
c28 -49 31 -62 35 -161 2 -71 0 -111 -7 -115 -8 -5 -9 9 -4 44 l7 52 -56 52
c-69 65 -80 87 -80 156 0 51 3 57 38 88 21 18 33 33 26 33 -7 0 -44 -31 -82
-69 -81 -81 -122 -159 -139 -264 -6 -40 -14 -79 -17 -87 -3 -8 -5 -30 -4 -47
2 -18 -2 -33 -8 -33 -6 0 -11 15 -12 33 0 17 -2 43 -3 56 -3 27 -58 79 -94 88
l-23 6 27 28 c18 19 23 29 13 29 -8 0 -20 -9 -27 -21 -9 -14 -19 -18 -35 -14
-17 5 -19 4 -7 -4 11 -8 4 -10 -30 -8 -25 1 -58 -2 -75 -6 -29 -8 -28 -6 20
43 55 57 53 56 183 28 l52 -11 1 -56 c1 -31 5 -69 8 -86 5 -18 7 5 7 60 0 76
3 98 25 145 15 30 45 76 68 102 68 76 218 136 222 89z m164 -5 c28 -9 72 -33
99 -52 34 -25 62 -37 90 -39 57 -4 142 -38 199 -81 27 -19 47 -37 45 -38 -1
-2 -48 -6 -104 -9 l-101 -5 -22 53 c-22 52 -60 103 -45 59 4 -12 -10 -3 -37
22 -24 23 -58 49 -76 58 -54 27 -51 18 4 -14 82 -47 134 -129 132 -212 l0 -43
-14 42 c-19 61 -68 133 -128 190 -28 26 -51 51 -49 56 1 4 -2 7 -7 7 -5 0 -17
3 -27 7 -9 3 19 -29 64 -72 111 -105 144 -172 150 -297 3 -49 1 -93 -4 -98 -5
-5 -9 26 -10 73 -1 127 -11 145 -218 368 -29 31 -30 36 -12 32 18 -4 19 -3 6
7 -17 14 -17 14 65 -14z m788 -2 c99 -50 201 -141 298 -266 18 -23 26 -37 16
-29 -12 10 -17 10 -17 1 0 -6 9 -14 20 -17 11 -3 17 -9 15 -14 -3 -4 -24 1
-48 11 -50 23 -111 25 -192 5 -33 -8 -62 -14 -65 -15 -3 0 -5 22 -5 50 0 27 1
50 3 50 2 0 11 -19 22 -42 10 -24 19 -36 19 -28 1 8 -8 33 -20 54 -11 21 -25
50 -30 64 -10 25 -9 25 36 19 50 -7 131 -45 185 -87 19 -14 42 -31 50 -35 41
-24 -20 32 -73 66 -62 40 -120 64 -178 74 -32 5 -37 10 -48 46 -7 22 -21 56
-32 75 -30 54 -29 54 44 18z m-1098 -107 c-4 -21 -1 -48 9 -72 9 -20 16 -39
16 -41 0 -6 -81 33 -92 44 -8 8 -1 24 26 57 21 25 39 45 42 45 3 0 2 -15 -1
-33z m-123 -16 c-15 -21 -34 -56 -41 -78 l-13 -40 -71 18 c-39 11 -80 19 -91
19 -21 1 -21 1 -1 16 46 36 192 102 228 103 14 1 13 -5 -11 -38z m-622 -50
c-27 -82 -25 -123 10 -198 17 -34 30 -68 30 -74 0 -5 7 -24 16 -41 11 -21 16
-57 15 -119 0 -55 6 -103 15 -126 8 -21 12 -27 8 -13 -3 14 -7 50 -9 80 l-4
55 9 -47 c9 -54 50 -181 56 -176 2 2 -5 32 -16 67 -10 35 -24 95 -30 133 -6
39 -13 74 -15 78 -3 5 -2 29 2 55 9 66 55 125 111 141 42 13 42 13 30 -9 -6
-12 -30 -51 -52 -87 -38 -60 -41 -71 -45 -147 -2 -49 3 -113 12 -155 12 -61
18 -118 11 -118 -1 0 -19 26 -40 58 -22 31 -42 59 -47 60 -4 2 -4 9 -1 14 4 6
3 8 -3 5 -5 -3 -17 3 -27 14 -10 12 -20 18 -23 15 -4 -3 5 -19 19 -34 32 -34
82 -102 76 -102 -19 0 -120 125 -110 135 4 5 2 5 -4 2 -6 -3 -11 -1 -11 6 0 7
-16 37 -35 67 -49 76 -76 143 -87 209 -5 31 -14 69 -20 84 -15 38 -15 39 17
35 26 -3 27 -6 35 -73 4 -38 14 -95 21 -126 16 -62 64 -175 71 -167 3 2 -5 24
-16 48 -31 64 -50 135 -58 215 l-7 72 33 -10 32 -10 -6 -101 c-5 -92 -4 -107
19 -163 14 -35 21 -60 15 -56 -5 3 -8 0 -5 -7 2 -7 11 -14 20 -16 13 -1 11 9
-10 60 -23 52 -26 74 -25 151 1 50 3 101 5 114 2 19 -3 26 -27 34 -16 5 -40
19 -52 30 -19 17 -32 19 -90 15 -58 -5 -88 -14 -158 -46 -5 -3 2 9 15 26 23
29 49 45 35 21 -9 -14 78 30 87 45 5 6 8 7 8 1 0 -5 4 -4 9 4 5 8 26 14 50 14
24 0 38 4 34 10 -11 17 -86 -1 -131 -33 -43 -30 -71 -34 -41 -6 37 36 286 162
297 151 2 -1 -6 -30 -18 -64z m1078 -28 c-55 -28 -63 -28 -44 -1 9 12 16 38
16 57 l0 35 35 -34 35 -34 -42 -23z m-280 -56 c12 -12 28 -42 34 -66 6 -25 13
-40 16 -33 2 7 -1 26 -7 42 -10 31 -4 39 17 18 7 -7 12 -37 11 -72 -1 -49 -3
-55 -9 -31 -6 23 -8 25 -10 10 -2 -11 -3 -25 -3 -31 0 -6 -6 -11 -14 -11 -11
0 -14 10 -11 38 2 20 0 35 -4 33 -5 -3 -8 -12 -8 -20 0 -8 -4 -12 -10 -9 -16
10 -12 43 8 55 16 10 15 10 -3 8 -27 -4 -31 -34 -9 -74 14 -26 16 -36 6 -46
-24 -24 -34 8 -35 108 0 55 -2 86 -5 71 -3 -23 -6 -26 -18 -16 -11 9 -20 9
-41 0 -14 -6 -23 -14 -20 -17 3 -3 14 -1 24 4 32 18 47 -1 45 -58 0 -28 3 -62
8 -76 10 -26 9 -27 -14 -18 -11 4 -16 19 -16 44 0 52 -8 68 -41 85 -38 20 -44
19 -57 -10 -17 -38 -15 -54 14 -92 28 -37 27 -50 -3 -34 -10 5 -25 12 -34 14
-14 5 -14 13 -2 89 8 45 23 102 33 125 l19 43 58 -27 c32 -14 68 -35 81 -46z
m-784 -95 c-1 -2 -7 13 -14 32 -7 23 -8 52 -3 83 8 48 8 48 13 -32 3 -44 5
-81 4 -83z m1606 127 c0 -6 -4 -7 -10 -4 -5 3 -10 11 -10 16 0 6 5 7 10 4 6
-3 10 -11 10 -16z m-2097 -94 c83 -40 95 -51 79 -67 -7 -7 -29 -3 -68 11 -31
12 -94 31 -139 41 -45 10 -104 28 -131 40 l-49 21 115 -4 c109 -4 119 -6 193
-42z m-157 -20 c55 -14 127 -35 162 -46 l63 -21 -36 -46 c-19 -26 -58 -85 -87
-130 l-52 -84 -40 7 c-87 13 -116 59 -116 182 0 43 -7 102 -14 130 -13 50 -13
52 4 43 10 -5 62 -21 116 -35z m454 16 c5 -11 17 -52 25 -92 18 -85 55 -171
101 -236 18 -26 30 -51 27 -56 -3 -5 10 -24 28 -43 19 -19 32 -36 29 -37 -3
-2 14 -20 38 -41 23 -21 42 -36 42 -33 0 2 16 -11 36 -29 41 -39 37 -54 -14
-54 -20 -1 -55 -7 -76 -15 -26 -9 -45 -11 -57 -4 -23 12 -71 12 -105 -1 -15
-6 -29 -8 -32 -6 -11 12 55 26 156 35 l107 10 -110 -3 c-121 -4 -150 -13 -198
-64 -29 -30 -46 -82 -47 -139 0 -38 -1 -38 44 -16 29 13 39 14 65 3 32 -13 42
-30 17 -30 -19 0 -83 -73 -101 -116 -17 -40 -10 -60 29 -92 l25 -19 -27 -19
c-23 -16 -45 -19 -134 -19 -60 0 -103 -4 -99 -8 11 -11 36 -11 116 -3 l60 7
-50 -21 c-29 -12 -63 -19 -80 -16 -137 20 -184 30 -223 45 l-46 18 100 6 c54
4 143 10 197 13 87 6 100 5 119 -12 11 -11 19 -14 16 -9 -2 6 -12 27 -22 49
-13 29 -15 45 -8 66 7 18 6 44 -4 81 l-13 54 6 -74 6 -74 -32 19 c-29 17 -43
44 -22 44 4 0 8 17 7 37 -1 30 4 40 22 48 14 6 20 15 16 25 -22 58 -46 160
-41 174 8 21 62 53 111 67 80 22 247 9 329 -26 10 -4 17 -3 17 4 0 6 -6 11
-14 11 -7 0 -19 7 -26 15 -7 8 -24 14 -39 13 -14 -2 -57 1 -95 6 -121 15 -266
-25 -291 -82 -5 -12 -23 -27 -40 -32 -55 -18 -181 -98 -239 -151 -66 -60 -112
-123 -137 -188 -24 -61 -24 -29 0 40 34 99 73 163 145 237 77 80 139 125 249
179 62 31 84 37 157 41 73 4 96 0 161 -22 85 -29 89 -30 89 -15 0 5 -4 8 -9 5
-5 -3 -11 1 -15 9 -3 8 -13 14 -23 13 -10 -1 -53 6 -96 16 -103 24 -167 16
-271 -35 -171 -85 -297 -202 -366 -341 -52 -106 -62 -183 -43 -316 25 -171
100 -326 213 -443 l65 -68 -59 -11 c-70 -14 -59 -24 -131 126 -71 146 -105
276 -112 425 -6 122 5 287 16 256 5 -14 12 -3 25 40 22 69 57 141 99 203 42
61 149 164 202 195 l43 26 37 -26 c21 -14 43 -25 49 -25 6 1 -6 10 -26 20 -45
24 -62 46 -27 36 13 -4 76 -13 139 -22 63 -8 133 -20 155 -27 22 -6 46 -11 53
-10 6 0 12 -3 12 -9 0 -5 5 -6 11 -2 15 9 -36 38 -153 89 -158 69 -244 146
-280 250 -10 30 -17 41 -18 27 0 -43 42 -112 107 -172 66 -62 64 -68 -14 -39
-65 24 -125 179 -92 241 10 18 12 17 31 -18 49 -92 151 -181 314 -274 93 -53
111 -61 67 -29 -18 13 -33 29 -33 35 0 7 -18 28 -39 47 -22 19 -37 38 -33 41
3 4 24 -11 46 -31 l40 -38 -35 43 c-79 100 -117 157 -112 167 4 5 3 7 -1 3 -4
-3 -26 14 -49 40 -39 42 -122 91 -134 78 -3 -2 12 -12 33 -21 22 -9 54 -30 73
-48 50 -47 143 -176 136 -187 -4 -6 -11 -8 -16 -4 -5 3 -7 9 -4 13 2 5 -5 17
-18 27 l-22 19 19 -22 c11 -13 15 -23 10 -23 -5 0 -56 47 -113 105 -58 58
-108 105 -112 105 -8 0 197 -207 272 -273 64 -58 55 -54 -71 29 -103 67 -161
123 -204 197 -27 45 -27 47 -9 71 18 25 107 71 153 79 14 2 28 5 32 6 4 0 12
-8 18 -18z m1378 12 c-1 -5 2 -33 6 -65 5 -36 4 -63 -3 -75 -9 -15 -10 -11
-11 23 0 23 -7 58 -15 77 -13 33 -13 36 3 40 9 3 18 5 20 6 1 0 1 -2 0 -6z
m807 -13 c-10 -11 -23 -20 -29 -20 -6 0 -12 -17 -14 -38 -3 -53 -29 -127 -69
-199 -19 -35 -36 -63 -38 -63 -2 0 5 21 16 48 26 60 49 163 49 224 l0 47 43 9
c61 14 62 14 42 -8z m-1595 -29 c0 -34 4 -41 34 -55 19 -9 38 -25 41 -36 4
-11 11 -20 16 -20 6 0 8 -4 5 -8 -3 -5 1 -9 9 -9 11 0 9 7 -6 28 -19 28 -26
84 -10 93 17 11 39 -30 46 -84 4 -30 13 -58 19 -62 7 -5 5 -8 -6 -8 -10 0 -18
4 -18 9 0 4 -10 8 -22 8 -35 -1 -107 38 -171 93 -32 28 -68 50 -79 50 -17 0
-18 3 -8 14 12 16 40 22 108 25 l42 1 0 -39z m285 14 c32 -32 37 -115 6 -115
-18 0 -71 65 -71 89 0 19 19 51 31 51 5 0 21 -11 34 -25z m333 -2 c13 -33 3
-104 -16 -111 -15 -5 -16 41 -2 68 7 13 7 21 0 25 -5 3 -10 -4 -10 -16 0 -21
0 -21 -21 2 -17 20 -19 21 -10 3 6 -12 6 -26 0 -35 -12 -19 -11 -29 2 -29 5 0
8 4 4 9 -3 5 -1 12 5 16 6 4 9 -4 8 -19 -2 -20 -5 -23 -20 -15 -10 5 -18 20
-18 34 0 13 -3 30 -6 39 -4 10 5 22 28 36 42 26 43 25 56 -7z m-552 7 c14 -14
5 -70 -11 -70 -30 0 -58 54 -38 73 10 10 38 8 49 -3z m-199 -52 c31 -29 29
-42 -14 -86 -25 -24 -45 -58 -57 -97 -23 -70 -32 -230 -18 -292 6 -25 6 -43 1
-43 -5 0 -9 5 -9 11 0 5 -4 8 -9 5 -4 -3 -7 11 -5 32 2 20 -4 75 -13 122 -16
89 -13 196 7 228 10 14 10 13 6 -8 -3 -14 -8 -43 -11 -65 -4 -32 -2 -29 10 15
7 30 12 62 9 72 -3 9 0 19 5 22 6 4 22 29 37 56 15 28 30 50 32 50 3 0 16 -10
29 -22z m100 -60 c4 -8 0 -9 -11 -5 -10 4 -26 7 -37 7 -13 0 -19 7 -19 23 0
13 -6 29 -12 37 -7 7 6 -1 29 -19 24 -18 46 -37 50 -43z m1953 -99 l82 -120
-38 6 c-22 4 -56 16 -78 26 -21 11 -41 18 -43 15 -10 -10 80 -47 126 -53 41
-5 49 -10 69 -44 l22 -38 -38 6 c-81 11 -111 24 -152 66 -26 25 -38 33 -31 20
11 -22 10 -23 -19 -23 l-31 0 22 29 c12 16 23 41 24 55 2 14 8 41 15 60 6 20
10 44 8 53 -2 10 -12 -20 -23 -66 -16 -67 -28 -92 -57 -126 -45 -50 -92 -75
-145 -75 l-38 0 44 23 c62 31 146 110 170 160 13 27 21 63 21 95 0 29 2 52 4
52 2 0 40 -54 86 -121z m-1370 93 c63 -32 92 -56 121 -96 16 -21 29 -42 29
-45 0 -3 -21 -5 -47 -3 -39 3 -56 -2 -87 -23 -21 -14 -39 -25 -40 -23 -2 2
-12 19 -24 40 -26 42 -96 108 -115 107 -6 0 -3 -6 7 -12 11 -7 34 -25 52 -42
31 -28 32 -31 18 -57 l-15 -28 -43 25 c-34 20 -48 23 -67 16 -23 -9 -23 -10 7
-10 21 -1 51 -16 88 -43 54 -40 67 -60 46 -73 -5 -3 -10 -12 -10 -18 0 -7 9
-1 20 13 l19 25 21 -47 c30 -68 40 -142 32 -228 l-8 -75 -6 75 c-6 79 -28 145
-61 194 l-20 29 -18 -22 c-54 -66 -74 -205 -44 -306 l15 -50 -8 45 c-4 25 -7
79 -7 120 1 60 6 87 28 134 l27 59 20 -23 c54 -62 69 -223 36 -375 -29 -129
-44 -128 -62 3 -17 120 -17 217 1 287 21 79 13 95 -9 17 -13 -49 -16 -93 -14
-213 2 -82 6 -140 10 -127 5 20 6 20 7 -7 0 -16 -4 -37 -9 -45 -5 -8 -10 -12
-10 -9 -1 30 -37 182 -62 258 -24 74 -39 102 -72 136 -22 23 -47 44 -54 46
-10 3 -13 29 -13 94 -1 77 2 92 19 105 11 9 26 29 35 46 19 36 92 106 132 127
40 21 93 21 135 -1z m-326 -11 c3 -5 -1 -11 -9 -15 -8 -3 -15 0 -15 7 0 8 -4
6 -10 -3 -8 -13 -10 -12 -10 3 0 18 34 24 44 8z m601 -31 c96 -46 165 -130
107 -130 -10 0 -28 -7 -40 -16 -21 -14 -26 -14 -65 4 -23 11 -57 23 -75 27
-21 4 -37 16 -46 33 -8 15 -33 45 -56 67 l-41 40 28 7 c47 11 125 -2 188 -32z
m-787 6 c26 -13 52 -21 59 -19 6 2 14 -1 18 -6 3 -6 0 -8 -8 -5 -9 3 -14 0
-14 -8 3 -25 -57 -82 -111 -107 -56 -26 -134 -96 -158 -142 -8 -16 -18 -45
-23 -66 -8 -32 -9 -25 -10 47 -1 106 23 164 81 195 36 19 39 19 85 3 56 -20
72 -15 20 7 -76 32 -139 8 -175 -66 l-21 -44 6 40 c9 62 41 147 65 172 31 33
120 32 186 -1z m290 -16 c-25 -21 -51 -52 -57 -68 -8 -20 -29 -36 -72 -56
l-59 -29 -40 18 c-22 10 -43 16 -46 13 -2 -3 13 -13 35 -22 l41 -16 -45 -45
c-25 -24 -45 -52 -46 -62 0 -15 -2 -14 -11 4 -6 13 -8 44 -3 78 5 46 14 65 43
97 66 74 176 127 261 128 l44 0 -45 -40z m802 2 c40 -39 57 -84 66 -167 l5
-50 -25 45 c-48 89 -139 154 -231 167 l-50 7 65 16 c106 28 127 26 170 -18z
m-1966 -74 c7 -23 3 -29 -32 -52 -22 -13 -56 -28 -77 -32 l-37 -7 54 84 c30
46 58 91 63 99 7 11 11 5 16 -25 3 -22 9 -52 13 -67z m1863 30 c58 -27 117
-89 149 -155 23 -50 25 -63 19 -122 -7 -75 -24 -141 -36 -141 -4 0 -11 10 -14
23 -13 43 -59 98 -102 124 -37 21 -42 29 -36 47 4 11 8 42 8 68 0 40 2 45 16
37 32 -17 96 -98 107 -137 7 -22 13 -58 14 -81 1 -22 6 -41 11 -41 14 0 -1 97
-24 151 -22 50 -66 97 -114 122 -42 22 -5 22 42 1 41 -20 78 -66 103 -131 11
-26 19 -41 20 -32 2 71 -105 189 -171 189 -13 0 -42 21 -75 56 l-53 55 47 -6
c26 -4 66 -16 89 -27z m-519 -125 c-12 -12 -17 -11 -31 5 -14 16 -16 24 -7 47
l11 29 20 -34 c17 -28 18 -35 7 -47z m104 45 c-7 -7 -12 -19 -12 -27 0 -9 7
-2 16 15 14 30 18 32 57 27 23 -3 44 -8 47 -10 3 -3 4 -30 3 -60 -2 -35 3 -68
12 -86 19 -38 12 -60 -35 -117 -21 -25 -52 -67 -70 -95 -18 -29 -29 -40 -25
-25 14 46 37 83 84 133 25 28 37 45 26 39 -72 -38 -149 -192 -127 -253 8 -20
10 -17 20 23 11 43 77 153 106 177 13 11 14 0 12 -72 -4 -97 -25 -152 -100
-262 -25 -37 -43 -71 -40 -76 3 -5 -1 -6 -9 -3 -26 10 13 139 81 268 60 111
77 152 48 111 -7 -11 -37 -63 -65 -115 -28 -52 -51 -88 -52 -80 0 8 -5 2 -10
-15 -5 -16 -7 -36 -4 -43 3 -7 1 -11 -4 -8 -5 3 -14 -15 -21 -39 -27 -96 -33
-49 -14 105 7 57 9 61 14 30 3 -19 0 -51 -7 -70 -20 -57 -14 -69 8 -15 10 28
17 56 14 64 -3 7 0 62 7 121 10 96 10 114 -6 174 -10 36 -27 78 -38 91 -26 33
-19 49 38 85 45 28 71 33 46 8z m-1409 -18 c21 -35 56 -55 112 -65 47 -8 263
-94 272 -107 3 -6 -4 -5 -15 1 -12 6 -81 20 -154 32 -169 26 -169 25 -197 60
l-23 30 51 -31 c29 -16 57 -30 64 -30 12 0 -90 60 -108 63 -5 1 -15 18 -22 37
l-12 35 2 -35 c2 -33 -1 -37 -47 -58 -42 -20 -145 -45 -154 -37 -2 1 7 19 19
39 17 29 27 36 52 36 18 0 55 13 82 30 28 16 52 29 55 29 3 1 14 -13 23 -29z
m1628 -5 c29 -15 101 -91 119 -126 12 -21 10 -25 -15 -44 -16 -11 -47 -36 -69
-55 -37 -33 -39 -34 -32 -10 4 14 10 43 13 65 4 35 1 44 -26 69 -17 17 -31 38
-31 48 0 9 -14 33 -30 52 l-31 35 38 -11 c21 -6 49 -16 64 -23z m174 -39 c4
-20 1 -47 -9 -71 l-17 -39 -33 50 c-18 27 -41 56 -50 63 -9 7 -16 17 -16 21 0
10 47 30 71 30 13 0 18 5 14 13 -4 6 3 2 14 -11 11 -13 23 -38 26 -56z m-785
38 c-6 -14 -10 -56 -10 -93 l0 -68 -41 -12 c-34 -10 -44 -10 -64 3 -14 9 -33
16 -45 16 -11 0 -20 2 -20 5 0 19 36 68 72 99 38 33 44 35 55 20 6 -9 9 -23 6
-32 -5 -14 -4 -15 8 -4 11 10 11 16 1 32 -6 11 -12 22 -12 25 0 3 48 33 57 35
1 0 -2 -12 -7 -26z m-205 -64 l0 -81 -38 -10 c-47 -12 -119 -76 -142 -126 -13
-27 -19 -32 -26 -22 -24 38 5 145 56 213 29 37 122 105 145 106 3 0 5 -36 5
-80z m761 -20 c-2 -25 -2 -37 1 -27 5 20 8 20 34 7 27 -15 24 -24 -14 -42
l-34 -16 -16 46 c-11 31 -15 60 -10 86 l6 39 19 -24 c14 -18 18 -35 14 -69z
m-1605 -52 c-70 -48 -171 -146 -217 -214 -20 -29 -51 -90 -70 -135 -44 -109
-43 -78 1 59 36 113 107 248 153 295 16 15 55 40 87 55 l59 28 22 -25 21 -25
-56 -38z m2731 62 c27 -17 54 -27 60 -24 7 4 8 2 4 -5 -4 -6 12 -33 39 -64 57
-66 128 -200 154 -297 33 -118 44 -264 32 -430 -13 -170 -42 -290 -103 -421
l-41 -89 -36 5 c-20 4 -56 10 -81 15 -25 5 -65 12 -90 15 -106 14 -106 14 -52
42 79 42 166 108 227 174 69 75 139 210 130 249 -5 20 -4 23 6 12 27 -26 -47
-240 -119 -345 -17 -24 -52 -65 -78 -90 -26 -26 -42 -47 -37 -47 24 0 133 134
172 213 62 122 82 202 88 347 11 256 -42 406 -196 560 -47 47 -117 105 -154
128 -38 23 -65 38 -62 32 4 -6 -5 -10 -20 -10 l-27 0 29 30 c38 41 88 41 155
0z m-2909 -96 c-160 -229 -219 -592 -143 -884 22 -87 65 -194 115 -288 19 -36
34 -67 32 -68 -1 -1 -11 -4 -21 -6 -17 -2 -28 16 -69 112 -78 184 -108 316
-114 498 -8 223 17 356 108 571 48 114 52 120 82 124 18 2 37 5 44 5 7 1 -9
-28 -34 -64z m2828 29 c164 -88 302 -278 334 -459 7 -43 12 -80 10 -82 -2 -2
-11 22 -20 54 -44 153 -157 276 -353 382 l-73 39 31 13 c17 7 29 14 27 16 -2
3 -19 -2 -36 -9 -28 -12 -39 -12 -74 2 -65 24 -217 20 -291 -7 -33 -12 -61
-20 -64 -18 -15 16 208 87 298 95 105 9 158 3 211 -26z m-982 -20 c-1 -10 -4
-29 -8 -43 -7 -24 -7 -24 -14 9 -4 19 -9 32 -12 30 -2 -3 0 -21 4 -42 16 -68
-25 -172 -118 -302 -19 -27 -28 -44 -18 -36 27 21 102 139 134 211 22 48 45
79 88 118 33 28 63 52 67 52 14 0 8 -94 -8 -125 -9 -16 -21 -48 -28 -70 -10
-34 -21 -45 -76 -76 -35 -19 -90 -57 -122 -82 -32 -26 -63 -47 -68 -47 -6 0
-10 -4 -10 -10 0 -17 10 -12 59 29 57 47 154 110 178 115 10 1 36 11 57 20 21
10 48 15 58 13 11 -3 40 8 69 25 27 17 51 29 53 27 6 -5 -24 -92 -35 -103 -5
-6 -9 0 -9 16 0 14 7 31 15 38 8 7 15 18 15 24 -1 6 -10 0 -21 -13 -14 -18
-19 -36 -17 -65 l3 -40 -80 2 c-71 3 -87 0 -143 -28 -131 -62 -80 -20 62 51
54 28 96 53 93 56 -3 3 -27 -7 -53 -21 -33 -19 -50 -23 -55 -15 -5 8 -9 7 -15
-4 -5 -8 -47 -40 -94 -72 -47 -31 -110 -81 -141 -111 -30 -30 -58 -51 -62 -48
-4 4 -1 14 6 22 6 8 11 17 10 19 -2 1 0 3 5 4 12 1 42 31 42 42 0 6 -10 2 -21
-9 -12 -10 2 16 30 60 59 92 81 156 81 241 0 83 14 118 53 138 42 21 47 21 46
0z m-779 -85 c14 -83 31 -126 72 -187 16 -24 28 -45 26 -46 -2 -2 -34 16 -72
38 -43 26 -84 61 -110 94 -22 29 -42 49 -44 44 -2 -5 11 -24 28 -42 32 -35 55
-69 45 -69 -16 0 -175 86 -175 96 0 21 60 99 95 123 41 28 95 42 112 29 6 -5
17 -41 23 -80z m998 54 c34 -26 82 -98 82 -123 -1 -15 -113 -69 -144 -69 -16
0 -13 7 16 43 42 52 52 67 41 67 -4 0 -26 -26 -48 -56 -35 -49 -62 -74 -79
-74 -7 0 7 35 41 107 21 43 24 61 18 99 -6 45 -6 46 17 38 13 -4 38 -18 56
-32z m-960 11 c15 -9 29 -18 31 -20 3 -2 8 -32 12 -66 10 -84 41 -164 96 -245
l44 -67 -52 50 c-65 63 -123 150 -137 207 -5 24 -17 69 -25 101 -15 61 -11 66
31 40z m126 -60 c4 -38 22 -90 51 -148 66 -137 108 -246 96 -258 -12 -12 -129
135 -165 208 -28 58 -56 154 -56 194 0 25 0 25 34 -8 23 -23 34 -28 32 -17 -1
9 -19 28 -40 42 -21 14 -34 30 -29 34 8 9 54 18 64 13 3 -1 9 -28 13 -60z m73
3 c33 -36 83 -176 103 -281 6 -33 13 -71 16 -83 3 -14 1 -21 -5 -18 -5 3 -11
1 -13 -6 -3 -7 -13 10 -23 37 -10 28 -32 82 -48 120 -17 39 -30 84 -29 100 1
23 -1 26 -7 11 -7 -18 -8 -18 -14 -3 -4 10 -7 21 -9 25 -1 4 -8 13 -15 20 -7
7 -13 23 -13 35 0 12 -3 39 -7 61 -6 36 -5 38 14 28 11 -6 34 -27 50 -46z
m-519 -77 c40 -14 34 -25 -17 -33 -42 -6 -88 -39 -122 -87 -26 -37 -59 -161
-51 -191 5 -21 4 -21 -43 5 -26 15 -50 25 -52 23 -5 -5 56 -42 83 -50 12 -4
24 -15 27 -26 4 -14 1 -17 -12 -13 -9 3 -22 11 -30 17 -7 5 -20 11 -29 13 -21
3 -54 42 -49 57 2 6 24 10 50 9 42 -1 45 1 51 28 3 16 3 48 0 72 -7 51 9 115
36 147 30 35 103 48 158 29z m1501 1 c63 -12 108 -39 89 -52 -10 -7 -9 -9 4
-5 9 3 21 0 26 -6 12 -15 14 -131 4 -177 l-9 -35 -7 44 c-13 68 -31 105 -75
144 -41 37 -108 64 -134 54 -11 -4 -15 -21 -15 -64 1 -32 -4 -70 -10 -85 -10
-25 -14 -26 -40 -17 l-29 10 31 79 c28 71 35 82 71 100 22 11 41 20 41 20 1 0
24 -4 53 -10z m-1690 -9 c11 -7 11 -16 -4 -55 -13 -34 -16 -62 -12 -106 3 -33
3 -69 0 -80 -5 -19 -6 -20 -19 -3 -8 11 -13 13 -14 6 0 -8 -14 -13 -34 -13
-44 0 -49 -9 -28 -51 11 -23 28 -38 52 -46 29 -10 31 -12 11 -12 -14 -1 -42
11 -63 25 -33 23 -42 25 -61 15 -21 -11 -21 -11 -1 -7 12 2 28 0 35 -5 10 -6
4 -12 -21 -23 -19 -8 -28 -15 -20 -16 9 0 25 6 36 14 17 12 22 12 39 0 10 -8
40 -14 67 -14 40 0 50 -4 68 -27 28 -38 25 -48 -12 -49 -117 -5 -224 49 -214
107 12 81 124 167 164 127 9 -9 12 -9 12 -1 0 13 -18 26 -39 30 -8 1 -29 10
-47 19 -27 15 -38 16 -70 6 -21 -6 -40 -10 -42 -8 -2 2 2 32 9 66 9 48 17 64
35 72 13 6 21 15 18 19 -3 5 1 6 9 4 7 -3 24 -1 38 4 30 12 90 13 108 2z
m1945 -3 c-4 -6 -3 -8 3 -5 6 4 24 0 41 -9 38 -18 56 -67 56 -149 -1 -55 -20
-189 -23 -156 -3 34 -56 92 -107 117 -30 15 -54 28 -54 31 0 2 4 2 8 -1 5 -3
30 1 57 10 46 13 50 13 70 -6 25 -24 35 -25 35 -5 0 8 -3 14 -7 13 -5 -1 -19
4 -33 11 -21 10 -34 10 -70 -3 -24 -8 -46 -13 -48 -11 -3 2 3 22 12 45 9 22
16 49 16 59 0 11 7 27 16 35 14 14 14 16 0 16 -9 0 -18 -12 -21 -27 -4 -16
-17 -58 -29 -95 -22 -66 -23 -68 -4 -68 22 0 75 -25 102 -49 21 -19 50 -71 42
-78 -9 -9 -56 31 -62 53 -5 19 -12 21 -65 19 -53 -2 -59 -1 -53 14 4 9 7 53 8
98 1 77 -1 84 -28 112 l-29 30 44 4 c98 8 130 7 123 -5z m-2222 -187 c-12 -10
-22 -34 -26 -63 -4 -27 -12 -48 -17 -48 -12 0 -39 62 -39 90 0 19 -6 20 -77
18 l-78 -2 73 -3 c67 -4 72 -6 72 -26 0 -12 7 -35 15 -51 9 -16 14 -30 13 -30
-78 -38 -79 -38 -107 -12 -49 47 -125 60 -181 31 -42 -22 -37 -25 11 -8 58 19
120 9 154 -27 l27 -28 -58 -17 c-122 -36 -155 -47 -152 -51 2 -2 52 10 112 27
l107 29 26 -20 c14 -11 31 -20 37 -20 6 0 -4 10 -21 21 -18 12 -31 25 -28 29
3 4 25 15 49 23 l45 15 6 -28 c3 -16 13 -34 21 -41 20 -17 17 -31 -6 -24 -10
3 -45 1 -77 -4 -32 -6 -122 -13 -200 -16 -113 -4 -143 -3 -143 7 0 8 14 41 30
75 55 112 179 226 321 293 l64 30 23 -77 c24 -76 24 -77 4 -92z m537 45 l22
-34 -33 -11 c-19 -6 -50 -25 -70 -41 -39 -32 -98 -139 -97 -174 0 -15 4 -10
14 15 37 101 81 156 149 184 l38 16 49 -41 c27 -22 77 -57 111 -76 75 -43 83
-49 43 -39 -58 15 -187 5 -232 -17 -24 -12 -43 -25 -43 -29 0 -5 21 3 46 16
58 31 146 33 279 6 l90 -18 -121 5 c-96 4 -137 1 -195 -13 -41 -10 -84 -18
-96 -17 -57 4 3 -57 98 -100 35 -16 194 -28 214 -16 6 3 24 8 40 12 17 3 -4
-12 -50 -36 -45 -24 -106 -68 -139 -100 -53 -51 -86 -65 -86 -35 0 19 81 85
140 113 33 15 57 30 55 32 -3 3 -33 -9 -67 -26 -65 -32 -116 -73 -136 -107
-11 -20 -11 -20 -47 -1 -58 31 -124 107 -78 89 10 -4 14 -2 10 4 -4 6 -4 18
-1 27 5 14 9 14 35 0 18 -9 27 -20 23 -27 -5 -9 -4 -9 6 0 14 13 5 33 -14 33
-8 0 -19 7 -26 15 -13 16 -31 20 -28 8 3 -16 -15 -43 -27 -43 -13 0 -55 96
-55 125 0 8 -5 17 -11 21 -22 13 -51 96 -51 147 -1 29 4 72 11 95 17 62 82
129 140 146 l46 13 11 -43 c7 -23 21 -58 33 -78z m91 28 c25 -17 99 -59 165
-94 145 -76 235 -136 235 -155 0 -19 4 -19 -82 9 -157 51 -241 89 -294 132
-66 54 -78 57 -21 5 54 -50 137 -91 277 -137 62 -21 108 -40 102 -42 -7 -2
-10 -9 -6 -15 3 -7 -1 -4 -9 6 -8 9 -21 17 -29 17 -8 0 -41 9 -73 20 -32 11
-68 18 -79 14 -13 -3 -16 -2 -9 3 8 6 -14 21 -62 46 -40 21 -94 56 -119 78
-50 44 -100 125 -110 178 l-6 33 38 -34 c21 -19 58 -48 82 -64z m-24 57 c53
-26 158 -111 137 -111 -17 0 -219 139 -202 140 3 0 32 -13 65 -29z m1341 4
c30 -15 61 -41 77 -64 54 -77 52 -214 -5 -281 l-28 -35 -1 36 c0 59 -46 138
-101 171 l-47 30 15 36 c10 24 13 53 10 84 -7 58 3 61 80 23z m584 -20 c117
-49 207 -119 259 -201 35 -55 70 -131 70 -151 0 -6 -242 4 -333 13 l-59 6 31
19 c17 10 31 21 31 24 0 3 -20 -6 -43 -20 -24 -14 -54 -25 -67 -25 l-23 0 20
23 c11 12 24 32 28 45 8 26 14 27 63 6 20 -8 82 -28 137 -44 55 -15 109 -32
119 -36 13 -5 17 -4 13 3 -4 6 -44 21 -89 33 -45 12 -94 26 -107 32 -25 9 -25
9 16 34 56 33 118 40 168 20 l40 -16 -24 20 c-41 35 -141 23 -206 -25 -29 -21
-32 -21 -71 -7 l-41 15 15 48 c15 47 17 49 61 54 76 10 79 13 14 14 -34 0 -63
-3 -65 -9 -3 -10 -123 46 -123 58 0 4 6 25 13 47 8 22 15 46 18 54 5 17 28 11
135 -34z m-1758 -51 c34 -20 68 -37 75 -38 7 -1 37 -27 67 -56 30 -30 55 -48
55 -41 0 8 14 -3 30 -24 17 -21 30 -40 30 -42 0 -8 -39 19 -125 88 -95 76
-172 129 -189 129 -5 0 24 -23 65 -51 96 -66 119 -90 47 -50 -63 35 -121 85
-124 107 -3 19 0 19 69 -22z m1638 -59 c56 -29 65 -42 52 -82 -7 -20 -16 -28
-34 -28 -21 0 -25 6 -34 53 -8 41 -17 57 -35 68 -45 24 -1 15 51 -11z m-683 9
l23 -7 -28 -19 c-77 -52 -166 -95 -281 -134 -70 -25 -111 -41 -92 -38 42 8
217 66 249 83 12 7 25 10 28 7 11 -11 -124 -66 -217 -90 l-93 -23 48 -7 c26
-4 49 -5 53 -2 3 3 -6 7 -19 7 -21 1 -21 2 6 9 17 4 46 8 65 7 l35 0 -40 -7
c-23 -4 0 -6 55 -3 52 3 131 0 175 -6 44 -7 99 -14 122 -18 73 -10 62 -38 -32
-80 -30 -13 -66 -18 -150 -18 -60 0 -100 -1 -87 -3 12 -2 22 -7 22 -11 0 -9
110 -4 176 10 62 12 139 59 147 88 4 17 1 21 -12 19 -9 -2 -32 9 -49 24 -46
39 -124 52 -224 39 -45 -6 -85 -11 -90 -11 -5 0 32 21 82 46 50 26 111 65 135
86 l45 40 64 -30 c76 -36 111 -81 132 -168 11 -50 11 -63 -5 -113 -24 -77 -61
-133 -105 -156 l-36 -20 -34 36 c-37 37 -122 84 -171 94 -19 4 -13 -1 18 -14
62 -25 145 -79 157 -101 8 -15 5 -19 -16 -24 -20 -5 -30 -1 -46 19 -24 30
-124 100 -176 122 -20 9 -64 25 -97 35 -54 16 -56 17 -15 11 108 -16 272 0
366 37 66 26 33 25 -41 -1 -86 -30 -243 -36 -370 -15 -55 10 -102 19 -104 22
-2 2 45 2 105 0 116 -5 109 -1 -19 9 -71 6 -78 9 -74 26 3 11 -2 26 -10 35 -8
8 -14 16 -12 18 18 16 93 45 129 50 25 4 52 11 60 17 12 8 10 9 -8 4 -13 -4
-40 -8 -61 -10 -22 -1 -45 -6 -52 -10 -23 -14 23 35 64 67 21 17 40 28 42 26
3 -3 -16 -19 -41 -37 -25 -18 -43 -35 -41 -38 3 -2 26 12 52 32 98 74 215 110
293 89z m640 -16 c23 -23 14 -65 -20 -89 l-31 -23 7 25 c4 13 10 41 13 62 6
39 12 44 31 25z m-643 -28 c-22 -24 -84 -64 -90 -58 -4 4 93 75 104 77 2 1 -4
-8 -14 -19z m-470 -54 c-4 -20 -12 -36 -17 -36 -6 0 -7 7 -4 16 3 9 9 27 12
40 10 38 16 21 9 -20z m880 4 c-28 -12 1 -13 43 -1 25 8 32 7 32 -4 0 -21 53
-66 71 -62 9 3 23 1 30 -4 11 -7 8 -14 -13 -36 -27 -26 -28 -26 -48 -8 -11 10
-20 30 -20 44 0 20 -2 23 -10 11 -14 -22 -13 -29 16 -55 l27 -25 -36 -15 c-24
-10 -69 -15 -129 -15 l-92 0 33 34 c31 32 38 51 43 123 1 7 4 10 8 8 3 -2 12
0 20 6 8 5 22 8 30 8 10 0 8 -3 -5 -9z m265 -36 c0 -6 -13 -9 -32 -6 -18 3
-30 1 -26 -2 3 -4 13 -9 22 -10 9 -1 16 -5 16 -9 0 -4 0 -12 0 -17 0 -6 -20
-33 -45 -59 -30 -32 -45 -56 -44 -72 1 -13 -2 -33 -6 -44 -5 -16 -5 -17 4 -5
9 12 11 10 11 -12 0 -41 -14 -41 -36 -1 -10 20 -35 48 -56 63 l-36 26 43 12
c56 15 145 96 117 107 -15 5 -12 11 17 37 26 23 35 27 42 17 5 -8 9 -19 9 -25z
m-1175 -14 c79 -49 92 -139 30 -203 -32 -33 -42 -37 -85 -37 -62 0 -84 8 -70
25 11 13 50 9 50 -4 0 -4 7 -8 15 -8 8 0 15 3 15 6 0 3 13 12 29 19 31 14 58
64 52 97 -2 11 -11 32 -22 46 -10 14 -16 28 -14 31 2 2 -5 5 -17 5 -12 1 -25
8 -29 15 -7 11 -9 11 -9 0 0 -7 -4 -11 -9 -8 -16 10 -68 -14 -79 -37 -20 -40
-23 -64 -12 -92 8 -22 8 -30 -2 -36 -7 -5 -17 -4 -23 2 -6 6 -5 13 5 19 13 8
12 10 -2 10 -13 0 -18 8 -18 29 0 39 17 84 30 76 5 -3 7 0 4 9 -8 21 52 56 95
56 18 0 48 -9 66 -20z m-1194 -47 c12 -33 11 -43 -4 -43 -11 0 -57 78 -57 95
0 14 53 -32 61 -52z m2409 43 c0 -26 -41 -76 -61 -76 -20 0 -21 1 -6 18 8 9
20 29 25 43 10 25 42 37 42 15z m-1227 -46 c33 -26 43 -70 23 -108 -17 -34
-34 -42 -81 -42 -44 0 -75 38 -75 91 0 72 74 105 133 59z m583 -11 c25 -11 43
-23 41 -25 -2 -2 -38 3 -81 11 -43 8 -114 15 -159 16 -139 1 -124 14 19 17
122 3 140 1 180 -19z m-860 -26 c30 -4 41 -9 32 -14 -9 -6 -4 -9 15 -9 15 0
27 -4 27 -10 0 -5 -15 -10 -32 -10 -18 0 -62 -8 -98 -16 -92 -23 -222 -20
-309 6 -39 12 -71 24 -71 26 0 4 73 24 130 35 46 8 221 4 306 -8z m1450 -14
c3 -6 0 -15 -7 -20 -12 -7 -12 -9 1 -9 24 0 -2 -17 -36 -23 -44 -8 -49 2 -17
35 28 30 47 35 59 17z m211 -11 c152 -11 161 -13 130 -26 -34 -14 -169 -42
-202 -42 -20 1 -20 1 -1 15 11 8 15 15 9 15 -6 0 -16 -7 -23 -15 -7 -8 -9 -15
-5 -15 5 0 6 -3 3 -6 -9 -8 -108 59 -108 74 0 15 -1 15 197 0z m-2397 -21 c19
-5 61 -10 93 -11 l58 -1 18 -53 c10 -29 32 -70 49 -92 22 -26 28 -40 19 -44
-7 -3 -6 -5 3 -4 12 2 93 -34 108 -47 2 -1 -6 -20 -17 -41 -11 -22 -22 -59
-24 -84 -4 -42 -6 -45 -32 -43 -15 1 -38 9 -52 18 -52 34 -113 165 -113 239 1
17 9 56 20 86 10 30 17 57 15 59 -8 7 -48 -94 -46 -115 1 -11 -11 -35 -28 -52
-39 -43 -87 -44 -133 -3 -31 27 -32 30 -20 68 6 21 24 50 38 64 l27 24 -23
-42 c-19 -35 -21 -45 -10 -58 14 -17 48 -20 70 -4 12 8 10 9 -8 4 -28 -8 -40
16 -20 42 14 19 98 31 98 14 0 -11 -24 -21 -53 -22 -20 -1 -20 -2 3 -9 33 -10
70 21 51 44 -10 12 -8 16 9 21 12 4 19 9 17 12 -3 2 -22 -5 -43 -16 -48 -26
-68 -27 -60 -3 9 27 -23 -16 -40 -53 -11 -25 -13 -26 -14 -9 0 12 11 38 25 59
29 41 27 52 -4 36 -28 -15 -68 -70 -77 -104 -9 -39 -24 -15 -24 40 0 49 42
109 69 97 9 -3 32 -11 51 -17z m-526 -13 c32 -14 84 -28 117 -31 32 -3 59 -9
59 -14 0 -5 -19 -13 -42 -19 -24 -7 -73 -20 -109 -31 -85 -26 -110 -17 -134
45 -10 25 -15 52 -12 61 9 23 57 18 121 -11z m3186 6 c0 -11 -8 -37 -17 -58
-9 -20 -17 -51 -18 -67 -3 -56 -63 -163 -132 -235 -73 -78 -203 -171 -278
-199 -27 -10 -57 -21 -65 -25 -17 -6 -51 13 -35 20 6 2 24 13 42 23 28 18 31
25 31 67 0 25 4 50 9 54 4 4 46 19 93 33 92 28 163 68 223 125 46 45 111 131
104 138 -3 3 -16 -11 -29 -30 -14 -20 -27 -34 -29 -32 -2 2 -22 1 -44 -3 -40
-7 -40 -7 -82 51 -24 32 -39 58 -35 58 4 0 31 -9 60 -20 57 -22 118 -26 142
-9 11 7 2 8 -30 4 -33 -4 -66 1 -120 19 -48 15 -77 20 -81 14 -4 -6 -36 -13
-73 -15 -63 -6 -69 -4 -112 27 -25 18 -47 30 -50 28 -2 -3 17 -19 42 -37 l45
-33 -23 -27 c-13 -14 -27 -29 -32 -32 -4 -4 -3 -10 3 -13 6 -4 11 -17 12 -29
0 -21 1 -21 8 -2 5 11 5 25 0 31 -5 6 3 23 21 42 23 25 37 32 67 32 21 0 54 3
73 6 35 6 37 4 74 -51 30 -45 35 -59 24 -66 -19 -12 -93 -22 -115 -15 -18 6
-60 62 -76 100 -4 10 -10 16 -13 13 -3 -3 -1 -14 5 -25 16 -30 13 -67 -6 -84
-23 -19 -83 -20 -83 -1 0 8 -10 33 -21 56 -24 46 -32 128 -15 139 6 4 23 8 38
8 14 0 28 5 30 12 3 8 21 2 55 -20 l50 -32 93 16 c51 8 116 26 144 39 28 13
68 24 89 24 31 1 37 -2 37 -19z m-2161 -36 c57 -4 101 0 175 15 105 22 168 27
131 11 -37 -17 -236 -50 -301 -50 -50 0 -79 7 -129 29 -36 17 -65 32 -65 35 0
3 25 -4 56 -14 31 -11 91 -22 133 -26z m1331 -11 c76 -152 -2 -334 -159 -368
-34 -7 -34 -7 -17 16 21 31 20 67 -3 129 -13 33 -15 50 -8 50 7 0 26 11 42 24
27 22 31 23 48 9 18 -17 24 -4 6 14 -7 7 -2 25 16 58 14 27 28 66 31 87 4 21
9 36 13 34 4 -3 18 -26 31 -53z m135 37 c7 -5 15 -8 18 -5 4 3 5 2 2 -1 -2 -4
13 -19 34 -35 37 -26 60 -63 48 -76 -10 -9 -29 9 -23 22 3 8 -2 11 -13 8 -13
-3 -20 3 -25 22 -4 16 -17 29 -34 35 -15 6 -35 15 -45 21 -11 6 -21 8 -24 6
-2 -3 14 -13 37 -23 45 -20 80 -68 62 -86 -12 -12 -36 27 -27 42 3 5 -7 12
-22 15 -15 3 -50 17 -78 30 l-50 24 30 -24 c17 -14 47 -30 68 -37 44 -13 48
-28 7 -28 -24 0 -28 -3 -23 -17 4 -11 8 -12 11 -5 5 15 48 16 57 2 4 -6 -6
-10 -22 -11 -27 0 -27 -1 -6 -11 16 -8 29 -6 54 6 30 15 34 15 48 1 15 -14 14
-18 -9 -35 -64 -50 -140 -46 -140 7 0 16 -5 35 -11 43 -15 22 -1 -57 17 -92
21 -41 18 -173 -5 -225 -17 -35 -26 -44 -63 -54 -100 -27 -97 -23 -28 -49 109
-41 234 -29 321 30 24 16 46 25 47 19 6 -17 -18 -37 -81 -69 -94 -47 -153 -42
-332 24 -19 7 -20 7 -1 -8 58 -47 249 -77 303 -48 16 9 29 9 50 1 l28 -11 -22
-18 c-52 -41 -145 -32 -285 29 -27 11 -48 18 -48 16 0 -8 107 -53 176 -75 35
-10 77 -26 93 -35 16 -8 36 -13 43 -12 7 2 10 2 6 0 -4 -3 19 -30 51 -61 75
-74 113 -147 109 -210 -3 -43 -5 -47 -27 -44 -48 5 -91 36 -153 110 -95 115
-94 114 -73 106 9 -4 -4 15 -29 41 -26 26 -45 50 -42 52 8 8 67 -38 61 -48 -4
-5 0 -7 7 -4 15 6 108 -70 108 -88 0 -6 -13 2 -29 17 -16 16 -35 26 -41 24 -7
-2 18 -25 53 -51 36 -27 86 -73 111 -104 25 -30 46 -51 46 -46 0 19 -166 208
-221 253 -31 25 -105 73 -163 108 -64 38 -104 68 -100 74 5 7 2 8 -5 3 -7 -4
-22 2 -37 16 -34 32 -30 11 7 -34 88 -107 92 -349 6 -388 -12 -5 -32 -26 -45
-45 -31 -47 -78 -74 -132 -75 -38 -1 -41 -2 -16 -8 l29 -6 -50 -28 c-63 -34
-70 -34 -43 1 27 35 90 142 83 142 -3 0 -16 -9 -30 -20 -14 -11 -30 -17 -35
-14 -5 3 -21 3 -36 -1 -26 -6 -26 -7 -8 -21 11 -8 25 -14 30 -14 6 0 3 7 -7
14 -16 13 -15 14 16 13 31 -1 33 -2 23 -24 -6 -12 -18 -23 -26 -23 -16 0 -101
49 -86 50 5 0 2 8 -6 18 -18 20 -29 70 -18 77 5 3 16 -15 27 -40 10 -25 21
-45 25 -45 12 0 20 41 13 67 -5 21 -4 24 7 16 7 -6 39 -20 71 -32 66 -24 85
-19 113 27 9 16 31 37 49 46 40 22 56 53 66 126 7 51 7 50 5 -19 -3 -54 -1
-69 7 -56 5 10 7 50 4 94 -5 60 -13 89 -42 144 -19 38 -33 72 -30 77 3 5 1 11
-5 15 -5 3 -10 11 -10 17 0 6 10 2 23 -10 24 -22 43 -30 32 -13 -3 6 3 15 12
21 16 10 16 10 -2 5 -14 -3 -36 6 -64 26 l-42 32 48 16 c26 9 58 23 70 32 59
41 104 135 105 217 0 31 5 65 10 76 7 13 7 16 -1 12 -6 -4 -11 -3 -11 2 0 5
-10 22 -22 38 -39 48 -34 54 40 49 36 -3 71 -10 77 -15z m-835 -11 c0 -8 11
-9 33 -5 19 4 27 3 19 -3 -9 -5 13 -16 70 -31 102 -27 186 -71 247 -128 l46
-43 -71 4 c-84 5 -153 37 -260 123 -62 50 -121 90 -102 69 4 -5 3 -14 -2 -20
-14 -17 52 -74 168 -145 65 -39 97 -66 112 -92 12 -21 19 -38 17 -38 -3 0 -33
19 -68 42 -91 60 -204 153 -230 189 -13 18 -25 27 -31 21 -5 -5 7 -32 31 -68
61 -92 109 -194 116 -249 3 -27 8 -63 11 -80 l5 -30 -35 38 c-47 53 -110 176
-134 267 -11 41 -24 82 -27 92 -4 11 3 21 25 34 16 10 28 24 26 30 -5 12 12
34 26 34 4 0 8 -5 8 -11z m-1259 -23 c-9 -22 -1 -81 13 -104 3 -5 -1 -23 -9
-38 -8 -16 -15 -39 -15 -51 0 -15 -6 -23 -16 -23 -14 0 -15 7 -10 38 14 69 22
171 14 166 -4 -3 -8 -24 -8 -47 -1 -23 -7 -63 -13 -90 l-13 -47 -32 33 c-32
33 -39 60 -24 85 6 9 14 0 25 -29 9 -24 19 -40 23 -37 3 4 -2 20 -10 37 -20
38 -21 34 15 76 38 43 24 47 -16 5 -16 -16 -38 -30 -49 -30 -15 0 -17 -3 -9
-11 16 -16 -23 -94 -54 -108 -47 -21 -123 -8 -123 22 0 7 23 43 51 80 46 63
53 68 77 62 38 -11 68 -8 103 11 17 8 36 13 43 11 7 -3 19 -1 27 4 19 12 20
12 10 -15z m929 7 c-35 -15 -70 -48 -70 -67 -1 -30 -246 -166 -300 -166 -23 0
-6 31 43 78 60 56 165 113 272 148 79 26 107 30 55 7z m40 -12 c0 -8 -79 -70
-125 -98 -14 -9 -16 -12 -5 -13 12 0 11 -4 -3 -15 -11 -7 -26 -11 -35 -8 -13
4 -14 3 -3 -5 10 -7 6 -15 -20 -34 -43 -31 -104 -68 -114 -68 -17 0 20 31 71
60 30 16 54 33 54 36 0 13 -99 -53 -135 -91 -31 -32 -55 -46 -100 -59 -33 -9
-71 -21 -84 -27 -23 -9 -23 -9 -16 28 4 20 13 50 21 66 12 22 19 27 37 21 12
-4 25 -11 28 -17 10 -15 67 -1 144 37 81 39 185 113 185 132 0 7 17 25 37 39
39 26 63 32 63 16z m54 -21 c-6 -6 -15 -6 -24 0 -13 9 -13 11 0 20 18 11 39
-5 24 -20z m306 -39 c114 -93 179 -124 275 -131 l80 -5 32 -65 c40 -80 42 -99
8 -72 -14 11 -45 23 -68 27 -75 11 -101 24 -124 60 -13 19 -23 39 -23 43 0 5
-10 14 -23 19 -13 6 -50 28 -82 49 -32 22 -65 44 -74 49 -33 21 -89 74 -83 79
8 8 2 12 82 -53z m-371 12 c-13 -16 -66 -72 -117 -126 -127 -133 -169 -228
-143 -322 12 -44 9 -49 -33 -59 l-29 -7 6 43 c3 24 8 63 11 88 5 39 4 37 -9
-15 -8 -33 -17 -70 -20 -82 -7 -29 -12 -29 -67 6 -50 32 -98 103 -104 151 -3
22 1 30 19 36 39 13 46 13 52 -6 3 -10 13 -24 22 -32 14 -11 14 -9 -1 20 -20
39 -20 40 22 48 l31 6 -15 -48 c-16 -53 -9 -65 36 -62 24 1 24 1 -2 5 -31 5
-34 16 -16 75 10 35 21 45 90 86 87 50 171 119 163 133 -4 5 0 7 7 4 7 -3 36
15 63 39 57 52 69 58 34 19z m1828 -5 c-3 -7 -5 -2 -5 12 0 14 2 19 5 13 2 -7
2 -19 0 -25z m-3074 -33 c-36 -53 -38 -54 -77 -50 l-41 5 35 -11 c19 -6 42
-17 51 -25 32 -28 72 -35 116 -20 40 14 42 14 48 -5 9 -28 34 -49 58 -49 18 1
16 3 -10 15 -34 15 -48 43 -39 81 6 23 7 23 46 -16 45 -45 45 -45 21 -120 -21
-62 -24 -63 -119 -30 -104 37 -206 118 -265 212 l-17 27 33 -5 c19 -3 62 5
107 20 41 14 78 25 82 26 5 0 -9 -25 -29 -55z m1269 -16 c-17 -30 -33 -65 -36
-79 -4 -14 12 10 34 53 35 68 60 90 60 55 0 -6 -3 -8 -7 -5 -3 4 -49 -75 -100
-175 -119 -232 -172 -294 -158 -185 16 125 62 222 164 345 64 77 88 72 43 -9z
m-1379 -97 c56 -57 172 -123 250 -143 l48 -12 -24 -26 c-13 -14 -27 -34 -30
-44 -7 -17 -9 -17 -46 4 -71 40 -195 154 -235 217 -44 69 -62 77 -23 10 26
-44 122 -143 191 -198 22 -17 73 -49 114 -72 83 -45 82 -47 -13 -72 l-60 -15
-53 52 c-102 99 -222 310 -206 360 4 12 2 17 -4 13 -6 -4 -10 1 -10 11 0 10
-2 32 -6 48 -6 22 1 15 24 -25 17 -30 54 -79 83 -108z m1752 27 c73 -58 168
-119 185 -119 15 0 60 -78 54 -93 -3 -8 -22 -22 -42 -30 -27 -11 -31 -15 -16
-16 26 -1 74 35 74 56 0 8 -9 26 -20 40 -11 15 -19 27 -18 29 9 8 131 -27 157
-45 44 -31 76 -104 76 -171 0 -58 -32 -152 -68 -202 -28 -39 -99 -87 -144 -97
-36 -9 -37 -9 -7 -10 66 -2 168 89 202 181 10 29 22 60 25 68 3 8 6 -8 6 -37
1 -31 -7 -70 -19 -98 -11 -26 -20 -61 -21 -78 0 -27 -2 -29 -9 -12 -8 19 -9
19 -9 -2 -1 -13 -7 -23 -16 -23 -8 0 -29 -9 -47 -20 -43 -26 -111 -27 -137 -1
-11 11 -28 17 -38 15 -10 -3 -26 1 -36 8 -15 11 -11 13 33 15 104 3 213 84
244 182 21 66 31 151 17 151 -6 0 -11 -19 -11 -43 0 -105 -57 -205 -142 -248
-36 -18 -129 -42 -136 -34 -10 10 54 64 86 73 43 13 145 100 167 143 26 49 16
45 -22 -9 -32 -46 -139 -132 -164 -132 -11 0 -12 -4 6 54 8 27 15 64 15 83 0
18 4 33 8 33 36 0 172 136 172 170 -1 11 -4 9 -12 -5 -47 -82 -152 -165 -210
-165 l-28 0 0 79 c0 44 -4 82 -9 86 -6 3 -7 -24 -4 -68 7 -87 -2 -98 -51 -67
-32 19 -34 23 -25 53 12 43 10 135 -4 174 -14 37 -98 156 -105 149 -2 -3 16
-33 41 -66 27 -37 50 -81 57 -112 13 -53 8 -142 -10 -163 -11 -13 18 -38 69
-60 l24 -10 -26 -31 c-28 -33 -131 -93 -142 -83 -3 4 5 31 18 60 30 69 40 109
27 109 -5 0 -10 -8 -10 -17 0 -23 -42 -126 -59 -147 -7 -9 -18 -13 -24 -9 -6
3 -7 1 -3 -5 22 -36 -72 12 -113 56 -68 75 -65 62 -34 128 26 55 28 68 29 194
0 74 4 144 8 156 3 12 -1 37 -9 58 -12 28 -13 37 -4 34 7 -2 23 -37 35 -76 23
-77 23 -93 0 -39 -8 17 -15 25 -15 16 -1 -9 10 -33 24 -54 14 -20 39 -63 55
-95 16 -33 50 -84 75 -114 25 -31 41 -56 37 -56 -18 0 -128 127 -146 168 -11
23 -23 42 -28 42 -5 0 -7 4 -4 8 3 5 -1 26 -9 48 -21 58 -18 12 5 -84 25 -106
25 -167 0 -243 -23 -69 -21 -91 3 -31 31 77 38 152 22 216 -19 72 -14 82 9 21
12 -31 38 -63 84 -105 37 -33 72 -60 78 -60 13 0 11 32 -7 150 -11 69 -46 146
-110 245 -38 58 -38 59 -7 24 18 -19 65 -60 103 -90z m-289 95 c-3 -9 -16 -69
-27 -133 -28 -157 -40 -169 -19 -18 16 107 31 167 42 167 6 0 7 -7 4 -16z m10
-44 c-8 -30 -14 -46 -15 -35 -1 23 19 99 24 93 2 -2 -2 -28 -9 -58z m64 21 c5
-20 9 -45 9 -56 -1 -11 -7 3 -14 30 -18 72 -18 31 1 -61 20 -96 15 -230 -11
-292 -10 -24 -21 -40 -25 -35 -4 4 -15 32 -25 62 -21 66 -17 220 10 322 19 75
39 86 55 30z m1118 -24 c5 -7 13 -26 16 -44 6 -26 4 -34 -14 -43 -22 -12 -25
-9 -33 45 -3 17 -8 41 -11 54 -3 14 0 31 6 39 10 12 13 10 19 -13 4 -14 12
-32 17 -38z m-1243 -54 c-15 -89 -42 -141 -109 -212 -26 -27 -33 -39 -19 -32
26 13 88 87 102 122 8 20 10 17 10 -27 1 -55 -37 -164 -70 -200 -10 -11 -19
-24 -19 -29 0 -5 13 6 30 25 l29 35 1 -31 c0 -36 32 -134 37 -117 3 7 -1 21
-6 32 -6 11 -13 39 -16 62 -3 23 -8 46 -11 51 -3 4 2 32 12 61 l17 52 18 -51
c16 -50 48 -108 55 -101 2 1 -8 25 -21 51 -34 68 -39 103 -23 182 l14 69 1
-90 c0 -66 5 -104 21 -145 25 -65 22 -94 -11 -146 -30 -49 -46 -62 -86 -74
-29 -8 -33 -6 -41 16 -6 14 -10 38 -10 53 0 30 -16 51 -40 51 -11 0 -10 -5 6
-18 22 -18 41 -102 23 -102 -21 0 -52 96 -57 176 l-4 81 56 87 c31 48 54 92
50 98 -4 7 -3 8 4 4 6 -3 16 2 21 13 16 29 13 38 -4 15 -14 -18 -15 -17 -4 8
7 15 15 25 19 23 4 -3 7 1 6 8 -1 13 26 88 31 84 1 -2 -4 -40 -12 -84z m-751
-73 c36 -67 76 -109 118 -122 l40 -12 -27 -20 c-32 -23 -116 -26 -142 -4 -46
38 -73 206 -42 271 l13 29 11 -54 c6 -29 19 -69 29 -88z m1953 87 l6 -37 -67
0 c-65 0 -106 11 -106 29 0 5 9 7 19 4 27 -7 85 14 107 38 21 24 33 14 41 -34z
m-2155 18 c26 -22 50 -28 109 -29 14 0 17 -12 16 -71 0 -55 5 -83 22 -118 29
-61 45 -72 100 -71 35 1 40 0 21 -6 -21 -7 -22 -8 -5 -10 49 -5 -77 -31 -151
-31 -141 -1 -240 41 -256 107 -5 19 0 22 35 27 35 5 44 2 76 -29 59 -56 113
-77 205 -80 l81 -3 -77 9 c-84 10 -145 33 -193 74 l-30 25 31 1 c45 0 80 33
104 97 27 73 19 80 -10 8 -25 -63 -60 -95 -100 -95 -33 0 -47 16 -66 72 -14
41 -14 41 -10 8 2 -19 7 -42 11 -51 5 -13 -1 -18 -24 -21 -36 -5 -37 -2 -14
63 l18 49 72 0 c40 0 73 -4 73 -8 0 -12 -57 -52 -73 -52 -7 0 -19 6 -27 13
-12 10 -12 9 -1 -5 7 -10 22 -18 31 -18 25 0 82 50 76 65 -2 7 7 18 21 24 14
7 23 14 20 17 -3 3 -19 -2 -36 -10 -34 -18 -97 -21 -106 -6 -7 11 12 80 22 80
3 0 18 -11 35 -25z m2361 -15 c7 -28 -31 -72 -78 -88 -42 -16 -41 -16 -50 21
-7 27 -6 28 28 25 41 -2 77 23 77 54 0 24 16 15 23 -12z m217 -35 c-56 -57
-153 -111 -246 -138 l-51 -15 -15 34 -16 35 46 21 c25 12 52 33 60 47 13 24
20 26 87 26 40 0 78 5 86 12 13 10 70 30 94 32 5 1 -15 -24 -45 -54z m-1815
-37 c-37 -68 -65 -168 -65 -235 0 -32 -5 -45 -20 -53 -17 -9 -21 -7 -27 17
-14 51 -6 118 20 169 23 45 112 164 122 164 3 0 -11 -28 -30 -62z m232 15 c-3
-10 -5 -4 -5 12 0 17 2 24 5 18 2 -7 2 -21 0 -30z m708 5 c14 -34 18 -64 16
-110 -2 -41 -16 -34 -30 15 -7 23 -21 57 -32 75 -21 37 -18 52 12 52 13 0 25
-11 34 -32z m381 1 c53 2 94 -11 94 -29 0 -6 -9 -10 -20 -10 -11 0 -20 5 -20
12 0 9 -3 9 -11 1 -9 -9 -19 -8 -41 3 -17 9 -32 13 -35 10 -10 -9 57 -36 92
-36 34 0 35 -1 35 -36 0 -72 -112 -153 -224 -160 l-61 -5 37 16 c45 20 68 72
69 154 1 69 7 93 21 85 6 -4 35 -6 64 -5z m130 -82 l-21 -29 -3 42 c-2 23 2
48 9 56 11 13 14 11 24 -13 10 -24 9 -32 -9 -56z m34 -29 c0 -13 -8 -18 -31
-18 l-31 0 24 28 c23 29 38 25 38 -10z m-2 -43 c2 -2 2 -15 -2 -29 -8 -32 -83
-81 -147 -96 -61 -15 -184 -9 -221 11 -25 13 -21 14 60 14 77 0 93 3 139 29
28 15 64 42 80 58 23 24 34 28 57 24 16 -4 32 -8 34 -11z m-2357 -77 c48 -38
160 -62 249 -53 36 4 77 8 92 9 14 0 40 11 57 24 17 13 35 21 40 18 5 -3 12
-30 15 -59 15 -118 102 -233 198 -262 28 -8 61 -12 73 -9 12 3 26 -1 33 -9 19
-23 -74 -49 -181 -51 -103 -1 -111 4 -147 102 -17 46 -21 72 -17 142 2 47 9
95 15 107 21 38 14 34 -68 -34 -44 -36 -80 -69 -80 -73 0 -3 -7 -15 -15 -26
-14 -18 -14 -18 -10 3 4 22 3 22 -23 6 -68 -44 -154 -119 -229 -200 -95 -103
-127 -142 -121 -148 2 -3 31 27 63 65 58 68 237 239 219 209 -42 -72 -194
-276 -223 -299 -19 -17 -30 -30 -23 -30 22 0 88 75 161 186 94 141 150 209
163 196 6 -6 7 -16 2 -24 -5 -7 -9 -19 -10 -26 -2 -8 -6 -17 -10 -20 -4 -4 -5
0 -2 9 4 9 2 22 -3 30 -5 8 -9 10 -10 4 0 -5 -2 -20 -3 -32 -1 -12 2 -19 7
-16 5 3 6 -8 2 -28 -10 -43 -8 -176 3 -213 5 -19 8 14 7 95 0 116 2 128 28
180 15 32 35 63 45 70 14 11 15 11 5 -1 -7 -8 -13 -18 -13 -24 0 -5 14 10 30
32 17 23 32 42 35 42 2 0 -5 -21 -17 -46 -29 -67 -23 -228 11 -294 57 -110
194 -265 266 -302 87 -45 371 -154 440 -169 l80 -18 -125 3 c-109 2 -136 6
-212 33 -48 17 -122 52 -165 79 -96 59 -262 218 -302 288 -49 88 -71 236 -46
321 3 11 -1 7 -9 -10 -18 -37 -20 -97 -5 -180 11 -58 10 -65 -14 -118 -17 -37
-35 -61 -55 -71 -29 -15 -30 -14 -36 7 -12 47 -6 204 10 248 17 46 27 99 19
99 -14 0 -70 -136 -91 -219 -13 -52 -29 -101 -37 -108 -8 -8 -41 -18 -73 -23
l-59 -9 -39 42 c-21 23 -42 52 -47 64 -14 37 2 120 32 167 26 42 120 126 140
126 6 0 8 4 5 8 -2 4 3 8 12 9 9 1 62 15 117 32 55 17 102 31 105 31 2 0 -56
-36 -130 -80 -102 -60 -152 -97 -202 -150 -38 -38 -68 -78 -68 -87 0 -12 7 -7
20 15 37 60 109 120 250 208 78 48 137 92 133 97 -4 6 0 8 9 4 18 -6 30 1 23
14 -3 4 -31 -2 -63 -13 -63 -22 -157 -20 -232 6 -22 7 -40 10 -40 6 0 -14 60
-60 78 -60 9 -1 -5 -9 -33 -19 -27 -10 -69 -27 -92 -38 -45 -22 -50 -15 -18
25 23 28 32 37 60 57 13 10 15 14 6 15 -8 0 -31 -18 -52 -40 -60 -63 -95 -80
-166 -80 l-63 0 -20 40 c-11 21 -20 41 -20 43 0 2 44 12 98 22 134 24 212 44
235 60 17 12 24 12 51 -3 23 -12 55 -16 126 -16 101 0 181 6 174 13 -2 2 4 10
14 18 16 14 16 14 -3 8 -126 -41 -225 -44 -307 -7 -46 20 -86 70 -70 87 4 4
-5 6 -20 3 -23 -4 -26 -3 -18 13 14 26 34 29 40 6 3 -11 21 -33 41 -49z m499
38 c0 -31 65 -109 115 -137 45 -25 54 -35 60 -67 4 -20 15 -56 25 -79 10 -24
16 -43 13 -43 -4 0 2 -7 13 -15 18 -13 16 -14 -21 -14 -73 -1 -142 45 -191
124 -15 25 -10 22 25 -13 44 -45 110 -82 146 -82 11 0 -6 11 -38 24 -138 57
-214 185 -176 294 10 30 29 35 29 8z m-525 -84 c-1 -1 -21 8 -45 22 -24 14
-37 27 -31 30 6 4 16 4 21 1 6 -3 10 -1 10 6 0 7 11 -3 23 -22 13 -19 23 -35
22 -37z m911 -30 c1 -36 10 -78 23 -107 12 -26 19 -50 17 -53 -3 -2 -26 8 -51
22 -53 32 -104 101 -87 118 8 8 19 4 42 -16 17 -14 37 -26 43 -26 6 0 -6 12
-27 26 l-38 26 33 34 c18 19 35 34 38 34 4 0 7 -26 7 -58z m1035 -127 c7 -39
9 -86 5 -106 -8 -46 -41 -89 -67 -89 -27 0 -25 37 7 129 24 70 25 80 14 131
-21 99 -21 106 5 55 13 -28 30 -82 36 -120z m-1516 38 c0 -102 2 -112 33 -172
17 -35 30 -66 27 -69 -8 -8 -35 20 -60 62 -33 59 -39 113 -21 187 20 78 14 88
-10 17 -27 -77 -25 -182 3 -230 20 -33 20 -38 6 -38 -14 0 -14 -3 -5 -12 10
-10 15 -10 22 1 6 11 12 12 22 3 15 -12 58 -5 58 9 0 5 11 9 25 9 32 0 33 -25
3 -57 -30 -32 -100 -32 -132 0 -47 47 -60 199 -25 291 11 31 17 61 13 67 -4 8
-3 9 4 5 6 -3 16 3 22 14 6 11 12 20 13 20 1 0 2 -48 2 -107z m2170 46 c72
-12 131 -22 133 -24 2 -1 -10 -24 -25 -50 l-28 -47 -65 5 c-75 5 -131 30 -203
91 l-49 41 28 11 c17 7 38 8 53 3 15 -4 85 -18 156 -30z m-1805 1 c0 -17 81
-100 113 -116 16 -9 35 -13 43 -10 8 3 14 1 14 -4 0 -6 8 -10 18 -10 11 0 32
-20 51 -50 31 -48 106 -110 132 -110 10 0 11 -2 1 -12 -9 -9 -45 -13 -110 -13
-83 1 -105 5 -154 27 -31 15 -73 44 -93 64 -39 39 -89 135 -99 192 -5 28 -3
32 17 32 12 0 29 5 37 10 19 13 30 13 30 0z m-685 -16 l50 -8 -35 -7 c-20 -5
-49 -4 -67 2 -39 13 -58 35 -22 26 13 -3 47 -9 74 -13z m1907 3 c7 -7 26 -20
41 -30 15 -10 25 -22 21 -28 -4 -6 -11 -5 -21 3 -9 7 -18 12 -20 10 -5 -3 -43
43 -43 52 0 9 7 7 22 -7z m424 -60 c15 -17 34 -48 42 -67 8 -19 26 -53 41 -75
45 -66 45 -73 5 -122 -20 -24 -38 -42 -41 -39 -3 3 0 35 6 71 11 61 10 71 -9
110 -25 52 -80 92 -166 121 -62 21 -73 34 -28 34 12 0 32 9 45 19 23 19 24 19
51 0 14 -11 39 -34 54 -52z m-801 21 c-13 -85 -29 -121 -74 -167 -105 -108
-262 -137 -394 -74 -46 22 -147 113 -147 133 0 4 18 14 39 22 27 11 49 31 74
67 l35 52 21 -26 20 -27 -21 -37 c-22 -38 -20 -72 4 -70 10 0 10 2 1 6 -18 7
-16 27 5 62 l18 29 39 -29 c21 -16 43 -29 49 -30 6 0 26 -18 44 -41 45 -56 41
-84 -8 -58 -12 7 -28 7 -44 0 -22 -8 -26 -7 -27 8 0 12 -3 11 -10 -6 -5 -13
-19 -33 -32 -44 l-22 -20 28 16 c15 9 27 13 27 9 0 -4 6 1 13 11 10 14 22 17
43 13 68 -13 69 -13 72 14 2 17 -6 34 -25 53 -27 27 -27 28 -8 42 11 8 25 12
33 9 21 -8 105 40 148 84 30 31 47 40 72 41 l34 0 -7 -42z m434 -94 c51 -89
72 -169 70 -261 -2 -76 -12 -89 -41 -55 -11 12 -17 49 -21 127 -3 62 -13 131
-23 158 -22 64 -28 54 -8 -14 14 -46 15 -64 4 -122 -7 -38 -14 -67 -16 -65 -2
2 -5 65 -8 139 -3 98 -8 144 -20 167 -9 17 -16 35 -16 39 1 13 37 -38 79 -113z
m67 58 c-3 -3 -14 1 -23 9 -10 7 6 -12 35 -42 29 -30 50 -58 46 -62 -8 -8 49
-81 125 -159 37 -39 66 -60 88 -64 47 -9 48 -18 6 -53 -46 -38 -89 -51 -168
-50 -97 1 -98 2 -96 95 3 119 -18 193 -92 314 -12 20 -15 30 -7 23 12 -9 19
-8 32 1 10 7 14 17 10 21 -4 4 6 0 21 -10 15 -10 25 -20 23 -23z m-2132 -1
c-82 -50 -153 -157 -154 -231 l-1 -35 -15 29 c-21 37 -12 92 22 148 21 34 41
50 93 75 75 35 102 42 55 14z m2384 -32 c62 -35 92 -79 92 -134 l0 -40 -30 52
c-17 29 -54 75 -82 103 -61 57 -55 63 20 19z m123 11 c27 -12 66 -20 102 -20
l57 0 -27 -42 c-15 -24 -38 -58 -52 -76 l-24 -33 -19 38 c-10 21 -34 64 -53
96 -18 31 -32 57 -30 57 1 0 22 -9 46 -20z m-2636 -17 c-40 -60 -58 -96 -64
-125 l-6 -31 -36 54 c-65 98 -65 94 1 94 37 1 66 7 81 17 35 25 44 22 24 -9z
m2924 -20 c55 -42 65 -66 72 -181 6 -105 23 -168 54 -202 14 -15 7 -17 -80
-19 -52 -1 -113 3 -137 9 -50 14 -165 70 -207 101 l-29 22 55 65 c31 36 80
103 111 150 l55 84 40 -5 c22 -3 52 -14 66 -24z m-3094 0 c3 -10 45 -76 92
-146 47 -70 84 -129 82 -131 -3 -2 -188 -57 -333 -99 -21 -6 -34 -13 -29 -14
11 -4 211 51 315 85 54 18 68 18 68 2 0 -4 -42 -27 -92 -51 -93 -44 -93 -44
-211 -46 -65 -1 -116 2 -115 5 36 66 57 165 58 264 0 56 33 101 95 129 50 23
61 23 70 2z m705 -74 c7 -13 24 -36 38 -51 14 -16 21 -28 16 -28 -29 0 -86 94
-83 139 0 9 4 4 8 -10 5 -14 14 -36 21 -50z m-217 29 c-15 -27 -18 -58 -18
-171 0 -135 0 -138 -23 -144 -24 -6 -121 1 -162 12 -16 4 -13 0 9 -10 18 -8
57 -18 85 -21 43 -5 60 -1 108 23 l56 29 13 -45 c7 -25 25 -72 41 -103 l28
-58 -24 0 c-51 0 -155 41 -226 91 -130 89 -143 109 -69 109 22 0 50 5 62 12
20 10 21 10 8 -6 -8 -9 -11 -19 -8 -22 12 -13 37 47 58 136 21 90 61 200 74
200 3 0 -2 -15 -12 -32z m607 -63 c0 -3 -8 -17 -17 -32 -16 -24 -17 -24 -25
-7 -8 17 -8 17 -5 -2 6 -28 -12 -49 -47 -58 l-29 -7 31 36 c18 20 32 40 32 46
0 5 10 14 23 19 26 10 37 12 37 5z m34 -36 c-3 -5 -12 -9 -20 -9 -8 0 -12 -4
-9 -10 3 -5 1 -10 -6 -10 -7 0 -9 -3 -6 -6 4 -4 13 -2 21 5 22 18 56 22 56 6
0 -8 -4 -16 -9 -20 -5 -3 -12 -19 -16 -35 -7 -31 -51 -74 -66 -64 -5 3 -9 1
-9 -4 0 -10 -69 -33 -96 -31 -11 1 -43 27 -73 60 -48 52 -52 60 -44 86 9 26
15 29 74 35 35 4 72 9 82 12 25 6 21 -6 -15 -48 -18 -20 -43 -38 -55 -39 -13
-1 -23 -5 -23 -10 0 -8 50 -3 93 9 21 7 22 -9 2 -26 -9 -7 -25 -27 -36 -44
l-21 -31 31 32 c29 32 31 32 41 13 6 -12 15 -18 21 -15 5 4 3 13 -6 21 -24 24
-17 41 25 62 24 12 24 12 1 6 -26 -7 -24 -1 18 53 19 24 28 29 38 21 7 -5 10
-14 7 -19z m776 -9 c19 -9 42 -56 38 -78 -3 -12 -10 -5 -23 22 -11 22 -28 41
-38 42 -10 1 -30 10 -45 19 -24 15 -23 14 6 -15 17 -17 32 -36 32 -43 0 -7 -4
-6 -10 3 -5 8 -10 11 -10 6 0 -5 11 -24 25 -42 l25 -33 -29 10 c-39 14 -53 32
-67 84 -13 54 4 70 51 47 16 -9 37 -18 45 -22z m237 -11 c-15 -25 -22 -24 -35
4 -7 14 -11 17 -11 7 -1 -9 4 -21 11 -28 9 -9 9 -15 1 -23 -13 -13 -59 -6
-108 15 l-30 13 31 1 c16 0 52 12 79 26 36 19 51 23 61 15 10 -8 11 -15 1 -30z
m144 -162 c-134 -233 -354 -355 -638 -357 -49 0 -83 4 -83 10 0 6 11 10 25 10
51 0 263 62 343 101 108 52 202 141 288 271 36 54 70 111 77 126 11 24 12 21
15 -41 3 -60 -1 -74 -27 -120z m-1071 149 c0 -2 -9 -11 -20 -21 -20 -18 -20
-17 -20 14 0 29 2 31 20 21 11 -6 20 -12 20 -14z m580 -1 c16 -43 7 -88 -20
-102 -23 -11 -23 -13 -4 -13 11 0 25 5 31 11 15 15 -13 -104 -37 -159 -11 -24
-43 -66 -73 -95 -51 -50 -153 -115 -164 -104 -2 3 41 51 97 106 61 61 115 125
136 162 38 68 41 77 19 59 -29 -24 -115 20 -115 59 0 9 -4 22 -9 30 -5 8 -7
-14 -5 -53 4 -57 2 -66 -13 -67 -17 -1 -17 -2 0 -6 19 -5 21 -12 8 -31 -13
-21 -58 -3 -91 36 -17 20 -30 39 -30 42 0 9 85 6 91 -4 4 -4 10 -3 13 3 4 6 3
11 -2 11 -5 0 -7 13 -4 29 2 16 -1 38 -7 50 -11 19 -9 21 19 21 25 0 32 -6 44
-35 9 -22 24 -37 39 -40 34 -9 70 -3 73 13 1 7 0 8 -3 2 -6 -13 -49 -13 -73 0
-10 5 -23 23 -28 40 -9 26 -9 30 6 30 9 1 28 7 42 15 36 21 49 18 60 -10z
m592 -148 c37 -31 24 -110 -26 -166 -14 -16 -16 -22 -6 -19 29 9 60 69 60 116
0 41 1 44 23 37 77 -24 115 -27 170 -13 31 8 57 13 57 11 0 -1 -47 -34 -105
-72 -97 -64 -195 -104 -212 -87 -3 3 -12 1 -20 -5 -9 -8 -9 0 4 32 12 32 17
80 18 169 2 151 8 192 12 90 3 -63 7 -78 25 -93z m-892 108 c0 -55 24 -105 81
-165 23 -25 36 -37 29 -27 -11 15 -6 15 31 -5 24 -13 45 -28 46 -33 1 -6 -19
-30 -44 -54 -26 -24 -43 -36 -40 -27 4 10 3 15 -3 11 -6 -3 -10 -13 -10 -21 0
-8 -4 -14 -10 -14 -5 0 -10 4 -10 10 0 5 -17 28 -37 51 -30 33 -39 52 -44 98
-11 87 -10 221 1 221 6 0 10 -20 10 -45z m-235 18 c-4 -10 -12 -30 -17 -45 -8
-22 -16 -28 -39 -28 -38 0 -38 24 -2 62 31 32 70 39 58 11z m202 -54 c2 -76
-26 -175 -53 -186 -8 -3 -14 -10 -14 -15 0 -19 31 16 56 61 l24 46 -4 -125
c-2 -69 0 -134 5 -145 6 -13 7 -3 4 30 -3 37 -2 43 4 25 6 -17 7 -4 4 40 l-6
65 36 -40 c52 -57 54 -71 19 -113 -27 -34 -33 -37 -78 -35 -92 4 -114 7 -104
13 6 4 -8 15 -30 25 -56 25 -141 119 -163 181 -18 51 -22 167 -7 214 9 29 10
27 13 -65 5 -118 60 -209 179 -297 94 -70 109 -78 75 -40 -34 35 -32 51 15
125 17 26 28 50 26 53 -8 8 -68 -90 -68 -112 -1 -36 -42 58 -49 112 -7 51 -6
54 18 63 14 5 19 10 11 10 -17 1 -115 -53 -125 -69 -3 -5 -10 -10 -14 -10 -8
0 -51 90 -51 107 0 7 16 11 72 16 9 1 14 5 12 9 -3 4 -1 8 4 8 5 0 16 24 24
53 l15 52 62 1 c34 1 64 4 68 8 14 14 18 3 20 -65z m130 56 c7 -2 15 -20 19
-41 8 -44 -5 -55 -58 -51 -30 2 -34 4 -25 16 10 12 9 14 -3 9 -12 -4 -16 4
-18 38 l-3 43 38 -5 c21 -3 43 -7 50 -9z m-300 -14 c0 -11 -5 -17 -10 -14 -5
3 -6 -3 -3 -14 10 -32 -30 -75 -67 -71 -47 5 -47 28 1 28 23 0 45 6 52 15 11
13 10 14 -4 9 -16 -6 -16 -4 0 30 19 39 34 47 31 17z m-357 -108 c0 -22 -119
-2 -163 28 l-32 21 30 -26 c44 -38 89 -49 164 -43 36 3 73 8 81 12 12 4 21 -8
37 -45 l21 -50 -36 -10 c-57 -15 -74 -13 -150 25 -49 25 -84 51 -112 85 -23
28 -38 50 -34 50 4 0 -5 14 -22 32 -23 25 -25 30 -9 24 41 -15 71 -16 95 -3
24 12 28 10 78 -39 28 -29 52 -56 52 -61z m-311 69 c15 -36 16 -49 8 -147 -4
-49 -3 -70 2 -55 5 14 10 52 11 85 1 51 3 57 13 41 116 -184 176 -254 293
-341 79 -60 88 -80 59 -122 -9 -13 -33 -28 -55 -34 -85 -26 -201 69 -287 234
-24 45 -43 86 -43 90 0 5 -7 15 -15 23 -8 8 -23 45 -35 82 l-20 67 23 52 c12
29 25 53 28 53 4 0 12 -13 18 -28z m1610 6 c-59 -112 -163 -224 -260 -281 -55
-32 -276 -113 -286 -104 -1 2 17 19 42 37 25 19 45 37 45 42 0 4 13 14 29 23
16 8 58 36 93 63 35 27 78 54 97 60 19 7 49 23 67 37 18 14 38 25 44 25 26 0
71 33 101 75 35 49 47 58 28 23z m-350 -38 c17 -7 31 -16 31 -20 0 -5 14 -12
32 -15 l31 -7 -24 -19 c-13 -10 -33 -19 -44 -20 -17 -1 -17 -2 -2 -6 9 -2 32
5 51 16 44 27 50 26 30 -4 -32 -48 -148 -24 -157 32 -3 23 -4 21 -6 -9 -2 -64
-22 -141 -47 -185 -32 -56 -112 -113 -182 -129 -81 -19 -83 -18 -14 16 73 37
161 121 189 181 22 47 53 158 53 191 0 17 2 17 14 5 8 -8 28 -20 45 -27z m458
-70 c-12 -138 -62 -274 -134 -361 -95 -114 -195 -149 -253 -87 -31 34 -24 56
41 125 33 36 58 67 55 70 -3 3 21 25 52 48 89 67 222 239 222 289 1 20 1 20
12 2 6 -12 8 -45 5 -86z m-1229 -42 c-13 -10 -26 -18 -30 -18 -9 0 -40 94 -31
97 5 2 24 11 43 21 l35 17 3 -50 c3 -41 0 -52 -20 -67z m635 62 c14 0 14 -4 4
-28 -27 -65 -38 -73 -80 -61 -36 10 -38 12 -23 28 9 10 17 36 19 59 l2 41 31
-20 c17 -10 38 -19 47 -19z m-1045 -36 c-4 -3 -12 5 -18 18 -12 22 -12 22 6 6
10 -10 15 -20 12 -24z m1222 -24 l35 -1 -40 -35 c-22 -20 -59 -49 -82 -65
l-42 -29 13 32 c8 18 17 54 21 79 l7 47 26 -14 c15 -8 43 -14 62 -14z m-780
-15 c0 -51 84 -159 160 -204 61 -36 19 -23 -166 53 -198 81 -225 94 -269 131
l-30 26 59 -27 c71 -32 139 -29 195 10 43 29 51 31 51 11z m190 -28 c0 -27 10
-63 25 -92 13 -27 22 -51 20 -53 -5 -6 -92 64 -117 93 -10 11 -17 25 -17 30 0
10 68 64 82 65 4 0 7 -19 7 -43z m-834 -87 c31 -11 73 -20 93 -20 35 0 38 -3
64 -56 16 -31 26 -58 24 -61 -7 -7 -99 33 -166 72 -35 21 -96 69 -135 107
l-71 69 67 -46 c37 -25 92 -54 124 -65z m2059 63 c-78 -72 -301 -211 -283
-176 3 4 12 27 22 49 17 39 22 42 71 52 65 13 126 42 185 87 62 47 64 43 5
-12z m-1509 -171 c-5 -4 -86 36 -86 43 0 3 20 -5 45 -17 24 -12 43 -23 41 -26z
m64 -17 c19 -7 28 -14 20 -14 -8 0 -28 6 -45 14 -39 17 -21 18 25 0z m67 -21
c-3 -3 -12 -4 -19 -1 -8 3 -5 6 6 6 11 1 17 -2 13 -5z"/>
<path d="M2790 2910 c-13 -9 -13 -10 0 -10 8 0 22 5 30 10 13 9 13 10 0 10 -8
0 -22 -5 -30 -10z"/>
<path d="M3423 2761 c-23 -16 -85 -82 -139 -146 -55 -64 -115 -135 -134 -158
-41 -48 -31 -43 74 36 80 61 303 277 286 277 -6 0 -19 -9 -29 -19 -11 -11 -22
-17 -24 -14 -6 5 -67 -25 -67 -33 0 -2 13 2 30 11 51 26 46 17 -25 -56 -75
-76 -197 -179 -211 -179 -5 0 31 40 79 88 48 48 85 91 81 94 -3 4 4 11 15 18
12 6 19 15 16 20 -7 11 49 54 95 74 26 11 30 15 14 16 -12 0 -39 -13 -61 -29z
m-83 -105 c0 -2 -8 -10 -17 -17 -16 -13 -17 -12 -4 4 13 16 21 21 21 13z"/>
<path d="M3090 2596 c-18 -48 -33 -117 -26 -123 3 -4 6 2 6 13 1 10 9 44 20
74 19 55 19 86 0 36z"/>
<path d="M3040 2411 c0 -9 -7 -25 -15 -35 -22 -28 -18 -42 5 -21 10 9 18 20
17 24 0 3 4 15 10 27 10 17 9 21 -3 21 -7 0 -14 -7 -14 -16z"/>
<path d="M2360 2919 c0 -3 7 -21 16 -38 16 -33 16 -91 -1 -136 -7 -16 -6 -18
6 -7 7 7 15 39 16 75 3 51 0 67 -16 87 -11 14 -21 22 -21 19z"/>
<path d="M2425 2880 c28 -12 37 -12 30 0 -3 6 -16 10 -28 9 -21 0 -21 -1 -2
-9z"/>
<path d="M1846 2843 c-6 -14 -5 -15 5 -6 7 7 10 15 7 18 -3 3 -9 -2 -12 -12z"/>
<path d="M1459 2718 c4 -28 6 -29 9 -9 2 13 0 27 -5 32 -6 6 -7 -3 -4 -23z"/>
<path d="M1339 2674 c-16 -41 -5 -142 20 -194 12 -25 19 -36 15 -25 -36 124
-42 181 -23 217 6 11 8 22 5 25 -3 3 -10 -7 -17 -23z"/>
<path d="M1145 2709 c-4 -6 -5 -12 -2 -15 2 -3 7 2 10 11 7 17 1 20 -8 4z"/>
<path d="M1102 1970 c0 -14 2 -19 5 -12 2 6 2 18 0 25 -3 6 -5 1 -5 -13z"/>
<path d="M2259 2633 l-34 -38 38 34 c34 33 42 41 34 41 -2 0 -19 -17 -38 -37z"/>
<path d="M2152 2010 c0 -14 2 -19 5 -12 2 6 2 18 0 25 -3 6 -5 1 -5 -13z"/>
<path d="M2492 2645 c-16 -34 -15 -35 9 -35 25 0 59 17 59 30 0 5 -12 2 -27
-6 -40 -20 -48 -17 -29 11 9 14 13 25 8 25 -5 0 -14 -11 -20 -25z"/>
<path d="M1853 2556 c12 -18 24 -32 25 -31 9 8 -11 46 -28 55 -17 9 -17 7 3
-24z"/>
<path d="M1820 2561 c0 -5 5 -13 10 -16 6 -3 10 -2 10 4 0 5 -4 13 -10 16 -5
3 -10 2 -10 -4z"/>
<path d="M2343 2483 c11 -3 17 -14 17 -31 0 -19 3 -23 11 -15 18 18 1 53 -24
52 -17 -1 -18 -2 -4 -6z"/>
<path d="M2301 2074 c0 -11 3 -14 6 -6 3 7 2 16 -1 19 -3 4 -6 -2 -5 -13z"/>
<path d="M2556 2474 c-23 -23 -20 -30 4 -9 11 10 20 20 20 22 0 7 -9 2 -24
-13z"/>
<path d="M3398 2390 c-9 -6 -40 -14 -70 -19 -43 -7 -47 -9 -18 -10 41 -1 107
16 115 29 8 13 -5 12 -27 0z"/>
<path d="M2630 2250 c-12 -8 -9 -10 12 -10 15 0 30 5 33 10 8 13 -25 13 -45 0z"/>
<path d="M1754 2297 c2 -33 -2 -41 -26 -55 -15 -9 -28 -20 -28 -25 0 -5 12 1
26 12 33 26 41 26 49 0 4 -11 9 -18 12 -16 2 3 -1 16 -8 29 -7 12 -16 39 -20
58 l-8 35 3 -38z"/>
<path d="M1606 2191 c-3 -4 6 -6 19 -3 14 2 25 6 25 8 0 8 -39 4 -44 -5z"/>
<path d="M1980 2257 c0 -1 9 -20 20 -42 11 -22 20 -34 20 -27 0 15 -28 72 -35
72 -3 0 -5 -1 -5 -3z"/>
<path d="M2053 2083 c13 -27 34 -78 47 -115 13 -37 25 -66 28 -64 9 10 -80
226 -93 226 -3 0 5 -21 18 -47z"/>
<path d="M1366 2161 c-4 -7 -5 -15 -2 -18 9 -9 19 4 14 18 -4 11 -6 11 -12 0z"/>
<path d="M1185 2139 l-30 -8 31 3 c30 2 32 -1 48 -51 9 -29 22 -55 28 -59 8
-5 9 -1 3 12 -4 10 -15 40 -24 66 -9 26 -18 47 -21 47 -3 -1 -18 -5 -35 -10z"/>
<path d="M3298 2063 c7 -3 16 -2 19 1 4 3 -2 6 -13 5 -11 0 -14 -3 -6 -6z"/>
<path d="M1486 2044 c-3 -9 -6 -24 -6 -34 0 -10 -6 -20 -12 -23 -8 -2 -9 -8
-4 -13 5 -5 11 -4 13 4 3 6 9 9 14 6 6 -3 7 5 3 20 -4 16 -1 32 6 41 7 9 8 15
2 15 -5 0 -13 -7 -16 -16z"/>
<path d="M1400 2005 c0 -19 19 -19 44 0 17 13 18 15 3 15 -9 0 -17 -4 -17 -10
0 -5 -5 -10 -11 -10 -5 0 -7 5 -4 10 3 6 1 10 -4 10 -6 0 -11 -7 -11 -15z"/>
<path d="M1603 1943 c9 -2 23 -2 30 0 6 3 -1 5 -18 5 -16 0 -22 -2 -12 -5z"/>
<path d="M1555 1912 c30 -33 90 -56 128 -49 19 4 18 4 -4 6 -28 1 -91 20 -99
30 -3 3 -16 15 -30 26 -21 16 -20 14 5 -13z"/>
<path d="M1513 1874 c21 -20 41 -33 44 -31 6 7 -58 66 -72 66 -5 0 7 -16 28
-35z"/>
<path d="M1545 1680 c-13 -6 -15 -9 -5 -9 8 0 22 4 30 9 18 12 2 12 -25 0z"/>
<path d="M2971 1998 c-1 -16 4 -28 9 -28 12 0 12 8 0 35 -8 18 -9 17 -9 -7z"/>
<path d="M2995 2010 c-4 -6 6 -7 25 -4 41 9 40 -15 -1 -50 -17 -14 -25 -26
-19 -26 19 0 60 48 60 70 0 16 -6 20 -29 20 -17 0 -33 -4 -36 -10z"/>
<path d="M2025 1900 c10 -11 20 -20 23 -20 3 0 -3 9 -13 20 -10 11 -20 20 -23
20 -3 0 3 -9 13 -20z"/>
<path d="M2831 1936 c-12 -13 -40 -31 -62 -41 -21 -10 -37 -20 -35 -22 8 -8
81 35 105 61 14 14 22 26 19 26 -2 0 -15 -11 -27 -24z"/>
<path d="M2937 1892 c-20 -22 -22 -48 -5 -58 8 -5 9 -2 4 11 -4 10 0 28 9 41
18 29 14 31 -8 6z"/>
<path d="M2368 1773 c7 -3 16 -2 19 1 4 3 -2 6 -13 5 -11 0 -14 -3 -6 -6z"/>
<path d="M2402 1765 c3 -3 47 -7 99 -9 55 -2 84 -1 69 4 -28 9 -176 13 -168 5z"/>
<path d="M2912 1658 c-7 -7 -47 -11 -109 -11 l-98 1 85 -7 c94 -8 130 -22 130
-51 0 -30 28 -13 35 21 4 18 2 36 -5 44 -15 18 -22 19 -38 3z m34 -23 c10 -26
-6 -38 -27 -19 -10 9 -16 21 -13 25 8 14 34 10 40 -6z"/>
<path d="M3149 1887 c-8 -7 -18 -22 -21 -34 -5 -20 -2 -23 25 -24 l32 -1 -35
-13 c-19 -7 -28 -14 -19 -14 9 -1 36 8 60 19 l44 20 -47 0 c-35 0 -48 4 -48
15 0 23 38 38 79 31 26 -5 32 -4 21 3 -20 14 -71 13 -91 -2z"/>
<path d="M3317 1833 c-4 -3 -7 -11 -7 -17 0 -6 5 -5 12 2 6 6 9 14 7 17 -3 3
-9 2 -12 -2z"/>
<path d="M3194 1788 l-19 -23 23 19 c12 11 22 21 22 23 0 8 -8 2 -26 -19z"/>
<path d="M1800 1754 l-55 -14 55 5 c30 3 84 5 120 6 65 1 65 2 20 10 -58 10
-73 9 -140 -7z"/>
<path d="M1813 1723 c9 -2 25 -2 35 0 9 3 1 5 -18 5 -19 0 -27 -2 -17 -5z"/>
<path d="M3520 1751 c8 -5 31 -11 50 -15 24 -4 28 -3 15 2 -31 14 -83 24 -65
13z"/>
<path d="M1286 1610 c-1 -3 1 -18 5 -35 3 -16 7 -23 8 -14 0 9 8 22 16 29 8 7
15 15 15 19 0 8 -40 9 -44 1z"/>
<path d="M1266 1575 c-3 -9 -11 -13 -17 -9 -7 4 -10 0 -7 -11 5 -29 25 -28 32
1 8 30 2 44 -8 19z"/>
<path d="M1434 1426 c-29 -22 -13 -24 26 -4 26 13 30 18 14 18 -11 0 -29 -6
-40 -14z"/>
<path d="M1490 1405 c0 -10 -10 -15 -27 -15 -23 -1 -25 -2 -11 -10 22 -13 48
-2 48 21 0 10 -2 19 -5 19 -3 0 -5 -7 -5 -15z"/>
<path d="M2948 1523 c7 -3 16 -2 19 1 4 3 -2 6 -13 5 -11 0 -14 -3 -6 -6z"/>
<path d="M2960 1416 c0 -23 11 -46 23 -46 7 0 7 4 -1 12 -25 25 -14 41 23 35
21 -3 33 -2 30 4 -10 15 -75 11 -75 -5z"/>
<path d="M3156 1557 c3 -10 9 -15 12 -12 3 3 0 11 -7 18 -10 9 -11 8 -5 -6z"/>
<path d="M2967 812 l-28 -47 31 33 c16 18 30 39 30 47 0 21 -2 19 -33 -33z"/>
<path d="M913 1643 c9 -2 23 -2 30 0 6 3 -1 5 -18 5 -16 0 -22 -2 -12 -5z"/>
<path d="M1637 1433 c-4 -3 -7 -16 -6 -27 0 -19 1 -19 10 3 10 24 8 36 -4 24z"/>
<path d="M2380 1656 c0 -2 8 -10 18 -17 15 -13 16 -12 3 4 -13 16 -21 21 -21
13z"/>
<path d="M2630 1478 c14 -14 110 -54 110 -46 0 5 -15 15 -32 22 -42 17 -85 30
-78 24z"/>
<path d="M1584 1335 c-10 -8 -14 -15 -8 -15 6 0 17 7 24 15 16 19 9 19 -16 0z"/>
<path d="M1625 1270 c-28 -7 -28 -8 -5 -9 14 0 32 4 40 9 17 11 8 11 -35 0z"/>
<path d="M2768 1340 c-15 -4 -29 -5 -32 -2 -3 3 -6 0 -6 -6 0 -17 32 -15 56 3
21 16 20 17 -18 5z"/>
<path d="M2330 1234 c0 -9 71 -108 92 -129 18 -17 -13 38 -45 80 -43 56 -47
61 -47 49z"/>
<path d="M2681 1190 c13 -16 25 -28 27 -25 7 7 -27 55 -39 55 -5 0 0 -13 12
-30z"/>
<path d="M3180 1453 c0 -13 51 -83 76 -104 22 -19 58 -33 49 -20 -3 5 1 12 7
14 13 5 -15 11 -39 8 -6 -1 -30 24 -52 55 -23 32 -41 53 -41 47z"/>
<path d="M3290 1400 c-9 -6 -10 -10 -3 -10 6 0 15 5 18 10 8 12 4 12 -15 0z"/>
<path d="M1491 1144 c-1 -52 24 -136 56 -188 25 -41 90 -105 107 -106 5 0 -11
18 -35 39 -56 49 -97 129 -114 223 -11 60 -13 66 -14 32z"/>
<path d="M1381 803 c0 -6 -4 -20 -7 -30 -5 -14 -4 -15 5 -7 7 7 11 20 8 30 -3
11 -5 14 -6 7z"/>
<path d="M1870 1005 c-7 -8 -10 -26 -8 -40 3 -13 0 -26 -6 -29 -6 -2 1 -5 15
-5 33 -1 52 20 46 51 -4 21 -4 21 -6 -3 0 -15 -7 -29 -15 -32 -29 -12 -36 26
-9 55 9 10 11 18 6 18 -6 0 -16 -7 -23 -15z"/>
<path d="M2041 904 c0 -12 -8 -27 -17 -35 -13 -11 -14 -9 -9 17 5 22 4 25 -4
14 -15 -21 -14 -50 3 -50 21 0 38 26 33 52 -4 21 -4 22 -6 2z"/>
<path d="M2523 989 c9 -5 17 -16 17 -24 0 -8 -8 -19 -17 -24 -10 -6 -13 -11
-7 -11 5 0 15 5 22 12 7 7 12 8 12 2 0 -6 7 -19 14 -30 13 -17 14 -15 3 17
-14 42 -34 69 -51 69 -6 0 -3 -5 7 -11z"/>
<path d="M3115 1030 c-3 -6 3 -23 15 -39 43 -61 72 -161 78 -266 4 -78 7 -93
14 -70 12 45 -1 140 -33 230 -24 68 -25 76 -8 55 10 -14 45 -77 77 -140 51
-101 63 -118 101 -139 23 -13 45 -21 48 -17 3 3 -3 9 -13 12 -47 18 -73 49
-128 157 -32 63 -77 137 -101 164 -25 28 -41 53 -38 57 3 3 4 6 0 6 -3 0 -9
-5 -12 -10z"/>
<path d="M3531 707 c9 -10 390 -128 401 -125 6 2 -70 29 -168 60 -188 60 -243
75 -233 65z"/>
<path d="M1171 577 c-1 -4 10 -25 24 -45 25 -37 34 -38 15 -2 -9 16 -8 19 7
14 16 -5 16 -4 -1 10 -10 8 -22 13 -27 11 -4 -3 -10 1 -12 7 -3 7 -6 9 -6 5z"/>
<path d="M1847 763 c-37 -60 -39 -63 -30 -63 4 0 21 23 36 50 33 58 28 68 -6
13z"/>
<path d="M2521 800 c0 -8 4 -22 9 -30 12 -18 12 -2 0 25 -6 13 -9 15 -9 5z"/>
<path d="M2472 770 c8 -14 26 -26 39 -27 14 -2 18 0 9 4 -8 3 -26 15 -40 27
l-24 21 16 -25z"/>
<path d="M2245 630 c3 -5 11 -10 16 -10 6 0 7 5 4 10 -3 6 -11 10 -16 10 -6 0
-7 -4 -4 -10z"/>
<path d="M2265 546 c10 -14 19 -26 22 -26 7 0 -17 39 -28 46 -6 3 -3 -5 6 -20z"/>
<path d="M2110 760 c0 -6 -11 -20 -25 -32 -14 -12 -25 -26 -25 -31 0 -6 10 -2
21 9 22 19 22 19 14 -6 -4 -14 -13 -30 -21 -36 -18 -15 -18 -21 2 -21 9 0 18
12 21 30 6 29 7 29 14 9 5 -12 13 -22 19 -22 6 0 3 11 -6 25 -11 16 -14 34 -9
55 4 16 4 30 1 30 -3 0 -6 -5 -6 -10z"/>
<path d="M2135 747 c-13 -50 -3 -58 35 -27 38 31 38 35 -2 45 -23 6 -28 3 -33
-18z m38 6 c3 -5 -4 -17 -14 -27 -19 -19 -19 -19 -19 1 0 28 22 45 33 26z"/>
<path d="M2168 659 c-16 -22 -28 -47 -28 -57 0 -12 4 -10 13 8 7 14 21 38 31
53 29 43 14 40 -16 -4z"/>
<path d="M2131 564 c0 -11 3 -14 6 -6 3 7 2 16 -1 19 -3 4 -6 -2 -5 -13z"/>
<path d="M2297 740 c-3 -11 -1 -20 4 -20 5 0 9 9 9 20 0 11 -2 20 -4 20 -2 0
-6 -9 -9 -20z"/>
<path d="M2337 727 c4 -22 1 -26 -23 -30 l-29 -5 30 2 c31 1 47 28 27 48 -6 6
-8 1 -5 -15z"/>
<path d="M1710 612 c0 -8 48 -62 56 -62 3 0 -7 16 -22 35 -27 35 -34 41 -34
27z"/>
<path d="M1687 3340 c-80 -60 -171 -210 -250 -410 -25 -63 -48 -128 -52 -145
-3 -16 21 36 53 117 93 229 186 384 263 435 21 14 39 27 39 29 0 10 -18 1 -53
-26z"/>
</g>
</svg>
